<svg width="507" height="307" viewBox="0 0 507 307" fill="none" xmlns="http://www.w3.org/2000/svg">
<path d="M469.92 251.495L415.165 233.384L436.93 216.235L488.256 230.389L469.92 251.495Z" fill="#A1BBC6"/>
<path d="M488.255 230.389V232.091L469.92 253.368V251.495L488.255 230.389Z" fill="#678289"/>
<path d="M469.92 253.368V251.495L415.165 233.384V235.217L469.92 253.368Z" fill="#BACCD3"/>
<path d="M466.121 224.308L486.857 230.02L471.424 231.787L466.213 234.307L466.121 224.308Z" fill="#8EA8AF"/>
<path d="M440.373 205.076L444.515 227.975L466.214 234.307L462.401 211.803L440.373 205.076Z" fill="#7C99A3"/>
<path d="M465.923 220.483L468.1 232.487L466.213 234.307L463.615 220.879L465.923 220.483Z" fill="#678289"/>
<path d="M503.57 232.671L402 205.3V140.532L503.57 161.968V232.671Z" fill="#37BBEF"/>
<path d="M506.868 227.329L503.57 232.671V161.968L507 158.34L506.868 227.329Z" fill="#678289"/>
<path d="M507 158.34L406.933 138L402 140.533L503.57 161.968L507 158.34Z" fill="#A1BBC6"/>
<path d="M402 140.532V205.3L503.57 232.671V161.968L402 140.532ZM501.671 221.855L403.266 196.462V142.129L501.671 163.366V221.855Z" fill="#BACCD3"/>
<path d="M499.191 223.715V225.957L493.98 224.506V222.33L499.191 223.715Z" fill="white"/>
<path d="M498.557 224.084V225.258L494.613 224.15V223.029L498.557 224.084Z" fill="#113B42"/>
<path d="M490.854 221.538V223.78L485.644 222.329V220.153L490.854 221.538Z" fill="white"/>
<path d="M490.393 221.947V223.2L486.105 222V220.813L490.393 221.947Z" fill="#113B42"/>
<path d="M499.521 220.958L471.424 156.876L501.644 163.379L501.631 221.551L499.521 220.958Z" fill="#3ED6FF"/>
<path d="M31.8637 302L0 291.081V227.354L31.8637 235.493V302Z" fill="#37BBEF"/>
<path d="M31.8638 302L76.5325 278.177V218.618L31.8638 235.493V302Z" fill="#2481BA"/>
<path d="M0 227.354L31.8637 235.493L76.5325 218.618L42.346 213L0 227.354Z" fill="#3ED6FF"/>
<path d="M27.1787 241.31V249.251L3.45459 243.295V235.354L27.1787 241.31ZM3.45459 246.105L27.1787 252.06V251.068L3.45459 245.112V246.105ZM3.45459 248.388L27.1787 254.343V253.351L3.45459 247.395V248.388ZM3.45459 250.671L27.1787 256.627V255.634L3.45459 249.678V250.671Z" fill="#D4F7FF"/>
<path d="M4.88379 237.29V240.665L25.7491 245.926V242.551L4.88379 237.29ZM4.88379 242.749L25.7491 248.01V246.69L4.88379 241.429V242.749Z" fill="#113B42"/>
<path d="M31.8638 295.429V294.913L14.5522 289.423L14.4331 289.9L31.8638 295.429ZM14.4331 287.011L31.8638 292.441V291.915L14.5522 286.525L14.4331 287.011ZM14.4331 284.113L31.8638 289.443V288.927L14.5522 283.626L14.4331 284.113ZM31.8638 276.946L14.5522 272.052L14.4331 272.529L31.8638 277.462V276.946ZM14.4331 275.427L31.8638 280.46V279.944L14.5522 274.941L14.4331 275.427ZM14.4331 281.214L31.8638 286.445V285.929L14.5522 280.738L14.4331 281.214ZM14.4331 278.326L31.8638 283.458V282.931L14.5522 277.839L14.4331 278.326Z" fill="#0071BC"/>
<path d="M25.1138 260.359C24.1807 260.021 23.4263 260.518 23.4263 261.471C23.4263 262.423 24.1807 263.466 25.1138 263.773C26.0468 264.081 26.8012 263.585 26.8012 262.662C26.8012 261.739 26.0468 260.696 25.1138 260.359ZM25.1138 266.593C24.7266 266.473 24.4189 266.692 24.4189 267.079C24.4189 267.466 24.7266 267.883 25.1138 268.002C25.5009 268.121 25.8086 267.903 25.8086 267.516C25.8086 267.129 25.5009 266.722 25.1138 266.593Z" fill="white"/>
<path d="M14.98 83V72.92H21.56V74.698H16.884V76.854H20.72V78.632H16.884V81.222H21.56V83H14.98ZM25.2818 83L22.5378 75.44H24.4418L26.2338 80.676L28.0258 75.44H29.9298L27.1858 83H25.2818ZM34.4354 83.21C33.6607 83.21 32.9771 83.0443 32.3844 82.713C31.7964 82.377 31.3344 81.9173 30.9984 81.334C30.6671 80.746 30.5014 80.074 30.5014 79.318C30.5014 78.492 30.6647 77.7733 30.9914 77.162C31.3181 76.5507 31.7684 76.077 32.3424 75.741C32.9164 75.4003 33.5767 75.23 34.3234 75.23C35.1167 75.23 35.7911 75.4167 36.3464 75.79C36.9017 76.1633 37.3124 76.6883 37.5784 77.365C37.8444 78.0417 37.9377 78.8373 37.8584 79.752H35.9754V79.052C35.9754 78.282 35.8517 77.729 35.6044 77.393C35.3617 77.0523 34.9627 76.882 34.4074 76.882C33.7587 76.882 33.2804 77.0803 32.9724 77.477C32.6691 77.869 32.5174 78.45 32.5174 79.22C32.5174 79.9247 32.6691 80.4707 32.9724 80.858C33.2804 81.2407 33.7307 81.432 34.3234 81.432C34.6967 81.432 35.0164 81.3503 35.2824 81.187C35.5484 81.0237 35.7514 80.788 35.8914 80.48L37.7954 81.026C37.5107 81.7167 37.0604 82.2533 36.4444 82.636C35.8331 83.0187 35.1634 83.21 34.4354 83.21ZM31.9294 79.752V78.338H36.9414V79.752H31.9294ZM39.439 83V75.44H41.119V77.288L40.937 77.05C41.035 76.7887 41.1657 76.5507 41.329 76.336C41.4923 76.1213 41.693 75.944 41.931 75.804C42.113 75.692 42.3113 75.6057 42.526 75.545C42.7407 75.4797 42.9623 75.44 43.191 75.426C43.4197 75.4073 43.6483 75.412 43.877 75.44V77.218C43.667 77.1527 43.422 77.1317 43.142 77.155C42.8667 77.1737 42.617 77.2367 42.393 77.344C42.169 77.4467 41.98 77.5843 41.826 77.757C41.672 77.925 41.5553 78.1257 41.476 78.359C41.3967 78.5877 41.357 78.8467 41.357 79.136V83H39.439ZM45.9011 86.36L47.3571 82.356L47.3851 83.532L44.0951 75.44H46.0691L48.2811 81.166H47.8331L50.0311 75.44H51.9351L47.6651 86.36H45.9011ZM121.549 83C121.027 83.098 120.513 83.14 120.009 83.126C119.51 83.1167 119.062 83.0303 118.665 82.867C118.273 82.699 117.975 82.4307 117.769 82.062C117.583 81.7167 117.485 81.3667 117.475 81.012C117.466 80.6527 117.461 80.2467 117.461 79.794V73.34H119.365V79.682C119.365 79.976 119.368 80.242 119.372 80.48C119.382 80.7133 119.431 80.9 119.519 81.04C119.687 81.306 119.956 81.4507 120.324 81.474C120.693 81.4973 121.101 81.4787 121.549 81.418V83ZM116.173 76.91V75.44H121.549V76.91H116.173ZM128.386 83V79.43C128.386 79.2573 128.377 79.038 128.358 78.772C128.339 78.5013 128.281 78.2307 128.183 77.96C128.085 77.6893 127.924 77.463 127.7 77.281C127.481 77.099 127.168 77.008 126.762 77.008C126.599 77.008 126.424 77.0337 126.237 77.085C126.05 77.1363 125.875 77.2367 125.712 77.386C125.549 77.5307 125.413 77.7453 125.306 78.03C125.203 78.3147 125.152 78.6927 125.152 79.164L124.06 78.646C124.06 78.0487 124.181 77.4887 124.424 76.966C124.667 76.4433 125.031 76.021 125.516 75.699C126.006 75.377 126.622 75.216 127.364 75.216C127.957 75.216 128.44 75.3163 128.813 75.517C129.186 75.7177 129.476 75.972 129.681 76.28C129.891 76.588 130.04 76.91 130.129 77.246C130.218 77.5773 130.271 77.8807 130.29 78.156C130.309 78.4313 130.318 78.632 130.318 78.758V83H128.386ZM123.22 83V72.92H124.914V78.1H125.152V83H123.22ZM134.234 83.21C133.693 83.21 133.233 83.1073 132.855 82.902C132.482 82.692 132.197 82.4143 132.001 82.069C131.81 81.719 131.714 81.334 131.714 80.914C131.714 80.564 131.768 80.2443 131.875 79.955C131.983 79.6657 132.155 79.4113 132.393 79.192C132.636 78.968 132.96 78.7813 133.366 78.632C133.646 78.5293 133.98 78.4383 134.367 78.359C134.755 78.2797 135.193 78.205 135.683 78.135C136.173 78.0603 136.712 77.9787 137.3 77.89L136.614 78.268C136.614 77.82 136.507 77.491 136.292 77.281C136.078 77.071 135.718 76.966 135.214 76.966C134.934 76.966 134.643 77.0337 134.339 77.169C134.036 77.3043 133.824 77.5447 133.702 77.89L131.98 77.344C132.172 76.7187 132.531 76.21 133.058 75.818C133.586 75.426 134.304 75.23 135.214 75.23C135.882 75.23 136.474 75.3327 136.992 75.538C137.51 75.7433 137.902 76.098 138.168 76.602C138.318 76.882 138.406 77.162 138.434 77.442C138.462 77.722 138.476 78.0347 138.476 78.38V83H136.81V81.446L137.048 81.768C136.68 82.2767 136.281 82.6453 135.851 82.874C135.427 83.098 134.888 83.21 134.234 83.21ZM134.64 81.712C134.99 81.712 135.284 81.6513 135.522 81.53C135.765 81.404 135.956 81.2617 136.096 81.103C136.241 80.9443 136.339 80.8113 136.39 80.704C136.488 80.4987 136.544 80.2607 136.558 79.99C136.577 79.7147 136.586 79.486 136.586 79.304L137.146 79.444C136.582 79.5373 136.124 79.6167 135.774 79.682C135.424 79.7427 135.142 79.7987 134.927 79.85C134.713 79.9013 134.524 79.9573 134.36 80.018C134.174 80.0927 134.022 80.1743 133.905 80.263C133.793 80.347 133.709 80.4403 133.653 80.543C133.602 80.6457 133.576 80.76 133.576 80.886C133.576 81.0587 133.618 81.208 133.702 81.334C133.791 81.4553 133.915 81.5487 134.073 81.614C134.232 81.6793 134.421 81.712 134.64 81.712ZM144.832 83C144.31 83.098 143.796 83.14 143.292 83.126C142.793 83.1167 142.345 83.0303 141.948 82.867C141.556 82.699 141.258 82.4307 141.052 82.062C140.866 81.7167 140.768 81.3667 140.758 81.012C140.749 80.6527 140.744 80.2467 140.744 79.794V73.34H142.648V79.682C142.648 79.976 142.651 80.242 142.655 80.48C142.665 80.7133 142.714 80.9 142.802 81.04C142.97 81.306 143.239 81.4507 143.607 81.474C143.976 81.4973 144.384 81.4787 144.832 81.418V83ZM139.456 76.91V75.44H144.832V76.91H139.456ZM149.32 83V75.44H151V77.288L150.818 77.05C150.916 76.7887 151.047 76.5507 151.21 76.336C151.373 76.1213 151.574 75.944 151.812 75.804C151.994 75.692 152.192 75.6057 152.407 75.545C152.622 75.4797 152.843 75.44 153.072 75.426C153.301 75.4073 153.529 75.412 153.758 75.44V77.218C153.548 77.1527 153.303 77.1317 153.023 77.155C152.748 77.1737 152.498 77.2367 152.274 77.344C152.05 77.4467 151.861 77.5843 151.707 77.757C151.553 77.925 151.436 78.1257 151.357 78.359C151.278 78.5877 151.238 78.8467 151.238 79.136V83H149.32ZM157.903 83.224C157.311 83.224 156.828 83.1237 156.454 82.923C156.081 82.7223 155.789 82.468 155.579 82.16C155.374 81.852 155.227 81.5323 155.138 81.201C155.05 80.865 154.996 80.5593 154.977 80.284C154.959 80.0087 154.949 79.808 154.949 79.682V75.44H156.881V79.01C156.881 79.1827 156.891 79.4043 156.909 79.675C156.928 79.941 156.986 80.2093 157.084 80.48C157.182 80.7507 157.341 80.977 157.56 81.159C157.784 81.341 158.099 81.432 158.505 81.432C158.669 81.432 158.844 81.4063 159.03 81.355C159.217 81.3037 159.392 81.2057 159.555 81.061C159.719 80.9117 159.852 80.6947 159.954 80.41C160.062 80.1207 160.115 79.7427 160.115 79.276L161.207 79.794C161.207 80.3913 161.086 80.9513 160.843 81.474C160.601 81.9967 160.234 82.419 159.744 82.741C159.259 83.063 158.645 83.224 157.903 83.224ZM160.353 83V80.494H160.115V75.44H162.033V83H160.353ZM169.142 83V79.43C169.142 79.2573 169.132 79.038 169.114 78.772C169.095 78.5013 169.037 78.2307 168.939 77.96C168.841 77.6893 168.68 77.463 168.456 77.281C168.236 77.099 167.924 77.008 167.518 77.008C167.354 77.008 167.179 77.0337 166.993 77.085C166.806 77.1363 166.631 77.2367 166.468 77.386C166.304 77.5307 166.169 77.7453 166.062 78.03C165.959 78.3147 165.908 78.6927 165.908 79.164L164.816 78.646C164.816 78.0487 164.937 77.4887 165.18 76.966C165.422 76.4433 165.786 76.021 166.272 75.699C166.762 75.377 167.378 75.216 168.12 75.216C168.712 75.216 169.195 75.3163 169.569 75.517C169.942 75.7177 170.231 75.972 170.437 76.28C170.647 76.588 170.796 76.91 170.885 77.246C170.973 77.5773 171.027 77.8807 171.046 78.156C171.064 78.4313 171.074 78.632 171.074 78.758V83H169.142ZM163.976 83V75.44H165.67V77.946H165.908V83H163.976ZM179.095 83.21C178.334 83.21 177.667 83.0397 177.093 82.699C176.519 82.3583 176.071 81.8893 175.749 81.292C175.432 80.69 175.273 79.9993 175.273 79.22C175.273 78.4313 175.436 77.7383 175.763 77.141C176.09 76.539 176.54 76.07 177.114 75.734C177.688 75.398 178.348 75.23 179.095 75.23C179.856 75.23 180.523 75.4003 181.097 75.741C181.676 76.0817 182.126 76.553 182.448 77.155C182.77 77.7523 182.931 78.4407 182.931 79.22C182.931 80.004 182.768 80.697 182.441 81.299C182.119 81.8963 181.669 82.3653 181.09 82.706C180.516 83.042 179.851 83.21 179.095 83.21ZM179.095 81.432C179.706 81.432 180.161 81.2267 180.46 80.816C180.763 80.4007 180.915 79.8687 180.915 79.22C180.915 78.548 180.761 78.0113 180.453 77.61C180.15 77.2087 179.697 77.008 179.095 77.008C178.68 77.008 178.339 77.1013 178.073 77.288C177.807 77.4747 177.609 77.7337 177.478 78.065C177.352 78.3963 177.289 78.7813 177.289 79.22C177.289 79.8967 177.441 80.4357 177.744 80.837C178.052 81.2337 178.502 81.432 179.095 81.432ZM189.622 83V79.43C189.622 79.2573 189.613 79.038 189.594 78.772C189.576 78.5013 189.517 78.2307 189.419 77.96C189.321 77.6893 189.16 77.463 188.936 77.281C188.717 77.099 188.404 77.008 187.998 77.008C187.835 77.008 187.66 77.0337 187.473 77.085C187.287 77.1363 187.112 77.2367 186.948 77.386C186.785 77.5307 186.65 77.7453 186.542 78.03C186.44 78.3147 186.388 78.6927 186.388 79.164L185.296 78.646C185.296 78.0487 185.418 77.4887 185.66 76.966C185.903 76.4433 186.267 76.021 186.752 75.699C187.242 75.377 187.858 75.216 188.6 75.216C189.193 75.216 189.676 75.3163 190.049 75.517C190.423 75.7177 190.712 75.972 190.917 76.28C191.127 76.588 191.277 76.91 191.365 77.246C191.454 77.5773 191.508 77.8807 191.526 78.156C191.545 78.4313 191.554 78.632 191.554 78.758V83H189.622ZM184.456 83V75.44H186.15V77.946H186.388V83H184.456ZM198.273 83.21C197.732 83.21 197.272 83.1073 196.894 82.902C196.521 82.692 196.236 82.4143 196.04 82.069C195.849 81.719 195.753 81.334 195.753 80.914C195.753 80.564 195.807 80.2443 195.914 79.955C196.022 79.6657 196.194 79.4113 196.432 79.192C196.675 78.968 196.999 78.7813 197.405 78.632C197.685 78.5293 198.019 78.4383 198.406 78.359C198.794 78.2797 199.232 78.205 199.722 78.135C200.212 78.0603 200.751 77.9787 201.339 77.89L200.653 78.268C200.653 77.82 200.546 77.491 200.331 77.281C200.117 77.071 199.757 76.966 199.253 76.966C198.973 76.966 198.682 77.0337 198.378 77.169C198.075 77.3043 197.863 77.5447 197.741 77.89L196.019 77.344C196.211 76.7187 196.57 76.21 197.097 75.818C197.625 75.426 198.343 75.23 199.253 75.23C199.921 75.23 200.513 75.3327 201.031 75.538C201.549 75.7433 201.941 76.098 202.207 76.602C202.357 76.882 202.445 77.162 202.473 77.442C202.501 77.722 202.515 78.0347 202.515 78.38V83H200.849V81.446L201.087 81.768C200.719 82.2767 200.32 82.6453 199.89 82.874C199.466 83.098 198.927 83.21 198.273 83.21ZM198.679 81.712C199.029 81.712 199.323 81.6513 199.561 81.53C199.804 81.404 199.995 81.2617 200.135 81.103C200.28 80.9443 200.378 80.8113 200.429 80.704C200.527 80.4987 200.583 80.2607 200.597 79.99C200.616 79.7147 200.625 79.486 200.625 79.304L201.185 79.444C200.621 79.5373 200.163 79.6167 199.813 79.682C199.463 79.7427 199.181 79.7987 198.966 79.85C198.752 79.9013 198.563 79.9573 198.399 80.018C198.213 80.0927 198.061 80.1743 197.944 80.263C197.832 80.347 197.748 80.4403 197.692 80.543C197.641 80.6457 197.615 80.76 197.615 80.886C197.615 81.0587 197.657 81.208 197.741 81.334C197.83 81.4553 197.954 81.5487 198.112 81.614C198.271 81.6793 198.46 81.712 198.679 81.712ZM282.386 83V79.43C282.386 79.2573 282.377 79.038 282.358 78.772C282.339 78.5013 282.281 78.2307 282.183 77.96C282.085 77.6893 281.924 77.463 281.7 77.281C281.481 77.099 281.168 77.008 280.762 77.008C280.599 77.008 280.424 77.0337 280.237 77.085C280.05 77.1363 279.875 77.2367 279.712 77.386C279.549 77.5307 279.413 77.7453 279.306 78.03C279.203 78.3147 279.152 78.6927 279.152 79.164L278.06 78.646C278.06 78.0487 278.181 77.4887 278.424 76.966C278.667 76.4433 279.031 76.021 279.516 75.699C280.006 75.377 280.622 75.216 281.364 75.216C281.957 75.216 282.44 75.3163 282.813 75.517C283.186 75.7177 283.476 75.972 283.681 76.28C283.891 76.588 284.04 76.91 284.129 77.246C284.218 77.5773 284.271 77.8807 284.29 78.156C284.309 78.4313 284.318 78.632 284.318 78.758V83H282.386ZM277.22 83V75.44H278.914V77.946H279.152V83H277.22ZM289.512 83.21C288.737 83.21 288.053 83.0443 287.461 82.713C286.873 82.377 286.411 81.9173 286.075 81.334C285.743 80.746 285.578 80.074 285.578 79.318C285.578 78.492 285.741 77.7733 286.068 77.162C286.394 76.5507 286.845 76.077 287.419 75.741C287.993 75.4003 288.653 75.23 289.4 75.23C290.193 75.23 290.867 75.4167 291.423 75.79C291.978 76.1633 292.389 76.6883 292.655 77.365C292.921 78.0417 293.014 78.8373 292.935 79.752H291.052V79.052C291.052 78.282 290.928 77.729 290.681 77.393C290.438 77.0523 290.039 76.882 289.484 76.882C288.835 76.882 288.357 77.0803 288.049 77.477C287.745 77.869 287.594 78.45 287.594 79.22C287.594 79.9247 287.745 80.4707 288.049 80.858C288.357 81.2407 288.807 81.432 289.4 81.432C289.773 81.432 290.093 81.3503 290.359 81.187C290.625 81.0237 290.828 80.788 290.968 80.48L292.872 81.026C292.587 81.7167 292.137 82.2533 291.521 82.636C290.909 83.0187 290.24 83.21 289.512 83.21ZM287.006 79.752V78.338H292.018V79.752H287.006ZM298.029 83.21C297.254 83.21 296.571 83.0443 295.978 82.713C295.39 82.377 294.928 81.9173 294.592 81.334C294.261 80.746 294.095 80.074 294.095 79.318C294.095 78.492 294.258 77.7733 294.585 77.162C294.912 76.5507 295.362 76.077 295.936 75.741C296.51 75.4003 297.17 75.23 297.917 75.23C298.71 75.23 299.385 75.4167 299.94 75.79C300.495 76.1633 300.906 76.6883 301.172 77.365C301.438 78.0417 301.531 78.8373 301.452 79.752H299.569V79.052C299.569 78.282 299.445 77.729 299.198 77.393C298.955 77.0523 298.556 76.882 298.001 76.882C297.352 76.882 296.874 77.0803 296.566 77.477C296.263 77.869 296.111 78.45 296.111 79.22C296.111 79.9247 296.263 80.4707 296.566 80.858C296.874 81.2407 297.324 81.432 297.917 81.432C298.29 81.432 298.61 81.3503 298.876 81.187C299.142 81.0237 299.345 80.788 299.485 80.48L301.389 81.026C301.104 81.7167 300.654 82.2533 300.038 82.636C299.427 83.0187 298.757 83.21 298.029 83.21ZM295.523 79.752V78.338H300.535V79.752H295.523ZM306.099 83.21C305.403 83.21 304.794 83.035 304.272 82.685C303.749 82.335 303.341 81.859 303.047 81.257C302.757 80.655 302.613 79.976 302.613 79.22C302.613 78.45 302.76 77.7663 303.054 77.169C303.352 76.567 303.77 76.0933 304.307 75.748C304.843 75.4027 305.473 75.23 306.197 75.23C306.915 75.23 307.52 75.405 308.01 75.755C308.5 76.105 308.871 76.581 309.123 77.183C309.375 77.785 309.501 78.464 309.501 79.22C309.501 79.976 309.372 80.655 309.116 81.257C308.864 81.859 308.486 82.335 307.982 82.685C307.478 83.035 306.85 83.21 306.099 83.21ZM306.407 81.516C306.831 81.516 307.17 81.4203 307.422 81.229C307.678 81.0377 307.863 80.7693 307.975 80.424C308.087 80.0787 308.143 79.6773 308.143 79.22C308.143 78.7627 308.087 78.3613 307.975 78.016C307.863 77.6707 307.683 77.4023 307.436 77.211C307.193 77.0197 306.873 76.924 306.477 76.924C306.052 76.924 305.702 77.029 305.427 77.239C305.156 77.4443 304.955 77.722 304.825 78.072C304.694 78.4173 304.629 78.8 304.629 79.22C304.629 79.6447 304.692 80.032 304.818 80.382C304.944 80.7273 305.137 81.0027 305.399 81.208C305.66 81.4133 305.996 81.516 306.407 81.516ZM308.143 83V77.82H307.905V72.92H309.823V83H308.143ZM314.737 83.21C313.785 83.21 313.015 82.9953 312.427 82.566C311.843 82.132 311.489 81.5207 311.363 80.732L313.309 80.438C313.388 80.7927 313.563 81.0703 313.834 81.271C314.109 81.4717 314.457 81.572 314.877 81.572C315.222 81.572 315.488 81.5067 315.675 81.376C315.861 81.2407 315.955 81.054 315.955 80.816C315.955 80.6667 315.917 80.5477 315.843 80.459C315.768 80.3657 315.6 80.2747 315.339 80.186C315.082 80.0973 314.681 79.9807 314.135 79.836C313.519 79.6773 313.026 79.5 312.658 79.304C312.289 79.108 312.023 78.8747 311.86 78.604C311.696 78.3287 311.615 77.9973 311.615 77.61C311.615 77.1247 311.738 76.7047 311.986 76.35C312.233 75.9907 312.581 75.7153 313.029 75.524C313.481 75.328 314.013 75.23 314.625 75.23C315.217 75.23 315.742 75.321 316.2 75.503C316.657 75.685 317.026 75.944 317.306 76.28C317.59 76.616 317.765 77.0127 317.831 77.47L315.885 77.82C315.852 77.54 315.731 77.3183 315.521 77.155C315.311 76.9917 315.026 76.896 314.667 76.868C314.317 76.8447 314.034 76.8913 313.82 77.008C313.61 77.1247 313.505 77.2927 313.505 77.512C313.505 77.6427 313.549 77.7523 313.638 77.841C313.731 77.9297 313.92 78.0207 314.205 78.114C314.494 78.2073 314.933 78.3287 315.521 78.478C316.095 78.6273 316.554 78.8023 316.9 79.003C317.25 79.199 317.504 79.437 317.663 79.717C317.821 79.9923 317.901 80.326 317.901 80.718C317.901 81.4927 317.621 82.1017 317.061 82.545C316.501 82.9883 315.726 83.21 314.737 83.21ZM17.934 106.21C16.982 106.21 16.212 105.995 15.624 105.566C15.0407 105.132 14.686 104.521 14.56 103.732L16.506 103.438C16.5853 103.793 16.7603 104.07 17.031 104.271C17.3063 104.472 17.654 104.572 18.074 104.572C18.4193 104.572 18.6853 104.507 18.872 104.376C19.0587 104.241 19.152 104.054 19.152 103.816C19.152 103.667 19.1147 103.548 19.04 103.459C18.9653 103.366 18.7973 103.275 18.536 103.186C18.2793 103.097 17.878 102.981 17.332 102.836C16.716 102.677 16.2237 102.5 15.855 102.304C15.4863 102.108 15.2203 101.875 15.057 101.604C14.8937 101.329 14.812 100.997 14.812 100.61C14.812 100.125 14.9357 99.7047 15.183 99.35C15.4303 98.9907 15.778 98.7153 16.226 98.524C16.6787 98.328 17.2107 98.23 17.822 98.23C18.4147 98.23 18.9397 98.321 19.397 98.503C19.8543 98.685 20.223 98.944 20.503 99.28C20.7877 99.616 20.9627 100.013 21.028 100.47L19.082 100.82C19.0493 100.54 18.928 100.318 18.718 100.155C18.508 99.9917 18.2233 99.896 17.864 99.868C17.514 99.8447 17.2317 99.8913 17.017 100.008C16.807 100.125 16.702 100.293 16.702 100.512C16.702 100.643 16.7463 100.752 16.835 100.841C16.9283 100.93 17.1173 101.021 17.402 101.114C17.6913 101.207 18.13 101.329 18.718 101.478C19.292 101.627 19.7517 101.802 20.097 102.003C20.447 102.199 20.7013 102.437 20.86 102.717C21.0187 102.992 21.098 103.326 21.098 103.718C21.098 104.493 20.818 105.102 20.258 105.545C19.698 105.988 18.9233 106.21 17.934 106.21ZM26.0383 106.21C25.2776 106.21 24.6103 106.04 24.0363 105.699C23.4623 105.358 23.0143 104.889 22.6923 104.292C22.3749 103.69 22.2163 102.999 22.2163 102.22C22.2163 101.431 22.3796 100.738 22.7063 100.141C23.0329 99.539 23.4833 99.07 24.0573 98.734C24.6313 98.398 25.2916 98.23 26.0383 98.23C26.7989 98.23 27.4663 98.4003 28.0403 98.741C28.6189 99.0817 29.0693 99.553 29.3913 100.155C29.7133 100.752 29.8743 101.441 29.8743 102.22C29.8743 103.004 29.7109 103.697 29.3843 104.299C29.0623 104.896 28.6119 105.365 28.0333 105.706C27.4593 106.042 26.7943 106.21 26.0383 106.21ZM26.0383 104.432C26.6496 104.432 27.1046 104.227 27.4033 103.816C27.7066 103.401 27.8583 102.869 27.8583 102.22C27.8583 101.548 27.7043 101.011 27.3963 100.61C27.0929 100.209 26.6403 100.008 26.0383 100.008C25.6229 100.008 25.2823 100.101 25.0163 100.288C24.7503 100.475 24.5519 100.734 24.4213 101.065C24.2953 101.396 24.2323 101.781 24.2323 102.22C24.2323 102.897 24.3839 103.436 24.6873 103.837C24.9953 104.234 25.4456 104.432 26.0383 104.432ZM40.5136 106V101.534C40.5136 101.035 40.3946 100.647 40.1566 100.372C39.9233 100.092 39.5989 99.952 39.1836 99.952C38.9176 99.952 38.6866 100.015 38.4906 100.141C38.2946 100.262 38.1406 100.435 38.0286 100.659C37.9213 100.878 37.8676 101.133 37.8676 101.422L37.0696 100.89C37.0696 100.372 37.1909 99.9147 37.4336 99.518C37.6809 99.1213 38.0099 98.8133 38.4206 98.594C38.8359 98.37 39.2956 98.258 39.7996 98.258C40.6629 98.258 41.3139 98.5147 41.7526 99.028C42.1959 99.5367 42.4176 100.204 42.4176 101.03V106H40.5136ZM31.3996 106V98.44H33.0796V100.946H33.3176V106H31.3996ZM35.9636 106V101.534C35.9636 101.035 35.8446 100.647 35.6066 100.372C35.3733 100.092 35.0489 99.952 34.6336 99.952C34.2369 99.952 33.9173 100.09 33.6746 100.365C33.4366 100.636 33.3176 100.988 33.3176 101.422L32.5196 100.862C32.5196 100.367 32.6433 99.924 32.8906 99.532C33.1379 99.14 33.4693 98.8297 33.8846 98.601C34.3046 98.3723 34.7736 98.258 35.2916 98.258C35.8843 98.258 36.3696 98.384 36.7476 98.636C37.1303 98.888 37.4126 99.224 37.5946 99.644C37.7766 100.064 37.8676 100.526 37.8676 101.03V106H35.9636ZM47.6151 106.21C46.8404 106.21 46.1568 106.044 45.5641 105.713C44.9761 105.377 44.5141 104.917 44.1781 104.334C43.8468 103.746 43.6811 103.074 43.6811 102.318C43.6811 101.492 43.8444 100.773 44.1711 100.162C44.4978 99.5507 44.9481 99.077 45.5221 98.741C46.0961 98.4003 46.7564 98.23 47.5031 98.23C48.2964 98.23 48.9708 98.4167 49.5261 98.79C50.0814 99.1633 50.4921 99.6883 50.7581 100.365C51.0241 101.042 51.1174 101.837 51.0381 102.752H49.1551V102.052C49.1551 101.282 49.0314 100.729 48.7841 100.393C48.5414 100.052 48.1424 99.882 47.5871 99.882C46.9384 99.882 46.4601 100.08 46.1521 100.477C45.8488 100.869 45.6971 101.45 45.6971 102.22C45.6971 102.925 45.8488 103.471 46.1521 103.858C46.4601 104.241 46.9104 104.432 47.5031 104.432C47.8764 104.432 48.1961 104.35 48.4621 104.187C48.7281 104.024 48.9311 103.788 49.0711 103.48L50.9751 104.026C50.6904 104.717 50.2401 105.253 49.6241 105.636C49.0128 106.019 48.3431 106.21 47.6151 106.21ZM45.1091 102.752V101.338H50.1211V102.752H45.1091ZM197.965 106.21C197.013 106.21 196.243 105.995 195.655 105.566C195.072 105.132 194.717 104.521 194.591 103.732L196.537 103.438C196.617 103.793 196.792 104.07 197.062 104.271C197.338 104.472 197.685 104.572 198.105 104.572C198.451 104.572 198.717 104.507 198.903 104.376C199.09 104.241 199.183 104.054 199.183 103.816C199.183 103.667 199.146 103.548 199.071 103.459C198.997 103.366 198.829 103.275 198.567 103.186C198.311 103.097 197.909 102.981 197.363 102.836C196.747 102.677 196.255 102.5 195.886 102.304C195.518 102.108 195.252 101.875 195.088 101.604C194.925 101.329 194.843 100.997 194.843 100.61C194.843 100.125 194.967 99.7047 195.214 99.35C195.462 98.9907 195.809 98.7153 196.257 98.524C196.71 98.328 197.242 98.23 197.853 98.23C198.446 98.23 198.971 98.321 199.428 98.503C199.886 98.685 200.254 98.944 200.534 99.28C200.819 99.616 200.994 100.013 201.059 100.47L199.113 100.82C199.081 100.54 198.959 100.318 198.749 100.155C198.539 99.9917 198.255 99.896 197.895 99.868C197.545 99.8447 197.263 99.8913 197.048 100.008C196.838 100.125 196.733 100.293 196.733 100.512C196.733 100.643 196.778 100.752 196.866 100.841C196.96 100.93 197.149 101.021 197.433 101.114C197.723 101.207 198.161 101.329 198.749 101.478C199.323 101.627 199.783 101.802 200.128 102.003C200.478 102.199 200.733 102.437 200.891 102.717C201.05 102.992 201.129 103.326 201.129 103.718C201.129 104.493 200.849 105.102 200.289 105.545C199.729 105.988 198.955 106.21 197.965 106.21ZM205.482 106.224C204.889 106.224 204.406 106.124 204.033 105.923C203.659 105.722 203.368 105.468 203.158 105.16C202.952 104.852 202.805 104.532 202.716 104.201C202.628 103.865 202.574 103.559 202.556 103.284C202.537 103.009 202.528 102.808 202.528 102.682V98.44H204.46V102.01C204.46 102.183 204.469 102.404 204.488 102.675C204.506 102.941 204.565 103.209 204.663 103.48C204.761 103.751 204.919 103.977 205.139 104.159C205.363 104.341 205.678 104.432 206.084 104.432C206.247 104.432 206.422 104.406 206.609 104.355C206.795 104.304 206.97 104.206 207.134 104.061C207.297 103.912 207.43 103.695 207.533 103.41C207.64 103.121 207.694 102.743 207.694 102.276L208.786 102.794C208.786 103.391 208.664 103.951 208.422 104.474C208.179 104.997 207.813 105.419 207.323 105.741C206.837 106.063 206.224 106.224 205.482 106.224ZM207.932 106V103.494H207.694V98.44H209.612V106H207.932ZM214.9 106.21C214.116 106.21 213.444 106.035 212.884 105.685C212.324 105.335 211.895 104.859 211.596 104.257C211.297 103.655 211.148 102.976 211.148 102.22C211.148 101.455 211.302 100.771 211.61 100.169C211.923 99.567 212.361 99.0933 212.926 98.748C213.491 98.4027 214.158 98.23 214.928 98.23C215.819 98.23 216.566 98.4563 217.168 98.909C217.775 99.357 218.162 99.9707 218.33 100.75L216.426 101.254C216.314 100.862 216.118 100.556 215.838 100.337C215.563 100.118 215.25 100.008 214.9 100.008C214.499 100.008 214.17 100.106 213.913 100.302C213.656 100.493 213.467 100.757 213.346 101.093C213.225 101.424 213.164 101.8 213.164 102.22C213.164 102.878 213.309 103.412 213.598 103.823C213.892 104.229 214.326 104.432 214.9 104.432C215.329 104.432 215.656 104.334 215.88 104.138C216.104 103.942 216.272 103.662 216.384 103.298L218.33 103.704C218.115 104.507 217.709 105.125 217.112 105.559C216.515 105.993 215.777 106.21 214.9 106.21ZM224.882 106V102.43C224.882 102.257 224.873 102.038 224.854 101.772C224.835 101.501 224.777 101.231 224.679 100.96C224.581 100.689 224.42 100.463 224.196 100.281C223.977 100.099 223.664 100.008 223.258 100.008C223.095 100.008 222.92 100.034 222.733 100.085C222.546 100.136 222.371 100.237 222.208 100.386C222.045 100.531 221.909 100.745 221.802 101.03C221.699 101.315 221.648 101.693 221.648 102.164L220.556 101.646C220.556 101.049 220.677 100.489 220.92 99.966C221.163 99.4433 221.527 99.021 222.012 98.699C222.502 98.377 223.118 98.216 223.86 98.216C224.453 98.216 224.936 98.3163 225.309 98.517C225.682 98.7177 225.972 98.972 226.177 99.28C226.387 99.588 226.536 99.91 226.625 100.246C226.714 100.577 226.767 100.881 226.786 101.156C226.805 101.431 226.814 101.632 226.814 101.758V106H224.882ZM219.716 106V95.92H221.41V101.1H221.648V106H219.716ZM233.533 106.21C232.992 106.21 232.532 106.107 232.154 105.902C231.781 105.692 231.496 105.414 231.3 105.069C231.109 104.719 231.013 104.334 231.013 103.914C231.013 103.564 231.067 103.244 231.174 102.955C231.281 102.666 231.454 102.411 231.692 102.192C231.935 101.968 232.259 101.781 232.665 101.632C232.945 101.529 233.279 101.438 233.666 101.359C234.053 101.28 234.492 101.205 234.982 101.135C235.472 101.06 236.011 100.979 236.599 100.89L235.913 101.268C235.913 100.82 235.806 100.491 235.591 100.281C235.376 100.071 235.017 99.966 234.513 99.966C234.233 99.966 233.941 100.034 233.638 100.169C233.335 100.304 233.122 100.545 233.001 100.89L231.279 100.344C231.47 99.7187 231.83 99.21 232.357 98.818C232.884 98.426 233.603 98.23 234.513 98.23C235.18 98.23 235.773 98.3327 236.291 98.538C236.809 98.7433 237.201 99.098 237.467 99.602C237.616 99.882 237.705 100.162 237.733 100.442C237.761 100.722 237.775 101.035 237.775 101.38V106H236.109V104.446L236.347 104.768C235.978 105.277 235.579 105.645 235.15 105.874C234.725 106.098 234.186 106.21 233.533 106.21ZM233.939 104.712C234.289 104.712 234.583 104.651 234.821 104.53C235.064 104.404 235.255 104.262 235.395 104.103C235.54 103.944 235.638 103.811 235.689 103.704C235.787 103.499 235.843 103.261 235.857 102.99C235.876 102.715 235.885 102.486 235.885 102.304L236.445 102.444C235.88 102.537 235.423 102.617 235.073 102.682C234.723 102.743 234.441 102.799 234.226 102.85C234.011 102.901 233.822 102.957 233.659 103.018C233.472 103.093 233.321 103.174 233.204 103.263C233.092 103.347 233.008 103.44 232.952 103.543C232.901 103.646 232.875 103.76 232.875 103.886C232.875 104.059 232.917 104.208 233.001 104.334C233.09 104.455 233.213 104.549 233.372 104.614C233.531 104.679 233.72 104.712 233.939 104.712ZM242.549 106.21C241.597 106.21 240.827 105.995 240.239 105.566C239.656 105.132 239.301 104.521 239.175 103.732L241.121 103.438C241.201 103.793 241.376 104.07 241.646 104.271C241.922 104.472 242.269 104.572 242.689 104.572C243.035 104.572 243.301 104.507 243.487 104.376C243.674 104.241 243.767 104.054 243.767 103.816C243.767 103.667 243.73 103.548 243.655 103.459C243.581 103.366 243.413 103.275 243.151 103.186C242.895 103.097 242.493 102.981 241.947 102.836C241.331 102.677 240.839 102.5 240.47 102.304C240.102 102.108 239.836 101.875 239.672 101.604C239.509 101.329 239.427 100.997 239.427 100.61C239.427 100.125 239.551 99.7047 239.798 99.35C240.046 98.9907 240.393 98.7153 240.841 98.524C241.294 98.328 241.826 98.23 242.437 98.23C243.03 98.23 243.555 98.321 244.012 98.503C244.47 98.685 244.838 98.944 245.118 99.28C245.403 99.616 245.578 100.013 245.643 100.47L243.697 100.82C243.665 100.54 243.543 100.318 243.333 100.155C243.123 99.9917 242.839 99.896 242.479 99.868C242.129 99.8447 241.847 99.8913 241.632 100.008C241.422 100.125 241.317 100.293 241.317 100.512C241.317 100.643 241.362 100.752 241.45 100.841C241.544 100.93 241.733 101.021 242.017 101.114C242.307 101.207 242.745 101.329 243.333 101.478C243.907 101.627 244.367 101.802 244.712 102.003C245.062 102.199 245.317 102.437 245.475 102.717C245.634 102.992 245.713 103.326 245.713 103.718C245.713 104.493 245.433 105.102 244.873 105.545C244.313 105.988 243.539 106.21 242.549 106.21ZM175.662 129C175.14 129.098 174.626 129.14 174.122 129.126C173.623 129.117 173.175 129.03 172.778 128.867C172.386 128.699 172.088 128.431 171.882 128.062C171.696 127.717 171.598 127.367 171.588 127.012C171.579 126.653 171.574 126.247 171.574 125.794V119.34H173.478V125.682C173.478 125.976 173.481 126.242 173.485 126.48C173.495 126.713 173.544 126.9 173.632 127.04C173.8 127.306 174.069 127.451 174.437 127.474C174.806 127.497 175.214 127.479 175.662 127.418V129ZM170.286 122.91V121.44H175.662V122.91H170.286ZM180.339 129.21C179.578 129.21 178.911 129.04 178.337 128.699C177.763 128.358 177.315 127.889 176.993 127.292C176.676 126.69 176.517 125.999 176.517 125.22C176.517 124.431 176.68 123.738 177.007 123.141C177.334 122.539 177.784 122.07 178.358 121.734C178.932 121.398 179.592 121.23 180.339 121.23C181.1 121.23 181.767 121.4 182.341 121.741C182.92 122.082 183.37 122.553 183.692 123.155C184.014 123.752 184.175 124.441 184.175 125.22C184.175 126.004 184.012 126.697 183.685 127.299C183.363 127.896 182.913 128.365 182.334 128.706C181.76 129.042 181.095 129.21 180.339 129.21ZM180.339 127.432C180.95 127.432 181.405 127.227 181.704 126.816C182.007 126.401 182.159 125.869 182.159 125.22C182.159 124.548 182.005 124.011 181.697 123.61C181.394 123.209 180.941 123.008 180.339 123.008C179.924 123.008 179.583 123.101 179.317 123.288C179.051 123.475 178.853 123.734 178.722 124.065C178.596 124.396 178.533 124.781 178.533 125.22C178.533 125.897 178.685 126.436 178.988 126.837C179.296 127.234 179.746 127.432 180.339 127.432ZM191.583 129.21C190.888 129.21 190.279 129.035 189.756 128.685C189.233 128.335 188.825 127.859 188.531 127.257C188.242 126.655 188.097 125.976 188.097 125.22C188.097 124.45 188.244 123.766 188.538 123.169C188.837 122.567 189.254 122.093 189.791 121.748C190.328 121.403 190.958 121.23 191.681 121.23C192.4 121.23 193.004 121.405 193.494 121.755C193.984 122.105 194.355 122.581 194.607 123.183C194.859 123.785 194.985 124.464 194.985 125.22C194.985 125.976 194.857 126.655 194.6 127.257C194.348 127.859 193.97 128.335 193.466 128.685C192.962 129.035 192.334 129.21 191.583 129.21ZM191.891 127.516C192.316 127.516 192.654 127.42 192.906 127.229C193.163 127.038 193.347 126.769 193.459 126.424C193.571 126.079 193.627 125.677 193.627 125.22C193.627 124.763 193.571 124.361 193.459 124.016C193.347 123.671 193.167 123.402 192.92 123.211C192.677 123.02 192.358 122.924 191.961 122.924C191.536 122.924 191.186 123.029 190.911 123.239C190.64 123.444 190.44 123.722 190.309 124.072C190.178 124.417 190.113 124.8 190.113 125.22C190.113 125.645 190.176 126.032 190.302 126.382C190.428 126.727 190.622 127.003 190.883 127.208C191.144 127.413 191.48 127.516 191.891 127.516ZM193.627 129V123.82H193.389V118.92H195.307V129H193.627ZM200.669 129.21C199.908 129.21 199.241 129.04 198.667 128.699C198.093 128.358 197.645 127.889 197.323 127.292C197.006 126.69 196.847 125.999 196.847 125.22C196.847 124.431 197.01 123.738 197.337 123.141C197.664 122.539 198.114 122.07 198.688 121.734C199.262 121.398 199.922 121.23 200.669 121.23C201.43 121.23 202.097 121.4 202.671 121.741C203.25 122.082 203.7 122.553 204.022 123.155C204.344 123.752 204.505 124.441 204.505 125.22C204.505 126.004 204.342 126.697 204.015 127.299C203.693 127.896 203.243 128.365 202.664 128.706C202.09 129.042 201.425 129.21 200.669 129.21ZM200.669 127.432C201.28 127.432 201.735 127.227 202.034 126.816C202.337 126.401 202.489 125.869 202.489 125.22C202.489 124.548 202.335 124.011 202.027 123.61C201.724 123.209 201.271 123.008 200.669 123.008C200.254 123.008 199.913 123.101 199.647 123.288C199.381 123.475 199.183 123.734 199.052 124.065C198.926 124.396 198.863 124.781 198.863 125.22C198.863 125.897 199.015 126.436 199.318 126.837C199.626 127.234 200.076 127.432 200.669 127.432ZM208.987 120.39V118.71H210.891V120.39H208.987ZM208.987 129V121.44H210.891V129H208.987ZM217.526 129C217.003 129.098 216.49 129.14 215.986 129.126C215.486 129.117 215.038 129.03 214.642 128.867C214.25 128.699 213.951 128.431 213.746 128.062C213.559 127.717 213.461 127.367 213.452 127.012C213.442 126.653 213.438 126.247 213.438 125.794V119.34H215.342V125.682C215.342 125.976 215.344 126.242 215.349 126.48C215.358 126.713 215.407 126.9 215.496 127.04C215.664 127.306 215.932 127.451 216.301 127.474C216.669 127.497 217.078 127.479 217.526 127.418V129ZM212.15 122.91V121.44H217.526V122.91H212.15ZM222.164 129.21C221.212 129.21 220.442 128.995 219.854 128.566C219.271 128.132 218.916 127.521 218.79 126.732L220.736 126.438C220.816 126.793 220.991 127.07 221.261 127.271C221.537 127.472 221.884 127.572 222.304 127.572C222.65 127.572 222.916 127.507 223.102 127.376C223.289 127.241 223.382 127.054 223.382 126.816C223.382 126.667 223.345 126.548 223.27 126.459C223.196 126.366 223.028 126.275 222.766 126.186C222.51 126.097 222.108 125.981 221.562 125.836C220.946 125.677 220.454 125.5 220.085 125.304C219.717 125.108 219.451 124.875 219.287 124.604C219.124 124.329 219.042 123.997 219.042 123.61C219.042 123.125 219.166 122.705 219.413 122.35C219.661 121.991 220.008 121.715 220.456 121.524C220.909 121.328 221.441 121.23 222.052 121.23C222.645 121.23 223.17 121.321 223.627 121.503C224.085 121.685 224.453 121.944 224.733 122.28C225.018 122.616 225.193 123.013 225.258 123.47L223.312 123.82C223.28 123.54 223.158 123.318 222.948 123.155C222.738 122.992 222.454 122.896 222.094 122.868C221.744 122.845 221.462 122.891 221.247 123.008C221.037 123.125 220.932 123.293 220.932 123.512C220.932 123.643 220.977 123.752 221.065 123.841C221.159 123.93 221.348 124.021 221.632 124.114C221.922 124.207 222.36 124.329 222.948 124.478C223.522 124.627 223.982 124.802 224.327 125.003C224.677 125.199 224.932 125.437 225.09 125.717C225.249 125.992 225.328 126.326 225.328 126.718C225.328 127.493 225.048 128.102 224.488 128.545C223.928 128.988 223.154 129.21 222.164 129.21ZM231.279 129L228.969 121.426L230.831 121.44L232.203 125.948L233.596 121.44H235.178L236.571 125.948L237.943 121.44H239.805L237.495 129H236.039L234.387 124.072L232.735 129H231.279ZM244.2 129.21C243.44 129.21 242.772 129.04 242.198 128.699C241.624 128.358 241.176 127.889 240.854 127.292C240.537 126.69 240.378 125.999 240.378 125.22C240.378 124.431 240.542 123.738 240.868 123.141C241.195 122.539 241.645 122.07 242.219 121.734C242.793 121.398 243.454 121.23 244.2 121.23C244.961 121.23 245.628 121.4 246.202 121.741C246.781 122.082 247.231 122.553 247.553 123.155C247.875 123.752 248.036 124.441 248.036 125.22C248.036 126.004 247.873 126.697 247.546 127.299C247.224 127.896 246.774 128.365 246.195 128.706C245.621 129.042 244.956 129.21 244.2 129.21ZM244.2 127.432C244.812 127.432 245.267 127.227 245.565 126.816C245.869 126.401 246.02 125.869 246.02 125.22C246.02 124.548 245.866 124.011 245.558 123.61C245.255 123.209 244.802 123.008 244.2 123.008C243.785 123.008 243.444 123.101 243.178 123.288C242.912 123.475 242.714 123.734 242.583 124.065C242.457 124.396 242.394 124.781 242.394 125.22C242.394 125.897 242.546 126.436 242.849 126.837C243.157 127.234 243.608 127.432 244.2 127.432ZM249.576 129V121.44H251.256V123.288L251.074 123.05C251.172 122.789 251.302 122.551 251.466 122.336C251.629 122.121 251.83 121.944 252.068 121.804C252.25 121.692 252.448 121.606 252.663 121.545C252.877 121.48 253.099 121.44 253.328 121.426C253.556 121.407 253.785 121.412 254.014 121.44V123.218C253.804 123.153 253.559 123.132 253.279 123.155C253.003 123.174 252.754 123.237 252.53 123.344C252.306 123.447 252.117 123.584 251.963 123.757C251.809 123.925 251.692 124.126 251.613 124.359C251.533 124.588 251.494 124.847 251.494 125.136V129H249.576ZM255.331 129L255.345 118.92H257.277V125.08L259.839 121.44H262.191L259.461 125.22L262.373 129H259.895L257.277 125.36V129H255.331ZM263.378 129V127.096H265.282V129H263.378Z" fill="white"/>
<path d="M59.4322 83.21C58.6809 83.21 58.0532 83.035 57.5492 82.685C57.0452 82.335 56.6649 81.859 56.4082 81.257C56.1562 80.655 56.0302 79.976 56.0302 79.22C56.0302 78.464 56.1562 77.785 56.4082 77.183C56.6602 76.581 57.0312 76.105 57.5212 75.755C58.0112 75.405 58.6155 75.23 59.3342 75.23C60.0575 75.23 60.6875 75.4027 61.2242 75.748C61.7609 76.0933 62.1762 76.567 62.4702 77.169C62.7689 77.7663 62.9182 78.45 62.9182 79.22C62.9182 79.976 62.7712 80.655 62.4772 81.257C62.1879 81.859 61.7819 82.335 61.2592 82.685C60.7365 83.035 60.1275 83.21 59.4322 83.21ZM55.7082 86.36V75.44H57.3882V80.62H57.6262V86.36H55.7082ZM59.1242 81.516C59.5349 81.516 59.8709 81.4133 60.1322 81.208C60.3935 81.0027 60.5872 80.7273 60.7132 80.382C60.8392 80.032 60.9022 79.6447 60.9022 79.22C60.9022 78.8 60.8369 78.4173 60.7062 78.072C60.5755 77.722 60.3725 77.4443 60.0972 77.239C59.8265 77.029 59.4789 76.924 59.0542 76.924C58.6575 76.924 58.3355 77.0197 58.0882 77.211C57.8455 77.4023 57.6682 77.6707 57.5562 78.016C57.4442 78.3613 57.3882 78.7627 57.3882 79.22C57.3882 79.6773 57.4442 80.0787 57.5562 80.424C57.6682 80.7693 57.8502 81.0377 58.1022 81.229C58.3589 81.4203 58.6995 81.516 59.1242 81.516ZM64.4585 83V75.44H66.1385V77.288L65.9565 77.05C66.0545 76.7887 66.1852 76.5507 66.3485 76.336C66.5118 76.1213 66.7125 75.944 66.9505 75.804C67.1325 75.692 67.3308 75.6057 67.5455 75.545C67.7602 75.4797 67.9818 75.44 68.2105 75.426C68.4392 75.4073 68.6678 75.412 68.8965 75.44V77.218C68.6865 77.1527 68.4415 77.1317 68.1615 77.155C67.8862 77.1737 67.6365 77.2367 67.4125 77.344C67.1885 77.4467 66.9995 77.5843 66.8455 77.757C66.6915 77.925 66.5748 78.1257 66.4955 78.359C66.4162 78.5877 66.3765 78.8467 66.3765 79.136V83H64.4585ZM73.4933 83.21C72.7327 83.21 72.0653 83.0397 71.4913 82.699C70.9173 82.3583 70.4693 81.8893 70.1473 81.292C69.83 80.69 69.6713 79.9993 69.6713 79.22C69.6713 78.4313 69.8347 77.7383 70.1613 77.141C70.488 76.539 70.9383 76.07 71.5123 75.734C72.0863 75.398 72.7467 75.23 73.4933 75.23C74.254 75.23 74.9213 75.4003 75.4953 75.741C76.074 76.0817 76.5243 76.553 76.8463 77.155C77.1683 77.7523 77.3293 78.4407 77.3293 79.22C77.3293 80.004 77.166 80.697 76.8393 81.299C76.5173 81.8963 76.067 82.3653 75.4883 82.706C74.9143 83.042 74.2493 83.21 73.4933 83.21ZM73.4933 81.432C74.1047 81.432 74.5597 81.2267 74.8583 80.816C75.1617 80.4007 75.3133 79.8687 75.3133 79.22C75.3133 78.548 75.1593 78.0113 74.8513 77.61C74.548 77.2087 74.0953 77.008 73.4933 77.008C73.078 77.008 72.7373 77.1013 72.4713 77.288C72.2053 77.4747 72.007 77.7337 71.8763 78.065C71.7503 78.3963 71.6873 78.7813 71.6873 79.22C71.6873 79.8967 71.839 80.4357 72.1423 80.837C72.4503 81.2337 72.9007 81.432 73.4933 81.432ZM82.1027 86.57C81.6733 86.57 81.265 86.5 80.8777 86.36C80.4903 86.2247 80.1427 86.0333 79.8347 85.786C79.5313 85.5433 79.284 85.2587 79.0927 84.932L80.8567 84.078C80.978 84.302 81.1507 84.4723 81.3747 84.589C81.6033 84.7057 81.8507 84.764 82.1167 84.764C82.4013 84.764 82.6697 84.715 82.9217 84.617C83.1737 84.5237 83.3743 84.3813 83.5237 84.19C83.6777 84.0033 83.75 83.77 83.7407 83.49V81.292H83.9787V75.44H85.6447V83.518C85.6447 83.7047 85.6353 83.8797 85.6167 84.043C85.6027 84.211 85.5747 84.3767 85.5327 84.54C85.4113 85.002 85.185 85.3823 84.8537 85.681C84.527 85.9797 84.1257 86.2013 83.6497 86.346C83.1737 86.4953 82.658 86.57 82.1027 86.57ZM81.9347 83.21C81.2393 83.21 80.6303 83.035 80.1077 82.685C79.585 82.335 79.1767 81.859 78.8827 81.257C78.5933 80.655 78.4487 79.976 78.4487 79.22C78.4487 78.45 78.5957 77.7663 78.8897 77.169C79.1883 76.567 79.606 76.0933 80.1427 75.748C80.6793 75.4027 81.3093 75.23 82.0327 75.23C82.7513 75.23 83.3557 75.405 83.8457 75.755C84.3357 76.105 84.7067 76.581 84.9587 77.183C85.2107 77.785 85.3367 78.464 85.3367 79.22C85.3367 79.976 85.2083 80.655 84.9517 81.257C84.6997 81.859 84.3217 82.335 83.8177 82.685C83.3137 83.035 82.686 83.21 81.9347 83.21ZM82.2427 81.516C82.6673 81.516 83.0057 81.4203 83.2577 81.229C83.5143 81.0377 83.6987 80.7693 83.8107 80.424C83.9227 80.0787 83.9787 79.6773 83.9787 79.22C83.9787 78.7627 83.9227 78.3613 83.8107 78.016C83.6987 77.6707 83.519 77.4023 83.2717 77.211C83.029 77.0197 82.7093 76.924 82.3127 76.924C81.888 76.924 81.538 77.029 81.2627 77.239C80.992 77.4443 80.7913 77.722 80.6607 78.072C80.53 78.4173 80.4647 78.8 80.4647 79.22C80.4647 79.6447 80.5277 80.032 80.6537 80.382C80.7797 80.7273 80.9733 81.0027 81.2347 81.208C81.496 81.4133 81.832 81.516 82.2427 81.516ZM87.605 83V75.44H89.285V77.288L89.103 77.05C89.201 76.7887 89.3317 76.5507 89.495 76.336C89.6583 76.1213 89.859 75.944 90.097 75.804C90.279 75.692 90.4773 75.6057 90.692 75.545C90.9067 75.4797 91.1283 75.44 91.357 75.426C91.5857 75.4073 91.8143 75.412 92.043 75.44V77.218C91.833 77.1527 91.588 77.1317 91.308 77.155C91.0327 77.1737 90.783 77.2367 90.559 77.344C90.335 77.4467 90.146 77.5843 89.992 77.757C89.838 77.925 89.7213 78.1257 89.642 78.359C89.5627 78.5877 89.523 78.8467 89.523 79.136V83H87.605ZM95.3241 83.21C94.7828 83.21 94.3231 83.1073 93.9451 82.902C93.5718 82.692 93.2871 82.4143 93.0911 82.069C92.8998 81.719 92.8041 81.334 92.8041 80.914C92.8041 80.564 92.8578 80.2443 92.9651 79.955C93.0725 79.6657 93.2451 79.4113 93.4831 79.192C93.7258 78.968 94.0501 78.7813 94.4561 78.632C94.7361 78.5293 95.0698 78.4383 95.4571 78.359C95.8445 78.2797 96.2831 78.205 96.7731 78.135C97.2631 78.0603 97.8021 77.9787 98.3901 77.89L97.7041 78.268C97.7041 77.82 97.5968 77.491 97.3821 77.281C97.1675 77.071 96.8081 76.966 96.3041 76.966C96.0241 76.966 95.7325 77.0337 95.4291 77.169C95.1258 77.3043 94.9135 77.5447 94.7921 77.89L93.0701 77.344C93.2615 76.7187 93.6208 76.21 94.1481 75.818C94.6755 75.426 95.3941 75.23 96.3041 75.23C96.9715 75.23 97.5641 75.3327 98.0821 75.538C98.6001 75.7433 98.9921 76.098 99.2581 76.602C99.4075 76.882 99.4961 77.162 99.5241 77.442C99.5521 77.722 99.5661 78.0347 99.5661 78.38V83H97.9001V81.446L98.1381 81.768C97.7695 82.2767 97.3705 82.6453 96.9411 82.874C96.5165 83.098 95.9775 83.21 95.3241 83.21ZM95.7301 81.712C96.0801 81.712 96.3741 81.6513 96.6121 81.53C96.8548 81.404 97.0461 81.2617 97.1861 81.103C97.3308 80.9443 97.4288 80.8113 97.4801 80.704C97.5781 80.4987 97.6341 80.2607 97.6481 79.99C97.6668 79.7147 97.6761 79.486 97.6761 79.304L98.2361 79.444C97.6715 79.5373 97.2141 79.6167 96.8641 79.682C96.5141 79.7427 96.2318 79.7987 96.0171 79.85C95.8025 79.9013 95.6135 79.9573 95.4501 80.018C95.2635 80.0927 95.1118 80.1743 94.9951 80.263C94.8831 80.347 94.7991 80.4403 94.7431 80.543C94.6918 80.6457 94.6661 80.76 94.6661 80.886C94.6661 81.0587 94.7081 81.208 94.7921 81.334C94.8808 81.4553 95.0045 81.5487 95.1631 81.614C95.3218 81.6793 95.5108 81.712 95.7301 81.712ZM110.486 83V78.534C110.486 78.0347 110.367 77.6473 110.129 77.372C109.896 77.092 109.572 76.952 109.156 76.952C108.89 76.952 108.659 77.015 108.463 77.141C108.267 77.2623 108.113 77.435 108.001 77.659C107.894 77.8783 107.84 78.1327 107.84 78.422L107.042 77.89C107.042 77.372 107.164 76.9147 107.406 76.518C107.654 76.1213 107.983 75.8133 108.393 75.594C108.809 75.37 109.268 75.258 109.772 75.258C110.636 75.258 111.287 75.5147 111.725 76.028C112.169 76.5367 112.39 77.204 112.39 78.03V83H110.486ZM101.372 83V75.44H103.052V77.946H103.29V83H101.372ZM105.936 83V78.534C105.936 78.0347 105.817 77.6473 105.579 77.372C105.346 77.092 105.022 76.952 104.606 76.952C104.21 76.952 103.89 77.0897 103.647 77.365C103.409 77.6357 103.29 77.988 103.29 78.422L102.492 77.862C102.492 77.3673 102.616 76.924 102.863 76.532C103.111 76.14 103.442 75.8297 103.857 75.601C104.277 75.3723 104.746 75.258 105.264 75.258C105.857 75.258 106.342 75.384 106.72 75.636C107.103 75.888 107.385 76.224 107.567 76.644C107.749 77.064 107.84 77.526 107.84 78.03V83H105.936ZM210.47 83.21C209.686 83.21 209.014 83.035 208.454 82.685C207.894 82.335 207.465 81.859 207.166 81.257C206.868 80.655 206.718 79.976 206.718 79.22C206.718 78.4547 206.872 77.771 207.18 77.169C207.493 76.567 207.932 76.0933 208.496 75.748C209.061 75.4027 209.728 75.23 210.498 75.23C211.39 75.23 212.136 75.4563 212.738 75.909C213.345 76.357 213.732 76.9707 213.9 77.75L211.996 78.254C211.884 77.862 211.688 77.5563 211.408 77.337C211.133 77.1177 210.82 77.008 210.47 77.008C210.069 77.008 209.74 77.106 209.483 77.302C209.227 77.4933 209.038 77.757 208.916 78.093C208.795 78.4243 208.734 78.8 208.734 79.22C208.734 79.878 208.879 80.4123 209.168 80.823C209.462 81.229 209.896 81.432 210.47 81.432C210.9 81.432 211.226 81.334 211.45 81.138C211.674 80.942 211.842 80.662 211.954 80.298L213.9 80.704C213.686 81.5067 213.28 82.125 212.682 82.559C212.085 82.993 211.348 83.21 210.47 83.21ZM218.497 83.21C217.737 83.21 217.069 83.0397 216.495 82.699C215.921 82.3583 215.473 81.8893 215.151 81.292C214.834 80.69 214.675 79.9993 214.675 79.22C214.675 78.4313 214.839 77.7383 215.165 77.141C215.492 76.539 215.942 76.07 216.516 75.734C217.09 75.398 217.751 75.23 218.497 75.23C219.258 75.23 219.925 75.4003 220.499 75.741C221.078 76.0817 221.528 76.553 221.85 77.155C222.172 77.7523 222.333 78.4407 222.333 79.22C222.333 80.004 222.17 80.697 221.843 81.299C221.521 81.8963 221.071 82.3653 220.492 82.706C219.918 83.042 219.253 83.21 218.497 83.21ZM218.497 81.432C219.109 81.432 219.564 81.2267 219.862 80.816C220.166 80.4007 220.317 79.8687 220.317 79.22C220.317 78.548 220.163 78.0113 219.855 77.61C219.552 77.2087 219.099 77.008 218.497 77.008C218.082 77.008 217.741 77.1013 217.475 77.288C217.209 77.4747 217.011 77.7337 216.88 78.065C216.754 78.3963 216.691 78.7813 216.691 79.22C216.691 79.8967 216.843 80.4357 217.146 80.837C217.454 81.2337 217.905 81.432 218.497 81.432ZM232.973 83V78.534C232.973 78.0347 232.854 77.6473 232.616 77.372C232.382 77.092 232.058 76.952 231.643 76.952C231.377 76.952 231.146 77.015 230.95 77.141C230.754 77.2623 230.6 77.435 230.488 77.659C230.38 77.8783 230.327 78.1327 230.327 78.422L229.529 77.89C229.529 77.372 229.65 76.9147 229.893 76.518C230.14 76.1213 230.469 75.8133 230.88 75.594C231.295 75.37 231.755 75.258 232.259 75.258C233.122 75.258 233.773 75.5147 234.212 76.028C234.655 76.5367 234.877 77.204 234.877 78.03V83H232.973ZM223.859 83V75.44H225.539V77.946H225.777V83H223.859ZM228.423 83V78.534C228.423 78.0347 228.304 77.6473 228.066 77.372C227.832 77.092 227.508 76.952 227.093 76.952C226.696 76.952 226.376 77.0897 226.134 77.365C225.896 77.6357 225.777 77.988 225.777 78.422L224.979 77.862C224.979 77.3673 225.102 76.924 225.35 76.532C225.597 76.14 225.928 75.8297 226.344 75.601C226.764 75.3723 227.233 75.258 227.751 75.258C228.343 75.258 228.829 75.384 229.207 75.636C229.589 75.888 229.872 76.224 230.054 76.644C230.236 77.064 230.327 77.526 230.327 78.03V83H228.423ZM240.407 83.21C239.655 83.21 239.028 83.035 238.524 82.685C238.02 82.335 237.639 81.859 237.383 81.257C237.131 80.655 237.005 79.976 237.005 79.22C237.005 78.464 237.131 77.785 237.383 77.183C237.635 76.581 238.006 76.105 238.496 75.755C238.986 75.405 239.59 75.23 240.309 75.23C241.032 75.23 241.662 75.4027 242.199 75.748C242.735 76.0933 243.151 76.567 243.445 77.169C243.743 77.7663 243.893 78.45 243.893 79.22C243.893 79.976 243.746 80.655 243.452 81.257C243.162 81.859 242.756 82.335 242.234 82.685C241.711 83.035 241.102 83.21 240.407 83.21ZM236.683 86.36V75.44H238.363V80.62H238.601V86.36H236.683ZM240.099 81.516C240.509 81.516 240.845 81.4133 241.107 81.208C241.368 81.0027 241.562 80.7273 241.688 80.382C241.814 80.032 241.877 79.6447 241.877 79.22C241.877 78.8 241.811 78.4173 241.681 78.072C241.55 77.722 241.347 77.4443 241.072 77.239C240.801 77.029 240.453 76.924 240.029 76.924C239.632 76.924 239.31 77.0197 239.063 77.211C238.82 77.4023 238.643 77.6707 238.531 78.016C238.419 78.3613 238.363 78.7627 238.363 79.22C238.363 79.6773 238.419 80.0787 238.531 80.424C238.643 80.7693 238.825 81.0377 239.077 81.229C239.333 81.4203 239.674 81.516 240.099 81.516ZM248.247 83.224C247.654 83.224 247.171 83.1237 246.798 82.923C246.425 82.7223 246.133 82.468 245.923 82.16C245.718 81.852 245.571 81.5323 245.482 81.201C245.393 80.865 245.34 80.5593 245.321 80.284C245.302 80.0087 245.293 79.808 245.293 79.682V75.44H247.225V79.01C247.225 79.1827 247.234 79.4043 247.253 79.675C247.272 79.941 247.33 80.2093 247.428 80.48C247.526 80.7507 247.685 80.977 247.904 81.159C248.128 81.341 248.443 81.432 248.849 81.432C249.012 81.432 249.187 81.4063 249.374 81.355C249.561 81.3037 249.736 81.2057 249.899 81.061C250.062 80.9117 250.195 80.6947 250.298 80.41C250.405 80.1207 250.459 79.7427 250.459 79.276L251.551 79.794C251.551 80.3913 251.43 80.9513 251.187 81.474C250.944 81.9967 250.578 82.419 250.088 82.741C249.603 83.063 248.989 83.224 248.247 83.224ZM250.697 83V80.494H250.459V75.44H252.377V83H250.697ZM258.87 83C258.347 83.098 257.834 83.14 257.33 83.126C256.83 83.1167 256.382 83.0303 255.986 82.867C255.594 82.699 255.295 82.4307 255.09 82.062C254.903 81.7167 254.805 81.3667 254.796 81.012C254.786 80.6527 254.782 80.2467 254.782 79.794V73.34H256.686V79.682C256.686 79.976 256.688 80.242 256.693 80.48C256.702 80.7133 256.751 80.9 256.84 81.04C257.008 81.306 257.276 81.4507 257.645 81.474C258.013 81.4973 258.422 81.4787 258.87 81.418V83ZM253.494 76.91V75.44H258.87V76.91H253.494ZM263.658 83.21C262.883 83.21 262.2 83.0443 261.607 82.713C261.019 82.377 260.557 81.9173 260.221 81.334C259.89 80.746 259.724 80.074 259.724 79.318C259.724 78.492 259.887 77.7733 260.214 77.162C260.541 76.5507 260.991 76.077 261.565 75.741C262.139 75.4003 262.799 75.23 263.546 75.23C264.339 75.23 265.014 75.4167 265.569 75.79C266.124 76.1633 266.535 76.6883 266.801 77.365C267.067 78.0417 267.16 78.8373 267.081 79.752H265.198V79.052C265.198 78.282 265.074 77.729 264.827 77.393C264.584 77.0523 264.185 76.882 263.63 76.882C262.981 76.882 262.503 77.0803 262.195 77.477C261.892 77.869 261.74 78.45 261.74 79.22C261.74 79.9247 261.892 80.4707 262.195 80.858C262.503 81.2407 262.953 81.432 263.546 81.432C263.919 81.432 264.239 81.3503 264.505 81.187C264.771 81.0237 264.974 80.788 265.114 80.48L267.018 81.026C266.733 81.7167 266.283 82.2533 265.667 82.636C265.056 83.0187 264.386 83.21 263.658 83.21ZM261.152 79.752V78.338H266.164V79.752H261.152ZM268.662 83V75.44H270.342V77.288L270.16 77.05C270.258 76.7887 270.388 76.5507 270.552 76.336C270.715 76.1213 270.916 75.944 271.154 75.804C271.336 75.692 271.534 75.6057 271.749 75.545C271.963 75.4797 272.185 75.44 272.414 75.426C272.642 75.4073 272.871 75.412 273.1 75.44V77.218C272.89 77.1527 272.645 77.1317 272.365 77.155C272.089 77.1737 271.84 77.2367 271.616 77.344C271.392 77.4467 271.203 77.5843 271.049 77.757C270.895 77.925 270.778 78.1257 270.699 78.359C270.619 78.5877 270.58 78.8467 270.58 79.136V83H268.662ZM60.5734 106V102.43C60.5734 102.257 60.5641 102.038 60.5454 101.772C60.5267 101.501 60.4684 101.231 60.3704 100.96C60.2724 100.689 60.1114 100.463 59.8874 100.281C59.6681 100.099 59.3554 100.008 58.9494 100.008C58.7861 100.008 58.6111 100.034 58.4244 100.085C58.2377 100.136 58.0627 100.237 57.8994 100.386C57.7361 100.531 57.6007 100.745 57.4934 101.03C57.3907 101.315 57.3394 101.693 57.3394 102.164L56.2474 101.646C56.2474 101.049 56.3687 100.489 56.6114 99.966C56.8541 99.4433 57.2181 99.021 57.7034 98.699C58.1934 98.377 58.8094 98.216 59.5514 98.216C60.1441 98.216 60.6271 98.3163 61.0004 98.517C61.3737 98.7177 61.6631 98.972 61.8684 99.28C62.0784 99.588 62.2277 99.91 62.3164 100.246C62.4051 100.577 62.4587 100.881 62.4774 101.156C62.4961 101.431 62.5054 101.632 62.5054 101.758V106H60.5734ZM55.4074 106V95.92H57.1014V101.1H57.3394V106H55.4074ZM66.4218 106.21C65.8805 106.21 65.4208 106.107 65.0428 105.902C64.6695 105.692 64.3848 105.414 64.1888 105.069C63.9975 104.719 63.9018 104.334 63.9018 103.914C63.9018 103.564 63.9555 103.244 64.0628 102.955C64.1701 102.666 64.3428 102.411 64.5808 102.192C64.8235 101.968 65.1478 101.781 65.5538 101.632C65.8338 101.529 66.1675 101.438 66.5548 101.359C66.9421 101.28 67.3808 101.205 67.8708 101.135C68.3608 101.06 68.8998 100.979 69.4878 100.89L68.8018 101.268C68.8018 100.82 68.6945 100.491 68.4798 100.281C68.2651 100.071 67.9058 99.966 67.4018 99.966C67.1218 99.966 66.8301 100.034 66.5268 100.169C66.2235 100.304 66.0111 100.545 65.8898 100.89L64.1678 100.344C64.3591 99.7187 64.7185 99.21 65.2458 98.818C65.7731 98.426 66.4918 98.23 67.4018 98.23C68.0691 98.23 68.6618 98.3327 69.1798 98.538C69.6978 98.7433 70.0898 99.098 70.3558 99.602C70.5051 99.882 70.5938 100.162 70.6218 100.442C70.6498 100.722 70.6638 101.035 70.6638 101.38V106H68.9978V104.446L69.2358 104.768C68.8671 105.277 68.4681 105.645 68.0388 105.874C67.6141 106.098 67.0751 106.21 66.4218 106.21ZM66.8278 104.712C67.1778 104.712 67.4718 104.651 67.7098 104.53C67.9525 104.404 68.1438 104.262 68.2838 104.103C68.4285 103.944 68.5265 103.811 68.5778 103.704C68.6758 103.499 68.7318 103.261 68.7458 102.99C68.7645 102.715 68.7738 102.486 68.7738 102.304L69.3338 102.444C68.7691 102.537 68.3118 102.617 67.9618 102.682C67.6118 102.743 67.3295 102.799 67.1148 102.85C66.9001 102.901 66.7111 102.957 66.5478 103.018C66.3611 103.093 66.2095 103.174 66.0928 103.263C65.9808 103.347 65.8968 103.44 65.8408 103.543C65.7895 103.646 65.7638 103.76 65.7638 103.886C65.7638 104.059 65.8058 104.208 65.8898 104.334C65.9785 104.455 66.1021 104.549 66.2608 104.614C66.4195 104.679 66.6085 104.712 66.8278 104.712ZM72.4839 106V98.44H74.1639V100.288L73.9819 100.05C74.0799 99.7887 74.2106 99.5507 74.3739 99.336C74.5372 99.1213 74.7379 98.944 74.9759 98.804C75.1579 98.692 75.3562 98.6057 75.5709 98.545C75.7856 98.4797 76.0072 98.44 76.2359 98.426C76.4646 98.4073 76.6932 98.412 76.9219 98.44V100.218C76.7119 100.153 76.4669 100.132 76.1869 100.155C75.9116 100.174 75.6619 100.237 75.4379 100.344C75.2139 100.447 75.0249 100.584 74.8709 100.757C74.7169 100.925 74.6002 101.126 74.5209 101.359C74.4416 101.588 74.4019 101.847 74.4019 102.136V106H72.4839ZM81.1827 106.21C80.4874 106.21 79.8784 106.035 79.3557 105.685C78.8331 105.335 78.4247 104.859 78.1307 104.257C77.8414 103.655 77.6967 102.976 77.6967 102.22C77.6967 101.45 77.8437 100.766 78.1377 100.169C78.4364 99.567 78.8541 99.0933 79.3907 98.748C79.9274 98.4027 80.5574 98.23 81.2807 98.23C81.9994 98.23 82.6037 98.405 83.0937 98.755C83.5837 99.105 83.9547 99.581 84.2067 100.183C84.4587 100.785 84.5847 101.464 84.5847 102.22C84.5847 102.976 84.4564 103.655 84.1997 104.257C83.9477 104.859 83.5697 105.335 83.0657 105.685C82.5617 106.035 81.9341 106.21 81.1827 106.21ZM81.4907 104.516C81.9154 104.516 82.2537 104.42 82.5057 104.229C82.7624 104.038 82.9467 103.769 83.0587 103.424C83.1707 103.079 83.2267 102.677 83.2267 102.22C83.2267 101.763 83.1707 101.361 83.0587 101.016C82.9467 100.671 82.7671 100.402 82.5197 100.211C82.2771 100.02 81.9574 99.924 81.5607 99.924C81.1361 99.924 80.7861 100.029 80.5107 100.239C80.2401 100.444 80.0394 100.722 79.9087 101.072C79.7781 101.417 79.7127 101.8 79.7127 102.22C79.7127 102.645 79.7757 103.032 79.9017 103.382C80.0277 103.727 80.2214 104.003 80.4827 104.208C80.7441 104.413 81.0801 104.516 81.4907 104.516ZM83.2267 106V100.82H82.9887V95.92H84.9067V106H83.2267ZM88.4767 106L86.1667 98.426L88.0287 98.44L89.4007 102.948L90.7937 98.44H92.3757L93.7687 102.948L95.1407 98.44H97.0027L94.6927 106H93.2367L91.5847 101.072L89.9327 106H88.4767ZM99.9452 106.21C99.4039 106.21 98.9442 106.107 98.5662 105.902C98.1929 105.692 97.9082 105.414 97.7122 105.069C97.5209 104.719 97.4252 104.334 97.4252 103.914C97.4252 103.564 97.4789 103.244 97.5862 102.955C97.6936 102.666 97.8662 102.411 98.1042 102.192C98.3469 101.968 98.6712 101.781 99.0772 101.632C99.3572 101.529 99.6909 101.438 100.078 101.359C100.466 101.28 100.904 101.205 101.394 101.135C101.884 101.06 102.423 100.979 103.011 100.89L102.325 101.268C102.325 100.82 102.218 100.491 102.003 100.281C101.789 100.071 101.429 99.966 100.925 99.966C100.645 99.966 100.354 100.034 100.05 100.169C99.7469 100.304 99.5346 100.545 99.4132 100.89L97.6912 100.344C97.8826 99.7187 98.2419 99.21 98.7692 98.818C99.2966 98.426 100.015 98.23 100.925 98.23C101.593 98.23 102.185 98.3327 102.703 98.538C103.221 98.7433 103.613 99.098 103.879 99.602C104.029 99.882 104.117 100.162 104.145 100.442C104.173 100.722 104.187 101.035 104.187 101.38V106H102.521V104.446L102.759 104.768C102.391 105.277 101.992 105.645 101.562 105.874C101.138 106.098 100.599 106.21 99.9452 106.21ZM100.351 104.712C100.701 104.712 100.995 104.651 101.233 104.53C101.476 104.404 101.667 104.262 101.807 104.103C101.952 103.944 102.05 103.811 102.101 103.704C102.199 103.499 102.255 103.261 102.269 102.99C102.288 102.715 102.297 102.486 102.297 102.304L102.857 102.444C102.293 102.537 101.835 102.617 101.485 102.682C101.135 102.743 100.853 102.799 100.638 102.85C100.424 102.901 100.235 102.957 100.071 103.018C99.8846 103.093 99.7329 103.174 99.6162 103.263C99.5042 103.347 99.4202 103.44 99.3642 103.543C99.3129 103.646 99.2872 103.76 99.2872 103.886C99.2872 104.059 99.3292 104.208 99.4132 104.334C99.5019 104.455 99.6256 104.549 99.7842 104.614C99.9429 104.679 100.132 104.712 100.351 104.712ZM106.007 106V98.44H107.687V100.288L107.505 100.05C107.603 99.7887 107.734 99.5507 107.897 99.336C108.061 99.1213 108.261 98.944 108.499 98.804C108.681 98.692 108.88 98.6057 109.094 98.545C109.309 98.4797 109.531 98.44 109.759 98.426C109.988 98.4073 110.217 98.412 110.445 98.44V100.218C110.235 100.153 109.99 100.132 109.71 100.155C109.435 100.174 109.185 100.237 108.961 100.344C108.737 100.447 108.548 100.584 108.394 100.757C108.24 100.925 108.124 101.126 108.044 101.359C107.965 101.588 107.925 101.847 107.925 102.136V106H106.007ZM115.154 106.21C114.379 106.21 113.696 106.044 113.103 105.713C112.515 105.377 112.053 104.917 111.717 104.334C111.386 103.746 111.22 103.074 111.22 102.318C111.22 101.492 111.383 100.773 111.71 100.162C112.037 99.5507 112.487 99.077 113.061 98.741C113.635 98.4003 114.295 98.23 115.042 98.23C115.835 98.23 116.51 98.4167 117.065 98.79C117.62 99.1633 118.031 99.6883 118.297 100.365C118.563 101.042 118.656 101.837 118.577 102.752H116.694V102.052C116.694 101.282 116.57 100.729 116.323 100.393C116.08 100.052 115.681 99.882 115.126 99.882C114.477 99.882 113.999 100.08 113.691 100.477C113.388 100.869 113.236 101.45 113.236 102.22C113.236 102.925 113.388 103.471 113.691 103.858C113.999 104.241 114.449 104.432 115.042 104.432C115.415 104.432 115.735 104.35 116.001 104.187C116.267 104.024 116.47 103.788 116.61 103.48L118.514 104.026C118.229 104.717 117.779 105.253 117.163 105.636C116.552 106.019 115.882 106.21 115.154 106.21ZM112.648 102.752V101.338H117.66V102.752H112.648ZM122.96 106V98.44H124.64V100.288L124.458 100.05C124.556 99.7887 124.687 99.5507 124.85 99.336C125.014 99.1213 125.214 98.944 125.452 98.804C125.634 98.692 125.833 98.6057 126.047 98.545C126.262 98.4797 126.484 98.44 126.712 98.426C126.941 98.4073 127.17 98.412 127.398 98.44V100.218C127.188 100.153 126.943 100.132 126.663 100.155C126.388 100.174 126.138 100.237 125.914 100.344C125.69 100.447 125.501 100.584 125.347 100.757C125.193 100.925 125.077 101.126 124.997 101.359C124.918 101.588 124.878 101.847 124.878 102.136V106H122.96ZM132.107 106.21C131.333 106.21 130.649 106.044 130.056 105.713C129.468 105.377 129.006 104.917 128.67 104.334C128.339 103.746 128.173 103.074 128.173 102.318C128.173 101.492 128.337 100.773 128.663 100.162C128.99 99.5507 129.44 99.077 130.014 98.741C130.588 98.4003 131.249 98.23 131.995 98.23C132.789 98.23 133.463 98.4167 134.018 98.79C134.574 99.1633 134.984 99.6883 135.25 100.365C135.516 101.042 135.61 101.837 135.53 102.752H133.647V102.052C133.647 101.282 133.524 100.729 133.276 100.393C133.034 100.052 132.635 99.882 132.079 99.882C131.431 99.882 130.952 100.08 130.644 100.477C130.341 100.869 130.189 101.45 130.189 102.22C130.189 102.925 130.341 103.471 130.644 103.858C130.952 104.241 131.403 104.432 131.995 104.432C132.369 104.432 132.688 104.35 132.954 104.187C133.22 104.024 133.423 103.788 133.563 103.48L135.467 104.026C135.183 104.717 134.732 105.253 134.116 105.636C133.505 106.019 132.835 106.21 132.107 106.21ZM129.601 102.752V101.338H134.613V102.752H129.601ZM140.065 106.21C139.113 106.21 138.343 105.995 137.755 105.566C137.172 105.132 136.817 104.521 136.691 103.732L138.637 103.438C138.716 103.793 138.891 104.07 139.162 104.271C139.437 104.472 139.785 104.572 140.205 104.572C140.55 104.572 140.816 104.507 141.003 104.376C141.19 104.241 141.283 104.054 141.283 103.816C141.283 103.667 141.246 103.548 141.171 103.459C141.096 103.366 140.928 103.275 140.667 103.186C140.41 103.097 140.009 102.981 139.463 102.836C138.847 102.677 138.355 102.5 137.986 102.304C137.617 102.108 137.351 101.875 137.188 101.604C137.025 101.329 136.943 100.997 136.943 100.61C136.943 100.125 137.067 99.7047 137.314 99.35C137.561 98.9907 137.909 98.7153 138.357 98.524C138.81 98.328 139.342 98.23 139.953 98.23C140.546 98.23 141.071 98.321 141.528 98.503C141.985 98.685 142.354 98.944 142.634 99.28C142.919 99.616 143.094 100.013 143.159 100.47L141.213 100.82C141.18 100.54 141.059 100.318 140.849 100.155C140.639 99.9917 140.354 99.896 139.995 99.868C139.645 99.8447 139.363 99.8913 139.148 100.008C138.938 100.125 138.833 100.293 138.833 100.512C138.833 100.643 138.877 100.752 138.966 100.841C139.059 100.93 139.248 101.021 139.533 101.114C139.822 101.207 140.261 101.329 140.849 101.478C141.423 101.627 141.883 101.802 142.228 102.003C142.578 102.199 142.832 102.437 142.991 102.717C143.15 102.992 143.229 103.326 143.229 103.718C143.229 104.493 142.949 105.102 142.389 105.545C141.829 105.988 141.054 106.21 140.065 106.21ZM148.169 106.21C147.408 106.21 146.741 106.04 146.167 105.699C145.593 105.358 145.145 104.889 144.823 104.292C144.506 103.69 144.347 102.999 144.347 102.22C144.347 101.431 144.51 100.738 144.837 100.141C145.164 99.539 145.614 99.07 146.188 98.734C146.762 98.398 147.422 98.23 148.169 98.23C148.93 98.23 149.597 98.4003 150.171 98.741C150.75 99.0817 151.2 99.553 151.522 100.155C151.844 100.752 152.005 101.441 152.005 102.22C152.005 103.004 151.842 103.697 151.515 104.299C151.193 104.896 150.743 105.365 150.164 105.706C149.59 106.042 148.925 106.21 148.169 106.21ZM148.169 104.432C148.78 104.432 149.235 104.227 149.534 103.816C149.837 103.401 149.989 102.869 149.989 102.22C149.989 101.548 149.835 101.011 149.527 100.61C149.224 100.209 148.771 100.008 148.169 100.008C147.754 100.008 147.413 100.101 147.147 100.288C146.881 100.475 146.683 100.734 146.552 101.065C146.426 101.396 146.363 101.781 146.363 102.22C146.363 102.897 146.515 103.436 146.818 103.837C147.126 104.234 147.576 104.432 148.169 104.432ZM156.358 106.224C155.766 106.224 155.283 106.124 154.909 105.923C154.536 105.722 154.244 105.468 154.034 105.16C153.829 104.852 153.682 104.532 153.593 104.201C153.505 103.865 153.451 103.559 153.432 103.284C153.414 103.009 153.404 102.808 153.404 102.682V98.44H155.336V102.01C155.336 102.183 155.346 102.404 155.364 102.675C155.383 102.941 155.441 103.209 155.539 103.48C155.637 103.751 155.796 103.977 156.015 104.159C156.239 104.341 156.554 104.432 156.96 104.432C157.124 104.432 157.299 104.406 157.485 104.355C157.672 104.304 157.847 104.206 158.01 104.061C158.174 103.912 158.307 103.695 158.409 103.41C158.517 103.121 158.57 102.743 158.57 102.276L159.662 102.794C159.662 103.391 159.541 103.951 159.298 104.474C159.056 104.997 158.689 105.419 158.199 105.741C157.714 106.063 157.1 106.224 156.358 106.224ZM158.808 106V103.494H158.57V98.44H160.488V106H158.808ZM162.445 106V98.44H164.125V100.288L163.943 100.05C164.041 99.7887 164.172 99.5507 164.335 99.336C164.498 99.1213 164.699 98.944 164.937 98.804C165.119 98.692 165.317 98.6057 165.532 98.545C165.747 98.4797 165.968 98.44 166.197 98.426C166.426 98.4073 166.654 98.412 166.883 98.44V100.218C166.673 100.153 166.428 100.132 166.148 100.155C165.873 100.174 165.623 100.237 165.399 100.344C165.175 100.447 164.986 100.584 164.832 100.757C164.678 100.925 164.561 101.126 164.482 101.359C164.403 101.588 164.363 101.847 164.363 102.136V106H162.445ZM171.41 106.21C170.626 106.21 169.954 106.035 169.394 105.685C168.834 105.335 168.404 104.859 168.106 104.257C167.807 103.655 167.658 102.976 167.658 102.22C167.658 101.455 167.812 100.771 168.12 100.169C168.432 99.567 168.871 99.0933 169.436 98.748C170 98.4027 170.668 98.23 171.438 98.23C172.329 98.23 173.076 98.4563 173.678 98.909C174.284 99.357 174.672 99.9707 174.84 100.75L172.936 101.254C172.824 100.862 172.628 100.556 172.348 100.337C172.072 100.118 171.76 100.008 171.41 100.008C171.008 100.008 170.679 100.106 170.423 100.302C170.166 100.493 169.977 100.757 169.856 101.093C169.734 101.424 169.674 101.8 169.674 102.22C169.674 102.878 169.818 103.412 170.108 103.823C170.402 104.229 170.836 104.432 171.41 104.432C171.839 104.432 172.166 104.334 172.39 104.138C172.614 103.942 172.782 103.662 172.894 103.298L174.84 103.704C174.625 104.507 174.219 105.125 173.622 105.559C173.024 105.993 172.287 106.21 171.41 106.21ZM179.549 106.21C178.774 106.21 178.09 106.044 177.498 105.713C176.91 105.377 176.448 104.917 176.112 104.334C175.78 103.746 175.615 103.074 175.615 102.318C175.615 101.492 175.778 100.773 176.105 100.162C176.431 99.5507 176.882 99.077 177.456 98.741C178.03 98.4003 178.69 98.23 179.437 98.23C180.23 98.23 180.904 98.4167 181.46 98.79C182.015 99.1633 182.426 99.6883 182.692 100.365C182.958 101.042 183.051 101.837 182.972 102.752H181.089V102.052C181.089 101.282 180.965 100.729 180.718 100.393C180.475 100.052 180.076 99.882 179.521 99.882C178.872 99.882 178.394 100.08 178.086 100.477C177.782 100.869 177.631 101.45 177.631 102.22C177.631 102.925 177.782 103.471 178.086 103.858C178.394 104.241 178.844 104.432 179.437 104.432C179.81 104.432 180.13 104.35 180.396 104.187C180.662 104.024 180.865 103.788 181.005 103.48L182.909 104.026C182.624 104.717 182.174 105.253 181.558 105.636C180.946 106.019 180.277 106.21 179.549 106.21ZM177.043 102.752V101.338H182.055V102.752H177.043ZM187.506 106.21C186.554 106.21 185.784 105.995 185.196 105.566C184.613 105.132 184.258 104.521 184.132 103.732L186.078 103.438C186.158 103.793 186.333 104.07 186.603 104.271C186.879 104.472 187.226 104.572 187.646 104.572C187.992 104.572 188.258 104.507 188.444 104.376C188.631 104.241 188.724 104.054 188.724 103.816C188.724 103.667 188.687 103.548 188.612 103.459C188.538 103.366 188.37 103.275 188.108 103.186C187.852 103.097 187.45 102.981 186.904 102.836C186.288 102.677 185.796 102.5 185.427 102.304C185.059 102.108 184.793 101.875 184.629 101.604C184.466 101.329 184.384 100.997 184.384 100.61C184.384 100.125 184.508 99.7047 184.755 99.35C185.003 98.9907 185.35 98.7153 185.798 98.524C186.251 98.328 186.783 98.23 187.394 98.23C187.987 98.23 188.512 98.321 188.969 98.503C189.427 98.685 189.795 98.944 190.075 99.28C190.36 99.616 190.535 100.013 190.6 100.47L188.654 100.82C188.622 100.54 188.5 100.318 188.29 100.155C188.08 99.9917 187.796 99.896 187.436 99.868C187.086 99.8447 186.804 99.8913 186.589 100.008C186.379 100.125 186.274 100.293 186.274 100.512C186.274 100.643 186.319 100.752 186.407 100.841C186.501 100.93 186.69 101.021 186.974 101.114C187.264 101.207 187.702 101.329 188.29 101.478C188.864 101.627 189.324 101.802 189.669 102.003C190.019 102.199 190.274 102.437 190.432 102.717C190.591 102.992 190.67 103.326 190.67 103.718C190.67 104.493 190.39 105.102 189.83 105.545C189.27 105.988 188.496 106.21 187.506 106.21ZM259.154 106V101.534C259.154 101.035 259.035 100.647 258.797 100.372C258.564 100.092 258.24 99.952 257.824 99.952C257.558 99.952 257.327 100.015 257.131 100.141C256.935 100.262 256.781 100.435 256.669 100.659C256.562 100.878 256.508 101.133 256.508 101.422L255.71 100.89C255.71 100.372 255.832 99.9147 256.074 99.518C256.322 99.1213 256.651 98.8133 257.061 98.594C257.477 98.37 257.936 98.258 258.44 98.258C259.304 98.258 259.955 98.5147 260.393 99.028C260.837 99.5367 261.058 100.204 261.058 101.03V106H259.154ZM250.04 106V98.44H251.72V100.946H251.958V106H250.04ZM254.604 106V101.534C254.604 101.035 254.485 100.647 254.247 100.372C254.014 100.092 253.69 99.952 253.274 99.952C252.878 99.952 252.558 100.09 252.315 100.365C252.077 100.636 251.958 100.988 251.958 101.422L251.16 100.862C251.16 100.367 251.284 99.924 251.531 99.532C251.779 99.14 252.11 98.8297 252.525 98.601C252.945 98.3723 253.414 98.258 253.932 98.258C254.525 98.258 255.01 98.384 255.388 98.636C255.771 98.888 256.053 99.224 256.235 99.644C256.417 100.064 256.508 100.526 256.508 101.03V106H254.604ZM266.256 106.21C265.481 106.21 264.797 106.044 264.205 105.713C263.617 105.377 263.155 104.917 262.819 104.334C262.487 103.746 262.322 103.074 262.322 102.318C262.322 101.492 262.485 100.773 262.812 100.162C263.138 99.5507 263.589 99.077 264.163 98.741C264.737 98.4003 265.397 98.23 266.144 98.23C266.937 98.23 267.611 98.4167 268.167 98.79C268.722 99.1633 269.133 99.6883 269.399 100.365C269.665 101.042 269.758 101.837 269.679 102.752H267.796V102.052C267.796 101.282 267.672 100.729 267.425 100.393C267.182 100.052 266.783 99.882 266.228 99.882C265.579 99.882 265.101 100.08 264.793 100.477C264.489 100.869 264.338 101.45 264.338 102.22C264.338 102.925 264.489 103.471 264.793 103.858C265.101 104.241 265.551 104.432 266.144 104.432C266.517 104.432 266.837 104.35 267.103 104.187C267.369 104.024 267.572 103.788 267.712 103.48L269.616 104.026C269.331 104.717 268.881 105.253 268.265 105.636C267.653 106.019 266.984 106.21 266.256 106.21ZM263.75 102.752V101.338H268.762V102.752H263.75ZM280.154 106V101.534C280.154 101.035 280.035 100.647 279.797 100.372C279.564 100.092 279.24 99.952 278.824 99.952C278.558 99.952 278.327 100.015 278.131 100.141C277.935 100.262 277.781 100.435 277.669 100.659C277.562 100.878 277.508 101.133 277.508 101.422L276.71 100.89C276.71 100.372 276.832 99.9147 277.074 99.518C277.322 99.1213 277.651 98.8133 278.061 98.594C278.477 98.37 278.936 98.258 279.44 98.258C280.304 98.258 280.955 98.5147 281.393 99.028C281.837 99.5367 282.058 100.204 282.058 101.03V106H280.154ZM271.04 106V98.44H272.72V100.946H272.958V106H271.04ZM275.604 106V101.534C275.604 101.035 275.485 100.647 275.247 100.372C275.014 100.092 274.69 99.952 274.274 99.952C273.878 99.952 273.558 100.09 273.315 100.365C273.077 100.636 272.958 100.988 272.958 101.422L272.16 100.862C272.16 100.367 272.284 99.924 272.531 99.532C272.779 99.14 273.11 98.8297 273.525 98.601C273.945 98.3723 274.414 98.258 274.932 98.258C275.525 98.258 276.01 98.384 276.388 98.636C276.771 98.888 277.053 99.224 277.235 99.644C277.417 100.064 277.508 100.526 277.508 101.03V106H275.604ZM287.144 106.21C286.383 106.21 285.716 106.04 285.142 105.699C284.568 105.358 284.12 104.889 283.798 104.292C283.48 103.69 283.322 102.999 283.322 102.22C283.322 101.431 283.485 100.738 283.812 100.141C284.138 99.539 284.589 99.07 285.163 98.734C285.737 98.398 286.397 98.23 287.144 98.23C287.904 98.23 288.572 98.4003 289.146 98.741C289.724 99.0817 290.175 99.553 290.497 100.155C290.819 100.752 290.98 101.441 290.98 102.22C290.98 103.004 290.816 103.697 290.49 104.299C290.168 104.896 289.717 105.365 289.139 105.706C288.565 106.042 287.9 106.21 287.144 106.21ZM287.144 104.432C287.755 104.432 288.21 104.227 288.509 103.816C288.812 103.401 288.964 102.869 288.964 102.22C288.964 101.548 288.81 101.011 288.502 100.61C288.198 100.209 287.746 100.008 287.144 100.008C286.728 100.008 286.388 100.101 286.122 100.288C285.856 100.475 285.657 100.734 285.527 101.065C285.401 101.396 285.338 101.781 285.338 102.22C285.338 102.897 285.489 103.436 285.793 103.837C286.101 104.234 286.551 104.432 287.144 104.432ZM292.519 106V98.44H294.199V100.288L294.017 100.05C294.115 99.7887 294.246 99.5507 294.409 99.336C294.572 99.1213 294.773 98.944 295.011 98.804C295.193 98.692 295.391 98.6057 295.606 98.545C295.821 98.4797 296.042 98.44 296.271 98.426C296.5 98.4073 296.728 98.412 296.957 98.44V100.218C296.747 100.153 296.502 100.132 296.222 100.155C295.947 100.174 295.697 100.237 295.473 100.344C295.249 100.447 295.06 100.584 294.906 100.757C294.752 100.925 294.635 101.126 294.556 101.359C294.477 101.588 294.437 101.847 294.437 102.136V106H292.519ZM298.981 109.36L300.437 105.356L300.465 106.532L297.175 98.44H299.149L301.361 104.166H300.913L303.111 98.44H305.015L300.745 109.36H298.981ZM304.738 107.89L304.85 107.092C305.074 107.111 305.256 107.073 305.396 106.98C305.536 106.891 305.632 106.761 305.683 106.588C305.739 106.42 305.751 106.224 305.718 106H304.738V104.096H306.642V106C306.642 106.672 306.486 107.181 306.173 107.526C305.861 107.871 305.382 107.993 304.738 107.89ZM19.306 129.21C18.298 129.21 17.4277 128.991 16.695 128.552C15.967 128.113 15.4047 127.5 15.008 126.711C14.616 125.922 14.42 125.005 14.42 123.96C14.42 122.915 14.616 121.998 15.008 121.209C15.4047 120.42 15.967 119.807 16.695 119.368C17.4277 118.929 18.298 118.71 19.306 118.71C20.4633 118.71 21.434 118.997 22.218 119.571C23.0067 120.145 23.562 120.922 23.884 121.902L21.966 122.434C21.7793 121.823 21.4643 121.349 21.021 121.013C20.5777 120.672 20.006 120.502 19.306 120.502C18.6667 120.502 18.1323 120.644 17.703 120.929C17.2783 121.214 16.9587 121.615 16.744 122.133C16.5293 122.651 16.422 123.26 16.422 123.96C16.422 124.66 16.5293 125.269 16.744 125.787C16.9587 126.305 17.2783 126.706 17.703 126.991C18.1323 127.276 18.6667 127.418 19.306 127.418C20.006 127.418 20.5777 127.248 21.021 126.907C21.4643 126.566 21.7793 126.093 21.966 125.486L23.884 126.018C23.562 126.998 23.0067 127.775 22.218 128.349C21.434 128.923 20.4633 129.21 19.306 129.21ZM29.1353 129.21C28.384 129.21 27.7563 129.035 27.2523 128.685C26.7483 128.335 26.368 127.859 26.1113 127.257C25.8593 126.655 25.7333 125.976 25.7333 125.22C25.7333 124.464 25.8593 123.785 26.1113 123.183C26.3633 122.581 26.7343 122.105 27.2243 121.755C27.7143 121.405 28.3186 121.23 29.0373 121.23C29.7606 121.23 30.3906 121.403 30.9273 121.748C31.464 122.093 31.8793 122.567 32.1733 123.169C32.472 123.766 32.6213 124.45 32.6213 125.22C32.6213 125.976 32.4743 126.655 32.1803 127.257C31.891 127.859 31.485 128.335 30.9623 128.685C30.4396 129.035 29.8306 129.21 29.1353 129.21ZM25.4113 132.36V121.44H27.0913V126.62H27.3293V132.36H25.4113ZM28.8273 127.516C29.238 127.516 29.574 127.413 29.8353 127.208C30.0966 127.003 30.2903 126.727 30.4163 126.382C30.5423 126.032 30.6053 125.645 30.6053 125.22C30.6053 124.8 30.54 124.417 30.4093 124.072C30.2786 123.722 30.0756 123.444 29.8003 123.239C29.5296 123.029 29.182 122.924 28.7573 122.924C28.3606 122.924 28.0386 123.02 27.7913 123.211C27.5486 123.402 27.3713 123.671 27.2593 124.016C27.1473 124.361 27.0913 124.763 27.0913 125.22C27.0913 125.677 27.1473 126.079 27.2593 126.424C27.3713 126.769 27.5533 127.038 27.8053 127.229C28.062 127.42 28.4026 127.516 28.8273 127.516ZM36.9756 129.224C36.383 129.224 35.9 129.124 35.5266 128.923C35.1533 128.722 34.8616 128.468 34.6516 128.16C34.4463 127.852 34.2993 127.532 34.2106 127.201C34.122 126.865 34.0683 126.559 34.0496 126.284C34.031 126.009 34.0216 125.808 34.0216 125.682V121.44H35.9536V125.01C35.9536 125.183 35.963 125.404 35.9816 125.675C36.0003 125.941 36.0586 126.209 36.1566 126.48C36.2546 126.751 36.4133 126.977 36.6326 127.159C36.8566 127.341 37.1716 127.432 37.5776 127.432C37.741 127.432 37.916 127.406 38.1026 127.355C38.2893 127.304 38.4643 127.206 38.6276 127.061C38.791 126.912 38.924 126.695 39.0266 126.41C39.134 126.121 39.1876 125.743 39.1876 125.276L40.2796 125.794C40.2796 126.391 40.1583 126.951 39.9156 127.474C39.673 127.997 39.3066 128.419 38.8166 128.741C38.3313 129.063 37.7176 129.224 36.9756 129.224ZM39.4256 129V126.494H39.1876V121.44H41.1056V129H39.4256ZM42.922 130.89L43.034 130.092C43.258 130.111 43.44 130.073 43.58 129.98C43.72 129.891 43.8157 129.761 43.867 129.588C43.923 129.42 43.9347 129.224 43.902 129H42.922V127.096H44.826V129C44.826 129.672 44.6697 130.181 44.357 130.526C44.0444 130.871 43.566 130.993 42.922 130.89ZM50.2945 129V118.92H52.0025L55.3345 125.612L58.6665 118.92H60.3745V129H58.5965V122.98L55.6705 129H54.9985L52.0725 122.98V129H50.2945ZM65.7414 129.21C64.9807 129.21 64.3134 129.04 63.7394 128.699C63.1654 128.358 62.7174 127.889 62.3954 127.292C62.078 126.69 61.9194 125.999 61.9194 125.22C61.9194 124.431 62.0827 123.738 62.4094 123.141C62.736 122.539 63.1864 122.07 63.7604 121.734C64.3344 121.398 64.9947 121.23 65.7414 121.23C66.502 121.23 67.1694 121.4 67.7434 121.741C68.322 122.082 68.7724 122.553 69.0944 123.155C69.4164 123.752 69.5774 124.441 69.5774 125.22C69.5774 126.004 69.414 126.697 69.0874 127.299C68.7654 127.896 68.315 128.365 67.7364 128.706C67.1624 129.042 66.4974 129.21 65.7414 129.21ZM65.7414 127.432C66.3527 127.432 66.8077 127.227 67.1064 126.816C67.4097 126.401 67.5614 125.869 67.5614 125.22C67.5614 124.548 67.4074 124.011 67.0994 123.61C66.796 123.209 66.3434 123.008 65.7414 123.008C65.326 123.008 64.9854 123.101 64.7194 123.288C64.4534 123.475 64.255 123.734 64.1244 124.065C63.9984 124.396 63.9354 124.781 63.9354 125.22C63.9354 125.897 64.087 126.436 64.3904 126.837C64.6984 127.234 65.1487 127.432 65.7414 127.432ZM73.9307 129.224C73.3381 129.224 72.8551 129.124 72.4817 128.923C72.1084 128.722 71.8167 128.468 71.6067 128.16C71.4014 127.852 71.2544 127.532 71.1657 127.201C71.0771 126.865 71.0234 126.559 71.0047 126.284C70.9861 126.009 70.9767 125.808 70.9767 125.682V121.44H72.9087V125.01C72.9087 125.183 72.9181 125.404 72.9367 125.675C72.9554 125.941 73.0137 126.209 73.1117 126.48C73.2097 126.751 73.3684 126.977 73.5877 127.159C73.8117 127.341 74.1267 127.432 74.5327 127.432C74.6961 127.432 74.8711 127.406 75.0577 127.355C75.2444 127.304 75.4194 127.206 75.5827 127.061C75.7461 126.912 75.8791 126.695 75.9817 126.41C76.0891 126.121 76.1427 125.743 76.1427 125.276L77.2347 125.794C77.2347 126.391 77.1134 126.951 76.8707 127.474C76.6281 127.997 76.2617 128.419 75.7717 128.741C75.2864 129.063 74.6727 129.224 73.9307 129.224ZM76.3807 129V126.494H76.1427V121.44H78.0607V129H76.3807ZM82.9711 129.21C82.0191 129.21 81.2491 128.995 80.6611 128.566C80.0778 128.132 79.7231 127.521 79.5971 126.732L81.5431 126.438C81.6224 126.793 81.7974 127.07 82.0681 127.271C82.3434 127.472 82.6911 127.572 83.1111 127.572C83.4564 127.572 83.7224 127.507 83.9091 127.376C84.0958 127.241 84.1891 127.054 84.1891 126.816C84.1891 126.667 84.1518 126.548 84.0771 126.459C84.0024 126.366 83.8344 126.275 83.5731 126.186C83.3164 126.097 82.9151 125.981 82.3691 125.836C81.7531 125.677 81.2608 125.5 80.8921 125.304C80.5234 125.108 80.2574 124.875 80.0941 124.604C79.9308 124.329 79.8491 123.997 79.8491 123.61C79.8491 123.125 79.9728 122.705 80.2201 122.35C80.4674 121.991 80.8151 121.715 81.2631 121.524C81.7158 121.328 82.2478 121.23 82.8591 121.23C83.4518 121.23 83.9768 121.321 84.4341 121.503C84.8914 121.685 85.2601 121.944 85.5401 122.28C85.8248 122.616 85.9998 123.013 86.0651 123.47L84.1191 123.82C84.0864 123.54 83.9651 123.318 83.7551 123.155C83.5451 122.992 83.2604 122.896 82.9011 122.868C82.5511 122.845 82.2688 122.891 82.0541 123.008C81.8441 123.125 81.7391 123.293 81.7391 123.512C81.7391 123.643 81.7834 123.752 81.8721 123.841C81.9654 123.93 82.1544 124.021 82.4391 124.114C82.7284 124.207 83.1671 124.329 83.7551 124.478C84.3291 124.627 84.7888 124.802 85.1341 125.003C85.4841 125.199 85.7384 125.437 85.8971 125.717C86.0558 125.992 86.1351 126.326 86.1351 126.718C86.1351 127.493 85.8551 128.102 85.2951 128.545C84.7351 128.988 83.9604 129.21 82.9711 129.21ZM91.1874 129.21C90.4127 129.21 89.729 129.044 89.1364 128.713C88.5484 128.377 88.0864 127.917 87.7504 127.334C87.419 126.746 87.2534 126.074 87.2534 125.318C87.2534 124.492 87.4167 123.773 87.7434 123.162C88.07 122.551 88.5204 122.077 89.0944 121.741C89.6684 121.4 90.3287 121.23 91.0754 121.23C91.8687 121.23 92.543 121.417 93.0984 121.79C93.6537 122.163 94.0644 122.688 94.3304 123.365C94.5964 124.042 94.6897 124.837 94.6104 125.752H92.7274V125.052C92.7274 124.282 92.6037 123.729 92.3564 123.393C92.1137 123.052 91.7147 122.882 91.1594 122.882C90.5107 122.882 90.0324 123.08 89.7244 123.477C89.421 123.869 89.2694 124.45 89.2694 125.22C89.2694 125.925 89.421 126.471 89.7244 126.858C90.0324 127.241 90.4827 127.432 91.0754 127.432C91.4487 127.432 91.7684 127.35 92.0344 127.187C92.3004 127.024 92.5034 126.788 92.6434 126.48L94.5474 127.026C94.2627 127.717 93.8124 128.253 93.1964 128.636C92.585 129.019 91.9154 129.21 91.1874 129.21ZM88.6814 125.752V124.338H93.6934V125.752H88.6814ZM95.7775 130.89L95.8895 130.092C96.1135 130.111 96.2955 130.073 96.4355 129.98C96.5755 129.891 96.6712 129.761 96.7225 129.588C96.7785 129.42 96.7902 129.224 96.7575 129H95.7775V127.096H97.6815V129C97.6815 129.672 97.5252 130.181 97.2125 130.526C96.8998 130.871 96.4215 130.993 95.7775 130.89ZM103.15 129V118.92H105.054V123.568L108.89 118.92H111.214L107 123.89L111.48 129H109.072L105.054 124.408V129H103.15ZM115.414 129.21C114.639 129.21 113.956 129.044 113.363 128.713C112.775 128.377 112.313 127.917 111.977 127.334C111.646 126.746 111.48 126.074 111.48 125.318C111.48 124.492 111.643 123.773 111.97 123.162C112.297 122.551 112.747 122.077 113.321 121.741C113.895 121.4 114.555 121.23 115.302 121.23C116.095 121.23 116.77 121.417 117.325 121.79C117.88 122.163 118.291 122.688 118.557 123.365C118.823 124.042 118.916 124.837 118.837 125.752H116.954V125.052C116.954 124.282 116.83 123.729 116.583 123.393C116.34 123.052 115.941 122.882 115.386 122.882C114.737 122.882 114.259 123.08 113.951 123.477C113.648 123.869 113.496 124.45 113.496 125.22C113.496 125.925 113.648 126.471 113.951 126.858C114.259 127.241 114.709 127.432 115.302 127.432C115.675 127.432 115.995 127.35 116.261 127.187C116.527 127.024 116.73 126.788 116.87 126.48L118.774 127.026C118.489 127.717 118.039 128.253 117.423 128.636C116.812 129.019 116.142 129.21 115.414 129.21ZM112.908 125.752V124.338H117.92V125.752H112.908ZM121.247 132.36L122.703 128.356L122.731 129.532L119.441 121.44H121.415L123.627 127.166H123.179L125.377 121.44H127.281L123.011 132.36H121.247ZM131.975 129.21C131.224 129.21 130.596 129.035 130.092 128.685C129.588 128.335 129.208 127.859 128.951 127.257C128.699 126.655 128.573 125.976 128.573 125.22C128.573 124.464 128.699 123.785 128.951 123.183C129.203 122.581 129.574 122.105 130.064 121.755C130.554 121.405 131.158 121.23 131.877 121.23C132.6 121.23 133.23 121.403 133.767 121.748C134.304 122.093 134.719 122.567 135.013 123.169C135.312 123.766 135.461 124.45 135.461 125.22C135.461 125.976 135.314 126.655 135.02 127.257C134.731 127.859 134.325 128.335 133.802 128.685C133.279 129.035 132.67 129.21 131.975 129.21ZM128.251 129V118.92H130.169V123.82H129.931V129H128.251ZM131.667 127.516C132.078 127.516 132.414 127.413 132.675 127.208C132.936 127.003 133.13 126.727 133.256 126.382C133.382 126.032 133.445 125.645 133.445 125.22C133.445 124.8 133.38 124.417 133.249 124.072C133.118 123.722 132.915 123.444 132.64 123.239C132.369 123.029 132.022 122.924 131.597 122.924C131.2 122.924 130.878 123.02 130.631 123.211C130.388 123.402 130.211 123.671 130.099 124.016C129.987 124.361 129.931 124.763 129.931 125.22C129.931 125.677 129.987 126.079 130.099 126.424C130.211 126.769 130.393 127.038 130.645 127.229C130.902 127.42 131.242 127.516 131.667 127.516ZM140.403 129.21C139.643 129.21 138.975 129.04 138.401 128.699C137.827 128.358 137.379 127.889 137.057 127.292C136.74 126.69 136.581 125.999 136.581 125.22C136.581 124.431 136.745 123.738 137.071 123.141C137.398 122.539 137.848 122.07 138.422 121.734C138.996 121.398 139.657 121.23 140.403 121.23C141.164 121.23 141.831 121.4 142.405 121.741C142.984 122.082 143.434 122.553 143.756 123.155C144.078 123.752 144.239 124.441 144.239 125.22C144.239 126.004 144.076 126.697 143.749 127.299C143.427 127.896 142.977 128.365 142.398 128.706C141.824 129.042 141.159 129.21 140.403 129.21ZM140.403 127.432C141.015 127.432 141.47 127.227 141.768 126.816C142.072 126.401 142.223 125.869 142.223 125.22C142.223 124.548 142.069 124.011 141.761 123.61C141.458 123.209 141.005 123.008 140.403 123.008C139.988 123.008 139.647 123.101 139.381 123.288C139.115 123.475 138.917 123.734 138.786 124.065C138.66 124.396 138.597 124.781 138.597 125.22C138.597 125.897 138.749 126.436 139.052 126.837C139.36 127.234 139.811 127.432 140.403 127.432ZM147.879 129.21C147.337 129.21 146.878 129.107 146.5 128.902C146.126 128.692 145.842 128.414 145.646 128.069C145.454 127.719 145.359 127.334 145.359 126.914C145.359 126.564 145.412 126.244 145.52 125.955C145.627 125.666 145.8 125.411 146.038 125.192C146.28 124.968 146.605 124.781 147.011 124.632C147.291 124.529 147.624 124.438 148.012 124.359C148.399 124.28 148.838 124.205 149.328 124.135C149.818 124.06 150.357 123.979 150.945 123.89L150.259 124.268C150.259 123.82 150.151 123.491 149.937 123.281C149.722 123.071 149.363 122.966 148.859 122.966C148.579 122.966 148.287 123.034 147.984 123.169C147.68 123.304 147.468 123.545 147.347 123.89L145.625 123.344C145.816 122.719 146.175 122.21 146.703 121.818C147.23 121.426 147.949 121.23 148.859 121.23C149.526 121.23 150.119 121.333 150.637 121.538C151.155 121.743 151.547 122.098 151.813 122.602C151.962 122.882 152.051 123.162 152.079 123.442C152.107 123.722 152.121 124.035 152.121 124.38V129H150.455V127.446L150.693 127.768C150.324 128.277 149.925 128.645 149.496 128.874C149.071 129.098 148.532 129.21 147.879 129.21ZM148.285 127.712C148.635 127.712 148.929 127.651 149.167 127.53C149.409 127.404 149.601 127.262 149.741 127.103C149.885 126.944 149.983 126.811 150.035 126.704C150.133 126.499 150.189 126.261 150.203 125.99C150.221 125.715 150.231 125.486 150.231 125.304L150.791 125.444C150.226 125.537 149.769 125.617 149.419 125.682C149.069 125.743 148.786 125.799 148.572 125.85C148.357 125.901 148.168 125.957 148.005 126.018C147.818 126.093 147.666 126.174 147.55 126.263C147.438 126.347 147.354 126.44 147.298 126.543C147.246 126.646 147.221 126.76 147.221 126.886C147.221 127.059 147.263 127.208 147.347 127.334C147.435 127.455 147.559 127.549 147.718 127.614C147.876 127.679 148.065 127.712 148.285 127.712ZM153.941 129V121.44H155.621V123.288L155.439 123.05C155.537 122.789 155.668 122.551 155.831 122.336C155.994 122.121 156.195 121.944 156.433 121.804C156.615 121.692 156.813 121.606 157.028 121.545C157.243 121.48 157.464 121.44 157.693 121.426C157.922 121.407 158.15 121.412 158.379 121.44V123.218C158.169 123.153 157.924 123.132 157.644 123.155C157.369 123.174 157.119 123.237 156.895 123.344C156.671 123.447 156.482 123.584 156.328 123.757C156.174 123.925 156.057 124.126 155.978 124.359C155.899 124.588 155.859 124.847 155.859 125.136V129H153.941ZM162.64 129.21C161.944 129.21 161.335 129.035 160.813 128.685C160.29 128.335 159.882 127.859 159.588 127.257C159.298 126.655 159.154 125.976 159.154 125.22C159.154 124.45 159.301 123.766 159.595 123.169C159.893 122.567 160.311 122.093 160.848 121.748C161.384 121.403 162.014 121.23 162.738 121.23C163.456 121.23 164.061 121.405 164.551 121.755C165.041 122.105 165.412 122.581 165.664 123.183C165.916 123.785 166.042 124.464 166.042 125.22C166.042 125.976 165.913 126.655 165.657 127.257C165.405 127.859 165.027 128.335 164.523 128.685C164.019 129.035 163.391 129.21 162.64 129.21ZM162.948 127.516C163.372 127.516 163.711 127.42 163.963 127.229C164.219 127.038 164.404 126.769 164.516 126.424C164.628 126.079 164.684 125.677 164.684 125.22C164.684 124.763 164.628 124.361 164.516 124.016C164.404 123.671 164.224 123.402 163.977 123.211C163.734 123.02 163.414 122.924 163.018 122.924C162.593 122.924 162.243 123.029 161.968 123.239C161.697 123.444 161.496 123.722 161.366 124.072C161.235 124.417 161.17 124.8 161.17 125.22C161.17 125.645 161.233 126.032 161.359 126.382C161.485 126.727 161.678 127.003 161.94 127.208C162.201 127.413 162.537 127.516 162.948 127.516ZM164.684 129V123.82H164.446V118.92H166.364V129H164.684Z" fill="#FFD966"/>
<path d="M280.012 307L230 282.526V259.967L280.012 282.526V307Z" fill="#37BBEF"/>
<path d="M280.013 307L324.704 282.526V260.18L280.013 282.526V307Z" fill="#2481BA"/>
<path d="M230 259.967L280.012 282.526L324.704 260.18L272.095 242.452L230 259.967Z" fill="#3ED6FF"/>
<path d="M280.012 280.504L230 257.839V236.132L280.012 256.03V280.504Z" fill="#37BBEF"/>
<path d="M280.013 280.504L324.704 258.158V236.132L280.013 256.03V280.504Z" fill="#2481BA"/>
<path d="M230 236.132L280.012 256.03L324.704 236.132L272.095 220L230 236.132Z" fill="#3ED6FF"/>
<path d="M274.585 296.114L233.831 276.748V268.555L274.585 287.389V296.114ZM274.585 270.896L233.831 253.338V245.145L274.585 262.17V270.896Z" fill="#113B42"/>
<path d="M236.119 248.826L242.908 251.689V254.668L236.119 251.806V248.826ZM245.312 255.668L252.101 258.531V255.573L245.312 252.71V255.668ZM254.495 259.542L261.284 262.404V259.446L254.495 256.583V259.542ZM263.679 260.457V263.404L270.467 266.267V263.319L263.679 260.457ZM236.119 272.13L242.908 275.29V278.355L236.119 275.109V272.13ZM245.312 279.504L252.101 282.749V279.557L245.312 276.397V279.504ZM254.495 283.899L261.284 287.144V283.824L254.495 280.664V283.899ZM263.679 284.941V288.283L270.467 291.528V288.091L263.679 284.941Z" fill="white"/>
<path d="M154.786 292L93 261.965V258.377L154.786 284.746V292Z" fill="#37BBEF"/>
<path d="M154.787 292L210 262.388V258.377L154.787 284.746V292Z" fill="#2481BA"/>
<path d="M93 258.377L154.786 284.746L209.999 258.377L145.006 237L93 258.377Z" fill="#3ED6FF"/>
<path d="M101.648 257.45L153.841 279.405L200.482 257.45L145.579 239.65L101.648 257.45Z" fill="#EBEBEB"/>
<path d="M194.305 254.227L144.888 277.418M183.804 250.914L134.387 274.105M175.773 247.601L126.357 270.792M165.89 244.288L116.473 267.479M154.154 240.975L105.972 263.503" stroke="#3ED6FF"/>
<path d="M133.769 242.301L193.687 263.503M140.564 239.65L200.482 260.853" stroke="#3ED6FF"/>
<path d="M127.592 244.951L185.657 266.154" stroke="#3ED6FF"/>
<path d="M121.415 247.601L179.479 270.129" stroke="#3ED6FF"/>
<path d="M114.002 250.252L170.831 272.78" stroke="#3ED6FF"/>
<path d="M107.825 254.227L164.655 276.755" stroke="#3ED6FF"/>
<path d="M462.293 28.7071C462.683 29.0976 463.317 29.0976 463.707 28.7071L470.071 22.3431C470.462 21.9526 470.462 21.3195 470.071 20.9289C469.681 20.5384 469.047 20.5384 468.657 20.9289L463 26.5858L457.343 20.9289C456.953 20.5384 456.319 20.5384 455.929 20.9289C455.538 21.3195 455.538 21.9526 455.929 22.3431L462.293 28.7071ZM78.5 65.5V11H76.5V65.5H78.5ZM87.5 2H453V0H87.5V2ZM462 11V28H464V11H462ZM453 2C457.971 2 462 6.02944 462 11H464C464 4.92487 459.075 0 453 0V2ZM78.5 11C78.5 6.02944 82.5294 2 87.5 2V0C81.4249 0 76.5 4.92487 76.5 11H78.5Z" fill="#FFD966"/>
<path d="M243.5 66.5C243.5 67.0523 243.948 67.5 244.5 67.5C245.052 67.5 245.5 67.0523 245.5 66.5H243.5ZM386.207 157.707C386.598 157.317 386.598 156.683 386.207 156.293L379.843 149.929C379.453 149.538 378.819 149.538 378.429 149.929C378.038 150.319 378.038 150.953 378.429 151.343L384.086 157L378.429 162.657C378.038 163.047 378.038 163.681 378.429 164.071C378.819 164.462 379.453 164.462 379.843 164.071L386.207 157.707ZM245.5 66.5V56H243.5V66.5H245.5ZM254.5 47H341.5V45H254.5V47ZM350.5 56V147H352.5V56H350.5ZM361.5 158H385.5V156H361.5V158ZM350.5 147C350.5 153.075 355.425 158 361.5 158V156C356.529 156 352.5 151.971 352.5 147H350.5ZM341.5 47C346.471 47 350.5 51.0294 350.5 56H352.5C352.5 49.9249 347.575 45 341.5 45V47ZM245.5 56C245.5 51.0294 249.529 47 254.5 47V45C248.425 45 243.5 49.9249 243.5 56H245.5Z" fill="#FFD966"/>
<path d="M490 69.6715C490.03 65.3426 487.647 61.2431 484.295 59.3043L484.376 46.2363L471.064 44.0312C469.887 40.0057 466.683 36.735 462.902 36.1134C459.121 35.4918 455.894 37.7043 454.696 41.3154L441.383 39.1103V51.4976C445.609 52.8739 448.857 57.521 448.85 62.4715C448.842 67.4219 445.594 70.9294 441.383 70.8332V83.2205L484.088 91.0939L484.169 78.7954C487.536 78.0258 489.97 74.0003 490 69.6715Z" fill="#1B9BDB"/>
<path d="M441.383 39.1104L432 45.8516L445.453 48.6413L448.139 40.2425L441.383 39.1104Z" fill="#1B9BDB"/>
<path d="M448.613 43.9646L457.234 37.5416C457.234 37.5416 459.239 35.81 462.162 36.0172C465.04 36.217 467.823 38.0596 469.547 40.7605C470.857 42.8102 471.042 44.0238 471.042 44.0238L461.592 51.1498C461.592 51.1498 460.482 46.3769 456.212 44.0904C453.141 42.4402 450.626 43.084 449.405 43.602C448.901 43.8092 448.613 43.9646 448.613 43.9646ZM484.369 46.2511L474.986 53.3919L474.919 66.46L484.295 59.3044L484.369 46.2511ZM474.771 85.1667L484.176 78.788V91.0939L474.697 98.1533L474.771 85.1667Z" fill="#2481BA"/>
<path d="M477.109 84.1454L485.915 78.0628L486.544 75.6208L477.339 82.3621L477.109 84.1454Z" fill="#1B9BDB"/>
<path d="M480.624 76.8789C480.654 72.55 478.271 68.4209 474.919 66.4378L475 53.392L461.688 51.061C460.511 47.0429 457.307 43.7648 453.526 43.121C449.745 42.4773 446.518 44.6306 445.32 48.1899L432.007 45.859V58.0538C436.233 59.4746 439.481 64.1143 439.474 69.0055C439.466 73.8968 436.218 77.2933 432.007 77.1009V89.3032L474.712 98.1607L474.793 85.1149C478.16 84.4119 480.587 81.2078 480.624 76.8789Z" fill="#3ED6FF"/>
<path d="M148.793 208.707C149.183 209.098 149.817 209.098 150.207 208.707L156.571 202.343C156.962 201.953 156.962 201.319 156.571 200.929C156.181 200.538 155.547 200.538 155.157 200.929L149.5 206.586L143.843 200.929C143.453 200.538 142.819 200.538 142.429 200.929C142.038 201.319 142.038 201.953 142.429 202.343L148.793 208.707ZM148.5 169.5V208H150.5V169.5H148.5Z" fill="#FFD966"/>
<path d="M286.5 114C286.5 113.448 286.052 113 285.5 113C284.948 113 284.5 113.448 284.5 114H286.5ZM40.2929 200.707C40.6834 201.098 41.3166 201.098 41.7071 200.707L48.0711 194.343C48.4616 193.953 48.4616 193.319 48.0711 192.929C47.6805 192.538 47.0474 192.538 46.6569 192.929L41 198.586L35.3431 192.929C34.9526 192.538 34.3195 192.538 33.9289 192.929C33.5384 193.319 33.5384 193.953 33.9289 194.343L40.2929 200.707ZM284.5 114V159.5H286.5V114H284.5ZM275.5 168.5H51V170.5H275.5V168.5ZM40 179.5V200H42V179.5H40ZM51 168.5C44.9249 168.5 40 173.425 40 179.5H42C42 174.529 46.0294 170.5 51 170.5V168.5ZM284.5 159.5C284.5 164.471 280.471 168.5 275.5 168.5V170.5C281.575 170.5 286.5 165.575 286.5 159.5H284.5Z" fill="#FFD966"/>
<path d="M32.5 141V141C32.5 145.971 36.5294 150 41.5 150H133C138.523 150 143 145.523 143 140V138.5" stroke="#FFD966" stroke-width="2"/>
<path d="M88 149L88 170" stroke="#FFD966" stroke-width="2"/>
<path d="M250 169.5C250 168.948 249.552 168.5 249 168.5C248.448 168.5 248 168.948 248 169.5H250ZM248.293 207.707C248.683 208.098 249.317 208.098 249.707 207.707L256.071 201.343C256.462 200.953 256.462 200.319 256.071 199.929C255.681 199.538 255.047 199.538 254.657 199.929L249 205.586L243.343 199.929C242.953 199.538 242.319 199.538 241.929 199.929C241.538 200.319 241.538 200.953 241.929 201.343L248.293 207.707ZM248 169.5V207H250V169.5H248Z" fill="#FFD966"/>
</svg>
