<svg width="219" height="148" viewBox="0 0 219 148" fill="none" xmlns="http://www.w3.org/2000/svg">
<path d="M13.812 34.21C13.028 34.21 12.356 34.035 11.796 33.685C11.236 33.335 10.8067 32.859 10.508 32.257C10.2093 31.655 10.06 30.976 10.06 30.22C10.06 29.4547 10.214 28.771 10.522 28.169C10.8347 27.567 11.2733 27.0933 11.838 26.748C12.4027 26.4027 13.07 26.23 13.84 26.23C14.7313 26.23 15.478 26.4563 16.08 26.909C16.6867 27.357 17.074 27.9707 17.242 28.75L15.338 29.254C15.226 28.862 15.03 28.5563 14.75 28.337C14.4747 28.1177 14.162 28.008 13.812 28.008C13.4107 28.008 13.0817 28.106 12.825 28.302C12.5683 28.4933 12.3793 28.757 12.258 29.093C12.1367 29.4243 12.076 29.8 12.076 30.22C12.076 30.878 12.2207 31.4123 12.51 31.823C12.804 32.229 13.238 32.432 13.812 32.432C14.2413 32.432 14.568 32.334 14.792 32.138C15.016 31.942 15.184 31.662 15.296 31.298L17.242 31.704C17.0273 32.5067 16.6213 33.125 16.024 33.559C15.4267 33.993 14.6893 34.21 13.812 34.21ZM21.839 34.21C21.0784 34.21 20.411 34.0397 19.837 33.699C19.263 33.3583 18.815 32.8893 18.493 32.292C18.1757 31.69 18.017 30.9993 18.017 30.22C18.017 29.4313 18.1804 28.7383 18.507 28.141C18.8337 27.539 19.284 27.07 19.858 26.734C20.432 26.398 21.0924 26.23 21.839 26.23C22.5997 26.23 23.267 26.4003 23.841 26.741C24.4197 27.0817 24.87 27.553 25.192 28.155C25.514 28.7523 25.675 29.4407 25.675 30.22C25.675 31.004 25.5117 31.697 25.185 32.299C24.863 32.8963 24.4127 33.3653 23.834 33.706C23.26 34.042 22.595 34.21 21.839 34.21ZM21.839 32.432C22.4504 32.432 22.9054 32.2267 23.204 31.816C23.5074 31.4007 23.659 30.8687 23.659 30.22C23.659 29.548 23.505 29.0113 23.197 28.61C22.8937 28.2087 22.441 28.008 21.839 28.008C21.4237 28.008 21.083 28.1013 20.817 28.288C20.551 28.4747 20.3527 28.7337 20.222 29.065C20.096 29.3963 20.033 29.7813 20.033 30.22C20.033 30.8967 20.1847 31.4357 20.488 31.837C20.796 32.2337 21.2464 32.432 21.839 32.432ZM32.3664 34V30.43C32.3664 30.2573 32.357 30.038 32.3384 29.772C32.3197 29.5013 32.2614 29.2307 32.1634 28.96C32.0654 28.6893 31.9044 28.463 31.6804 28.281C31.461 28.099 31.1484 28.008 30.7424 28.008C30.579 28.008 30.404 28.0337 30.2174 28.085C30.0307 28.1363 29.8557 28.2367 29.6924 28.386C29.529 28.5307 29.3937 28.7453 29.2864 29.03C29.1837 29.3147 29.1324 29.6927 29.1324 30.164L28.0404 29.646C28.0404 29.0487 28.1617 28.4887 28.4044 27.966C28.647 27.4433 29.011 27.021 29.4964 26.699C29.9864 26.377 30.6024 26.216 31.3444 26.216C31.937 26.216 32.42 26.3163 32.7934 26.517C33.1667 26.7177 33.456 26.972 33.6614 27.28C33.8714 27.588 34.0207 27.91 34.1094 28.246C34.198 28.5773 34.2517 28.8807 34.2704 29.156C34.289 29.4313 34.2984 29.632 34.2984 29.758V34H32.3664ZM27.2004 34V26.44H28.8944V28.946H29.1324V34H27.2004ZM39.0688 34.21C38.1168 34.21 37.3468 33.9953 36.7588 33.566C36.1754 33.132 35.8208 32.5207 35.6948 31.732L37.6408 31.438C37.7201 31.7927 37.8951 32.0703 38.1658 32.271C38.4411 32.4717 38.7888 32.572 39.2088 32.572C39.5541 32.572 39.8201 32.5067 40.0068 32.376C40.1934 32.2407 40.2868 32.054 40.2868 31.816C40.2868 31.6667 40.2494 31.5477 40.1748 31.459C40.1001 31.3657 39.9321 31.2747 39.6708 31.186C39.4141 31.0973 39.0128 30.9807 38.4668 30.836C37.8508 30.6773 37.3584 30.5 36.9898 30.304C36.6211 30.108 36.3551 29.8747 36.1918 29.604C36.0284 29.3287 35.9468 28.9973 35.9468 28.61C35.9468 28.1247 36.0704 27.7047 36.3178 27.35C36.5651 26.9907 36.9128 26.7153 37.3608 26.524C37.8134 26.328 38.3454 26.23 38.9568 26.23C39.5494 26.23 40.0744 26.321 40.5318 26.503C40.9891 26.685 41.3578 26.944 41.6378 27.28C41.9224 27.616 42.0974 28.0127 42.1628 28.47L40.2168 28.82C40.1841 28.54 40.0628 28.3183 39.8528 28.155C39.6428 27.9917 39.3581 27.896 38.9988 27.868C38.6488 27.8447 38.3664 27.8913 38.1518 28.008C37.9418 28.1247 37.8368 28.2927 37.8368 28.512C37.8368 28.6427 37.8811 28.7523 37.9698 28.841C38.0631 28.9297 38.2521 29.0207 38.5368 29.114C38.8261 29.2073 39.2648 29.3287 39.8528 29.478C40.4268 29.6273 40.8864 29.8023 41.2318 30.003C41.5818 30.199 41.8361 30.437 41.9948 30.717C42.1534 30.9923 42.2328 31.326 42.2328 31.718C42.2328 32.4927 41.9528 33.1017 41.3928 33.545C40.8328 33.9883 40.0581 34.21 39.0688 34.21ZM48.307 34C47.7843 34.098 47.271 34.14 46.767 34.126C46.2677 34.1167 45.8197 34.0303 45.423 33.867C45.031 33.699 44.7323 33.4307 44.527 33.062C44.3403 32.7167 44.2423 32.3667 44.233 32.012C44.2237 31.6527 44.219 31.2467 44.219 30.794V24.34H46.123V30.682C46.123 30.976 46.1253 31.242 46.13 31.48C46.1393 31.7133 46.1883 31.9 46.277 32.04C46.445 32.306 46.7133 32.4507 47.082 32.474C47.4507 32.4973 47.859 32.4787 48.307 32.418V34ZM42.931 27.91V26.44H48.307V27.91H42.931ZM103.916 28.33V26.86H111.056V28.33H103.916ZM103.916 31.06V29.59H111.056V31.06H103.916ZM120.033 36.716C119.492 36.0813 119.027 35.3603 118.64 34.553C118.257 33.7457 117.966 32.901 117.765 32.019C117.569 31.1323 117.48 30.2527 117.499 29.38C117.48 28.5073 117.569 27.6277 117.765 26.741C117.966 25.8543 118.257 25.0097 118.64 24.207C119.027 23.3997 119.492 22.6787 120.033 22.044L121.447 23.08C120.878 23.766 120.432 24.452 120.11 25.138C119.788 25.8193 119.559 26.5123 119.424 27.217C119.293 27.917 119.226 28.638 119.221 29.38C119.226 30.122 119.293 30.8453 119.424 31.55C119.559 32.25 119.788 32.943 120.11 33.629C120.432 34.3103 120.878 34.994 121.447 35.68L120.033 36.716ZM131.869 36.716L130.455 35.68C131.024 34.994 131.47 34.3103 131.792 33.629C132.114 32.943 132.34 32.25 132.471 31.55C132.606 30.8453 132.676 30.122 132.681 29.38C132.676 28.638 132.606 27.917 132.471 27.217C132.34 26.5123 132.114 25.8193 131.792 25.138C131.47 24.452 131.024 23.766 130.455 23.08L131.869 22.044C132.41 22.6787 132.872 23.3997 133.255 24.207C133.642 25.0097 133.934 25.8543 134.13 26.741C134.33 27.6277 134.421 28.5073 134.403 29.38C134.421 30.2527 134.33 31.1323 134.13 32.019C133.934 32.901 133.642 33.7457 133.255 34.553C132.872 35.3603 132.41 36.0813 131.869 36.716ZM140.844 28.33V26.86H147.984V28.33H140.844ZM140.844 31.06V29.59H147.984V31.06H140.844ZM153.346 32.978L152.17 31.802L154.466 29.59L152.17 27.378L153.346 26.202L156.734 29.59L153.346 32.978ZM174.464 29.03L173.106 28.05L174.142 26.874L172.602 26.482L173.12 24.886L174.576 25.516L174.45 23.92H176.13L176.004 25.516L177.46 24.886L177.978 26.482L176.438 26.874L177.474 28.05L176.116 29.03L175.29 27.7L174.464 29.03ZM191.044 35.89L191.156 35.092C191.38 35.1107 191.562 35.0733 191.702 34.98C191.842 34.8913 191.938 34.7607 191.989 34.588C192.045 34.42 192.057 34.224 192.024 34H191.044V32.096H192.948V34C192.948 34.672 192.792 35.1807 192.479 35.526C192.166 35.8713 191.688 35.9927 191.044 35.89ZM191.044 28.344V26.44H192.948V28.344H191.044ZM13.812 57.21C13.028 57.21 12.356 57.035 11.796 56.685C11.236 56.335 10.8067 55.859 10.508 55.257C10.2093 54.655 10.06 53.976 10.06 53.22C10.06 52.4547 10.214 51.771 10.522 51.169C10.8347 50.567 11.2733 50.0933 11.838 49.748C12.4027 49.4027 13.07 49.23 13.84 49.23C14.7313 49.23 15.478 49.4563 16.08 49.909C16.6867 50.357 17.074 50.9707 17.242 51.75L15.338 52.254C15.226 51.862 15.03 51.5563 14.75 51.337C14.4747 51.1177 14.162 51.008 13.812 51.008C13.4107 51.008 13.0817 51.106 12.825 51.302C12.5683 51.4933 12.3793 51.757 12.258 52.093C12.1367 52.4243 12.076 52.8 12.076 53.22C12.076 53.878 12.2207 54.4123 12.51 54.823C12.804 55.229 13.238 55.432 13.812 55.432C14.2413 55.432 14.568 55.334 14.792 55.138C15.016 54.942 15.184 54.662 15.296 54.298L17.242 54.704C17.0273 55.5067 16.6213 56.125 16.024 56.559C15.4267 56.993 14.6893 57.21 13.812 57.21ZM21.839 57.21C21.0784 57.21 20.411 57.0397 19.837 56.699C19.263 56.3583 18.815 55.8893 18.493 55.292C18.1757 54.69 18.017 53.9993 18.017 53.22C18.017 52.4313 18.1804 51.7383 18.507 51.141C18.8337 50.539 19.284 50.07 19.858 49.734C20.432 49.398 21.0924 49.23 21.839 49.23C22.5997 49.23 23.267 49.4003 23.841 49.741C24.4197 50.0817 24.87 50.553 25.192 51.155C25.514 51.7523 25.675 52.4407 25.675 53.22C25.675 54.004 25.5117 54.697 25.185 55.299C24.863 55.8963 24.4127 56.3653 23.834 56.706C23.26 57.042 22.595 57.21 21.839 57.21ZM21.839 55.432C22.4504 55.432 22.9054 55.2267 23.204 54.816C23.5074 54.4007 23.659 53.8687 23.659 53.22C23.659 52.548 23.505 52.0113 23.197 51.61C22.8937 51.2087 22.441 51.008 21.839 51.008C21.4237 51.008 21.083 51.1013 20.817 51.288C20.551 51.4747 20.3527 51.7337 20.222 52.065C20.096 52.3963 20.033 52.7813 20.033 53.22C20.033 53.8967 20.1847 54.4357 20.488 54.837C20.796 55.2337 21.2464 55.432 21.839 55.432ZM32.3664 57V53.43C32.3664 53.2573 32.357 53.038 32.3384 52.772C32.3197 52.5013 32.2614 52.2307 32.1634 51.96C32.0654 51.6893 31.9044 51.463 31.6804 51.281C31.461 51.099 31.1484 51.008 30.7424 51.008C30.579 51.008 30.404 51.0337 30.2174 51.085C30.0307 51.1363 29.8557 51.2367 29.6924 51.386C29.529 51.5307 29.3937 51.7453 29.2864 52.03C29.1837 52.3147 29.1324 52.6927 29.1324 53.164L28.0404 52.646C28.0404 52.0487 28.1617 51.4887 28.4044 50.966C28.647 50.4433 29.011 50.021 29.4964 49.699C29.9864 49.377 30.6024 49.216 31.3444 49.216C31.937 49.216 32.42 49.3163 32.7934 49.517C33.1667 49.7177 33.456 49.972 33.6614 50.28C33.8714 50.588 34.0207 50.91 34.1094 51.246C34.198 51.5773 34.2517 51.8807 34.2704 52.156C34.289 52.4313 34.2984 52.632 34.2984 52.758V57H32.3664ZM27.2004 57V49.44H28.8944V51.946H29.1324V57H27.2004ZM39.0688 57.21C38.1168 57.21 37.3468 56.9953 36.7588 56.566C36.1754 56.132 35.8208 55.5207 35.6948 54.732L37.6408 54.438C37.7201 54.7927 37.8951 55.0703 38.1658 55.271C38.4411 55.4717 38.7888 55.572 39.2088 55.572C39.5541 55.572 39.8201 55.5067 40.0068 55.376C40.1934 55.2407 40.2868 55.054 40.2868 54.816C40.2868 54.6667 40.2494 54.5477 40.1748 54.459C40.1001 54.3657 39.9321 54.2747 39.6708 54.186C39.4141 54.0973 39.0128 53.9807 38.4668 53.836C37.8508 53.6773 37.3584 53.5 36.9898 53.304C36.6211 53.108 36.3551 52.8747 36.1918 52.604C36.0284 52.3287 35.9468 51.9973 35.9468 51.61C35.9468 51.1247 36.0704 50.7047 36.3178 50.35C36.5651 49.9907 36.9128 49.7153 37.3608 49.524C37.8134 49.328 38.3454 49.23 38.9568 49.23C39.5494 49.23 40.0744 49.321 40.5318 49.503C40.9891 49.685 41.3578 49.944 41.6378 50.28C41.9224 50.616 42.0974 51.0127 42.1628 51.47L40.2168 51.82C40.1841 51.54 40.0628 51.3183 39.8528 51.155C39.6428 50.9917 39.3581 50.896 38.9988 50.868C38.6488 50.8447 38.3664 50.8913 38.1518 51.008C37.9418 51.1247 37.8368 51.2927 37.8368 51.512C37.8368 51.6427 37.8811 51.7523 37.9698 51.841C38.0631 51.9297 38.2521 52.0207 38.5368 52.114C38.8261 52.2073 39.2648 52.3287 39.8528 52.478C40.4268 52.6273 40.8864 52.8023 41.2318 53.003C41.5818 53.199 41.8361 53.437 41.9948 53.717C42.1534 53.9923 42.2328 54.326 42.2328 54.718C42.2328 55.4927 41.9528 56.1017 41.3928 56.545C40.8328 56.9883 40.0581 57.21 39.0688 57.21ZM47.173 57.21C46.4123 57.21 45.745 57.0397 45.171 56.699C44.597 56.3583 44.149 55.8893 43.827 55.292C43.5097 54.69 43.351 53.9993 43.351 53.22C43.351 52.4313 43.5143 51.7383 43.841 51.141C44.1677 50.539 44.618 50.07 45.192 49.734C45.766 49.398 46.4263 49.23 47.173 49.23C47.9337 49.23 48.601 49.4003 49.175 49.741C49.7537 50.0817 50.204 50.553 50.526 51.155C50.848 51.7523 51.009 52.4407 51.009 53.22C51.009 54.004 50.8457 54.697 50.519 55.299C50.197 55.8963 49.7467 56.3653 49.168 56.706C48.594 57.042 47.929 57.21 47.173 57.21ZM47.173 55.432C47.7843 55.432 48.2393 55.2267 48.538 54.816C48.8413 54.4007 48.993 53.8687 48.993 53.22C48.993 52.548 48.839 52.0113 48.531 51.61C48.2277 51.2087 47.775 51.008 47.173 51.008C46.7577 51.008 46.417 51.1013 46.151 51.288C45.885 51.4747 45.6867 51.7337 45.556 52.065C45.43 52.3963 45.367 52.7813 45.367 53.22C45.367 53.8967 45.5187 54.4357 45.822 54.837C46.13 55.2337 46.5803 55.432 47.173 55.432ZM52.6884 57V46.71H54.5924V57H52.6884ZM60.2049 57.21C59.4303 57.21 58.7466 57.0443 58.1539 56.713C57.5659 56.377 57.1039 55.9173 56.7679 55.334C56.4366 54.746 56.2709 54.074 56.2709 53.318C56.2709 52.492 56.4343 51.7733 56.7609 51.162C57.0876 50.5507 57.5379 50.077 58.1119 49.741C58.6859 49.4003 59.3463 49.23 60.0929 49.23C60.8863 49.23 61.5606 49.4167 62.1159 49.79C62.6713 50.1633 63.0819 50.6883 63.3479 51.365C63.6139 52.0417 63.7073 52.8373 63.6279 53.752H61.7449V53.052C61.7449 52.282 61.6213 51.729 61.3739 51.393C61.1313 51.0523 60.7323 50.882 60.1769 50.882C59.5283 50.882 59.0499 51.0803 58.7419 51.477C58.4386 51.869 58.2869 52.45 58.2869 53.22C58.2869 53.9247 58.4386 54.4707 58.7419 54.858C59.0499 55.2407 59.5003 55.432 60.0929 55.432C60.4663 55.432 60.7859 55.3503 61.0519 55.187C61.3179 55.0237 61.5209 54.788 61.6609 54.48L63.5649 55.026C63.2803 55.7167 62.8299 56.2533 62.2139 56.636C61.6026 57.0187 60.9329 57.21 60.2049 57.21ZM57.6989 53.752V52.338H62.7109V53.752H57.6989ZM65.2431 57V55.096H67.1471V57H65.2431ZM69.5595 57V46.71H71.4635V57H69.5595ZM76.964 57.21C76.2034 57.21 75.536 57.0397 74.962 56.699C74.388 56.3583 73.94 55.8893 73.618 55.292C73.3007 54.69 73.142 53.9993 73.142 53.22C73.142 52.4313 73.3054 51.7383 73.632 51.141C73.9587 50.539 74.409 50.07 74.983 49.734C75.557 49.398 76.2174 49.23 76.964 49.23C77.7247 49.23 78.392 49.4003 78.966 49.741C79.5447 50.0817 79.995 50.553 80.317 51.155C80.639 51.7523 80.8 52.4407 80.8 53.22C80.8 54.004 80.6367 54.697 80.31 55.299C79.988 55.8963 79.5377 56.3653 78.959 56.706C78.385 57.042 77.72 57.21 76.964 57.21ZM76.964 55.432C77.5754 55.432 78.0304 55.2267 78.329 54.816C78.6324 54.4007 78.784 53.8687 78.784 53.22C78.784 52.548 78.63 52.0113 78.322 51.61C78.0187 51.2087 77.566 51.008 76.964 51.008C76.5487 51.008 76.208 51.1013 75.942 51.288C75.676 51.4747 75.4777 51.7337 75.347 52.065C75.221 52.3963 75.158 52.7813 75.158 53.22C75.158 53.8967 75.3097 54.4357 75.613 54.837C75.921 55.2337 76.3714 55.432 76.964 55.432ZM85.5734 60.57C85.144 60.57 84.7357 60.5 84.3484 60.36C83.961 60.2247 83.6134 60.0333 83.3054 59.786C83.002 59.5433 82.7547 59.2587 82.5634 58.932L84.3274 58.078C84.4487 58.302 84.6214 58.4723 84.8454 58.589C85.074 58.7057 85.3214 58.764 85.5874 58.764C85.872 58.764 86.1404 58.715 86.3924 58.617C86.6444 58.5237 86.845 58.3813 86.9944 58.19C87.1484 58.0033 87.2207 57.77 87.2114 57.49V55.292H87.4494V49.44H89.1154V57.518C89.1154 57.7047 89.106 57.8797 89.0874 58.043C89.0734 58.211 89.0454 58.3767 89.0034 58.54C88.882 59.002 88.6557 59.3823 88.3244 59.681C87.9977 59.9797 87.5964 60.2013 87.1204 60.346C86.6444 60.4953 86.1287 60.57 85.5734 60.57ZM85.4054 57.21C84.71 57.21 84.101 57.035 83.5784 56.685C83.0557 56.335 82.6474 55.859 82.3534 55.257C82.064 54.655 81.9194 53.976 81.9194 53.22C81.9194 52.45 82.0664 51.7663 82.3604 51.169C82.659 50.567 83.0767 50.0933 83.6134 49.748C84.15 49.4027 84.78 49.23 85.5034 49.23C86.222 49.23 86.8264 49.405 87.3164 49.755C87.8064 50.105 88.1774 50.581 88.4294 51.183C88.6814 51.785 88.8074 52.464 88.8074 53.22C88.8074 53.976 88.679 54.655 88.4224 55.257C88.1704 55.859 87.7924 56.335 87.2884 56.685C86.7844 57.035 86.1567 57.21 85.4054 57.21ZM85.7134 55.516C86.138 55.516 86.4764 55.4203 86.7284 55.229C86.985 55.0377 87.1694 54.7693 87.2814 54.424C87.3934 54.0787 87.4494 53.6773 87.4494 53.22C87.4494 52.7627 87.3934 52.3613 87.2814 52.016C87.1694 51.6707 86.9897 51.4023 86.7424 51.211C86.4997 51.0197 86.18 50.924 85.7834 50.924C85.3587 50.924 85.0087 51.029 84.7334 51.239C84.4627 51.4443 84.262 51.722 84.1314 52.072C84.0007 52.4173 83.9354 52.8 83.9354 53.22C83.9354 53.6447 83.9984 54.032 84.1244 54.382C84.2504 54.7273 84.444 55.0027 84.7054 55.208C84.9667 55.4133 85.3027 55.516 85.7134 55.516ZM94.5897 59.716C94.0484 59.0813 93.584 58.3603 93.1967 57.553C92.814 56.7457 92.5224 55.901 92.3217 55.019C92.1257 54.1323 92.037 53.2527 92.0557 52.38C92.037 51.5073 92.1257 50.6277 92.3217 49.741C92.5224 48.8543 92.814 48.0097 93.1967 47.207C93.584 46.3997 94.0484 45.6787 94.5897 45.044L96.0037 46.08C95.4344 46.766 94.9887 47.452 94.6667 48.138C94.3447 48.8193 94.116 49.5123 93.9807 50.217C93.85 50.917 93.7824 51.638 93.7777 52.38C93.7824 53.122 93.85 53.8453 93.9807 54.55C94.116 55.25 94.3447 55.943 94.6667 56.629C94.9887 57.3103 95.4344 57.994 96.0037 58.68L94.5897 59.716ZM147.555 59.296C147.013 58.6613 146.549 57.9403 146.162 57.133C145.779 56.3257 145.487 55.481 145.287 54.599C145.091 53.7123 145.002 52.8327 145.021 51.96C145.002 51.0873 145.091 50.2077 145.287 49.321C145.487 48.4343 145.779 47.5897 146.162 46.787C146.549 45.9797 147.013 45.2587 147.555 44.624L148.969 45.66C148.399 46.346 147.954 47.032 147.632 47.718C147.31 48.3993 147.081 49.0923 146.946 49.797C146.815 50.497 146.747 51.218 146.743 51.96C146.747 52.702 146.815 53.4253 146.946 54.13C147.081 54.83 147.31 55.523 147.632 56.209C147.954 56.8903 148.399 57.574 148.969 58.26L147.555 59.296ZM159.554 59.296L158.14 58.26C158.709 57.574 159.155 56.8903 159.477 56.209C159.799 55.523 160.025 54.83 160.156 54.13C160.291 53.4253 160.361 52.702 160.366 51.96C160.361 51.218 160.291 50.497 160.156 49.797C160.025 49.0923 159.799 48.3993 159.477 47.718C159.155 47.032 158.709 46.346 158.14 45.66L159.554 44.624C160.095 45.2587 160.557 45.9797 160.94 46.787C161.327 47.5897 161.619 48.4343 161.815 49.321C162.016 50.2077 162.107 51.0873 162.088 51.96C162.107 52.8327 162.016 53.7123 161.815 54.599C161.619 55.481 161.327 56.3257 160.94 57.133C160.557 57.9403 160.095 58.6613 159.554 59.296ZM166.021 59.716L164.607 58.68C165.176 57.994 165.622 57.3103 165.944 56.629C166.266 55.943 166.492 55.25 166.623 54.55C166.758 53.8453 166.828 53.122 166.833 52.38C166.828 51.638 166.758 50.917 166.623 50.217C166.492 49.5123 166.266 48.8193 165.944 48.138C165.622 47.452 165.176 46.766 164.607 46.08L166.021 45.044C166.562 45.6787 167.024 46.3997 167.407 47.207C167.794 48.0097 168.086 48.8543 168.282 49.741C168.483 50.6277 168.574 51.5073 168.555 52.38C168.574 53.2527 168.483 54.1323 168.282 55.019C168.086 55.901 167.794 56.7457 167.407 57.553C167.024 58.3603 166.562 59.0813 166.021 59.716ZM172.054 58.89L172.166 58.092C172.39 58.1107 172.572 58.0733 172.712 57.98C172.852 57.8913 172.947 57.7607 172.999 57.588C173.055 57.42 173.066 57.224 173.034 57H172.054V55.096H173.958V57C173.958 57.672 173.801 58.1807 173.489 58.526C173.176 58.8713 172.698 58.9927 172.054 58.89ZM172.054 51.344V49.44H173.958V51.344H172.054Z" fill="white"/>
<path d="M55.7485 34.21C54.7965 34.21 54.0265 33.9953 53.4385 33.566C52.8551 33.132 52.5005 32.5207 52.3745 31.732L54.3205 31.438C54.3998 31.7927 54.5748 32.0703 54.8455 32.271C55.1208 32.4717 55.4685 32.572 55.8885 32.572C56.2338 32.572 56.4998 32.5067 56.6865 32.376C56.8731 32.2407 56.9665 32.054 56.9665 31.816C56.9665 31.6667 56.9291 31.5477 56.8545 31.459C56.7798 31.3657 56.6118 31.2747 56.3505 31.186C56.0938 31.0973 55.6925 30.9807 55.1465 30.836C54.5305 30.6773 54.0381 30.5 53.6695 30.304C53.3008 30.108 53.0348 29.8747 52.8715 29.604C52.7081 29.3287 52.6265 28.9973 52.6265 28.61C52.6265 28.1247 52.7501 27.7047 52.9975 27.35C53.2448 26.9907 53.5925 26.7153 54.0405 26.524C54.4931 26.328 55.0251 26.23 55.6365 26.23C56.2291 26.23 56.7541 26.321 57.2115 26.503C57.6688 26.685 58.0375 26.944 58.3175 27.28C58.6021 27.616 58.7771 28.0127 58.8425 28.47L56.8965 28.82C56.8638 28.54 56.7425 28.3183 56.5325 28.155C56.3225 27.9917 56.0378 27.896 55.6785 27.868C55.3285 27.8447 55.0461 27.8913 54.8315 28.008C54.6215 28.1247 54.5165 28.2927 54.5165 28.512C54.5165 28.6427 54.5608 28.7523 54.6495 28.841C54.7428 28.9297 54.9318 29.0207 55.2165 29.114C55.5058 29.2073 55.9445 29.3287 56.5325 29.478C57.1065 29.6273 57.5661 29.8023 57.9115 30.003C58.2615 30.199 58.5158 30.437 58.6745 30.717C58.8331 30.9923 58.9125 31.326 58.9125 31.718C58.9125 32.4927 58.6325 33.1017 58.0725 33.545C57.5125 33.9883 56.7378 34.21 55.7485 34.21ZM63.5167 34.21C62.8214 34.21 62.2124 34.035 61.6897 33.685C61.167 33.335 60.7587 32.859 60.4647 32.257C60.1754 31.655 60.0307 30.976 60.0307 30.22C60.0307 29.45 60.1777 28.7663 60.4717 28.169C60.7704 27.567 61.188 27.0933 61.7247 26.748C62.2614 26.4027 62.8914 26.23 63.6147 26.23C64.3334 26.23 64.9377 26.405 65.4277 26.755C65.9177 27.105 66.2887 27.581 66.5407 28.183C66.7927 28.785 66.9187 29.464 66.9187 30.22C66.9187 30.976 66.7904 31.655 66.5337 32.257C66.2817 32.859 65.9037 33.335 65.3997 33.685C64.8957 34.035 64.268 34.21 63.5167 34.21ZM63.8247 32.516C64.2494 32.516 64.5877 32.4203 64.8397 32.229C65.0964 32.0377 65.2807 31.7693 65.3927 31.424C65.5047 31.0787 65.5607 30.6773 65.5607 30.22C65.5607 29.7627 65.5047 29.3613 65.3927 29.016C65.2807 28.6707 65.101 28.4023 64.8537 28.211C64.611 28.0197 64.2914 27.924 63.8947 27.924C63.47 27.924 63.12 28.029 62.8447 28.239C62.574 28.4443 62.3734 28.722 62.2427 29.072C62.112 29.4173 62.0467 29.8 62.0467 30.22C62.0467 30.6447 62.1097 31.032 62.2357 31.382C62.3617 31.7273 62.5554 32.0027 62.8167 32.208C63.078 32.4133 63.414 32.516 63.8247 32.516ZM65.3227 37.36V31.62H65.5607V26.44H67.2407V37.36H65.3227ZM72.0147 34.224C71.422 34.224 70.939 34.1237 70.5657 33.923C70.1924 33.7223 69.9007 33.468 69.6907 33.16C69.4854 32.852 69.3384 32.5323 69.2497 32.201C69.161 31.865 69.1074 31.5593 69.0887 31.284C69.07 31.0087 69.0607 30.808 69.0607 30.682V26.44H70.9927V30.01C70.9927 30.1827 71.002 30.4043 71.0207 30.675C71.0394 30.941 71.0977 31.2093 71.1957 31.48C71.2937 31.7507 71.4524 31.977 71.6717 32.159C71.8957 32.341 72.2107 32.432 72.6167 32.432C72.78 32.432 72.955 32.4063 73.1417 32.355C73.3284 32.3037 73.5034 32.2057 73.6667 32.061C73.83 31.9117 73.963 31.6947 74.0657 31.41C74.173 31.1207 74.2267 30.7427 74.2267 30.276L75.3187 30.794C75.3187 31.3913 75.1974 31.9513 74.9547 32.474C74.712 32.9967 74.3457 33.419 73.8557 33.741C73.3704 34.063 72.7567 34.224 72.0147 34.224ZM74.4647 34V31.494H74.2267V26.44H76.1447V34H74.4647ZM80.2011 34.21C79.6598 34.21 79.2001 34.1073 78.8221 33.902C78.4488 33.692 78.1641 33.4143 77.9681 33.069C77.7768 32.719 77.6811 32.334 77.6811 31.914C77.6811 31.564 77.7348 31.2443 77.8421 30.955C77.9494 30.6657 78.1221 30.4113 78.3601 30.192C78.6028 29.968 78.9271 29.7813 79.3331 29.632C79.6131 29.5293 79.9468 29.4383 80.3341 29.359C80.7214 29.2797 81.1601 29.205 81.6501 29.135C82.1401 29.0603 82.6791 28.9787 83.2671 28.89L82.5811 29.268C82.5811 28.82 82.4738 28.491 82.2591 28.281C82.0444 28.071 81.6851 27.966 81.1811 27.966C80.9011 27.966 80.6094 28.0337 80.3061 28.169C80.0028 28.3043 79.7904 28.5447 79.6691 28.89L77.9471 28.344C78.1384 27.7187 78.4978 27.21 79.0251 26.818C79.5524 26.426 80.2711 26.23 81.1811 26.23C81.8484 26.23 82.4411 26.3327 82.9591 26.538C83.4771 26.7433 83.8691 27.098 84.1351 27.602C84.2844 27.882 84.3731 28.162 84.4011 28.442C84.4291 28.722 84.4431 29.0347 84.4431 29.38V34H82.7771V32.446L83.0151 32.768C82.6464 33.2767 82.2474 33.6453 81.8181 33.874C81.3934 34.098 80.8544 34.21 80.2011 34.21ZM80.6071 32.712C80.9571 32.712 81.2511 32.6513 81.4891 32.53C81.7318 32.404 81.9231 32.2617 82.0631 32.103C82.2078 31.9443 82.3058 31.8113 82.3571 31.704C82.4551 31.4987 82.5111 31.2607 82.5251 30.99C82.5438 30.7147 82.5531 30.486 82.5531 30.304L83.1131 30.444C82.5484 30.5373 82.0911 30.6167 81.7411 30.682C81.3911 30.7427 81.1088 30.7987 80.8941 30.85C80.6794 30.9013 80.4904 30.9573 80.3271 31.018C80.1404 31.0927 79.9888 31.1743 79.8721 31.263C79.7601 31.347 79.6761 31.4403 79.6201 31.543C79.5688 31.6457 79.5431 31.76 79.5431 31.886C79.5431 32.0587 79.5851 32.208 79.6691 32.334C79.7578 32.4553 79.8814 32.5487 80.0401 32.614C80.1988 32.6793 80.3878 32.712 80.6071 32.712ZM86.2632 34V26.44H87.9432V28.288L87.7612 28.05C87.8592 27.7887 87.9899 27.5507 88.1532 27.336C88.3165 27.1213 88.5172 26.944 88.7552 26.804C88.9372 26.692 89.1355 26.6057 89.3502 26.545C89.5649 26.4797 89.7865 26.44 90.0152 26.426C90.2439 26.4073 90.4725 26.412 90.7012 26.44V28.218C90.4912 28.1527 90.2462 28.1317 89.9662 28.155C89.6909 28.1737 89.4412 28.2367 89.2172 28.344C88.9932 28.4467 88.8042 28.5843 88.6502 28.757C88.4962 28.925 88.3795 29.1257 88.3002 29.359C88.2209 29.5877 88.1812 29.8467 88.1812 30.136V34H86.2632ZM95.41 34.21C94.6353 34.21 93.9517 34.0443 93.359 33.713C92.771 33.377 92.309 32.9173 91.973 32.334C91.6417 31.746 91.476 31.074 91.476 30.318C91.476 29.492 91.6393 28.7733 91.966 28.162C92.2927 27.5507 92.743 27.077 93.317 26.741C93.891 26.4003 94.5513 26.23 95.298 26.23C96.0913 26.23 96.7657 26.4167 97.321 26.79C97.8763 27.1633 98.287 27.6883 98.553 28.365C98.819 29.0417 98.9123 29.8373 98.833 30.752H96.95V30.052C96.95 29.282 96.8263 28.729 96.579 28.393C96.3363 28.0523 95.9373 27.882 95.382 27.882C94.7333 27.882 94.255 28.0803 93.947 28.477C93.6437 28.869 93.492 29.45 93.492 30.22C93.492 30.9247 93.6437 31.4707 93.947 31.858C94.255 32.2407 94.7053 32.432 95.298 32.432C95.6713 32.432 95.991 32.3503 96.257 32.187C96.523 32.0237 96.726 31.788 96.866 31.48L98.77 32.026C98.4853 32.7167 98.035 33.2533 97.419 33.636C96.8077 34.0187 96.138 34.21 95.41 34.21ZM92.904 30.752V29.338H97.916V30.752H92.904ZM99.936 57.21C98.984 57.21 98.214 56.9953 97.626 56.566C97.0426 56.132 96.688 55.5207 96.562 54.732L98.508 54.438C98.5873 54.7927 98.7623 55.0703 99.033 55.271C99.3083 55.4717 99.656 55.572 100.076 55.572C100.421 55.572 100.687 55.5067 100.874 55.376C101.061 55.2407 101.154 55.054 101.154 54.816C101.154 54.6667 101.117 54.5477 101.042 54.459C100.967 54.3657 100.799 54.2747 100.538 54.186C100.281 54.0973 99.88 53.9807 99.334 53.836C98.718 53.6773 98.2256 53.5 97.857 53.304C97.4883 53.108 97.2223 52.8747 97.059 52.604C96.8956 52.3287 96.814 51.9973 96.814 51.61C96.814 51.1247 96.9376 50.7047 97.185 50.35C97.4323 49.9907 97.78 49.7153 98.228 49.524C98.6806 49.328 99.2126 49.23 99.824 49.23C100.417 49.23 100.942 49.321 101.399 49.503C101.856 49.685 102.225 49.944 102.505 50.28C102.79 50.616 102.965 51.0127 103.03 51.47L101.084 51.82C101.051 51.54 100.93 51.3183 100.72 51.155C100.51 50.9917 100.225 50.896 99.866 50.868C99.516 50.8447 99.2336 50.8913 99.019 51.008C98.809 51.1247 98.704 51.2927 98.704 51.512C98.704 51.6427 98.7483 51.7523 98.837 51.841C98.9303 51.9297 99.1193 52.0207 99.404 52.114C99.6933 52.2073 100.132 52.3287 100.72 52.478C101.294 52.6273 101.754 52.8023 102.099 53.003C102.449 53.199 102.703 53.437 102.862 53.717C103.021 53.9923 103.1 54.326 103.1 54.718C103.1 55.4927 102.82 56.1017 102.26 56.545C101.7 56.9883 100.925 57.21 99.936 57.21ZM107.704 57.21C107.009 57.21 106.4 57.035 105.877 56.685C105.355 56.335 104.946 55.859 104.652 55.257C104.363 54.655 104.218 53.976 104.218 53.22C104.218 52.45 104.365 51.7663 104.659 51.169C104.958 50.567 105.376 50.0933 105.912 49.748C106.449 49.4027 107.079 49.23 107.802 49.23C108.521 49.23 109.125 49.405 109.615 49.755C110.105 50.105 110.476 50.581 110.728 51.183C110.98 51.785 111.106 52.464 111.106 53.22C111.106 53.976 110.978 54.655 110.721 55.257C110.469 55.859 110.091 56.335 109.587 56.685C109.083 57.035 108.456 57.21 107.704 57.21ZM108.012 55.516C108.437 55.516 108.775 55.4203 109.027 55.229C109.284 55.0377 109.468 54.7693 109.58 54.424C109.692 54.0787 109.748 53.6773 109.748 53.22C109.748 52.7627 109.692 52.3613 109.58 52.016C109.468 51.6707 109.289 51.4023 109.041 51.211C108.799 51.0197 108.479 50.924 108.082 50.924C107.658 50.924 107.308 51.029 107.032 51.239C106.762 51.4443 106.561 51.722 106.43 52.072C106.3 52.4173 106.234 52.8 106.234 53.22C106.234 53.6447 106.297 54.032 106.423 54.382C106.549 54.7273 106.743 55.0027 107.004 55.208C107.266 55.4133 107.602 55.516 108.012 55.516ZM109.51 60.36V54.62H109.748V49.44H111.428V60.36H109.51ZM116.202 57.224C115.61 57.224 115.127 57.1237 114.753 56.923C114.38 56.7223 114.088 56.468 113.878 56.16C113.673 55.852 113.526 55.5323 113.437 55.201C113.349 54.865 113.295 54.5593 113.276 54.284C113.258 54.0087 113.248 53.808 113.248 53.682V49.44H115.18V53.01C115.18 53.1827 115.19 53.4043 115.208 53.675C115.227 53.941 115.285 54.2093 115.383 54.48C115.481 54.7507 115.64 54.977 115.859 55.159C116.083 55.341 116.398 55.432 116.804 55.432C116.968 55.432 117.143 55.4063 117.329 55.355C117.516 55.3037 117.691 55.2057 117.854 55.061C118.018 54.9117 118.151 54.6947 118.253 54.41C118.361 54.1207 118.414 53.7427 118.414 53.276L119.506 53.794C119.506 54.3913 119.385 54.9513 119.142 55.474C118.9 55.9967 118.533 56.419 118.043 56.741C117.558 57.063 116.944 57.224 116.202 57.224ZM118.652 57V54.494H118.414V49.44H120.332V57H118.652ZM124.389 57.21C123.847 57.21 123.388 57.1073 123.01 56.902C122.636 56.692 122.352 56.4143 122.156 56.069C121.964 55.719 121.869 55.334 121.869 54.914C121.869 54.564 121.922 54.2443 122.03 53.955C122.137 53.6657 122.31 53.4113 122.548 53.192C122.79 52.968 123.115 52.7813 123.521 52.632C123.801 52.5293 124.134 52.4383 124.522 52.359C124.909 52.2797 125.348 52.205 125.838 52.135C126.328 52.0603 126.867 51.9787 127.455 51.89L126.769 52.268C126.769 51.82 126.661 51.491 126.447 51.281C126.232 51.071 125.873 50.966 125.369 50.966C125.089 50.966 124.797 51.0337 124.494 51.169C124.19 51.3043 123.978 51.5447 123.857 51.89L122.135 51.344C122.326 50.7187 122.685 50.21 123.213 49.818C123.74 49.426 124.459 49.23 125.369 49.23C126.036 49.23 126.629 49.3327 127.147 49.538C127.665 49.7433 128.057 50.098 128.323 50.602C128.472 50.882 128.561 51.162 128.589 51.442C128.617 51.722 128.631 52.0347 128.631 52.38V57H126.965V55.446L127.203 55.768C126.834 56.2767 126.435 56.6453 126.006 56.874C125.581 57.098 125.042 57.21 124.389 57.21ZM124.795 55.712C125.145 55.712 125.439 55.6513 125.677 55.53C125.919 55.404 126.111 55.2617 126.251 55.103C126.395 54.9443 126.493 54.8113 126.545 54.704C126.643 54.4987 126.699 54.2607 126.713 53.99C126.731 53.7147 126.741 53.486 126.741 53.304L127.301 53.444C126.736 53.5373 126.279 53.6167 125.929 53.682C125.579 53.7427 125.296 53.7987 125.082 53.85C124.867 53.9013 124.678 53.9573 124.515 54.018C124.328 54.0927 124.176 54.1743 124.06 54.263C123.948 54.347 123.864 54.4403 123.808 54.543C123.756 54.6457 123.731 54.76 123.731 54.886C123.731 55.0587 123.773 55.208 123.857 55.334C123.945 55.4553 124.069 55.5487 124.228 55.614C124.386 55.6793 124.575 55.712 124.795 55.712ZM130.451 57V49.44H132.131V51.288L131.949 51.05C132.047 50.7887 132.177 50.5507 132.341 50.336C132.504 50.1213 132.705 49.944 132.943 49.804C133.125 49.692 133.323 49.6057 133.538 49.545C133.752 49.4797 133.974 49.44 134.203 49.426C134.431 49.4073 134.66 49.412 134.889 49.44V51.218C134.679 51.1527 134.434 51.1317 134.154 51.155C133.878 51.1737 133.629 51.2367 133.405 51.344C133.181 51.4467 132.992 51.5843 132.838 51.757C132.684 51.925 132.567 52.1257 132.488 52.359C132.408 52.5877 132.369 52.8467 132.369 53.136V57H130.451ZM139.598 57.21C138.823 57.21 138.139 57.0443 137.547 56.713C136.959 56.377 136.497 55.9173 136.161 55.334C135.829 54.746 135.664 54.074 135.664 53.318C135.664 52.492 135.827 51.7733 136.154 51.162C136.48 50.5507 136.931 50.077 137.505 49.741C138.079 49.4003 138.739 49.23 139.486 49.23C140.279 49.23 140.953 49.4167 141.509 49.79C142.064 50.1633 142.475 50.6883 142.741 51.365C143.007 52.0417 143.1 52.8373 143.021 53.752H141.138V53.052C141.138 52.282 141.014 51.729 140.767 51.393C140.524 51.0523 140.125 50.882 139.57 50.882C138.921 50.882 138.443 51.0803 138.135 51.477C137.831 51.869 137.68 52.45 137.68 53.22C137.68 53.9247 137.831 54.4707 138.135 54.858C138.443 55.2407 138.893 55.432 139.486 55.432C139.859 55.432 140.179 55.3503 140.445 55.187C140.711 55.0237 140.914 54.788 141.054 54.48L142.958 55.026C142.673 55.7167 142.223 56.2533 141.607 56.636C140.995 57.0187 140.326 57.21 139.598 57.21ZM137.092 53.752V52.338H142.104V53.752H137.092Z" fill="#FFD966"/>
<path d="M122.146 34L124.848 30.178L122.202 26.44H124.442L125.954 28.68L127.438 26.44H129.678L127.032 30.178L129.748 34H127.508L125.954 31.676L124.386 34H122.146ZM161.63 34L164.332 30.178L161.686 26.44H163.926L165.438 28.68L166.922 26.44H169.162L166.516 30.178L169.232 34H166.992L165.438 31.676L163.87 34H161.63ZM181.755 34L184.457 30.178L181.811 26.44H184.051L185.563 28.68L187.047 26.44H189.287L186.641 30.178L189.357 34H187.117L185.563 31.676L183.995 34H181.755ZM154.609 57V55.432H150.227V53.654L153.405 46.92H155.589L152.411 53.654H154.609V51.134H156.541V53.654H157.437V55.432H156.541V57H154.609Z" fill="#787DF7"/>
<rect x="1" y="78" width="217" height="69" rx="7" fill="#282525" stroke="#777777" stroke-width="2"/>
<path d="M26.4535 103.21C25.4455 103.21 24.5751 102.991 23.8425 102.552C23.1145 102.113 22.5521 101.5 22.1555 100.711C21.7635 99.9223 21.5675 99.0053 21.5675 97.96C21.5675 96.9147 21.7635 95.9977 22.1555 95.209C22.5521 94.4203 23.1145 93.8067 23.8425 93.368C24.5751 92.9293 25.4455 92.71 26.4535 92.71C27.6108 92.71 28.5815 92.997 29.3655 93.571C30.1541 94.145 30.7095 94.922 31.0315 95.902L29.1135 96.434C28.9268 95.8227 28.6118 95.349 28.1685 95.013C27.7251 94.6723 27.1535 94.502 26.4535 94.502C25.8141 94.502 25.2798 94.6443 24.8505 94.929C24.4258 95.2137 24.1061 95.615 23.8915 96.133C23.6768 96.651 23.5695 97.26 23.5695 97.96C23.5695 98.66 23.6768 99.269 23.8915 99.787C24.1061 100.305 24.4258 100.706 24.8505 100.991C25.2798 101.276 25.8141 101.418 26.4535 101.418C27.1535 101.418 27.7251 101.248 28.1685 100.907C28.6118 100.566 28.9268 100.093 29.1135 99.486L31.0315 100.018C30.7095 100.998 30.1541 101.775 29.3655 102.349C28.5815 102.923 27.6108 103.21 26.4535 103.21ZM35.9748 103.21C35.2141 103.21 34.5468 103.04 33.9728 102.699C33.3988 102.358 32.9508 101.889 32.6288 101.292C32.3114 100.69 32.1528 99.9993 32.1528 99.22C32.1528 98.4313 32.3161 97.7383 32.6428 97.141C32.9694 96.539 33.4198 96.07 33.9938 95.734C34.5678 95.398 35.2281 95.23 35.9748 95.23C36.7354 95.23 37.4028 95.4003 37.9768 95.741C38.5554 96.0817 39.0058 96.553 39.3278 97.155C39.6498 97.7523 39.8108 98.4407 39.8108 99.22C39.8108 100.004 39.6474 100.697 39.3208 101.299C38.9988 101.896 38.5484 102.365 37.9698 102.706C37.3958 103.042 36.7308 103.21 35.9748 103.21ZM35.9748 101.432C36.5861 101.432 37.0411 101.227 37.3398 100.816C37.6431 100.401 37.7948 99.8687 37.7948 99.22C37.7948 98.548 37.6408 98.0113 37.3328 97.61C37.0294 97.2087 36.5768 97.008 35.9748 97.008C35.5594 97.008 35.2188 97.1013 34.9528 97.288C34.6868 97.4747 34.4884 97.7337 34.3578 98.065C34.2318 98.3963 34.1688 98.7813 34.1688 99.22C34.1688 99.8967 34.3204 100.436 34.6238 100.837C34.9318 101.234 35.3821 101.432 35.9748 101.432ZM46.5021 103V99.43C46.5021 99.2573 46.4928 99.038 46.4741 98.772C46.4555 98.5013 46.3971 98.2307 46.2991 97.96C46.2011 97.6893 46.0401 97.463 45.8161 97.281C45.5968 97.099 45.2841 97.008 44.8781 97.008C44.7148 97.008 44.5398 97.0337 44.3531 97.085C44.1665 97.1363 43.9915 97.2367 43.8281 97.386C43.6648 97.5307 43.5295 97.7453 43.4221 98.03C43.3195 98.3147 43.2681 98.6927 43.2681 99.164L42.1761 98.646C42.1761 98.0487 42.2975 97.4887 42.5401 96.966C42.7828 96.4433 43.1468 96.021 43.6321 95.699C44.1221 95.377 44.7381 95.216 45.4801 95.216C46.0728 95.216 46.5558 95.3163 46.9291 95.517C47.3025 95.7177 47.5918 95.972 47.7971 96.28C48.0071 96.588 48.1565 96.91 48.2451 97.246C48.3338 97.5773 48.3875 97.8807 48.4061 98.156C48.4248 98.4313 48.4341 98.632 48.4341 98.758V103H46.5021ZM41.3361 103V95.44H43.0301V97.946H43.2681V103H41.3361ZM53.2045 103.21C52.2525 103.21 51.4825 102.995 50.8945 102.566C50.3112 102.132 49.9565 101.521 49.8305 100.732L51.7765 100.438C51.8558 100.793 52.0308 101.07 52.3015 101.271C52.5768 101.472 52.9245 101.572 53.3445 101.572C53.6898 101.572 53.9558 101.507 54.1425 101.376C54.3292 101.241 54.4225 101.054 54.4225 100.816C54.4225 100.667 54.3852 100.548 54.3105 100.459C54.2358 100.366 54.0678 100.275 53.8065 100.186C53.5498 100.097 53.1485 99.9807 52.6025 99.836C51.9865 99.6773 51.4942 99.5 51.1255 99.304C50.7568 99.108 50.4908 98.8747 50.3275 98.604C50.1642 98.3287 50.0825 97.9973 50.0825 97.61C50.0825 97.1247 50.2062 96.7047 50.4535 96.35C50.7008 95.9907 51.0485 95.7153 51.4965 95.524C51.9492 95.328 52.4812 95.23 53.0925 95.23C53.6852 95.23 54.2102 95.321 54.6675 95.503C55.1248 95.685 55.4935 95.944 55.7735 96.28C56.0582 96.616 56.2332 97.0127 56.2985 97.47L54.3525 97.82C54.3198 97.54 54.1985 97.3183 53.9885 97.155C53.7785 96.9917 53.4938 96.896 53.1345 96.868C52.7845 96.8447 52.5022 96.8913 52.2875 97.008C52.0775 97.1247 51.9725 97.2927 51.9725 97.512C51.9725 97.6427 52.0168 97.7523 52.1055 97.841C52.1988 97.9297 52.3878 98.0207 52.6725 98.114C52.9618 98.2073 53.4005 98.3287 53.9885 98.478C54.5625 98.6273 55.0222 98.8023 55.3675 99.003C55.7175 99.199 55.9718 99.437 56.1305 99.717C56.2892 99.9923 56.3685 100.326 56.3685 100.718C56.3685 101.493 56.0885 102.102 55.5285 102.545C54.9685 102.988 54.1938 103.21 53.2045 103.21ZM61.3088 103.21C60.5481 103.21 59.8808 103.04 59.3068 102.699C58.7328 102.358 58.2848 101.889 57.9628 101.292C57.6454 100.69 57.4868 99.9993 57.4868 99.22C57.4868 98.4313 57.6501 97.7383 57.9768 97.141C58.3034 96.539 58.7538 96.07 59.3278 95.734C59.9018 95.398 60.5621 95.23 61.3088 95.23C62.0694 95.23 62.7368 95.4003 63.3108 95.741C63.8894 96.0817 64.3398 96.553 64.6618 97.155C64.9838 97.7523 65.1448 98.4407 65.1448 99.22C65.1448 100.004 64.9814 100.697 64.6548 101.299C64.3328 101.896 63.8824 102.365 63.3038 102.706C62.7298 103.042 62.0648 103.21 61.3088 103.21ZM61.3088 101.432C61.9201 101.432 62.3751 101.227 62.6738 100.816C62.9771 100.401 63.1288 99.8687 63.1288 99.22C63.1288 98.548 62.9748 98.0113 62.6668 97.61C62.3634 97.2087 61.9108 97.008 61.3088 97.008C60.8934 97.008 60.5528 97.1013 60.2868 97.288C60.0208 97.4747 59.8224 97.7337 59.6918 98.065C59.5658 98.3963 59.5028 98.7813 59.5028 99.22C59.5028 99.8967 59.6544 100.436 59.9578 100.837C60.2658 101.234 60.7161 101.432 61.3088 101.432ZM66.8241 103V92.71H68.7281V103H66.8241ZM74.3407 103.21C73.566 103.21 72.8823 103.044 72.2897 102.713C71.7017 102.377 71.2397 101.917 70.9037 101.334C70.5723 100.746 70.4067 100.074 70.4067 99.318C70.4067 98.492 70.57 97.7733 70.8967 97.162C71.2233 96.5507 71.6737 96.077 72.2477 95.741C72.8217 95.4003 73.482 95.23 74.2287 95.23C75.022 95.23 75.6963 95.4167 76.2517 95.79C76.807 96.1633 77.2177 96.6883 77.4837 97.365C77.7497 98.0417 77.843 98.8373 77.7637 99.752H75.8807V99.052C75.8807 98.282 75.757 97.729 75.5097 97.393C75.267 97.0523 74.868 96.882 74.3127 96.882C73.664 96.882 73.1857 97.0803 72.8777 97.477C72.5743 97.869 72.4227 98.45 72.4227 99.22C72.4227 99.9247 72.5743 100.471 72.8777 100.858C73.1857 101.241 73.636 101.432 74.2287 101.432C74.602 101.432 74.9217 101.35 75.1877 101.187C75.4537 101.024 75.6567 100.788 75.7967 100.48L77.7007 101.026C77.416 101.717 76.9657 102.253 76.3497 102.636C75.7383 103.019 75.0687 103.21 74.3407 103.21ZM71.8347 99.752V98.338H76.8467V99.752H71.8347Z" fill="white"/>
<path d="M23.737 130V121.299L21.84 122.447V121.054L23.737 119.92H25.004V130H23.737ZM31.1045 130.21C30.4652 130.21 29.8842 130.056 29.3615 129.748C28.8435 129.44 28.4305 129.02 28.1225 128.488C27.8192 127.951 27.6675 127.347 27.6675 126.675V123.322C27.6675 122.617 27.8192 121.994 28.1225 121.453C28.4305 120.907 28.8505 120.482 29.3825 120.179C29.9192 119.871 30.5305 119.717 31.2165 119.717C31.7718 119.717 32.2875 119.831 32.7635 120.06C33.2442 120.284 33.6478 120.608 33.9745 121.033L33.0435 121.859C32.8428 121.565 32.5815 121.332 32.2595 121.159C31.9375 120.986 31.5898 120.9 31.2165 120.9C30.7732 120.9 30.3788 121.007 30.0335 121.222C29.6928 121.432 29.4245 121.712 29.2285 122.062C29.0325 122.407 28.9345 122.781 28.9345 123.182V125.205L28.6615 124.897C28.9555 124.477 29.3288 124.141 29.7815 123.889C30.2342 123.637 30.7242 123.511 31.2515 123.511C31.8768 123.511 32.4368 123.658 32.9315 123.952C33.4308 124.246 33.8228 124.645 34.1075 125.149C34.3968 125.648 34.5415 126.211 34.5415 126.836C34.5415 127.461 34.3852 128.028 34.0725 128.537C33.7598 129.046 33.3422 129.452 32.8195 129.755C32.3015 130.058 31.7298 130.21 31.1045 130.21ZM31.1045 129.006C31.5058 129.006 31.8722 128.91 32.2035 128.719C32.5348 128.523 32.7962 128.262 32.9875 127.935C33.1835 127.604 33.2815 127.237 33.2815 126.836C33.2815 126.435 33.1835 126.068 32.9875 125.737C32.7962 125.406 32.5348 125.144 32.2035 124.953C31.8768 124.757 31.5128 124.659 31.1115 124.659C30.7102 124.659 30.3438 124.757 30.0125 124.953C29.6858 125.144 29.4245 125.406 29.2285 125.737C29.0325 126.068 28.9345 126.435 28.9345 126.836C28.9345 127.233 29.0302 127.597 29.2215 127.928C29.4175 128.255 29.6788 128.516 30.0055 128.712C30.3368 128.908 30.7032 129.006 31.1045 129.006Z" fill="#FCFCFC"/>
<path d="M124.5 20C124.5 20.5523 124.948 21 125.5 21C126.052 21 126.5 20.5523 126.5 20H124.5ZM165.293 20.7071C165.683 21.0976 166.317 21.0976 166.707 20.7071L173.071 14.3431C173.462 13.9526 173.462 13.3195 173.071 12.9289C172.681 12.5384 172.047 12.5384 171.657 12.9289L166 18.5858L160.343 12.9289C159.953 12.5384 159.319 12.5384 158.929 12.9289C158.538 13.3195 158.538 13.9526 158.929 14.3431L165.293 20.7071ZM126.5 20V11.5H124.5V20H126.5ZM135.5 2.5H156V0.5H135.5V2.5ZM165 11.5V20H167V11.5H165ZM156 2.5C160.971 2.5 165 6.52944 165 11.5H167C167 5.42487 162.075 0.5 156 0.5V2.5ZM126.5 11.5C126.5 6.52944 130.529 2.5 135.5 2.5V0.5C129.425 0.5 124.5 5.42487 124.5 11.5H126.5Z" fill="#787DF7"/>
<path d="M124.5 19C124.5 19.5523 124.948 20 125.5 20C126.052 20 126.5 19.5523 126.5 19H124.5ZM185.793 19.7071C186.183 20.0976 186.817 20.0976 187.207 19.7071L193.571 13.3431C193.962 12.9526 193.962 12.3195 193.571 11.9289C193.181 11.5384 192.547 11.5384 192.157 11.9289L186.5 17.5858L180.843 11.9289C180.453 11.5384 179.819 11.5384 179.429 11.9289C179.038 12.3195 179.038 12.9526 179.429 13.3431L185.793 19.7071ZM126.5 19V11H124.5V19H126.5ZM135.5 2H176.5V0H135.5V2ZM185.5 11V19H187.5V11H185.5ZM176.5 2C181.471 2 185.5 6.02944 185.5 11H187.5C187.5 4.92487 182.575 0 176.5 0V2ZM126.5 11C126.5 6.02944 130.529 2 135.5 2V0C129.425 0 124.5 4.92487 124.5 11H126.5Z" fill="#787DF7"/>
</svg>
