<svg width="347" height="252" viewBox="0 0 347 252" fill="none" xmlns="http://www.w3.org/2000/svg">
<path d="M45.12 49V38.71H47.024V49H45.12ZM52.6366 49.21C51.8619 49.21 51.1782 49.0443 50.5856 48.713C49.9976 48.377 49.5356 47.9173 49.1996 47.334C48.8682 46.746 48.7026 46.074 48.7026 45.318C48.7026 44.492 48.8659 43.7733 49.1926 43.162C49.5192 42.5507 49.9696 42.077 50.5436 41.741C51.1176 41.4003 51.7779 41.23 52.5246 41.23C53.3179 41.23 53.9922 41.4167 54.5476 41.79C55.1029 42.1633 55.5136 42.6883 55.7796 43.365C56.0456 44.0417 56.1389 44.8373 56.0596 45.752H54.1766V45.052C54.1766 44.282 54.0529 43.729 53.8056 43.393C53.5629 43.0523 53.1639 42.882 52.6086 42.882C51.9599 42.882 51.4816 43.0803 51.1736 43.477C50.8702 43.869 50.7186 44.45 50.7186 45.22C50.7186 45.9247 50.8702 46.4707 51.1736 46.858C51.4816 47.2407 51.9319 47.432 52.5246 47.432C52.8979 47.432 53.2176 47.3503 53.4836 47.187C53.7496 47.0237 53.9526 46.788 54.0926 46.48L55.9966 47.026C55.7119 47.7167 55.2616 48.2533 54.6456 48.636C54.0342 49.0187 53.3646 49.21 52.6366 49.21ZM50.1306 45.752V44.338H55.1426V45.752H50.1306ZM62.1762 49C61.6535 49.098 61.1402 49.14 60.6362 49.126C60.1368 49.1167 59.6888 49.0303 59.2922 48.867C58.9002 48.699 58.6015 48.4307 58.3962 48.062C58.2095 47.7167 58.1115 47.3667 58.1022 47.012C58.0928 46.6527 58.0882 46.2467 58.0882 45.794V39.34H59.9922V45.682C59.9922 45.976 59.9945 46.242 59.9992 46.48C60.0085 46.7133 60.0575 46.9 60.1462 47.04C60.3142 47.306 60.5825 47.4507 60.9512 47.474C61.3198 47.4973 61.7282 47.4787 62.1762 47.418V49ZM56.8002 42.91V41.44H62.1762V42.91H56.8002ZM96.9052 50.89L97.0172 50.092C97.2412 50.1107 97.4232 50.0733 97.5632 49.98C97.7032 49.8913 97.7989 49.7607 97.8502 49.588C97.9062 49.42 97.9179 49.224 97.8852 49H96.9052V47.096H98.8092V49C98.8092 49.672 98.6529 50.1807 98.3402 50.526C98.0276 50.8713 97.5492 50.9927 96.9052 50.89ZM96.9052 43.344V41.44H98.8092V43.344H96.9052ZM69.2021 74.94C68.5581 74.94 68.0541 74.758 67.6901 74.394C67.3261 74.03 67.1441 73.526 67.1441 72.882V68.794C67.1441 68.7053 67.1207 68.6307 67.0741 68.57L66.4441 67.674C66.3414 67.52 66.2901 67.352 66.2901 67.17C66.2901 66.988 66.3414 66.82 66.4441 66.666L67.0741 65.77C67.1207 65.6907 67.1441 65.616 67.1441 65.546V61.458C67.1441 60.8187 67.3261 60.317 67.6901 59.953C68.0541 59.5843 68.5581 59.4 69.2021 59.4H70.1961V61.192H69.3421C69.2301 61.192 69.1344 61.2317 69.0551 61.311C68.9757 61.3903 68.9361 61.486 68.9361 61.598V65.546C68.9361 66.0033 68.8007 66.4233 68.5301 66.806L68.2641 67.17L68.5301 67.534C68.8007 67.9167 68.9361 68.3367 68.9361 68.794V72.742C68.9361 72.8587 68.9757 72.9567 69.0551 73.036C69.1344 73.12 69.2301 73.162 69.3421 73.162H70.1961V74.94H69.2021ZM59.5229 95.21C58.7389 95.21 58.0669 95.035 57.5069 94.685C56.9469 94.335 56.5176 93.859 56.2189 93.257C55.9203 92.655 55.7709 91.976 55.7709 91.22C55.7709 90.4547 55.9249 89.771 56.2329 89.169C56.5456 88.567 56.9843 88.0933 57.5489 87.748C58.1136 87.4027 58.7809 87.23 59.5509 87.23C60.4423 87.23 61.1889 87.4563 61.7909 87.909C62.3976 88.357 62.7849 88.9707 62.9529 89.75L61.0489 90.254C60.9369 89.862 60.7409 89.5563 60.4609 89.337C60.1856 89.1177 59.8729 89.008 59.5229 89.008C59.1216 89.008 58.7926 89.106 58.5359 89.302C58.2793 89.4933 58.0903 89.757 57.9689 90.093C57.8476 90.4243 57.7869 90.8 57.7869 91.22C57.7869 91.878 57.9316 92.4123 58.2209 92.823C58.5149 93.229 58.9489 93.432 59.5229 93.432C59.9523 93.432 60.2789 93.334 60.5029 93.138C60.7269 92.942 60.8949 92.662 61.0069 92.298L62.9529 92.704C62.7383 93.5067 62.3323 94.125 61.7349 94.559C61.1376 94.993 60.4003 95.21 59.5229 95.21ZM67.55 95.21C66.7893 95.21 66.122 95.0397 65.548 94.699C64.974 94.3583 64.526 93.8893 64.204 93.292C63.8866 92.69 63.728 91.9993 63.728 91.22C63.728 90.4313 63.8913 89.7383 64.218 89.141C64.5446 88.539 64.995 88.07 65.569 87.734C66.143 87.398 66.8033 87.23 67.55 87.23C68.3106 87.23 68.978 87.4003 69.552 87.741C70.1306 88.0817 70.581 88.553 70.903 89.155C71.225 89.7523 71.386 90.4407 71.386 91.22C71.386 92.004 71.2226 92.697 70.896 93.299C70.574 93.8963 70.1236 94.3653 69.545 94.706C68.971 95.042 68.306 95.21 67.55 95.21ZM67.55 93.432C68.1613 93.432 68.6163 93.2267 68.915 92.816C69.2183 92.4007 69.37 91.8687 69.37 91.22C69.37 90.548 69.216 90.0113 68.908 89.61C68.6046 89.2087 68.152 89.008 67.55 89.008C67.1346 89.008 66.794 89.1013 66.528 89.288C66.262 89.4747 66.0636 89.7337 65.933 90.065C65.807 90.3963 65.744 90.7813 65.744 91.22C65.744 91.8967 65.8956 92.4357 66.199 92.837C66.507 93.2337 66.9573 93.432 67.55 93.432ZM78.0773 95V91.43C78.0773 91.2573 78.068 91.038 78.0493 90.772C78.0306 90.5013 77.9723 90.2307 77.8743 89.96C77.7763 89.6893 77.6153 89.463 77.3913 89.281C77.172 89.099 76.8593 89.008 76.4533 89.008C76.29 89.008 76.115 89.0337 75.9283 89.085C75.7416 89.1363 75.5666 89.2367 75.4033 89.386C75.24 89.5307 75.1046 89.7453 74.9973 90.03C74.8946 90.3147 74.8433 90.6927 74.8433 91.164L73.7513 90.646C73.7513 90.0487 73.8726 89.4887 74.1153 88.966C74.358 88.4433 74.722 88.021 75.2073 87.699C75.6973 87.377 76.3133 87.216 77.0553 87.216C77.648 87.216 78.131 87.3163 78.5043 87.517C78.8776 87.7177 79.167 87.972 79.3723 88.28C79.5823 88.588 79.7316 88.91 79.8203 89.246C79.909 89.5773 79.9626 89.8807 79.9813 90.156C80 90.4313 80.0093 90.632 80.0093 90.758V95H78.0773ZM72.9113 95V87.44H74.6053V89.946H74.8433V95H72.9113ZM84.7797 95.21C83.8277 95.21 83.0577 94.9953 82.4697 94.566C81.8864 94.132 81.5317 93.5207 81.4057 92.732L83.3517 92.438C83.431 92.7927 83.606 93.0703 83.8767 93.271C84.152 93.4717 84.4997 93.572 84.9197 93.572C85.265 93.572 85.531 93.5067 85.7177 93.376C85.9044 93.2407 85.9977 93.054 85.9977 92.816C85.9977 92.6667 85.9604 92.5477 85.8857 92.459C85.811 92.3657 85.643 92.2747 85.3817 92.186C85.125 92.0973 84.7237 91.9807 84.1777 91.836C83.5617 91.6773 83.0694 91.5 82.7007 91.304C82.332 91.108 82.066 90.8747 81.9027 90.604C81.7394 90.3287 81.6577 89.9973 81.6577 89.61C81.6577 89.1247 81.7814 88.7047 82.0287 88.35C82.276 87.9907 82.6237 87.7153 83.0717 87.524C83.5244 87.328 84.0564 87.23 84.6677 87.23C85.2604 87.23 85.7854 87.321 86.2427 87.503C86.7 87.685 87.0687 87.944 87.3487 88.28C87.6334 88.616 87.8084 89.0127 87.8737 89.47L85.9277 89.82C85.895 89.54 85.7737 89.3183 85.5637 89.155C85.3537 88.9917 85.069 88.896 84.7097 88.868C84.3597 88.8447 84.0774 88.8913 83.8627 89.008C83.6527 89.1247 83.5477 89.2927 83.5477 89.512C83.5477 89.6427 83.592 89.7523 83.6807 89.841C83.774 89.9297 83.963 90.0207 84.2477 90.114C84.537 90.2073 84.9757 90.3287 85.5637 90.478C86.1377 90.6273 86.5974 90.8023 86.9427 91.003C87.2927 91.199 87.547 91.437 87.7057 91.717C87.8644 91.9923 87.9437 92.326 87.9437 92.718C87.9437 93.4927 87.6637 94.1017 87.1037 94.545C86.5437 94.9883 85.769 95.21 84.7797 95.21ZM92.884 95.21C92.1233 95.21 91.456 95.0397 90.882 94.699C90.308 94.3583 89.86 93.8893 89.538 93.292C89.2206 92.69 89.062 91.9993 89.062 91.22C89.062 90.4313 89.2253 89.7383 89.552 89.141C89.8786 88.539 90.329 88.07 90.903 87.734C91.477 87.398 92.1373 87.23 92.884 87.23C93.6446 87.23 94.312 87.4003 94.886 87.741C95.4646 88.0817 95.915 88.553 96.237 89.155C96.559 89.7523 96.72 90.4407 96.72 91.22C96.72 92.004 96.5566 92.697 96.23 93.299C95.908 93.8963 95.4576 94.3653 94.879 94.706C94.305 95.042 93.64 95.21 92.884 95.21ZM92.884 93.432C93.4953 93.432 93.9503 93.2267 94.249 92.816C94.5523 92.4007 94.704 91.8687 94.704 91.22C94.704 90.548 94.55 90.0113 94.242 89.61C93.9386 89.2087 93.486 89.008 92.884 89.008C92.4686 89.008 92.128 89.1013 91.862 89.288C91.596 89.4747 91.3976 89.7337 91.267 90.065C91.141 90.3963 91.078 90.7813 91.078 91.22C91.078 91.8967 91.2296 92.4357 91.533 92.837C91.841 93.2337 92.2913 93.432 92.884 93.432ZM98.3993 95V84.71H100.303V95H98.3993ZM105.916 95.21C105.141 95.21 104.458 95.0443 103.865 94.713C103.277 94.377 102.815 93.9173 102.479 93.334C102.148 92.746 101.982 92.074 101.982 91.318C101.982 90.492 102.145 89.7733 102.472 89.162C102.799 88.5507 103.249 88.077 103.823 87.741C104.397 87.4003 105.057 87.23 105.804 87.23C106.597 87.23 107.272 87.4167 107.827 87.79C108.382 88.1633 108.793 88.6883 109.059 89.365C109.325 90.0417 109.418 90.8373 109.339 91.752H107.456V91.052C107.456 90.282 107.332 89.729 107.085 89.393C106.842 89.0523 106.443 88.882 105.888 88.882C105.239 88.882 104.761 89.0803 104.453 89.477C104.15 89.869 103.998 90.45 103.998 91.22C103.998 91.9247 104.15 92.4707 104.453 92.858C104.761 93.2407 105.211 93.432 105.804 93.432C106.177 93.432 106.497 93.3503 106.763 93.187C107.029 93.0237 107.232 92.788 107.372 92.48L109.276 93.026C108.991 93.7167 108.541 94.2533 107.925 94.636C107.314 95.0187 106.644 95.21 105.916 95.21ZM103.41 91.752V90.338H108.422V91.752H103.41ZM110.954 95V93.096H112.858V95H110.954ZM115.27 95V84.71H117.174V95H115.27ZM122.675 95.21C121.914 95.21 121.247 95.0397 120.673 94.699C120.099 94.3583 119.651 93.8893 119.329 93.292C119.012 92.69 118.853 91.9993 118.853 91.22C118.853 90.4313 119.016 89.7383 119.343 89.141C119.67 88.539 120.12 88.07 120.694 87.734C121.268 87.398 121.928 87.23 122.675 87.23C123.436 87.23 124.103 87.4003 124.677 87.741C125.256 88.0817 125.706 88.553 126.028 89.155C126.35 89.7523 126.511 90.4407 126.511 91.22C126.511 92.004 126.348 92.697 126.021 93.299C125.699 93.8963 125.249 94.3653 124.67 94.706C124.096 95.042 123.431 95.21 122.675 95.21ZM122.675 93.432C123.286 93.432 123.741 93.2267 124.04 92.816C124.343 92.4007 124.495 91.8687 124.495 91.22C124.495 90.548 124.341 90.0113 124.033 89.61C123.73 89.2087 123.277 89.008 122.675 89.008C122.26 89.008 121.919 89.1013 121.653 89.288C121.387 89.4747 121.189 89.7337 121.058 90.065C120.932 90.3963 120.869 90.7813 120.869 91.22C120.869 91.8967 121.021 92.4357 121.324 92.837C121.632 93.2337 122.082 93.432 122.675 93.432ZM131.284 98.57C130.855 98.57 130.447 98.5 130.059 98.36C129.672 98.2247 129.324 98.0333 129.016 97.786C128.713 97.5433 128.466 97.2587 128.274 96.932L130.038 96.078C130.16 96.302 130.332 96.4723 130.556 96.589C130.785 96.7057 131.032 96.764 131.298 96.764C131.583 96.764 131.851 96.715 132.103 96.617C132.355 96.5237 132.556 96.3813 132.705 96.19C132.859 96.0033 132.932 95.77 132.922 95.49V93.292H133.16V87.44H134.826V95.518C134.826 95.7047 134.817 95.8797 134.798 96.043C134.784 96.211 134.756 96.3767 134.714 96.54C134.593 97.002 134.367 97.3823 134.035 97.681C133.709 97.9797 133.307 98.2013 132.831 98.346C132.355 98.4953 131.84 98.57 131.284 98.57ZM131.116 95.21C130.421 95.21 129.812 95.035 129.289 94.685C128.767 94.335 128.358 93.859 128.064 93.257C127.775 92.655 127.63 91.976 127.63 91.22C127.63 90.45 127.777 89.7663 128.071 89.169C128.37 88.567 128.788 88.0933 129.324 87.748C129.861 87.4027 130.491 87.23 131.214 87.23C131.933 87.23 132.537 87.405 133.027 87.755C133.517 88.105 133.888 88.581 134.14 89.183C134.392 89.785 134.518 90.464 134.518 91.22C134.518 91.976 134.39 92.655 134.133 93.257C133.881 93.859 133.503 94.335 132.999 94.685C132.495 95.035 131.868 95.21 131.116 95.21ZM131.424 93.516C131.849 93.516 132.187 93.4203 132.439 93.229C132.696 93.0377 132.88 92.7693 132.992 92.424C133.104 92.0787 133.16 91.6773 133.16 91.22C133.16 90.7627 133.104 90.3613 132.992 90.016C132.88 89.6707 132.701 89.4023 132.453 89.211C132.211 89.0197 131.891 88.924 131.494 88.924C131.07 88.924 130.72 89.029 130.444 89.239C130.174 89.4443 129.973 89.722 129.842 90.072C129.712 90.4173 129.646 90.8 129.646 91.22C129.646 91.6447 129.709 92.032 129.835 92.382C129.961 92.7273 130.155 93.0027 130.416 93.208C130.678 93.4133 131.014 93.516 131.424 93.516ZM140.301 97.716C139.759 97.0813 139.295 96.3603 138.908 95.553C138.525 94.7457 138.233 93.901 138.033 93.019C137.837 92.1323 137.748 91.2527 137.767 90.38C137.748 89.5073 137.837 88.6277 138.033 87.741C138.233 86.8543 138.525 86.0097 138.908 85.207C139.295 84.3997 139.759 83.6787 140.301 83.044L141.715 84.08C141.145 84.766 140.7 85.452 140.378 86.138C140.056 86.8193 139.827 87.5123 139.692 88.217C139.561 88.917 139.493 89.638 139.489 90.38C139.493 91.122 139.561 91.8453 139.692 92.55C139.827 93.25 140.056 93.943 140.378 94.629C140.7 95.3103 141.145 95.994 141.715 96.68L140.301 97.716ZM148.39 97.716L146.976 96.68C147.545 95.994 147.991 95.3103 148.313 94.629C148.635 93.943 148.861 93.25 148.992 92.55C149.127 91.8453 149.197 91.122 149.202 90.38C149.197 89.638 149.127 88.917 148.992 88.217C148.861 87.5123 148.635 86.8193 148.313 86.138C147.991 85.452 147.545 84.766 146.976 84.08L148.39 83.044C148.931 83.6787 149.393 84.3997 149.776 85.207C150.163 86.0097 150.455 86.8543 150.651 87.741C150.852 88.6277 150.943 89.5073 150.924 90.38C150.943 91.2527 150.852 92.1323 150.651 93.019C150.455 93.901 150.163 94.7457 149.776 95.553C149.393 96.3603 148.931 97.0813 148.39 97.716ZM154.423 96.89L154.535 96.092C154.759 96.1107 154.941 96.0733 155.081 95.98C155.221 95.8913 155.316 95.7607 155.368 95.588C155.424 95.42 155.435 95.224 155.403 95H154.423V93.096H156.327V95C156.327 95.672 156.17 96.1807 155.858 96.526C155.545 96.8713 155.067 96.9927 154.423 96.89ZM154.423 89.344V87.44H156.327V89.344H154.423ZM76.8623 119.89L76.9743 119.092C77.1983 119.111 77.3803 119.073 77.5203 118.98C77.6603 118.891 77.7559 118.761 77.8073 118.588C77.8633 118.42 77.8749 118.224 77.8423 118H76.8623V116.096H78.7663V118C78.7663 118.672 78.6099 119.181 78.2973 119.526C77.9846 119.871 77.5063 119.993 76.8623 119.89ZM76.8623 112.344V110.44H78.7663V112.344H76.8623ZM45.554 143.94H44.56V142.162H45.414C45.526 142.162 45.6217 142.12 45.701 142.036C45.7803 141.957 45.82 141.859 45.82 141.742V137.794C45.82 137.337 45.9553 136.917 46.226 136.534L46.492 136.17L46.226 135.806C45.9553 135.423 45.82 135.003 45.82 134.546V130.598C45.82 130.486 45.7803 130.39 45.701 130.311C45.6217 130.232 45.526 130.192 45.414 130.192H44.56V128.4H45.554C46.198 128.4 46.702 128.584 47.066 128.953C47.43 129.317 47.612 129.819 47.612 130.458V134.546C47.612 134.616 47.6353 134.691 47.682 134.77L48.312 135.666C48.4193 135.82 48.473 135.988 48.473 136.17C48.473 136.352 48.4193 136.52 48.312 136.674L47.682 137.57C47.6353 137.631 47.612 137.705 47.612 137.794V141.882C47.612 142.526 47.43 143.03 47.066 143.394C46.702 143.758 46.198 143.94 45.554 143.94ZM55.8185 141L53.5085 133.426L55.3705 133.44L56.7425 137.948L58.1355 133.44H59.7175L61.1105 137.948L62.4825 133.44H64.3445L62.0345 141H60.5785L58.9265 136.072L57.2745 141H55.8185ZM70.7629 141V137.43C70.7629 137.257 70.7535 137.038 70.7349 136.772C70.7162 136.501 70.6579 136.231 70.5599 135.96C70.4619 135.689 70.3009 135.463 70.0769 135.281C69.8575 135.099 69.5449 135.008 69.1389 135.008C68.9755 135.008 68.8005 135.034 68.6139 135.085C68.4272 135.136 68.2522 135.237 68.0889 135.386C67.9255 135.531 67.7902 135.745 67.6829 136.03C67.5802 136.315 67.5289 136.693 67.5289 137.164L66.4369 136.646C66.4369 136.049 66.5582 135.489 66.8009 134.966C67.0435 134.443 67.4075 134.021 67.8929 133.699C68.3829 133.377 68.9989 133.216 69.7409 133.216C70.3335 133.216 70.8165 133.316 71.1899 133.517C71.5632 133.718 71.8525 133.972 72.0579 134.28C72.2679 134.588 72.4172 134.91 72.5059 135.246C72.5945 135.577 72.6482 135.881 72.6669 136.156C72.6855 136.431 72.6949 136.632 72.6949 136.758V141H70.7629ZM65.5969 141V130.92H67.2909V136.1H67.5289V141H65.5969ZM74.6513 132.39V130.71H76.5553V132.39H74.6513ZM74.6513 141V133.44H76.5553V141H74.6513ZM78.7938 141V130.71H80.6978V141H78.7938ZM86.3104 141.21C85.5357 141.21 84.8521 141.044 84.2594 140.713C83.6714 140.377 83.2094 139.917 82.8734 139.334C82.5421 138.746 82.3764 138.074 82.3764 137.318C82.3764 136.492 82.5397 135.773 82.8664 135.162C83.1931 134.551 83.6434 134.077 84.2174 133.741C84.7914 133.4 85.4517 133.23 86.1984 133.23C86.9917 133.23 87.6661 133.417 88.2214 133.79C88.7767 134.163 89.1874 134.688 89.4534 135.365C89.7194 136.042 89.8127 136.837 89.7334 137.752H87.8504V137.052C87.8504 136.282 87.7267 135.729 87.4794 135.393C87.2367 135.052 86.8377 134.882 86.2824 134.882C85.6337 134.882 85.1554 135.08 84.8474 135.477C84.5441 135.869 84.3924 136.45 84.3924 137.22C84.3924 137.925 84.5441 138.471 84.8474 138.858C85.1554 139.241 85.6057 139.432 86.1984 139.432C86.5717 139.432 86.8914 139.35 87.1574 139.187C87.4234 139.024 87.6264 138.788 87.7664 138.48L89.6704 139.026C89.3857 139.717 88.9354 140.253 88.3194 140.636C87.7081 141.019 87.0384 141.21 86.3104 141.21ZM83.8044 137.752V136.338H88.8164V137.752H83.8044ZM97.6307 143.716C97.0894 143.081 96.6251 142.36 96.2377 141.553C95.8551 140.746 95.5634 139.901 95.3627 139.019C95.1667 138.132 95.0781 137.253 95.0967 136.38C95.0781 135.507 95.1667 134.628 95.3627 133.741C95.5634 132.854 95.8551 132.01 96.2377 131.207C96.6251 130.4 97.0894 129.679 97.6307 129.044L99.0447 130.08C98.4754 130.766 98.0297 131.452 97.7077 132.138C97.3857 132.819 97.1571 133.512 97.0217 134.217C96.8911 134.917 96.8234 135.638 96.8187 136.38C96.8234 137.122 96.8911 137.845 97.0217 138.55C97.1571 139.25 97.3857 139.943 97.7077 140.629C98.0297 141.31 98.4754 141.994 99.0447 142.68L97.6307 143.716ZM128.593 143.296L127.179 142.26C127.748 141.574 128.194 140.89 128.516 140.209C128.838 139.523 129.064 138.83 129.195 138.13C129.33 137.425 129.4 136.702 129.405 135.96C129.4 135.218 129.33 134.497 129.195 133.797C129.064 133.092 128.838 132.399 128.516 131.718C128.194 131.032 127.748 130.346 127.179 129.66L128.593 128.624C129.134 129.259 129.596 129.98 129.979 130.787C130.366 131.59 130.658 132.434 130.854 133.321C131.055 134.208 131.146 135.087 131.127 135.96C131.146 136.833 131.055 137.712 130.854 138.599C130.658 139.481 130.366 140.326 129.979 141.133C129.596 141.94 129.134 142.661 128.593 143.296ZM134.626 142.89L134.738 142.092C134.962 142.111 135.144 142.073 135.284 141.98C135.424 141.891 135.52 141.761 135.571 141.588C135.627 141.42 135.639 141.224 135.606 141H134.626V139.096H136.53V141C136.53 141.672 136.374 142.181 136.061 142.526C135.748 142.871 135.27 142.993 134.626 142.89ZM134.626 135.344V133.44H136.53V135.344H134.626Z" fill="white"/>
<path d="M66.8036 40.39V38.71H68.7076V40.39H66.8036ZM66.8036 49V41.44H68.7076V49H66.8036ZM74.3089 43.33V41.86H81.4489V43.33H74.3089ZM74.3089 46.06V44.59H81.4489V46.06H74.3089ZM90.6496 49.21C89.903 49.21 89.2496 49.0537 88.6896 48.741C88.1296 48.4283 87.6933 47.992 87.3806 47.432C87.068 46.872 86.9116 46.2187 86.9116 45.472V42.448C86.9116 41.7013 87.068 41.048 87.3806 40.488C87.6933 39.928 88.1296 39.4917 88.6896 39.179C89.2496 38.8663 89.903 38.71 90.6496 38.71C91.3963 38.71 92.0496 38.8663 92.6096 39.179C93.1696 39.4917 93.606 39.928 93.9186 40.488C94.2313 41.048 94.3876 41.7013 94.3876 42.448V45.472C94.3876 46.2187 94.2313 46.872 93.9186 47.432C93.606 47.992 93.1696 48.4283 92.6096 48.741C92.0496 49.0537 91.3963 49.21 90.6496 49.21ZM90.6496 47.404C90.9856 47.404 91.289 47.3247 91.5596 47.166C91.8303 47.0073 92.045 46.7927 92.2036 46.522C92.3623 46.2513 92.4416 45.948 92.4416 45.612V42.294C92.4416 41.958 92.3623 41.6547 92.2036 41.384C92.045 41.1133 91.8303 40.8987 91.5596 40.74C91.289 40.5813 90.9856 40.502 90.6496 40.502C90.3136 40.502 90.0103 40.5813 89.7396 40.74C89.469 40.8987 89.2543 41.1133 89.0956 41.384C88.937 41.6547 88.8576 41.958 88.8576 42.294V45.612C88.8576 45.948 88.937 46.2513 89.0956 46.522C89.2543 46.7927 89.469 47.0073 89.7396 47.166C90.0103 47.3247 90.3136 47.404 90.6496 47.404ZM143.393 86.39V84.71H145.297V86.39H143.393ZM143.393 95V87.44H145.297V95H143.393Z" fill="#FFD966"/>
<path d="M48.046 72.21C47.3507 72.21 46.7417 72.035 46.219 71.685C45.6963 71.335 45.288 70.859 44.994 70.257C44.7047 69.655 44.56 68.976 44.56 68.22C44.56 67.45 44.707 66.7663 45.001 66.169C45.2997 65.567 45.7173 65.0933 46.254 64.748C46.7907 64.4027 47.4207 64.23 48.144 64.23C48.8627 64.23 49.467 64.405 49.957 64.755C50.447 65.105 50.818 65.581 51.07 66.183C51.322 66.785 51.448 67.464 51.448 68.22C51.448 68.976 51.3197 69.655 51.063 70.257C50.811 70.859 50.433 71.335 49.929 71.685C49.425 72.035 48.7973 72.21 48.046 72.21ZM48.354 70.516C48.7787 70.516 49.117 70.4203 49.369 70.229C49.6257 70.0377 49.81 69.7693 49.922 69.424C50.034 69.0787 50.09 68.6773 50.09 68.22C50.09 67.7627 50.034 67.3613 49.922 67.016C49.81 66.6707 49.6303 66.4023 49.383 66.211C49.1403 66.0197 48.8207 65.924 48.424 65.924C47.9993 65.924 47.6493 66.029 47.374 66.239C47.1033 66.4443 46.9027 66.722 46.772 67.072C46.6413 67.4173 46.576 67.8 46.576 68.22C46.576 68.6447 46.639 69.032 46.765 69.382C46.891 69.7273 47.0847 70.0027 47.346 70.208C47.6073 70.4133 47.9433 70.516 48.354 70.516ZM50.09 72V66.82H49.852V61.92H51.77V72H50.09ZM57.132 72.21C56.3713 72.21 55.704 72.0397 55.13 71.699C54.556 71.3583 54.108 70.8893 53.786 70.292C53.4687 69.69 53.31 68.9993 53.31 68.22C53.31 67.4313 53.4733 66.7383 53.8 66.141C54.1267 65.539 54.577 65.07 55.151 64.734C55.725 64.398 56.3853 64.23 57.132 64.23C57.8927 64.23 58.56 64.4003 59.134 64.741C59.7127 65.0817 60.163 65.553 60.485 66.155C60.807 66.7523 60.968 67.4407 60.968 68.22C60.968 69.004 60.8047 69.697 60.478 70.299C60.156 70.8963 59.7057 71.3653 59.127 71.706C58.553 72.042 57.888 72.21 57.132 72.21ZM57.132 70.432C57.7433 70.432 58.1983 70.2267 58.497 69.816C58.8003 69.4007 58.952 68.8687 58.952 68.22C58.952 67.548 58.798 67.0113 58.49 66.61C58.1867 66.2087 57.734 66.008 57.132 66.008C56.7167 66.008 56.376 66.1013 56.11 66.288C55.844 66.4747 55.6457 66.7337 55.515 67.065C55.389 67.3963 55.326 67.7813 55.326 68.22C55.326 68.8967 55.4777 69.4357 55.781 69.837C56.089 70.2337 56.5393 70.432 57.132 70.432Z" fill="#787DF7"/>
<path d="M56.3309 109.39V107.71H58.2349V109.39H56.3309ZM56.3309 118V110.44H58.2349V118H56.3309ZM62.6155 116.11V113.688H60.1935V112.218H62.6155V109.81H64.0855V112.218H66.4935V113.688H64.0855V116.11H62.6155ZM70.5999 116.11V113.688H68.1779V112.218H70.5999V109.81H72.0699V112.218H74.4779V113.688H72.0699V116.11H70.5999ZM100.724 132.39V130.71H102.628V132.39H100.724ZM100.724 141V133.44H102.628V141H100.724ZM111.897 139.978L108.509 136.59L111.897 133.202L113.073 134.378L110.777 136.59L113.073 138.802L111.897 139.978ZM122.351 141.21C121.842 141.21 121.364 141.105 120.916 140.895C120.473 140.685 120.09 140.393 119.768 140.02C119.446 139.647 119.215 139.213 119.075 138.718L120.909 138.228C120.97 138.466 121.077 138.671 121.231 138.844C121.39 139.017 121.572 139.152 121.777 139.25C121.987 139.343 122.202 139.39 122.421 139.39C122.71 139.39 122.974 139.32 123.212 139.18C123.455 139.04 123.646 138.851 123.786 138.613C123.931 138.375 124.003 138.111 124.003 137.822C124.003 137.533 123.931 137.269 123.786 137.031C123.646 136.793 123.455 136.604 123.212 136.464C122.974 136.324 122.71 136.254 122.421 136.254C122.066 136.254 121.777 136.315 121.553 136.436C121.329 136.553 121.161 136.665 121.049 136.772L119.439 136.282L119.747 130.92H125.249V132.698H120.797L121.469 132.068L121.259 135.526L120.937 135.134C121.189 134.929 121.476 134.779 121.798 134.686C122.12 134.593 122.421 134.546 122.701 134.546C123.336 134.546 123.893 134.688 124.374 134.973C124.859 135.253 125.237 135.64 125.508 136.135C125.783 136.625 125.921 137.187 125.921 137.822C125.921 138.457 125.755 139.031 125.424 139.544C125.093 140.053 124.656 140.459 124.115 140.762C123.574 141.061 122.986 141.21 122.351 141.21Z" fill="#FF378B"/>
<path d="M79 32.5C79 33.0523 79.4477 33.5 80 33.5C80.5523 33.5 81 33.0523 81 32.5H79ZM108.207 13.7071C108.598 13.3166 108.598 12.6834 108.207 12.2929L101.843 5.92893C101.453 5.53841 100.819 5.53841 100.429 5.92893C100.038 6.31946 100.038 6.95262 100.429 7.34315L106.086 13L100.429 18.6569C100.038 19.0474 100.038 19.6805 100.429 20.0711C100.819 20.4616 101.453 20.4616 101.843 20.0711L108.207 13.7071ZM81 32.5V23H79V32.5H81ZM90 14H107.5V12H90V14ZM81 23C81 18.0294 85.0294 14 90 14V12C83.9249 12 79 16.9249 79 23H81Z" fill="#FFD966"/>
<path d="M118.12 17V6.92H120.024V17H118.12ZM127.275 17V13.43C127.275 13.2573 127.265 13.038 127.247 12.772C127.228 12.5013 127.17 12.2307 127.072 11.96C126.974 11.6893 126.813 11.463 126.589 11.281C126.369 11.099 126.057 11.008 125.651 11.008C125.487 11.008 125.312 11.0337 125.126 11.085C124.939 11.1363 124.764 11.2367 124.601 11.386C124.437 11.5307 124.302 11.7453 124.195 12.03C124.092 12.3147 124.041 12.6927 124.041 13.164L122.949 12.646C122.949 12.0487 123.07 11.4887 123.313 10.966C123.555 10.4433 123.919 10.021 124.405 9.699C124.895 9.377 125.511 9.216 126.253 9.216C126.845 9.216 127.328 9.31633 127.702 9.517C128.075 9.71767 128.364 9.972 128.57 10.28C128.78 10.588 128.929 10.91 129.018 11.246C129.106 11.5773 129.16 11.8807 129.179 12.156C129.197 12.4313 129.207 12.632 129.207 12.758V17H127.275ZM122.109 17V9.44H123.803V11.946H124.041V17H122.109ZM131.163 8.39V6.71H133.067V8.39H131.163ZM131.163 17V9.44H133.067V17H131.163ZM139.702 17C139.179 17.098 138.666 17.14 138.162 17.126C137.662 17.1167 137.214 17.0303 136.818 16.867C136.426 16.699 136.127 16.4307 135.922 16.062C135.735 15.7167 135.637 15.3667 135.628 15.012C135.618 14.6527 135.614 14.2467 135.614 13.794V7.34H137.518V13.682C137.518 13.976 137.52 14.242 137.525 14.48C137.534 14.7133 137.583 14.9 137.672 15.04C137.84 15.306 138.108 15.4507 138.477 15.474C138.845 15.4973 139.254 15.4787 139.702 15.418V17ZM134.326 10.91V9.44H139.702V10.91H134.326ZM141.526 8.39V6.71H143.43V8.39H141.526ZM141.526 17V9.44H143.43V17H141.526ZM147.629 17.21C147.087 17.21 146.628 17.1073 146.25 16.902C145.876 16.692 145.592 16.4143 145.396 16.069C145.204 15.719 145.109 15.334 145.109 14.914C145.109 14.564 145.162 14.2443 145.27 13.955C145.377 13.6657 145.55 13.4113 145.788 13.192C146.03 12.968 146.355 12.7813 146.761 12.632C147.041 12.5293 147.374 12.4383 147.762 12.359C148.149 12.2797 148.588 12.205 149.078 12.135C149.568 12.0603 150.107 11.9787 150.695 11.89L150.009 12.268C150.009 11.82 149.901 11.491 149.687 11.281C149.472 11.071 149.113 10.966 148.609 10.966C148.329 10.966 148.037 11.0337 147.734 11.169C147.43 11.3043 147.218 11.5447 147.097 11.89L145.375 11.344C145.566 10.7187 145.925 10.21 146.453 9.818C146.98 9.426 147.699 9.23 148.609 9.23C149.276 9.23 149.869 9.33267 150.387 9.538C150.905 9.74333 151.297 10.098 151.563 10.602C151.712 10.882 151.801 11.162 151.829 11.442C151.857 11.722 151.871 12.0347 151.871 12.38V17H150.205V15.446L150.443 15.768C150.074 16.2767 149.675 16.6453 149.246 16.874C148.821 17.098 148.282 17.21 147.629 17.21ZM148.035 15.712C148.385 15.712 148.679 15.6513 148.917 15.53C149.159 15.404 149.351 15.2617 149.491 15.103C149.635 14.9443 149.733 14.8113 149.785 14.704C149.883 14.4987 149.939 14.2607 149.953 13.99C149.971 13.7147 149.981 13.486 149.981 13.304L150.541 13.444C149.976 13.5373 149.519 13.6167 149.169 13.682C148.819 13.7427 148.536 13.7987 148.322 13.85C148.107 13.9013 147.918 13.9573 147.755 14.018C147.568 14.0927 147.416 14.1743 147.3 14.263C147.188 14.347 147.104 14.4403 147.048 14.543C146.996 14.6457 146.971 14.76 146.971 14.886C146.971 15.0587 147.013 15.208 147.097 15.334C147.185 15.4553 147.309 15.5487 147.468 15.614C147.626 15.6793 147.815 15.712 148.035 15.712ZM153.831 17V6.71H155.735V17H153.831ZM157.974 8.39V6.71H159.878V8.39H157.974ZM157.974 17V9.44H159.878V17H157.974ZM161.276 17V16.762L164.986 11.092H161.696V9.44H167.926V9.678L164.23 15.348H167.786V17H161.276ZM172.422 17.21C171.647 17.21 170.963 17.0443 170.371 16.713C169.783 16.377 169.321 15.9173 168.985 15.334C168.653 14.746 168.488 14.074 168.488 13.318C168.488 12.492 168.651 11.7733 168.978 11.162C169.304 10.5507 169.755 10.077 170.329 9.741C170.903 9.40033 171.563 9.23 172.31 9.23C173.103 9.23 173.777 9.41667 174.333 9.79C174.888 10.1633 175.299 10.6883 175.565 11.365C175.831 12.0417 175.924 12.8373 175.845 13.752H173.962V13.052C173.962 12.282 173.838 11.729 173.591 11.393C173.348 11.0523 172.949 10.882 172.394 10.882C171.745 10.882 171.267 11.0803 170.959 11.477C170.655 11.869 170.504 12.45 170.504 13.22C170.504 13.9247 170.655 14.4707 170.959 14.858C171.267 15.2407 171.717 15.432 172.31 15.432C172.683 15.432 173.003 15.3503 173.269 15.187C173.535 15.0237 173.738 14.788 173.878 14.48L175.782 15.026C175.497 15.7167 175.047 16.2533 174.431 16.636C173.819 17.0187 173.15 17.21 172.422 17.21ZM169.916 13.752V12.338H174.928V13.752H169.916Z" fill="#FFD966"/>
<path d="M185.98 58V47.92H192.49V49.502H187.667V51.987H191.65V53.569H187.667V56.418H192.49V58H185.98ZM193.329 58L196.094 54.178L193.385 50.44H195.373L197.074 52.855L198.747 50.44H200.735L198.026 54.178L200.805 58H198.817L197.074 55.501L195.317 58H193.329ZM205.085 58.21C204.32 58.21 203.648 58.0443 203.069 57.713C202.49 57.3817 202.038 56.922 201.711 56.334C201.389 55.746 201.228 55.0693 201.228 54.304C201.228 53.478 201.387 52.7617 201.704 52.155C202.021 51.5437 202.462 51.07 203.027 50.734C203.592 50.398 204.245 50.23 204.987 50.23C205.771 50.23 206.436 50.4143 206.982 50.783C207.533 51.147 207.941 51.6627 208.207 52.33C208.473 52.9973 208.573 53.7837 208.508 54.689H206.835V54.073C206.83 53.2517 206.686 52.652 206.401 52.274C206.116 51.896 205.668 51.707 205.057 51.707C204.366 51.707 203.853 51.9217 203.517 52.351C203.181 52.7757 203.013 53.3987 203.013 54.22C203.013 54.9853 203.181 55.578 203.517 55.998C203.853 56.418 204.343 56.628 204.987 56.628C205.402 56.628 205.759 56.537 206.058 56.355C206.361 56.1683 206.595 55.9 206.758 55.55L208.424 56.054C208.135 56.7353 207.687 57.265 207.08 57.643C206.478 58.021 205.813 58.21 205.085 58.21ZM202.481 54.689V53.415H207.682V54.689H202.481ZM213.353 58.21C212.574 58.21 211.909 58.0373 211.358 57.692C210.807 57.342 210.385 56.866 210.091 56.264C209.802 55.662 209.655 54.9807 209.65 54.22C209.655 53.4453 209.806 52.7593 210.105 52.162C210.408 51.56 210.838 51.0887 211.393 50.748C211.948 50.4027 212.609 50.23 213.374 50.23C214.233 50.23 214.958 50.447 215.551 50.881C216.148 51.3103 216.538 51.8983 216.72 52.645L215.04 53.1C214.909 52.694 214.692 52.379 214.389 52.155C214.086 51.9263 213.74 51.812 213.353 51.812C212.914 51.812 212.553 51.917 212.268 52.127C211.983 52.3323 211.773 52.617 211.638 52.981C211.503 53.345 211.435 53.758 211.435 54.22C211.435 54.9387 211.596 55.5197 211.918 55.963C212.24 56.4063 212.718 56.628 213.353 56.628C213.801 56.628 214.153 56.5253 214.41 56.32C214.671 56.1147 214.867 55.8183 214.998 55.431L216.72 55.816C216.487 56.586 216.078 57.1787 215.495 57.594C214.912 58.0047 214.198 58.21 213.353 58.21ZM220.958 58.217C220.398 58.217 219.936 58.1237 219.572 57.937C219.208 57.7503 218.918 57.5123 218.704 57.223C218.489 56.9337 218.33 56.6257 218.228 56.299C218.125 55.9723 218.057 55.6643 218.025 55.375C217.997 55.081 217.983 54.843 217.983 54.661V50.44H219.691V54.08C219.691 54.3133 219.707 54.577 219.74 54.871C219.772 55.1603 219.847 55.4403 219.964 55.711C220.085 55.977 220.262 56.1963 220.496 56.369C220.734 56.5417 221.053 56.628 221.455 56.628C221.669 56.628 221.882 56.593 222.092 56.523C222.302 56.453 222.491 56.334 222.659 56.166C222.831 55.9933 222.969 55.7577 223.072 55.459C223.174 55.1603 223.226 54.7823 223.226 54.325L224.227 54.752C224.227 55.396 224.101 55.9793 223.849 56.502C223.601 57.0247 223.235 57.4423 222.75 57.755C222.264 58.063 221.667 58.217 220.958 58.217ZM223.429 58V55.655H223.226V50.44H224.92V58H223.429ZM231.317 58C230.818 58.0933 230.328 58.133 229.847 58.119C229.371 58.1097 228.944 58.0233 228.566 57.86C228.188 57.692 227.901 57.4283 227.705 57.069C227.533 56.7423 227.442 56.4087 227.432 56.068C227.423 55.7273 227.418 55.3423 227.418 54.913V48.34H229.098V54.815C229.098 55.1183 229.101 55.3843 229.105 55.613C229.115 55.8417 229.164 56.0283 229.252 56.173C229.42 56.453 229.689 56.6093 230.057 56.642C230.426 56.6747 230.846 56.656 231.317 56.586V58ZM226.046 51.763V50.44H231.317V51.763H226.046ZM235.997 58.21C235.232 58.21 234.56 58.0443 233.981 57.713C233.402 57.3817 232.95 56.922 232.623 56.334C232.301 55.746 232.14 55.0693 232.14 54.304C232.14 53.478 232.299 52.7617 232.616 52.155C232.933 51.5437 233.374 51.07 233.939 50.734C234.504 50.398 235.157 50.23 235.899 50.23C236.683 50.23 237.348 50.4143 237.894 50.783C238.445 51.147 238.853 51.6627 239.119 52.33C239.385 52.9973 239.485 53.7837 239.42 54.689H237.747V54.073C237.742 53.2517 237.598 52.652 237.313 52.274C237.028 51.896 236.58 51.707 235.969 51.707C235.278 51.707 234.765 51.9217 234.429 52.351C234.093 52.7757 233.925 53.3987 233.925 54.22C233.925 54.9853 234.093 55.578 234.429 55.998C234.765 56.418 235.255 56.628 235.899 56.628C236.314 56.628 236.671 56.537 236.97 56.355C237.273 56.1683 237.507 55.9 237.67 55.55L239.336 56.054C239.047 56.7353 238.599 57.265 237.992 57.643C237.39 58.021 236.725 58.21 235.997 58.21ZM233.393 54.689V53.415H238.594V54.689H233.393ZM248.216 58C247.716 58.0933 247.226 58.133 246.746 58.119C246.27 58.1097 245.843 58.0233 245.465 57.86C245.087 57.692 244.8 57.4283 244.604 57.069C244.431 56.7423 244.34 56.4087 244.331 56.068C244.321 55.7273 244.317 55.3423 244.317 54.913V48.34H245.997V54.815C245.997 55.1183 245.999 55.3843 246.004 55.613C246.013 55.8417 246.062 56.0283 246.151 56.173C246.319 56.453 246.587 56.6093 246.956 56.642C247.324 56.6747 247.744 56.656 248.216 56.586V58ZM242.945 51.763V50.44H248.216V51.763H242.945ZM255.07 58V54.36C255.07 54.122 255.054 53.8583 255.021 53.569C254.989 53.2797 254.912 53.002 254.79 52.736C254.674 52.4653 254.496 52.2437 254.258 52.071C254.025 51.8983 253.708 51.812 253.306 51.812C253.092 51.812 252.879 51.847 252.669 51.917C252.459 51.987 252.268 52.1083 252.095 52.281C251.927 52.449 251.792 52.6823 251.689 52.981C251.587 53.275 251.535 53.653 251.535 54.115L250.534 53.688C250.534 53.044 250.658 52.4607 250.905 51.938C251.157 51.4153 251.526 51 252.011 50.692C252.497 50.3793 253.094 50.223 253.803 50.223C254.363 50.223 254.825 50.3163 255.189 50.503C255.553 50.6897 255.843 50.9277 256.057 51.217C256.272 51.5063 256.431 51.8143 256.533 52.141C256.636 52.4677 256.701 52.778 256.729 53.072C256.762 53.3613 256.778 53.597 256.778 53.779V58H255.07ZM249.827 58V47.92H251.332V53.226H251.535V58H249.827ZM262.042 58.21C261.277 58.21 260.605 58.0443 260.026 57.713C259.447 57.3817 258.995 56.922 258.668 56.334C258.346 55.746 258.185 55.0693 258.185 54.304C258.185 53.478 258.344 52.7617 258.661 52.155C258.978 51.5437 259.419 51.07 259.984 50.734C260.549 50.398 261.202 50.23 261.944 50.23C262.728 50.23 263.393 50.4143 263.939 50.783C264.49 51.147 264.898 51.6627 265.164 52.33C265.43 52.9973 265.53 53.7837 265.465 54.689H263.792V54.073C263.787 53.2517 263.643 52.652 263.358 52.274C263.073 51.896 262.625 51.707 262.014 51.707C261.323 51.707 260.81 51.9217 260.474 52.351C260.138 52.7757 259.97 53.3987 259.97 54.22C259.97 54.9853 260.138 55.578 260.474 55.998C260.81 56.418 261.3 56.628 261.944 56.628C262.359 56.628 262.716 56.537 263.015 56.355C263.318 56.1683 263.552 55.9 263.715 55.55L265.381 56.054C265.092 56.7353 264.644 57.265 264.037 57.643C263.435 58.021 262.77 58.21 262.042 58.21ZM259.438 54.689V53.415H264.639V54.689H259.438ZM273.113 58.21C272.333 58.21 271.668 58.0373 271.118 57.692C270.567 57.342 270.145 56.866 269.851 56.264C269.561 55.662 269.414 54.9807 269.41 54.22C269.414 53.4453 269.566 52.7593 269.865 52.162C270.168 51.56 270.597 51.0887 271.153 50.748C271.708 50.4027 272.368 50.23 273.134 50.23C273.992 50.23 274.718 50.447 275.311 50.881C275.908 51.3103 276.298 51.8983 276.48 52.645L274.8 53.1C274.669 52.694 274.452 52.379 274.149 52.155C273.845 51.9263 273.5 51.812 273.113 51.812C272.674 51.812 272.312 51.917 272.028 52.127C271.743 52.3323 271.533 52.617 271.398 52.981C271.262 53.345 271.195 53.758 271.195 54.22C271.195 54.9387 271.356 55.5197 271.678 55.963C272 56.4063 272.478 56.628 273.113 56.628C273.561 56.628 273.913 56.5253 274.17 56.32C274.431 56.1147 274.627 55.8183 274.758 55.431L276.48 55.816C276.246 56.586 275.838 57.1787 275.255 57.594C274.671 58.0047 273.957 58.21 273.113 58.21ZM281.016 58.21C280.26 58.21 279.6 58.0397 279.035 57.699C278.471 57.3583 278.032 56.8893 277.719 56.292C277.411 55.69 277.257 54.9993 277.257 54.22C277.257 53.4267 277.416 52.7313 277.733 52.134C278.051 51.5367 278.492 51.07 279.056 50.734C279.621 50.398 280.274 50.23 281.016 50.23C281.777 50.23 282.44 50.4003 283.004 50.741C283.569 51.0817 284.008 51.553 284.32 52.155C284.633 52.7523 284.789 53.4407 284.789 54.22C284.789 55.004 284.631 55.697 284.313 56.299C284.001 56.8963 283.562 57.3653 282.997 57.706C282.433 58.042 281.772 58.21 281.016 58.21ZM281.016 56.628C281.688 56.628 282.188 56.404 282.514 55.956C282.841 55.508 283.004 54.9293 283.004 54.22C283.004 53.4873 282.839 52.904 282.507 52.47C282.176 52.0313 281.679 51.812 281.016 51.812C280.564 51.812 280.19 51.9147 279.896 52.12C279.607 52.3207 279.392 52.603 279.252 52.967C279.112 53.3263 279.042 53.744 279.042 54.22C279.042 54.9527 279.208 55.5383 279.539 55.977C279.875 56.411 280.368 56.628 281.016 56.628ZM289.363 58.21C288.667 58.21 288.061 58.035 287.543 57.685C287.025 57.335 286.623 56.859 286.339 56.257C286.054 55.655 285.912 54.976 285.912 54.22C285.912 53.4547 286.054 52.7733 286.339 52.176C286.628 51.574 287.036 51.1003 287.564 50.755C288.091 50.405 288.712 50.23 289.426 50.23C290.144 50.23 290.746 50.405 291.232 50.755C291.722 51.1003 292.093 51.574 292.345 52.176C292.597 52.778 292.723 53.4593 292.723 54.22C292.723 54.9713 292.597 55.6503 292.345 56.257C292.093 56.859 291.717 57.335 291.218 57.685C290.718 58.035 290.1 58.21 289.363 58.21ZM289.622 56.698C290.074 56.698 290.438 56.5953 290.714 56.39C290.994 56.18 291.197 55.8883 291.323 55.515C291.453 55.1417 291.519 54.71 291.519 54.22C291.519 53.7253 291.453 53.2937 291.323 52.925C291.197 52.5517 290.998 52.2623 290.728 52.057C290.457 51.847 290.107 51.742 289.678 51.742C289.225 51.742 288.852 51.854 288.558 52.078C288.264 52.2973 288.047 52.596 287.907 52.974C287.767 53.3473 287.697 53.7627 287.697 54.22C287.697 54.682 287.764 55.102 287.9 55.48C288.04 55.8533 288.252 56.1497 288.537 56.369C288.821 56.5883 289.183 56.698 289.622 56.698ZM291.519 58V52.694H291.309V47.92H293.01V58H291.519ZM298.409 58.21C297.644 58.21 296.972 58.0443 296.393 57.713C295.815 57.3817 295.362 56.922 295.035 56.334C294.713 55.746 294.552 55.0693 294.552 54.304C294.552 53.478 294.711 52.7617 295.028 52.155C295.346 51.5437 295.787 51.07 296.351 50.734C296.916 50.398 297.569 50.23 298.311 50.23C299.095 50.23 299.76 50.4143 300.306 50.783C300.857 51.147 301.265 51.6627 301.531 52.33C301.797 52.9973 301.898 53.7837 301.832 54.689H300.159V54.073C300.155 53.2517 300.01 52.652 299.725 52.274C299.441 51.896 298.993 51.707 298.381 51.707C297.691 51.707 297.177 51.9217 296.841 52.351C296.505 52.7757 296.337 53.3987 296.337 54.22C296.337 54.9853 296.505 55.578 296.841 55.998C297.177 56.418 297.667 56.628 298.311 56.628C298.727 56.628 299.084 56.537 299.382 56.355C299.686 56.1683 299.919 55.9 300.082 55.55L301.748 56.054C301.459 56.7353 301.011 57.265 300.404 57.643C299.802 58.021 299.137 58.21 298.409 58.21ZM295.805 54.689V53.415H301.006V54.689H295.805ZM309.83 58.21C309.092 58.21 308.474 58.035 307.975 57.685C307.475 57.335 307.1 56.859 306.848 56.257C306.596 55.6503 306.47 54.9713 306.47 54.22C306.47 53.4593 306.596 52.778 306.848 52.176C307.1 51.574 307.468 51.1003 307.954 50.755C308.444 50.405 309.048 50.23 309.767 50.23C310.481 50.23 311.099 50.405 311.622 50.755C312.149 51.1003 312.557 51.574 312.847 52.176C313.136 52.7733 313.281 53.4547 313.281 54.22C313.281 54.976 313.138 55.655 312.854 56.257C312.569 56.859 312.168 57.335 311.65 57.685C311.132 58.035 310.525 58.21 309.83 58.21ZM306.183 58V47.92H307.884V52.694H307.674V58H306.183ZM309.571 56.698C310.009 56.698 310.371 56.5883 310.656 56.369C310.94 56.1497 311.15 55.8533 311.286 55.48C311.426 55.102 311.496 54.682 311.496 54.22C311.496 53.7627 311.426 53.3473 311.286 52.974C311.146 52.596 310.929 52.2973 310.635 52.078C310.341 51.854 309.967 51.742 309.515 51.742C309.085 51.742 308.735 51.847 308.465 52.057C308.194 52.2623 307.993 52.5517 307.863 52.925C307.737 53.2937 307.674 53.7253 307.674 54.22C307.674 54.71 307.737 55.1417 307.863 55.515C307.993 55.8883 308.196 56.18 308.472 56.39C308.752 56.5953 309.118 56.698 309.571 56.698ZM314.964 58V47.71H316.651V58H314.964ZM322.087 58.21C321.331 58.21 320.67 58.0397 320.106 57.699C319.541 57.3583 319.102 56.8893 318.79 56.292C318.482 55.69 318.328 54.9993 318.328 54.22C318.328 53.4267 318.486 52.7313 318.804 52.134C319.121 51.5367 319.562 51.07 320.127 50.734C320.691 50.398 321.345 50.23 322.087 50.23C322.847 50.23 323.51 50.4003 324.075 50.741C324.639 51.0817 325.078 51.553 325.391 52.155C325.703 52.7523 325.86 53.4407 325.86 54.22C325.86 55.004 325.701 55.697 325.384 56.299C325.071 56.8963 324.632 57.3653 324.068 57.706C323.503 58.042 322.843 58.21 322.087 58.21ZM322.087 56.628C322.759 56.628 323.258 56.404 323.585 55.956C323.911 55.508 324.075 54.9293 324.075 54.22C324.075 53.4873 323.909 52.904 323.578 52.47C323.246 52.0313 322.749 51.812 322.087 51.812C321.634 51.812 321.261 51.9147 320.967 52.12C320.677 52.3207 320.463 52.603 320.323 52.967C320.183 53.3263 320.113 53.744 320.113 54.22C320.113 54.9527 320.278 55.5383 320.61 55.977C320.946 56.411 321.438 56.628 322.087 56.628ZM330.685 58.21C329.906 58.21 329.241 58.0373 328.69 57.692C328.139 57.342 327.717 56.866 327.423 56.264C327.134 55.662 326.987 54.9807 326.982 54.22C326.987 53.4453 327.138 52.7593 327.437 52.162C327.74 51.56 328.17 51.0887 328.725 50.748C329.28 50.4027 329.941 50.23 330.706 50.23C331.565 50.23 332.29 50.447 332.883 50.881C333.48 51.3103 333.87 51.8983 334.052 52.645L332.372 53.1C332.241 52.694 332.024 52.379 331.721 52.155C331.418 51.9263 331.072 51.812 330.685 51.812C330.246 51.812 329.885 51.917 329.6 52.127C329.315 52.3323 329.105 52.617 328.97 52.981C328.835 53.345 328.767 53.758 328.767 54.22C328.767 54.9387 328.928 55.5197 329.25 55.963C329.572 56.4063 330.05 56.628 330.685 56.628C331.133 56.628 331.485 56.5253 331.742 56.32C332.003 56.1147 332.199 55.8183 332.33 55.431L334.052 55.816C333.819 56.586 333.41 57.1787 332.827 57.594C332.244 58.0047 331.53 58.21 330.685 58.21ZM335.441 58L335.455 47.92H337.163V54.08L339.928 50.44H342.035L339.102 54.22L342.287 58H340.054L337.163 54.36V58H335.441ZM189.319 77.21C188.563 77.21 187.903 77.0397 187.338 76.699C186.773 76.3583 186.335 75.8893 186.022 75.292C185.714 74.69 185.56 73.9993 185.56 73.22C185.56 72.4267 185.719 71.7313 186.036 71.134C186.353 70.5367 186.794 70.07 187.359 69.734C187.924 69.398 188.577 69.23 189.319 69.23C190.08 69.23 190.742 69.4003 191.307 69.741C191.872 70.0817 192.31 70.553 192.623 71.155C192.936 71.7523 193.092 72.4407 193.092 73.22C193.092 74.004 192.933 74.697 192.616 75.299C192.303 75.8963 191.865 76.3653 191.3 76.706C190.735 77.042 190.075 77.21 189.319 77.21ZM189.319 75.628C189.991 75.628 190.49 75.404 190.817 74.956C191.144 74.508 191.307 73.9293 191.307 73.22C191.307 72.4873 191.141 71.904 190.81 71.47C190.479 71.0313 189.982 70.812 189.319 70.812C188.866 70.812 188.493 70.9147 188.199 71.12C187.91 71.3207 187.695 71.603 187.555 71.967C187.415 72.3263 187.345 72.744 187.345 73.22C187.345 73.9527 187.511 74.5383 187.842 74.977C188.178 75.411 188.67 75.628 189.319 75.628ZM199.863 77V73.36C199.863 73.122 199.847 72.8583 199.814 72.569C199.782 72.2797 199.705 72.002 199.583 71.736C199.467 71.4653 199.289 71.2437 199.051 71.071C198.818 70.8983 198.501 70.812 198.099 70.812C197.885 70.812 197.672 70.847 197.462 70.917C197.252 70.987 197.061 71.1083 196.888 71.281C196.72 71.449 196.585 71.6823 196.482 71.981C196.38 72.275 196.328 72.653 196.328 73.115L195.327 72.688C195.327 72.044 195.451 71.4607 195.698 70.938C195.95 70.4153 196.319 70 196.804 69.692C197.29 69.3793 197.887 69.223 198.596 69.223C199.156 69.223 199.618 69.3163 199.982 69.503C200.346 69.6897 200.636 69.9277 200.85 70.217C201.065 70.5063 201.224 70.8143 201.326 71.141C201.429 71.4677 201.494 71.778 201.522 72.072C201.555 72.3613 201.571 72.597 201.571 72.779V77H199.863ZM194.62 77V69.44H196.125V71.785H196.328V77H194.62ZM206.558 77.21C205.779 77.21 205.114 77.0373 204.563 76.692C204.012 76.342 203.59 75.866 203.296 75.264C203.007 74.662 202.86 73.9807 202.855 73.22C202.86 72.4453 203.011 71.7593 203.31 71.162C203.613 70.56 204.043 70.0887 204.598 69.748C205.153 69.4027 205.814 69.23 206.579 69.23C207.438 69.23 208.163 69.447 208.756 69.881C209.353 70.3103 209.743 70.8983 209.925 71.645L208.245 72.1C208.114 71.694 207.897 71.379 207.594 71.155C207.291 70.9263 206.945 70.812 206.558 70.812C206.119 70.812 205.758 70.917 205.473 71.127C205.188 71.3323 204.978 71.617 204.843 71.981C204.708 72.345 204.64 72.758 204.64 73.22C204.64 73.9387 204.801 74.5197 205.123 74.963C205.445 75.4063 205.923 75.628 206.558 75.628C207.006 75.628 207.358 75.5253 207.615 75.32C207.876 75.1147 208.072 74.8183 208.203 74.431L209.925 74.816C209.692 75.586 209.283 76.1787 208.7 76.594C208.117 77.0047 207.403 77.21 206.558 77.21ZM214.56 77.21C213.794 77.21 213.122 77.0443 212.544 76.713C211.965 76.3817 211.512 75.922 211.186 75.334C210.864 74.746 210.703 74.0693 210.703 73.304C210.703 72.478 210.861 71.7617 211.179 71.155C211.496 70.5437 211.937 70.07 212.502 69.734C213.066 69.398 213.72 69.23 214.462 69.23C215.246 69.23 215.911 69.4143 216.457 69.783C217.007 70.147 217.416 70.6627 217.682 71.33C217.948 71.9973 218.048 72.7837 217.983 73.689H216.31V73.073C216.305 72.2517 216.16 71.652 215.876 71.274C215.591 70.896 215.143 70.707 214.532 70.707C213.841 70.707 213.328 70.9217 212.992 71.351C212.656 71.7757 212.488 72.3987 212.488 73.22C212.488 73.9853 212.656 74.578 212.992 74.998C213.328 75.418 213.818 75.628 214.462 75.628C214.877 75.628 215.234 75.537 215.533 75.355C215.836 75.1683 216.069 74.9 216.233 74.55L217.899 75.054C217.609 75.7353 217.161 76.265 216.555 76.643C215.953 77.021 215.288 77.21 214.56 77.21ZM211.956 73.689V72.415H217.157V73.689H211.956ZM225.98 77.21C225.243 77.21 224.625 77.035 224.125 76.685C223.626 76.335 223.25 75.859 222.998 75.257C222.746 74.6503 222.62 73.9713 222.62 73.22C222.62 72.4593 222.746 71.778 222.998 71.176C223.25 70.574 223.619 70.1003 224.104 69.755C224.594 69.405 225.199 69.23 225.917 69.23C226.631 69.23 227.25 69.405 227.772 69.755C228.3 70.1003 228.708 70.574 228.997 71.176C229.287 71.7733 229.431 72.4547 229.431 73.22C229.431 73.976 229.289 74.655 229.004 75.257C228.72 75.859 228.318 76.335 227.8 76.685C227.282 77.035 226.676 77.21 225.98 77.21ZM222.333 77V66.92H224.034V71.694H223.824V77H222.333ZM225.721 75.698C226.16 75.698 226.522 75.5883 226.806 75.369C227.091 75.1497 227.301 74.8533 227.436 74.48C227.576 74.102 227.646 73.682 227.646 73.22C227.646 72.7627 227.576 72.3473 227.436 71.974C227.296 71.596 227.079 71.2973 226.785 71.078C226.491 70.854 226.118 70.742 225.665 70.742C225.236 70.742 224.886 70.847 224.615 71.057C224.345 71.2623 224.144 71.5517 224.013 71.925C223.887 72.2937 223.824 72.7253 223.824 73.22C223.824 73.71 223.887 74.1417 224.013 74.515C224.144 74.8883 224.347 75.18 224.622 75.39C224.902 75.5953 225.269 75.698 225.721 75.698ZM234.411 77.21C233.646 77.21 232.974 77.0443 232.395 76.713C231.816 76.3817 231.364 75.922 231.037 75.334C230.715 74.746 230.554 74.0693 230.554 73.304C230.554 72.478 230.713 71.7617 231.03 71.155C231.347 70.5437 231.788 70.07 232.353 69.734C232.918 69.398 233.571 69.23 234.313 69.23C235.097 69.23 235.762 69.4143 236.308 69.783C236.859 70.147 237.267 70.6627 237.533 71.33C237.799 71.9973 237.899 72.7837 237.834 73.689H236.161V73.073C236.156 72.2517 236.012 71.652 235.727 71.274C235.442 70.896 234.994 70.707 234.383 70.707C233.692 70.707 233.179 70.9217 232.843 71.351C232.507 71.7757 232.339 72.3987 232.339 73.22C232.339 73.9853 232.507 74.578 232.843 74.998C233.179 75.418 233.669 75.628 234.313 75.628C234.728 75.628 235.085 75.537 235.384 75.355C235.687 75.1683 235.921 74.9 236.084 74.55L237.75 75.054C237.461 75.7353 237.013 76.265 236.406 76.643C235.804 77.021 235.139 77.21 234.411 77.21ZM231.807 73.689V72.415H237.008V73.689H231.807ZM240.054 77V69.321C240.054 69.1297 240.061 68.9197 240.075 68.691C240.089 68.4577 240.129 68.2267 240.194 67.998C240.259 67.7693 240.378 67.5617 240.551 67.375C240.766 67.137 240.997 66.9737 241.244 66.885C241.496 66.7917 241.743 66.7403 241.986 66.731C242.229 66.717 242.441 66.71 242.623 66.71H243.568V68.082H242.693C242.371 68.082 242.131 68.1637 241.972 68.327C241.818 68.4857 241.741 68.6957 241.741 68.957V77H240.054ZM238.836 70.763V69.44H243.568V70.763H238.836ZM247.753 77.21C246.997 77.21 246.336 77.0397 245.772 76.699C245.207 76.3583 244.768 75.8893 244.456 75.292C244.148 74.69 243.994 73.9993 243.994 73.22C243.994 72.4267 244.152 71.7313 244.47 71.134C244.787 70.5367 245.228 70.07 245.793 69.734C246.357 69.398 247.011 69.23 247.753 69.23C248.513 69.23 249.176 69.4003 249.741 69.741C250.305 70.0817 250.744 70.553 251.057 71.155C251.369 71.7523 251.526 72.4407 251.526 73.22C251.526 74.004 251.367 74.697 251.05 75.299C250.737 75.8963 250.298 76.3653 249.734 76.706C249.169 77.042 248.509 77.21 247.753 77.21ZM247.753 75.628C248.425 75.628 248.924 75.404 249.251 74.956C249.577 74.508 249.741 73.9293 249.741 73.22C249.741 72.4873 249.575 71.904 249.244 71.47C248.912 71.0313 248.415 70.812 247.753 70.812C247.3 70.812 246.927 70.9147 246.633 71.12C246.343 71.3207 246.129 71.603 245.989 71.967C245.849 72.3263 245.779 72.744 245.779 73.22C245.779 73.9527 245.944 74.5383 246.276 74.977C246.612 75.411 247.104 75.628 247.753 75.628ZM253.068 77V69.44H254.559V71.281L254.377 71.043C254.47 70.791 254.594 70.5623 254.748 70.357C254.907 70.147 255.096 69.9743 255.315 69.839C255.502 69.713 255.707 69.615 255.931 69.545C256.16 69.4703 256.393 69.426 256.631 69.412C256.869 69.3933 257.1 69.4027 257.324 69.44V71.015C257.1 70.9497 256.841 70.9287 256.547 70.952C256.258 70.9753 255.996 71.057 255.763 71.197C255.53 71.323 255.338 71.484 255.189 71.68C255.044 71.876 254.937 72.1 254.867 72.352C254.797 72.5993 254.762 72.8677 254.762 73.157V77H253.068ZM261.96 77.21C261.195 77.21 260.523 77.0443 259.944 76.713C259.365 76.3817 258.913 75.922 258.586 75.334C258.264 74.746 258.103 74.0693 258.103 73.304C258.103 72.478 258.262 71.7617 258.579 71.155C258.896 70.5437 259.337 70.07 259.902 69.734C260.467 69.398 261.12 69.23 261.862 69.23C262.646 69.23 263.311 69.4143 263.857 69.783C264.408 70.147 264.816 70.6627 265.082 71.33C265.348 71.9973 265.448 72.7837 265.383 73.689H263.71V73.073C263.705 72.2517 263.561 71.652 263.276 71.274C262.991 70.896 262.543 70.707 261.932 70.707C261.241 70.707 260.728 70.9217 260.392 71.351C260.056 71.7757 259.888 72.3987 259.888 73.22C259.888 73.9853 260.056 74.578 260.392 74.998C260.728 75.418 261.218 75.628 261.862 75.628C262.277 75.628 262.634 75.537 262.933 75.355C263.236 75.1683 263.47 74.9 263.633 74.55L265.299 75.054C265.01 75.7353 264.562 76.265 263.955 76.643C263.353 77.021 262.688 77.21 261.96 77.21ZM259.356 73.689V72.415H264.557V73.689H259.356ZM273.031 77.21C272.251 77.21 271.586 77.0373 271.036 76.692C270.485 76.342 270.063 75.866 269.769 75.264C269.479 74.662 269.332 73.9807 269.328 73.22C269.332 72.4453 269.484 71.7593 269.783 71.162C270.086 70.56 270.515 70.0887 271.071 69.748C271.626 69.4027 272.286 69.23 273.052 69.23C273.91 69.23 274.636 69.447 275.229 69.881C275.826 70.3103 276.216 70.8983 276.398 71.645L274.718 72.1C274.587 71.694 274.37 71.379 274.067 71.155C273.763 70.9263 273.418 70.812 273.031 70.812C272.592 70.812 272.23 70.917 271.946 71.127C271.661 71.3323 271.451 71.617 271.316 71.981C271.18 72.345 271.113 72.758 271.113 73.22C271.113 73.9387 271.274 74.5197 271.596 74.963C271.918 75.4063 272.396 75.628 273.031 75.628C273.479 75.628 273.831 75.5253 274.088 75.32C274.349 75.1147 274.545 74.8183 274.676 74.431L276.398 74.816C276.164 75.586 275.756 76.1787 275.173 76.594C274.589 77.0047 273.875 77.21 273.031 77.21ZM283.029 77V73.36C283.029 73.122 283.013 72.8583 282.98 72.569C282.948 72.2797 282.871 72.002 282.749 71.736C282.633 71.4653 282.455 71.2437 282.217 71.071C281.984 70.8983 281.667 70.812 281.265 70.812C281.051 70.812 280.838 70.847 280.628 70.917C280.418 70.987 280.227 71.1083 280.054 71.281C279.886 71.449 279.751 71.6823 279.648 71.981C279.546 72.275 279.494 72.653 279.494 73.115L278.493 72.688C278.493 72.044 278.617 71.4607 278.864 70.938C279.116 70.4153 279.485 70 279.97 69.692C280.456 69.3793 281.053 69.223 281.762 69.223C282.322 69.223 282.784 69.3163 283.148 69.503C283.512 69.6897 283.802 69.9277 284.016 70.217C284.231 70.5063 284.39 70.8143 284.492 71.141C284.595 71.4677 284.66 71.778 284.688 72.072C284.721 72.3613 284.737 72.597 284.737 72.779V77H283.029ZM277.786 77V66.92H279.291V72.226H279.494V77H277.786ZM290.001 77.21C289.236 77.21 288.564 77.0443 287.985 76.713C287.406 76.3817 286.954 75.922 286.627 75.334C286.305 74.746 286.144 74.0693 286.144 73.304C286.144 72.478 286.303 71.7617 286.62 71.155C286.937 70.5437 287.378 70.07 287.943 69.734C288.508 69.398 289.161 69.23 289.903 69.23C290.687 69.23 291.352 69.4143 291.898 69.783C292.449 70.147 292.857 70.6627 293.123 71.33C293.389 71.9973 293.489 72.7837 293.424 73.689H291.751V73.073C291.746 72.2517 291.602 71.652 291.317 71.274C291.032 70.896 290.584 70.707 289.973 70.707C289.282 70.707 288.769 70.9217 288.433 71.351C288.097 71.7757 287.929 72.3987 287.929 73.22C287.929 73.9853 288.097 74.578 288.433 74.998C288.769 75.418 289.259 75.628 289.903 75.628C290.318 75.628 290.675 75.537 290.974 75.355C291.277 75.1683 291.511 74.9 291.674 74.55L293.34 75.054C293.051 75.7353 292.603 76.265 291.996 76.643C291.394 77.021 290.729 77.21 290.001 77.21ZM287.397 73.689V72.415H292.598V73.689H287.397ZM298.269 77.21C297.49 77.21 296.825 77.0373 296.274 76.692C295.723 76.342 295.301 75.866 295.007 75.264C294.718 74.662 294.571 73.9807 294.566 73.22C294.571 72.4453 294.722 71.7593 295.021 71.162C295.324 70.56 295.754 70.0887 296.309 69.748C296.864 69.4027 297.525 69.23 298.29 69.23C299.149 69.23 299.874 69.447 300.467 69.881C301.064 70.3103 301.454 70.8983 301.636 71.645L299.956 72.1C299.825 71.694 299.608 71.379 299.305 71.155C299.002 70.9263 298.656 70.812 298.269 70.812C297.83 70.812 297.469 70.917 297.184 71.127C296.899 71.3323 296.689 71.617 296.554 71.981C296.419 72.345 296.351 72.758 296.351 73.22C296.351 73.9387 296.512 74.5197 296.834 74.963C297.156 75.4063 297.634 75.628 298.269 75.628C298.717 75.628 299.069 75.5253 299.326 75.32C299.587 75.1147 299.783 74.8183 299.914 74.431L301.636 74.816C301.403 75.586 300.994 76.1787 300.411 76.594C299.828 77.0047 299.114 77.21 298.269 77.21ZM303.025 77L303.039 66.92H304.747V73.08L307.512 69.44H309.619L306.686 73.22L309.871 77H307.638L304.747 73.36V77H303.025ZM310.712 68.292V66.745H312.399V68.292H310.712ZM310.712 77V69.44H312.399V77H310.712ZM319.725 77V73.36C319.725 73.122 319.708 72.8583 319.676 72.569C319.643 72.2797 319.566 72.002 319.445 71.736C319.328 71.4653 319.151 71.2437 318.913 71.071C318.679 70.8983 318.362 70.812 317.961 70.812C317.746 70.812 317.534 70.847 317.324 70.917C317.114 70.987 316.922 71.1083 316.75 71.281C316.582 71.449 316.446 71.6823 316.344 71.981C316.241 72.275 316.19 72.653 316.19 73.115L315.189 72.688C315.189 72.044 315.312 71.4607 315.56 70.938C315.812 70.4153 316.18 70 316.666 69.692C317.151 69.3793 317.748 69.223 318.458 69.223C319.018 69.223 319.48 69.3163 319.844 69.503C320.208 69.6897 320.497 69.9277 320.712 70.217C320.926 70.5063 321.085 70.8143 321.188 71.141C321.29 71.4677 321.356 71.778 321.384 72.072C321.416 72.3613 321.433 72.597 321.433 72.779V77H319.725ZM314.482 77V69.44H315.987V71.785H316.19V77H314.482ZM326.437 80.57C326.017 80.57 325.614 80.5047 325.226 80.374C324.844 80.2433 324.498 80.0543 324.19 79.807C323.882 79.5643 323.63 79.2703 323.434 78.925L324.988 78.155C325.133 78.4303 325.336 78.6333 325.597 78.764C325.863 78.8993 326.146 78.967 326.444 78.967C326.794 78.967 327.107 78.904 327.382 78.778C327.658 78.6567 327.87 78.4747 328.019 78.232C328.173 77.994 328.246 77.6953 328.236 77.336V75.187H328.446V69.44H329.923V77.364C329.923 77.5553 329.914 77.7373 329.895 77.91C329.881 78.0873 329.856 78.26 329.818 78.428C329.706 78.918 329.492 79.3193 329.174 79.632C328.857 79.9493 328.463 80.185 327.991 80.339C327.525 80.493 327.007 80.57 326.437 80.57ZM326.29 77.21C325.595 77.21 324.988 77.035 324.47 76.685C323.952 76.335 323.551 75.859 323.266 75.257C322.982 74.655 322.839 73.976 322.839 73.22C322.839 72.4547 322.982 71.7733 323.266 71.176C323.556 70.574 323.964 70.1003 324.491 69.755C325.019 69.405 325.639 69.23 326.353 69.23C327.072 69.23 327.674 69.405 328.159 69.755C328.649 70.1003 329.02 70.574 329.272 71.176C329.524 71.778 329.65 72.4593 329.65 73.22C329.65 73.9713 329.524 74.6503 329.272 75.257C329.02 75.859 328.645 76.335 328.145 76.685C327.646 77.035 327.028 77.21 326.29 77.21ZM326.549 75.698C327.002 75.698 327.366 75.5953 327.641 75.39C327.921 75.18 328.124 74.8883 328.25 74.515C328.381 74.1417 328.446 73.71 328.446 73.22C328.446 72.7253 328.381 72.2937 328.25 71.925C328.124 71.5517 327.926 71.2623 327.655 71.057C327.385 70.847 327.035 70.742 326.605 70.742C326.153 70.742 325.779 70.854 325.485 71.078C325.191 71.2973 324.974 71.596 324.834 71.974C324.694 72.3473 324.624 72.7627 324.624 73.22C324.624 73.682 324.692 74.102 324.827 74.48C324.967 74.8533 325.18 75.1497 325.464 75.369C325.749 75.5883 326.111 75.698 326.549 75.698ZM190.411 96C189.912 96.0933 189.422 96.133 188.941 96.119C188.465 96.1097 188.038 96.0233 187.66 95.86C187.282 95.692 186.995 95.4283 186.799 95.069C186.626 94.7423 186.535 94.4087 186.526 94.068C186.517 93.7273 186.512 93.3423 186.512 92.913V86.34H188.192V92.815C188.192 93.1183 188.194 93.3843 188.199 93.613C188.208 93.8417 188.257 94.0283 188.346 94.173C188.514 94.453 188.782 94.6093 189.151 94.642C189.52 94.6747 189.94 94.656 190.411 94.586V96ZM185.14 89.763V88.44H190.411V89.763H185.14ZM197.266 96V92.36C197.266 92.122 197.249 91.8583 197.217 91.569C197.184 91.2797 197.107 91.002 196.986 90.736C196.869 90.4653 196.692 90.2437 196.454 90.071C196.22 89.8983 195.903 89.812 195.502 89.812C195.287 89.812 195.075 89.847 194.865 89.917C194.655 89.987 194.463 90.1083 194.291 90.281C194.123 90.449 193.987 90.6823 193.885 90.981C193.782 91.275 193.731 91.653 193.731 92.115L192.73 91.688C192.73 91.044 192.853 90.4607 193.101 89.938C193.353 89.4153 193.721 89 194.207 88.692C194.692 88.3793 195.289 88.223 195.999 88.223C196.559 88.223 197.021 88.3163 197.385 88.503C197.749 88.6897 198.038 88.9277 198.253 89.217C198.467 89.5063 198.626 89.8143 198.729 90.141C198.831 90.4677 198.897 90.778 198.925 91.072C198.957 91.3613 198.974 91.597 198.974 91.779V96H197.266ZM192.023 96V85.92H193.528V91.226H193.731V96H192.023ZM204.237 96.21C203.472 96.21 202.8 96.0443 202.221 95.713C201.643 95.3817 201.19 94.922 200.863 94.334C200.541 93.746 200.38 93.0693 200.38 92.304C200.38 91.478 200.539 90.7617 200.856 90.155C201.174 89.5437 201.615 89.07 202.179 88.734C202.744 88.398 203.397 88.23 204.139 88.23C204.923 88.23 205.588 88.4143 206.134 88.783C206.685 89.147 207.093 89.6627 207.359 90.33C207.625 90.9973 207.726 91.7837 207.66 92.689H205.987V92.073C205.983 91.2517 205.838 90.652 205.553 90.274C205.269 89.896 204.821 89.707 204.209 89.707C203.519 89.707 203.005 89.9217 202.669 90.351C202.333 90.7757 202.165 91.3987 202.165 92.22C202.165 92.9853 202.333 93.578 202.669 93.998C203.005 94.418 203.495 94.628 204.139 94.628C204.555 94.628 204.912 94.537 205.21 94.355C205.514 94.1683 205.747 93.9 205.91 93.55L207.576 94.054C207.287 94.7353 206.839 95.265 206.232 95.643C205.63 96.021 204.965 96.21 204.237 96.21ZM201.633 92.689V91.415H206.834V92.689H201.633ZM215.308 96.21C214.529 96.21 213.864 96.0373 213.313 95.692C212.762 95.342 212.34 94.866 212.046 94.264C211.757 93.662 211.61 92.9807 211.605 92.22C211.61 91.4453 211.761 90.7593 212.06 90.162C212.363 89.56 212.793 89.0887 213.348 88.748C213.903 88.4027 214.564 88.23 215.329 88.23C216.188 88.23 216.913 88.447 217.506 88.881C218.103 89.3103 218.493 89.8983 218.675 90.645L216.995 91.1C216.864 90.694 216.647 90.379 216.344 90.155C216.041 89.9263 215.695 89.812 215.308 89.812C214.869 89.812 214.508 89.917 214.223 90.127C213.938 90.3323 213.728 90.617 213.593 90.981C213.458 91.345 213.39 91.758 213.39 92.22C213.39 92.9387 213.551 93.5197 213.873 93.963C214.195 94.4063 214.673 94.628 215.308 94.628C215.756 94.628 216.108 94.5253 216.365 94.32C216.626 94.1147 216.822 93.8183 216.953 93.431L218.675 93.816C218.442 94.586 218.033 95.1787 217.45 95.594C216.867 96.0047 216.153 96.21 215.308 96.21ZM223.212 96.21C222.456 96.21 221.795 96.0397 221.231 95.699C220.666 95.3583 220.227 94.8893 219.915 94.292C219.607 93.69 219.453 92.9993 219.453 92.22C219.453 91.4267 219.611 90.7313 219.929 90.134C220.246 89.5367 220.687 89.07 221.252 88.734C221.816 88.398 222.47 88.23 223.212 88.23C223.972 88.23 224.635 88.4003 225.2 88.741C225.764 89.0817 226.203 89.553 226.516 90.155C226.828 90.7523 226.985 91.4407 226.985 92.22C226.985 93.004 226.826 93.697 226.509 94.299C226.196 94.8963 225.757 95.3653 225.193 95.706C224.628 96.042 223.968 96.21 223.212 96.21ZM223.212 94.628C223.884 94.628 224.383 94.404 224.71 93.956C225.036 93.508 225.2 92.9293 225.2 92.22C225.2 91.4873 225.034 90.904 224.703 90.47C224.371 90.0313 223.874 89.812 223.212 89.812C222.759 89.812 222.386 89.9147 222.092 90.12C221.802 90.3207 221.588 90.603 221.448 90.967C221.308 91.3263 221.238 91.744 221.238 92.22C221.238 92.9527 221.403 93.5383 221.735 93.977C222.071 94.411 222.563 94.628 223.212 94.628ZM233.756 96V92.36C233.756 92.122 233.74 91.8583 233.707 91.569C233.674 91.2797 233.597 91.002 233.476 90.736C233.359 90.4653 233.182 90.2437 232.944 90.071C232.711 89.8983 232.393 89.812 231.992 89.812C231.777 89.812 231.565 89.847 231.355 89.917C231.145 89.987 230.954 90.1083 230.781 90.281C230.613 90.449 230.478 90.6823 230.375 90.981C230.272 91.275 230.221 91.653 230.221 92.115L229.22 91.688C229.22 91.044 229.344 90.4607 229.591 89.938C229.843 89.4153 230.212 89 230.697 88.692C231.182 88.3793 231.78 88.223 232.489 88.223C233.049 88.223 233.511 88.3163 233.875 88.503C234.239 88.6897 234.528 88.9277 234.743 89.217C234.958 89.5063 235.116 89.8143 235.219 90.141C235.322 90.4677 235.387 90.778 235.415 91.072C235.448 91.3613 235.464 91.597 235.464 91.779V96H233.756ZM228.513 96V88.44H230.018V90.785H230.221V96H228.513ZM240.199 96.21C239.503 96.21 238.897 96.035 238.379 95.685C237.861 95.335 237.459 94.859 237.175 94.257C236.89 93.655 236.748 92.976 236.748 92.22C236.748 91.4547 236.89 90.7733 237.175 90.176C237.464 89.574 237.872 89.1003 238.4 88.755C238.927 88.405 239.548 88.23 240.262 88.23C240.98 88.23 241.582 88.405 242.068 88.755C242.558 89.1003 242.929 89.574 243.181 90.176C243.433 90.778 243.559 91.4593 243.559 92.22C243.559 92.9713 243.433 93.6503 243.181 94.257C242.929 94.859 242.553 95.335 242.054 95.685C241.554 96.035 240.936 96.21 240.199 96.21ZM240.458 94.698C240.91 94.698 241.274 94.5953 241.55 94.39C241.83 94.18 242.033 93.8883 242.159 93.515C242.289 93.1417 242.355 92.71 242.355 92.22C242.355 91.7253 242.289 91.2937 242.159 90.925C242.033 90.5517 241.834 90.2623 241.564 90.057C241.293 89.847 240.943 89.742 240.514 89.742C240.061 89.742 239.688 89.854 239.394 90.078C239.1 90.2973 238.883 90.596 238.743 90.974C238.603 91.3473 238.533 91.7627 238.533 92.22C238.533 92.682 238.6 93.102 238.736 93.48C238.876 93.8533 239.088 94.1497 239.373 94.369C239.657 94.5883 240.019 94.698 240.458 94.698ZM242.355 96V90.694H242.145V85.92H243.846V96H242.355ZM245.948 87.292V85.745H247.635V87.292H245.948ZM245.948 96V88.44H247.635V96H245.948ZM254.163 96C253.664 96.0933 253.174 96.133 252.693 96.119C252.217 96.1097 251.79 96.0233 251.412 95.86C251.034 95.692 250.747 95.4283 250.551 95.069C250.378 94.7423 250.287 94.4087 250.278 94.068C250.269 93.7273 250.264 93.3423 250.264 92.913V86.34H251.944V92.815C251.944 93.1183 251.946 93.3843 251.951 93.613C251.96 93.8417 252.009 94.0283 252.098 94.173C252.266 94.453 252.534 94.6093 252.903 94.642C253.272 94.6747 253.692 94.656 254.163 94.586V96ZM248.892 89.763V88.44H254.163V89.763H248.892ZM255.929 87.292V85.745H257.616V87.292H255.929ZM255.929 96V88.44H257.616V96H255.929ZM263.051 96.21C262.295 96.21 261.635 96.0397 261.07 95.699C260.506 95.3583 260.067 94.8893 259.754 94.292C259.446 93.69 259.292 92.9993 259.292 92.22C259.292 91.4267 259.451 90.7313 259.768 90.134C260.086 89.5367 260.527 89.07 261.091 88.734C261.656 88.398 262.309 88.23 263.051 88.23C263.812 88.23 264.475 88.4003 265.039 88.741C265.604 89.0817 266.043 89.553 266.355 90.155C266.668 90.7523 266.824 91.4407 266.824 92.22C266.824 93.004 266.666 93.697 266.348 94.299C266.036 94.8963 265.597 95.3653 265.032 95.706C264.468 96.042 263.807 96.21 263.051 96.21ZM263.051 94.628C263.723 94.628 264.223 94.404 264.549 93.956C264.876 93.508 265.039 92.9293 265.039 92.22C265.039 91.4873 264.874 90.904 264.542 90.47C264.211 90.0313 263.714 89.812 263.051 89.812C262.599 89.812 262.225 89.9147 261.931 90.12C261.642 90.3207 261.427 90.603 261.287 90.967C261.147 91.3263 261.077 91.744 261.077 92.22C261.077 92.9527 261.243 93.5383 261.574 93.977C261.91 94.411 262.403 94.628 263.051 94.628ZM273.596 96V92.36C273.596 92.122 273.579 91.8583 273.547 91.569C273.514 91.2797 273.437 91.002 273.316 90.736C273.199 90.4653 273.022 90.2437 272.784 90.071C272.55 89.8983 272.233 89.812 271.832 89.812C271.617 89.812 271.405 89.847 271.195 89.917C270.985 89.987 270.793 90.1083 270.621 90.281C270.453 90.449 270.317 90.6823 270.215 90.981C270.112 91.275 270.061 91.653 270.061 92.115L269.06 91.688C269.06 91.044 269.183 90.4607 269.431 89.938C269.683 89.4153 270.051 89 270.537 88.692C271.022 88.3793 271.619 88.223 272.329 88.223C272.889 88.223 273.351 88.3163 273.715 88.503C274.079 88.6897 274.368 88.9277 274.583 89.217C274.797 89.5063 274.956 89.8143 275.059 90.141C275.161 90.4677 275.227 90.778 275.255 91.072C275.287 91.3613 275.304 91.597 275.304 91.779V96H273.596ZM268.353 96V88.44H269.858V90.785H270.061V96H268.353ZM277.41 96V94.271H279.139V96H277.41Z" fill="#787DF7"/>
<path d="M82.5 66C81.9477 66 81.5 66.4477 81.5 67C81.5 67.5523 81.9477 68 82.5 68V66ZM173.207 67.7071C173.598 67.3166 173.598 66.6834 173.207 66.2929L166.843 59.9289C166.453 59.5384 165.819 59.5384 165.429 59.9289C165.038 60.3195 165.038 60.9526 165.429 61.3431L171.086 67L165.429 72.6569C165.038 73.0474 165.038 73.6805 165.429 74.0711C165.819 74.4616 166.453 74.4616 166.843 74.0711L173.207 67.7071ZM82.5 68H172.5V66H82.5V68Z" fill="#787DF7"/>
<rect x="39" y="172" width="275" height="79" rx="7" fill="#282525" stroke="#777777" stroke-width="2"/>
<path d="M63.306 203.21C62.298 203.21 61.4277 202.991 60.695 202.552C59.967 202.113 59.4047 201.5 59.008 200.711C58.616 199.922 58.42 199.005 58.42 197.96C58.42 196.915 58.616 195.998 59.008 195.209C59.4047 194.42 59.967 193.807 60.695 193.368C61.4277 192.929 62.298 192.71 63.306 192.71C64.4633 192.71 65.434 192.997 66.218 193.571C67.0067 194.145 67.562 194.922 67.884 195.902L65.966 196.434C65.7793 195.823 65.4643 195.349 65.021 195.013C64.5777 194.672 64.006 194.502 63.306 194.502C62.6667 194.502 62.1323 194.644 61.703 194.929C61.2783 195.214 60.9587 195.615 60.744 196.133C60.5293 196.651 60.422 197.26 60.422 197.96C60.422 198.66 60.5293 199.269 60.744 199.787C60.9587 200.305 61.2783 200.706 61.703 200.991C62.1323 201.276 62.6667 201.418 63.306 201.418C64.006 201.418 64.5777 201.248 65.021 200.907C65.4643 200.566 65.7793 200.093 65.966 199.486L67.884 200.018C67.562 200.998 67.0067 201.775 66.218 202.349C65.434 202.923 64.4633 203.21 63.306 203.21ZM72.8273 203.21C72.0666 203.21 71.3993 203.04 70.8253 202.699C70.2513 202.358 69.8033 201.889 69.4813 201.292C69.164 200.69 69.0053 199.999 69.0053 199.22C69.0053 198.431 69.1686 197.738 69.4953 197.141C69.822 196.539 70.2723 196.07 70.8463 195.734C71.4203 195.398 72.0806 195.23 72.8273 195.23C73.588 195.23 74.2553 195.4 74.8293 195.741C75.408 196.082 75.8583 196.553 76.1803 197.155C76.5023 197.752 76.6633 198.441 76.6633 199.22C76.6633 200.004 76.5 200.697 76.1733 201.299C75.8513 201.896 75.401 202.365 74.8223 202.706C74.2483 203.042 73.5833 203.21 72.8273 203.21ZM72.8273 201.432C73.4386 201.432 73.8936 201.227 74.1923 200.816C74.4956 200.401 74.6473 199.869 74.6473 199.22C74.6473 198.548 74.4933 198.011 74.1853 197.61C73.882 197.209 73.4293 197.008 72.8273 197.008C72.412 197.008 72.0713 197.101 71.8053 197.288C71.5393 197.475 71.341 197.734 71.2103 198.065C71.0843 198.396 71.0213 198.781 71.0213 199.22C71.0213 199.897 71.173 200.436 71.4763 200.837C71.7843 201.234 72.2346 201.432 72.8273 201.432ZM83.3547 203V199.43C83.3547 199.257 83.3453 199.038 83.3267 198.772C83.308 198.501 83.2497 198.231 83.1517 197.96C83.0537 197.689 82.8927 197.463 82.6687 197.281C82.4493 197.099 82.1367 197.008 81.7307 197.008C81.5673 197.008 81.3923 197.034 81.2057 197.085C81.019 197.136 80.844 197.237 80.6807 197.386C80.5173 197.531 80.382 197.745 80.2747 198.03C80.172 198.315 80.1207 198.693 80.1207 199.164L79.0287 198.646C79.0287 198.049 79.15 197.489 79.3927 196.966C79.6353 196.443 79.9993 196.021 80.4847 195.699C80.9747 195.377 81.5907 195.216 82.3327 195.216C82.9253 195.216 83.4083 195.316 83.7817 195.517C84.155 195.718 84.4443 195.972 84.6497 196.28C84.8597 196.588 85.009 196.91 85.0977 197.246C85.1863 197.577 85.24 197.881 85.2587 198.156C85.2773 198.431 85.2867 198.632 85.2867 198.758V203H83.3547ZM78.1887 203V195.44H79.8827V197.946H80.1207V203H78.1887ZM90.057 203.21C89.105 203.21 88.335 202.995 87.747 202.566C87.1637 202.132 86.809 201.521 86.683 200.732L88.629 200.438C88.7084 200.793 88.8834 201.07 89.154 201.271C89.4294 201.472 89.777 201.572 90.197 201.572C90.5424 201.572 90.8084 201.507 90.995 201.376C91.1817 201.241 91.275 201.054 91.275 200.816C91.275 200.667 91.2377 200.548 91.163 200.459C91.0884 200.366 90.9204 200.275 90.659 200.186C90.4024 200.097 90.001 199.981 89.455 199.836C88.839 199.677 88.3467 199.5 87.978 199.304C87.6094 199.108 87.3434 198.875 87.18 198.604C87.0167 198.329 86.935 197.997 86.935 197.61C86.935 197.125 87.0587 196.705 87.306 196.35C87.5534 195.991 87.901 195.715 88.349 195.524C88.8017 195.328 89.3337 195.23 89.945 195.23C90.5377 195.23 91.0627 195.321 91.52 195.503C91.9774 195.685 92.346 195.944 92.626 196.28C92.9107 196.616 93.0857 197.013 93.151 197.47L91.205 197.82C91.1724 197.54 91.051 197.318 90.841 197.155C90.631 196.992 90.3464 196.896 89.987 196.868C89.637 196.845 89.3547 196.891 89.14 197.008C88.93 197.125 88.825 197.293 88.825 197.512C88.825 197.643 88.8694 197.752 88.958 197.841C89.0514 197.93 89.2404 198.021 89.525 198.114C89.8144 198.207 90.253 198.329 90.841 198.478C91.415 198.627 91.8747 198.802 92.22 199.003C92.57 199.199 92.8244 199.437 92.983 199.717C93.1417 199.992 93.221 200.326 93.221 200.718C93.221 201.493 92.941 202.102 92.381 202.545C91.821 202.988 91.0464 203.21 90.057 203.21ZM98.1613 203.21C97.4006 203.21 96.7333 203.04 96.1593 202.699C95.5853 202.358 95.1373 201.889 94.8153 201.292C94.498 200.69 94.3393 199.999 94.3393 199.22C94.3393 198.431 94.5026 197.738 94.8293 197.141C95.156 196.539 95.6063 196.07 96.1803 195.734C96.7543 195.398 97.4146 195.23 98.1613 195.23C98.922 195.23 99.5893 195.4 100.163 195.741C100.742 196.082 101.192 196.553 101.514 197.155C101.836 197.752 101.997 198.441 101.997 199.22C101.997 200.004 101.834 200.697 101.507 201.299C101.185 201.896 100.735 202.365 100.156 202.706C99.5823 203.042 98.9173 203.21 98.1613 203.21ZM98.1613 201.432C98.7726 201.432 99.2276 201.227 99.5263 200.816C99.8296 200.401 99.9813 199.869 99.9813 199.22C99.9813 198.548 99.8273 198.011 99.5193 197.61C99.216 197.209 98.7633 197.008 98.1613 197.008C97.746 197.008 97.4053 197.101 97.1393 197.288C96.8733 197.475 96.675 197.734 96.5443 198.065C96.4183 198.396 96.3553 198.781 96.3553 199.22C96.3553 199.897 96.507 200.436 96.8103 200.837C97.1183 201.234 97.5686 201.432 98.1613 201.432ZM103.677 203V192.71H105.581V203H103.677ZM111.193 203.21C110.419 203.21 109.735 203.044 109.142 202.713C108.554 202.377 108.092 201.917 107.756 201.334C107.425 200.746 107.259 200.074 107.259 199.318C107.259 198.492 107.423 197.773 107.749 197.162C108.076 196.551 108.526 196.077 109.1 195.741C109.674 195.4 110.335 195.23 111.081 195.23C111.875 195.23 112.549 195.417 113.104 195.79C113.66 196.163 114.07 196.688 114.336 197.365C114.602 198.042 114.696 198.837 114.616 199.752H112.733V199.052C112.733 198.282 112.61 197.729 112.362 197.393C112.12 197.052 111.721 196.882 111.165 196.882C110.517 196.882 110.038 197.08 109.73 197.477C109.427 197.869 109.275 198.45 109.275 199.22C109.275 199.925 109.427 200.471 109.73 200.858C110.038 201.241 110.489 201.432 111.081 201.432C111.455 201.432 111.774 201.35 112.04 201.187C112.306 201.024 112.509 200.788 112.649 200.48L114.553 201.026C114.269 201.717 113.818 202.253 113.202 202.636C112.591 203.019 111.921 203.21 111.193 203.21ZM108.687 199.752V198.338H113.699V199.752H108.687Z" fill="white"/>
<path d="M62.382 230.21C61.7287 230.21 61.1453 230.063 60.632 229.769C60.1233 229.47 59.7197 229.067 59.421 228.558C59.127 228.045 58.98 227.461 58.98 226.808V223.112C58.98 222.459 59.127 221.875 59.421 221.362C59.7197 220.849 60.1233 220.445 60.632 220.151C61.1453 219.857 61.7287 219.71 62.382 219.71C63.0353 219.71 63.6187 219.857 64.132 220.151C64.6453 220.445 65.049 220.849 65.343 221.362C65.637 221.875 65.784 222.459 65.784 223.112V226.808C65.784 227.461 65.637 228.045 65.343 228.558C65.049 229.067 64.6453 229.47 64.132 229.769C63.6187 230.063 63.0353 230.21 62.382 230.21ZM62.382 229.013C62.7787 229.013 63.138 228.917 63.46 228.726C63.782 228.535 64.0387 228.278 64.23 227.956C64.4213 227.629 64.517 227.27 64.517 226.878V223.035C64.517 222.638 64.4213 222.279 64.23 221.957C64.0387 221.635 63.782 221.378 63.46 221.187C63.138 220.996 62.7787 220.9 62.382 220.9C61.99 220.9 61.6307 220.996 61.304 221.187C60.982 221.378 60.7253 221.635 60.534 221.957C60.3427 222.279 60.247 222.638 60.247 223.035V226.878C60.247 227.27 60.3427 227.629 60.534 227.956C60.7253 228.278 60.982 228.535 61.304 228.726C61.6307 228.917 61.99 229.013 62.382 229.013ZM72.3034 230V221.299L70.4064 222.447V221.054L72.3034 219.92H73.5704V230H72.3034ZM78.7566 229.993L78.7636 228.873L83.2366 224.848C83.61 224.512 83.8596 224.195 83.9856 223.896C84.1163 223.593 84.1816 223.282 84.1816 222.965C84.1816 222.578 84.093 222.228 83.9156 221.915C83.7383 221.602 83.4956 221.355 83.1876 221.173C82.8843 220.991 82.539 220.9 82.1516 220.9C81.7503 220.9 81.3933 220.996 81.0806 221.187C80.768 221.374 80.5206 221.623 80.3386 221.936C80.1613 222.249 80.075 222.589 80.0796 222.958H78.8056C78.8056 222.323 78.9526 221.763 79.2466 221.278C79.5406 220.788 79.9396 220.405 80.4436 220.13C80.9523 219.85 81.5286 219.71 82.1726 219.71C82.798 219.71 83.358 219.855 83.8526 220.144C84.3473 220.429 84.737 220.818 85.0216 221.313C85.311 221.803 85.4556 222.358 85.4556 222.979C85.4556 223.418 85.3996 223.798 85.2876 224.12C85.1803 224.442 85.0123 224.741 84.7836 225.016C84.555 225.287 84.268 225.576 83.9226 225.884L80.2056 229.223L80.0446 228.803H85.4556V229.993H78.7566ZM92.6981 230.196C92.1988 230.196 91.7345 230.105 91.3051 229.923C90.8758 229.736 90.5048 229.475 90.1921 229.139C89.8841 228.798 89.6578 228.395 89.5131 227.928L90.7101 227.585C90.8641 228.052 91.1208 228.406 91.4801 228.649C91.8395 228.892 92.2431 229.011 92.6911 229.006C93.1018 228.997 93.4565 228.903 93.7551 228.726C94.0585 228.544 94.2918 228.297 94.4551 227.984C94.6231 227.671 94.7071 227.31 94.7071 226.899C94.7071 226.274 94.5205 225.767 94.1471 225.38C93.7738 224.988 93.2838 224.792 92.6771 224.792C92.5091 224.792 92.3318 224.815 92.1451 224.862C91.9631 224.909 91.7928 224.974 91.6341 225.058L91.0321 224.071L94.7701 220.69L94.9311 221.11H89.9121V219.92H95.8551V221.117L92.6701 224.169L92.6561 223.728C93.3235 223.681 93.9068 223.791 94.4061 224.057C94.9055 224.323 95.2928 224.703 95.5681 225.198C95.8481 225.693 95.9881 226.26 95.9881 226.899C95.9881 227.543 95.8435 228.112 95.5541 228.607C95.2648 229.102 94.8728 229.491 94.3781 229.776C93.8835 230.056 93.3235 230.196 92.6981 230.196ZM104.965 230V228.145H100.331V226.962L103.656 219.92H105.07L101.745 226.962H104.965V224.127H106.225V226.962H107.275V228.145H106.225V230H104.965Z" fill="white"/>
<path d="M46 92.5C46.5523 92.5 47 92.0523 47 91.5C47 90.9477 46.5523 90.5 46 90.5V92.5ZM30.7071 210.207C31.0976 209.817 31.0976 209.183 30.7071 208.793L24.3431 202.429C23.9526 202.038 23.3195 202.038 22.9289 202.429C22.5384 202.819 22.5384 203.453 22.9289 203.843L28.5858 209.5L22.9289 215.157C22.5384 215.547 22.5384 216.181 22.9289 216.571C23.3195 216.962 23.9526 216.962 24.3431 216.571L30.7071 210.207ZM46 90.5H11.5V92.5H46V90.5ZM0.5 101.5V199.5H2.5V101.5H0.5ZM11.5 210.5H30V208.5H11.5V210.5ZM0.5 199.5C0.5 205.575 5.42487 210.5 11.5 210.5V208.5C6.52944 208.5 2.5 204.471 2.5 199.5H0.5ZM11.5 90.5C5.42487 90.5 0.5 95.4249 0.5 101.5H2.5C2.5 96.5294 6.52944 92.5 11.5 92.5V90.5Z" fill="white"/>
</svg>
