<svg width="254" height="235" viewBox="0 0 254 235" fill="none" xmlns="http://www.w3.org/2000/svg">
<path d="M39.11 17V9.468C39.11 9.27667 39.1147 9.05967 39.124 8.817C39.1333 8.57433 39.1707 8.32933 39.236 8.082C39.306 7.83467 39.432 7.61067 39.614 7.41C39.8473 7.14867 40.0993 6.97133 40.37 6.878C40.6453 6.78 40.9113 6.72867 41.168 6.724C41.4247 6.71467 41.644 6.71 41.826 6.71H42.764V8.25H41.896C41.5973 8.25 41.3757 8.327 41.231 8.481C41.0863 8.63033 41.014 8.81 41.014 9.02V17H39.11ZM37.92 10.91V9.44H42.764V10.91H37.92ZM46.6944 17.224C46.1017 17.224 45.6187 17.1237 45.2454 16.923C44.8721 16.7223 44.5804 16.468 44.3704 16.16C44.1651 15.852 44.0181 15.5323 43.9294 15.201C43.8407 14.865 43.7871 14.5593 43.7684 14.284C43.7497 14.0087 43.7404 13.808 43.7404 13.682V9.44H45.6724V13.01C45.6724 13.1827 45.6817 13.4043 45.7004 13.675C45.7191 13.941 45.7774 14.2093 45.8754 14.48C45.9734 14.7507 46.1321 14.977 46.3514 15.159C46.5754 15.341 46.8904 15.432 47.2964 15.432C47.4597 15.432 47.6347 15.4063 47.8214 15.355C48.0081 15.3037 48.1831 15.2057 48.3464 15.061C48.5097 14.9117 48.6427 14.6947 48.7454 14.41C48.8527 14.1207 48.9064 13.7427 48.9064 13.276L49.9984 13.794C49.9984 14.3913 49.8771 14.9513 49.6344 15.474C49.3917 15.9967 49.0254 16.419 48.5354 16.741C48.0501 17.063 47.4364 17.224 46.6944 17.224ZM49.1444 17V14.494H48.9064V9.44H50.8244V17H49.1444ZM57.9328 17V13.43C57.9328 13.2573 57.9234 13.038 57.9048 12.772C57.8861 12.5013 57.8278 12.2307 57.7298 11.96C57.6318 11.6893 57.4708 11.463 57.2468 11.281C57.0274 11.099 56.7148 11.008 56.3088 11.008C56.1454 11.008 55.9704 11.0337 55.7838 11.085C55.5971 11.1363 55.4221 11.2367 55.2588 11.386C55.0954 11.5307 54.9601 11.7453 54.8528 12.03C54.7501 12.3147 54.6988 12.6927 54.6988 13.164L53.6068 12.646C53.6068 12.0487 53.7281 11.4887 53.9708 10.966C54.2134 10.4433 54.5774 10.021 55.0628 9.699C55.5528 9.377 56.1688 9.216 56.9108 9.216C57.5034 9.216 57.9864 9.31633 58.3598 9.517C58.7331 9.71767 59.0224 9.972 59.2278 10.28C59.4378 10.588 59.5871 10.91 59.6758 11.246C59.7644 11.5773 59.8181 11.8807 59.8368 12.156C59.8554 12.4313 59.8648 12.632 59.8648 12.758V17H57.9328ZM52.7668 17V9.44H54.4608V11.946H54.6988V17H52.7668ZM64.8765 17.21C64.0925 17.21 63.4205 17.035 62.8605 16.685C62.3005 16.335 61.8711 15.859 61.5725 15.257C61.2738 14.655 61.1245 13.976 61.1245 13.22C61.1245 12.4547 61.2785 11.771 61.5865 11.169C61.8991 10.567 62.3378 10.0933 62.9025 9.748C63.4671 9.40267 64.1345 9.23 64.9045 9.23C65.7958 9.23 66.5425 9.45633 67.1445 9.909C67.7511 10.357 68.1385 10.9707 68.3065 11.75L66.4025 12.254C66.2905 11.862 66.0945 11.5563 65.8145 11.337C65.5391 11.1177 65.2265 11.008 64.8765 11.008C64.4751 11.008 64.1461 11.106 63.8895 11.302C63.6328 11.4933 63.4438 11.757 63.3225 12.093C63.2011 12.4243 63.1405 12.8 63.1405 13.22C63.1405 13.878 63.2851 14.4123 63.5745 14.823C63.8685 15.229 64.3025 15.432 64.8765 15.432C65.3058 15.432 65.6325 15.334 65.8565 15.138C66.0805 14.942 66.2485 14.662 66.3605 14.298L68.3065 14.704C68.0918 15.5067 67.6858 16.125 67.0885 16.559C66.4911 16.993 65.7538 17.21 64.8765 17.21ZM74.2426 17C73.7199 17.098 73.2066 17.14 72.7026 17.126C72.2032 17.1167 71.7552 17.0303 71.3586 16.867C70.9666 16.699 70.6679 16.4307 70.4626 16.062C70.2759 15.7167 70.1779 15.3667 70.1686 15.012C70.1592 14.6527 70.1546 14.2467 70.1546 13.794V7.34H72.0586V13.682C72.0586 13.976 72.0609 14.242 72.0656 14.48C72.0749 14.7133 72.1239 14.9 72.2126 15.04C72.3806 15.306 72.6489 15.4507 73.0176 15.474C73.3862 15.4973 73.7946 15.4787 74.2426 15.418V17ZM68.8666 10.91V9.44H74.2426V10.91H68.8666ZM76.0673 8.39V6.71H77.9713V8.39H76.0673ZM76.0673 17V9.44H77.9713V17H76.0673ZM83.4718 17.21C82.7112 17.21 82.0438 17.0397 81.4698 16.699C80.8958 16.3583 80.4478 15.8893 80.1258 15.292C79.8085 14.69 79.6498 13.9993 79.6498 13.22C79.6498 12.4313 79.8132 11.7383 80.1398 11.141C80.4665 10.539 80.9168 10.07 81.4908 9.734C82.0648 9.398 82.7252 9.23 83.4718 9.23C84.2325 9.23 84.8998 9.40033 85.4738 9.741C86.0525 10.0817 86.5028 10.553 86.8248 11.155C87.1468 11.7523 87.3078 12.4407 87.3078 13.22C87.3078 14.004 87.1445 14.697 86.8178 15.299C86.4958 15.8963 86.0455 16.3653 85.4668 16.706C84.8928 17.042 84.2278 17.21 83.4718 17.21ZM83.4718 15.432C84.0832 15.432 84.5382 15.2267 84.8368 14.816C85.1402 14.4007 85.2918 13.8687 85.2918 13.22C85.2918 12.548 85.1378 12.0113 84.8298 11.61C84.5265 11.2087 84.0738 11.008 83.4718 11.008C83.0565 11.008 82.7158 11.1013 82.4498 11.288C82.1838 11.4747 81.9855 11.7337 81.8548 12.065C81.7288 12.3963 81.6658 12.7813 81.6658 13.22C81.6658 13.8967 81.8175 14.4357 82.1208 14.837C82.4288 15.2337 82.8792 15.432 83.4718 15.432ZM93.9992 17V13.43C93.9992 13.2573 93.9899 13.038 93.9712 12.772C93.9525 12.5013 93.8942 12.2307 93.7962 11.96C93.6982 11.6893 93.5372 11.463 93.3132 11.281C93.0939 11.099 92.7812 11.008 92.3752 11.008C92.2119 11.008 92.0369 11.0337 91.8502 11.085C91.6635 11.1363 91.4885 11.2367 91.3252 11.386C91.1619 11.5307 91.0265 11.7453 90.9192 12.03C90.8165 12.3147 90.7652 12.6927 90.7652 13.164L89.6732 12.646C89.6732 12.0487 89.7945 11.4887 90.0372 10.966C90.2799 10.4433 90.6439 10.021 91.1292 9.699C91.6192 9.377 92.2352 9.216 92.9772 9.216C93.5699 9.216 94.0529 9.31633 94.4262 9.517C94.7995 9.71767 95.0889 9.972 95.2942 10.28C95.5042 10.588 95.6535 10.91 95.7422 11.246C95.8309 11.5773 95.8845 11.8807 95.9032 12.156C95.9219 12.4313 95.9312 12.632 95.9312 12.758V17H93.9992ZM88.8332 17V9.44H90.5272V11.946H90.7652V17H88.8332ZM161.158 19.716C160.617 19.0813 160.152 18.3603 159.765 17.553C159.382 16.7457 159.091 15.901 158.89 15.019C158.694 14.1323 158.605 13.2527 158.624 12.38C158.605 11.5073 158.694 10.6277 158.89 9.741C159.091 8.85433 159.382 8.00967 159.765 7.207C160.152 6.39967 160.617 5.67867 161.158 5.044L162.572 6.08C162.003 6.766 161.557 7.452 161.235 8.138C160.913 8.81933 160.684 9.51233 160.549 10.217C160.418 10.917 160.351 11.638 160.346 12.38C160.351 13.122 160.418 13.8453 160.549 14.55C160.684 15.25 160.913 15.943 161.235 16.629C161.557 17.3103 162.003 17.994 162.572 18.68L161.158 19.716ZM188.402 19.716L186.988 18.68C187.557 17.994 188.003 17.3103 188.325 16.629C188.647 15.943 188.873 15.25 189.004 14.55C189.139 13.8453 189.209 13.122 189.214 12.38C189.209 11.638 189.139 10.917 189.004 10.217C188.873 9.51233 188.647 8.81933 188.325 8.138C188.003 7.452 187.557 6.766 186.988 6.08L188.402 5.044C188.943 5.67867 189.405 6.39967 189.788 7.207C190.175 8.00967 190.467 8.85433 190.663 9.741C190.863 10.6277 190.954 11.5073 190.936 12.38C190.954 13.2527 190.863 14.1323 190.663 15.019C190.467 15.901 190.175 16.7457 189.788 17.553C189.405 18.3603 188.943 19.0813 188.402 19.716ZM200.569 19.94C199.925 19.94 199.421 19.758 199.057 19.394C198.693 19.03 198.511 18.526 198.511 17.882V13.794C198.511 13.7053 198.488 13.6307 198.441 13.57L197.811 12.674C197.709 12.52 197.657 12.352 197.657 12.17C197.657 11.988 197.709 11.82 197.811 11.666L198.441 10.77C198.488 10.6907 198.511 10.616 198.511 10.546V6.458C198.511 5.81867 198.693 5.317 199.057 4.953C199.421 4.58433 199.925 4.4 200.569 4.4H201.563V6.192H200.709C200.597 6.192 200.502 6.23167 200.422 6.311C200.343 6.39033 200.303 6.486 200.303 6.598V10.546C200.303 11.0033 200.168 11.4233 199.897 11.806L199.631 12.17L199.897 12.534C200.168 12.9167 200.303 13.3367 200.303 13.794V17.742C200.303 17.8587 200.343 17.9567 200.422 18.036C200.502 18.12 200.597 18.162 200.709 18.162H201.563V19.94H200.569ZM92.9296 40.21C92.3883 40.21 91.9286 40.1073 91.5506 39.902C91.1773 39.692 90.8926 39.4143 90.6966 39.069C90.5053 38.719 90.4096 38.334 90.4096 37.914C90.4096 37.564 90.4633 37.2443 90.5706 36.955C90.6779 36.6657 90.8506 36.4113 91.0886 36.192C91.3313 35.968 91.6556 35.7813 92.0616 35.632C92.3416 35.5293 92.6753 35.4383 93.0626 35.359C93.4499 35.2797 93.8886 35.205 94.3786 35.135C94.8686 35.0603 95.4076 34.9787 95.9956 34.89L95.3096 35.268C95.3096 34.82 95.2023 34.491 94.9876 34.281C94.7729 34.071 94.4136 33.966 93.9096 33.966C93.6296 33.966 93.3379 34.0337 93.0346 34.169C92.7313 34.3043 92.5189 34.5447 92.3976 34.89L90.6756 34.344C90.8669 33.7187 91.2263 33.21 91.7536 32.818C92.2809 32.426 92.9996 32.23 93.9096 32.23C94.5769 32.23 95.1696 32.3327 95.6876 32.538C96.2056 32.7433 96.5976 33.098 96.8636 33.602C97.0129 33.882 97.1016 34.162 97.1296 34.442C97.1576 34.722 97.1716 35.0347 97.1716 35.38V40H95.5056V38.446L95.7436 38.768C95.3749 39.2767 94.9759 39.6453 94.5466 39.874C94.1219 40.098 93.5829 40.21 92.9296 40.21ZM93.3356 38.712C93.6856 38.712 93.9796 38.6513 94.2176 38.53C94.4603 38.404 94.6516 38.2617 94.7916 38.103C94.9363 37.9443 95.0343 37.8113 95.0856 37.704C95.1836 37.4987 95.2396 37.2607 95.2536 36.99C95.2723 36.7147 95.2816 36.486 95.2816 36.304L95.8416 36.444C95.2769 36.5373 94.8196 36.6167 94.4696 36.682C94.1196 36.7427 93.8373 36.7987 93.6226 36.85C93.4079 36.9013 93.2189 36.9573 93.0556 37.018C92.8689 37.0927 92.7173 37.1743 92.6006 37.263C92.4886 37.347 92.4046 37.4403 92.3486 37.543C92.2973 37.6457 92.2716 37.76 92.2716 37.886C92.2716 38.0587 92.3136 38.208 92.3976 38.334C92.4863 38.4553 92.6099 38.5487 92.7686 38.614C92.9273 38.6793 93.1163 38.712 93.3356 38.712ZM103.096 35.03L101.738 34.05L102.774 32.874L101.234 32.482L101.752 30.886L103.208 31.516L103.082 29.92H104.762L104.636 31.516L106.092 30.886L106.61 32.482L105.07 32.874L106.106 34.05L104.748 35.03L103.922 33.7L103.096 35.03ZM114.938 40.21C114.187 40.21 113.559 40.035 113.055 39.685C112.551 39.335 112.171 38.859 111.914 38.257C111.662 37.655 111.536 36.976 111.536 36.22C111.536 35.464 111.662 34.785 111.914 34.183C112.166 33.581 112.537 33.105 113.027 32.755C113.517 32.405 114.121 32.23 114.84 32.23C115.563 32.23 116.193 32.4027 116.73 32.748C117.267 33.0933 117.682 33.567 117.976 34.169C118.275 34.7663 118.424 35.45 118.424 36.22C118.424 36.976 118.277 37.655 117.983 38.257C117.694 38.859 117.288 39.335 116.765 39.685C116.242 40.035 115.633 40.21 114.938 40.21ZM111.214 40V29.92H113.132V34.82H112.894V40H111.214ZM114.63 38.516C115.041 38.516 115.377 38.4133 115.638 38.208C115.899 38.0027 116.093 37.7273 116.219 37.382C116.345 37.032 116.408 36.6447 116.408 36.22C116.408 35.8 116.343 35.4173 116.212 35.072C116.081 34.722 115.878 34.4443 115.603 34.239C115.332 34.029 114.985 33.924 114.56 33.924C114.163 33.924 113.841 34.0197 113.594 34.211C113.351 34.4023 113.174 34.6707 113.062 35.016C112.95 35.3613 112.894 35.7627 112.894 36.22C112.894 36.6773 112.95 37.0787 113.062 37.424C113.174 37.7693 113.356 38.0377 113.608 38.229C113.865 38.4203 114.205 38.516 114.63 38.516ZM120.524 41.89L120.636 41.092C120.86 41.1107 121.042 41.0733 121.182 40.98C121.322 40.8913 121.418 40.7607 121.469 40.588C121.525 40.42 121.537 40.224 121.504 40H120.524V38.096H122.428V40C122.428 40.672 122.272 41.1807 121.959 41.526C121.647 41.8713 121.168 41.9927 120.524 41.89ZM120.524 34.344V32.44H122.428V34.344H120.524ZM39.054 65.94H38.06V64.162H38.914C39.026 64.162 39.1217 64.12 39.201 64.036C39.2803 63.9567 39.32 63.8587 39.32 63.742V59.794C39.32 59.3367 39.4553 58.9167 39.726 58.534L39.992 58.17L39.726 57.806C39.4553 57.4233 39.32 57.0033 39.32 56.546V52.598C39.32 52.486 39.2803 52.3903 39.201 52.311C39.1217 52.2317 39.026 52.192 38.914 52.192H38.06V50.4H39.054C39.698 50.4 40.202 50.5843 40.566 50.953C40.93 51.317 41.112 51.8187 41.112 52.458V56.546C41.112 56.616 41.1353 56.6907 41.182 56.77L41.812 57.666C41.9193 57.82 41.973 57.988 41.973 58.17C41.973 58.352 41.9193 58.52 41.812 58.674L41.182 59.57C41.1353 59.6307 41.112 59.7053 41.112 59.794V63.882C41.112 64.526 40.93 65.03 40.566 65.394C40.202 65.758 39.698 65.94 39.054 65.94ZM38.62 109V98.71H40.524V109H38.62ZM46.1366 109.21C45.3619 109.21 44.6782 109.044 44.0856 108.713C43.4976 108.377 43.0356 107.917 42.6996 107.334C42.3682 106.746 42.2026 106.074 42.2026 105.318C42.2026 104.492 42.3659 103.773 42.6926 103.162C43.0192 102.551 43.4696 102.077 44.0436 101.741C44.6176 101.4 45.2779 101.23 46.0246 101.23C46.8179 101.23 47.4922 101.417 48.0476 101.79C48.6029 102.163 49.0136 102.688 49.2796 103.365C49.5456 104.042 49.6389 104.837 49.5596 105.752H47.6766V105.052C47.6766 104.282 47.5529 103.729 47.3056 103.393C47.0629 103.052 46.6639 102.882 46.1086 102.882C45.4599 102.882 44.9816 103.08 44.6736 103.477C44.3702 103.869 44.2186 104.45 44.2186 105.22C44.2186 105.925 44.3702 106.471 44.6736 106.858C44.9816 107.241 45.4319 107.432 46.0246 107.432C46.3979 107.432 46.7176 107.35 46.9836 107.187C47.2496 107.024 47.4526 106.788 47.5926 106.48L49.4966 107.026C49.2119 107.717 48.7616 108.253 48.1456 108.636C47.5342 109.019 46.8646 109.21 46.1366 109.21ZM43.6306 105.752V104.338H48.6426V105.752H43.6306ZM55.6762 109C55.1535 109.098 54.6402 109.14 54.1362 109.126C53.6368 109.117 53.1888 109.03 52.7922 108.867C52.4002 108.699 52.1015 108.431 51.8962 108.062C51.7095 107.717 51.6115 107.367 51.6022 107.012C51.5928 106.653 51.5882 106.247 51.5882 105.794V99.34H53.4922V105.682C53.4922 105.976 53.4945 106.242 53.4992 106.48C53.5085 106.713 53.5575 106.9 53.6462 107.04C53.8142 107.306 54.0825 107.451 54.4512 107.474C54.8198 107.497 55.2282 107.479 55.6762 107.418V109ZM50.3002 102.91V101.44H55.6762V102.91H50.3002ZM118.846 103.33V101.86H125.986V103.33H118.846ZM118.846 106.06V104.59H125.986V106.06H118.846ZM192.057 111.296C191.515 110.661 191.051 109.94 190.664 109.133C190.281 108.326 189.989 107.481 189.789 106.599C189.593 105.712 189.504 104.833 189.523 103.96C189.504 103.087 189.593 102.208 189.789 101.321C189.989 100.434 190.281 99.5897 190.664 98.787C191.051 97.9797 191.515 97.2587 192.057 96.624L193.471 97.66C192.901 98.346 192.456 99.032 192.134 99.718C191.812 100.399 191.583 101.092 191.448 101.797C191.317 102.497 191.249 103.218 191.245 103.96C191.249 104.702 191.317 105.425 191.448 106.13C191.583 106.83 191.812 107.523 192.134 108.209C192.456 108.89 192.901 109.574 193.471 110.26L192.057 111.296ZM219.82 111.296L218.406 110.26C218.975 109.574 219.421 108.89 219.743 108.209C220.065 107.523 220.291 106.83 220.422 106.13C220.557 105.425 220.627 104.702 220.632 103.96C220.627 103.218 220.557 102.497 220.422 101.797C220.291 101.092 220.065 100.399 219.743 99.718C219.421 99.032 218.975 98.346 218.406 97.66L219.82 96.624C220.361 97.2587 220.823 97.9797 221.206 98.787C221.593 99.5897 221.885 100.434 222.081 101.321C222.281 102.208 222.372 103.087 222.354 103.96C222.372 104.833 222.281 105.712 222.081 106.599C221.885 107.481 221.593 108.326 221.206 109.133C220.823 109.94 220.361 110.661 219.82 111.296ZM225.853 110.89L225.965 110.092C226.189 110.111 226.371 110.073 226.511 109.98C226.651 109.891 226.746 109.761 226.798 109.588C226.854 109.42 226.865 109.224 226.833 109H225.853V107.096H227.757V109C227.757 109.672 227.6 110.181 227.288 110.526C226.975 110.871 226.497 110.993 225.853 110.89ZM225.853 103.344V101.44H227.757V103.344H225.853ZM41.812 132.21C41.028 132.21 40.356 132.035 39.796 131.685C39.236 131.335 38.8067 130.859 38.508 130.257C38.2093 129.655 38.06 128.976 38.06 128.22C38.06 127.455 38.214 126.771 38.522 126.169C38.8347 125.567 39.2733 125.093 39.838 124.748C40.4027 124.403 41.07 124.23 41.84 124.23C42.7313 124.23 43.478 124.456 44.08 124.909C44.6867 125.357 45.074 125.971 45.242 126.75L43.338 127.254C43.226 126.862 43.03 126.556 42.75 126.337C42.4747 126.118 42.162 126.008 41.812 126.008C41.4107 126.008 41.0817 126.106 40.825 126.302C40.5683 126.493 40.3793 126.757 40.258 127.093C40.1367 127.424 40.076 127.8 40.076 128.22C40.076 128.878 40.2207 129.412 40.51 129.823C40.804 130.229 41.238 130.432 41.812 130.432C42.2413 130.432 42.568 130.334 42.792 130.138C43.016 129.942 43.184 129.662 43.296 129.298L45.242 129.704C45.0273 130.507 44.6213 131.125 44.024 131.559C43.4267 131.993 42.6893 132.21 41.812 132.21ZM49.839 132.21C49.0784 132.21 48.411 132.04 47.837 131.699C47.263 131.358 46.815 130.889 46.493 130.292C46.1757 129.69 46.017 128.999 46.017 128.22C46.017 127.431 46.1804 126.738 46.507 126.141C46.8337 125.539 47.284 125.07 47.858 124.734C48.432 124.398 49.0924 124.23 49.839 124.23C50.5997 124.23 51.267 124.4 51.841 124.741C52.4197 125.082 52.87 125.553 53.192 126.155C53.514 126.752 53.675 127.441 53.675 128.22C53.675 129.004 53.5117 129.697 53.185 130.299C52.863 130.896 52.4127 131.365 51.834 131.706C51.26 132.042 50.595 132.21 49.839 132.21ZM49.839 130.432C50.4504 130.432 50.9054 130.227 51.204 129.816C51.5074 129.401 51.659 128.869 51.659 128.22C51.659 127.548 51.505 127.011 51.197 126.61C50.8937 126.209 50.441 126.008 49.839 126.008C49.4237 126.008 49.083 126.101 48.817 126.288C48.551 126.475 48.3527 126.734 48.222 127.065C48.096 127.396 48.033 127.781 48.033 128.22C48.033 128.897 48.1847 129.436 48.488 129.837C48.796 130.234 49.2464 130.432 49.839 130.432ZM60.3664 132V128.43C60.3664 128.257 60.357 128.038 60.3384 127.772C60.3197 127.501 60.2614 127.231 60.1634 126.96C60.0654 126.689 59.9044 126.463 59.6804 126.281C59.461 126.099 59.1484 126.008 58.7424 126.008C58.579 126.008 58.404 126.034 58.2174 126.085C58.0307 126.136 57.8557 126.237 57.6924 126.386C57.529 126.531 57.3937 126.745 57.2864 127.03C57.1837 127.315 57.1324 127.693 57.1324 128.164L56.0404 127.646C56.0404 127.049 56.1617 126.489 56.4044 125.966C56.647 125.443 57.011 125.021 57.4964 124.699C57.9864 124.377 58.6024 124.216 59.3444 124.216C59.937 124.216 60.42 124.316 60.7934 124.517C61.1667 124.718 61.456 124.972 61.6614 125.28C61.8714 125.588 62.0207 125.91 62.1094 126.246C62.198 126.577 62.2517 126.881 62.2704 127.156C62.289 127.431 62.2984 127.632 62.2984 127.758V132H60.3664ZM55.2004 132V124.44H56.8944V126.946H57.1324V132H55.2004ZM67.0688 132.21C66.1168 132.21 65.3468 131.995 64.7588 131.566C64.1754 131.132 63.8208 130.521 63.6948 129.732L65.6408 129.438C65.7201 129.793 65.8951 130.07 66.1658 130.271C66.4411 130.472 66.7888 130.572 67.2088 130.572C67.5541 130.572 67.8201 130.507 68.0068 130.376C68.1934 130.241 68.2868 130.054 68.2868 129.816C68.2868 129.667 68.2494 129.548 68.1748 129.459C68.1001 129.366 67.9321 129.275 67.6708 129.186C67.4141 129.097 67.0128 128.981 66.4668 128.836C65.8508 128.677 65.3584 128.5 64.9898 128.304C64.6211 128.108 64.3551 127.875 64.1918 127.604C64.0284 127.329 63.9468 126.997 63.9468 126.61C63.9468 126.125 64.0704 125.705 64.3178 125.35C64.5651 124.991 64.9128 124.715 65.3608 124.524C65.8134 124.328 66.3454 124.23 66.9568 124.23C67.5494 124.23 68.0744 124.321 68.5318 124.503C68.9891 124.685 69.3578 124.944 69.6378 125.28C69.9224 125.616 70.0974 126.013 70.1628 126.47L68.2168 126.82C68.1841 126.54 68.0628 126.318 67.8528 126.155C67.6428 125.992 67.3581 125.896 66.9988 125.868C66.6488 125.845 66.3664 125.891 66.1518 126.008C65.9418 126.125 65.8368 126.293 65.8368 126.512C65.8368 126.643 65.8811 126.752 65.9698 126.841C66.0631 126.93 66.2521 127.021 66.5368 127.114C66.8261 127.207 67.2648 127.329 67.8528 127.478C68.4268 127.627 68.8864 127.802 69.2318 128.003C69.5818 128.199 69.8361 128.437 69.9948 128.717C70.1534 128.992 70.2328 129.326 70.2328 129.718C70.2328 130.493 69.9528 131.102 69.3928 131.545C68.8328 131.988 68.0581 132.21 67.0688 132.21ZM75.173 132.21C74.4123 132.21 73.745 132.04 73.171 131.699C72.597 131.358 72.149 130.889 71.827 130.292C71.5097 129.69 71.351 128.999 71.351 128.22C71.351 127.431 71.5143 126.738 71.841 126.141C72.1677 125.539 72.618 125.07 73.192 124.734C73.766 124.398 74.4263 124.23 75.173 124.23C75.9337 124.23 76.601 124.4 77.175 124.741C77.7537 125.082 78.204 125.553 78.526 126.155C78.848 126.752 79.009 127.441 79.009 128.22C79.009 129.004 78.8457 129.697 78.519 130.299C78.197 130.896 77.7467 131.365 77.168 131.706C76.594 132.042 75.929 132.21 75.173 132.21ZM75.173 130.432C75.7843 130.432 76.2393 130.227 76.538 129.816C76.8413 129.401 76.993 128.869 76.993 128.22C76.993 127.548 76.839 127.011 76.531 126.61C76.2277 126.209 75.775 126.008 75.173 126.008C74.7577 126.008 74.417 126.101 74.151 126.288C73.885 126.475 73.6867 126.734 73.556 127.065C73.43 127.396 73.367 127.781 73.367 128.22C73.367 128.897 73.5187 129.436 73.822 129.837C74.13 130.234 74.5803 130.432 75.173 130.432ZM80.6884 132V121.71H82.5924V132H80.6884ZM88.2049 132.21C87.4303 132.21 86.7466 132.044 86.1539 131.713C85.5659 131.377 85.1039 130.917 84.7679 130.334C84.4366 129.746 84.2709 129.074 84.2709 128.318C84.2709 127.492 84.4343 126.773 84.7609 126.162C85.0876 125.551 85.5379 125.077 86.1119 124.741C86.6859 124.4 87.3463 124.23 88.0929 124.23C88.8863 124.23 89.5606 124.417 90.1159 124.79C90.6713 125.163 91.0819 125.688 91.3479 126.365C91.6139 127.042 91.7073 127.837 91.6279 128.752H89.7449V128.052C89.7449 127.282 89.6213 126.729 89.3739 126.393C89.1313 126.052 88.7323 125.882 88.1769 125.882C87.5283 125.882 87.0499 126.08 86.7419 126.477C86.4386 126.869 86.2869 127.45 86.2869 128.22C86.2869 128.925 86.4386 129.471 86.7419 129.858C87.0499 130.241 87.5003 130.432 88.0929 130.432C88.4663 130.432 88.7859 130.35 89.0519 130.187C89.3179 130.024 89.5209 129.788 89.6609 129.48L91.5649 130.026C91.2803 130.717 90.8299 131.253 90.2139 131.636C89.6026 132.019 88.9329 132.21 88.2049 132.21ZM85.6989 128.752V127.338H90.7109V128.752H85.6989ZM93.2431 132V130.096H95.1471V132H93.2431ZM97.5595 132V121.71H99.4635V132H97.5595ZM104.964 132.21C104.203 132.21 103.536 132.04 102.962 131.699C102.388 131.358 101.94 130.889 101.618 130.292C101.301 129.69 101.142 128.999 101.142 128.22C101.142 127.431 101.305 126.738 101.632 126.141C101.959 125.539 102.409 125.07 102.983 124.734C103.557 124.398 104.217 124.23 104.964 124.23C105.725 124.23 106.392 124.4 106.966 124.741C107.545 125.082 107.995 125.553 108.317 126.155C108.639 126.752 108.8 127.441 108.8 128.22C108.8 129.004 108.637 129.697 108.31 130.299C107.988 130.896 107.538 131.365 106.959 131.706C106.385 132.042 105.72 132.21 104.964 132.21ZM104.964 130.432C105.575 130.432 106.03 130.227 106.329 129.816C106.632 129.401 106.784 128.869 106.784 128.22C106.784 127.548 106.63 127.011 106.322 126.61C106.019 126.209 105.566 126.008 104.964 126.008C104.549 126.008 104.208 126.101 103.942 126.288C103.676 126.475 103.478 126.734 103.347 127.065C103.221 127.396 103.158 127.781 103.158 128.22C103.158 128.897 103.31 129.436 103.613 129.837C103.921 130.234 104.371 130.432 104.964 130.432ZM113.573 135.57C113.144 135.57 112.736 135.5 112.348 135.36C111.961 135.225 111.613 135.033 111.305 134.786C111.002 134.543 110.755 134.259 110.563 133.932L112.327 133.078C112.449 133.302 112.621 133.472 112.845 133.589C113.074 133.706 113.321 133.764 113.587 133.764C113.872 133.764 114.14 133.715 114.392 133.617C114.644 133.524 114.845 133.381 114.994 133.19C115.148 133.003 115.221 132.77 115.211 132.49V130.292H115.449V124.44H117.115V132.518C117.115 132.705 117.106 132.88 117.087 133.043C117.073 133.211 117.045 133.377 117.003 133.54C116.882 134.002 116.656 134.382 116.324 134.681C115.998 134.98 115.596 135.201 115.12 135.346C114.644 135.495 114.129 135.57 113.573 135.57ZM113.405 132.21C112.71 132.21 112.101 132.035 111.578 131.685C111.056 131.335 110.647 130.859 110.353 130.257C110.064 129.655 109.919 128.976 109.919 128.22C109.919 127.45 110.066 126.766 110.36 126.169C110.659 125.567 111.077 125.093 111.613 124.748C112.15 124.403 112.78 124.23 113.503 124.23C114.222 124.23 114.826 124.405 115.316 124.755C115.806 125.105 116.177 125.581 116.429 126.183C116.681 126.785 116.807 127.464 116.807 128.22C116.807 128.976 116.679 129.655 116.422 130.257C116.17 130.859 115.792 131.335 115.288 131.685C114.784 132.035 114.157 132.21 113.405 132.21ZM113.713 130.516C114.138 130.516 114.476 130.42 114.728 130.229C114.985 130.038 115.169 129.769 115.281 129.424C115.393 129.079 115.449 128.677 115.449 128.22C115.449 127.763 115.393 127.361 115.281 127.016C115.169 126.671 114.99 126.402 114.742 126.211C114.5 126.02 114.18 125.924 113.783 125.924C113.359 125.924 113.009 126.029 112.733 126.239C112.463 126.444 112.262 126.722 112.131 127.072C112.001 127.417 111.935 127.8 111.935 128.22C111.935 128.645 111.998 129.032 112.124 129.382C112.25 129.727 112.444 130.003 112.705 130.208C112.967 130.413 113.303 130.516 113.713 130.516ZM122.59 134.716C122.048 134.081 121.584 133.36 121.197 132.553C120.814 131.746 120.522 130.901 120.322 130.019C120.126 129.132 120.037 128.253 120.056 127.38C120.037 126.507 120.126 125.628 120.322 124.741C120.522 123.854 120.814 123.01 121.197 122.207C121.584 121.4 122.048 120.679 122.59 120.044L124.004 121.08C123.434 121.766 122.989 122.452 122.667 123.138C122.345 123.819 122.116 124.512 121.981 125.217C121.85 125.917 121.782 126.638 121.778 127.38C121.782 128.122 121.85 128.845 121.981 129.55C122.116 130.25 122.345 130.943 122.667 131.629C122.989 132.31 123.434 132.994 124.004 133.68L122.59 134.716ZM181.716 134.716L180.302 133.68C180.872 132.994 181.317 132.31 181.639 131.629C181.961 130.943 182.188 130.25 182.318 129.55C182.454 128.845 182.524 128.122 182.528 127.38C182.524 126.638 182.454 125.917 182.318 125.217C182.188 124.512 181.961 123.819 181.639 123.138C181.317 122.452 180.872 121.766 180.302 121.08L181.716 120.044C182.258 120.679 182.72 121.4 183.102 122.207C183.49 123.01 183.781 123.854 183.977 124.741C184.178 125.628 184.269 126.507 184.25 127.38C184.269 128.253 184.178 129.132 183.977 130.019C183.781 130.901 183.49 131.746 183.102 132.553C182.72 133.36 182.258 134.081 181.716 134.716ZM187.749 133.89L187.861 133.092C188.085 133.111 188.267 133.073 188.407 132.98C188.547 132.891 188.643 132.761 188.694 132.588C188.75 132.42 188.762 132.224 188.729 132H187.749V130.096H189.653V132C189.653 132.672 189.497 133.181 189.184 133.526C188.871 133.871 188.393 133.993 187.749 133.89ZM187.749 126.344V124.44H189.653V126.344H187.749Z" fill="white"/>
<path d="M109.65 17V12.534C109.65 12.0347 109.531 11.6473 109.293 11.372C109.06 11.092 108.736 10.952 108.32 10.952C108.054 10.952 107.823 11.015 107.627 11.141C107.431 11.2623 107.277 11.435 107.165 11.659C107.058 11.8783 107.004 12.1327 107.004 12.422L106.206 11.89C106.206 11.372 106.328 10.9147 106.57 10.518C106.818 10.1213 107.147 9.81333 107.557 9.594C107.973 9.37 108.432 9.258 108.936 9.258C109.8 9.258 110.451 9.51467 110.889 10.028C111.333 10.5367 111.554 11.204 111.554 12.03V17H109.65ZM100.536 17V9.44H102.216V11.946H102.454V17H100.536ZM105.1 17V12.534C105.1 12.0347 104.981 11.6473 104.743 11.372C104.51 11.092 104.186 10.952 103.77 10.952C103.374 10.952 103.054 11.0897 102.811 11.365C102.573 11.6357 102.454 11.988 102.454 12.422L101.656 11.862C101.656 11.3673 101.78 10.924 102.027 10.532C102.275 10.14 102.606 9.82967 103.021 9.601C103.441 9.37233 103.91 9.258 104.428 9.258C105.021 9.258 105.506 9.384 105.884 9.636C106.267 9.888 106.549 10.224 106.731 10.644C106.913 11.064 107.004 11.526 107.004 12.03V17H105.1ZM116.189 17.224C115.596 17.224 115.113 17.1237 114.74 16.923C114.366 16.7223 114.075 16.468 113.865 16.16C113.659 15.852 113.512 15.5323 113.424 15.201C113.335 14.865 113.281 14.5593 113.263 14.284C113.244 14.0087 113.235 13.808 113.235 13.682V9.44H115.167V13.01C115.167 13.1827 115.176 13.4043 115.195 13.675C115.213 13.941 115.272 14.2093 115.37 14.48C115.468 14.7507 115.626 14.977 115.846 15.159C116.07 15.341 116.385 15.432 116.791 15.432C116.954 15.432 117.129 15.4063 117.316 15.355C117.502 15.3037 117.677 15.2057 117.841 15.061C118.004 14.9117 118.137 14.6947 118.24 14.41C118.347 14.1207 118.401 13.7427 118.401 13.276L119.493 13.794C119.493 14.3913 119.371 14.9513 119.129 15.474C118.886 15.9967 118.52 16.419 118.03 16.741C117.544 17.063 116.931 17.224 116.189 17.224ZM118.639 17V14.494H118.401V9.44H120.319V17H118.639ZM122.415 17V6.71H124.319V17H122.415ZM130.954 17C130.431 17.098 129.918 17.14 129.414 17.126C128.914 17.1167 128.466 17.0303 128.07 16.867C127.678 16.699 127.379 16.4307 127.174 16.062C126.987 15.7167 126.889 15.3667 126.88 15.012C126.87 14.6527 126.866 14.2467 126.866 13.794V7.34H128.77V13.682C128.77 13.976 128.772 14.242 128.777 14.48C128.786 14.7133 128.835 14.9 128.924 15.04C129.092 15.306 129.36 15.4507 129.729 15.474C130.097 15.4973 130.506 15.4787 130.954 15.418V17ZM125.578 10.91V9.44H130.954V10.91H125.578ZM132.778 8.39V6.71H134.682V8.39H132.778ZM132.778 17V9.44H134.682V17H132.778ZM140.491 17.21C139.739 17.21 139.112 17.035 138.608 16.685C138.104 16.335 137.723 15.859 137.467 15.257C137.215 14.655 137.089 13.976 137.089 13.22C137.089 12.464 137.215 11.785 137.467 11.183C137.719 10.581 138.09 10.105 138.58 9.755C139.07 9.405 139.674 9.23 140.393 9.23C141.116 9.23 141.746 9.40267 142.283 9.748C142.819 10.0933 143.235 10.567 143.529 11.169C143.827 11.7663 143.977 12.45 143.977 13.22C143.977 13.976 143.83 14.655 143.536 15.257C143.246 15.859 142.84 16.335 142.318 16.685C141.795 17.035 141.186 17.21 140.491 17.21ZM136.767 20.36V9.44H138.447V14.62H138.685V20.36H136.767ZM140.183 15.516C140.593 15.516 140.929 15.4133 141.191 15.208C141.452 15.0027 141.646 14.7273 141.772 14.382C141.898 14.032 141.961 13.6447 141.961 13.22C141.961 12.8 141.895 12.4173 141.765 12.072C141.634 11.722 141.431 11.4443 141.156 11.239C140.885 11.029 140.537 10.924 140.113 10.924C139.716 10.924 139.394 11.0197 139.147 11.211C138.904 11.4023 138.727 11.6707 138.615 12.016C138.503 12.3613 138.447 12.7627 138.447 13.22C138.447 13.6773 138.503 14.0787 138.615 14.424C138.727 14.7693 138.909 15.0377 139.161 15.229C139.417 15.4203 139.758 15.516 140.183 15.516ZM145.657 17V6.71H147.561V17H145.657ZM150.626 20.36L152.082 16.356L152.11 17.532L148.82 9.44H150.794L153.006 15.166H152.558L154.756 9.44H156.66L152.39 20.36H150.626ZM63.8736 109.21C63.1223 109.21 62.4946 109.035 61.9906 108.685C61.4866 108.335 61.1063 107.859 60.8496 107.257C60.5976 106.655 60.4716 105.976 60.4716 105.22C60.4716 104.464 60.5976 103.785 60.8496 103.183C61.1016 102.581 61.4726 102.105 61.9626 101.755C62.4526 101.405 63.0569 101.23 63.7756 101.23C64.4989 101.23 65.1289 101.403 65.6656 101.748C66.2023 102.093 66.6176 102.567 66.9116 103.169C67.2103 103.766 67.3596 104.45 67.3596 105.22C67.3596 105.976 67.2126 106.655 66.9186 107.257C66.6293 107.859 66.2233 108.335 65.7006 108.685C65.1779 109.035 64.5689 109.21 63.8736 109.21ZM60.1496 112.36V101.44H61.8296V106.62H62.0676V112.36H60.1496ZM63.5656 107.516C63.9763 107.516 64.3123 107.413 64.5736 107.208C64.8349 107.003 65.0286 106.727 65.1546 106.382C65.2806 106.032 65.3436 105.645 65.3436 105.22C65.3436 104.8 65.2783 104.417 65.1476 104.072C65.0169 103.722 64.8139 103.444 64.5386 103.239C64.2679 103.029 63.9203 102.924 63.4956 102.924C63.0989 102.924 62.7769 103.02 62.5296 103.211C62.2869 103.402 62.1096 103.671 61.9976 104.016C61.8856 104.361 61.8296 104.763 61.8296 105.22C61.8296 105.677 61.8856 106.079 61.9976 106.424C62.1096 106.769 62.2916 107.038 62.5436 107.229C62.8003 107.42 63.1409 107.516 63.5656 107.516ZM68.8999 109V101.44H70.5799V103.288L70.3979 103.05C70.4959 102.789 70.6266 102.551 70.7899 102.336C70.9533 102.121 71.1539 101.944 71.3919 101.804C71.5739 101.692 71.7723 101.606 71.9869 101.545C72.2016 101.48 72.4233 101.44 72.6519 101.426C72.8806 101.407 73.1093 101.412 73.3379 101.44V103.218C73.1279 103.153 72.8829 103.132 72.6029 103.155C72.3276 103.174 72.0779 103.237 71.8539 103.344C71.6299 103.447 71.4409 103.584 71.2869 103.757C71.1329 103.925 71.0163 104.126 70.9369 104.359C70.8576 104.588 70.8179 104.847 70.8179 105.136V109H68.8999ZM77.9347 109.21C77.1741 109.21 76.5067 109.04 75.9327 108.699C75.3587 108.358 74.9107 107.889 74.5887 107.292C74.2714 106.69 74.1127 105.999 74.1127 105.22C74.1127 104.431 74.2761 103.738 74.6027 103.141C74.9294 102.539 75.3797 102.07 75.9537 101.734C76.5277 101.398 77.1881 101.23 77.9347 101.23C78.6954 101.23 79.3627 101.4 79.9367 101.741C80.5154 102.082 80.9657 102.553 81.2877 103.155C81.6097 103.752 81.7707 104.441 81.7707 105.22C81.7707 106.004 81.6074 106.697 81.2807 107.299C80.9587 107.896 80.5084 108.365 79.9297 108.706C79.3557 109.042 78.6907 109.21 77.9347 109.21ZM77.9347 107.432C78.5461 107.432 79.0011 107.227 79.2997 106.816C79.6031 106.401 79.7547 105.869 79.7547 105.22C79.7547 104.548 79.6007 104.011 79.2927 103.61C78.9894 103.209 78.5367 103.008 77.9347 103.008C77.5194 103.008 77.1787 103.101 76.9127 103.288C76.6467 103.475 76.4484 103.734 76.3177 104.065C76.1917 104.396 76.1287 104.781 76.1287 105.22C76.1287 105.897 76.2804 106.436 76.5837 106.837C76.8917 107.234 77.3421 107.432 77.9347 107.432ZM86.3761 109.21C85.6807 109.21 85.0717 109.035 84.5491 108.685C84.0264 108.335 83.6181 107.859 83.3241 107.257C83.0347 106.655 82.8901 105.976 82.8901 105.22C82.8901 104.45 83.0371 103.766 83.3311 103.169C83.6297 102.567 84.0474 102.093 84.5841 101.748C85.1207 101.403 85.7507 101.23 86.4741 101.23C87.1927 101.23 87.7971 101.405 88.2871 101.755C88.7771 102.105 89.1481 102.581 89.4001 103.183C89.6521 103.785 89.7781 104.464 89.7781 105.22C89.7781 105.976 89.6497 106.655 89.3931 107.257C89.1411 107.859 88.7631 108.335 88.2591 108.685C87.7551 109.035 87.1274 109.21 86.3761 109.21ZM86.6841 107.516C87.1087 107.516 87.4471 107.42 87.6991 107.229C87.9557 107.038 88.1401 106.769 88.2521 106.424C88.3641 106.079 88.4201 105.677 88.4201 105.22C88.4201 104.763 88.3641 104.361 88.2521 104.016C88.1401 103.671 87.9604 103.402 87.7131 103.211C87.4704 103.02 87.1507 102.924 86.7541 102.924C86.3294 102.924 85.9794 103.029 85.7041 103.239C85.4334 103.444 85.2327 103.722 85.1021 104.072C84.9714 104.417 84.9061 104.8 84.9061 105.22C84.9061 105.645 84.9691 106.032 85.0951 106.382C85.2211 106.727 85.4147 107.003 85.6761 107.208C85.9374 107.413 86.2734 107.516 86.6841 107.516ZM88.4201 109V103.82H88.1821V98.92H90.1001V109H88.4201ZM94.8741 109.224C94.2814 109.224 93.7984 109.124 93.4251 108.923C93.0517 108.722 92.7601 108.468 92.5501 108.16C92.3447 107.852 92.1977 107.532 92.1091 107.201C92.0204 106.865 91.9667 106.559 91.9481 106.284C91.9294 106.009 91.9201 105.808 91.9201 105.682V101.44H93.8521V105.01C93.8521 105.183 93.8614 105.404 93.8801 105.675C93.8987 105.941 93.9571 106.209 94.0551 106.48C94.1531 106.751 94.3117 106.977 94.5311 107.159C94.7551 107.341 95.0701 107.432 95.4761 107.432C95.6394 107.432 95.8144 107.406 96.0011 107.355C96.1877 107.304 96.3627 107.206 96.5261 107.061C96.6894 106.912 96.8224 106.695 96.9251 106.41C97.0324 106.121 97.0861 105.743 97.0861 105.276L98.1781 105.794C98.1781 106.391 98.0567 106.951 97.8141 107.474C97.5714 107.997 97.2051 108.419 96.7151 108.741C96.2297 109.063 95.6161 109.224 94.8741 109.224ZM97.3241 109V106.494H97.0861V101.44H99.0041V109H97.3241ZM104.292 109.21C103.508 109.21 102.836 109.035 102.276 108.685C101.716 108.335 101.287 107.859 100.988 107.257C100.69 106.655 100.54 105.976 100.54 105.22C100.54 104.455 100.694 103.771 101.002 103.169C101.315 102.567 101.754 102.093 102.318 101.748C102.883 101.403 103.55 101.23 104.32 101.23C105.212 101.23 105.958 101.456 106.56 101.909C107.167 102.357 107.554 102.971 107.722 103.75L105.818 104.254C105.706 103.862 105.51 103.556 105.23 103.337C104.955 103.118 104.642 103.008 104.292 103.008C103.891 103.008 103.562 103.106 103.305 103.302C103.049 103.493 102.86 103.757 102.738 104.093C102.617 104.424 102.556 104.8 102.556 105.22C102.556 105.878 102.701 106.412 102.99 106.823C103.284 107.229 103.718 107.432 104.292 107.432C104.722 107.432 105.048 107.334 105.272 107.138C105.496 106.942 105.664 106.662 105.776 106.298L107.722 106.704C107.508 107.507 107.102 108.125 106.504 108.559C105.907 108.993 105.17 109.21 104.292 109.21ZM113.659 109C113.136 109.098 112.623 109.14 112.119 109.126C111.619 109.117 111.171 109.03 110.775 108.867C110.383 108.699 110.084 108.431 109.879 108.062C109.692 107.717 109.594 107.367 109.585 107.012C109.575 106.653 109.571 106.247 109.571 105.794V99.34H111.475V105.682C111.475 105.976 111.477 106.242 111.482 106.48C111.491 106.713 111.54 106.9 111.629 107.04C111.797 107.306 112.065 107.451 112.434 107.474C112.802 107.497 113.211 107.479 113.659 107.418V109ZM108.283 102.91V101.44H113.659V102.91H108.283ZM140.549 109V104.534C140.549 104.035 140.43 103.647 140.192 103.372C139.958 103.092 139.634 102.952 139.219 102.952C138.953 102.952 138.722 103.015 138.526 103.141C138.33 103.262 138.176 103.435 138.064 103.659C137.956 103.878 137.903 104.133 137.903 104.422L137.105 103.89C137.105 103.372 137.226 102.915 137.469 102.518C137.716 102.121 138.045 101.813 138.456 101.594C138.871 101.37 139.331 101.258 139.835 101.258C140.698 101.258 141.349 101.515 141.788 102.028C142.231 102.537 142.453 103.204 142.453 104.03V109H140.549ZM131.435 109V101.44H133.115V103.946H133.353V109H131.435ZM135.999 109V104.534C135.999 104.035 135.88 103.647 135.642 103.372C135.408 103.092 135.084 102.952 134.669 102.952C134.272 102.952 133.952 103.09 133.71 103.365C133.472 103.636 133.353 103.988 133.353 104.422L132.555 103.862C132.555 103.367 132.678 102.924 132.926 102.532C133.173 102.14 133.504 101.83 133.92 101.601C134.34 101.372 134.809 101.258 135.327 101.258C135.919 101.258 136.405 101.384 136.783 101.636C137.165 101.888 137.448 102.224 137.63 102.644C137.812 103.064 137.903 103.526 137.903 104.03V109H135.999ZM147.087 109.224C146.494 109.224 146.011 109.124 145.638 108.923C145.265 108.722 144.973 108.468 144.763 108.16C144.558 107.852 144.411 107.532 144.322 107.201C144.233 106.865 144.18 106.559 144.161 106.284C144.142 106.009 144.133 105.808 144.133 105.682V101.44H146.065V105.01C146.065 105.183 146.074 105.404 146.093 105.675C146.112 105.941 146.17 106.209 146.268 106.48C146.366 106.751 146.525 106.977 146.744 107.159C146.968 107.341 147.283 107.432 147.689 107.432C147.852 107.432 148.027 107.406 148.214 107.355C148.401 107.304 148.576 107.206 148.739 107.061C148.902 106.912 149.035 106.695 149.138 106.41C149.245 106.121 149.299 105.743 149.299 105.276L150.391 105.794C150.391 106.391 150.27 106.951 150.027 107.474C149.784 107.997 149.418 108.419 148.928 108.741C148.443 109.063 147.829 109.224 147.087 109.224ZM149.537 109V106.494H149.299V101.44H151.217V109H149.537ZM153.313 109V98.71H155.217V109H153.313ZM161.852 109C161.329 109.098 160.816 109.14 160.312 109.126C159.813 109.117 159.365 109.03 158.968 108.867C158.576 108.699 158.277 108.431 158.072 108.062C157.885 107.717 157.787 107.367 157.778 107.012C157.769 106.653 157.764 106.247 157.764 105.794V99.34H159.668V105.682C159.668 105.976 159.67 106.242 159.675 106.48C159.684 106.713 159.733 106.9 159.822 107.04C159.99 107.306 160.258 107.451 160.627 107.474C160.996 107.497 161.404 107.479 161.852 107.418V109ZM156.476 102.91V101.44H161.852V102.91H156.476ZM163.677 100.39V98.71H165.581V100.39H163.677ZM163.677 109V101.44H165.581V109H163.677ZM171.389 109.21C170.638 109.21 170.01 109.035 169.506 108.685C169.002 108.335 168.622 107.859 168.365 107.257C168.113 106.655 167.987 105.976 167.987 105.22C167.987 104.464 168.113 103.785 168.365 103.183C168.617 102.581 168.988 102.105 169.478 101.755C169.968 101.405 170.573 101.23 171.291 101.23C172.015 101.23 172.645 101.403 173.181 101.748C173.718 102.093 174.133 102.567 174.427 103.169C174.726 103.766 174.875 104.45 174.875 105.22C174.875 105.976 174.728 106.655 174.434 107.257C174.145 107.859 173.739 108.335 173.216 108.685C172.694 109.035 172.085 109.21 171.389 109.21ZM167.665 112.36V101.44H169.345V106.62H169.583V112.36H167.665ZM171.081 107.516C171.492 107.516 171.828 107.413 172.089 107.208C172.351 107.003 172.544 106.727 172.67 106.382C172.796 106.032 172.859 105.645 172.859 105.22C172.859 104.8 172.794 104.417 172.663 104.072C172.533 103.722 172.33 103.444 172.054 103.239C171.784 103.029 171.436 102.924 171.011 102.924C170.615 102.924 170.293 103.02 170.045 103.211C169.803 103.402 169.625 103.671 169.513 104.016C169.401 104.361 169.345 104.763 169.345 105.22C169.345 105.677 169.401 106.079 169.513 106.424C169.625 106.769 169.807 107.038 170.059 107.229C170.316 107.42 170.657 107.516 171.081 107.516ZM176.556 109V98.71H178.46V109H176.556ZM181.524 112.36L182.98 108.356L183.008 109.532L179.718 101.44H181.692L183.904 107.166H183.456L185.654 101.44H187.558L183.288 112.36H181.524ZM129.253 132.21C128.501 132.21 127.874 132.035 127.37 131.685C126.866 131.335 126.485 130.859 126.229 130.257C125.977 129.655 125.851 128.976 125.851 128.22C125.851 127.464 125.977 126.785 126.229 126.183C126.481 125.581 126.852 125.105 127.342 124.755C127.832 124.405 128.436 124.23 129.155 124.23C129.878 124.23 130.508 124.403 131.045 124.748C131.581 125.093 131.997 125.567 132.291 126.169C132.589 126.766 132.739 127.45 132.739 128.22C132.739 128.976 132.592 129.655 132.298 130.257C132.008 130.859 131.602 131.335 131.08 131.685C130.557 132.035 129.948 132.21 129.253 132.21ZM125.529 135.36V124.44H127.209V129.62H127.447V135.36H125.529ZM128.945 130.516C129.355 130.516 129.691 130.413 129.953 130.208C130.214 130.003 130.408 129.727 130.534 129.382C130.66 129.032 130.723 128.645 130.723 128.22C130.723 127.8 130.657 127.417 130.527 127.072C130.396 126.722 130.193 126.444 129.918 126.239C129.647 126.029 129.299 125.924 128.875 125.924C128.478 125.924 128.156 126.02 127.909 126.211C127.666 126.402 127.489 126.671 127.377 127.016C127.265 127.361 127.209 127.763 127.209 128.22C127.209 128.677 127.265 129.079 127.377 129.424C127.489 129.769 127.671 130.038 127.923 130.229C128.179 130.42 128.52 130.516 128.945 130.516ZM134.279 132V124.44H135.959V126.288L135.777 126.05C135.875 125.789 136.005 125.551 136.169 125.336C136.332 125.121 136.533 124.944 136.771 124.804C136.953 124.692 137.151 124.606 137.366 124.545C137.58 124.48 137.802 124.44 138.031 124.426C138.259 124.407 138.488 124.412 138.717 124.44V126.218C138.507 126.153 138.262 126.132 137.982 126.155C137.706 126.174 137.457 126.237 137.233 126.344C137.009 126.447 136.82 126.584 136.666 126.757C136.512 126.925 136.395 127.126 136.316 127.359C136.236 127.588 136.197 127.847 136.197 128.136V132H134.279ZM143.314 132.21C142.553 132.21 141.886 132.04 141.312 131.699C140.738 131.358 140.29 130.889 139.968 130.292C139.65 129.69 139.492 128.999 139.492 128.22C139.492 127.431 139.655 126.738 139.982 126.141C140.308 125.539 140.759 125.07 141.333 124.734C141.907 124.398 142.567 124.23 143.314 124.23C144.074 124.23 144.742 124.4 145.316 124.741C145.894 125.082 146.345 125.553 146.667 126.155C146.989 126.752 147.15 127.441 147.15 128.22C147.15 129.004 146.986 129.697 146.66 130.299C146.338 130.896 145.887 131.365 145.309 131.706C144.735 132.042 144.07 132.21 143.314 132.21ZM143.314 130.432C143.925 130.432 144.38 130.227 144.679 129.816C144.982 129.401 145.134 128.869 145.134 128.22C145.134 127.548 144.98 127.011 144.672 126.61C144.368 126.209 143.916 126.008 143.314 126.008C142.898 126.008 142.558 126.101 142.292 126.288C142.026 126.475 141.827 126.734 141.697 127.065C141.571 127.396 141.508 127.781 141.508 128.22C141.508 128.897 141.659 129.436 141.963 129.837C142.271 130.234 142.721 130.432 143.314 130.432ZM151.755 132.21C151.06 132.21 150.451 132.035 149.928 131.685C149.405 131.335 148.997 130.859 148.703 130.257C148.414 129.655 148.269 128.976 148.269 128.22C148.269 127.45 148.416 126.766 148.71 126.169C149.009 125.567 149.426 125.093 149.963 124.748C150.5 124.403 151.13 124.23 151.853 124.23C152.572 124.23 153.176 124.405 153.666 124.755C154.156 125.105 154.527 125.581 154.779 126.183C155.031 126.785 155.157 127.464 155.157 128.22C155.157 128.976 155.029 129.655 154.772 130.257C154.52 130.859 154.142 131.335 153.638 131.685C153.134 132.035 152.506 132.21 151.755 132.21ZM152.063 130.516C152.488 130.516 152.826 130.42 153.078 130.229C153.335 130.038 153.519 129.769 153.631 129.424C153.743 129.079 153.799 128.677 153.799 128.22C153.799 127.763 153.743 127.361 153.631 127.016C153.519 126.671 153.339 126.402 153.092 126.211C152.849 126.02 152.53 125.924 152.133 125.924C151.708 125.924 151.358 126.029 151.083 126.239C150.812 126.444 150.612 126.722 150.481 127.072C150.35 127.417 150.285 127.8 150.285 128.22C150.285 128.645 150.348 129.032 150.474 129.382C150.6 129.727 150.794 130.003 151.055 130.208C151.316 130.413 151.652 130.516 152.063 130.516ZM153.799 132V126.82H153.561V121.92H155.479V132H153.799ZM160.253 132.224C159.66 132.224 159.177 132.124 158.804 131.923C158.431 131.722 158.139 131.468 157.929 131.16C157.724 130.852 157.577 130.532 157.488 130.201C157.399 129.865 157.346 129.559 157.327 129.284C157.308 129.009 157.299 128.808 157.299 128.682V124.44H159.231V128.01C159.231 128.183 159.24 128.404 159.259 128.675C159.278 128.941 159.336 129.209 159.434 129.48C159.532 129.751 159.691 129.977 159.91 130.159C160.134 130.341 160.449 130.432 160.855 130.432C161.018 130.432 161.193 130.406 161.38 130.355C161.567 130.304 161.742 130.206 161.905 130.061C162.068 129.912 162.201 129.695 162.304 129.41C162.411 129.121 162.465 128.743 162.465 128.276L163.557 128.794C163.557 129.391 163.436 129.951 163.193 130.474C162.95 130.997 162.584 131.419 162.094 131.741C161.609 132.063 160.995 132.224 160.253 132.224ZM162.703 132V129.494H162.465V124.44H164.383V132H162.703ZM169.671 132.21C168.887 132.21 168.215 132.035 167.655 131.685C167.095 131.335 166.666 130.859 166.367 130.257C166.069 129.655 165.919 128.976 165.919 128.22C165.919 127.455 166.073 126.771 166.381 126.169C166.694 125.567 167.133 125.093 167.697 124.748C168.262 124.403 168.929 124.23 169.699 124.23C170.591 124.23 171.337 124.456 171.939 124.909C172.546 125.357 172.933 125.971 173.101 126.75L171.197 127.254C171.085 126.862 170.889 126.556 170.609 126.337C170.334 126.118 170.021 126.008 169.671 126.008C169.27 126.008 168.941 126.106 168.684 126.302C168.428 126.493 168.239 126.757 168.117 127.093C167.996 127.424 167.935 127.8 167.935 128.22C167.935 128.878 168.08 129.412 168.369 129.823C168.663 130.229 169.097 130.432 169.671 130.432C170.101 130.432 170.427 130.334 170.651 130.138C170.875 129.942 171.043 129.662 171.155 129.298L173.101 129.704C172.887 130.507 172.481 131.125 171.883 131.559C171.286 131.993 170.549 132.21 169.671 132.21ZM179.037 132C178.515 132.098 178.001 132.14 177.497 132.126C176.998 132.117 176.55 132.03 176.153 131.867C175.761 131.699 175.463 131.431 175.257 131.062C175.071 130.717 174.973 130.367 174.963 130.012C174.954 129.653 174.949 129.247 174.949 128.794V122.34H176.853V128.682C176.853 128.976 176.856 129.242 176.86 129.48C176.87 129.713 176.919 129.9 177.007 130.04C177.175 130.306 177.444 130.451 177.812 130.474C178.181 130.497 178.589 130.479 179.037 130.418V132ZM173.661 125.91V124.44H179.037V125.91H173.661Z" fill="#FFD966"/>
<path d="M165.937 17.21C165.396 17.21 164.936 17.1073 164.558 16.902C164.185 16.692 163.9 16.4143 163.704 16.069C163.513 15.719 163.417 15.334 163.417 14.914C163.417 14.564 163.471 14.2443 163.578 13.955C163.686 13.6657 163.858 13.4113 164.096 13.192C164.339 12.968 164.663 12.7813 165.069 12.632C165.349 12.5293 165.683 12.4383 166.07 12.359C166.458 12.2797 166.896 12.205 167.386 12.135C167.876 12.0603 168.415 11.9787 169.003 11.89L168.317 12.268C168.317 11.82 168.21 11.491 167.995 11.281C167.781 11.071 167.421 10.966 166.917 10.966C166.637 10.966 166.346 11.0337 166.042 11.169C165.739 11.3043 165.527 11.5447 165.405 11.89L163.683 11.344C163.875 10.7187 164.234 10.21 164.761 9.818C165.289 9.426 166.007 9.23 166.917 9.23C167.585 9.23 168.177 9.33267 168.695 9.538C169.213 9.74333 169.605 10.098 169.871 10.602C170.021 10.882 170.109 11.162 170.137 11.442C170.165 11.722 170.179 12.0347 170.179 12.38V17H168.513V15.446L168.751 15.768C168.383 16.2767 167.984 16.6453 167.554 16.874C167.13 17.098 166.591 17.21 165.937 17.21ZM166.343 15.712C166.693 15.712 166.987 15.6513 167.225 15.53C167.468 15.404 167.659 15.2617 167.799 15.103C167.944 14.9443 168.042 14.8113 168.093 14.704C168.191 14.4987 168.247 14.2607 168.261 13.99C168.28 13.7147 168.289 13.486 168.289 13.304L168.849 13.444C168.285 13.5373 167.827 13.6167 167.477 13.682C167.127 13.7427 166.845 13.7987 166.63 13.85C166.416 13.9013 166.227 13.9573 166.063 14.018C165.877 14.0927 165.725 14.1743 165.608 14.263C165.496 14.347 165.412 14.4403 165.356 14.543C165.305 14.6457 165.279 14.76 165.279 14.886C165.279 15.0587 165.321 15.208 165.405 15.334C165.494 15.4553 165.618 15.5487 165.776 15.614C165.935 15.6793 166.124 15.712 166.343 15.712ZM171.86 18.89L171.972 18.092C172.196 18.1107 172.378 18.0733 172.518 17.98C172.658 17.8913 172.753 17.7607 172.805 17.588C172.861 17.42 172.872 17.224 172.84 17H171.86V15.096H173.764V17C173.764 17.672 173.607 18.1807 173.295 18.526C172.982 18.8713 172.504 18.9927 171.86 18.89ZM182.942 17.21C182.191 17.21 181.563 17.035 181.059 16.685C180.555 16.335 180.175 15.859 179.918 15.257C179.666 14.655 179.54 13.976 179.54 13.22C179.54 12.464 179.666 11.785 179.918 11.183C180.17 10.581 180.541 10.105 181.031 9.755C181.521 9.405 182.125 9.23 182.844 9.23C183.567 9.23 184.197 9.40267 184.734 9.748C185.271 10.0933 185.686 10.567 185.98 11.169C186.279 11.7663 186.428 12.45 186.428 13.22C186.428 13.976 186.281 14.655 185.987 15.257C185.698 15.859 185.292 16.335 184.769 16.685C184.246 17.035 183.637 17.21 182.942 17.21ZM179.218 17V6.92H181.136V11.82H180.898V17H179.218ZM182.634 15.516C183.045 15.516 183.381 15.4133 183.642 15.208C183.903 15.0027 184.097 14.7273 184.223 14.382C184.349 14.032 184.412 13.6447 184.412 13.22C184.412 12.8 184.347 12.4173 184.216 12.072C184.085 11.722 183.882 11.4443 183.607 11.239C183.336 11.029 182.989 10.924 182.564 10.924C182.167 10.924 181.845 11.0197 181.598 11.211C181.355 11.4023 181.178 11.6707 181.066 12.016C180.954 12.3613 180.898 12.7627 180.898 13.22C180.898 13.6773 180.954 14.0787 181.066 14.424C181.178 14.7693 181.36 15.0377 181.612 15.229C181.869 15.4203 182.209 15.516 182.634 15.516ZM199.111 109V107.432H194.729V105.654L197.907 98.92H200.091L196.913 105.654H199.111V103.134H201.043V105.654H201.939V107.432H201.043V109H199.111ZM203.209 110.89L203.321 110.092C203.545 110.111 203.727 110.073 203.867 109.98C204.007 109.891 204.103 109.761 204.154 109.588C204.21 109.42 204.222 109.224 204.189 109H203.209V107.096H205.113V109C205.113 109.672 204.957 110.181 204.644 110.526C204.331 110.871 203.853 110.993 203.209 110.89ZM213.578 109.21C213.069 109.21 212.591 109.105 212.143 108.895C211.699 108.685 211.317 108.393 210.995 108.02C210.673 107.647 210.442 107.213 210.302 106.718L212.136 106.228C212.196 106.466 212.304 106.671 212.458 106.844C212.616 107.017 212.798 107.152 213.004 107.25C213.214 107.343 213.428 107.39 213.648 107.39C213.937 107.39 214.201 107.32 214.439 107.18C214.681 107.04 214.873 106.851 215.013 106.613C215.157 106.375 215.23 106.111 215.23 105.822C215.23 105.533 215.157 105.269 215.013 105.031C214.873 104.793 214.681 104.604 214.439 104.464C214.201 104.324 213.937 104.254 213.648 104.254C213.293 104.254 213.004 104.315 212.78 104.436C212.556 104.553 212.388 104.665 212.276 104.772L210.666 104.282L210.974 98.92H216.476V100.698H212.024L212.696 100.068L212.486 103.526L212.164 103.134C212.416 102.929 212.703 102.779 213.025 102.686C213.347 102.593 213.648 102.546 213.928 102.546C214.562 102.546 215.12 102.688 215.601 102.973C216.086 103.253 216.464 103.64 216.735 104.135C217.01 104.625 217.148 105.187 217.148 105.822C217.148 106.457 216.982 107.031 216.651 107.544C216.319 108.053 215.883 108.459 215.342 108.762C214.8 109.061 214.212 109.21 213.578 109.21Z" fill="#787DF7"/>
<path d="M44.0855 40V32.44H45.7655V34.288L45.5835 34.05C45.6815 33.7887 45.8121 33.5507 45.9755 33.336C46.1388 33.1213 46.3395 32.944 46.5775 32.804C46.7595 32.692 46.9578 32.6057 47.1725 32.545C47.3871 32.4797 47.6088 32.44 47.8375 32.426C48.0661 32.4073 48.2948 32.412 48.5235 32.44V34.218C48.3135 34.1527 48.0685 34.1317 47.7885 34.155C47.5131 34.1737 47.2635 34.2367 47.0395 34.344C46.8155 34.4467 46.6265 34.5843 46.4725 34.757C46.3185 34.925 46.2018 35.1257 46.1225 35.359C46.0431 35.5877 46.0035 35.8467 46.0035 36.136V40H44.0855ZM53.2323 40.21C52.4576 40.21 51.7739 40.0443 51.1813 39.713C50.5933 39.377 50.1313 38.9173 49.7953 38.334C49.4639 37.746 49.2983 37.074 49.2983 36.318C49.2983 35.492 49.4616 34.7733 49.7883 34.162C50.1149 33.5507 50.5653 33.077 51.1393 32.741C51.7133 32.4003 52.3736 32.23 53.1203 32.23C53.9136 32.23 54.5879 32.4167 55.1433 32.79C55.6986 33.1633 56.1093 33.6883 56.3753 34.365C56.6413 35.0417 56.7346 35.8373 56.6553 36.752H54.7723V36.052C54.7723 35.282 54.6486 34.729 54.4013 34.393C54.1586 34.0523 53.7596 33.882 53.2043 33.882C52.5556 33.882 52.0773 34.0803 51.7693 34.477C51.4659 34.869 51.3143 35.45 51.3143 36.22C51.3143 36.9247 51.4659 37.4707 51.7693 37.858C52.0773 38.2407 52.5276 38.432 53.1203 38.432C53.4936 38.432 53.8133 38.3503 54.0793 38.187C54.3453 38.0237 54.5483 37.788 54.6883 37.48L56.5923 38.026C56.3076 38.7167 55.8573 39.2533 55.2413 39.636C54.6299 40.0187 53.9603 40.21 53.2323 40.21ZM50.7263 36.752V35.338H55.7383V36.752H50.7263ZM62.7719 40C62.2492 40.098 61.7359 40.14 61.2319 40.126C60.7325 40.1167 60.2845 40.0303 59.8879 39.867C59.4959 39.699 59.1972 39.4307 58.9919 39.062C58.8052 38.7167 58.7072 38.3667 58.6979 38.012C58.6885 37.6527 58.6839 37.2467 58.6839 36.794V30.34H60.5879V36.682C60.5879 36.976 60.5902 37.242 60.5949 37.48C60.6042 37.7133 60.6532 37.9 60.7419 38.04C60.9099 38.306 61.1782 38.4507 61.5469 38.474C61.9155 38.4973 62.3239 38.4787 62.7719 38.418V40ZM57.3959 33.91V32.44H62.7719V33.91H57.3959ZM67.2706 40.224C66.6779 40.224 66.1949 40.1237 65.8216 39.923C65.4482 39.7223 65.1566 39.468 64.9466 39.16C64.7412 38.852 64.5942 38.5323 64.5056 38.201C64.4169 37.865 64.3632 37.5593 64.3446 37.284C64.3259 37.0087 64.3166 36.808 64.3166 36.682V32.44H66.2486V36.01C66.2486 36.1827 66.2579 36.4043 66.2766 36.675C66.2952 36.941 66.3536 37.2093 66.4516 37.48C66.5496 37.7507 66.7082 37.977 66.9276 38.159C67.1516 38.341 67.4666 38.432 67.8726 38.432C68.0359 38.432 68.2109 38.4063 68.3976 38.355C68.5842 38.3037 68.7592 38.2057 68.9226 38.061C69.0859 37.9117 69.2189 37.6947 69.3216 37.41C69.4289 37.1207 69.4826 36.7427 69.4826 36.276L70.5746 36.794C70.5746 37.3913 70.4532 37.9513 70.2106 38.474C69.9679 38.9967 69.6016 39.419 69.1116 39.741C68.6262 40.063 68.0126 40.224 67.2706 40.224ZM69.7206 40V37.494H69.4826V32.44H71.4006V40H69.7206ZM73.357 40V32.44H75.037V34.288L74.855 34.05C74.953 33.7887 75.0836 33.5507 75.247 33.336C75.4103 33.1213 75.611 32.944 75.849 32.804C76.031 32.692 76.2293 32.6057 76.444 32.545C76.6586 32.4797 76.8803 32.44 77.109 32.426C77.3376 32.4073 77.5663 32.412 77.795 32.44V34.218C77.585 34.1527 77.34 34.1317 77.06 34.155C76.7846 34.1737 76.535 34.2367 76.311 34.344C76.087 34.4467 75.898 34.5843 75.744 34.757C75.59 34.925 75.4733 35.1257 75.394 35.359C75.3146 35.5877 75.275 35.8467 75.275 36.136V40H73.357ZM84.2785 40V36.43C84.2785 36.2573 84.2692 36.038 84.2505 35.772C84.2318 35.5013 84.1735 35.2307 84.0755 34.96C83.9775 34.6893 83.8165 34.463 83.5925 34.281C83.3732 34.099 83.0605 34.008 82.6545 34.008C82.4912 34.008 82.3162 34.0337 82.1295 34.085C81.9428 34.1363 81.7678 34.2367 81.6045 34.386C81.4412 34.5307 81.3058 34.7453 81.1985 35.03C81.0958 35.3147 81.0445 35.6927 81.0445 36.164L79.9525 35.646C79.9525 35.0487 80.0738 34.4887 80.3165 33.966C80.5592 33.4433 80.9232 33.021 81.4085 32.699C81.8985 32.377 82.5145 32.216 83.2565 32.216C83.8492 32.216 84.3322 32.3163 84.7055 32.517C85.0788 32.7177 85.3682 32.972 85.5735 33.28C85.7835 33.588 85.9328 33.91 86.0215 34.246C86.1102 34.5773 86.1638 34.8807 86.1825 35.156C86.2012 35.4313 86.2105 35.632 86.2105 35.758V40H84.2785ZM79.1125 40V32.44H80.8065V34.946H81.0445V40H79.1125Z" fill="#FF5050"/>
<rect x="18.5" y="165" width="217" height="69" rx="7" fill="#282525" stroke="#777777" stroke-width="2"/>
<path d="M43.9535 190.21C42.9455 190.21 42.0751 189.991 41.3425 189.552C40.6145 189.113 40.0521 188.5 39.6555 187.711C39.2635 186.922 39.0675 186.005 39.0675 184.96C39.0675 183.915 39.2635 182.998 39.6555 182.209C40.0521 181.42 40.6145 180.807 41.3425 180.368C42.0751 179.929 42.9455 179.71 43.9535 179.71C45.1108 179.71 46.0815 179.997 46.8655 180.571C47.6541 181.145 48.2095 181.922 48.5315 182.902L46.6135 183.434C46.4268 182.823 46.1118 182.349 45.6685 182.013C45.2251 181.672 44.6535 181.502 43.9535 181.502C43.3141 181.502 42.7798 181.644 42.3505 181.929C41.9258 182.214 41.6061 182.615 41.3915 183.133C41.1768 183.651 41.0695 184.26 41.0695 184.96C41.0695 185.66 41.1768 186.269 41.3915 186.787C41.6061 187.305 41.9258 187.706 42.3505 187.991C42.7798 188.276 43.3141 188.418 43.9535 188.418C44.6535 188.418 45.2251 188.248 45.6685 187.907C46.1118 187.566 46.4268 187.093 46.6135 186.486L48.5315 187.018C48.2095 187.998 47.6541 188.775 46.8655 189.349C46.0815 189.923 45.1108 190.21 43.9535 190.21ZM53.4748 190.21C52.7141 190.21 52.0468 190.04 51.4728 189.699C50.8988 189.358 50.4508 188.889 50.1288 188.292C49.8114 187.69 49.6528 186.999 49.6528 186.22C49.6528 185.431 49.8161 184.738 50.1428 184.141C50.4694 183.539 50.9198 183.07 51.4938 182.734C52.0678 182.398 52.7281 182.23 53.4748 182.23C54.2354 182.23 54.9028 182.4 55.4768 182.741C56.0554 183.082 56.5058 183.553 56.8278 184.155C57.1498 184.752 57.3108 185.441 57.3108 186.22C57.3108 187.004 57.1474 187.697 56.8208 188.299C56.4988 188.896 56.0484 189.365 55.4698 189.706C54.8958 190.042 54.2308 190.21 53.4748 190.21ZM53.4748 188.432C54.0861 188.432 54.5411 188.227 54.8398 187.816C55.1431 187.401 55.2948 186.869 55.2948 186.22C55.2948 185.548 55.1408 185.011 54.8328 184.61C54.5294 184.209 54.0768 184.008 53.4748 184.008C53.0594 184.008 52.7188 184.101 52.4528 184.288C52.1868 184.475 51.9884 184.734 51.8578 185.065C51.7318 185.396 51.6688 185.781 51.6688 186.22C51.6688 186.897 51.8204 187.436 52.1238 187.837C52.4318 188.234 52.8821 188.432 53.4748 188.432ZM64.0021 190V186.43C64.0021 186.257 63.9928 186.038 63.9741 185.772C63.9555 185.501 63.8971 185.231 63.7991 184.96C63.7011 184.689 63.5401 184.463 63.3161 184.281C63.0968 184.099 62.7841 184.008 62.3781 184.008C62.2148 184.008 62.0398 184.034 61.8531 184.085C61.6665 184.136 61.4915 184.237 61.3281 184.386C61.1648 184.531 61.0295 184.745 60.9221 185.03C60.8195 185.315 60.7681 185.693 60.7681 186.164L59.6761 185.646C59.6761 185.049 59.7975 184.489 60.0401 183.966C60.2828 183.443 60.6468 183.021 61.1321 182.699C61.6221 182.377 62.2381 182.216 62.9801 182.216C63.5728 182.216 64.0558 182.316 64.4291 182.517C64.8025 182.718 65.0918 182.972 65.2971 183.28C65.5071 183.588 65.6565 183.91 65.7451 184.246C65.8338 184.577 65.8875 184.881 65.9061 185.156C65.9248 185.431 65.9341 185.632 65.9341 185.758V190H64.0021ZM58.8361 190V182.44H60.5301V184.946H60.7681V190H58.8361ZM70.7045 190.21C69.7525 190.21 68.9825 189.995 68.3945 189.566C67.8112 189.132 67.4565 188.521 67.3305 187.732L69.2765 187.438C69.3558 187.793 69.5308 188.07 69.8015 188.271C70.0768 188.472 70.4245 188.572 70.8445 188.572C71.1898 188.572 71.4558 188.507 71.6425 188.376C71.8292 188.241 71.9225 188.054 71.9225 187.816C71.9225 187.667 71.8852 187.548 71.8105 187.459C71.7358 187.366 71.5678 187.275 71.3065 187.186C71.0498 187.097 70.6485 186.981 70.1025 186.836C69.4865 186.677 68.9942 186.5 68.6255 186.304C68.2568 186.108 67.9908 185.875 67.8275 185.604C67.6642 185.329 67.5825 184.997 67.5825 184.61C67.5825 184.125 67.7062 183.705 67.9535 183.35C68.2008 182.991 68.5485 182.715 68.9965 182.524C69.4492 182.328 69.9812 182.23 70.5925 182.23C71.1852 182.23 71.7102 182.321 72.1675 182.503C72.6248 182.685 72.9935 182.944 73.2735 183.28C73.5582 183.616 73.7332 184.013 73.7985 184.47L71.8525 184.82C71.8198 184.54 71.6985 184.318 71.4885 184.155C71.2785 183.992 70.9938 183.896 70.6345 183.868C70.2845 183.845 70.0022 183.891 69.7875 184.008C69.5775 184.125 69.4725 184.293 69.4725 184.512C69.4725 184.643 69.5168 184.752 69.6055 184.841C69.6988 184.93 69.8878 185.021 70.1725 185.114C70.4618 185.207 70.9005 185.329 71.4885 185.478C72.0625 185.627 72.5222 185.802 72.8675 186.003C73.2175 186.199 73.4718 186.437 73.6305 186.717C73.7892 186.992 73.8685 187.326 73.8685 187.718C73.8685 188.493 73.5885 189.102 73.0285 189.545C72.4685 189.988 71.6938 190.21 70.7045 190.21ZM78.8088 190.21C78.0481 190.21 77.3808 190.04 76.8068 189.699C76.2328 189.358 75.7848 188.889 75.4628 188.292C75.1454 187.69 74.9868 186.999 74.9868 186.22C74.9868 185.431 75.1501 184.738 75.4768 184.141C75.8034 183.539 76.2538 183.07 76.8278 182.734C77.4018 182.398 78.0621 182.23 78.8088 182.23C79.5694 182.23 80.2368 182.4 80.8108 182.741C81.3894 183.082 81.8398 183.553 82.1618 184.155C82.4838 184.752 82.6448 185.441 82.6448 186.22C82.6448 187.004 82.4814 187.697 82.1548 188.299C81.8328 188.896 81.3824 189.365 80.8038 189.706C80.2298 190.042 79.5648 190.21 78.8088 190.21ZM78.8088 188.432C79.4201 188.432 79.8751 188.227 80.1738 187.816C80.4771 187.401 80.6288 186.869 80.6288 186.22C80.6288 185.548 80.4748 185.011 80.1668 184.61C79.8634 184.209 79.4108 184.008 78.8088 184.008C78.3934 184.008 78.0528 184.101 77.7868 184.288C77.5208 184.475 77.3224 184.734 77.1918 185.065C77.0658 185.396 77.0028 185.781 77.0028 186.22C77.0028 186.897 77.1544 187.436 77.4578 187.837C77.7658 188.234 78.2161 188.432 78.8088 188.432ZM84.3241 190V179.71H86.2281V190H84.3241ZM91.8407 190.21C91.066 190.21 90.3823 190.044 89.7897 189.713C89.2017 189.377 88.7397 188.917 88.4037 188.334C88.0723 187.746 87.9067 187.074 87.9067 186.318C87.9067 185.492 88.07 184.773 88.3967 184.162C88.7233 183.551 89.1737 183.077 89.7477 182.741C90.3217 182.4 90.982 182.23 91.7287 182.23C92.522 182.23 93.1963 182.417 93.7517 182.79C94.307 183.163 94.7177 183.688 94.9837 184.365C95.2497 185.042 95.343 185.837 95.2637 186.752H93.3807V186.052C93.3807 185.282 93.257 184.729 93.0097 184.393C92.767 184.052 92.368 183.882 91.8127 183.882C91.164 183.882 90.6857 184.08 90.3777 184.477C90.0743 184.869 89.9227 185.45 89.9227 186.22C89.9227 186.925 90.0743 187.471 90.3777 187.858C90.6857 188.241 91.136 188.432 91.7287 188.432C92.102 188.432 92.4217 188.35 92.6877 188.187C92.9537 188.024 93.1567 187.788 93.2967 187.48L95.2007 188.026C94.916 188.717 94.4657 189.253 93.8497 189.636C93.2383 190.019 92.5687 190.21 91.8407 190.21ZM89.3347 186.752V185.338H94.3467V186.752H89.3347Z" fill="white"/>
<path d="M39.2 216.993L39.207 215.873L43.68 211.848C44.0533 211.512 44.303 211.195 44.429 210.896C44.5597 210.593 44.625 210.282 44.625 209.965C44.625 209.578 44.5363 209.228 44.359 208.915C44.1817 208.602 43.939 208.355 43.631 208.173C43.3277 207.991 42.9823 207.9 42.595 207.9C42.1937 207.9 41.8367 207.996 41.524 208.187C41.2113 208.374 40.964 208.623 40.782 208.936C40.6047 209.249 40.5183 209.589 40.523 209.958H39.249C39.249 209.323 39.396 208.763 39.69 208.278C39.984 207.788 40.383 207.405 40.887 207.13C41.3957 206.85 41.972 206.71 42.616 206.71C43.2413 206.71 43.8013 206.855 44.296 207.144C44.7907 207.429 45.1803 207.818 45.465 208.313C45.7543 208.803 45.899 209.358 45.899 209.979C45.899 210.418 45.843 210.798 45.731 211.12C45.6237 211.442 45.4557 211.741 45.227 212.016C44.9983 212.287 44.7113 212.576 44.366 212.884L40.649 216.223L40.488 215.803H45.899V216.993H39.2ZM50.9758 217.21C50.3224 217.21 49.7391 217.063 49.2258 216.769C48.7171 216.47 48.3134 216.067 48.0148 215.558C47.7208 215.045 47.5738 214.461 47.5738 213.808V210.112C47.5738 209.459 47.7208 208.875 48.0148 208.362C48.3134 207.849 48.7171 207.445 49.2258 207.151C49.7391 206.857 50.3224 206.71 50.9758 206.71C51.6291 206.71 52.2124 206.857 52.7258 207.151C53.2391 207.445 53.6428 207.849 53.9368 208.362C54.2308 208.875 54.3778 209.459 54.3778 210.112V213.808C54.3778 214.461 54.2308 215.045 53.9368 215.558C53.6428 216.067 53.2391 216.47 52.7258 216.769C52.2124 217.063 51.6291 217.21 50.9758 217.21ZM50.9758 216.013C51.3724 216.013 51.7318 215.917 52.0538 215.726C52.3758 215.535 52.6324 215.278 52.8238 214.956C53.0151 214.629 53.1108 214.27 53.1108 213.878V210.035C53.1108 209.638 53.0151 209.279 52.8238 208.957C52.6324 208.635 52.3758 208.378 52.0538 208.187C51.7318 207.996 51.3724 207.9 50.9758 207.9C50.5838 207.9 50.2244 207.996 49.8978 208.187C49.5758 208.378 49.3191 208.635 49.1278 208.957C48.9364 209.279 48.8408 209.638 48.8408 210.035V213.878C48.8408 214.27 48.9364 214.629 49.1278 214.956C49.3191 215.278 49.5758 215.535 49.8978 215.726C50.2244 215.917 50.5838 216.013 50.9758 216.013Z" fill="#FCFCFC"/>
<path d="M29.5 12H27.5C21.9772 12 17.5 16.4772 17.5 22V52C17.5 57.5228 21.9772 62 27.5 62H29.5" stroke="white" stroke-width="2"/>
<path d="M18 42.5C18.5523 42.5 19 42.0523 19 41.5C19 40.9477 18.5523 40.5 18 40.5V42.5ZM27.7071 105.207C28.0976 104.817 28.0976 104.183 27.7071 103.793L21.3431 97.4289C20.9526 97.0384 20.3195 97.0384 19.9289 97.4289C19.5384 97.8195 19.5384 98.4526 19.9289 98.8431L25.5858 104.5L19.9289 110.157C19.5384 110.547 19.5384 111.181 19.9289 111.571C20.3195 111.962 20.9526 111.962 21.3431 111.571L27.7071 105.207ZM18 40.5H11V42.5H18V40.5ZM0 51.5V94.5H2V51.5H0ZM11 105.5H27V103.5H11V105.5ZM0 94.5C0 100.575 4.92487 105.5 11 105.5V103.5C6.02944 103.5 2 99.4706 2 94.5H0ZM11 40.5C4.92487 40.5 0 45.4249 0 51.5H2C2 46.5294 6.02944 42.5 11 42.5V40.5Z" fill="white"/>
<path d="M83.5 94.5C83.5 95.0523 83.9477 95.5 84.5 95.5C85.0523 95.5 85.5 95.0523 85.5 94.5H83.5ZM199.793 131.293C199.402 131.683 199.402 132.317 199.793 132.707L206.157 139.071C206.547 139.462 207.181 139.462 207.571 139.071C207.962 138.681 207.962 138.047 207.571 137.657L201.914 132L207.571 126.343C207.962 125.953 207.962 125.319 207.571 124.929C207.181 124.538 206.547 124.538 206.157 124.929L199.793 131.293ZM85.5 94.5V93H83.5V94.5H85.5ZM94.5 84H243V82H94.5V84ZM252 93V122H254V93H252ZM243 131H200.5V133H243V131ZM252 122C252 126.971 247.971 131 243 131V133C249.075 133 254 128.075 254 122H252ZM243 84C247.971 84 252 88.0294 252 93H254C254 86.9249 249.075 82 243 82V84ZM85.5 93C85.5 88.0294 89.5294 84 94.5 84V82C88.4249 82 83.5 86.9249 83.5 93H85.5Z" fill="#FFD966"/>
</svg>
