<svg width="302" height="133" viewBox="0 0 302 133" fill="none" xmlns="http://www.w3.org/2000/svg">
<path d="M4.812 56.21C4.028 56.21 3.356 56.035 2.796 55.685C2.236 55.335 1.80667 54.859 1.508 54.257C1.20933 53.655 1.06 52.976 1.06 52.22C1.06 51.4547 1.214 50.771 1.522 50.169C1.83467 49.567 2.27333 49.0933 2.838 48.748C3.40267 48.4027 4.07 48.23 4.84 48.23C5.73133 48.23 6.478 48.4563 7.08 48.909C7.68667 49.357 8.074 49.9707 8.242 50.75L6.338 51.254C6.226 50.862 6.03 50.5563 5.75 50.337C5.47467 50.1177 5.162 50.008 4.812 50.008C4.41067 50.008 4.08167 50.106 3.825 50.302C3.56833 50.4933 3.37933 50.757 3.258 51.093C3.13667 51.4243 3.076 51.8 3.076 52.22C3.076 52.878 3.22067 53.4123 3.51 53.823C3.804 54.229 4.238 54.432 4.812 54.432C5.24133 54.432 5.568 54.334 5.792 54.138C6.016 53.942 6.184 53.662 6.296 53.298L8.242 53.704C8.02733 54.5067 7.62133 55.125 7.024 55.559C6.42667 55.993 5.68933 56.21 4.812 56.21ZM12.839 56.21C12.0784 56.21 11.411 56.0397 10.837 55.699C10.263 55.3583 9.81503 54.8893 9.49303 54.292C9.1757 53.69 9.01703 52.9993 9.01703 52.22C9.01703 51.4313 9.18036 50.7383 9.50703 50.141C9.8337 49.539 10.284 49.07 10.858 48.734C11.432 48.398 12.0924 48.23 12.839 48.23C13.5997 48.23 14.267 48.4003 14.841 48.741C15.4197 49.0817 15.87 49.553 16.192 50.155C16.514 50.7523 16.675 51.4407 16.675 52.22C16.675 53.004 16.5117 53.697 16.185 54.299C15.863 54.8963 15.4127 55.3653 14.834 55.706C14.26 56.042 13.595 56.21 12.839 56.21ZM12.839 54.432C13.4504 54.432 13.9054 54.2267 14.204 53.816C14.5074 53.4007 14.659 52.8687 14.659 52.22C14.659 51.548 14.505 51.0113 14.197 50.61C13.8937 50.2087 13.441 50.008 12.839 50.008C12.4237 50.008 12.083 50.1013 11.817 50.288C11.551 50.4747 11.3527 50.7337 11.222 51.065C11.096 51.3963 11.033 51.7813 11.033 52.22C11.033 52.8967 11.1847 53.4357 11.488 53.837C11.796 54.2337 12.2464 54.432 12.839 54.432ZM23.3664 56V52.43C23.3664 52.2573 23.357 52.038 23.3384 51.772C23.3197 51.5013 23.2614 51.2307 23.1634 50.96C23.0654 50.6893 22.9044 50.463 22.6804 50.281C22.461 50.099 22.1484 50.008 21.7424 50.008C21.579 50.008 21.404 50.0337 21.2174 50.085C21.0307 50.1363 20.8557 50.2367 20.6924 50.386C20.529 50.5307 20.3937 50.7453 20.2864 51.03C20.1837 51.3147 20.1324 51.6927 20.1324 52.164L19.0404 51.646C19.0404 51.0487 19.1617 50.4887 19.4044 49.966C19.647 49.4433 20.011 49.021 20.4964 48.699C20.9864 48.377 21.6024 48.216 22.3444 48.216C22.937 48.216 23.42 48.3163 23.7934 48.517C24.1667 48.7177 24.456 48.972 24.6614 49.28C24.8714 49.588 25.0207 49.91 25.1094 50.246C25.198 50.5773 25.2517 50.8807 25.2704 51.156C25.289 51.4313 25.2984 51.632 25.2984 51.758V56H23.3664ZM18.2004 56V48.44H19.8944V50.946H20.1324V56H18.2004ZM30.0688 56.21C29.1168 56.21 28.3468 55.9953 27.7588 55.566C27.1754 55.132 26.8208 54.5207 26.6948 53.732L28.6408 53.438C28.7201 53.7927 28.8951 54.0703 29.1658 54.271C29.4411 54.4717 29.7888 54.572 30.2088 54.572C30.5541 54.572 30.8201 54.5067 31.0068 54.376C31.1934 54.2407 31.2868 54.054 31.2868 53.816C31.2868 53.6667 31.2494 53.5477 31.1748 53.459C31.1001 53.3657 30.9321 53.2747 30.6708 53.186C30.4141 53.0973 30.0128 52.9807 29.4668 52.836C28.8508 52.6773 28.3584 52.5 27.9898 52.304C27.6211 52.108 27.3551 51.8747 27.1918 51.604C27.0284 51.3287 26.9468 50.9973 26.9468 50.61C26.9468 50.1247 27.0704 49.7047 27.3178 49.35C27.5651 48.9907 27.9128 48.7153 28.3608 48.524C28.8134 48.328 29.3454 48.23 29.9568 48.23C30.5494 48.23 31.0744 48.321 31.5318 48.503C31.9891 48.685 32.3578 48.944 32.6378 49.28C32.9224 49.616 33.0974 50.0127 33.1628 50.47L31.2168 50.82C31.1841 50.54 31.0628 50.3183 30.8528 50.155C30.6428 49.9917 30.3581 49.896 29.9988 49.868C29.6488 49.8447 29.3664 49.8913 29.1518 50.008C28.9418 50.1247 28.8368 50.2927 28.8368 50.512C28.8368 50.6427 28.8811 50.7523 28.9698 50.841C29.0631 50.9297 29.2521 51.0207 29.5368 51.114C29.8261 51.2073 30.2648 51.3287 30.8528 51.478C31.4268 51.6273 31.8864 51.8023 32.2318 52.003C32.5818 52.199 32.8361 52.437 32.9948 52.717C33.1534 52.9923 33.2328 53.326 33.2328 53.718C33.2328 54.4927 32.9528 55.1017 32.3928 55.545C31.8328 55.9883 31.0581 56.21 30.0688 56.21ZM39.307 56C38.7843 56.098 38.271 56.14 37.767 56.126C37.2677 56.1167 36.8197 56.0303 36.423 55.867C36.031 55.699 35.7323 55.4307 35.527 55.062C35.3403 54.7167 35.2423 54.3667 35.233 54.012C35.2237 53.6527 35.219 53.2467 35.219 52.794V46.34H37.123V52.682C37.123 52.976 37.1253 53.242 37.13 53.48C37.1393 53.7133 37.1883 53.9 37.277 54.04C37.445 54.306 37.7133 54.4507 38.082 54.474C38.4507 54.4973 38.859 54.4787 39.307 54.418V56ZM33.931 49.91V48.44H39.307V49.91H33.931ZM84.9222 50.33V48.86H92.0622V50.33H84.9222ZM84.9222 53.06V51.59H92.0622V53.06H84.9222ZM101.039 58.716C100.498 58.0813 100.033 57.3603 99.6459 56.553C99.2633 55.7457 98.9716 54.901 98.7709 54.019C98.5749 53.1323 98.4863 52.2527 98.5049 51.38C98.4863 50.5073 98.5749 49.6277 98.7709 48.741C98.9716 47.8543 99.2633 47.0097 99.6459 46.207C100.033 45.3997 100.498 44.6787 101.039 44.044L102.453 45.08C101.884 45.766 101.438 46.452 101.116 47.138C100.794 47.8193 100.565 48.5123 100.43 49.217C100.299 49.917 100.232 50.638 100.227 51.38C100.232 52.122 100.299 52.8453 100.43 53.55C100.565 54.25 100.794 54.943 101.116 55.629C101.438 56.3103 101.884 56.994 102.453 57.68L101.039 58.716ZM142.693 58.716L141.279 57.68C141.848 56.994 142.294 56.3103 142.616 55.629C142.938 54.943 143.164 54.25 143.295 53.55C143.43 52.8453 143.5 52.122 143.505 51.38C143.5 50.638 143.43 49.917 143.295 49.217C143.164 48.5123 142.938 47.8193 142.616 47.138C142.294 46.452 141.848 45.766 141.279 45.08L142.693 44.044C143.234 44.6787 143.696 45.3997 144.079 46.207C144.466 47.0097 144.758 47.8543 144.954 48.741C145.154 49.6277 145.245 50.5073 145.227 51.38C145.245 52.2527 145.154 53.1323 144.954 54.019C144.758 54.901 144.466 55.7457 144.079 56.553C143.696 57.3603 143.234 58.0813 142.693 58.716ZM177.186 58.94C176.542 58.94 176.038 58.758 175.674 58.394C175.31 58.03 175.128 57.526 175.128 56.882V52.794C175.128 52.7053 175.105 52.6307 175.058 52.57L174.428 51.674C174.326 51.52 174.274 51.352 174.274 51.17C174.274 50.988 174.326 50.82 174.428 50.666L175.058 49.77C175.105 49.6907 175.128 49.616 175.128 49.546V45.458C175.128 44.8187 175.31 44.317 175.674 43.953C176.038 43.5843 176.542 43.4 177.186 43.4H178.18V45.192H177.326C177.214 45.192 177.119 45.2317 177.039 45.311C176.96 45.3903 176.92 45.486 176.92 45.598V49.546C176.92 50.0033 176.785 50.4233 176.514 50.806L176.248 51.17L176.514 51.534C176.785 51.9167 176.92 52.3367 176.92 52.794V56.742C176.92 56.8587 176.96 56.9567 177.039 57.036C177.119 57.12 177.214 57.162 177.326 57.162H178.18V58.94H177.186ZM13.2202 79.21C12.4362 79.21 11.7642 79.035 11.2042 78.685C10.6442 78.335 10.2149 77.859 9.9162 77.257C9.61754 76.655 9.4682 75.976 9.4682 75.22C9.4682 74.4547 9.6222 73.771 9.9302 73.169C10.2429 72.567 10.6815 72.0933 11.2462 71.748C11.8109 71.4027 12.4782 71.23 13.2482 71.23C14.1395 71.23 14.8862 71.4563 15.4882 71.909C16.0949 72.357 16.4822 72.9707 16.6502 73.75L14.7462 74.254C14.6342 73.862 14.4382 73.5563 14.1582 73.337C13.8829 73.1177 13.5702 73.008 13.2202 73.008C12.8189 73.008 12.4899 73.106 12.2332 73.302C11.9765 73.4933 11.7875 73.757 11.6662 74.093C11.5449 74.4243 11.4842 74.8 11.4842 75.22C11.4842 75.878 11.6289 76.4123 11.9182 76.823C12.2122 77.229 12.6462 77.432 13.2202 77.432C13.6495 77.432 13.9762 77.334 14.2002 77.138C14.4242 76.942 14.5922 76.662 14.7042 76.298L16.6502 76.704C16.4355 77.5067 16.0295 78.125 15.4322 78.559C14.8349 78.993 14.0975 79.21 13.2202 79.21ZM21.2472 79.21C20.4866 79.21 19.8192 79.0397 19.2452 78.699C18.6712 78.3583 18.2232 77.8893 17.9012 77.292C17.5839 76.69 17.4252 75.9993 17.4252 75.22C17.4252 74.4313 17.5886 73.7383 17.9152 73.141C18.2419 72.539 18.6922 72.07 19.2662 71.734C19.8402 71.398 20.5006 71.23 21.2472 71.23C22.0079 71.23 22.6752 71.4003 23.2492 71.741C23.8279 72.0817 24.2782 72.553 24.6002 73.155C24.9222 73.7523 25.0832 74.4407 25.0832 75.22C25.0832 76.004 24.9199 76.697 24.5932 77.299C24.2712 77.8963 23.8209 78.3653 23.2422 78.706C22.6682 79.042 22.0032 79.21 21.2472 79.21ZM21.2472 77.432C21.8586 77.432 22.3136 77.2267 22.6122 76.816C22.9156 76.4007 23.0672 75.8687 23.0672 75.22C23.0672 74.548 22.9132 74.0113 22.6052 73.61C22.3019 73.2087 21.8492 73.008 21.2472 73.008C20.8319 73.008 20.4912 73.1013 20.2252 73.288C19.9592 73.4747 19.7609 73.7337 19.6302 74.065C19.5042 74.3963 19.4412 74.7813 19.4412 75.22C19.4412 75.8967 19.5929 76.4357 19.8962 76.837C20.2042 77.2337 20.6546 77.432 21.2472 77.432ZM31.7746 79V75.43C31.7746 75.2573 31.7652 75.038 31.7466 74.772C31.7279 74.5013 31.6696 74.2307 31.5716 73.96C31.4736 73.6893 31.3126 73.463 31.0886 73.281C30.8692 73.099 30.5566 73.008 30.1506 73.008C29.9872 73.008 29.8122 73.0337 29.6256 73.085C29.4389 73.1363 29.2639 73.2367 29.1006 73.386C28.9372 73.5307 28.8019 73.7453 28.6946 74.03C28.5919 74.3147 28.5406 74.6927 28.5406 75.164L27.4486 74.646C27.4486 74.0487 27.5699 73.4887 27.8126 72.966C28.0552 72.4433 28.4192 72.021 28.9046 71.699C29.3946 71.377 30.0106 71.216 30.7526 71.216C31.3452 71.216 31.8282 71.3163 32.2016 71.517C32.5749 71.7177 32.8642 71.972 33.0696 72.28C33.2796 72.588 33.4289 72.91 33.5176 73.246C33.6062 73.5773 33.6599 73.8807 33.6786 74.156C33.6972 74.4313 33.7066 74.632 33.7066 74.758V79H31.7746ZM26.6086 79V71.44H28.3026V73.946H28.5406V79H26.6086ZM38.477 79.21C37.525 79.21 36.755 78.9953 36.167 78.566C35.5836 78.132 35.229 77.5207 35.103 76.732L37.049 76.438C37.1283 76.7927 37.3033 77.0703 37.574 77.271C37.8493 77.4717 38.197 77.572 38.617 77.572C38.9623 77.572 39.2283 77.5067 39.415 77.376C39.6016 77.2407 39.695 77.054 39.695 76.816C39.695 76.6667 39.6576 76.5477 39.583 76.459C39.5083 76.3657 39.3403 76.2747 39.079 76.186C38.8223 76.0973 38.421 75.9807 37.875 75.836C37.259 75.6773 36.7666 75.5 36.398 75.304C36.0293 75.108 35.7633 74.8747 35.6 74.604C35.4366 74.3287 35.355 73.9973 35.355 73.61C35.355 73.1247 35.4786 72.7047 35.726 72.35C35.9733 71.9907 36.321 71.7153 36.769 71.524C37.2216 71.328 37.7536 71.23 38.365 71.23C38.9576 71.23 39.4826 71.321 39.94 71.503C40.3973 71.685 40.766 71.944 41.046 72.28C41.3306 72.616 41.5056 73.0127 41.571 73.47L39.625 73.82C39.5923 73.54 39.471 73.3183 39.261 73.155C39.051 72.9917 38.7663 72.896 38.407 72.868C38.057 72.8447 37.7746 72.8913 37.56 73.008C37.35 73.1247 37.245 73.2927 37.245 73.512C37.245 73.6427 37.2893 73.7523 37.378 73.841C37.4713 73.9297 37.6603 74.0207 37.945 74.114C38.2343 74.2073 38.673 74.3287 39.261 74.478C39.835 74.6273 40.2946 74.8023 40.64 75.003C40.99 75.199 41.2443 75.437 41.403 75.717C41.5616 75.9923 41.641 76.326 41.641 76.718C41.641 77.4927 41.361 78.1017 40.801 78.545C40.241 78.9883 39.4663 79.21 38.477 79.21ZM46.5812 79.21C45.8206 79.21 45.1532 79.0397 44.5792 78.699C44.0052 78.3583 43.5572 77.8893 43.2352 77.292C42.9179 76.69 42.7592 75.9993 42.7592 75.22C42.7592 74.4313 42.9226 73.7383 43.2492 73.141C43.5759 72.539 44.0262 72.07 44.6002 71.734C45.1742 71.398 45.8346 71.23 46.5812 71.23C47.3419 71.23 48.0092 71.4003 48.5832 71.741C49.1619 72.0817 49.6122 72.553 49.9342 73.155C50.2562 73.7523 50.4172 74.4407 50.4172 75.22C50.4172 76.004 50.2539 76.697 49.9272 77.299C49.6052 77.8963 49.1549 78.3653 48.5762 78.706C48.0022 79.042 47.3372 79.21 46.5812 79.21ZM46.5812 77.432C47.1926 77.432 47.6476 77.2267 47.9462 76.816C48.2496 76.4007 48.4012 75.8687 48.4012 75.22C48.4012 74.548 48.2472 74.0113 47.9392 73.61C47.6359 73.2087 47.1832 73.008 46.5812 73.008C46.1659 73.008 45.8252 73.1013 45.5592 73.288C45.2932 73.4747 45.0949 73.7337 44.9642 74.065C44.8382 74.3963 44.7752 74.7813 44.7752 75.22C44.7752 75.8967 44.9269 76.4357 45.2302 76.837C45.5382 77.2337 45.9886 77.432 46.5812 77.432ZM52.0966 79V68.71H54.0006V79H52.0966ZM59.6131 79.21C58.8385 79.21 58.1548 79.0443 57.5621 78.713C56.9741 78.377 56.5121 77.9173 56.1761 77.334C55.8448 76.746 55.6791 76.074 55.6791 75.318C55.6791 74.492 55.8425 73.7733 56.1691 73.162C56.4958 72.5507 56.9461 72.077 57.5201 71.741C58.0941 71.4003 58.7545 71.23 59.5011 71.23C60.2945 71.23 60.9688 71.4167 61.5241 71.79C62.0795 72.1633 62.4901 72.6883 62.7561 73.365C63.0221 74.0417 63.1155 74.8373 63.0361 75.752H61.1531V75.052C61.1531 74.282 61.0295 73.729 60.7821 73.393C60.5395 73.0523 60.1405 72.882 59.5851 72.882C58.9365 72.882 58.4581 73.0803 58.1501 73.477C57.8468 73.869 57.6951 74.45 57.6951 75.22C57.6951 75.9247 57.8468 76.4707 58.1501 76.858C58.4581 77.2407 58.9085 77.432 59.5011 77.432C59.8745 77.432 60.1941 77.3503 60.4601 77.187C60.7261 77.0237 60.9291 76.788 61.0691 76.48L62.9731 77.026C62.6885 77.7167 62.2381 78.2533 61.6221 78.636C61.0108 79.0187 60.3411 79.21 59.6131 79.21ZM57.1071 75.752V74.338H62.1191V75.752H57.1071ZM64.6513 79V77.096H66.5553V79H64.6513ZM68.9677 79V68.71H70.8717V79H68.9677ZM76.3722 79.21C75.6116 79.21 74.9442 79.0397 74.3702 78.699C73.7962 78.3583 73.3482 77.8893 73.0262 77.292C72.7089 76.69 72.5502 75.9993 72.5502 75.22C72.5502 74.4313 72.7136 73.7383 73.0402 73.141C73.3669 72.539 73.8172 72.07 74.3912 71.734C74.9652 71.398 75.6256 71.23 76.3722 71.23C77.1329 71.23 77.8002 71.4003 78.3742 71.741C78.9529 72.0817 79.4032 72.553 79.7252 73.155C80.0472 73.7523 80.2082 74.4407 80.2082 75.22C80.2082 76.004 80.0449 76.697 79.7182 77.299C79.3962 77.8963 78.9459 78.3653 78.3672 78.706C77.7932 79.042 77.1282 79.21 76.3722 79.21ZM76.3722 77.432C76.9836 77.432 77.4386 77.2267 77.7372 76.816C78.0406 76.4007 78.1922 75.8687 78.1922 75.22C78.1922 74.548 78.0382 74.0113 77.7302 73.61C77.4269 73.2087 76.9742 73.008 76.3722 73.008C75.9569 73.008 75.6162 73.1013 75.3502 73.288C75.0842 73.4747 74.8859 73.7337 74.7552 74.065C74.6292 74.3963 74.5662 74.7813 74.5662 75.22C74.5662 75.8967 74.7179 76.4357 75.0212 76.837C75.3292 77.2337 75.7796 77.432 76.3722 77.432ZM84.9816 82.57C84.5522 82.57 84.1439 82.5 83.7566 82.36C83.3692 82.2247 83.0216 82.0333 82.7136 81.786C82.4102 81.5433 82.1629 81.2587 81.9716 80.932L83.7356 80.078C83.8569 80.302 84.0296 80.4723 84.2536 80.589C84.4822 80.7057 84.7296 80.764 84.9956 80.764C85.2802 80.764 85.5486 80.715 85.8006 80.617C86.0526 80.5237 86.2532 80.3813 86.4026 80.19C86.5566 80.0033 86.6289 79.77 86.6196 79.49V77.292H86.8576V71.44H88.5236V79.518C88.5236 79.7047 88.5142 79.8797 88.4956 80.043C88.4816 80.211 88.4536 80.3767 88.4116 80.54C88.2902 81.002 88.0639 81.3823 87.7326 81.681C87.4059 81.9797 87.0046 82.2013 86.5286 82.346C86.0526 82.4953 85.5369 82.57 84.9816 82.57ZM84.8136 79.21C84.1182 79.21 83.5092 79.035 82.9866 78.685C82.4639 78.335 82.0556 77.859 81.7616 77.257C81.4722 76.655 81.3276 75.976 81.3276 75.22C81.3276 74.45 81.4746 73.7663 81.7686 73.169C82.0672 72.567 82.4849 72.0933 83.0216 71.748C83.5582 71.4027 84.1882 71.23 84.9116 71.23C85.6302 71.23 86.2346 71.405 86.7246 71.755C87.2146 72.105 87.5856 72.581 87.8376 73.183C88.0896 73.785 88.2156 74.464 88.2156 75.22C88.2156 75.976 88.0872 76.655 87.8306 77.257C87.5786 77.859 87.2006 78.335 86.6966 78.685C86.1926 79.035 85.5649 79.21 84.8136 79.21ZM85.1216 77.516C85.5462 77.516 85.8846 77.4203 86.1366 77.229C86.3932 77.0377 86.5776 76.7693 86.6896 76.424C86.8016 76.0787 86.8576 75.6773 86.8576 75.22C86.8576 74.7627 86.8016 74.3613 86.6896 74.016C86.5776 73.6707 86.3979 73.4023 86.1506 73.211C85.9079 73.0197 85.5882 72.924 85.1916 72.924C84.7669 72.924 84.4169 73.029 84.1416 73.239C83.8709 73.4443 83.6702 73.722 83.5396 74.072C83.4089 74.4173 83.3436 74.8 83.3436 75.22C83.3436 75.6447 83.4066 76.032 83.5326 76.382C83.6586 76.7273 83.8522 77.0027 84.1136 77.208C84.3749 77.4133 84.7109 77.516 85.1216 77.516ZM93.9979 81.716C93.4566 81.0813 92.9922 80.3603 92.6049 79.553C92.2222 78.7457 91.9306 77.901 91.7299 77.019C91.5339 76.1323 91.4452 75.2527 91.4639 74.38C91.4452 73.5073 91.5339 72.6277 91.7299 71.741C91.9306 70.8543 92.2222 70.0097 92.6049 69.207C92.9922 68.3997 93.4566 67.6787 93.9979 67.044L95.4119 68.08C94.8426 68.766 94.3969 69.452 94.0749 70.138C93.7529 70.8193 93.5242 71.5123 93.3889 72.217C93.2582 72.917 93.1906 73.638 93.1859 74.38C93.1906 75.122 93.2582 75.8453 93.3889 76.55C93.5242 77.25 93.7529 77.943 94.0749 78.629C94.3969 79.3103 94.8426 79.994 95.4119 80.68L93.9979 81.716ZM96.8107 71.44V68.92H98.7147V71.44H96.8107ZM99.5547 71.44V68.92H101.459V71.44H99.5547ZM103.841 79V68.92H105.745V73.064H110.253V68.92H112.157V79H110.253V74.842H105.745V79H103.841ZM117.637 79.21C116.862 79.21 116.178 79.0443 115.586 78.713C114.998 78.377 114.536 77.9173 114.2 77.334C113.868 76.746 113.703 76.074 113.703 75.318C113.703 74.492 113.866 73.7733 114.193 73.162C114.519 72.5507 114.97 72.077 115.544 71.741C116.118 71.4003 116.778 71.23 117.525 71.23C118.318 71.23 118.992 71.4167 119.548 71.79C120.103 72.1633 120.514 72.6883 120.78 73.365C121.046 74.0417 121.139 74.8373 121.06 75.752H119.177V75.052C119.177 74.282 119.053 73.729 118.806 73.393C118.563 73.0523 118.164 72.882 117.609 72.882C116.96 72.882 116.482 73.0803 116.174 73.477C115.87 73.869 115.719 74.45 115.719 75.22C115.719 75.9247 115.87 76.4707 116.174 76.858C116.482 77.2407 116.932 77.432 117.525 77.432C117.898 77.432 118.218 77.3503 118.484 77.187C118.75 77.0237 118.953 76.788 119.093 76.48L120.997 77.026C120.712 77.7167 120.262 78.2533 119.646 78.636C119.034 79.0187 118.365 79.21 117.637 79.21ZM115.131 75.752V74.338H120.143V75.752H115.131ZM122.78 79V68.71H124.684V79H122.78ZM126.923 79V68.71H128.827V79H126.923ZM134.327 79.21C133.567 79.21 132.899 79.0397 132.325 78.699C131.751 78.3583 131.303 77.8893 130.981 77.292C130.664 76.69 130.505 75.9993 130.505 75.22C130.505 74.4313 130.669 73.7383 130.995 73.141C131.322 72.539 131.772 72.07 132.346 71.734C132.92 71.398 133.581 71.23 134.327 71.23C135.088 71.23 135.755 71.4003 136.329 71.741C136.908 72.0817 137.358 72.553 137.68 73.155C138.002 73.7523 138.163 74.4407 138.163 75.22C138.163 76.004 138 76.697 137.673 77.299C137.351 77.8963 136.901 78.3653 136.322 78.706C135.748 79.042 135.083 79.21 134.327 79.21ZM134.327 77.432C134.939 77.432 135.394 77.2267 135.692 76.816C135.996 76.4007 136.147 75.8687 136.147 75.22C136.147 74.548 135.993 74.0113 135.685 73.61C135.382 73.2087 134.929 73.008 134.327 73.008C133.912 73.008 133.571 73.1013 133.305 73.288C133.039 73.4747 132.841 73.7337 132.71 74.065C132.584 74.3963 132.521 74.7813 132.521 75.22C132.521 75.8967 132.673 76.4357 132.976 76.837C133.284 77.2337 133.735 77.432 134.327 77.432ZM139.289 80.89L139.401 80.092C139.625 80.1107 139.807 80.0733 139.947 79.98C140.087 79.8913 140.183 79.7607 140.234 79.588C140.29 79.42 140.302 79.224 140.269 79H139.289V77.096H141.193V79C141.193 79.672 141.037 80.1807 140.724 80.526C140.412 80.8713 139.933 80.9927 139.289 80.89ZM146.522 71.44V68.92H148.426V71.44H146.522ZM149.266 71.44V68.92H151.17V71.44H149.266ZM158.637 77.11V74.688H156.215V73.218H158.637V70.81H160.107V73.218H162.515V74.688H160.107V77.11H158.637ZM210.494 77.11V74.688H208.072V73.218H210.494V70.81H211.964V73.218H214.372V74.688H211.964V77.11H210.494ZM218.86 71.44V68.92H220.764V71.44H218.86ZM221.604 71.44V68.92H223.508V71.44H221.604ZM226.59 79V77.32H228.494V79H226.59ZM226.59 76.48V68.92H228.494V76.48H226.59ZM231.014 71.44V68.92H232.918V71.44H231.014ZM233.758 71.44V68.92H235.662V71.44H233.758ZM239.038 81.716L237.624 80.68C238.194 79.994 238.639 79.3103 238.961 78.629C239.283 77.943 239.51 77.25 239.64 76.55C239.776 75.8453 239.846 75.122 239.85 74.38C239.846 73.638 239.776 72.917 239.64 72.217C239.51 71.5123 239.283 70.8193 238.961 70.138C238.639 69.452 238.194 68.766 237.624 68.08L239.038 67.044C239.58 67.6787 240.042 68.3997 240.424 69.207C240.812 70.0097 241.103 70.8543 241.299 71.741C241.5 72.6277 241.591 73.5073 241.572 74.38C241.591 75.2527 241.5 76.1323 241.299 77.019C241.103 77.901 240.812 78.7457 240.424 79.553C240.042 80.3603 239.58 81.0813 239.038 81.716ZM245.071 80.89L245.183 80.092C245.407 80.1107 245.589 80.0733 245.729 79.98C245.869 79.8913 245.965 79.7607 246.016 79.588C246.072 79.42 246.084 79.224 246.051 79H245.071V77.096H246.975V79C246.975 79.672 246.819 80.1807 246.506 80.526C246.194 80.8713 245.715 80.9927 245.071 80.89ZM245.071 73.344V71.44H246.975V73.344H245.071ZM2.054 104.94H1.06V103.162H1.914C2.026 103.162 2.12167 103.12 2.201 103.036C2.28033 102.957 2.32 102.859 2.32 102.742V98.794C2.32 98.3367 2.45533 97.9167 2.726 97.534L2.992 97.17L2.726 96.806C2.45533 96.4233 2.32 96.0033 2.32 95.546V91.598C2.32 91.486 2.28033 91.3903 2.201 91.311C2.12167 91.2317 2.026 91.192 1.914 91.192H1.06V89.4H2.054C2.698 89.4 3.202 89.5843 3.566 89.953C3.93 90.317 4.112 90.8187 4.112 91.458V95.546C4.112 95.616 4.13533 95.6907 4.182 95.77L4.812 96.666C4.91933 96.82 4.973 96.988 4.973 97.17C4.973 97.352 4.91933 97.52 4.812 97.674L4.182 98.57C4.13533 98.6307 4.112 98.7053 4.112 98.794V102.882C4.112 103.526 3.93 104.03 3.566 104.394C3.202 104.758 2.698 104.94 2.054 104.94ZM8.46578 103.89L8.57778 103.092C8.80178 103.111 8.98378 103.073 9.12378 102.98C9.26378 102.891 9.35945 102.761 9.41078 102.588C9.46678 102.42 9.47845 102.224 9.44578 102H8.46578V100.096H10.3698V102C10.3698 102.672 10.2134 103.181 9.90078 103.526C9.58811 103.871 9.10978 103.993 8.46578 103.89ZM8.46578 96.344V94.44H10.3698V96.344H8.46578Z" fill="white"/>
<path d="M47.0285 59.57C46.5991 59.57 46.1908 59.5 45.8035 59.36C45.4161 59.2247 45.0685 59.0333 44.7605 58.786C44.4571 58.5433 44.2098 58.2587 44.0185 57.932L45.7825 57.078C45.9038 57.302 46.0765 57.4723 46.3005 57.589C46.5291 57.7057 46.7765 57.764 47.0425 57.764C47.3271 57.764 47.5955 57.715 47.8475 57.617C48.0995 57.5237 48.3001 57.3813 48.4495 57.19C48.6035 57.0033 48.6758 56.77 48.6665 56.49V54.292H48.9045V48.44H50.5705V56.518C50.5705 56.7047 50.5611 56.8797 50.5425 57.043C50.5285 57.211 50.5005 57.3767 50.4585 57.54C50.3371 58.002 50.1108 58.3823 49.7795 58.681C49.4528 58.9797 49.0515 59.2013 48.5755 59.346C48.0995 59.4953 47.5838 59.57 47.0285 59.57ZM46.8605 56.21C46.1651 56.21 45.5561 56.035 45.0335 55.685C44.5108 55.335 44.1025 54.859 43.8085 54.257C43.5191 53.655 43.3745 52.976 43.3745 52.22C43.3745 51.45 43.5215 50.7663 43.8155 50.169C44.1141 49.567 44.5318 49.0933 45.0685 48.748C45.6051 48.4027 46.2351 48.23 46.9585 48.23C47.6771 48.23 48.2815 48.405 48.7715 48.755C49.2615 49.105 49.6325 49.581 49.8845 50.183C50.1365 50.785 50.2625 51.464 50.2625 52.22C50.2625 52.976 50.1341 53.655 49.8775 54.257C49.6255 54.859 49.2475 55.335 48.7435 55.685C48.2395 56.035 47.6118 56.21 46.8605 56.21ZM47.1685 54.516C47.5931 54.516 47.9315 54.4203 48.1835 54.229C48.4401 54.0377 48.6245 53.7693 48.7365 53.424C48.8485 53.0787 48.9045 52.6773 48.9045 52.22C48.9045 51.7627 48.8485 51.3613 48.7365 51.016C48.6245 50.6707 48.4448 50.4023 48.1975 50.211C47.9548 50.0197 47.6351 49.924 47.2385 49.924C46.8138 49.924 46.4638 50.029 46.1885 50.239C45.9178 50.4443 45.7171 50.722 45.5865 51.072C45.4558 51.4173 45.3905 51.8 45.3905 52.22C45.3905 52.6447 45.4535 53.032 45.5795 53.382C45.7055 53.7273 45.8991 54.0027 46.1605 54.208C46.4218 54.4133 46.7578 54.516 47.1685 54.516ZM52.5308 56V48.44H54.2108V50.288L54.0288 50.05C54.1268 49.7887 54.2574 49.5507 54.4208 49.336C54.5841 49.1213 54.7848 48.944 55.0228 48.804C55.2048 48.692 55.4031 48.6057 55.6178 48.545C55.8324 48.4797 56.0541 48.44 56.2828 48.426C56.5114 48.4073 56.7401 48.412 56.9688 48.44V50.218C56.7588 50.1527 56.5138 50.1317 56.2338 50.155C55.9584 50.1737 55.7088 50.2367 55.4848 50.344C55.2608 50.4467 55.0718 50.5843 54.9178 50.757C54.7638 50.925 54.6471 51.1257 54.5678 51.359C54.4884 51.5877 54.4488 51.8467 54.4488 52.136V56H52.5308ZM61.6776 56.21C60.9029 56.21 60.2193 56.0443 59.6266 55.713C59.0386 55.377 58.5766 54.9173 58.2406 54.334C57.9093 53.746 57.7436 53.074 57.7436 52.318C57.7436 51.492 57.9069 50.7733 58.2336 50.162C58.5603 49.5507 59.0106 49.077 59.5846 48.741C60.1586 48.4003 60.8189 48.23 61.5656 48.23C62.3589 48.23 63.0333 48.4167 63.5886 48.79C64.1439 49.1633 64.5546 49.6883 64.8206 50.365C65.0866 51.0417 65.1799 51.8373 65.1006 52.752H63.2176V52.052C63.2176 51.282 63.0939 50.729 62.8466 50.393C62.6039 50.0523 62.2049 49.882 61.6496 49.882C61.0009 49.882 60.5226 50.0803 60.2146 50.477C59.9113 50.869 59.7596 51.45 59.7596 52.22C59.7596 52.9247 59.9113 53.4707 60.2146 53.858C60.5226 54.2407 60.9729 54.432 61.5656 54.432C61.9389 54.432 62.2586 54.3503 62.5246 54.187C62.7906 54.0237 62.9936 53.788 63.1336 53.48L65.0376 54.026C64.7529 54.7167 64.3026 55.2533 63.6866 55.636C63.0753 56.0187 62.4056 56.21 61.6776 56.21ZM59.1716 52.752V51.338H64.1836V52.752H59.1716ZM70.1952 56.21C69.4205 56.21 68.7368 56.0443 68.1442 55.713C67.5562 55.377 67.0942 54.9173 66.7582 54.334C66.4268 53.746 66.2612 53.074 66.2612 52.318C66.2612 51.492 66.4245 50.7733 66.7512 50.162C67.0778 49.5507 67.5282 49.077 68.1022 48.741C68.6762 48.4003 69.3365 48.23 70.0832 48.23C70.8765 48.23 71.5508 48.4167 72.1062 48.79C72.6615 49.1633 73.0722 49.6883 73.3382 50.365C73.6042 51.0417 73.6975 51.8373 73.6182 52.752H71.7352V52.052C71.7352 51.282 71.6115 50.729 71.3642 50.393C71.1215 50.0523 70.7225 49.882 70.1672 49.882C69.5185 49.882 69.0402 50.0803 68.7322 50.477C68.4288 50.869 68.2772 51.45 68.2772 52.22C68.2772 52.9247 68.4288 53.4707 68.7322 53.858C69.0402 54.2407 69.4905 54.432 70.0832 54.432C70.4565 54.432 70.7762 54.3503 71.0422 54.187C71.3082 54.0237 71.5112 53.788 71.6512 53.48L73.5552 54.026C73.2705 54.7167 72.8202 55.2533 72.2042 55.636C71.5928 56.0187 70.9232 56.21 70.1952 56.21ZM67.6892 52.752V51.338H72.7012V52.752H67.6892ZM79.7348 56C79.2121 56.098 78.6988 56.14 78.1948 56.126C77.6954 56.1167 77.2474 56.0303 76.8508 55.867C76.4588 55.699 76.1601 55.4307 75.9548 55.062C75.7681 54.7167 75.6701 54.3667 75.6608 54.012C75.6514 53.6527 75.6468 53.2467 75.6468 52.794V46.34H77.5508V52.682C77.5508 52.976 77.5531 53.242 77.5578 53.48C77.5671 53.7133 77.6161 53.9 77.7048 54.04C77.8728 54.306 78.1411 54.4507 78.5098 54.474C78.8784 54.4973 79.2868 54.4787 79.7348 54.418V56ZM74.3588 49.91V48.44H79.7348V49.91H74.3588Z" fill="#FFD966"/>
<path d="M109.144 56V52.43C109.144 52.2573 109.134 52.038 109.116 51.772C109.097 51.5013 109.039 51.2307 108.941 50.96C108.843 50.6893 108.682 50.463 108.458 50.281C108.238 50.099 107.926 50.008 107.52 50.008C107.356 50.008 107.181 50.0337 106.995 50.085C106.808 50.1363 106.633 50.2367 106.47 50.386C106.306 50.5307 106.171 50.7453 106.064 51.03C105.961 51.3147 105.91 51.6927 105.91 52.164L104.818 51.646C104.818 51.0487 104.939 50.4887 105.182 49.966C105.424 49.4433 105.788 49.021 106.274 48.699C106.764 48.377 107.38 48.216 108.122 48.216C108.714 48.216 109.197 48.3163 109.571 48.517C109.944 48.7177 110.233 48.972 110.439 49.28C110.649 49.588 110.798 49.91 110.887 50.246C110.975 50.5773 111.029 50.8807 111.048 51.156C111.066 51.4313 111.076 51.632 111.076 51.758V56H109.144ZM103.978 56V48.44H105.672V50.946H105.91V56H103.978ZM114.992 56.21C114.451 56.21 113.991 56.1073 113.613 55.902C113.24 55.692 112.955 55.4143 112.759 55.069C112.568 54.719 112.472 54.334 112.472 53.914C112.472 53.564 112.526 53.2443 112.633 52.955C112.74 52.6657 112.913 52.4113 113.151 52.192C113.394 51.968 113.718 51.7813 114.124 51.632C114.404 51.5293 114.738 51.4383 115.125 51.359C115.512 51.2797 115.951 51.205 116.441 51.135C116.931 51.0603 117.47 50.9787 118.058 50.89L117.372 51.268C117.372 50.82 117.265 50.491 117.05 50.281C116.835 50.071 116.476 49.966 115.972 49.966C115.692 49.966 115.4 50.0337 115.097 50.169C114.794 50.3043 114.581 50.5447 114.46 50.89L112.738 50.344C112.929 49.7187 113.289 49.21 113.816 48.818C114.343 48.426 115.062 48.23 115.972 48.23C116.639 48.23 117.232 48.3327 117.75 48.538C118.268 48.7433 118.66 49.098 118.926 49.602C119.075 49.882 119.164 50.162 119.192 50.442C119.22 50.722 119.234 51.0347 119.234 51.38V56H117.568V54.446L117.806 54.768C117.437 55.2767 117.038 55.6453 116.609 55.874C116.184 56.098 115.645 56.21 114.992 56.21ZM115.398 54.712C115.748 54.712 116.042 54.6513 116.28 54.53C116.523 54.404 116.714 54.2617 116.854 54.103C116.999 53.9443 117.097 53.8113 117.148 53.704C117.246 53.4987 117.302 53.2607 117.316 52.99C117.335 52.7147 117.344 52.486 117.344 52.304L117.904 52.444C117.339 52.5373 116.882 52.6167 116.532 52.682C116.182 52.7427 115.9 52.7987 115.685 52.85C115.47 52.9013 115.281 52.9573 115.118 53.018C114.931 53.0927 114.78 53.1743 114.663 53.263C114.551 53.347 114.467 53.4403 114.411 53.543C114.36 53.6457 114.334 53.76 114.334 53.886C114.334 54.0587 114.376 54.208 114.46 54.334C114.549 54.4553 114.672 54.5487 114.831 54.614C114.99 54.6793 115.179 54.712 115.398 54.712ZM130.154 56V51.534C130.154 51.0347 130.035 50.6473 129.797 50.372C129.564 50.092 129.24 49.952 128.824 49.952C128.558 49.952 128.327 50.015 128.131 50.141C127.935 50.2623 127.781 50.435 127.669 50.659C127.562 50.8783 127.508 51.1327 127.508 51.422L126.71 50.89C126.71 50.372 126.832 49.9147 127.074 49.518C127.322 49.1213 127.651 48.8133 128.061 48.594C128.477 48.37 128.936 48.258 129.44 48.258C130.304 48.258 130.955 48.5147 131.393 49.028C131.837 49.5367 132.058 50.204 132.058 51.03V56H130.154ZM121.04 56V48.44H122.72V50.946H122.958V56H121.04ZM125.604 56V51.534C125.604 51.0347 125.485 50.6473 125.247 50.372C125.014 50.092 124.69 49.952 124.274 49.952C123.878 49.952 123.558 50.0897 123.315 50.365C123.077 50.6357 122.958 50.988 122.958 51.422L122.16 50.862C122.16 50.3673 122.284 49.924 122.531 49.532C122.779 49.14 123.11 48.8297 123.525 48.601C123.945 48.3723 124.414 48.258 124.932 48.258C125.525 48.258 126.01 48.384 126.388 48.636C126.771 48.888 127.053 49.224 127.235 49.644C127.417 50.064 127.508 50.526 127.508 51.03V56H125.604ZM137.256 56.21C136.481 56.21 135.797 56.0443 135.205 55.713C134.617 55.377 134.155 54.9173 133.819 54.334C133.487 53.746 133.322 53.074 133.322 52.318C133.322 51.492 133.485 50.7733 133.812 50.162C134.138 49.5507 134.589 49.077 135.163 48.741C135.737 48.4003 136.397 48.23 137.144 48.23C137.937 48.23 138.611 48.4167 139.167 48.79C139.722 49.1633 140.133 49.6883 140.399 50.365C140.665 51.0417 140.758 51.8373 140.679 52.752H138.796V52.052C138.796 51.282 138.672 50.729 138.425 50.393C138.182 50.0523 137.783 49.882 137.228 49.882C136.579 49.882 136.101 50.0803 135.793 50.477C135.489 50.869 135.338 51.45 135.338 52.22C135.338 52.9247 135.489 53.4707 135.793 53.858C136.101 54.2407 136.551 54.432 137.144 54.432C137.517 54.432 137.837 54.3503 138.103 54.187C138.369 54.0237 138.572 53.788 138.712 53.48L140.616 54.026C140.331 54.7167 139.881 55.2533 139.265 55.636C138.653 56.0187 137.984 56.21 137.256 56.21ZM134.75 52.752V51.338H139.762V52.752H134.75ZM151.668 50.33V48.86H158.808V50.33H151.668ZM151.668 53.06V51.59H158.808V53.06H151.668ZM164.17 54.978L162.994 53.802L165.29 51.59L162.994 49.378L164.17 48.202L167.558 51.59L164.17 54.978ZM172.294 79V75.43C172.294 75.2573 172.285 75.038 172.266 74.772C172.247 74.5013 172.189 74.2307 172.091 73.96C171.993 73.6893 171.832 73.463 171.608 73.281C171.389 73.099 171.076 73.008 170.67 73.008C170.507 73.008 170.332 73.0337 170.145 73.085C169.958 73.1363 169.783 73.2367 169.62 73.386C169.457 73.5307 169.321 73.7453 169.214 74.03C169.111 74.3147 169.06 74.6927 169.06 75.164L167.968 74.646C167.968 74.0487 168.089 73.4887 168.332 72.966C168.575 72.4433 168.939 72.021 169.424 71.699C169.914 71.377 170.53 71.216 171.272 71.216C171.865 71.216 172.348 71.3163 172.721 71.517C173.094 71.7177 173.384 71.972 173.589 72.28C173.799 72.588 173.948 72.91 174.037 73.246C174.126 73.5773 174.179 73.8807 174.198 74.156C174.217 74.4313 174.226 74.632 174.226 74.758V79H172.294ZM167.128 79V71.44H168.822V73.946H169.06V79H167.128ZM178.143 79.21C177.601 79.21 177.142 79.1073 176.764 78.902C176.39 78.692 176.106 78.4143 175.91 78.069C175.718 77.719 175.623 77.334 175.623 76.914C175.623 76.564 175.676 76.2443 175.784 75.955C175.891 75.6657 176.064 75.4113 176.302 75.192C176.544 74.968 176.869 74.7813 177.275 74.632C177.555 74.5293 177.888 74.4383 178.276 74.359C178.663 74.2797 179.102 74.205 179.592 74.135C180.082 74.0603 180.621 73.9787 181.209 73.89L180.523 74.268C180.523 73.82 180.415 73.491 180.201 73.281C179.986 73.071 179.627 72.966 179.123 72.966C178.843 72.966 178.551 73.0337 178.248 73.169C177.944 73.3043 177.732 73.5447 177.611 73.89L175.889 73.344C176.08 72.7187 176.439 72.21 176.967 71.818C177.494 71.426 178.213 71.23 179.123 71.23C179.79 71.23 180.383 71.3327 180.901 71.538C181.419 71.7433 181.811 72.098 182.077 72.602C182.226 72.882 182.315 73.162 182.343 73.442C182.371 73.722 182.385 74.0347 182.385 74.38V79H180.719V77.446L180.957 77.768C180.588 78.2767 180.189 78.6453 179.76 78.874C179.335 79.098 178.796 79.21 178.143 79.21ZM178.549 77.712C178.899 77.712 179.193 77.6513 179.431 77.53C179.673 77.404 179.865 77.2617 180.005 77.103C180.149 76.9443 180.247 76.8113 180.299 76.704C180.397 76.4987 180.453 76.2607 180.467 75.99C180.485 75.7147 180.495 75.486 180.495 75.304L181.055 75.444C180.49 75.5373 180.033 75.6167 179.683 75.682C179.333 75.7427 179.05 75.7987 178.836 75.85C178.621 75.9013 178.432 75.9573 178.269 76.018C178.082 76.0927 177.93 76.1743 177.814 76.263C177.702 76.347 177.618 76.4403 177.562 76.543C177.51 76.6457 177.485 76.76 177.485 76.886C177.485 77.0587 177.527 77.208 177.611 77.334C177.699 77.4553 177.823 77.5487 177.982 77.614C178.14 77.6793 178.329 77.712 178.549 77.712ZM193.305 79V74.534C193.305 74.0347 193.186 73.6473 192.948 73.372C192.714 73.092 192.39 72.952 191.975 72.952C191.709 72.952 191.478 73.015 191.282 73.141C191.086 73.2623 190.932 73.435 190.82 73.659C190.712 73.8783 190.659 74.1327 190.659 74.422L189.861 73.89C189.861 73.372 189.982 72.9147 190.225 72.518C190.472 72.1213 190.801 71.8133 191.212 71.594C191.627 71.37 192.087 71.258 192.591 71.258C193.454 71.258 194.105 71.5147 194.544 72.028C194.987 72.5367 195.209 73.204 195.209 74.03V79H193.305ZM184.191 79V71.44H185.871V73.946H186.109V79H184.191ZM188.755 79V74.534C188.755 74.0347 188.636 73.6473 188.398 73.372C188.164 73.092 187.84 72.952 187.425 72.952C187.028 72.952 186.708 73.0897 186.466 73.365C186.228 73.6357 186.109 73.988 186.109 74.422L185.311 73.862C185.311 73.3673 185.434 72.924 185.682 72.532C185.929 72.14 186.26 71.8297 186.676 71.601C187.096 71.3723 187.565 71.258 188.083 71.258C188.675 71.258 189.161 71.384 189.539 71.636C189.921 71.888 190.204 72.224 190.386 72.644C190.568 73.064 190.659 73.526 190.659 74.03V79H188.755ZM200.406 79.21C199.631 79.21 198.948 79.0443 198.355 78.713C197.767 78.377 197.305 77.9173 196.969 77.334C196.638 76.746 196.472 76.074 196.472 75.318C196.472 74.492 196.635 73.7733 196.962 73.162C197.289 72.5507 197.739 72.077 198.313 71.741C198.887 71.4003 199.547 71.23 200.294 71.23C201.087 71.23 201.762 71.4167 202.317 71.79C202.872 72.1633 203.283 72.6883 203.549 73.365C203.815 74.0417 203.908 74.8373 203.829 75.752H201.946V75.052C201.946 74.282 201.822 73.729 201.575 73.393C201.332 73.0523 200.933 72.882 200.378 72.882C199.729 72.882 199.251 73.0803 198.943 73.477C198.64 73.869 198.488 74.45 198.488 75.22C198.488 75.9247 198.64 76.4707 198.943 76.858C199.251 77.2407 199.701 77.432 200.294 77.432C200.667 77.432 200.987 77.3503 201.253 77.187C201.519 77.0237 201.722 76.788 201.862 76.48L203.766 77.026C203.481 77.7167 203.031 78.2533 202.415 78.636C201.804 79.0187 201.134 79.21 200.406 79.21ZM197.9 75.752V74.338H202.912V75.752H197.9Z" fill="#787DF7"/>
<path d="M191.793 50.2929C191.402 50.6834 191.402 51.3166 191.793 51.7071L198.157 58.0711C198.547 58.4616 199.181 58.4616 199.571 58.0711C199.962 57.6805 199.962 57.0474 199.571 56.6569L193.914 51L199.571 45.3431C199.962 44.9526 199.962 44.3195 199.571 43.9289C199.181 43.5384 198.547 43.5384 198.157 43.9289L191.793 50.2929ZM18.2929 96.7929C17.9024 97.1834 17.9024 97.8166 18.2929 98.2071L24.6569 104.571C25.0474 104.962 25.6805 104.962 26.0711 104.571C26.4616 104.181 26.4616 103.547 26.0711 103.157L20.4142 97.5L26.0711 91.8431C26.4616 91.4526 26.4616 90.8195 26.0711 90.4289C25.6805 90.0384 25.0474 90.0384 24.6569 90.4289L18.2929 96.7929ZM192.5 52H259V50H192.5V52ZM268 61V87.5H270V61H268ZM259 96.5H19V98.5H259V96.5ZM268 87.5C268 92.4706 263.971 96.5 259 96.5V98.5C265.075 98.5 270 93.5751 270 87.5H268ZM259 52C263.971 52 268 56.0294 268 61H270C270 54.9249 265.075 50 259 50V52Z" fill="#787DF7"/>
<path d="M214.293 122.293C213.902 122.683 213.902 123.317 214.293 123.707L220.657 130.071C221.047 130.462 221.681 130.462 222.071 130.071C222.462 129.681 222.462 129.047 222.071 128.657L216.414 123L222.071 117.343C222.462 116.953 222.462 116.319 222.071 115.929C221.681 115.538 221.047 115.538 220.657 115.929L214.293 122.293ZM269 85H290.5V83H269V85ZM299.5 94V113H301.5V94H299.5ZM290.5 122H215V124H290.5V122ZM299.5 113C299.5 117.971 295.471 122 290.5 122V124C296.575 124 301.5 119.075 301.5 113H299.5ZM290.5 85C295.471 85 299.5 89.0294 299.5 94H301.5C301.5 87.9249 296.575 83 290.5 83V85Z" fill="white"/>
<path d="M65.98 127V116.92H72.14V118.824H67.884V121.008H71.3V122.912H67.884V127H65.98ZM76.2178 127.224C75.6252 127.224 75.1422 127.124 74.7688 126.923C74.3955 126.722 74.1038 126.468 73.8938 126.16C73.6885 125.852 73.5415 125.532 73.4528 125.201C73.3642 124.865 73.3105 124.559 73.2918 124.284C73.2732 124.009 73.2638 123.808 73.2638 123.682V119.44H75.1958V123.01C75.1958 123.183 75.2052 123.404 75.2238 123.675C75.2425 123.941 75.3008 124.209 75.3988 124.48C75.4968 124.751 75.6555 124.977 75.8748 125.159C76.0988 125.341 76.4138 125.432 76.8198 125.432C76.9832 125.432 77.1582 125.406 77.3448 125.355C77.5315 125.304 77.7065 125.206 77.8698 125.061C78.0332 124.912 78.1662 124.695 78.2688 124.41C78.3762 124.121 78.4298 123.743 78.4298 123.276L79.5218 123.794C79.5218 124.391 79.4005 124.951 79.1578 125.474C78.9152 125.997 78.5488 126.419 78.0588 126.741C77.5735 127.063 76.9598 127.224 76.2178 127.224ZM78.6678 127V124.494H78.4298V119.44H80.3478V127H78.6678ZM87.4562 127V123.43C87.4562 123.257 87.4469 123.038 87.4282 122.772C87.4096 122.501 87.3512 122.231 87.2532 121.96C87.1552 121.689 86.9942 121.463 86.7702 121.281C86.5509 121.099 86.2382 121.008 85.8322 121.008C85.6689 121.008 85.4939 121.034 85.3072 121.085C85.1206 121.136 84.9456 121.237 84.7822 121.386C84.6189 121.531 84.4836 121.745 84.3762 122.03C84.2736 122.315 84.2222 122.693 84.2222 123.164L83.1302 122.646C83.1302 122.049 83.2516 121.489 83.4942 120.966C83.7369 120.443 84.1009 120.021 84.5862 119.699C85.0762 119.377 85.6922 119.216 86.4342 119.216C87.0269 119.216 87.5099 119.316 87.8832 119.517C88.2566 119.718 88.5459 119.972 88.7512 120.28C88.9612 120.588 89.1106 120.91 89.1992 121.246C89.2879 121.577 89.3416 121.881 89.3602 122.156C89.3789 122.431 89.3882 122.632 89.3882 122.758V127H87.4562ZM82.2902 127V119.44H83.9842V121.946H84.2222V127H82.2902ZM94.3999 127.21C93.6159 127.21 92.9439 127.035 92.3839 126.685C91.8239 126.335 91.3946 125.859 91.0959 125.257C90.7972 124.655 90.6479 123.976 90.6479 123.22C90.6479 122.455 90.8019 121.771 91.1099 121.169C91.4226 120.567 91.8612 120.093 92.4259 119.748C92.9906 119.403 93.6579 119.23 94.4279 119.23C95.3192 119.23 96.0659 119.456 96.6679 119.909C97.2746 120.357 97.6619 120.971 97.8299 121.75L95.9259 122.254C95.8139 121.862 95.6179 121.556 95.3379 121.337C95.0626 121.118 94.7499 121.008 94.3999 121.008C93.9986 121.008 93.6696 121.106 93.4129 121.302C93.1562 121.493 92.9672 121.757 92.8459 122.093C92.7246 122.424 92.6639 122.8 92.6639 123.22C92.6639 123.878 92.8086 124.412 93.0979 124.823C93.3919 125.229 93.8259 125.432 94.3999 125.432C94.8292 125.432 95.1559 125.334 95.3799 125.138C95.6039 124.942 95.7719 124.662 95.8839 124.298L97.8299 124.704C97.6152 125.507 97.2092 126.125 96.6119 126.559C96.0146 126.993 95.2772 127.21 94.3999 127.21ZM103.766 127C103.243 127.098 102.73 127.14 102.226 127.126C101.727 127.117 101.279 127.03 100.882 126.867C100.49 126.699 100.191 126.431 99.986 126.062C99.7993 125.717 99.7013 125.367 99.692 125.012C99.6827 124.653 99.678 124.247 99.678 123.794V117.34H101.582V123.682C101.582 123.976 101.584 124.242 101.589 124.48C101.598 124.713 101.647 124.9 101.736 125.04C101.904 125.306 102.172 125.451 102.541 125.474C102.91 125.497 103.318 125.479 103.766 125.418V127ZM98.39 120.91V119.44H103.766V120.91H98.39ZM105.591 118.39V116.71H107.495V118.39H105.591ZM105.591 127V119.44H107.495V127H105.591ZM112.995 127.21C112.235 127.21 111.567 127.04 110.993 126.699C110.419 126.358 109.971 125.889 109.649 125.292C109.332 124.69 109.173 123.999 109.173 123.22C109.173 122.431 109.337 121.738 109.663 121.141C109.99 120.539 110.44 120.07 111.014 119.734C111.588 119.398 112.249 119.23 112.995 119.23C113.756 119.23 114.423 119.4 114.997 119.741C115.576 120.082 116.026 120.553 116.348 121.155C116.67 121.752 116.831 122.441 116.831 123.22C116.831 124.004 116.668 124.697 116.341 125.299C116.019 125.896 115.569 126.365 114.99 126.706C114.416 127.042 113.751 127.21 112.995 127.21ZM112.995 125.432C113.607 125.432 114.062 125.227 114.36 124.816C114.664 124.401 114.815 123.869 114.815 123.22C114.815 122.548 114.661 122.011 114.353 121.61C114.05 121.209 113.597 121.008 112.995 121.008C112.58 121.008 112.239 121.101 111.973 121.288C111.707 121.475 111.509 121.734 111.378 122.065C111.252 122.396 111.189 122.781 111.189 123.22C111.189 123.897 111.341 124.436 111.644 124.837C111.952 125.234 112.403 125.432 112.995 125.432ZM123.523 127V123.43C123.523 123.257 123.513 123.038 123.495 122.772C123.476 122.501 123.418 122.231 123.32 121.96C123.222 121.689 123.061 121.463 122.837 121.281C122.617 121.099 122.305 121.008 121.899 121.008C121.735 121.008 121.56 121.034 121.374 121.085C121.187 121.136 121.012 121.237 120.849 121.386C120.685 121.531 120.55 121.745 120.443 122.03C120.34 122.315 120.289 122.693 120.289 123.164L119.197 122.646C119.197 122.049 119.318 121.489 119.561 120.966C119.803 120.443 120.167 120.021 120.653 119.699C121.143 119.377 121.759 119.216 122.501 119.216C123.093 119.216 123.576 119.316 123.95 119.517C124.323 119.718 124.612 119.972 124.818 120.28C125.028 120.588 125.177 120.91 125.266 121.246C125.354 121.577 125.408 121.881 125.427 122.156C125.445 122.431 125.455 122.632 125.455 122.758V127H123.523ZM118.357 127V119.44H120.051V121.946H120.289V127H118.357ZM130.074 127V116.92H136.654V118.698H131.978V120.854H135.814V122.632H131.978V125.222H136.654V127H130.074ZM137.492 127L140.194 123.178L137.548 119.44H139.788L141.3 121.68L142.784 119.44H145.024L142.378 123.178L145.094 127H142.854L141.3 124.676L139.732 127H137.492ZM149.93 127.21C149.179 127.21 148.551 127.035 148.047 126.685C147.543 126.335 147.163 125.859 146.906 125.257C146.654 124.655 146.528 123.976 146.528 123.22C146.528 122.464 146.654 121.785 146.906 121.183C147.158 120.581 147.529 120.105 148.019 119.755C148.509 119.405 149.114 119.23 149.832 119.23C150.556 119.23 151.186 119.403 151.722 119.748C152.259 120.093 152.674 120.567 152.968 121.169C153.267 121.766 153.416 122.45 153.416 123.22C153.416 123.976 153.269 124.655 152.975 125.257C152.686 125.859 152.28 126.335 151.757 126.685C151.235 127.035 150.626 127.21 149.93 127.21ZM146.206 130.36V119.44H147.886V124.62H148.124V130.36H146.206ZM149.622 125.516C150.033 125.516 150.369 125.413 150.63 125.208C150.892 125.003 151.085 124.727 151.211 124.382C151.337 124.032 151.4 123.645 151.4 123.22C151.4 122.8 151.335 122.417 151.204 122.072C151.074 121.722 150.871 121.444 150.595 121.239C150.325 121.029 149.977 120.924 149.552 120.924C149.156 120.924 148.834 121.02 148.586 121.211C148.344 121.402 148.166 121.671 148.054 122.016C147.942 122.361 147.886 122.763 147.886 123.22C147.886 123.677 147.942 124.079 148.054 124.424C148.166 124.769 148.348 125.038 148.6 125.229C148.857 125.42 149.198 125.516 149.622 125.516ZM154.957 127V119.44H156.637V121.288L156.455 121.05C156.553 120.789 156.683 120.551 156.847 120.336C157.01 120.121 157.211 119.944 157.449 119.804C157.631 119.692 157.829 119.606 158.044 119.545C158.258 119.48 158.48 119.44 158.709 119.426C158.937 119.407 159.166 119.412 159.395 119.44V121.218C159.185 121.153 158.94 121.132 158.66 121.155C158.384 121.174 158.135 121.237 157.911 121.344C157.687 121.447 157.498 121.584 157.344 121.757C157.19 121.925 157.073 122.126 156.994 122.359C156.914 122.588 156.875 122.847 156.875 123.136V127H154.957ZM164.103 127.21C163.329 127.21 162.645 127.044 162.052 126.713C161.464 126.377 161.002 125.917 160.666 125.334C160.335 124.746 160.169 124.074 160.169 123.318C160.169 122.492 160.333 121.773 160.659 121.162C160.986 120.551 161.436 120.077 162.01 119.741C162.584 119.4 163.245 119.23 163.991 119.23C164.785 119.23 165.459 119.417 166.014 119.79C166.57 120.163 166.98 120.688 167.246 121.365C167.512 122.042 167.606 122.837 167.526 123.752H165.643V123.052C165.643 122.282 165.52 121.729 165.272 121.393C165.03 121.052 164.631 120.882 164.075 120.882C163.427 120.882 162.948 121.08 162.64 121.477C162.337 121.869 162.185 122.45 162.185 123.22C162.185 123.925 162.337 124.471 162.64 124.858C162.948 125.241 163.399 125.432 163.991 125.432C164.365 125.432 164.684 125.35 164.95 125.187C165.216 125.024 165.419 124.788 165.559 124.48L167.463 125.026C167.179 125.717 166.728 126.253 166.112 126.636C165.501 127.019 164.831 127.21 164.103 127.21ZM161.597 123.752V122.338H166.609V123.752H161.597ZM172.061 127.21C171.109 127.21 170.339 126.995 169.751 126.566C169.168 126.132 168.813 125.521 168.687 124.732L170.633 124.438C170.712 124.793 170.887 125.07 171.158 125.271C171.433 125.472 171.781 125.572 172.201 125.572C172.546 125.572 172.812 125.507 172.999 125.376C173.186 125.241 173.279 125.054 173.279 124.816C173.279 124.667 173.242 124.548 173.167 124.459C173.092 124.366 172.924 124.275 172.663 124.186C172.406 124.097 172.005 123.981 171.459 123.836C170.843 123.677 170.351 123.5 169.982 123.304C169.613 123.108 169.347 122.875 169.184 122.604C169.021 122.329 168.939 121.997 168.939 121.61C168.939 121.125 169.063 120.705 169.31 120.35C169.557 119.991 169.905 119.715 170.353 119.524C170.806 119.328 171.338 119.23 171.949 119.23C172.542 119.23 173.067 119.321 173.524 119.503C173.981 119.685 174.35 119.944 174.63 120.28C174.915 120.616 175.09 121.013 175.155 121.47L173.209 121.82C173.176 121.54 173.055 121.318 172.845 121.155C172.635 120.992 172.35 120.896 171.991 120.868C171.641 120.845 171.359 120.891 171.144 121.008C170.934 121.125 170.829 121.293 170.829 121.512C170.829 121.643 170.873 121.752 170.962 121.841C171.055 121.93 171.244 122.021 171.529 122.114C171.818 122.207 172.257 122.329 172.845 122.478C173.419 122.627 173.879 122.802 174.224 123.003C174.574 123.199 174.828 123.437 174.987 123.717C175.146 123.992 175.225 124.326 175.225 124.718C175.225 125.493 174.945 126.102 174.385 126.545C173.825 126.988 173.05 127.21 172.061 127.21ZM179.717 127.21C178.765 127.21 177.995 126.995 177.407 126.566C176.824 126.132 176.469 125.521 176.343 124.732L178.289 124.438C178.369 124.793 178.544 125.07 178.814 125.271C179.09 125.472 179.437 125.572 179.857 125.572C180.203 125.572 180.469 125.507 180.655 125.376C180.842 125.241 180.935 125.054 180.935 124.816C180.935 124.667 180.898 124.548 180.823 124.459C180.749 124.366 180.581 124.275 180.319 124.186C180.063 124.097 179.661 123.981 179.115 123.836C178.499 123.677 178.007 123.5 177.638 123.304C177.27 123.108 177.004 122.875 176.84 122.604C176.677 122.329 176.595 121.997 176.595 121.61C176.595 121.125 176.719 120.705 176.966 120.35C177.214 119.991 177.561 119.715 178.009 119.524C178.462 119.328 178.994 119.23 179.605 119.23C180.198 119.23 180.723 119.321 181.18 119.503C181.638 119.685 182.006 119.944 182.286 120.28C182.571 120.616 182.746 121.013 182.811 121.47L180.865 121.82C180.833 121.54 180.711 121.318 180.501 121.155C180.291 120.992 180.007 120.896 179.647 120.868C179.297 120.845 179.015 120.891 178.8 121.008C178.59 121.125 178.485 121.293 178.485 121.512C178.485 121.643 178.53 121.752 178.618 121.841C178.712 121.93 178.901 122.021 179.185 122.114C179.475 122.207 179.913 122.329 180.501 122.478C181.075 122.627 181.535 122.802 181.88 123.003C182.23 123.199 182.485 123.437 182.643 123.717C182.802 123.992 182.881 124.326 182.881 124.718C182.881 125.493 182.601 126.102 182.041 126.545C181.481 126.988 180.707 127.21 179.717 127.21ZM184.559 118.39V116.71H186.463V118.39H184.559ZM184.559 127V119.44H186.463V127H184.559ZM191.964 127.21C191.203 127.21 190.536 127.04 189.962 126.699C189.388 126.358 188.94 125.889 188.618 125.292C188.301 124.69 188.142 123.999 188.142 123.22C188.142 122.431 188.305 121.738 188.632 121.141C188.959 120.539 189.409 120.07 189.983 119.734C190.557 119.398 191.217 119.23 191.964 119.23C192.725 119.23 193.392 119.4 193.966 119.741C194.545 120.082 194.995 120.553 195.317 121.155C195.639 121.752 195.8 122.441 195.8 123.22C195.8 124.004 195.637 124.697 195.31 125.299C194.988 125.896 194.538 126.365 193.959 126.706C193.385 127.042 192.72 127.21 191.964 127.21ZM191.964 125.432C192.575 125.432 193.03 125.227 193.329 124.816C193.632 124.401 193.784 123.869 193.784 123.22C193.784 122.548 193.63 122.011 193.322 121.61C193.019 121.209 192.566 121.008 191.964 121.008C191.549 121.008 191.208 121.101 190.942 121.288C190.676 121.475 190.478 121.734 190.347 122.065C190.221 122.396 190.158 122.781 190.158 123.22C190.158 123.897 190.31 124.436 190.613 124.837C190.921 125.234 191.371 125.432 191.964 125.432ZM202.491 127V123.43C202.491 123.257 202.482 123.038 202.463 122.772C202.445 122.501 202.386 122.231 202.288 121.96C202.19 121.689 202.029 121.463 201.805 121.281C201.586 121.099 201.273 121.008 200.867 121.008C200.704 121.008 200.529 121.034 200.342 121.085C200.156 121.136 199.981 121.237 199.817 121.386C199.654 121.531 199.519 121.745 199.411 122.03C199.309 122.315 199.257 122.693 199.257 123.164L198.165 122.646C198.165 122.049 198.287 121.489 198.529 120.966C198.772 120.443 199.136 120.021 199.621 119.699C200.111 119.377 200.727 119.216 201.469 119.216C202.062 119.216 202.545 119.316 202.918 119.517C203.292 119.718 203.581 119.972 203.786 120.28C203.996 120.588 204.146 120.91 204.234 121.246C204.323 121.577 204.377 121.881 204.395 122.156C204.414 122.431 204.423 122.632 204.423 122.758V127H202.491ZM197.325 127V119.44H199.019V121.946H199.257V127H197.325Z" fill="white"/>
<path d="M6.28 17L9.36 6.92H12.202L15.282 17H13.322L10.578 8.11H10.942L8.24 17H6.28ZM8.128 14.9V13.122H13.448V14.9H8.128ZM16.5366 17V9.44H18.2166V11.288L18.0346 11.05C18.1326 10.7887 18.2633 10.5507 18.4266 10.336C18.59 10.1213 18.7906 9.944 19.0286 9.804C19.2106 9.692 19.409 9.60567 19.6236 9.545C19.8383 9.47967 20.06 9.44 20.2886 9.426C20.5173 9.40733 20.746 9.412 20.9746 9.44V11.218C20.7646 11.1527 20.5196 11.1317 20.2396 11.155C19.9643 11.1737 19.7146 11.2367 19.4906 11.344C19.2666 11.4467 19.0776 11.5843 18.9236 11.757C18.7696 11.925 18.653 12.1257 18.5736 12.359C18.4943 12.5877 18.4546 12.8467 18.4546 13.136V17H16.5366ZM22.3062 17V9.44H23.9862V11.288L23.8042 11.05C23.9022 10.7887 24.0328 10.5507 24.1962 10.336C24.3595 10.1213 24.5602 9.944 24.7982 9.804C24.9802 9.692 25.1785 9.60567 25.3932 9.545C25.6078 9.47967 25.8295 9.44 26.0582 9.426C26.2868 9.40733 26.5155 9.412 26.7442 9.44V11.218C26.5342 11.1527 26.2892 11.1317 26.0092 11.155C25.7338 11.1737 25.4842 11.2367 25.2602 11.344C25.0362 11.4467 24.8472 11.5843 24.6932 11.757C24.5392 11.925 24.4225 12.1257 24.3432 12.359C24.2638 12.5877 24.2242 12.8467 24.2242 13.136V17H22.3062ZM31.341 17.21C30.5803 17.21 29.913 17.0397 29.339 16.699C28.765 16.3583 28.317 15.8893 27.995 15.292C27.6777 14.69 27.519 13.9993 27.519 13.22C27.519 12.4313 27.6823 11.7383 28.009 11.141C28.3357 10.539 28.786 10.07 29.36 9.734C29.934 9.398 30.5943 9.23 31.341 9.23C32.1017 9.23 32.769 9.40033 33.343 9.741C33.9217 10.0817 34.372 10.553 34.694 11.155C35.016 11.7523 35.177 12.4407 35.177 13.22C35.177 14.004 35.0137 14.697 34.687 15.299C34.365 15.8963 33.9147 16.3653 33.336 16.706C32.762 17.042 32.097 17.21 31.341 17.21ZM31.341 15.432C31.9523 15.432 32.4073 15.2267 32.706 14.816C33.0093 14.4007 33.161 13.8687 33.161 13.22C33.161 12.548 33.007 12.0113 32.699 11.61C32.3957 11.2087 31.943 11.008 31.341 11.008C30.9257 11.008 30.585 11.1013 30.319 11.288C30.053 11.4747 29.8547 11.7337 29.724 12.065C29.598 12.3963 29.535 12.7813 29.535 13.22C29.535 13.8967 29.6867 14.4357 29.99 14.837C30.298 15.2337 30.7483 15.432 31.341 15.432ZM38.0529 17L35.7429 9.426L37.6049 9.44L38.9769 13.948L40.3699 9.44H41.9519L43.3449 13.948L44.7169 9.44H46.5789L44.2689 17H42.8129L41.1609 12.072L39.5089 17H38.0529ZM51.278 17V9.468C51.278 9.27667 51.2826 9.05967 51.292 8.817C51.3013 8.57433 51.3386 8.32933 51.404 8.082C51.474 7.83467 51.6 7.61067 51.782 7.41C52.0153 7.14867 52.2673 6.97133 52.538 6.878C52.8133 6.78 53.0793 6.72867 53.336 6.724C53.5926 6.71467 53.812 6.71 53.994 6.71H54.932V8.25H54.064C53.7653 8.25 53.5436 8.327 53.399 8.481C53.2543 8.63033 53.182 8.81 53.182 9.02V17H51.278ZM50.088 10.91V9.44H54.932V10.91H50.088ZM58.8624 17.224C58.2697 17.224 57.7867 17.1237 57.4134 16.923C57.04 16.7223 56.7484 16.468 56.5384 16.16C56.333 15.852 56.186 15.5323 56.0974 15.201C56.0087 14.865 55.955 14.5593 55.9364 14.284C55.9177 14.0087 55.9084 13.808 55.9084 13.682V9.44H57.8404V13.01C57.8404 13.1827 57.8497 13.4043 57.8684 13.675C57.887 13.941 57.9454 14.2093 58.0434 14.48C58.1414 14.7507 58.3 14.977 58.5194 15.159C58.7434 15.341 59.0584 15.432 59.4644 15.432C59.6277 15.432 59.8027 15.4063 59.9894 15.355C60.176 15.3037 60.351 15.2057 60.5144 15.061C60.6777 14.9117 60.8107 14.6947 60.9134 14.41C61.0207 14.1207 61.0744 13.7427 61.0744 13.276L62.1664 13.794C62.1664 14.3913 62.045 14.9513 61.8024 15.474C61.5597 15.9967 61.1934 16.419 60.7034 16.741C60.218 17.063 59.6044 17.224 58.8624 17.224ZM61.3124 17V14.494H61.0744V9.44H62.9924V17H61.3124ZM70.1008 17V13.43C70.1008 13.2573 70.0914 13.038 70.0728 12.772C70.0541 12.5013 69.9958 12.2307 69.8978 11.96C69.7998 11.6893 69.6388 11.463 69.4148 11.281C69.1954 11.099 68.8828 11.008 68.4768 11.008C68.3134 11.008 68.1384 11.0337 67.9518 11.085C67.7651 11.1363 67.5901 11.2367 67.4268 11.386C67.2634 11.5307 67.1281 11.7453 67.0208 12.03C66.9181 12.3147 66.8668 12.6927 66.8668 13.164L65.7748 12.646C65.7748 12.0487 65.8961 11.4887 66.1388 10.966C66.3814 10.4433 66.7454 10.021 67.2308 9.699C67.7208 9.377 68.3368 9.216 69.0788 9.216C69.6714 9.216 70.1544 9.31633 70.5278 9.517C70.9011 9.71767 71.1904 9.972 71.3958 10.28C71.6058 10.588 71.7551 10.91 71.8438 11.246C71.9324 11.5773 71.9861 11.8807 72.0048 12.156C72.0234 12.4313 72.0328 12.632 72.0328 12.758V17H70.1008ZM64.9348 17V9.44H66.6288V11.946H66.8668V17H64.9348ZM77.0444 17.21C76.2604 17.21 75.5884 17.035 75.0284 16.685C74.4684 16.335 74.0391 15.859 73.7404 15.257C73.4418 14.655 73.2924 13.976 73.2924 13.22C73.2924 12.4547 73.4464 11.771 73.7544 11.169C74.0671 10.567 74.5058 10.0933 75.0704 9.748C75.6351 9.40267 76.3024 9.23 77.0724 9.23C77.9638 9.23 78.7104 9.45633 79.3124 9.909C79.9191 10.357 80.3064 10.9707 80.4744 11.75L78.5704 12.254C78.4584 11.862 78.2624 11.5563 77.9824 11.337C77.7071 11.1177 77.3944 11.008 77.0444 11.008C76.6431 11.008 76.3141 11.106 76.0574 11.302C75.8008 11.4933 75.6118 11.757 75.4904 12.093C75.3691 12.4243 75.3084 12.8 75.3084 13.22C75.3084 13.878 75.4531 14.4123 75.7424 14.823C76.0364 15.229 76.4704 15.432 77.0444 15.432C77.4738 15.432 77.8004 15.334 78.0244 15.138C78.2484 14.942 78.4164 14.662 78.5284 14.298L80.4744 14.704C80.2598 15.5067 79.8538 16.125 79.2564 16.559C78.6591 16.993 77.9218 17.21 77.0444 17.21ZM86.4105 17C85.8879 17.098 85.3745 17.14 84.8705 17.126C84.3712 17.1167 83.9232 17.0303 83.5265 16.867C83.1345 16.699 82.8359 16.4307 82.6305 16.062C82.4439 15.7167 82.3459 15.3667 82.3365 15.012C82.3272 14.6527 82.3225 14.2467 82.3225 13.794V7.34H84.2265V13.682C84.2265 13.976 84.2289 14.242 84.2335 14.48C84.2429 14.7133 84.2919 14.9 84.3805 15.04C84.5485 15.306 84.8169 15.4507 85.1855 15.474C85.5542 15.4973 85.9625 15.4787 86.4105 15.418V17ZM81.0345 10.91V9.44H86.4105V10.91H81.0345ZM88.2352 8.39V6.71H90.1392V8.39H88.2352ZM88.2352 17V9.44H90.1392V17H88.2352ZM95.6398 17.21C94.8791 17.21 94.2118 17.0397 93.6378 16.699C93.0638 16.3583 92.6158 15.8893 92.2938 15.292C91.9765 14.69 91.8178 13.9993 91.8178 13.22C91.8178 12.4313 91.9811 11.7383 92.3078 11.141C92.6345 10.539 93.0848 10.07 93.6588 9.734C94.2328 9.398 94.8931 9.23 95.6398 9.23C96.4005 9.23 97.0678 9.40033 97.6418 9.741C98.2205 10.0817 98.6708 10.553 98.9928 11.155C99.3148 11.7523 99.4758 12.4407 99.4758 13.22C99.4758 14.004 99.3125 14.697 98.9858 15.299C98.6638 15.8963 98.2135 16.3653 97.6348 16.706C97.0608 17.042 96.3958 17.21 95.6398 17.21ZM95.6398 15.432C96.2511 15.432 96.7061 15.2267 97.0048 14.816C97.3081 14.4007 97.4598 13.8687 97.4598 13.22C97.4598 12.548 97.3058 12.0113 96.9978 11.61C96.6945 11.2087 96.2418 11.008 95.6398 11.008C95.2245 11.008 94.8838 11.1013 94.6178 11.288C94.3518 11.4747 94.1535 11.7337 94.0228 12.065C93.8968 12.3963 93.8338 12.7813 93.8338 13.22C93.8338 13.8967 93.9855 14.4357 94.2888 14.837C94.5968 15.2337 95.0471 15.432 95.6398 15.432ZM106.167 17V13.43C106.167 13.2573 106.158 13.038 106.139 12.772C106.12 12.5013 106.062 12.2307 105.964 11.96C105.866 11.6893 105.705 11.463 105.481 11.281C105.262 11.099 104.949 11.008 104.543 11.008C104.38 11.008 104.205 11.0337 104.018 11.085C103.831 11.1363 103.656 11.2367 103.493 11.386C103.33 11.5307 103.194 11.7453 103.087 12.03C102.984 12.3147 102.933 12.6927 102.933 13.164L101.841 12.646C101.841 12.0487 101.962 11.4887 102.205 10.966C102.448 10.4433 102.812 10.021 103.297 9.699C103.787 9.377 104.403 9.216 105.145 9.216C105.738 9.216 106.221 9.31633 106.594 9.517C106.967 9.71767 107.257 9.972 107.462 10.28C107.672 10.588 107.821 10.91 107.91 11.246C107.999 11.5773 108.052 11.8807 108.071 12.156C108.09 12.4313 108.099 12.632 108.099 12.758V17H106.167ZM101.001 17V9.44H102.695V11.946H102.933V17H101.001Z" fill="#787DF7"/>
<path d="M157 39C157 39.5523 157.448 40 158 40C158.552 40 159 39.5523 159 39H157ZM116.293 11.2929C115.902 11.6834 115.902 12.3166 116.293 12.7071L122.657 19.0711C123.047 19.4616 123.681 19.4616 124.071 19.0711C124.462 18.6805 124.462 18.0474 124.071 17.6569L118.414 12L124.071 6.34315C124.462 5.95262 124.462 5.31946 124.071 4.92893C123.681 4.53841 123.047 4.53841 122.657 4.92893L116.293 11.2929ZM159 39V22H157V39H159ZM148 11H117V13H148V11ZM159 22C159 15.9249 154.075 11 148 11V13C152.971 13 157 17.0294 157 22H159Z" fill="#787DF7"/>
</svg>
