<svg width="311" height="280" viewBox="0 0 311 280" fill="none" xmlns="http://www.w3.org/2000/svg">
<path d="M31.11 43V35.468C31.11 35.2767 31.1147 35.0597 31.124 34.817C31.1333 34.5743 31.1707 34.3293 31.236 34.082C31.306 33.8347 31.432 33.6107 31.614 33.41C31.8473 33.1487 32.0993 32.9713 32.37 32.878C32.6453 32.78 32.9113 32.7287 33.168 32.724C33.4247 32.7147 33.644 32.71 33.826 32.71H34.764V34.25H33.896C33.5973 34.25 33.3757 34.327 33.231 34.481C33.0863 34.6303 33.014 34.81 33.014 35.02V43H31.11ZM29.92 36.91V35.44H34.764V36.91H29.92ZM38.6944 43.224C38.1017 43.224 37.6187 43.1237 37.2454 42.923C36.8721 42.7223 36.5804 42.468 36.3704 42.16C36.1651 41.852 36.0181 41.5323 35.9294 41.201C35.8407 40.865 35.7871 40.5593 35.7684 40.284C35.7497 40.0087 35.7404 39.808 35.7404 39.682V35.44H37.6724V39.01C37.6724 39.1827 37.6817 39.4043 37.7004 39.675C37.7191 39.941 37.7774 40.2093 37.8754 40.48C37.9734 40.7507 38.1321 40.977 38.3514 41.159C38.5754 41.341 38.8904 41.432 39.2964 41.432C39.4597 41.432 39.6347 41.4063 39.8214 41.355C40.0081 41.3037 40.1831 41.2057 40.3464 41.061C40.5097 40.9117 40.6427 40.6947 40.7454 40.41C40.8527 40.1207 40.9064 39.7427 40.9064 39.276L41.9984 39.794C41.9984 40.3913 41.8771 40.9513 41.6344 41.474C41.3917 41.9967 41.0254 42.419 40.5354 42.741C40.0501 43.063 39.4364 43.224 38.6944 43.224ZM41.1444 43V40.494H40.9064V35.44H42.8244V43H41.1444ZM49.9328 43V39.43C49.9328 39.2573 49.9234 39.038 49.9048 38.772C49.8861 38.5013 49.8278 38.2307 49.7298 37.96C49.6318 37.6893 49.4708 37.463 49.2468 37.281C49.0274 37.099 48.7148 37.008 48.3088 37.008C48.1454 37.008 47.9704 37.0337 47.7838 37.085C47.5971 37.1363 47.4221 37.2367 47.2588 37.386C47.0954 37.5307 46.9601 37.7453 46.8528 38.03C46.7501 38.3147 46.6988 38.6927 46.6988 39.164L45.6068 38.646C45.6068 38.0487 45.7281 37.4887 45.9708 36.966C46.2134 36.4433 46.5774 36.021 47.0628 35.699C47.5528 35.377 48.1688 35.216 48.9108 35.216C49.5034 35.216 49.9864 35.3163 50.3598 35.517C50.7331 35.7177 51.0224 35.972 51.2278 36.28C51.4378 36.588 51.5871 36.91 51.6758 37.246C51.7644 37.5773 51.8181 37.8807 51.8368 38.156C51.8554 38.4313 51.8648 38.632 51.8648 38.758V43H49.9328ZM44.7668 43V35.44H46.4608V37.946H46.6988V43H44.7668ZM56.8765 43.21C56.0925 43.21 55.4205 43.035 54.8605 42.685C54.3005 42.335 53.8711 41.859 53.5725 41.257C53.2738 40.655 53.1245 39.976 53.1245 39.22C53.1245 38.4547 53.2785 37.771 53.5865 37.169C53.8991 36.567 54.3378 36.0933 54.9025 35.748C55.4671 35.4027 56.1345 35.23 56.9045 35.23C57.7958 35.23 58.5425 35.4563 59.1445 35.909C59.7511 36.357 60.1385 36.9707 60.3065 37.75L58.4025 38.254C58.2905 37.862 58.0945 37.5563 57.8145 37.337C57.5391 37.1177 57.2265 37.008 56.8765 37.008C56.4751 37.008 56.1461 37.106 55.8895 37.302C55.6328 37.4933 55.4438 37.757 55.3225 38.093C55.2011 38.4243 55.1405 38.8 55.1405 39.22C55.1405 39.878 55.2851 40.4123 55.5745 40.823C55.8685 41.229 56.3025 41.432 56.8765 41.432C57.3058 41.432 57.6325 41.334 57.8565 41.138C58.0805 40.942 58.2485 40.662 58.3605 40.298L60.3065 40.704C60.0918 41.5067 59.6858 42.125 59.0885 42.559C58.4911 42.993 57.7538 43.21 56.8765 43.21ZM66.2426 43C65.7199 43.098 65.2066 43.14 64.7026 43.126C64.2032 43.1167 63.7552 43.0303 63.3586 42.867C62.9666 42.699 62.6679 42.4307 62.4626 42.062C62.2759 41.7167 62.1779 41.3667 62.1686 41.012C62.1592 40.6527 62.1546 40.2467 62.1546 39.794V33.34H64.0586V39.682C64.0586 39.976 64.0609 40.242 64.0656 40.48C64.0749 40.7133 64.1239 40.9 64.2126 41.04C64.3806 41.306 64.6489 41.4507 65.0176 41.474C65.3862 41.4973 65.7946 41.4787 66.2426 41.418V43ZM60.8666 36.91V35.44H66.2426V36.91H60.8666ZM68.0673 34.39V32.71H69.9713V34.39H68.0673ZM68.0673 43V35.44H69.9713V43H68.0673ZM75.4718 43.21C74.7112 43.21 74.0438 43.0397 73.4698 42.699C72.8958 42.3583 72.4478 41.8893 72.1258 41.292C71.8085 40.69 71.6498 39.9993 71.6498 39.22C71.6498 38.4313 71.8132 37.7383 72.1398 37.141C72.4665 36.539 72.9168 36.07 73.4908 35.734C74.0648 35.398 74.7252 35.23 75.4718 35.23C76.2325 35.23 76.8998 35.4003 77.4738 35.741C78.0525 36.0817 78.5028 36.553 78.8248 37.155C79.1468 37.7523 79.3078 38.4407 79.3078 39.22C79.3078 40.004 79.1445 40.697 78.8178 41.299C78.4958 41.8963 78.0455 42.3653 77.4668 42.706C76.8928 43.042 76.2278 43.21 75.4718 43.21ZM75.4718 41.432C76.0832 41.432 76.5382 41.2267 76.8368 40.816C77.1402 40.4007 77.2918 39.8687 77.2918 39.22C77.2918 38.548 77.1378 38.0113 76.8298 37.61C76.5265 37.2087 76.0738 37.008 75.4718 37.008C75.0565 37.008 74.7158 37.1013 74.4498 37.288C74.1838 37.4747 73.9855 37.7337 73.8548 38.065C73.7288 38.3963 73.6658 38.7813 73.6658 39.22C73.6658 39.8967 73.8175 40.4357 74.1208 40.837C74.4288 41.2337 74.8792 41.432 75.4718 41.432ZM85.9992 43V39.43C85.9992 39.2573 85.9899 39.038 85.9712 38.772C85.9525 38.5013 85.8942 38.2307 85.7962 37.96C85.6982 37.6893 85.5372 37.463 85.3132 37.281C85.0939 37.099 84.7812 37.008 84.3752 37.008C84.2119 37.008 84.0369 37.0337 83.8502 37.085C83.6635 37.1363 83.4885 37.2367 83.3252 37.386C83.1619 37.5307 83.0265 37.7453 82.9192 38.03C82.8165 38.3147 82.7652 38.6927 82.7652 39.164L81.6732 38.646C81.6732 38.0487 81.7945 37.4887 82.0372 36.966C82.2799 36.4433 82.6439 36.021 83.1292 35.699C83.6192 35.377 84.2352 35.216 84.9772 35.216C85.5699 35.216 86.0529 35.3163 86.4262 35.517C86.7995 35.7177 87.0889 35.972 87.2942 36.28C87.5042 36.588 87.6535 36.91 87.7422 37.246C87.8309 37.5773 87.8845 37.8807 87.9032 38.156C87.9219 38.4313 87.9312 38.632 87.9312 38.758V43H85.9992ZM80.8332 43V35.44H82.5272V37.946H82.7652V43H80.8332ZM133.689 45.716C133.148 45.0813 132.684 44.3603 132.296 43.553C131.914 42.7457 131.622 41.901 131.421 41.019C131.225 40.1323 131.137 39.2527 131.155 38.38C131.137 37.5073 131.225 36.6277 131.421 35.741C131.622 34.8543 131.914 34.0097 132.296 33.207C132.684 32.3997 133.148 31.6787 133.689 31.044L135.103 32.08C134.534 32.766 134.088 33.452 133.766 34.138C133.444 34.8193 133.216 35.5123 133.08 36.217C132.95 36.917 132.882 37.638 132.877 38.38C132.882 39.122 132.95 39.8453 133.08 40.55C133.216 41.25 133.444 41.943 133.766 42.629C134.088 43.3103 134.534 43.994 135.103 44.68L133.689 45.716ZM178.412 37.33V35.86H185.552V37.33H178.412ZM178.412 40.06V38.59H185.552V40.06H178.412ZM190.875 35.44V32.92H192.779V35.44H190.875ZM193.619 35.44V32.92H195.523V35.44H193.619ZM202.106 43.21C201.471 43.21 200.867 43.098 200.293 42.874C199.719 42.6453 199.21 42.3093 198.767 41.866C198.328 41.4227 197.98 40.8743 197.724 40.221C197.472 39.5677 197.346 38.814 197.346 37.96C197.346 36.8447 197.558 35.8973 197.983 35.118C198.412 34.334 198.986 33.7367 199.705 33.326C200.428 32.9153 201.228 32.71 202.106 32.71C203.403 32.71 204.423 33.011 205.165 33.613C205.907 34.215 206.404 35.0667 206.656 36.168L204.71 36.448C204.528 35.86 204.229 35.391 203.814 35.041C203.403 34.6863 202.876 34.5067 202.232 34.502C201.592 34.4927 201.06 34.6303 200.636 34.915C200.211 35.1997 199.891 35.6033 199.677 36.126C199.467 36.6487 199.362 37.26 199.362 37.96C199.362 38.66 199.467 39.2667 199.677 39.78C199.891 40.2933 200.211 40.6923 200.636 40.977C201.06 41.2617 201.592 41.4087 202.232 41.418C202.666 41.4273 203.058 41.3527 203.408 41.194C203.762 41.0353 204.061 40.7857 204.304 40.445C204.546 40.1043 204.719 39.668 204.822 39.136H203.226V37.666H206.852C206.861 37.7267 206.868 37.834 206.873 37.988C206.877 38.142 206.88 38.2307 206.88 38.254C206.88 39.22 206.684 40.0763 206.292 40.823C205.9 41.5697 205.347 42.1553 204.633 42.58C203.919 43 203.076 43.21 202.106 43.21ZM211.097 43.224C210.504 43.224 210.021 43.1237 209.648 42.923C209.274 42.7223 208.983 42.468 208.773 42.16C208.567 41.852 208.42 41.5323 208.332 41.201C208.243 40.865 208.189 40.5593 208.171 40.284C208.152 40.0087 208.143 39.808 208.143 39.682V35.44H210.075V39.01C210.075 39.1827 210.084 39.4043 210.103 39.675C210.121 39.941 210.18 40.2093 210.278 40.48C210.376 40.7507 210.534 40.977 210.754 41.159C210.978 41.341 211.293 41.432 211.699 41.432C211.862 41.432 212.037 41.4063 212.224 41.355C212.41 41.3037 212.585 41.2057 212.749 41.061C212.912 40.9117 213.045 40.6947 213.148 40.41C213.255 40.1207 213.309 39.7427 213.309 39.276L214.401 39.794C214.401 40.3913 214.279 40.9513 214.037 41.474C213.794 41.9967 213.428 42.419 212.938 42.741C212.452 43.063 211.839 43.224 211.097 43.224ZM213.547 43V40.494H213.309V35.44H215.227V43H213.547ZM220.697 43.21C219.922 43.21 219.239 43.0443 218.646 42.713C218.058 42.377 217.596 41.9173 217.26 41.334C216.929 40.746 216.763 40.074 216.763 39.318C216.763 38.492 216.926 37.7733 217.253 37.162C217.58 36.5507 218.03 36.077 218.604 35.741C219.178 35.4003 219.838 35.23 220.585 35.23C221.378 35.23 222.053 35.4167 222.608 35.79C223.163 36.1633 223.574 36.6883 223.84 37.365C224.106 38.0417 224.199 38.8373 224.12 39.752H222.237V39.052C222.237 38.282 222.113 37.729 221.866 37.393C221.623 37.0523 221.224 36.882 220.669 36.882C220.02 36.882 219.542 37.0803 219.234 37.477C218.931 37.869 218.779 38.45 218.779 39.22C218.779 39.9247 218.931 40.4707 219.234 40.858C219.542 41.2407 219.992 41.432 220.585 41.432C220.958 41.432 221.278 41.3503 221.544 41.187C221.81 41.0237 222.013 40.788 222.153 40.48L224.057 41.026C223.772 41.7167 223.322 42.2533 222.706 42.636C222.095 43.0187 221.425 43.21 220.697 43.21ZM218.191 39.752V38.338H223.203V39.752H218.191ZM228.655 43.21C227.703 43.21 226.933 42.9953 226.345 42.566C225.761 42.132 225.407 41.5207 225.281 40.732L227.227 40.438C227.306 40.7927 227.481 41.0703 227.752 41.271C228.027 41.4717 228.375 41.572 228.795 41.572C229.14 41.572 229.406 41.5067 229.593 41.376C229.779 41.2407 229.873 41.054 229.873 40.816C229.873 40.6667 229.835 40.5477 229.761 40.459C229.686 40.3657 229.518 40.2747 229.257 40.186C229 40.0973 228.599 39.9807 228.053 39.836C227.437 39.6773 226.944 39.5 226.576 39.304C226.207 39.108 225.941 38.8747 225.778 38.604C225.614 38.3287 225.533 37.9973 225.533 37.61C225.533 37.1247 225.656 36.7047 225.904 36.35C226.151 35.9907 226.499 35.7153 226.947 35.524C227.399 35.328 227.931 35.23 228.543 35.23C229.135 35.23 229.66 35.321 230.118 35.503C230.575 35.685 230.944 35.944 231.224 36.28C231.508 36.616 231.683 37.0127 231.749 37.47L229.803 37.82C229.77 37.54 229.649 37.3183 229.439 37.155C229.229 36.9917 228.944 36.896 228.585 36.868C228.235 36.8447 227.952 36.8913 227.738 37.008C227.528 37.1247 227.423 37.2927 227.423 37.512C227.423 37.6427 227.467 37.7523 227.556 37.841C227.649 37.9297 227.838 38.0207 228.123 38.114C228.412 38.2073 228.851 38.3287 229.439 38.478C230.013 38.6273 230.472 38.8023 230.818 39.003C231.168 39.199 231.422 39.437 231.581 39.717C231.739 39.9923 231.819 40.326 231.819 40.718C231.819 41.4927 231.539 42.1017 230.979 42.545C230.419 42.9883 229.644 43.21 228.655 43.21ZM237.893 43C237.37 43.098 236.857 43.14 236.353 43.126C235.854 43.1167 235.406 43.0303 235.009 42.867C234.617 42.699 234.318 42.4307 234.113 42.062C233.926 41.7167 233.828 41.3667 233.819 41.012C233.81 40.6527 233.805 40.2467 233.805 39.794V33.34H235.709V39.682C235.709 39.976 235.711 40.242 235.716 40.48C235.725 40.7133 235.774 40.9 235.863 41.04C236.031 41.306 236.299 41.4507 236.668 41.474C237.037 41.4973 237.445 41.4787 237.893 41.418V43ZM232.517 36.91V35.44H237.893V36.91H232.517ZM239.438 35.44V32.92H241.342V35.44H239.438ZM242.182 35.44V32.92H244.086V35.44H242.182ZM247.462 45.716L246.048 44.68C246.618 43.994 247.063 43.3103 247.385 42.629C247.707 41.943 247.934 41.25 248.064 40.55C248.2 39.8453 248.27 39.122 248.274 38.38C248.27 37.638 248.2 36.917 248.064 36.217C247.934 35.5123 247.707 34.8193 247.385 34.138C247.063 33.452 246.618 32.766 246.048 32.08L247.462 31.044C248.004 31.6787 248.466 32.3997 248.848 33.207C249.236 34.0097 249.527 34.8543 249.723 35.741C249.924 36.6277 250.015 37.5073 249.996 38.38C250.015 39.2527 249.924 40.1323 249.723 41.019C249.527 41.901 249.236 42.7457 248.848 43.553C248.466 44.3603 248.004 45.0813 247.462 45.716ZM259.63 45.94C258.986 45.94 258.482 45.758 258.118 45.394C257.754 45.03 257.572 44.526 257.572 43.882V39.794C257.572 39.7053 257.548 39.6307 257.502 39.57L256.872 38.674C256.769 38.52 256.718 38.352 256.718 38.17C256.718 37.988 256.769 37.82 256.872 37.666L257.502 36.77C257.548 36.6907 257.572 36.616 257.572 36.546V32.458C257.572 31.8187 257.754 31.317 258.118 30.953C258.482 30.5843 258.986 30.4 259.63 30.4H260.624V32.192H259.77C259.658 32.192 259.562 32.2317 259.483 32.311C259.403 32.3903 259.364 32.486 259.364 32.598V36.546C259.364 37.0033 259.228 37.4233 258.958 37.806L258.692 38.17L258.958 38.534C259.228 38.9167 259.364 39.3367 259.364 39.794V43.742C259.364 43.8587 259.403 43.9567 259.483 44.036C259.562 44.12 259.658 44.162 259.77 44.162H260.624V45.94H259.63ZM39.4175 66.21C38.6335 66.21 37.9615 66.035 37.4015 65.685C36.8415 65.335 36.4121 64.859 36.1135 64.257C35.8148 63.655 35.6655 62.976 35.6655 62.22C35.6655 61.4547 35.8195 60.771 36.1275 60.169C36.4401 59.567 36.8788 59.0933 37.4435 58.748C38.0081 58.4027 38.6755 58.23 39.4455 58.23C40.3368 58.23 41.0835 58.4563 41.6855 58.909C42.2921 59.357 42.6795 59.9707 42.8475 60.75L40.9435 61.254C40.8315 60.862 40.6355 60.5563 40.3555 60.337C40.0801 60.1177 39.7675 60.008 39.4175 60.008C39.0161 60.008 38.6871 60.106 38.4305 60.302C38.1738 60.4933 37.9848 60.757 37.8635 61.093C37.7421 61.4243 37.6815 61.8 37.6815 62.22C37.6815 62.878 37.8261 63.4123 38.1155 63.823C38.4095 64.229 38.8435 64.432 39.4175 64.432C39.8468 64.432 40.1735 64.334 40.3975 64.138C40.6215 63.942 40.7895 63.662 40.9015 63.298L42.8475 63.704C42.6328 64.5067 42.2268 65.125 41.6295 65.559C41.0321 65.993 40.2948 66.21 39.4175 66.21ZM47.4445 66.21C46.6838 66.21 46.0165 66.0397 45.4425 65.699C44.8685 65.3583 44.4205 64.8893 44.0985 64.292C43.7812 63.69 43.6225 62.9993 43.6225 62.22C43.6225 61.4313 43.7858 60.7383 44.1125 60.141C44.4392 59.539 44.8895 59.07 45.4635 58.734C46.0375 58.398 46.6978 58.23 47.4445 58.23C48.2052 58.23 48.8725 58.4003 49.4465 58.741C50.0252 59.0817 50.4755 59.553 50.7975 60.155C51.1195 60.7523 51.2805 61.4407 51.2805 62.22C51.2805 63.004 51.1172 63.697 50.7905 64.299C50.4685 64.8963 50.0182 65.3653 49.4395 65.706C48.8655 66.042 48.2005 66.21 47.4445 66.21ZM47.4445 64.432C48.0558 64.432 48.5108 64.2267 48.8095 63.816C49.1128 63.4007 49.2645 62.8687 49.2645 62.22C49.2645 61.548 49.1105 61.0113 48.8025 60.61C48.4992 60.2087 48.0465 60.008 47.4445 60.008C47.0292 60.008 46.6885 60.1013 46.4225 60.288C46.1565 60.4747 45.9582 60.7337 45.8275 61.065C45.7015 61.3963 45.6385 61.7813 45.6385 62.22C45.6385 62.8967 45.7902 63.4357 46.0935 63.837C46.4015 64.2337 46.8518 64.432 47.4445 64.432ZM57.9718 66V62.43C57.9718 62.2573 57.9625 62.038 57.9438 61.772C57.9252 61.5013 57.8668 61.2307 57.7688 60.96C57.6708 60.6893 57.5098 60.463 57.2858 60.281C57.0665 60.099 56.7538 60.008 56.3478 60.008C56.1845 60.008 56.0095 60.0337 55.8228 60.085C55.6362 60.1363 55.4612 60.2367 55.2978 60.386C55.1345 60.5307 54.9992 60.7453 54.8918 61.03C54.7892 61.3147 54.7378 61.6927 54.7378 62.164L53.6458 61.646C53.6458 61.0487 53.7672 60.4887 54.0098 59.966C54.2525 59.4433 54.6165 59.021 55.1018 58.699C55.5918 58.377 56.2078 58.216 56.9498 58.216C57.5425 58.216 58.0255 58.3163 58.3988 58.517C58.7722 58.7177 59.0615 58.972 59.2668 59.28C59.4768 59.588 59.6262 59.91 59.7148 60.246C59.8035 60.5773 59.8572 60.8807 59.8758 61.156C59.8945 61.4313 59.9038 61.632 59.9038 61.758V66H57.9718ZM52.8058 66V58.44H54.4998V60.946H54.7378V66H52.8058ZM64.6742 66.21C63.7222 66.21 62.9522 65.9953 62.3642 65.566C61.7809 65.132 61.4262 64.5207 61.3002 63.732L63.2462 63.438C63.3256 63.7927 63.5006 64.0703 63.7712 64.271C64.0466 64.4717 64.3942 64.572 64.8142 64.572C65.1596 64.572 65.4256 64.5067 65.6122 64.376C65.7989 64.2407 65.8922 64.054 65.8922 63.816C65.8922 63.6667 65.8549 63.5477 65.7802 63.459C65.7056 63.3657 65.5376 63.2747 65.2762 63.186C65.0196 63.0973 64.6182 62.9807 64.0722 62.836C63.4562 62.6773 62.9639 62.5 62.5952 62.304C62.2266 62.108 61.9606 61.8747 61.7972 61.604C61.6339 61.3287 61.5522 60.9973 61.5522 60.61C61.5522 60.1247 61.6759 59.7047 61.9232 59.35C62.1706 58.9907 62.5182 58.7153 62.9662 58.524C63.4189 58.328 63.9509 58.23 64.5622 58.23C65.1549 58.23 65.6799 58.321 66.1372 58.503C66.5946 58.685 66.9632 58.944 67.2432 59.28C67.5279 59.616 67.7029 60.0127 67.7682 60.47L65.8222 60.82C65.7896 60.54 65.6682 60.3183 65.4582 60.155C65.2482 59.9917 64.9636 59.896 64.6042 59.868C64.2542 59.8447 63.9719 59.8913 63.7572 60.008C63.5472 60.1247 63.4422 60.2927 63.4422 60.512C63.4422 60.6427 63.4866 60.7523 63.5752 60.841C63.6686 60.9297 63.8576 61.0207 64.1422 61.114C64.4316 61.2073 64.8702 61.3287 65.4582 61.478C66.0322 61.6273 66.4919 61.8023 66.8372 62.003C67.1872 62.199 67.4416 62.437 67.6002 62.717C67.7589 62.9923 67.8382 63.326 67.8382 63.718C67.8382 64.4927 67.5582 65.1017 66.9982 65.545C66.4382 65.9883 65.6636 66.21 64.6742 66.21ZM72.7785 66.21C72.0178 66.21 71.3505 66.0397 70.7765 65.699C70.2025 65.3583 69.7545 64.8893 69.4325 64.292C69.1152 63.69 68.9565 62.9993 68.9565 62.22C68.9565 61.4313 69.1198 60.7383 69.4465 60.141C69.7732 59.539 70.2235 59.07 70.7975 58.734C71.3715 58.398 72.0318 58.23 72.7785 58.23C73.5392 58.23 74.2065 58.4003 74.7805 58.741C75.3592 59.0817 75.8095 59.553 76.1315 60.155C76.4535 60.7523 76.6145 61.4407 76.6145 62.22C76.6145 63.004 76.4512 63.697 76.1245 64.299C75.8025 64.8963 75.3522 65.3653 74.7735 65.706C74.1995 66.042 73.5345 66.21 72.7785 66.21ZM72.7785 64.432C73.3898 64.432 73.8448 64.2267 74.1435 63.816C74.4468 63.4007 74.5985 62.8687 74.5985 62.22C74.5985 61.548 74.4445 61.0113 74.1365 60.61C73.8332 60.2087 73.3805 60.008 72.7785 60.008C72.3632 60.008 72.0225 60.1013 71.7565 60.288C71.4905 60.4747 71.2922 60.7337 71.1615 61.065C71.0355 61.3963 70.9725 61.7813 70.9725 62.22C70.9725 62.8967 71.1242 63.4357 71.4275 63.837C71.7355 64.2337 72.1858 64.432 72.7785 64.432ZM78.2938 66V55.71H80.1978V66H78.2938ZM85.8104 66.21C85.0357 66.21 84.3521 66.0443 83.7594 65.713C83.1714 65.377 82.7094 64.9173 82.3734 64.334C82.0421 63.746 81.8764 63.074 81.8764 62.318C81.8764 61.492 82.0397 60.7733 82.3664 60.162C82.6931 59.5507 83.1434 59.077 83.7174 58.741C84.2914 58.4003 84.9517 58.23 85.6984 58.23C86.4917 58.23 87.1661 58.4167 87.7214 58.79C88.2767 59.1633 88.6874 59.6883 88.9534 60.365C89.2194 61.0417 89.3127 61.8373 89.2334 62.752H87.3504V62.052C87.3504 61.282 87.2267 60.729 86.9794 60.393C86.7367 60.0523 86.3377 59.882 85.7824 59.882C85.1337 59.882 84.6554 60.0803 84.3474 60.477C84.0441 60.869 83.8924 61.45 83.8924 62.22C83.8924 62.9247 84.0441 63.4707 84.3474 63.858C84.6554 64.2407 85.1057 64.432 85.6984 64.432C86.0717 64.432 86.3914 64.3503 86.6574 64.187C86.9234 64.0237 87.1264 63.788 87.2664 63.48L89.1704 64.026C88.8857 64.7167 88.4354 65.2533 87.8194 65.636C87.2081 66.0187 86.5384 66.21 85.8104 66.21ZM83.3044 62.752V61.338H88.3164V62.752H83.3044ZM90.8485 66V64.096H92.7525V66H90.8485ZM95.1649 66V55.71H97.0689V66H95.1649ZM102.57 66.21C101.809 66.21 101.142 66.0397 100.568 65.699C99.9935 65.3583 99.5455 64.8893 99.2235 64.292C98.9062 63.69 98.7475 62.9993 98.7475 62.22C98.7475 61.4313 98.9108 60.7383 99.2375 60.141C99.5642 59.539 100.015 59.07 100.589 58.734C101.163 58.398 101.823 58.23 102.57 58.23C103.33 58.23 103.998 58.4003 104.572 58.741C105.15 59.0817 105.601 59.553 105.923 60.155C106.245 60.7523 106.406 61.4407 106.406 62.22C106.406 63.004 106.242 63.697 105.916 64.299C105.594 64.8963 105.143 65.3653 104.565 65.706C103.991 66.042 103.326 66.21 102.57 66.21ZM102.57 64.432C103.181 64.432 103.636 64.2267 103.935 63.816C104.238 63.4007 104.39 62.8687 104.39 62.22C104.39 61.548 104.236 61.0113 103.928 60.61C103.624 60.2087 103.172 60.008 102.57 60.008C102.154 60.008 101.814 60.1013 101.548 60.288C101.282 60.4747 101.083 60.7337 100.953 61.065C100.827 61.3963 100.764 61.7813 100.764 62.22C100.764 62.8967 100.915 63.4357 101.219 63.837C101.527 64.2337 101.977 64.432 102.57 64.432ZM111.179 69.57C110.75 69.57 110.341 69.5 109.954 69.36C109.567 69.2247 109.219 69.0333 108.911 68.786C108.608 68.5433 108.36 68.2587 108.169 67.932L109.933 67.078C110.054 67.302 110.227 67.4723 110.451 67.589C110.68 67.7057 110.927 67.764 111.193 67.764C111.478 67.764 111.746 67.715 111.998 67.617C112.25 67.5237 112.451 67.3813 112.6 67.19C112.754 67.0033 112.826 66.77 112.817 66.49V64.292H113.055V58.44H114.721V66.518C114.721 66.7047 114.712 66.8797 114.693 67.043C114.679 67.211 114.651 67.3767 114.609 67.54C114.488 68.002 114.261 68.3823 113.93 68.681C113.603 68.9797 113.202 69.2013 112.726 69.346C112.25 69.4953 111.734 69.57 111.179 69.57ZM111.011 66.21C110.316 66.21 109.707 66.035 109.184 65.685C108.661 65.335 108.253 64.859 107.959 64.257C107.67 63.655 107.525 62.976 107.525 62.22C107.525 61.45 107.672 60.7663 107.966 60.169C108.265 59.567 108.682 59.0933 109.219 58.748C109.756 58.4027 110.386 58.23 111.109 58.23C111.828 58.23 112.432 58.405 112.922 58.755C113.412 59.105 113.783 59.581 114.035 60.183C114.287 60.785 114.413 61.464 114.413 62.22C114.413 62.976 114.285 63.655 114.028 64.257C113.776 64.859 113.398 65.335 112.894 65.685C112.39 66.035 111.762 66.21 111.011 66.21ZM111.319 64.516C111.744 64.516 112.082 64.4203 112.334 64.229C112.591 64.0377 112.775 63.7693 112.887 63.424C112.999 63.0787 113.055 62.6773 113.055 62.22C113.055 61.7627 112.999 61.3613 112.887 61.016C112.775 60.6707 112.595 60.4023 112.348 60.211C112.105 60.0197 111.786 59.924 111.389 59.924C110.964 59.924 110.614 60.029 110.339 60.239C110.068 60.4443 109.868 60.722 109.737 61.072C109.606 61.4173 109.541 61.8 109.541 62.22C109.541 62.6447 109.604 63.032 109.73 63.382C109.856 63.7273 110.05 64.0027 110.311 64.208C110.572 64.4133 110.908 64.516 111.319 64.516ZM120.195 68.716C119.654 68.0813 119.19 67.3603 118.802 66.553C118.42 65.7457 118.128 64.901 117.927 64.019C117.731 63.1323 117.643 62.2527 117.661 61.38C117.643 60.5073 117.731 59.6277 117.927 58.741C118.128 57.8543 118.42 57.0097 118.802 56.207C119.19 55.3997 119.654 54.6787 120.195 54.044L121.609 55.08C121.04 55.766 120.594 56.452 120.272 57.138C119.95 57.8193 119.722 58.5123 119.586 59.217C119.456 59.917 119.388 60.638 119.383 61.38C119.388 62.122 119.456 62.8453 119.586 63.55C119.722 64.25 119.95 64.943 120.272 65.629C120.594 66.3103 121.04 66.994 121.609 67.68L120.195 68.716ZM123.008 58.44V55.92H124.912V58.44H123.008ZM125.752 58.44V55.92H127.656V58.44H125.752ZM130.039 66V55.92H131.943V60.064H136.451V55.92H138.355V66H136.451V61.842H131.943V66H130.039ZM143.834 66.21C143.059 66.21 142.376 66.0443 141.783 65.713C141.195 65.377 140.733 64.9173 140.397 64.334C140.066 63.746 139.9 63.074 139.9 62.318C139.9 61.492 140.063 60.7733 140.39 60.162C140.717 59.5507 141.167 59.077 141.741 58.741C142.315 58.4003 142.975 58.23 143.722 58.23C144.515 58.23 145.19 58.4167 145.745 58.79C146.3 59.1633 146.711 59.6883 146.977 60.365C147.243 61.0417 147.336 61.8373 147.257 62.752H145.374V62.052C145.374 61.282 145.25 60.729 145.003 60.393C144.76 60.0523 144.361 59.882 143.806 59.882C143.157 59.882 142.679 60.0803 142.371 60.477C142.068 60.869 141.916 61.45 141.916 62.22C141.916 62.9247 142.068 63.4707 142.371 63.858C142.679 64.2407 143.129 64.432 143.722 64.432C144.095 64.432 144.415 64.3503 144.681 64.187C144.947 64.0237 145.15 63.788 145.29 63.48L147.194 64.026C146.909 64.7167 146.459 65.2533 145.843 65.636C145.232 66.0187 144.562 66.21 143.834 66.21ZM141.328 62.752V61.338H146.34V62.752H141.328ZM148.977 66V55.71H150.881V66H148.977ZM153.12 66V55.71H155.024V66H153.12ZM160.525 66.21C159.764 66.21 159.097 66.0397 158.523 65.699C157.949 65.3583 157.501 64.8893 157.179 64.292C156.861 63.69 156.703 62.9993 156.703 62.22C156.703 61.4313 156.866 60.7383 157.193 60.141C157.519 59.539 157.97 59.07 158.544 58.734C159.118 58.398 159.778 58.23 160.525 58.23C161.285 58.23 161.953 58.4003 162.527 58.741C163.105 59.0817 163.556 59.553 163.878 60.155C164.2 60.7523 164.361 61.4407 164.361 62.22C164.361 63.004 164.197 63.697 163.871 64.299C163.549 64.8963 163.098 65.3653 162.52 65.706C161.946 66.042 161.281 66.21 160.525 66.21ZM160.525 64.432C161.136 64.432 161.591 64.2267 161.89 63.816C162.193 63.4007 162.345 62.8687 162.345 62.22C162.345 61.548 162.191 61.0113 161.883 60.61C161.579 60.2087 161.127 60.008 160.525 60.008C160.109 60.008 159.769 60.1013 159.503 60.288C159.237 60.4747 159.038 60.7337 158.908 61.065C158.782 61.3963 158.719 61.7813 158.719 62.22C158.719 62.8967 158.87 63.4357 159.174 63.837C159.482 64.2337 159.932 64.432 160.525 64.432ZM165.486 67.89L165.598 67.092C165.822 67.1107 166.004 67.0733 166.144 66.98C166.284 66.8913 166.38 66.7607 166.431 66.588C166.487 66.42 166.499 66.224 166.466 66H165.486V64.096H167.39V66C167.39 66.672 167.234 67.1807 166.921 67.526C166.609 67.8713 166.13 67.9927 165.486 67.89ZM172.719 58.44V55.92H174.623V58.44H172.719ZM175.463 58.44V55.92H177.367V58.44H175.463ZM184.834 64.11V61.688H182.412V60.218H184.834V57.81H186.304V60.218H188.712V61.688H186.304V64.11H184.834ZM236.692 64.11V61.688H234.27V60.218H236.692V57.81H238.162V60.218H240.57V61.688H238.162V64.11H236.692ZM245.057 58.44V55.92H246.961V58.44H245.057ZM247.801 58.44V55.92H249.705V58.44H247.801ZM252.787 66V64.32H254.691V66H252.787ZM252.787 63.48V55.92H254.691V63.48H252.787ZM257.211 58.44V55.92H259.115V58.44H257.211ZM259.955 58.44V55.92H261.859V58.44H259.955ZM265.236 68.716L263.822 67.68C264.391 66.994 264.837 66.3103 265.159 65.629C265.481 64.943 265.707 64.25 265.838 63.55C265.973 62.8453 266.043 62.122 266.048 61.38C266.043 60.638 265.973 59.917 265.838 59.217C265.707 58.5123 265.481 57.8193 265.159 57.138C264.837 56.452 264.391 55.766 263.822 55.08L265.236 54.044C265.777 54.6787 266.239 55.3997 266.622 56.207C267.009 57.0097 267.301 57.8543 267.497 58.741C267.697 59.6277 267.788 60.5073 267.77 61.38C267.788 62.2527 267.697 63.1323 267.497 64.019C267.301 64.901 267.009 65.7457 266.622 66.553C266.239 67.3603 265.777 68.0813 265.236 68.716ZM271.269 67.89L271.381 67.092C271.605 67.1107 271.787 67.0733 271.927 66.98C272.067 66.8913 272.162 66.7607 272.214 66.588C272.27 66.42 272.281 66.224 272.249 66H271.269V64.096H273.173V66C273.173 66.672 273.016 67.1807 272.704 67.526C272.391 67.8713 271.913 67.9927 271.269 67.89ZM271.269 60.344V58.44H273.173V60.344H271.269ZM31.054 91.94H30.06V90.162H30.914C31.026 90.162 31.1217 90.12 31.201 90.036C31.2803 89.9567 31.32 89.8587 31.32 89.742V85.794C31.32 85.3367 31.4553 84.9167 31.726 84.534L31.992 84.17L31.726 83.806C31.4553 83.4233 31.32 83.0033 31.32 82.546V78.598C31.32 78.486 31.2803 78.3903 31.201 78.311C31.1217 78.2317 31.026 78.192 30.914 78.192H30.06V76.4H31.054C31.698 76.4 32.202 76.5843 32.566 76.953C32.93 77.317 33.112 77.8187 33.112 78.458V82.546C33.112 82.616 33.1353 82.6907 33.182 82.77L33.812 83.666C33.9193 83.82 33.973 83.988 33.973 84.17C33.973 84.352 33.9193 84.52 33.812 84.674L33.182 85.57C33.1353 85.6307 33.112 85.7053 33.112 85.794V89.882C33.112 90.526 32.93 91.03 32.566 91.394C32.202 91.758 31.698 91.94 31.054 91.94ZM71.619 137.716C71.0777 137.081 70.6133 136.36 70.226 135.553C69.8433 134.746 69.5517 133.901 69.351 133.019C69.155 132.132 69.0663 131.253 69.085 130.38C69.0663 129.507 69.155 128.628 69.351 127.741C69.5517 126.854 69.8433 126.01 70.226 125.207C70.6133 124.4 71.0777 123.679 71.619 123.044L73.033 124.08C72.4637 124.766 72.018 125.452 71.696 126.138C71.374 126.819 71.1453 127.512 71.01 128.217C70.8793 128.917 70.8117 129.638 70.807 130.38C70.8117 131.122 70.8793 131.845 71.01 132.55C71.1453 133.25 71.374 133.943 71.696 134.629C72.018 135.31 72.4637 135.994 73.033 136.68L71.619 137.716ZM75.5658 137.716L74.1518 136.68C74.7211 135.994 75.1668 135.31 75.4888 134.629C75.8108 133.943 76.0371 133.25 76.1678 132.55C76.3031 131.845 76.3731 131.122 76.3778 130.38C76.3731 129.638 76.3031 128.917 76.1678 128.217C76.0371 127.512 75.8108 126.819 75.4888 126.138C75.1668 125.452 74.7211 124.766 74.1518 124.08L75.5658 123.044C76.1071 123.679 76.5691 124.4 76.9518 125.207C77.3391 126.01 77.6308 126.854 77.8268 127.741C78.0275 128.628 78.1185 129.507 78.0998 130.38C78.1185 131.253 78.0275 132.132 77.8268 133.019C77.6308 133.901 77.3391 134.746 76.9518 135.553C76.5691 136.36 76.1071 137.081 75.5658 137.716ZM81.5986 136.89L81.7106 136.092C81.9346 136.111 82.1166 136.073 82.2566 135.98C82.3966 135.891 82.4923 135.761 82.5436 135.588C82.5996 135.42 82.6113 135.224 82.5786 135H81.5986V133.096H83.5026V135C83.5026 135.672 83.3463 136.181 83.0336 136.526C82.7209 136.871 82.2426 136.993 81.5986 136.89ZM81.5986 129.344V127.44H83.5026V129.344H81.5986ZM71.619 160.716C71.0777 160.081 70.6133 159.36 70.226 158.553C69.8433 157.746 69.5517 156.901 69.351 156.019C69.155 155.132 69.0663 154.253 69.085 153.38C69.0663 152.507 69.155 151.628 69.351 150.741C69.5517 149.854 69.8433 149.01 70.226 148.207C70.6133 147.4 71.0777 146.679 71.619 146.044L73.033 147.08C72.4637 147.766 72.018 148.452 71.696 149.138C71.374 149.819 71.1453 150.512 71.01 151.217C70.8793 151.917 70.8117 152.638 70.807 153.38C70.8117 154.122 70.8793 154.845 71.01 155.55C71.1453 156.25 71.374 156.943 71.696 157.629C72.018 158.31 72.4637 158.994 73.033 159.68L71.619 160.716ZM74.4318 150.44V147.92H76.3358V150.44H74.4318ZM77.1758 150.44V147.92H79.0798V150.44H77.1758ZM115.639 150.44V147.92H117.543V150.44H115.639ZM118.383 150.44V147.92H120.287V150.44H118.383ZM123.663 160.716L122.249 159.68C122.819 158.994 123.264 158.31 123.586 157.629C123.908 156.943 124.135 156.25 124.265 155.55C124.401 154.845 124.471 154.122 124.475 153.38C124.471 152.638 124.401 151.917 124.265 151.217C124.135 150.512 123.908 149.819 123.586 149.138C123.264 148.452 122.819 147.766 122.249 147.08L123.663 146.044C124.205 146.679 124.667 147.4 125.049 148.207C125.437 149.01 125.728 149.854 125.924 150.741C126.125 151.628 126.216 152.507 126.197 153.38C126.216 154.253 126.125 155.132 125.924 156.019C125.728 156.901 125.437 157.746 125.049 158.553C124.667 159.36 124.205 160.081 123.663 160.716ZM129.696 159.89L129.808 159.092C130.032 159.111 130.214 159.073 130.354 158.98C130.494 158.891 130.59 158.761 130.641 158.588C130.697 158.42 130.709 158.224 130.676 158H129.696V156.096H131.6V158C131.6 158.672 131.444 159.181 131.131 159.526C130.819 159.871 130.34 159.993 129.696 159.89ZM129.696 152.344V150.44H131.6V152.344H129.696Z" fill="white"/>
<path d="M95.7843 46.57C95.355 46.57 94.9466 46.5 94.5593 46.36C94.172 46.2247 93.8243 46.0333 93.5163 45.786C93.213 45.5433 92.9656 45.2587 92.7743 44.932L94.5383 44.078C94.6596 44.302 94.8323 44.4723 95.0563 44.589C95.285 44.7057 95.5323 44.764 95.7983 44.764C96.083 44.764 96.3513 44.715 96.6033 44.617C96.8553 44.5237 97.056 44.3813 97.2053 44.19C97.3593 44.0033 97.4316 43.77 97.4223 43.49V41.292H97.6603V35.44H99.3263V43.518C99.3263 43.7047 99.317 43.8797 99.2983 44.043C99.2843 44.211 99.2563 44.3767 99.2143 44.54C99.093 45.002 98.8666 45.3823 98.5353 45.681C98.2086 45.9797 97.8073 46.2013 97.3313 46.346C96.8553 46.4953 96.3396 46.57 95.7843 46.57ZM95.6163 43.21C94.921 43.21 94.312 43.035 93.7893 42.685C93.2666 42.335 92.8583 41.859 92.5643 41.257C92.275 40.655 92.1303 39.976 92.1303 39.22C92.1303 38.45 92.2773 37.7663 92.5713 37.169C92.87 36.567 93.2876 36.0933 93.8243 35.748C94.361 35.4027 94.991 35.23 95.7143 35.23C96.433 35.23 97.0373 35.405 97.5273 35.755C98.0173 36.105 98.3883 36.581 98.6403 37.183C98.8923 37.785 99.0183 38.464 99.0183 39.22C99.0183 39.976 98.89 40.655 98.6333 41.257C98.3813 41.859 98.0033 42.335 97.4993 42.685C96.9953 43.035 96.3676 43.21 95.6163 43.21ZM95.9243 41.516C96.349 41.516 96.6873 41.4203 96.9393 41.229C97.196 41.0377 97.3803 40.7693 97.4923 40.424C97.6043 40.0787 97.6603 39.6773 97.6603 39.22C97.6603 38.7627 97.6043 38.3613 97.4923 38.016C97.3803 37.6707 97.2006 37.4023 96.9533 37.211C96.7106 37.0197 96.391 36.924 95.9943 36.924C95.5696 36.924 95.2196 37.029 94.9443 37.239C94.6736 37.4443 94.473 37.722 94.3423 38.072C94.2116 38.4173 94.1463 38.8 94.1463 39.22C94.1463 39.6447 94.2093 40.032 94.3353 40.382C94.4613 40.7273 94.655 41.0027 94.9163 41.208C95.1776 41.4133 95.5136 41.516 95.9243 41.516ZM101.287 43V35.44H102.967V37.288L102.785 37.05C102.883 36.7887 103.013 36.5507 103.177 36.336C103.34 36.1213 103.541 35.944 103.779 35.804C103.961 35.692 104.159 35.6057 104.374 35.545C104.588 35.4797 104.81 35.44 105.039 35.426C105.267 35.4073 105.496 35.412 105.725 35.44V37.218C105.515 37.1527 105.27 37.1317 104.99 37.155C104.714 37.1737 104.465 37.2367 104.241 37.344C104.017 37.4467 103.828 37.5843 103.674 37.757C103.52 37.925 103.403 38.1257 103.324 38.359C103.244 38.5877 103.205 38.8467 103.205 39.136V43H101.287ZM110.433 43.21C109.659 43.21 108.975 43.0443 108.382 42.713C107.794 42.377 107.332 41.9173 106.996 41.334C106.665 40.746 106.499 40.074 106.499 39.318C106.499 38.492 106.663 37.7733 106.989 37.162C107.316 36.5507 107.766 36.077 108.34 35.741C108.914 35.4003 109.575 35.23 110.321 35.23C111.115 35.23 111.789 35.4167 112.344 35.79C112.9 36.1633 113.31 36.6883 113.576 37.365C113.842 38.0417 113.936 38.8373 113.856 39.752H111.973V39.052C111.973 38.282 111.85 37.729 111.602 37.393C111.36 37.0523 110.961 36.882 110.405 36.882C109.757 36.882 109.278 37.0803 108.97 37.477C108.667 37.869 108.515 38.45 108.515 39.22C108.515 39.9247 108.667 40.4707 108.97 40.858C109.278 41.2407 109.729 41.432 110.321 41.432C110.695 41.432 111.014 41.3503 111.28 41.187C111.546 41.0237 111.749 40.788 111.889 40.48L113.793 41.026C113.509 41.7167 113.058 42.2533 112.442 42.636C111.831 43.0187 111.161 43.21 110.433 43.21ZM107.927 39.752V38.338H112.939V39.752H107.927ZM118.951 43.21C118.176 43.21 117.493 43.0443 116.9 42.713C116.312 42.377 115.85 41.9173 115.514 41.334C115.183 40.746 115.017 40.074 115.017 39.318C115.017 38.492 115.18 37.7733 115.507 37.162C115.834 36.5507 116.284 36.077 116.858 35.741C117.432 35.4003 118.092 35.23 118.839 35.23C119.632 35.23 120.307 35.4167 120.862 35.79C121.417 36.1633 121.828 36.6883 122.094 37.365C122.36 38.0417 122.453 38.8373 122.374 39.752H120.491V39.052C120.491 38.282 120.367 37.729 120.12 37.393C119.877 37.0523 119.478 36.882 118.923 36.882C118.274 36.882 117.796 37.0803 117.488 37.477C117.185 37.869 117.033 38.45 117.033 39.22C117.033 39.9247 117.185 40.4707 117.488 40.858C117.796 41.2407 118.246 41.432 118.839 41.432C119.212 41.432 119.532 41.3503 119.798 41.187C120.064 41.0237 120.267 40.788 120.407 40.48L122.311 41.026C122.026 41.7167 121.576 42.2533 120.96 42.636C120.349 43.0187 119.679 43.21 118.951 43.21ZM116.445 39.752V38.338H121.457V39.752H116.445ZM128.491 43C127.968 43.098 127.455 43.14 126.951 43.126C126.451 43.1167 126.003 43.0303 125.607 42.867C125.215 42.699 124.916 42.4307 124.711 42.062C124.524 41.7167 124.426 41.3667 124.417 41.012C124.407 40.6527 124.403 40.2467 124.403 39.794V33.34H126.307V39.682C126.307 39.976 126.309 40.242 126.314 40.48C126.323 40.7133 126.372 40.9 126.461 41.04C126.629 41.306 126.897 41.4507 127.266 41.474C127.634 41.4973 128.043 41.4787 128.491 41.418V43ZM123.115 36.91V35.44H128.491V36.91H123.115ZM33.714 138.57C33.2847 138.57 32.8763 138.5 32.489 138.36C32.1017 138.225 31.754 138.033 31.446 137.786C31.1427 137.543 30.8953 137.259 30.704 136.932L32.468 136.078C32.5893 136.302 32.762 136.472 32.986 136.589C33.2147 136.706 33.462 136.764 33.728 136.764C34.0127 136.764 34.281 136.715 34.533 136.617C34.785 136.524 34.9857 136.381 35.135 136.19C35.289 136.003 35.3613 135.77 35.352 135.49V133.292H35.59V127.44H37.256V135.518C37.256 135.705 37.2467 135.88 37.228 136.043C37.214 136.211 37.186 136.377 37.144 136.54C37.0227 137.002 36.7963 137.382 36.465 137.681C36.1383 137.98 35.737 138.201 35.261 138.346C34.785 138.495 34.2693 138.57 33.714 138.57ZM33.546 135.21C32.8507 135.21 32.2417 135.035 31.719 134.685C31.1963 134.335 30.788 133.859 30.494 133.257C30.2047 132.655 30.06 131.976 30.06 131.22C30.06 130.45 30.207 129.766 30.501 129.169C30.7997 128.567 31.2173 128.093 31.754 127.748C32.2907 127.403 32.9207 127.23 33.644 127.23C34.3627 127.23 34.967 127.405 35.457 127.755C35.947 128.105 36.318 128.581 36.57 129.183C36.822 129.785 36.948 130.464 36.948 131.22C36.948 131.976 36.8197 132.655 36.563 133.257C36.311 133.859 35.933 134.335 35.429 134.685C34.925 135.035 34.2973 135.21 33.546 135.21ZM33.854 133.516C34.2787 133.516 34.617 133.42 34.869 133.229C35.1257 133.038 35.31 132.769 35.422 132.424C35.534 132.079 35.59 131.677 35.59 131.22C35.59 130.763 35.534 130.361 35.422 130.016C35.31 129.671 35.1303 129.402 34.883 129.211C34.6403 129.02 34.3207 128.924 33.924 128.924C33.4993 128.924 33.1493 129.029 32.874 129.239C32.6033 129.444 32.4027 129.722 32.272 130.072C32.1413 130.417 32.076 130.8 32.076 131.22C32.076 131.645 32.139 132.032 32.265 132.382C32.391 132.727 32.5847 133.003 32.846 133.208C33.1073 133.413 33.4433 133.516 33.854 133.516ZM39.2163 135V127.44H40.8963V129.288L40.7143 129.05C40.8123 128.789 40.943 128.551 41.1063 128.336C41.2697 128.121 41.4703 127.944 41.7083 127.804C41.8903 127.692 42.0887 127.606 42.3033 127.545C42.518 127.48 42.7397 127.44 42.9683 127.426C43.197 127.407 43.4257 127.412 43.6543 127.44V129.218C43.4443 129.153 43.1993 129.132 42.9193 129.155C42.644 129.174 42.3943 129.237 42.1703 129.344C41.9463 129.447 41.7573 129.584 41.6033 129.757C41.4493 129.925 41.3327 130.126 41.2533 130.359C41.174 130.588 41.1343 130.847 41.1343 131.136V135H39.2163ZM48.3631 135.21C47.5885 135.21 46.9048 135.044 46.3121 134.713C45.7241 134.377 45.2621 133.917 44.9261 133.334C44.5948 132.746 44.4291 132.074 44.4291 131.318C44.4291 130.492 44.5925 129.773 44.9191 129.162C45.2458 128.551 45.6961 128.077 46.2701 127.741C46.8441 127.4 47.5045 127.23 48.2511 127.23C49.0445 127.23 49.7188 127.417 50.2741 127.79C50.8295 128.163 51.2401 128.688 51.5061 129.365C51.7721 130.042 51.8655 130.837 51.7861 131.752H49.9031V131.052C49.9031 130.282 49.7795 129.729 49.5321 129.393C49.2895 129.052 48.8905 128.882 48.3351 128.882C47.6865 128.882 47.2081 129.08 46.9001 129.477C46.5968 129.869 46.4451 130.45 46.4451 131.22C46.4451 131.925 46.5968 132.471 46.9001 132.858C47.2081 133.241 47.6585 133.432 48.2511 133.432C48.6245 133.432 48.9441 133.35 49.2101 133.187C49.4761 133.024 49.6791 132.788 49.8191 132.48L51.7231 133.026C51.4385 133.717 50.9881 134.253 50.3721 134.636C49.7608 135.019 49.0911 135.21 48.3631 135.21ZM45.8571 131.752V130.338H50.8691V131.752H45.8571ZM56.8807 135.21C56.1061 135.21 55.4224 135.044 54.8297 134.713C54.2417 134.377 53.7797 133.917 53.4437 133.334C53.1124 132.746 52.9467 132.074 52.9467 131.318C52.9467 130.492 53.1101 129.773 53.4367 129.162C53.7634 128.551 54.2137 128.077 54.7877 127.741C55.3617 127.4 56.0221 127.23 56.7687 127.23C57.5621 127.23 58.2364 127.417 58.7917 127.79C59.3471 128.163 59.7577 128.688 60.0237 129.365C60.2897 130.042 60.3831 130.837 60.3037 131.752H58.4207V131.052C58.4207 130.282 58.2971 129.729 58.0497 129.393C57.8071 129.052 57.4081 128.882 56.8527 128.882C56.2041 128.882 55.7257 129.08 55.4177 129.477C55.1144 129.869 54.9627 130.45 54.9627 131.22C54.9627 131.925 55.1144 132.471 55.4177 132.858C55.7257 133.241 56.1761 133.432 56.7687 133.432C57.1421 133.432 57.4617 133.35 57.7277 133.187C57.9937 133.024 58.1967 132.788 58.3367 132.48L60.2407 133.026C59.9561 133.717 59.5057 134.253 58.8897 134.636C58.2784 135.019 57.6087 135.21 56.8807 135.21ZM54.3747 131.752V130.338H59.3867V131.752H54.3747ZM66.4203 135C65.8976 135.098 65.3843 135.14 64.8803 135.126C64.381 135.117 63.933 135.03 63.5363 134.867C63.1443 134.699 62.8456 134.431 62.6403 134.062C62.4536 133.717 62.3556 133.367 62.3463 133.012C62.337 132.653 62.3323 132.247 62.3323 131.794V125.34H64.2363V131.682C64.2363 131.976 64.2386 132.242 64.2433 132.48C64.2526 132.713 64.3016 132.9 64.3903 133.04C64.5583 133.306 64.8266 133.451 65.1953 133.474C65.564 133.497 65.9723 133.479 66.4203 133.418V135ZM61.0443 128.91V127.44H66.4203V128.91H61.0443ZM33.714 161.57C33.2847 161.57 32.8763 161.5 32.489 161.36C32.1017 161.225 31.754 161.033 31.446 160.786C31.1427 160.543 30.8953 160.259 30.704 159.932L32.468 159.078C32.5893 159.302 32.762 159.472 32.986 159.589C33.2147 159.706 33.462 159.764 33.728 159.764C34.0127 159.764 34.281 159.715 34.533 159.617C34.785 159.524 34.9857 159.381 35.135 159.19C35.289 159.003 35.3613 158.77 35.352 158.49V156.292H35.59V150.44H37.256V158.518C37.256 158.705 37.2467 158.88 37.228 159.043C37.214 159.211 37.186 159.377 37.144 159.54C37.0227 160.002 36.7963 160.382 36.465 160.681C36.1383 160.98 35.737 161.201 35.261 161.346C34.785 161.495 34.2693 161.57 33.714 161.57ZM33.546 158.21C32.8507 158.21 32.2417 158.035 31.719 157.685C31.1963 157.335 30.788 156.859 30.494 156.257C30.2047 155.655 30.06 154.976 30.06 154.22C30.06 153.45 30.207 152.766 30.501 152.169C30.7997 151.567 31.2173 151.093 31.754 150.748C32.2907 150.403 32.9207 150.23 33.644 150.23C34.3627 150.23 34.967 150.405 35.457 150.755C35.947 151.105 36.318 151.581 36.57 152.183C36.822 152.785 36.948 153.464 36.948 154.22C36.948 154.976 36.8197 155.655 36.563 156.257C36.311 156.859 35.933 157.335 35.429 157.685C34.925 158.035 34.2973 158.21 33.546 158.21ZM33.854 156.516C34.2787 156.516 34.617 156.42 34.869 156.229C35.1257 156.038 35.31 155.769 35.422 155.424C35.534 155.079 35.59 154.677 35.59 154.22C35.59 153.763 35.534 153.361 35.422 153.016C35.31 152.671 35.1303 152.402 34.883 152.211C34.6403 152.02 34.3207 151.924 33.924 151.924C33.4993 151.924 33.1493 152.029 32.874 152.239C32.6033 152.444 32.4027 152.722 32.272 153.072C32.1413 153.417 32.076 153.8 32.076 154.22C32.076 154.645 32.139 155.032 32.265 155.382C32.391 155.727 32.5847 156.003 32.846 156.208C33.1073 156.413 33.4433 156.516 33.854 156.516ZM39.2163 158V150.44H40.8963V152.288L40.7143 152.05C40.8123 151.789 40.943 151.551 41.1063 151.336C41.2697 151.121 41.4703 150.944 41.7083 150.804C41.8903 150.692 42.0887 150.606 42.3033 150.545C42.518 150.48 42.7397 150.44 42.9683 150.426C43.197 150.407 43.4257 150.412 43.6543 150.44V152.218C43.4443 152.153 43.1993 152.132 42.9193 152.155C42.644 152.174 42.3943 152.237 42.1703 152.344C41.9463 152.447 41.7573 152.584 41.6033 152.757C41.4493 152.925 41.3327 153.126 41.2533 153.359C41.174 153.588 41.1343 153.847 41.1343 154.136V158H39.2163ZM48.3631 158.21C47.5885 158.21 46.9048 158.044 46.3121 157.713C45.7241 157.377 45.2621 156.917 44.9261 156.334C44.5948 155.746 44.4291 155.074 44.4291 154.318C44.4291 153.492 44.5925 152.773 44.9191 152.162C45.2458 151.551 45.6961 151.077 46.2701 150.741C46.8441 150.4 47.5045 150.23 48.2511 150.23C49.0445 150.23 49.7188 150.417 50.2741 150.79C50.8295 151.163 51.2401 151.688 51.5061 152.365C51.7721 153.042 51.8655 153.837 51.7861 154.752H49.9031V154.052C49.9031 153.282 49.7795 152.729 49.5321 152.393C49.2895 152.052 48.8905 151.882 48.3351 151.882C47.6865 151.882 47.2081 152.08 46.9001 152.477C46.5968 152.869 46.4451 153.45 46.4451 154.22C46.4451 154.925 46.5968 155.471 46.9001 155.858C47.2081 156.241 47.6585 156.432 48.2511 156.432C48.6245 156.432 48.9441 156.35 49.2101 156.187C49.4761 156.024 49.6791 155.788 49.8191 155.48L51.7231 156.026C51.4385 156.717 50.9881 157.253 50.3721 157.636C49.7608 158.019 49.0911 158.21 48.3631 158.21ZM45.8571 154.752V153.338H50.8691V154.752H45.8571ZM56.8807 158.21C56.1061 158.21 55.4224 158.044 54.8297 157.713C54.2417 157.377 53.7797 156.917 53.4437 156.334C53.1124 155.746 52.9467 155.074 52.9467 154.318C52.9467 153.492 53.1101 152.773 53.4367 152.162C53.7634 151.551 54.2137 151.077 54.7877 150.741C55.3617 150.4 56.0221 150.23 56.7687 150.23C57.5621 150.23 58.2364 150.417 58.7917 150.79C59.3471 151.163 59.7577 151.688 60.0237 152.365C60.2897 153.042 60.3831 153.837 60.3037 154.752H58.4207V154.052C58.4207 153.282 58.2971 152.729 58.0497 152.393C57.8071 152.052 57.4081 151.882 56.8527 151.882C56.2041 151.882 55.7257 152.08 55.4177 152.477C55.1144 152.869 54.9627 153.45 54.9627 154.22C54.9627 154.925 55.1144 155.471 55.4177 155.858C55.7257 156.241 56.1761 156.432 56.7687 156.432C57.1421 156.432 57.4617 156.35 57.7277 156.187C57.9937 156.024 58.1967 155.788 58.3367 155.48L60.2407 156.026C59.9561 156.717 59.5057 157.253 58.8897 157.636C58.2784 158.019 57.6087 158.21 56.8807 158.21ZM54.3747 154.752V153.338H59.3867V154.752H54.3747ZM66.4203 158C65.8976 158.098 65.3843 158.14 64.8803 158.126C64.381 158.117 63.933 158.03 63.5363 157.867C63.1443 157.699 62.8456 157.431 62.6403 157.062C62.4536 156.717 62.3556 156.367 62.3463 156.012C62.337 155.653 62.3323 155.247 62.3323 154.794V148.34H64.2363V154.682C64.2363 154.976 64.2386 155.242 64.2433 155.48C64.2526 155.713 64.3016 155.9 64.3903 156.04C64.5583 156.306 64.8266 156.451 65.1953 156.474C65.564 156.497 65.9723 156.479 66.4203 156.418V158ZM61.0443 151.91V150.44H66.4203V151.91H61.0443Z" fill="#FFD966"/>
<path d="M141.794 43V39.43C141.794 39.2573 141.785 39.038 141.766 38.772C141.747 38.5013 141.689 38.2307 141.591 37.96C141.493 37.6893 141.332 37.463 141.108 37.281C140.889 37.099 140.576 37.008 140.17 37.008C140.007 37.008 139.832 37.0337 139.645 37.085C139.458 37.1363 139.283 37.2367 139.12 37.386C138.957 37.5307 138.821 37.7453 138.714 38.03C138.611 38.3147 138.56 38.6927 138.56 39.164L137.468 38.646C137.468 38.0487 137.589 37.4887 137.832 36.966C138.075 36.4433 138.439 36.021 138.924 35.699C139.414 35.377 140.03 35.216 140.772 35.216C141.365 35.216 141.848 35.3163 142.221 35.517C142.594 35.7177 142.884 35.972 143.089 36.28C143.299 36.588 143.448 36.91 143.537 37.246C143.626 37.5773 143.679 37.8807 143.698 38.156C143.717 38.4313 143.726 38.632 143.726 38.758V43H141.794ZM136.628 43V35.44H138.322V37.946H138.56V43H136.628ZM147.643 43.21C147.101 43.21 146.642 43.1073 146.264 42.902C145.89 42.692 145.606 42.4143 145.41 42.069C145.218 41.719 145.123 41.334 145.123 40.914C145.123 40.564 145.176 40.2443 145.284 39.955C145.391 39.6657 145.564 39.4113 145.802 39.192C146.044 38.968 146.369 38.7813 146.775 38.632C147.055 38.5293 147.388 38.4383 147.776 38.359C148.163 38.2797 148.602 38.205 149.092 38.135C149.582 38.0603 150.121 37.9787 150.709 37.89L150.023 38.268C150.023 37.82 149.915 37.491 149.701 37.281C149.486 37.071 149.127 36.966 148.623 36.966C148.343 36.966 148.051 37.0337 147.748 37.169C147.444 37.3043 147.232 37.5447 147.111 37.89L145.389 37.344C145.58 36.7187 145.939 36.21 146.467 35.818C146.994 35.426 147.713 35.23 148.623 35.23C149.29 35.23 149.883 35.3327 150.401 35.538C150.919 35.7433 151.311 36.098 151.577 36.602C151.726 36.882 151.815 37.162 151.843 37.442C151.871 37.722 151.885 38.0347 151.885 38.38V43H150.219V41.446L150.457 41.768C150.088 42.2767 149.689 42.6453 149.26 42.874C148.835 43.098 148.296 43.21 147.643 43.21ZM148.049 41.712C148.399 41.712 148.693 41.6513 148.931 41.53C149.173 41.404 149.365 41.2617 149.505 41.103C149.649 40.9443 149.747 40.8113 149.799 40.704C149.897 40.4987 149.953 40.2607 149.967 39.99C149.985 39.7147 149.995 39.486 149.995 39.304L150.555 39.444C149.99 39.5373 149.533 39.6167 149.183 39.682C148.833 39.7427 148.55 39.7987 148.336 39.85C148.121 39.9013 147.932 39.9573 147.769 40.018C147.582 40.0927 147.43 40.1743 147.314 40.263C147.202 40.347 147.118 40.4403 147.062 40.543C147.01 40.6457 146.985 40.76 146.985 40.886C146.985 41.0587 147.027 41.208 147.111 41.334C147.199 41.4553 147.323 41.5487 147.482 41.614C147.64 41.6793 147.829 41.712 148.049 41.712ZM162.805 43V38.534C162.805 38.0347 162.686 37.6473 162.448 37.372C162.214 37.092 161.89 36.952 161.475 36.952C161.209 36.952 160.978 37.015 160.782 37.141C160.586 37.2623 160.432 37.435 160.32 37.659C160.212 37.8783 160.159 38.1327 160.159 38.422L159.361 37.89C159.361 37.372 159.482 36.9147 159.725 36.518C159.972 36.1213 160.301 35.8133 160.712 35.594C161.127 35.37 161.587 35.258 162.091 35.258C162.954 35.258 163.605 35.5147 164.044 36.028C164.487 36.5367 164.709 37.204 164.709 38.03V43H162.805ZM153.691 43V35.44H155.371V37.946H155.609V43H153.691ZM158.255 43V38.534C158.255 38.0347 158.136 37.6473 157.898 37.372C157.664 37.092 157.34 36.952 156.925 36.952C156.528 36.952 156.208 37.0897 155.966 37.365C155.728 37.6357 155.609 37.988 155.609 38.422L154.811 37.862C154.811 37.3673 154.934 36.924 155.182 36.532C155.429 36.14 155.76 35.8297 156.176 35.601C156.596 35.3723 157.065 35.258 157.583 35.258C158.175 35.258 158.661 35.384 159.039 35.636C159.421 35.888 159.704 36.224 159.886 36.644C160.068 37.064 160.159 37.526 160.159 38.03V43H158.255ZM169.906 43.21C169.131 43.21 168.448 43.0443 167.855 42.713C167.267 42.377 166.805 41.9173 166.469 41.334C166.138 40.746 165.972 40.074 165.972 39.318C165.972 38.492 166.135 37.7733 166.462 37.162C166.789 36.5507 167.239 36.077 167.813 35.741C168.387 35.4003 169.047 35.23 169.794 35.23C170.587 35.23 171.262 35.4167 171.817 35.79C172.372 36.1633 172.783 36.6883 173.049 37.365C173.315 38.0417 173.408 38.8373 173.329 39.752H171.446V39.052C171.446 38.282 171.322 37.729 171.075 37.393C170.832 37.0523 170.433 36.882 169.878 36.882C169.229 36.882 168.751 37.0803 168.443 37.477C168.14 37.869 167.988 38.45 167.988 39.22C167.988 39.9247 168.14 40.4707 168.443 40.858C168.751 41.2407 169.201 41.432 169.794 41.432C170.167 41.432 170.487 41.3503 170.753 41.187C171.019 41.0237 171.222 40.788 171.362 40.48L173.266 41.026C172.981 41.7167 172.531 42.2533 171.915 42.636C171.304 43.0187 170.634 43.21 169.906 43.21ZM167.4 39.752V38.338H172.412V39.752H167.4ZM198.491 66V62.43C198.491 62.2573 198.482 62.038 198.463 61.772C198.445 61.5013 198.386 61.2307 198.288 60.96C198.19 60.6893 198.029 60.463 197.805 60.281C197.586 60.099 197.273 60.008 196.867 60.008C196.704 60.008 196.529 60.0337 196.342 60.085C196.156 60.1363 195.981 60.2367 195.817 60.386C195.654 60.5307 195.519 60.7453 195.411 61.03C195.309 61.3147 195.257 61.6927 195.257 62.164L194.165 61.646C194.165 61.0487 194.287 60.4887 194.529 59.966C194.772 59.4433 195.136 59.021 195.621 58.699C196.111 58.377 196.727 58.216 197.469 58.216C198.062 58.216 198.545 58.3163 198.918 58.517C199.292 58.7177 199.581 58.972 199.786 59.28C199.996 59.588 200.146 59.91 200.234 60.246C200.323 60.5773 200.377 60.8807 200.395 61.156C200.414 61.4313 200.423 61.632 200.423 61.758V66H198.491ZM193.325 66V58.44H195.019V60.946H195.257V66H193.325ZM204.34 66.21C203.798 66.21 203.339 66.1073 202.961 65.902C202.587 65.692 202.303 65.4143 202.107 65.069C201.915 64.719 201.82 64.334 201.82 63.914C201.82 63.564 201.873 63.2443 201.981 62.955C202.088 62.6657 202.261 62.4113 202.499 62.192C202.741 61.968 203.066 61.7813 203.472 61.632C203.752 61.5293 204.085 61.4383 204.473 61.359C204.86 61.2797 205.299 61.205 205.789 61.135C206.279 61.0603 206.818 60.9787 207.406 60.89L206.72 61.268C206.72 60.82 206.612 60.491 206.398 60.281C206.183 60.071 205.824 59.966 205.32 59.966C205.04 59.966 204.748 60.0337 204.445 60.169C204.141 60.3043 203.929 60.5447 203.808 60.89L202.086 60.344C202.277 59.7187 202.636 59.21 203.164 58.818C203.691 58.426 204.41 58.23 205.32 58.23C205.987 58.23 206.58 58.3327 207.098 58.538C207.616 58.7433 208.008 59.098 208.274 59.602C208.423 59.882 208.512 60.162 208.54 60.442C208.568 60.722 208.582 61.0347 208.582 61.38V66H206.916V64.446L207.154 64.768C206.785 65.2767 206.386 65.6453 205.957 65.874C205.532 66.098 204.993 66.21 204.34 66.21ZM204.746 64.712C205.096 64.712 205.39 64.6513 205.628 64.53C205.87 64.404 206.062 64.2617 206.202 64.103C206.346 63.9443 206.444 63.8113 206.496 63.704C206.594 63.4987 206.65 63.2607 206.664 62.99C206.682 62.7147 206.692 62.486 206.692 62.304L207.252 62.444C206.687 62.5373 206.23 62.6167 205.88 62.682C205.53 62.7427 205.247 62.7987 205.033 62.85C204.818 62.9013 204.629 62.9573 204.466 63.018C204.279 63.0927 204.127 63.1743 204.011 63.263C203.899 63.347 203.815 63.4403 203.759 63.543C203.707 63.6457 203.682 63.76 203.682 63.886C203.682 64.0587 203.724 64.208 203.808 64.334C203.896 64.4553 204.02 64.5487 204.179 64.614C204.337 64.6793 204.526 64.712 204.746 64.712ZM219.502 66V61.534C219.502 61.0347 219.383 60.6473 219.145 60.372C218.912 60.092 218.587 59.952 218.172 59.952C217.906 59.952 217.675 60.015 217.479 60.141C217.283 60.2623 217.129 60.435 217.017 60.659C216.91 60.8783 216.856 61.1327 216.856 61.422L216.058 60.89C216.058 60.372 216.179 59.9147 216.422 59.518C216.669 59.1213 216.998 58.8133 217.409 58.594C217.824 58.37 218.284 58.258 218.788 58.258C219.651 58.258 220.302 58.5147 220.741 59.028C221.184 59.5367 221.406 60.204 221.406 61.03V66H219.502ZM210.388 66V58.44H212.068V60.946H212.306V66H210.388ZM214.952 66V61.534C214.952 61.0347 214.833 60.6473 214.595 60.372C214.362 60.092 214.037 59.952 213.622 59.952C213.225 59.952 212.906 60.0897 212.663 60.365C212.425 60.6357 212.306 60.988 212.306 61.422L211.508 60.862C211.508 60.3673 211.632 59.924 211.879 59.532C212.126 59.14 212.458 58.8297 212.873 58.601C213.293 58.3723 213.762 58.258 214.28 58.258C214.873 58.258 215.358 58.384 215.736 58.636C216.119 58.888 216.401 59.224 216.583 59.644C216.765 60.064 216.856 60.526 216.856 61.03V66H214.952ZM226.603 66.21C225.829 66.21 225.145 66.0443 224.552 65.713C223.964 65.377 223.502 64.9173 223.166 64.334C222.835 63.746 222.669 63.074 222.669 62.318C222.669 61.492 222.833 60.7733 223.159 60.162C223.486 59.5507 223.936 59.077 224.51 58.741C225.084 58.4003 225.745 58.23 226.491 58.23C227.285 58.23 227.959 58.4167 228.514 58.79C229.07 59.1633 229.48 59.6883 229.746 60.365C230.012 61.0417 230.106 61.8373 230.026 62.752H228.143V62.052C228.143 61.282 228.02 60.729 227.772 60.393C227.53 60.0523 227.131 59.882 226.575 59.882C225.927 59.882 225.448 60.0803 225.14 60.477C224.837 60.869 224.685 61.45 224.685 62.22C224.685 62.9247 224.837 63.4707 225.14 63.858C225.448 64.2407 225.899 64.432 226.491 64.432C226.865 64.432 227.184 64.3503 227.45 64.187C227.716 64.0237 227.919 63.788 228.059 63.48L229.963 64.026C229.679 64.7167 229.228 65.2533 228.612 65.636C228.001 66.0187 227.331 66.21 226.603 66.21ZM224.097 62.752V61.338H229.109V62.752H224.097ZM80.7624 158L83.8424 147.92H86.6844L89.7644 158H87.8044L85.0604 149.11H85.4244L82.7224 158H80.7624ZM82.6104 155.9V154.122H87.9304V155.9H82.6104ZM91.1591 158V147.71H93.0631V158H91.1591ZM95.3016 149.39V147.71H97.2056V149.39H95.3016ZM95.3016 158V150.44H97.2056V158H95.3016ZM102.636 158.21C101.852 158.21 101.18 158.035 100.62 157.685C100.06 157.335 99.6309 156.859 99.3322 156.257C99.0336 155.655 98.8842 154.976 98.8842 154.22C98.8842 153.455 99.0382 152.771 99.3462 152.169C99.6589 151.567 100.098 151.093 100.662 150.748C101.227 150.403 101.894 150.23 102.664 150.23C103.556 150.23 104.302 150.456 104.904 150.909C105.511 151.357 105.898 151.971 106.066 152.75L104.162 153.254C104.05 152.862 103.854 152.556 103.574 152.337C103.299 152.118 102.986 152.008 102.636 152.008C102.235 152.008 101.906 152.106 101.649 152.302C101.393 152.493 101.204 152.757 101.082 153.093C100.961 153.424 100.9 153.8 100.9 154.22C100.9 154.878 101.045 155.412 101.334 155.823C101.628 156.229 102.062 156.432 102.636 156.432C103.066 156.432 103.392 156.334 103.616 156.138C103.84 155.942 104.008 155.662 104.12 155.298L106.066 155.704C105.852 156.507 105.446 157.125 104.848 157.559C104.251 157.993 103.514 158.21 102.636 158.21ZM110.775 158.21C110.001 158.21 109.317 158.044 108.724 157.713C108.136 157.377 107.674 156.917 107.338 156.334C107.007 155.746 106.841 155.074 106.841 154.318C106.841 153.492 107.005 152.773 107.331 152.162C107.658 151.551 108.108 151.077 108.682 150.741C109.256 150.4 109.917 150.23 110.663 150.23C111.457 150.23 112.131 150.417 112.686 150.79C113.242 151.163 113.652 151.688 113.918 152.365C114.184 153.042 114.278 153.837 114.198 154.752H112.315V154.052C112.315 153.282 112.192 152.729 111.944 152.393C111.702 152.052 111.303 151.882 110.747 151.882C110.099 151.882 109.62 152.08 109.312 152.477C109.009 152.869 108.857 153.45 108.857 154.22C108.857 154.925 109.009 155.471 109.312 155.858C109.62 156.241 110.071 156.432 110.663 156.432C111.037 156.432 111.356 156.35 111.622 156.187C111.888 156.024 112.091 155.788 112.231 155.48L114.135 156.026C113.851 156.717 113.4 157.253 112.784 157.636C112.173 158.019 111.503 158.21 110.775 158.21ZM108.269 154.752V153.338H113.281V154.752H108.269Z" fill="#787DF7"/>
<rect x="25" y="185" width="217" height="94" rx="7" fill="#282525" stroke="#777777" stroke-width="2"/>
<path d="M50.4535 210.21C49.4455 210.21 48.5751 209.991 47.8425 209.552C47.1145 209.113 46.5521 208.5 46.1555 207.711C45.7635 206.922 45.5675 206.005 45.5675 204.96C45.5675 203.915 45.7635 202.998 46.1555 202.209C46.5521 201.42 47.1145 200.807 47.8425 200.368C48.5751 199.929 49.4455 199.71 50.4535 199.71C51.6108 199.71 52.5815 199.997 53.3655 200.571C54.1541 201.145 54.7095 201.922 55.0315 202.902L53.1135 203.434C52.9268 202.823 52.6118 202.349 52.1685 202.013C51.7251 201.672 51.1535 201.502 50.4535 201.502C49.8141 201.502 49.2798 201.644 48.8505 201.929C48.4258 202.214 48.1061 202.615 47.8915 203.133C47.6768 203.651 47.5695 204.26 47.5695 204.96C47.5695 205.66 47.6768 206.269 47.8915 206.787C48.1061 207.305 48.4258 207.706 48.8505 207.991C49.2798 208.276 49.8141 208.418 50.4535 208.418C51.1535 208.418 51.7251 208.248 52.1685 207.907C52.6118 207.566 52.9268 207.093 53.1135 206.486L55.0315 207.018C54.7095 207.998 54.1541 208.775 53.3655 209.349C52.5815 209.923 51.6108 210.21 50.4535 210.21ZM59.9748 210.21C59.2141 210.21 58.5468 210.04 57.9728 209.699C57.3988 209.358 56.9508 208.889 56.6288 208.292C56.3114 207.69 56.1528 206.999 56.1528 206.22C56.1528 205.431 56.3161 204.738 56.6428 204.141C56.9694 203.539 57.4198 203.07 57.9938 202.734C58.5678 202.398 59.2281 202.23 59.9748 202.23C60.7354 202.23 61.4028 202.4 61.9768 202.741C62.5554 203.082 63.0058 203.553 63.3278 204.155C63.6498 204.752 63.8108 205.441 63.8108 206.22C63.8108 207.004 63.6474 207.697 63.3208 208.299C62.9988 208.896 62.5484 209.365 61.9698 209.706C61.3958 210.042 60.7308 210.21 59.9748 210.21ZM59.9748 208.432C60.5861 208.432 61.0411 208.227 61.3398 207.816C61.6431 207.401 61.7948 206.869 61.7948 206.22C61.7948 205.548 61.6408 205.011 61.3328 204.61C61.0294 204.209 60.5768 204.008 59.9748 204.008C59.5594 204.008 59.2188 204.101 58.9528 204.288C58.6868 204.475 58.4884 204.734 58.3578 205.065C58.2318 205.396 58.1688 205.781 58.1688 206.22C58.1688 206.897 58.3204 207.436 58.6238 207.837C58.9318 208.234 59.3821 208.432 59.9748 208.432ZM70.5021 210V206.43C70.5021 206.257 70.4928 206.038 70.4741 205.772C70.4555 205.501 70.3971 205.231 70.2991 204.96C70.2011 204.689 70.0401 204.463 69.8161 204.281C69.5968 204.099 69.2841 204.008 68.8781 204.008C68.7148 204.008 68.5398 204.034 68.3531 204.085C68.1665 204.136 67.9915 204.237 67.8281 204.386C67.6648 204.531 67.5295 204.745 67.4221 205.03C67.3195 205.315 67.2681 205.693 67.2681 206.164L66.1761 205.646C66.1761 205.049 66.2975 204.489 66.5401 203.966C66.7828 203.443 67.1468 203.021 67.6321 202.699C68.1221 202.377 68.7381 202.216 69.4801 202.216C70.0728 202.216 70.5558 202.316 70.9291 202.517C71.3025 202.718 71.5918 202.972 71.7971 203.28C72.0071 203.588 72.1565 203.91 72.2451 204.246C72.3338 204.577 72.3875 204.881 72.4061 205.156C72.4248 205.431 72.4341 205.632 72.4341 205.758V210H70.5021ZM65.3361 210V202.44H67.0301V204.946H67.2681V210H65.3361ZM77.2045 210.21C76.2525 210.21 75.4825 209.995 74.8945 209.566C74.3112 209.132 73.9565 208.521 73.8305 207.732L75.7765 207.438C75.8558 207.793 76.0308 208.07 76.3015 208.271C76.5768 208.472 76.9245 208.572 77.3445 208.572C77.6898 208.572 77.9558 208.507 78.1425 208.376C78.3292 208.241 78.4225 208.054 78.4225 207.816C78.4225 207.667 78.3852 207.548 78.3105 207.459C78.2358 207.366 78.0678 207.275 77.8065 207.186C77.5498 207.097 77.1485 206.981 76.6025 206.836C75.9865 206.677 75.4942 206.5 75.1255 206.304C74.7568 206.108 74.4908 205.875 74.3275 205.604C74.1642 205.329 74.0825 204.997 74.0825 204.61C74.0825 204.125 74.2062 203.705 74.4535 203.35C74.7008 202.991 75.0485 202.715 75.4965 202.524C75.9492 202.328 76.4812 202.23 77.0925 202.23C77.6852 202.23 78.2102 202.321 78.6675 202.503C79.1248 202.685 79.4935 202.944 79.7735 203.28C80.0582 203.616 80.2332 204.013 80.2985 204.47L78.3525 204.82C78.3198 204.54 78.1985 204.318 77.9885 204.155C77.7785 203.992 77.4938 203.896 77.1345 203.868C76.7845 203.845 76.5022 203.891 76.2875 204.008C76.0775 204.125 75.9725 204.293 75.9725 204.512C75.9725 204.643 76.0168 204.752 76.1055 204.841C76.1988 204.93 76.3878 205.021 76.6725 205.114C76.9618 205.207 77.4005 205.329 77.9885 205.478C78.5625 205.627 79.0222 205.802 79.3675 206.003C79.7175 206.199 79.9718 206.437 80.1305 206.717C80.2892 206.992 80.3685 207.326 80.3685 207.718C80.3685 208.493 80.0885 209.102 79.5285 209.545C78.9685 209.988 78.1938 210.21 77.2045 210.21ZM85.3088 210.21C84.5481 210.21 83.8808 210.04 83.3068 209.699C82.7328 209.358 82.2848 208.889 81.9628 208.292C81.6454 207.69 81.4868 206.999 81.4868 206.22C81.4868 205.431 81.6501 204.738 81.9768 204.141C82.3034 203.539 82.7538 203.07 83.3278 202.734C83.9018 202.398 84.5621 202.23 85.3088 202.23C86.0694 202.23 86.7368 202.4 87.3108 202.741C87.8894 203.082 88.3398 203.553 88.6618 204.155C88.9838 204.752 89.1448 205.441 89.1448 206.22C89.1448 207.004 88.9814 207.697 88.6548 208.299C88.3328 208.896 87.8824 209.365 87.3038 209.706C86.7298 210.042 86.0648 210.21 85.3088 210.21ZM85.3088 208.432C85.9201 208.432 86.3751 208.227 86.6738 207.816C86.9771 207.401 87.1288 206.869 87.1288 206.22C87.1288 205.548 86.9748 205.011 86.6668 204.61C86.3634 204.209 85.9108 204.008 85.3088 204.008C84.8934 204.008 84.5528 204.101 84.2868 204.288C84.0208 204.475 83.8224 204.734 83.6918 205.065C83.5658 205.396 83.5028 205.781 83.5028 206.22C83.5028 206.897 83.6544 207.436 83.9578 207.837C84.2658 208.234 84.7161 208.432 85.3088 208.432ZM90.8241 210V199.71H92.7281V210H90.8241ZM98.3407 210.21C97.566 210.21 96.8823 210.044 96.2897 209.713C95.7017 209.377 95.2397 208.917 94.9037 208.334C94.5723 207.746 94.4067 207.074 94.4067 206.318C94.4067 205.492 94.57 204.773 94.8967 204.162C95.2233 203.551 95.6737 203.077 96.2477 202.741C96.8217 202.4 97.482 202.23 98.2287 202.23C99.022 202.23 99.6963 202.417 100.252 202.79C100.807 203.163 101.218 203.688 101.484 204.365C101.75 205.042 101.843 205.837 101.764 206.752H99.8807V206.052C99.8807 205.282 99.757 204.729 99.5097 204.393C99.267 204.052 98.868 203.882 98.3127 203.882C97.664 203.882 97.1857 204.08 96.8777 204.477C96.5743 204.869 96.4227 205.45 96.4227 206.22C96.4227 206.925 96.5743 207.471 96.8777 207.858C97.1857 208.241 97.636 208.432 98.2287 208.432C98.602 208.432 98.9217 208.35 99.1877 208.187C99.4537 208.024 99.6567 207.788 99.7967 207.48L101.701 208.026C101.416 208.717 100.966 209.253 100.35 209.636C99.7383 210.019 99.0687 210.21 98.3407 210.21ZM95.8347 206.752V205.338H100.847V206.752H95.8347Z" fill="white"/>
<path d="M45.98 237V226.92H47.226V231.365H52.532V226.92H53.778V237H52.532V232.548H47.226V237H45.98ZM59.0177 237.21C58.2757 237.21 57.6271 237.047 57.0717 236.72C56.5211 236.389 56.0917 235.929 55.7837 235.341C55.4757 234.748 55.3217 234.058 55.3217 233.269C55.3217 232.443 55.4734 231.729 55.7767 231.127C56.0801 230.52 56.5024 230.054 57.0437 229.727C57.5897 229.396 58.2291 229.23 58.9617 229.23C59.7224 229.23 60.3687 229.405 60.9007 229.755C61.4374 230.105 61.8387 230.604 62.1047 231.253C62.3754 231.902 62.4921 232.674 62.4547 233.57H61.1947V233.122C61.1807 232.193 60.9917 231.5 60.6277 231.043C60.2637 230.581 59.7224 230.35 59.0037 230.35C58.2337 230.35 57.6481 230.597 57.2467 231.092C56.8454 231.587 56.6447 232.296 56.6447 233.22C56.6447 234.111 56.8454 234.802 57.2467 235.292C57.6481 235.782 58.2197 236.027 58.9617 236.027C59.4611 236.027 59.8951 235.913 60.2637 235.684C60.6324 235.455 60.9217 235.126 61.1317 234.697L62.3287 235.11C62.0347 235.777 61.5914 236.295 60.9987 236.664C60.4107 237.028 59.7504 237.21 59.0177 237.21ZM56.2247 233.57V232.569H61.8107V233.57H56.2247ZM64.1532 237V226.71H65.3992V237H64.1532ZM67.6395 237V226.71H68.8855V237H67.6395ZM74.2059 237.21C73.4545 237.21 72.8059 237.04 72.2599 236.699C71.7185 236.358 71.3009 235.887 71.0069 235.285C70.7129 234.683 70.5659 233.992 70.5659 233.213C70.5659 232.42 70.7152 231.724 71.0139 231.127C71.3125 230.53 71.7349 230.065 72.2809 229.734C72.8269 229.398 73.4685 229.23 74.2059 229.23C74.9619 229.23 75.6129 229.4 76.1589 229.741C76.7049 230.077 77.1225 230.546 77.4119 231.148C77.7059 231.745 77.8529 232.434 77.8529 233.213C77.8529 234.002 77.7059 234.697 77.4119 235.299C77.1179 235.896 76.6979 236.365 76.1519 236.706C75.6059 237.042 74.9572 237.21 74.2059 237.21ZM74.2059 236.027C74.9899 236.027 75.5732 235.766 75.9559 235.243C76.3385 234.72 76.5299 234.044 76.5299 233.213C76.5299 232.359 76.3362 231.68 75.9489 231.176C75.5615 230.667 74.9805 230.413 74.2059 230.413C73.6785 230.413 73.2445 230.532 72.9039 230.77C72.5632 231.008 72.3089 231.337 72.1409 231.757C71.9729 232.177 71.8889 232.662 71.8889 233.213C71.8889 234.062 72.0849 234.744 72.4769 235.257C72.8689 235.77 73.4452 236.027 74.2059 236.027ZM78.9806 238.568L79.0576 237.987C79.2536 238.001 79.4006 237.964 79.4986 237.875C79.5966 237.786 79.6596 237.665 79.6876 237.511C79.7156 237.357 79.7203 237.187 79.7016 237H78.9806V235.418H80.3526V237.21C80.3526 237.7 80.2313 238.069 79.9886 238.316C79.7506 238.563 79.4146 238.647 78.9806 238.568ZM89.9008 237.21C89.2102 237.21 88.5802 237.089 88.0108 236.846C87.4415 236.603 86.9515 236.256 86.5408 235.803C86.1302 235.346 85.8128 234.795 85.5888 234.151C85.3695 233.502 85.2598 232.772 85.2598 231.96C85.2598 230.887 85.4512 229.958 85.8338 229.174C86.2165 228.39 86.7555 227.786 87.4508 227.361C88.1462 226.932 88.9628 226.717 89.9008 226.717C91.0302 226.717 91.9402 226.981 92.6308 227.508C93.3215 228.031 93.7975 228.747 94.0588 229.657L92.7988 229.916C92.5888 229.305 92.2435 228.817 91.7628 228.453C91.2822 228.089 90.6825 227.907 89.9638 227.907C89.2125 227.902 88.5872 228.07 88.0878 228.411C87.5932 228.747 87.2198 229.221 86.9678 229.832C86.7158 230.443 86.5875 231.153 86.5828 231.96C86.5782 232.763 86.7018 233.467 86.9538 234.074C87.2058 234.681 87.5815 235.157 88.0808 235.502C88.5848 235.843 89.2125 236.015 89.9638 236.02C90.6125 236.025 91.1585 235.901 91.6018 235.649C92.0452 235.397 92.3882 235.033 92.6308 234.557C92.8735 234.081 93.0205 233.509 93.0718 232.842H90.9298V231.813H94.3878C94.4018 231.906 94.4088 232.018 94.4088 232.149C94.4135 232.275 94.4158 232.361 94.4158 232.408C94.4158 233.327 94.2432 234.151 93.8978 234.879C93.5572 235.602 93.0508 236.172 92.3788 236.587C91.7115 237.002 90.8855 237.21 89.9008 237.21ZM98.684 237.196C98.1987 237.196 97.781 237.119 97.431 236.965C97.0857 236.811 96.7987 236.606 96.57 236.349C96.3413 236.092 96.1617 235.808 96.031 235.495C95.9003 235.182 95.807 234.863 95.751 234.536C95.6997 234.209 95.674 233.904 95.674 233.619V229.44H96.934V233.227C96.934 233.582 96.9667 233.925 97.032 234.256C97.0973 234.587 97.207 234.886 97.361 235.152C97.5197 235.418 97.7297 235.628 97.991 235.782C98.257 235.936 98.5883 236.013 98.985 236.013C99.2977 236.013 99.5823 235.959 99.839 235.852C100.096 235.745 100.315 235.586 100.497 235.376C100.679 235.161 100.819 234.891 100.917 234.564C101.015 234.237 101.064 233.857 101.064 233.423L101.883 233.675C101.883 234.403 101.75 235.031 101.484 235.558C101.223 236.085 100.852 236.491 100.371 236.776C99.895 237.056 99.3327 237.196 98.684 237.196ZM101.204 237V234.977H101.064V229.44H102.317V237H101.204ZM107.553 237.21C106.811 237.21 106.162 237.047 105.607 236.72C105.056 236.389 104.627 235.929 104.319 235.341C104.011 234.748 103.857 234.058 103.857 233.269C103.857 232.443 104.009 231.729 104.312 231.127C104.615 230.52 105.038 230.054 105.579 229.727C106.125 229.396 106.764 229.23 107.497 229.23C108.258 229.23 108.904 229.405 109.436 229.755C109.973 230.105 110.374 230.604 110.64 231.253C110.911 231.902 111.027 232.674 110.99 233.57H109.73V233.122C109.716 232.193 109.527 231.5 109.163 231.043C108.799 230.581 108.258 230.35 107.539 230.35C106.769 230.35 106.183 230.597 105.782 231.092C105.381 231.587 105.18 232.296 105.18 233.22C105.18 234.111 105.381 234.802 105.782 235.292C106.183 235.782 106.755 236.027 107.497 236.027C107.996 236.027 108.43 235.913 108.799 235.684C109.168 235.455 109.457 235.126 109.667 234.697L110.864 235.11C110.57 235.777 110.127 236.295 109.534 236.664C108.946 237.028 108.286 237.21 107.553 237.21ZM104.76 233.57V232.569H110.346V233.57H104.76ZM115.404 237.203C114.504 237.203 113.764 237.007 113.185 236.615C112.611 236.218 112.259 235.665 112.128 234.956L113.402 234.753C113.505 235.164 113.741 235.49 114.109 235.733C114.478 235.971 114.935 236.09 115.481 236.09C115.999 236.09 116.405 235.983 116.699 235.768C116.993 235.553 117.14 235.262 117.14 234.893C117.14 234.678 117.091 234.506 116.993 234.375C116.895 234.24 116.692 234.114 116.384 233.997C116.081 233.88 115.621 233.74 115.005 233.577C114.338 233.4 113.813 233.215 113.43 233.024C113.048 232.833 112.775 232.611 112.611 232.359C112.448 232.107 112.366 231.801 112.366 231.442C112.366 230.999 112.488 230.611 112.73 230.28C112.973 229.944 113.311 229.685 113.745 229.503C114.184 229.321 114.693 229.23 115.271 229.23C115.845 229.23 116.359 229.321 116.811 229.503C117.264 229.685 117.628 229.944 117.903 230.28C118.183 230.611 118.349 230.999 118.4 231.442L117.126 231.673C117.066 231.267 116.87 230.947 116.538 230.714C116.212 230.481 115.789 230.357 115.271 230.343C114.781 230.324 114.382 230.411 114.074 230.602C113.771 230.793 113.619 231.052 113.619 231.379C113.619 231.561 113.675 231.717 113.787 231.848C113.904 231.979 114.116 232.102 114.424 232.219C114.737 232.336 115.19 232.469 115.782 232.618C116.45 232.786 116.975 232.97 117.357 233.171C117.745 233.367 118.02 233.6 118.183 233.871C118.347 234.137 118.428 234.466 118.428 234.858C118.428 235.586 118.16 236.16 117.623 236.58C117.087 236.995 116.347 237.203 115.404 237.203ZM124.193 237C123.745 237.089 123.302 237.124 122.863 237.105C122.429 237.091 122.042 237.005 121.701 236.846C121.361 236.683 121.102 236.431 120.924 236.09C120.775 235.791 120.693 235.49 120.679 235.187C120.67 234.879 120.665 234.531 120.665 234.144V227.34H121.911V234.088C121.911 234.396 121.914 234.66 121.918 234.879C121.928 235.098 121.977 235.287 122.065 235.446C122.233 235.745 122.499 235.92 122.863 235.971C123.232 236.022 123.675 236.008 124.193 235.929V237ZM119.132 230.469V229.44H124.193V230.469H119.132ZM126.428 237V235.712H127.674V237H126.428ZM126.428 234.48V226.92H127.674V234.48H126.428ZM45.98 256V245.92H47.226V250.365H52.532V245.92H53.778V256H52.532V251.548H47.226V256H45.98ZM59.0177 256.21C58.2757 256.21 57.6271 256.047 57.0717 255.72C56.5211 255.389 56.0917 254.929 55.7837 254.341C55.4757 253.748 55.3217 253.058 55.3217 252.269C55.3217 251.443 55.4734 250.729 55.7767 250.127C56.0801 249.52 56.5024 249.054 57.0437 248.727C57.5897 248.396 58.2291 248.23 58.9617 248.23C59.7224 248.23 60.3687 248.405 60.9007 248.755C61.4374 249.105 61.8387 249.604 62.1047 250.253C62.3754 250.902 62.4921 251.674 62.4547 252.57H61.1947V252.122C61.1807 251.193 60.9917 250.5 60.6277 250.043C60.2637 249.581 59.7224 249.35 59.0037 249.35C58.2337 249.35 57.6481 249.597 57.2467 250.092C56.8454 250.587 56.6447 251.296 56.6447 252.22C56.6447 253.111 56.8454 253.802 57.2467 254.292C57.6481 254.782 58.2197 255.027 58.9617 255.027C59.4611 255.027 59.8951 254.913 60.2637 254.684C60.6324 254.455 60.9217 254.126 61.1317 253.697L62.3287 254.11C62.0347 254.777 61.5914 255.295 60.9987 255.664C60.4107 256.028 59.7504 256.21 59.0177 256.21ZM56.2247 252.57V251.569H61.8107V252.57H56.2247ZM64.1532 256V245.71H65.3992V256H64.1532ZM67.6395 256V245.71H68.8855V256H67.6395ZM74.2059 256.21C73.4545 256.21 72.8059 256.04 72.2599 255.699C71.7185 255.358 71.3009 254.887 71.0069 254.285C70.7129 253.683 70.5659 252.992 70.5659 252.213C70.5659 251.42 70.7152 250.724 71.0139 250.127C71.3125 249.53 71.7349 249.065 72.2809 248.734C72.8269 248.398 73.4685 248.23 74.2059 248.23C74.9619 248.23 75.6129 248.4 76.1589 248.741C76.7049 249.077 77.1225 249.546 77.4119 250.148C77.7059 250.745 77.8529 251.434 77.8529 252.213C77.8529 253.002 77.7059 253.697 77.4119 254.299C77.1179 254.896 76.6979 255.365 76.1519 255.706C75.6059 256.042 74.9572 256.21 74.2059 256.21ZM74.2059 255.027C74.9899 255.027 75.5732 254.766 75.9559 254.243C76.3385 253.72 76.5299 253.044 76.5299 252.213C76.5299 251.359 76.3362 250.68 75.9489 250.176C75.5615 249.667 74.9805 249.413 74.2059 249.413C73.6785 249.413 73.2445 249.532 72.9039 249.77C72.5632 250.008 72.3089 250.337 72.1409 250.757C71.9729 251.177 71.8889 251.662 71.8889 252.213C71.8889 253.062 72.0849 253.744 72.4769 254.257C72.8689 254.77 73.4452 255.027 74.2059 255.027ZM78.9806 257.568L79.0576 256.987C79.2536 257.001 79.4006 256.964 79.4986 256.875C79.5966 256.786 79.6596 256.665 79.6876 256.511C79.7156 256.357 79.7203 256.187 79.7016 256H78.9806V254.418H80.3526V256.21C80.3526 256.7 80.2313 257.069 79.9886 257.316C79.7506 257.563 79.4146 257.647 78.9806 257.568ZM85.1198 256L88.4938 245.92H90.2298L93.6038 256H92.3088L89.1518 246.648H89.5438L86.4148 256H85.1198ZM86.7438 253.641V252.472H91.9798V253.641H86.7438ZM94.997 256V245.71H96.243V256H94.997ZM98.4833 247.103V245.815H99.7293V247.103H98.4833ZM98.4833 256V248.44H99.7293V256H98.4833ZM105.015 256.21C104.249 256.21 103.598 256.04 103.062 255.699C102.53 255.354 102.124 254.88 101.844 254.278C101.564 253.676 101.419 252.99 101.41 252.22C101.419 251.431 101.566 250.738 101.851 250.141C102.14 249.539 102.553 249.07 103.09 248.734C103.626 248.398 104.273 248.23 105.029 248.23C105.827 248.23 106.513 248.426 107.087 248.818C107.665 249.21 108.053 249.747 108.249 250.428L107.017 250.799C106.858 250.36 106.599 250.02 106.24 249.777C105.885 249.534 105.477 249.413 105.015 249.413C104.497 249.413 104.07 249.534 103.734 249.777C103.398 250.015 103.148 250.346 102.985 250.771C102.821 251.191 102.737 251.674 102.733 252.22C102.742 253.06 102.936 253.739 103.314 254.257C103.696 254.77 104.263 255.027 105.015 255.027C105.509 255.027 105.92 254.915 106.247 254.691C106.573 254.462 106.821 254.133 106.989 253.704L108.249 254.033C107.987 254.738 107.579 255.277 107.024 255.65C106.468 256.023 105.799 256.21 105.015 256.21ZM112.748 256.21C112.006 256.21 111.358 256.047 110.802 255.72C110.252 255.389 109.822 254.929 109.514 254.341C109.206 253.748 109.052 253.058 109.052 252.269C109.052 251.443 109.204 250.729 109.507 250.127C109.811 249.52 110.233 249.054 110.774 248.727C111.32 248.396 111.96 248.23 112.692 248.23C113.453 248.23 114.099 248.405 114.631 248.755C115.168 249.105 115.569 249.604 115.835 250.253C116.106 250.902 116.223 251.674 116.185 252.57H114.925V252.122C114.911 251.193 114.722 250.5 114.358 250.043C113.994 249.581 113.453 249.35 112.734 249.35C111.964 249.35 111.379 249.597 110.977 250.092C110.576 250.587 110.375 251.296 110.375 252.22C110.375 253.111 110.576 253.802 110.977 254.292C111.379 254.782 111.95 255.027 112.692 255.027C113.192 255.027 113.626 254.913 113.994 254.684C114.363 254.455 114.652 254.126 114.862 253.697L116.059 254.11C115.765 254.777 115.322 255.295 114.729 255.664C114.141 256.028 113.481 256.21 112.748 256.21ZM109.955 252.57V251.569H115.541V252.57H109.955ZM118.444 256V254.712H119.69V256H118.444ZM118.444 253.48V245.92H119.69V253.48H118.444Z" fill="#FCFCFC"/>
<path d="M38.7071 253.707C39.0976 253.317 39.0976 252.683 38.7071 252.293L32.3431 245.929C31.9526 245.538 31.3195 245.538 30.9289 245.929C30.5384 246.319 30.5384 246.953 30.9289 247.343L36.5858 253L30.9289 258.657C30.5384 259.047 30.5384 259.681 30.9289 260.071C31.3195 260.462 31.9526 260.462 32.3431 260.071L38.7071 253.707ZM38 252H21V254H38V252ZM2 233V151H0V233H2ZM21 132H21.3137V130H21V132ZM2 151C2 140.507 10.5066 132 21 132V130C9.40202 130 0 139.402 0 151H2ZM21 252C10.5066 252 2 243.493 2 233H0C0 244.598 9.40202 254 21 254V252Z" fill="#FFD966"/>
<path d="M37.7071 233.707C38.0976 233.317 38.0976 232.683 37.7071 232.293L31.3431 225.929C30.9526 225.538 30.3195 225.538 29.9289 225.929C29.5384 226.319 29.5384 226.953 29.9289 227.343L35.5858 233L29.9289 238.657C29.5384 239.047 29.5384 239.681 29.9289 240.071C30.3195 240.462 30.9526 240.462 31.3431 240.071L37.7071 233.707ZM14.5 166V223H16.5V166H14.5ZM25.5 234H37V232H25.5V234ZM14.5 223C14.5 229.075 19.4249 234 25.5 234V232C20.5294 232 16.5 227.971 16.5 223H14.5ZM25 155.5C19.201 155.5 14.5 160.201 14.5 166H16.5C16.5 161.306 20.3056 157.5 25 157.5V155.5Z" fill="#FFD966"/>
<path d="M154.5 28C154.5 28.5523 154.948 29 155.5 29C156.052 29 156.5 28.5523 156.5 28H154.5ZM181.707 14.7071C182.098 14.3166 182.098 13.6834 181.707 13.2929L175.343 6.92893C174.953 6.53841 174.319 6.53841 173.929 6.92893C173.538 7.31946 173.538 7.95262 173.929 8.34315L179.586 14L173.929 19.6569C173.538 20.0474 173.538 20.6805 173.929 21.0711C174.319 21.4616 174.953 21.4616 175.343 21.0711L181.707 14.7071ZM156.5 28V24H154.5V28H156.5ZM165.5 15H181V13H165.5V15ZM156.5 24C156.5 19.0294 160.529 15 165.5 15V13C159.425 13 154.5 17.9249 154.5 24H156.5Z" fill="#787DF7"/>
<path d="M188.98 17V6.92H192.242C192.321 6.92 192.485 6.92233 192.732 6.927C192.979 6.93167 193.217 6.948 193.446 6.976C194.258 7.074 194.946 7.35633 195.511 7.823C196.076 8.28967 196.505 8.88233 196.799 9.601C197.093 10.3197 197.24 11.106 197.24 11.96C197.24 12.814 197.093 13.6003 196.799 14.319C196.505 15.0377 196.076 15.6303 195.511 16.097C194.946 16.5637 194.258 16.846 193.446 16.944C193.217 16.972 192.979 16.9883 192.732 16.993C192.485 16.9977 192.321 17 192.242 17H188.98ZM190.912 15.208H192.242C192.368 15.208 192.538 15.2057 192.753 15.201C192.968 15.1917 193.161 15.1707 193.334 15.138C193.773 15.0493 194.13 14.844 194.405 14.522C194.685 14.2 194.89 13.8127 195.021 13.36C195.156 12.9073 195.224 12.4407 195.224 11.96C195.224 11.456 195.154 10.9777 195.014 10.525C194.879 10.0723 194.671 9.68967 194.391 9.377C194.111 9.06433 193.759 8.866 193.334 8.782C193.161 8.74467 192.968 8.72367 192.753 8.719C192.538 8.71433 192.368 8.712 192.242 8.712H190.912V15.208ZM202.433 17.21C201.659 17.21 200.975 17.0443 200.382 16.713C199.794 16.377 199.332 15.9173 198.996 15.334C198.665 14.746 198.499 14.074 198.499 13.318C198.499 12.492 198.663 11.7733 198.989 11.162C199.316 10.5507 199.766 10.077 200.34 9.741C200.914 9.40033 201.575 9.23 202.321 9.23C203.115 9.23 203.789 9.41667 204.344 9.79C204.9 10.1633 205.31 10.6883 205.576 11.365C205.842 12.0417 205.936 12.8373 205.856 13.752H203.973V13.052C203.973 12.282 203.85 11.729 203.602 11.393C203.36 11.0523 202.961 10.882 202.405 10.882C201.757 10.882 201.278 11.0803 200.97 11.477C200.667 11.869 200.515 12.45 200.515 13.22C200.515 13.9247 200.667 14.4707 200.97 14.858C201.278 15.2407 201.729 15.432 202.321 15.432C202.695 15.432 203.014 15.3503 203.28 15.187C203.546 15.0237 203.749 14.788 203.889 14.48L205.793 15.026C205.509 15.7167 205.058 16.2533 204.442 16.636C203.831 17.0187 203.161 17.21 202.433 17.21ZM199.927 13.752V12.338H204.939V13.752H199.927ZM208.067 17V9.468C208.067 9.27667 208.072 9.05967 208.081 8.817C208.09 8.57433 208.128 8.32933 208.193 8.082C208.263 7.83467 208.389 7.61067 208.571 7.41C208.804 7.14867 209.056 6.97133 209.327 6.878C209.602 6.78 209.868 6.72867 210.125 6.724C210.382 6.71467 210.601 6.71 210.783 6.71H211.721V8.25H210.853C210.554 8.25 210.333 8.327 210.188 8.481C210.043 8.63033 209.971 8.81 209.971 9.02V17H208.067ZM206.877 10.91V9.44H211.721V10.91H206.877ZM214.732 17.21C214.191 17.21 213.731 17.1073 213.353 16.902C212.98 16.692 212.695 16.4143 212.499 16.069C212.308 15.719 212.212 15.334 212.212 14.914C212.212 14.564 212.266 14.2443 212.373 13.955C212.481 13.6657 212.653 13.4113 212.891 13.192C213.134 12.968 213.458 12.7813 213.864 12.632C214.144 12.5293 214.478 12.4383 214.865 12.359C215.253 12.2797 215.691 12.205 216.181 12.135C216.671 12.0603 217.21 11.9787 217.798 11.89L217.112 12.268C217.112 11.82 217.005 11.491 216.79 11.281C216.576 11.071 216.216 10.966 215.712 10.966C215.432 10.966 215.141 11.0337 214.837 11.169C214.534 11.3043 214.322 11.5447 214.2 11.89L212.478 11.344C212.67 10.7187 213.029 10.21 213.556 9.818C214.084 9.426 214.802 9.23 215.712 9.23C216.38 9.23 216.972 9.33267 217.49 9.538C218.008 9.74333 218.4 10.098 218.666 10.602C218.816 10.882 218.904 11.162 218.932 11.442C218.96 11.722 218.974 12.0347 218.974 12.38V17H217.308V15.446L217.546 15.768C217.178 16.2767 216.779 16.6453 216.349 16.874C215.925 17.098 215.386 17.21 214.732 17.21ZM215.138 15.712C215.488 15.712 215.782 15.6513 216.02 15.53C216.263 15.404 216.454 15.2617 216.594 15.103C216.739 14.9443 216.837 14.8113 216.888 14.704C216.986 14.4987 217.042 14.2607 217.056 13.99C217.075 13.7147 217.084 13.486 217.084 13.304L217.644 13.444C217.08 13.5373 216.622 13.6167 216.272 13.682C215.922 13.7427 215.64 13.7987 215.425 13.85C215.211 13.9013 215.022 13.9573 214.858 14.018C214.672 14.0927 214.52 14.1743 214.403 14.263C214.291 14.347 214.207 14.4403 214.151 14.543C214.1 14.6457 214.074 14.76 214.074 14.886C214.074 15.0587 214.116 15.208 214.2 15.334C214.289 15.4553 214.413 15.5487 214.571 15.614C214.73 15.6793 214.919 15.712 215.138 15.712ZM223.608 17.224C223.016 17.224 222.533 17.1237 222.159 16.923C221.786 16.7223 221.494 16.468 221.284 16.16C221.079 15.852 220.932 15.5323 220.843 15.201C220.755 14.865 220.701 14.5593 220.682 14.284C220.664 14.0087 220.654 13.808 220.654 13.682V9.44H222.586V13.01C222.586 13.1827 222.596 13.4043 222.614 13.675C222.633 13.941 222.691 14.2093 222.789 14.48C222.887 14.7507 223.046 14.977 223.265 15.159C223.489 15.341 223.804 15.432 224.21 15.432C224.374 15.432 224.549 15.4063 224.735 15.355C224.922 15.3037 225.097 15.2057 225.26 15.061C225.424 14.9117 225.557 14.6947 225.659 14.41C225.767 14.1207 225.82 13.7427 225.82 13.276L226.912 13.794C226.912 14.3913 226.791 14.9513 226.548 15.474C226.306 15.9967 225.939 16.419 225.449 16.741C224.964 17.063 224.35 17.224 223.608 17.224ZM226.058 17V14.494H225.82V9.44H227.738V17H226.058ZM229.835 17V6.71H231.739V17H229.835ZM238.373 17C237.851 17.098 237.337 17.14 236.833 17.126C236.334 17.1167 235.886 17.0303 235.489 16.867C235.097 16.699 234.799 16.4307 234.593 16.062C234.407 15.7167 234.309 15.3667 234.299 15.012C234.29 14.6527 234.285 14.2467 234.285 13.794V7.34H236.189V13.682C236.189 13.976 236.192 14.242 236.196 14.48C236.206 14.7133 236.255 14.9 236.343 15.04C236.511 15.306 236.78 15.4507 237.148 15.474C237.517 15.4973 237.925 15.4787 238.373 15.418V17ZM232.997 10.91V9.44H238.373V10.91H232.997ZM242.161 17L245.241 6.92H248.083L251.163 17H249.203L246.459 8.11H246.823L244.121 17H242.161ZM244.009 14.9V13.122H249.329V14.9H244.009ZM252.418 17V9.44H254.098V11.288L253.916 11.05C254.014 10.7887 254.144 10.5507 254.308 10.336C254.471 10.1213 254.672 9.944 254.91 9.804C255.092 9.692 255.29 9.60567 255.505 9.545C255.719 9.47967 255.941 9.44 256.17 9.426C256.398 9.40733 256.627 9.412 256.856 9.44V11.218C256.646 11.1527 256.401 11.1317 256.121 11.155C255.845 11.1737 255.596 11.2367 255.372 11.344C255.148 11.4467 254.959 11.5843 254.805 11.757C254.651 11.925 254.534 12.1257 254.455 12.359C254.375 12.5877 254.336 12.8467 254.336 13.136V17H252.418ZM261.148 20.57C260.718 20.57 260.31 20.5 259.923 20.36C259.535 20.2247 259.188 20.0333 258.88 19.786C258.576 19.5433 258.329 19.2587 258.138 18.932L259.902 18.078C260.023 18.302 260.196 18.4723 260.42 18.589C260.648 18.7057 260.896 18.764 261.162 18.764C261.446 18.764 261.715 18.715 261.967 18.617C262.219 18.5237 262.419 18.3813 262.569 18.19C262.723 18.0033 262.795 17.77 262.786 17.49V15.292H263.024V9.44H264.69V17.518C264.69 17.7047 264.68 17.8797 264.662 18.043C264.648 18.211 264.62 18.3767 264.578 18.54C264.456 19.002 264.23 19.3823 263.899 19.681C263.572 19.9797 263.171 20.2013 262.695 20.346C262.219 20.4953 261.703 20.57 261.148 20.57ZM260.98 17.21C260.284 17.21 259.675 17.035 259.153 16.685C258.63 16.335 258.222 15.859 257.928 15.257C257.638 14.655 257.494 13.976 257.494 13.22C257.494 12.45 257.641 11.7663 257.935 11.169C258.233 10.567 258.651 10.0933 259.188 9.748C259.724 9.40267 260.354 9.23 261.078 9.23C261.796 9.23 262.401 9.405 262.891 9.755C263.381 10.105 263.752 10.581 264.004 11.183C264.256 11.785 264.382 12.464 264.382 13.22C264.382 13.976 264.253 14.655 263.997 15.257C263.745 15.859 263.367 16.335 262.863 16.685C262.359 17.035 261.731 17.21 260.98 17.21ZM261.288 15.516C261.712 15.516 262.051 15.4203 262.303 15.229C262.559 15.0377 262.744 14.7693 262.856 14.424C262.968 14.0787 263.024 13.6773 263.024 13.22C263.024 12.7627 262.968 12.3613 262.856 12.016C262.744 11.6707 262.564 11.4023 262.317 11.211C262.074 11.0197 261.754 10.924 261.358 10.924C260.933 10.924 260.583 11.029 260.308 11.239C260.037 11.4443 259.836 11.722 259.706 12.072C259.575 12.4173 259.51 12.8 259.51 13.22C259.51 13.6447 259.573 14.032 259.699 14.382C259.825 14.7273 260.018 15.0027 260.28 15.208C260.541 15.4133 260.877 15.516 261.288 15.516ZM269.464 17.224C268.871 17.224 268.388 17.1237 268.015 16.923C267.642 16.7223 267.35 16.468 267.14 16.16C266.935 15.852 266.788 15.5323 266.699 15.201C266.61 14.865 266.557 14.5593 266.538 14.284C266.519 14.0087 266.51 13.808 266.51 13.682V9.44H268.442V13.01C268.442 13.1827 268.451 13.4043 268.47 13.675C268.489 13.941 268.547 14.2093 268.645 14.48C268.743 14.7507 268.902 14.977 269.121 15.159C269.345 15.341 269.66 15.432 270.066 15.432C270.229 15.432 270.404 15.4063 270.591 15.355C270.778 15.3037 270.953 15.2057 271.116 15.061C271.279 14.9117 271.412 14.6947 271.515 14.41C271.622 14.1207 271.676 13.7427 271.676 13.276L272.768 13.794C272.768 14.3913 272.647 14.9513 272.404 15.474C272.161 15.9967 271.795 16.419 271.305 16.741C270.82 17.063 270.206 17.224 269.464 17.224ZM271.914 17V14.494H271.676V9.44H273.594V17H271.914ZM284.65 17V12.534C284.65 12.0347 284.531 11.6473 284.293 11.372C284.06 11.092 283.736 10.952 283.32 10.952C283.054 10.952 282.823 11.015 282.627 11.141C282.431 11.2623 282.277 11.435 282.165 11.659C282.058 11.8783 282.004 12.1327 282.004 12.422L281.206 11.89C281.206 11.372 281.328 10.9147 281.57 10.518C281.818 10.1213 282.147 9.81333 282.557 9.594C282.973 9.37 283.432 9.258 283.936 9.258C284.8 9.258 285.451 9.51467 285.889 10.028C286.333 10.5367 286.554 11.204 286.554 12.03V17H284.65ZM275.536 17V9.44H277.216V11.946H277.454V17H275.536ZM280.1 17V12.534C280.1 12.0347 279.981 11.6473 279.743 11.372C279.51 11.092 279.186 10.952 278.77 10.952C278.374 10.952 278.054 11.0897 277.811 11.365C277.573 11.6357 277.454 11.988 277.454 12.422L276.656 11.862C276.656 11.3673 276.78 10.924 277.027 10.532C277.275 10.14 277.606 9.82967 278.021 9.601C278.441 9.37233 278.91 9.258 279.428 9.258C280.021 9.258 280.506 9.384 280.884 9.636C281.267 9.888 281.549 10.224 281.731 10.644C281.913 11.064 282.004 11.526 282.004 12.03V17H280.1ZM291.752 17.21C290.977 17.21 290.293 17.0443 289.701 16.713C289.113 16.377 288.651 15.9173 288.315 15.334C287.983 14.746 287.818 14.074 287.818 13.318C287.818 12.492 287.981 11.7733 288.308 11.162C288.634 10.5507 289.085 10.077 289.659 9.741C290.233 9.40033 290.893 9.23 291.64 9.23C292.433 9.23 293.107 9.41667 293.663 9.79C294.218 10.1633 294.629 10.6883 294.895 11.365C295.161 12.0417 295.254 12.8373 295.175 13.752H293.292V13.052C293.292 12.282 293.168 11.729 292.921 11.393C292.678 11.0523 292.279 10.882 291.724 10.882C291.075 10.882 290.597 11.0803 290.289 11.477C289.985 11.869 289.834 12.45 289.834 13.22C289.834 13.9247 289.985 14.4707 290.289 14.858C290.597 15.2407 291.047 15.432 291.64 15.432C292.013 15.432 292.333 15.3503 292.599 15.187C292.865 15.0237 293.068 14.788 293.208 14.48L295.112 15.026C294.827 15.7167 294.377 16.2533 293.761 16.636C293.149 17.0187 292.48 17.21 291.752 17.21ZM289.246 13.752V12.338H294.258V13.752H289.246ZM301.702 17V13.43C301.702 13.2573 301.693 13.038 301.674 12.772C301.656 12.5013 301.597 12.2307 301.499 11.96C301.401 11.6893 301.24 11.463 301.016 11.281C300.797 11.099 300.484 11.008 300.078 11.008C299.915 11.008 299.74 11.0337 299.553 11.085C299.367 11.1363 299.192 11.2367 299.028 11.386C298.865 11.5307 298.73 11.7453 298.622 12.03C298.52 12.3147 298.468 12.6927 298.468 13.164L297.376 12.646C297.376 12.0487 297.498 11.4887 297.74 10.966C297.983 10.4433 298.347 10.021 298.832 9.699C299.322 9.377 299.938 9.216 300.68 9.216C301.273 9.216 301.756 9.31633 302.129 9.517C302.503 9.71767 302.792 9.972 302.997 10.28C303.207 10.588 303.357 10.91 303.445 11.246C303.534 11.5773 303.588 11.8807 303.606 12.156C303.625 12.4313 303.634 12.632 303.634 12.758V17H301.702ZM296.536 17V9.44H298.23V11.946H298.468V17H296.536ZM309.987 17C309.464 17.098 308.951 17.14 308.447 17.126C307.947 17.1167 307.499 17.0303 307.103 16.867C306.711 16.699 306.412 16.4307 306.207 16.062C306.02 15.7167 305.922 15.3667 305.913 15.012C305.903 14.6527 305.899 14.2467 305.899 13.794V7.34H307.803V13.682C307.803 13.976 307.805 14.242 307.81 14.48C307.819 14.7133 307.868 14.9 307.957 15.04C308.125 15.306 308.393 15.4507 308.762 15.474C309.13 15.4973 309.539 15.4787 309.987 15.418V17ZM304.611 10.91V9.44H309.987V10.91H304.611Z" fill="#787DF7"/>
</svg>
