<svg width="347" height="252" viewBox="0 0 347 252" fill="none" xmlns="http://www.w3.org/2000/svg">
<path d="M44.62 49V38.71H46.524V49H44.62ZM52.1366 49.21C51.3619 49.21 50.6782 49.0443 50.0856 48.713C49.4976 48.377 49.0356 47.9173 48.6996 47.334C48.3682 46.746 48.2026 46.074 48.2026 45.318C48.2026 44.492 48.3659 43.7733 48.6926 43.162C49.0192 42.5507 49.4696 42.077 50.0436 41.741C50.6176 41.4003 51.2779 41.23 52.0246 41.23C52.8179 41.23 53.4922 41.4167 54.0476 41.79C54.6029 42.1633 55.0136 42.6883 55.2796 43.365C55.5456 44.0417 55.6389 44.8373 55.5596 45.752H53.6766V45.052C53.6766 44.282 53.5529 43.729 53.3056 43.393C53.0629 43.0523 52.6639 42.882 52.1086 42.882C51.4599 42.882 50.9816 43.0803 50.6736 43.477C50.3702 43.869 50.2186 44.45 50.2186 45.22C50.2186 45.9247 50.3702 46.4707 50.6736 46.858C50.9816 47.2407 51.4319 47.432 52.0246 47.432C52.3979 47.432 52.7176 47.3503 52.9836 47.187C53.2496 47.0237 53.4526 46.788 53.5926 46.48L55.4966 47.026C55.2119 47.7167 54.7616 48.2533 54.1456 48.636C53.5342 49.0187 52.8646 49.21 52.1366 49.21ZM49.6306 45.752V44.338H54.6426V45.752H49.6306ZM61.6762 49C61.1535 49.098 60.6402 49.14 60.1362 49.126C59.6368 49.1167 59.1888 49.0303 58.7922 48.867C58.4002 48.699 58.1015 48.4307 57.8962 48.062C57.7095 47.7167 57.6115 47.3667 57.6022 47.012C57.5928 46.6527 57.5882 46.2467 57.5882 45.794V39.34H59.4922V45.682C59.4922 45.976 59.4945 46.242 59.4992 46.48C59.5085 46.7133 59.5575 46.9 59.6462 47.04C59.8142 47.306 60.0825 47.4507 60.4512 47.474C60.8198 47.4973 61.2282 47.4787 61.6762 47.418V49ZM56.3002 42.91V41.44H61.6762V42.91H56.3002ZM96.4052 50.89L96.5172 50.092C96.7412 50.1107 96.9232 50.0733 97.0632 49.98C97.2032 49.8913 97.2989 49.7607 97.3502 49.588C97.4062 49.42 97.4179 49.224 97.3852 49H96.4052V47.096H98.3092V49C98.3092 49.672 98.1529 50.1807 97.8402 50.526C97.5276 50.8713 97.0492 50.9927 96.4052 50.89ZM96.4052 43.344V41.44H98.3092V43.344H96.4052ZM68.7021 74.94C68.0581 74.94 67.5541 74.758 67.1901 74.394C66.8261 74.03 66.6441 73.526 66.6441 72.882V68.794C66.6441 68.7053 66.6207 68.6307 66.5741 68.57L65.9441 67.674C65.8414 67.52 65.7901 67.352 65.7901 67.17C65.7901 66.988 65.8414 66.82 65.9441 66.666L66.5741 65.77C66.6207 65.6907 66.6441 65.616 66.6441 65.546V61.458C66.6441 60.8187 66.8261 60.317 67.1901 59.953C67.5541 59.5843 68.0581 59.4 68.7021 59.4H69.6961V61.192H68.8421C68.7301 61.192 68.6344 61.2317 68.5551 61.311C68.4757 61.3903 68.4361 61.486 68.4361 61.598V65.546C68.4361 66.0033 68.3007 66.4233 68.0301 66.806L67.7641 67.17L68.0301 67.534C68.3007 67.9167 68.4361 68.3367 68.4361 68.794V72.742C68.4361 72.8587 68.4757 72.9567 68.5551 73.036C68.6344 73.12 68.7301 73.162 68.8421 73.162H69.6961V74.94H68.7021ZM59.0229 95.21C58.2389 95.21 57.5669 95.035 57.0069 94.685C56.4469 94.335 56.0176 93.859 55.7189 93.257C55.4203 92.655 55.2709 91.976 55.2709 91.22C55.2709 90.4547 55.4249 89.771 55.7329 89.169C56.0456 88.567 56.4843 88.0933 57.0489 87.748C57.6136 87.4027 58.2809 87.23 59.0509 87.23C59.9423 87.23 60.6889 87.4563 61.2909 87.909C61.8976 88.357 62.2849 88.9707 62.4529 89.75L60.5489 90.254C60.4369 89.862 60.2409 89.5563 59.9609 89.337C59.6856 89.1177 59.3729 89.008 59.0229 89.008C58.6216 89.008 58.2926 89.106 58.0359 89.302C57.7793 89.4933 57.5903 89.757 57.4689 90.093C57.3476 90.4243 57.2869 90.8 57.2869 91.22C57.2869 91.878 57.4316 92.4123 57.7209 92.823C58.0149 93.229 58.4489 93.432 59.0229 93.432C59.4523 93.432 59.7789 93.334 60.0029 93.138C60.2269 92.942 60.3949 92.662 60.5069 92.298L62.4529 92.704C62.2383 93.5067 61.8323 94.125 61.2349 94.559C60.6376 94.993 59.9003 95.21 59.0229 95.21ZM67.05 95.21C66.2893 95.21 65.622 95.0397 65.048 94.699C64.474 94.3583 64.026 93.8893 63.704 93.292C63.3866 92.69 63.228 91.9993 63.228 91.22C63.228 90.4313 63.3913 89.7383 63.718 89.141C64.0446 88.539 64.495 88.07 65.069 87.734C65.643 87.398 66.3033 87.23 67.05 87.23C67.8106 87.23 68.478 87.4003 69.052 87.741C69.6306 88.0817 70.081 88.553 70.403 89.155C70.725 89.7523 70.886 90.4407 70.886 91.22C70.886 92.004 70.7226 92.697 70.396 93.299C70.074 93.8963 69.6236 94.3653 69.045 94.706C68.471 95.042 67.806 95.21 67.05 95.21ZM67.05 93.432C67.6613 93.432 68.1163 93.2267 68.415 92.816C68.7183 92.4007 68.87 91.8687 68.87 91.22C68.87 90.548 68.716 90.0113 68.408 89.61C68.1046 89.2087 67.652 89.008 67.05 89.008C66.6346 89.008 66.294 89.1013 66.028 89.288C65.762 89.4747 65.5636 89.7337 65.433 90.065C65.307 90.3963 65.244 90.7813 65.244 91.22C65.244 91.8967 65.3956 92.4357 65.699 92.837C66.007 93.2337 66.4573 93.432 67.05 93.432ZM77.5773 95V91.43C77.5773 91.2573 77.568 91.038 77.5493 90.772C77.5306 90.5013 77.4723 90.2307 77.3743 89.96C77.2763 89.6893 77.1153 89.463 76.8913 89.281C76.672 89.099 76.3593 89.008 75.9533 89.008C75.79 89.008 75.615 89.0337 75.4283 89.085C75.2416 89.1363 75.0666 89.2367 74.9033 89.386C74.74 89.5307 74.6046 89.7453 74.4973 90.03C74.3946 90.3147 74.3433 90.6927 74.3433 91.164L73.2513 90.646C73.2513 90.0487 73.3726 89.4887 73.6153 88.966C73.858 88.4433 74.222 88.021 74.7073 87.699C75.1973 87.377 75.8133 87.216 76.5553 87.216C77.148 87.216 77.631 87.3163 78.0043 87.517C78.3776 87.7177 78.667 87.972 78.8723 88.28C79.0823 88.588 79.2316 88.91 79.3203 89.246C79.409 89.5773 79.4626 89.8807 79.4813 90.156C79.5 90.4313 79.5093 90.632 79.5093 90.758V95H77.5773ZM72.4113 95V87.44H74.1053V89.946H74.3433V95H72.4113ZM84.2797 95.21C83.3277 95.21 82.5577 94.9953 81.9697 94.566C81.3864 94.132 81.0317 93.5207 80.9057 92.732L82.8517 92.438C82.931 92.7927 83.106 93.0703 83.3767 93.271C83.652 93.4717 83.9997 93.572 84.4197 93.572C84.765 93.572 85.031 93.5067 85.2177 93.376C85.4044 93.2407 85.4977 93.054 85.4977 92.816C85.4977 92.6667 85.4604 92.5477 85.3857 92.459C85.311 92.3657 85.143 92.2747 84.8817 92.186C84.625 92.0973 84.2237 91.9807 83.6777 91.836C83.0617 91.6773 82.5694 91.5 82.2007 91.304C81.832 91.108 81.566 90.8747 81.4027 90.604C81.2394 90.3287 81.1577 89.9973 81.1577 89.61C81.1577 89.1247 81.2814 88.7047 81.5287 88.35C81.776 87.9907 82.1237 87.7153 82.5717 87.524C83.0244 87.328 83.5564 87.23 84.1677 87.23C84.7604 87.23 85.2854 87.321 85.7427 87.503C86.2 87.685 86.5687 87.944 86.8487 88.28C87.1334 88.616 87.3084 89.0127 87.3737 89.47L85.4277 89.82C85.395 89.54 85.2737 89.3183 85.0637 89.155C84.8537 88.9917 84.569 88.896 84.2097 88.868C83.8597 88.8447 83.5774 88.8913 83.3627 89.008C83.1527 89.1247 83.0477 89.2927 83.0477 89.512C83.0477 89.6427 83.092 89.7523 83.1807 89.841C83.274 89.9297 83.463 90.0207 83.7477 90.114C84.037 90.2073 84.4757 90.3287 85.0637 90.478C85.6377 90.6273 86.0974 90.8023 86.4427 91.003C86.7927 91.199 87.047 91.437 87.2057 91.717C87.3644 91.9923 87.4437 92.326 87.4437 92.718C87.4437 93.4927 87.1637 94.1017 86.6037 94.545C86.0437 94.9883 85.269 95.21 84.2797 95.21ZM92.384 95.21C91.6233 95.21 90.956 95.0397 90.382 94.699C89.808 94.3583 89.36 93.8893 89.038 93.292C88.7206 92.69 88.562 91.9993 88.562 91.22C88.562 90.4313 88.7253 89.7383 89.052 89.141C89.3786 88.539 89.829 88.07 90.403 87.734C90.977 87.398 91.6373 87.23 92.384 87.23C93.1446 87.23 93.812 87.4003 94.386 87.741C94.9646 88.0817 95.415 88.553 95.737 89.155C96.059 89.7523 96.22 90.4407 96.22 91.22C96.22 92.004 96.0566 92.697 95.73 93.299C95.408 93.8963 94.9576 94.3653 94.379 94.706C93.805 95.042 93.14 95.21 92.384 95.21ZM92.384 93.432C92.9953 93.432 93.4503 93.2267 93.749 92.816C94.0523 92.4007 94.204 91.8687 94.204 91.22C94.204 90.548 94.05 90.0113 93.742 89.61C93.4386 89.2087 92.986 89.008 92.384 89.008C91.9686 89.008 91.628 89.1013 91.362 89.288C91.096 89.4747 90.8976 89.7337 90.767 90.065C90.641 90.3963 90.578 90.7813 90.578 91.22C90.578 91.8967 90.7296 92.4357 91.033 92.837C91.341 93.2337 91.7913 93.432 92.384 93.432ZM97.8993 95V84.71H99.8033V95H97.8993ZM105.416 95.21C104.641 95.21 103.958 95.0443 103.365 94.713C102.777 94.377 102.315 93.9173 101.979 93.334C101.648 92.746 101.482 92.074 101.482 91.318C101.482 90.492 101.645 89.7733 101.972 89.162C102.299 88.5507 102.749 88.077 103.323 87.741C103.897 87.4003 104.557 87.23 105.304 87.23C106.097 87.23 106.772 87.4167 107.327 87.79C107.882 88.1633 108.293 88.6883 108.559 89.365C108.825 90.0417 108.918 90.8373 108.839 91.752H106.956V91.052C106.956 90.282 106.832 89.729 106.585 89.393C106.342 89.0523 105.943 88.882 105.388 88.882C104.739 88.882 104.261 89.0803 103.953 89.477C103.65 89.869 103.498 90.45 103.498 91.22C103.498 91.9247 103.65 92.4707 103.953 92.858C104.261 93.2407 104.711 93.432 105.304 93.432C105.677 93.432 105.997 93.3503 106.263 93.187C106.529 93.0237 106.732 92.788 106.872 92.48L108.776 93.026C108.491 93.7167 108.041 94.2533 107.425 94.636C106.814 95.0187 106.144 95.21 105.416 95.21ZM102.91 91.752V90.338H107.922V91.752H102.91ZM110.454 95V93.096H112.358V95H110.454ZM114.77 95V84.71H116.674V95H114.77ZM122.175 95.21C121.414 95.21 120.747 95.0397 120.173 94.699C119.599 94.3583 119.151 93.8893 118.829 93.292C118.512 92.69 118.353 91.9993 118.353 91.22C118.353 90.4313 118.516 89.7383 118.843 89.141C119.17 88.539 119.62 88.07 120.194 87.734C120.768 87.398 121.428 87.23 122.175 87.23C122.936 87.23 123.603 87.4003 124.177 87.741C124.756 88.0817 125.206 88.553 125.528 89.155C125.85 89.7523 126.011 90.4407 126.011 91.22C126.011 92.004 125.848 92.697 125.521 93.299C125.199 93.8963 124.749 94.3653 124.17 94.706C123.596 95.042 122.931 95.21 122.175 95.21ZM122.175 93.432C122.786 93.432 123.241 93.2267 123.54 92.816C123.843 92.4007 123.995 91.8687 123.995 91.22C123.995 90.548 123.841 90.0113 123.533 89.61C123.23 89.2087 122.777 89.008 122.175 89.008C121.76 89.008 121.419 89.1013 121.153 89.288C120.887 89.4747 120.689 89.7337 120.558 90.065C120.432 90.3963 120.369 90.7813 120.369 91.22C120.369 91.8967 120.521 92.4357 120.824 92.837C121.132 93.2337 121.582 93.432 122.175 93.432ZM130.784 98.57C130.355 98.57 129.947 98.5 129.559 98.36C129.172 98.2247 128.824 98.0333 128.516 97.786C128.213 97.5433 127.966 97.2587 127.774 96.932L129.538 96.078C129.66 96.302 129.832 96.4723 130.056 96.589C130.285 96.7057 130.532 96.764 130.798 96.764C131.083 96.764 131.351 96.715 131.603 96.617C131.855 96.5237 132.056 96.3813 132.205 96.19C132.359 96.0033 132.432 95.77 132.422 95.49V93.292H132.66V87.44H134.326V95.518C134.326 95.7047 134.317 95.8797 134.298 96.043C134.284 96.211 134.256 96.3767 134.214 96.54C134.093 97.002 133.867 97.3823 133.535 97.681C133.209 97.9797 132.807 98.2013 132.331 98.346C131.855 98.4953 131.34 98.57 130.784 98.57ZM130.616 95.21C129.921 95.21 129.312 95.035 128.789 94.685C128.267 94.335 127.858 93.859 127.564 93.257C127.275 92.655 127.13 91.976 127.13 91.22C127.13 90.45 127.277 89.7663 127.571 89.169C127.87 88.567 128.288 88.0933 128.824 87.748C129.361 87.4027 129.991 87.23 130.714 87.23C131.433 87.23 132.037 87.405 132.527 87.755C133.017 88.105 133.388 88.581 133.64 89.183C133.892 89.785 134.018 90.464 134.018 91.22C134.018 91.976 133.89 92.655 133.633 93.257C133.381 93.859 133.003 94.335 132.499 94.685C131.995 95.035 131.368 95.21 130.616 95.21ZM130.924 93.516C131.349 93.516 131.687 93.4203 131.939 93.229C132.196 93.0377 132.38 92.7693 132.492 92.424C132.604 92.0787 132.66 91.6773 132.66 91.22C132.66 90.7627 132.604 90.3613 132.492 90.016C132.38 89.6707 132.201 89.4023 131.953 89.211C131.711 89.0197 131.391 88.924 130.994 88.924C130.57 88.924 130.22 89.029 129.944 89.239C129.674 89.4443 129.473 89.722 129.342 90.072C129.212 90.4173 129.146 90.8 129.146 91.22C129.146 91.6447 129.209 92.032 129.335 92.382C129.461 92.7273 129.655 93.0027 129.916 93.208C130.178 93.4133 130.514 93.516 130.924 93.516ZM139.801 97.716C139.259 97.0813 138.795 96.3603 138.408 95.553C138.025 94.7457 137.733 93.901 137.533 93.019C137.337 92.1323 137.248 91.2527 137.267 90.38C137.248 89.5073 137.337 88.6277 137.533 87.741C137.733 86.8543 138.025 86.0097 138.408 85.207C138.795 84.3997 139.259 83.6787 139.801 83.044L141.215 84.08C140.645 84.766 140.2 85.452 139.878 86.138C139.556 86.8193 139.327 87.5123 139.192 88.217C139.061 88.917 138.993 89.638 138.989 90.38C138.993 91.122 139.061 91.8453 139.192 92.55C139.327 93.25 139.556 93.943 139.878 94.629C140.2 95.3103 140.645 95.994 141.215 96.68L139.801 97.716ZM147.89 97.716L146.476 96.68C147.045 95.994 147.491 95.3103 147.813 94.629C148.135 93.943 148.361 93.25 148.492 92.55C148.627 91.8453 148.697 91.122 148.702 90.38C148.697 89.638 148.627 88.917 148.492 88.217C148.361 87.5123 148.135 86.8193 147.813 86.138C147.491 85.452 147.045 84.766 146.476 84.08L147.89 83.044C148.431 83.6787 148.893 84.3997 149.276 85.207C149.663 86.0097 149.955 86.8543 150.151 87.741C150.352 88.6277 150.443 89.5073 150.424 90.38C150.443 91.2527 150.352 92.1323 150.151 93.019C149.955 93.901 149.663 94.7457 149.276 95.553C148.893 96.3603 148.431 97.0813 147.89 97.716ZM153.923 96.89L154.035 96.092C154.259 96.1107 154.441 96.0733 154.581 95.98C154.721 95.8913 154.816 95.7607 154.868 95.588C154.924 95.42 154.935 95.224 154.903 95H153.923V93.096H155.827V95C155.827 95.672 155.67 96.1807 155.358 96.526C155.045 96.8713 154.567 96.9927 153.923 96.89ZM153.923 89.344V87.44H155.827V89.344H153.923ZM76.3623 119.89L76.4743 119.092C76.6983 119.111 76.8803 119.073 77.0203 118.98C77.1603 118.891 77.2559 118.761 77.3073 118.588C77.3633 118.42 77.3749 118.224 77.3423 118H76.3623V116.096H78.2663V118C78.2663 118.672 78.1099 119.181 77.7973 119.526C77.4846 119.871 77.0063 119.993 76.3623 119.89ZM76.3623 112.344V110.44H78.2663V112.344H76.3623ZM45.054 143.94H44.06V142.162H44.914C45.026 142.162 45.1217 142.12 45.201 142.036C45.2803 141.957 45.32 141.859 45.32 141.742V137.794C45.32 137.337 45.4553 136.917 45.726 136.534L45.992 136.17L45.726 135.806C45.4553 135.423 45.32 135.003 45.32 134.546V130.598C45.32 130.486 45.2803 130.39 45.201 130.311C45.1217 130.232 45.026 130.192 44.914 130.192H44.06V128.4H45.054C45.698 128.4 46.202 128.584 46.566 128.953C46.93 129.317 47.112 129.819 47.112 130.458V134.546C47.112 134.616 47.1353 134.691 47.182 134.77L47.812 135.666C47.9193 135.82 47.973 135.988 47.973 136.17C47.973 136.352 47.9193 136.52 47.812 136.674L47.182 137.57C47.1353 137.631 47.112 137.705 47.112 137.794V141.882C47.112 142.526 46.93 143.03 46.566 143.394C46.202 143.758 45.698 143.94 45.054 143.94ZM55.3185 141L53.0085 133.426L54.8705 133.44L56.2425 137.948L57.6355 133.44H59.2175L60.6105 137.948L61.9825 133.44H63.8445L61.5345 141H60.0785L58.4265 136.072L56.7745 141H55.3185ZM70.2629 141V137.43C70.2629 137.257 70.2535 137.038 70.2349 136.772C70.2162 136.501 70.1579 136.231 70.0599 135.96C69.9619 135.689 69.8009 135.463 69.5769 135.281C69.3575 135.099 69.0449 135.008 68.6389 135.008C68.4755 135.008 68.3005 135.034 68.1139 135.085C67.9272 135.136 67.7522 135.237 67.5889 135.386C67.4255 135.531 67.2902 135.745 67.1829 136.03C67.0802 136.315 67.0289 136.693 67.0289 137.164L65.9369 136.646C65.9369 136.049 66.0582 135.489 66.3009 134.966C66.5435 134.443 66.9075 134.021 67.3929 133.699C67.8829 133.377 68.4989 133.216 69.2409 133.216C69.8335 133.216 70.3165 133.316 70.6899 133.517C71.0632 133.718 71.3525 133.972 71.5579 134.28C71.7679 134.588 71.9172 134.91 72.0059 135.246C72.0945 135.577 72.1482 135.881 72.1669 136.156C72.1855 136.431 72.1949 136.632 72.1949 136.758V141H70.2629ZM65.0969 141V130.92H66.7909V136.1H67.0289V141H65.0969ZM74.1513 132.39V130.71H76.0553V132.39H74.1513ZM74.1513 141V133.44H76.0553V141H74.1513ZM78.2938 141V130.71H80.1978V141H78.2938ZM85.8104 141.21C85.0357 141.21 84.3521 141.044 83.7594 140.713C83.1714 140.377 82.7094 139.917 82.3734 139.334C82.0421 138.746 81.8764 138.074 81.8764 137.318C81.8764 136.492 82.0397 135.773 82.3664 135.162C82.6931 134.551 83.1434 134.077 83.7174 133.741C84.2914 133.4 84.9517 133.23 85.6984 133.23C86.4917 133.23 87.1661 133.417 87.7214 133.79C88.2767 134.163 88.6874 134.688 88.9534 135.365C89.2194 136.042 89.3127 136.837 89.2334 137.752H87.3504V137.052C87.3504 136.282 87.2267 135.729 86.9794 135.393C86.7367 135.052 86.3377 134.882 85.7824 134.882C85.1337 134.882 84.6554 135.08 84.3474 135.477C84.0441 135.869 83.8924 136.45 83.8924 137.22C83.8924 137.925 84.0441 138.471 84.3474 138.858C84.6554 139.241 85.1057 139.432 85.6984 139.432C86.0717 139.432 86.3914 139.35 86.6574 139.187C86.9234 139.024 87.1264 138.788 87.2664 138.48L89.1704 139.026C88.8857 139.717 88.4354 140.253 87.8194 140.636C87.2081 141.019 86.5384 141.21 85.8104 141.21ZM83.3044 137.752V136.338H88.3164V137.752H83.3044ZM97.1307 143.716C96.5894 143.081 96.1251 142.36 95.7377 141.553C95.3551 140.746 95.0634 139.901 94.8627 139.019C94.6667 138.132 94.5781 137.253 94.5967 136.38C94.5781 135.507 94.6667 134.628 94.8627 133.741C95.0634 132.854 95.3551 132.01 95.7377 131.207C96.1251 130.4 96.5894 129.679 97.1307 129.044L98.5447 130.08C97.9754 130.766 97.5297 131.452 97.2077 132.138C96.8857 132.819 96.6571 133.512 96.5217 134.217C96.3911 134.917 96.3234 135.638 96.3187 136.38C96.3234 137.122 96.3911 137.845 96.5217 138.55C96.6571 139.25 96.8857 139.943 97.2077 140.629C97.5297 141.31 97.9754 141.994 98.5447 142.68L97.1307 143.716ZM128.093 143.296L126.679 142.26C127.248 141.574 127.694 140.89 128.016 140.209C128.338 139.523 128.564 138.83 128.695 138.13C128.83 137.425 128.9 136.702 128.905 135.96C128.9 135.218 128.83 134.497 128.695 133.797C128.564 133.092 128.338 132.399 128.016 131.718C127.694 131.032 127.248 130.346 126.679 129.66L128.093 128.624C128.634 129.259 129.096 129.98 129.479 130.787C129.866 131.59 130.158 132.434 130.354 133.321C130.555 134.208 130.646 135.087 130.627 135.96C130.646 136.833 130.555 137.712 130.354 138.599C130.158 139.481 129.866 140.326 129.479 141.133C129.096 141.94 128.634 142.661 128.093 143.296ZM134.126 142.89L134.238 142.092C134.462 142.111 134.644 142.073 134.784 141.98C134.924 141.891 135.02 141.761 135.071 141.588C135.127 141.42 135.139 141.224 135.106 141H134.126V139.096H136.03V141C136.03 141.672 135.874 142.181 135.561 142.526C135.248 142.871 134.77 142.993 134.126 142.89ZM134.126 135.344V133.44H136.03V135.344H134.126Z" fill="white"/>
<path d="M66.3036 40.39V38.71H68.2076V40.39H66.3036ZM66.3036 49V41.44H68.2076V49H66.3036ZM73.8089 43.33V41.86H80.9489V43.33H73.8089ZM73.8089 46.06V44.59H80.9489V46.06H73.8089ZM90.1496 49.21C89.403 49.21 88.7496 49.0537 88.1896 48.741C87.6296 48.4283 87.1933 47.992 86.8806 47.432C86.568 46.872 86.4116 46.2187 86.4116 45.472V42.448C86.4116 41.7013 86.568 41.048 86.8806 40.488C87.1933 39.928 87.6296 39.4917 88.1896 39.179C88.7496 38.8663 89.403 38.71 90.1496 38.71C90.8963 38.71 91.5496 38.8663 92.1096 39.179C92.6696 39.4917 93.106 39.928 93.4186 40.488C93.7313 41.048 93.8876 41.7013 93.8876 42.448V45.472C93.8876 46.2187 93.7313 46.872 93.4186 47.432C93.106 47.992 92.6696 48.4283 92.1096 48.741C91.5496 49.0537 90.8963 49.21 90.1496 49.21ZM90.1496 47.404C90.4856 47.404 90.789 47.3247 91.0596 47.166C91.3303 47.0073 91.545 46.7927 91.7036 46.522C91.8623 46.2513 91.9416 45.948 91.9416 45.612V42.294C91.9416 41.958 91.8623 41.6547 91.7036 41.384C91.545 41.1133 91.3303 40.8987 91.0596 40.74C90.789 40.5813 90.4856 40.502 90.1496 40.502C89.8136 40.502 89.5103 40.5813 89.2396 40.74C88.969 40.8987 88.7543 41.1133 88.5956 41.384C88.437 41.6547 88.3576 41.958 88.3576 42.294V45.612C88.3576 45.948 88.437 46.2513 88.5956 46.522C88.7543 46.7927 88.969 47.0073 89.2396 47.166C89.5103 47.3247 89.8136 47.404 90.1496 47.404ZM142.893 86.39V84.71H144.797V86.39H142.893ZM142.893 95V87.44H144.797V95H142.893Z" fill="#FFD966"/>
<path d="M47.546 72.21C46.8507 72.21 46.2417 72.035 45.719 71.685C45.1963 71.335 44.788 70.859 44.494 70.257C44.2047 69.655 44.06 68.976 44.06 68.22C44.06 67.45 44.207 66.7663 44.501 66.169C44.7997 65.567 45.2173 65.0933 45.754 64.748C46.2907 64.4027 46.9207 64.23 47.644 64.23C48.3627 64.23 48.967 64.405 49.457 64.755C49.947 65.105 50.318 65.581 50.57 66.183C50.822 66.785 50.948 67.464 50.948 68.22C50.948 68.976 50.8197 69.655 50.563 70.257C50.311 70.859 49.933 71.335 49.429 71.685C48.925 72.035 48.2973 72.21 47.546 72.21ZM47.854 70.516C48.2787 70.516 48.617 70.4203 48.869 70.229C49.1257 70.0377 49.31 69.7693 49.422 69.424C49.534 69.0787 49.59 68.6773 49.59 68.22C49.59 67.7627 49.534 67.3613 49.422 67.016C49.31 66.6707 49.1303 66.4023 48.883 66.211C48.6403 66.0197 48.3207 65.924 47.924 65.924C47.4993 65.924 47.1493 66.029 46.874 66.239C46.6033 66.4443 46.4027 66.722 46.272 67.072C46.1413 67.4173 46.076 67.8 46.076 68.22C46.076 68.6447 46.139 69.032 46.265 69.382C46.391 69.7273 46.5847 70.0027 46.846 70.208C47.1073 70.4133 47.4433 70.516 47.854 70.516ZM49.59 72V66.82H49.352V61.92H51.27V72H49.59ZM56.632 72.21C55.8713 72.21 55.204 72.0397 54.63 71.699C54.056 71.3583 53.608 70.8893 53.286 70.292C52.9687 69.69 52.81 68.9993 52.81 68.22C52.81 67.4313 52.9733 66.7383 53.3 66.141C53.6267 65.539 54.077 65.07 54.651 64.734C55.225 64.398 55.8853 64.23 56.632 64.23C57.3927 64.23 58.06 64.4003 58.634 64.741C59.2127 65.0817 59.663 65.553 59.985 66.155C60.307 66.7523 60.468 67.4407 60.468 68.22C60.468 69.004 60.3047 69.697 59.978 70.299C59.656 70.8963 59.2057 71.3653 58.627 71.706C58.053 72.042 57.388 72.21 56.632 72.21ZM56.632 70.432C57.2433 70.432 57.6983 70.2267 57.997 69.816C58.3003 69.4007 58.452 68.8687 58.452 68.22C58.452 67.548 58.298 67.0113 57.99 66.61C57.6867 66.2087 57.234 66.008 56.632 66.008C56.2167 66.008 55.876 66.1013 55.61 66.288C55.344 66.4747 55.1457 66.7337 55.015 67.065C54.889 67.3963 54.826 67.7813 54.826 68.22C54.826 68.8967 54.9777 69.4357 55.281 69.837C55.589 70.2337 56.0393 70.432 56.632 70.432Z" fill="#787DF7"/>
<path d="M55.8309 109.39V107.71H57.7349V109.39H55.8309ZM55.8309 118V110.44H57.7349V118H55.8309ZM62.1155 116.11V113.688H59.6935V112.218H62.1155V109.81H63.5855V112.218H65.9935V113.688H63.5855V116.11H62.1155ZM70.0999 116.11V113.688H67.6779V112.218H70.0999V109.81H71.5699V112.218H73.9779V113.688H71.5699V116.11H70.0999ZM100.224 132.39V130.71H102.128V132.39H100.224ZM100.224 141V133.44H102.128V141H100.224ZM111.397 139.978L108.009 136.59L111.397 133.202L112.573 134.378L110.277 136.59L112.573 138.802L111.397 139.978ZM121.851 141.21C121.342 141.21 120.864 141.105 120.416 140.895C119.973 140.685 119.59 140.393 119.268 140.02C118.946 139.647 118.715 139.213 118.575 138.718L120.409 138.228C120.47 138.466 120.577 138.671 120.731 138.844C120.89 139.017 121.072 139.152 121.277 139.25C121.487 139.343 121.702 139.39 121.921 139.39C122.21 139.39 122.474 139.32 122.712 139.18C122.955 139.04 123.146 138.851 123.286 138.613C123.431 138.375 123.503 138.111 123.503 137.822C123.503 137.533 123.431 137.269 123.286 137.031C123.146 136.793 122.955 136.604 122.712 136.464C122.474 136.324 122.21 136.254 121.921 136.254C121.566 136.254 121.277 136.315 121.053 136.436C120.829 136.553 120.661 136.665 120.549 136.772L118.939 136.282L119.247 130.92H124.749V132.698H120.297L120.969 132.068L120.759 135.526L120.437 135.134C120.689 134.929 120.976 134.779 121.298 134.686C121.62 134.593 121.921 134.546 122.201 134.546C122.836 134.546 123.393 134.688 123.874 134.973C124.359 135.253 124.737 135.64 125.008 136.135C125.283 136.625 125.421 137.187 125.421 137.822C125.421 138.457 125.255 139.031 124.924 139.544C124.593 140.053 124.156 140.459 123.615 140.762C123.074 141.061 122.486 141.21 121.851 141.21Z" fill="#FF378B"/>
<path d="M78.5 32.5C78.5 33.0523 78.9477 33.5 79.5 33.5C80.0523 33.5 80.5 33.0523 80.5 32.5H78.5ZM107.707 13.7071C108.098 13.3166 108.098 12.6834 107.707 12.2929L101.343 5.92893C100.953 5.53841 100.319 5.53841 99.9289 5.92893C99.5384 6.31946 99.5384 6.95262 99.9289 7.34315L105.586 13L99.9289 18.6569C99.5384 19.0474 99.5384 19.6805 99.9289 20.0711C100.319 20.4616 100.953 20.4616 101.343 20.0711L107.707 13.7071ZM80.5 32.5V23H78.5V32.5H80.5ZM89.5 14H107V12H89.5V14ZM80.5 23C80.5 18.0294 84.5294 14 89.5 14V12C83.4249 12 78.5 16.9249 78.5 23H80.5Z" fill="#FFD966"/>
<path d="M117.62 17V6.92H119.524V17H117.62ZM126.775 17V13.43C126.775 13.2573 126.765 13.038 126.747 12.772C126.728 12.5013 126.67 12.2307 126.572 11.96C126.474 11.6893 126.313 11.463 126.089 11.281C125.869 11.099 125.557 11.008 125.151 11.008C124.987 11.008 124.812 11.0337 124.626 11.085C124.439 11.1363 124.264 11.2367 124.101 11.386C123.937 11.5307 123.802 11.7453 123.695 12.03C123.592 12.3147 123.541 12.6927 123.541 13.164L122.449 12.646C122.449 12.0487 122.57 11.4887 122.813 10.966C123.055 10.4433 123.419 10.021 123.905 9.699C124.395 9.377 125.011 9.216 125.753 9.216C126.345 9.216 126.828 9.31633 127.202 9.517C127.575 9.71767 127.864 9.972 128.07 10.28C128.28 10.588 128.429 10.91 128.518 11.246C128.606 11.5773 128.66 11.8807 128.679 12.156C128.697 12.4313 128.707 12.632 128.707 12.758V17H126.775ZM121.609 17V9.44H123.303V11.946H123.541V17H121.609ZM130.663 8.39V6.71H132.567V8.39H130.663ZM130.663 17V9.44H132.567V17H130.663ZM139.202 17C138.679 17.098 138.166 17.14 137.662 17.126C137.162 17.1167 136.714 17.0303 136.318 16.867C135.926 16.699 135.627 16.4307 135.422 16.062C135.235 15.7167 135.137 15.3667 135.128 15.012C135.118 14.6527 135.114 14.2467 135.114 13.794V7.34H137.018V13.682C137.018 13.976 137.02 14.242 137.025 14.48C137.034 14.7133 137.083 14.9 137.172 15.04C137.34 15.306 137.608 15.4507 137.977 15.474C138.345 15.4973 138.754 15.4787 139.202 15.418V17ZM133.826 10.91V9.44H139.202V10.91H133.826ZM141.026 8.39V6.71H142.93V8.39H141.026ZM141.026 17V9.44H142.93V17H141.026ZM147.129 17.21C146.587 17.21 146.128 17.1073 145.75 16.902C145.376 16.692 145.092 16.4143 144.896 16.069C144.704 15.719 144.609 15.334 144.609 14.914C144.609 14.564 144.662 14.2443 144.77 13.955C144.877 13.6657 145.05 13.4113 145.288 13.192C145.53 12.968 145.855 12.7813 146.261 12.632C146.541 12.5293 146.874 12.4383 147.262 12.359C147.649 12.2797 148.088 12.205 148.578 12.135C149.068 12.0603 149.607 11.9787 150.195 11.89L149.509 12.268C149.509 11.82 149.401 11.491 149.187 11.281C148.972 11.071 148.613 10.966 148.109 10.966C147.829 10.966 147.537 11.0337 147.234 11.169C146.93 11.3043 146.718 11.5447 146.597 11.89L144.875 11.344C145.066 10.7187 145.425 10.21 145.953 9.818C146.48 9.426 147.199 9.23 148.109 9.23C148.776 9.23 149.369 9.33267 149.887 9.538C150.405 9.74333 150.797 10.098 151.063 10.602C151.212 10.882 151.301 11.162 151.329 11.442C151.357 11.722 151.371 12.0347 151.371 12.38V17H149.705V15.446L149.943 15.768C149.574 16.2767 149.175 16.6453 148.746 16.874C148.321 17.098 147.782 17.21 147.129 17.21ZM147.535 15.712C147.885 15.712 148.179 15.6513 148.417 15.53C148.659 15.404 148.851 15.2617 148.991 15.103C149.135 14.9443 149.233 14.8113 149.285 14.704C149.383 14.4987 149.439 14.2607 149.453 13.99C149.471 13.7147 149.481 13.486 149.481 13.304L150.041 13.444C149.476 13.5373 149.019 13.6167 148.669 13.682C148.319 13.7427 148.036 13.7987 147.822 13.85C147.607 13.9013 147.418 13.9573 147.255 14.018C147.068 14.0927 146.916 14.1743 146.8 14.263C146.688 14.347 146.604 14.4403 146.548 14.543C146.496 14.6457 146.471 14.76 146.471 14.886C146.471 15.0587 146.513 15.208 146.597 15.334C146.685 15.4553 146.809 15.5487 146.968 15.614C147.126 15.6793 147.315 15.712 147.535 15.712ZM153.331 17V6.71H155.235V17H153.331ZM157.474 8.39V6.71H159.378V8.39H157.474ZM157.474 17V9.44H159.378V17H157.474ZM160.776 17V16.762L164.486 11.092H161.196V9.44H167.426V9.678L163.73 15.348H167.286V17H160.776ZM171.922 17.21C171.147 17.21 170.463 17.0443 169.871 16.713C169.283 16.377 168.821 15.9173 168.485 15.334C168.153 14.746 167.988 14.074 167.988 13.318C167.988 12.492 168.151 11.7733 168.478 11.162C168.804 10.5507 169.255 10.077 169.829 9.741C170.403 9.40033 171.063 9.23 171.81 9.23C172.603 9.23 173.277 9.41667 173.833 9.79C174.388 10.1633 174.799 10.6883 175.065 11.365C175.331 12.0417 175.424 12.8373 175.345 13.752H173.462V13.052C173.462 12.282 173.338 11.729 173.091 11.393C172.848 11.0523 172.449 10.882 171.894 10.882C171.245 10.882 170.767 11.0803 170.459 11.477C170.155 11.869 170.004 12.45 170.004 13.22C170.004 13.9247 170.155 14.4707 170.459 14.858C170.767 15.2407 171.217 15.432 171.81 15.432C172.183 15.432 172.503 15.3503 172.769 15.187C173.035 15.0237 173.238 14.788 173.378 14.48L175.282 15.026C174.997 15.7167 174.547 16.2533 173.931 16.636C173.319 17.0187 172.65 17.21 171.922 17.21ZM169.416 13.752V12.338H174.428V13.752H169.416Z" fill="#FFD966"/>
<path d="M189.743 58.21C188.735 58.21 187.872 57.9907 187.153 57.552C186.434 57.1087 185.881 56.4927 185.494 55.704C185.111 54.9153 184.92 54.0007 184.92 52.96C184.92 51.9193 185.111 51.0047 185.494 50.216C185.881 49.4273 186.434 48.8137 187.153 48.375C187.872 47.9317 188.735 47.71 189.743 47.71C190.905 47.71 191.873 48.0017 192.648 48.585C193.423 49.1637 193.966 49.9453 194.279 50.93L192.578 51.399C192.382 50.741 192.048 50.2277 191.577 49.859C191.106 49.4857 190.494 49.299 189.743 49.299C189.066 49.299 188.502 49.4507 188.049 49.754C187.601 50.0573 187.263 50.4843 187.034 51.035C186.81 51.581 186.696 52.2227 186.691 52.96C186.691 53.6973 186.803 54.3413 187.027 54.892C187.256 55.438 187.596 55.8627 188.049 56.166C188.502 56.4693 189.066 56.621 189.743 56.621C190.494 56.621 191.106 56.4343 191.577 56.061C192.048 55.6877 192.382 55.1743 192.578 54.521L194.279 54.99C193.966 55.9747 193.423 56.7587 192.648 57.342C191.873 57.9207 190.905 58.21 189.743 58.21ZM199.155 58.21C198.399 58.21 197.739 58.0397 197.174 57.699C196.609 57.3583 196.171 56.8893 195.858 56.292C195.55 55.69 195.396 54.9993 195.396 54.22C195.396 53.4267 195.555 52.7313 195.872 52.134C196.189 51.5367 196.63 51.07 197.195 50.734C197.76 50.398 198.413 50.23 199.155 50.23C199.916 50.23 200.578 50.4003 201.143 50.741C201.708 51.0817 202.146 51.553 202.459 52.155C202.772 52.7523 202.928 53.4407 202.928 54.22C202.928 55.004 202.769 55.697 202.452 56.299C202.139 56.8963 201.701 57.3653 201.136 57.706C200.571 58.042 199.911 58.21 199.155 58.21ZM199.155 56.628C199.827 56.628 200.326 56.404 200.653 55.956C200.98 55.508 201.143 54.9293 201.143 54.22C201.143 53.4873 200.977 52.904 200.646 52.47C200.315 52.0313 199.818 51.812 199.155 51.812C198.702 51.812 198.329 51.9147 198.035 52.12C197.746 52.3207 197.531 52.603 197.391 52.967C197.251 53.3263 197.181 53.744 197.181 54.22C197.181 54.9527 197.347 55.5383 197.678 55.977C198.014 56.411 198.506 56.628 199.155 56.628ZM209.699 58V54.36C209.699 54.122 209.683 53.8583 209.65 53.569C209.618 53.2797 209.541 53.002 209.419 52.736C209.303 52.4653 209.125 52.2437 208.887 52.071C208.654 51.8983 208.337 51.812 207.935 51.812C207.721 51.812 207.508 51.847 207.298 51.917C207.088 51.987 206.897 52.1083 206.724 52.281C206.556 52.449 206.421 52.6823 206.318 52.981C206.216 53.275 206.164 53.653 206.164 54.115L205.163 53.688C205.163 53.044 205.287 52.4607 205.534 51.938C205.786 51.4153 206.155 51 206.64 50.692C207.126 50.3793 207.723 50.223 208.432 50.223C208.992 50.223 209.454 50.3163 209.818 50.503C210.182 50.6897 210.472 50.9277 210.686 51.217C210.901 51.5063 211.06 51.8143 211.162 52.141C211.265 52.4677 211.33 52.778 211.358 53.072C211.391 53.3613 211.407 53.597 211.407 53.779V58H209.699ZM204.456 58V50.44H205.961V52.785H206.164V58H204.456ZM216.142 58.21C215.447 58.21 214.84 58.035 214.322 57.685C213.804 57.335 213.403 56.859 213.118 56.257C212.833 55.655 212.691 54.976 212.691 54.22C212.691 53.4547 212.833 52.7733 213.118 52.176C213.407 51.574 213.816 51.1003 214.343 50.755C214.87 50.405 215.491 50.23 216.205 50.23C216.924 50.23 217.526 50.405 218.011 50.755C218.501 51.1003 218.872 51.574 219.124 52.176C219.376 52.778 219.502 53.4593 219.502 54.22C219.502 54.9713 219.376 55.6503 219.124 56.257C218.872 56.859 218.496 57.335 217.997 57.685C217.498 58.035 216.879 58.21 216.142 58.21ZM216.401 56.698C216.854 56.698 217.218 56.5953 217.493 56.39C217.773 56.18 217.976 55.8883 218.102 55.515C218.233 55.1417 218.298 54.71 218.298 54.22C218.298 53.7253 218.233 53.2937 218.102 52.925C217.976 52.5517 217.778 52.2623 217.507 52.057C217.236 51.847 216.886 51.742 216.457 51.742C216.004 51.742 215.631 51.854 215.337 52.078C215.043 52.2973 214.826 52.596 214.686 52.974C214.546 53.3473 214.476 53.7627 214.476 54.22C214.476 54.682 214.544 55.102 214.679 55.48C214.819 55.8533 215.031 56.1497 215.316 56.369C215.601 56.5883 215.962 56.698 216.401 56.698ZM218.298 58V52.694H218.088V47.92H219.789V58H218.298ZM221.891 49.292V47.745H223.578V49.292H221.891ZM221.891 58V50.44H223.578V58H221.891ZM230.106 58C229.607 58.0933 229.117 58.133 228.636 58.119C228.16 58.1097 227.733 58.0233 227.355 57.86C226.977 57.692 226.69 57.4283 226.494 57.069C226.322 56.7423 226.231 56.4087 226.221 56.068C226.212 55.7273 226.207 55.3423 226.207 54.913V48.34H227.887V54.815C227.887 55.1183 227.89 55.3843 227.894 55.613C227.904 55.8417 227.953 56.0283 228.041 56.173C228.209 56.453 228.478 56.6093 228.846 56.642C229.215 56.6747 229.635 56.656 230.106 56.586V58ZM224.835 51.763V50.44H230.106V51.763H224.835ZM231.872 49.292V47.745H233.559V49.292H231.872ZM231.872 58V50.44H233.559V58H231.872ZM238.995 58.21C238.239 58.21 237.578 58.0397 237.014 57.699C236.449 57.3583 236.01 56.8893 235.698 56.292C235.39 55.69 235.236 54.9993 235.236 54.22C235.236 53.4267 235.394 52.7313 235.712 52.134C236.029 51.5367 236.47 51.07 237.035 50.734C237.599 50.398 238.253 50.23 238.995 50.23C239.755 50.23 240.418 50.4003 240.983 50.741C241.547 51.0817 241.986 51.553 242.299 52.155C242.611 52.7523 242.768 53.4407 242.768 54.22C242.768 55.004 242.609 55.697 242.292 56.299C241.979 56.8963 241.54 57.3653 240.976 57.706C240.411 58.042 239.751 58.21 238.995 58.21ZM238.995 56.628C239.667 56.628 240.166 56.404 240.493 55.956C240.819 55.508 240.983 54.9293 240.983 54.22C240.983 53.4873 240.817 52.904 240.486 52.47C240.154 52.0313 239.657 51.812 238.995 51.812C238.542 51.812 238.169 51.9147 237.875 52.12C237.585 52.3207 237.371 52.603 237.231 52.967C237.091 53.3263 237.021 53.744 237.021 54.22C237.021 54.9527 237.186 55.5383 237.518 55.977C237.854 56.411 238.346 56.628 238.995 56.628ZM249.539 58V54.36C249.539 54.122 249.523 53.8583 249.49 53.569C249.457 53.2797 249.38 53.002 249.259 52.736C249.142 52.4653 248.965 52.2437 248.727 52.071C248.494 51.8983 248.176 51.812 247.775 51.812C247.56 51.812 247.348 51.847 247.138 51.917C246.928 51.987 246.737 52.1083 246.564 52.281C246.396 52.449 246.261 52.6823 246.158 52.981C246.055 53.275 246.004 53.653 246.004 54.115L245.003 53.688C245.003 53.044 245.127 52.4607 245.374 51.938C245.626 51.4153 245.995 51 246.48 50.692C246.965 50.3793 247.563 50.223 248.272 50.223C248.832 50.223 249.294 50.3163 249.658 50.503C250.022 50.6897 250.311 50.9277 250.526 51.217C250.741 51.5063 250.899 51.8143 251.002 52.141C251.105 52.4677 251.17 52.778 251.198 53.072C251.231 53.3613 251.247 53.597 251.247 53.779V58H249.539ZM244.296 58V50.44H245.801V52.785H246.004V58H244.296ZM259.159 58.21C258.38 58.21 257.715 58.0373 257.164 57.692C256.614 57.342 256.191 56.866 255.897 56.264C255.608 55.662 255.461 54.9807 255.456 54.22C255.461 53.4453 255.613 52.7593 255.911 52.162C256.215 51.56 256.644 51.0887 257.199 50.748C257.755 50.4027 258.415 50.23 259.18 50.23C260.039 50.23 260.765 50.447 261.357 50.881C261.955 51.3103 262.344 51.8983 262.526 52.645L260.846 53.1C260.716 52.694 260.499 52.379 260.195 52.155C259.892 51.9263 259.547 51.812 259.159 51.812C258.721 51.812 258.359 51.917 258.074 52.127C257.79 52.3323 257.58 52.617 257.444 52.981C257.309 53.345 257.241 53.758 257.241 54.22C257.241 54.9387 257.402 55.5197 257.724 55.963C258.046 56.4063 258.525 56.628 259.159 56.628C259.607 56.628 259.96 56.5253 260.216 56.32C260.478 56.1147 260.674 55.8183 260.804 55.431L262.526 55.816C262.293 56.586 261.885 57.1787 261.301 57.594C260.718 58.0047 260.004 58.21 259.159 58.21ZM269.158 58V54.36C269.158 54.122 269.142 53.8583 269.109 53.569C269.077 53.2797 269 53.002 268.878 52.736C268.762 52.4653 268.584 52.2437 268.346 52.071C268.113 51.8983 267.796 51.812 267.394 51.812C267.18 51.812 266.967 51.847 266.757 51.917C266.547 51.987 266.356 52.1083 266.183 52.281C266.015 52.449 265.88 52.6823 265.777 52.981C265.675 53.275 265.623 53.653 265.623 54.115L264.622 53.688C264.622 53.044 264.746 52.4607 264.993 51.938C265.245 51.4153 265.614 51 266.099 50.692C266.585 50.3793 267.182 50.223 267.891 50.223C268.451 50.223 268.913 50.3163 269.277 50.503C269.641 50.6897 269.931 50.9277 270.145 51.217C270.36 51.5063 270.519 51.8143 270.621 52.141C270.724 52.4677 270.789 52.778 270.817 53.072C270.85 53.3613 270.866 53.597 270.866 53.779V58H269.158ZM263.915 58V47.92H265.42V53.226H265.623V58H263.915ZM276.13 58.21C275.365 58.21 274.693 58.0443 274.114 57.713C273.535 57.3817 273.083 56.922 272.756 56.334C272.434 55.746 272.273 55.0693 272.273 54.304C272.273 53.478 272.432 52.7617 272.749 52.155C273.066 51.5437 273.507 51.07 274.072 50.734C274.637 50.398 275.29 50.23 276.032 50.23C276.816 50.23 277.481 50.4143 278.027 50.783C278.578 51.147 278.986 51.6627 279.252 52.33C279.518 52.9973 279.618 53.7837 279.553 54.689H277.88V54.073C277.875 53.2517 277.731 52.652 277.446 52.274C277.161 51.896 276.713 51.707 276.102 51.707C275.411 51.707 274.898 51.9217 274.562 52.351C274.226 52.7757 274.058 53.3987 274.058 54.22C274.058 54.9853 274.226 55.578 274.562 55.998C274.898 56.418 275.388 56.628 276.032 56.628C276.447 56.628 276.804 56.537 277.103 56.355C277.406 56.1683 277.64 55.9 277.803 55.55L279.469 56.054C279.18 56.7353 278.732 57.265 278.125 57.643C277.523 58.021 276.858 58.21 276.13 58.21ZM273.526 54.689V53.415H278.727V54.689H273.526ZM284.398 58.21C283.618 58.21 282.953 58.0373 282.403 57.692C281.852 57.342 281.43 56.866 281.136 56.264C280.846 55.662 280.699 54.9807 280.695 54.22C280.699 53.4453 280.851 52.7593 281.15 52.162C281.453 51.56 281.882 51.0887 282.438 50.748C282.993 50.4027 283.653 50.23 284.419 50.23C285.277 50.23 286.003 50.447 286.596 50.881C287.193 51.3103 287.583 51.8983 287.765 52.645L286.085 53.1C285.954 52.694 285.737 52.379 285.434 52.155C285.13 51.9263 284.785 51.812 284.398 51.812C283.959 51.812 283.597 51.917 283.313 52.127C283.028 52.3323 282.818 52.617 282.683 52.981C282.547 53.345 282.48 53.758 282.48 54.22C282.48 54.9387 282.641 55.5197 282.963 55.963C283.285 56.4063 283.763 56.628 284.398 56.628C284.846 56.628 285.198 56.5253 285.455 56.32C285.716 56.1147 285.912 55.8183 286.043 55.431L287.765 55.816C287.531 56.586 287.123 57.1787 286.54 57.594C285.956 58.0047 285.242 58.21 284.398 58.21ZM289.154 58L289.168 47.92H290.876V54.08L293.641 50.44H295.748L292.815 54.22L296 58H293.767L290.876 54.36V58H289.154ZM189.113 77.21C188.376 77.21 187.757 77.035 187.258 76.685C186.759 76.335 186.383 75.859 186.131 75.257C185.879 74.6503 185.753 73.9713 185.753 73.22C185.753 72.4593 185.879 71.778 186.131 71.176C186.383 70.574 186.752 70.1003 187.237 69.755C187.727 69.405 188.331 69.23 189.05 69.23C189.764 69.23 190.382 69.405 190.905 69.755C191.432 70.1003 191.841 70.574 192.13 71.176C192.419 71.7733 192.564 72.4547 192.564 73.22C192.564 73.976 192.422 74.655 192.137 75.257C191.852 75.859 191.451 76.335 190.933 76.685C190.415 77.035 189.808 77.21 189.113 77.21ZM185.466 80.36V69.44H186.957V74.746H187.167V80.36H185.466ZM188.854 75.698C189.293 75.698 189.654 75.5883 189.939 75.369C190.224 75.1497 190.434 74.8533 190.569 74.48C190.709 74.102 190.779 73.682 190.779 73.22C190.779 72.7627 190.709 72.3473 190.569 71.974C190.429 71.596 190.212 71.2973 189.918 71.078C189.624 70.854 189.251 70.742 188.798 70.742C188.369 70.742 188.019 70.847 187.748 71.057C187.477 71.2623 187.277 71.5517 187.146 71.925C187.02 72.2937 186.957 72.7253 186.957 73.22C186.957 73.71 187.02 74.1417 187.146 74.515C187.277 74.8883 187.48 75.18 187.755 75.39C188.035 75.5953 188.401 75.698 188.854 75.698ZM196.221 77.21C195.675 77.21 195.213 77.1073 194.835 76.902C194.457 76.692 194.17 76.4143 193.974 76.069C193.783 75.7237 193.687 75.3433 193.687 74.928C193.687 74.564 193.748 74.2373 193.869 73.948C193.99 73.654 194.177 73.402 194.429 73.192C194.681 72.9773 195.008 72.8023 195.409 72.667C195.712 72.569 196.067 72.4803 196.473 72.401C196.884 72.3217 197.327 72.2493 197.803 72.184C198.284 72.114 198.785 72.0393 199.308 71.96L198.706 72.303C198.711 71.7803 198.594 71.3953 198.356 71.148C198.118 70.9007 197.717 70.777 197.152 70.777C196.811 70.777 196.482 70.8563 196.165 71.015C195.848 71.1737 195.626 71.4467 195.5 71.834L193.96 71.351C194.147 70.7117 194.501 70.1983 195.024 69.811C195.551 69.4237 196.261 69.23 197.152 69.23C197.824 69.23 198.414 69.3397 198.923 69.559C199.436 69.7783 199.817 70.1377 200.064 70.637C200.199 70.903 200.281 71.176 200.309 71.456C200.337 71.7313 200.351 72.0323 200.351 72.359V77H198.874V75.362L199.119 75.628C198.778 76.174 198.379 76.5753 197.922 76.832C197.469 77.084 196.902 77.21 196.221 77.21ZM196.557 75.866C196.94 75.866 197.266 75.7983 197.537 75.663C197.808 75.5277 198.022 75.362 198.181 75.166C198.344 74.97 198.454 74.7857 198.51 74.613C198.599 74.3983 198.648 74.1533 198.657 73.878C198.671 73.598 198.678 73.3717 198.678 73.199L199.196 73.353C198.687 73.4323 198.251 73.5023 197.887 73.563C197.523 73.6237 197.21 73.682 196.949 73.738C196.688 73.7893 196.457 73.8477 196.256 73.913C196.06 73.983 195.894 74.0647 195.759 74.158C195.624 74.2513 195.519 74.3587 195.444 74.48C195.374 74.6013 195.339 74.7437 195.339 74.907C195.339 75.0937 195.386 75.2593 195.479 75.404C195.572 75.544 195.708 75.656 195.885 75.74C196.067 75.824 196.291 75.866 196.557 75.866ZM207.402 77V73.36C207.402 73.122 207.386 72.8583 207.353 72.569C207.321 72.2797 207.244 72.002 207.122 71.736C207.006 71.4653 206.828 71.2437 206.59 71.071C206.357 70.8983 206.04 70.812 205.638 70.812C205.424 70.812 205.211 70.847 205.001 70.917C204.791 70.987 204.6 71.1083 204.427 71.281C204.259 71.449 204.124 71.6823 204.021 71.981C203.919 72.275 203.867 72.653 203.867 73.115L202.866 72.688C202.866 72.044 202.99 71.4607 203.237 70.938C203.489 70.4153 203.858 70 204.343 69.692C204.829 69.3793 205.426 69.223 206.135 69.223C206.695 69.223 207.157 69.3163 207.521 69.503C207.885 69.6897 208.175 69.9277 208.389 70.217C208.604 70.5063 208.763 70.8143 208.865 71.141C208.968 71.4677 209.033 71.778 209.061 72.072C209.094 72.3613 209.11 72.597 209.11 72.779V77H207.402ZM202.159 77V69.44H203.664V71.785H203.867V77H202.159ZM210.937 77V69.44H212.428V71.281L212.246 71.043C212.339 70.791 212.463 70.5623 212.617 70.357C212.776 70.147 212.965 69.9743 213.184 69.839C213.371 69.713 213.576 69.615 213.8 69.545C214.029 69.4703 214.262 69.426 214.5 69.412C214.738 69.3933 214.969 69.4027 215.193 69.44V71.015C214.969 70.9497 214.71 70.9287 214.416 70.952C214.127 70.9753 213.865 71.057 213.632 71.197C213.399 71.323 213.207 71.484 213.058 71.68C212.913 71.876 212.806 72.1 212.736 72.352C212.666 72.5993 212.631 72.8677 212.631 73.157V77H210.937ZM218.465 77.21C217.919 77.21 217.457 77.1073 217.079 76.902C216.701 76.692 216.414 76.4143 216.218 76.069C216.027 75.7237 215.931 75.3433 215.931 74.928C215.931 74.564 215.992 74.2373 216.113 73.948C216.234 73.654 216.421 73.402 216.673 73.192C216.925 72.9773 217.252 72.8023 217.653 72.667C217.956 72.569 218.311 72.4803 218.717 72.401C219.128 72.3217 219.571 72.2493 220.047 72.184C220.528 72.114 221.029 72.0393 221.552 71.96L220.95 72.303C220.955 71.7803 220.838 71.3953 220.6 71.148C220.362 70.9007 219.961 70.777 219.396 70.777C219.055 70.777 218.726 70.8563 218.409 71.015C218.092 71.1737 217.87 71.4467 217.744 71.834L216.204 71.351C216.391 70.7117 216.745 70.1983 217.268 69.811C217.795 69.4237 218.505 69.23 219.396 69.23C220.068 69.23 220.658 69.3397 221.167 69.559C221.68 69.7783 222.061 70.1377 222.308 70.637C222.443 70.903 222.525 71.176 222.553 71.456C222.581 71.7313 222.595 72.0323 222.595 72.359V77H221.118V75.362L221.363 75.628C221.022 76.174 220.623 76.5753 220.166 76.832C219.713 77.084 219.146 77.21 218.465 77.21ZM218.801 75.866C219.184 75.866 219.51 75.7983 219.781 75.663C220.052 75.5277 220.266 75.362 220.425 75.166C220.588 74.97 220.698 74.7857 220.754 74.613C220.843 74.3983 220.892 74.1533 220.901 73.878C220.915 73.598 220.922 73.3717 220.922 73.199L221.44 73.353C220.931 73.4323 220.495 73.5023 220.131 73.563C219.767 73.6237 219.454 73.682 219.193 73.738C218.932 73.7893 218.701 73.8477 218.5 73.913C218.304 73.983 218.138 74.0647 218.003 74.158C217.868 74.2513 217.763 74.3587 217.688 74.48C217.618 74.6013 217.583 74.7437 217.583 74.907C217.583 75.0937 217.63 75.2593 217.723 75.404C217.816 75.544 217.952 75.656 218.129 75.74C218.311 75.824 218.535 75.866 218.801 75.866ZM227.449 77.21C226.753 77.21 226.147 77.035 225.629 76.685C225.111 76.335 224.709 75.859 224.425 75.257C224.14 74.655 223.998 73.976 223.998 73.22C223.998 72.4547 224.14 71.7733 224.425 71.176C224.714 70.574 225.122 70.1003 225.65 69.755C226.177 69.405 226.798 69.23 227.512 69.23C228.23 69.23 228.832 69.405 229.318 69.755C229.808 70.1003 230.179 70.574 230.431 71.176C230.683 71.778 230.809 72.4593 230.809 73.22C230.809 73.9713 230.683 74.6503 230.431 75.257C230.179 75.859 229.803 76.335 229.304 76.685C228.804 77.035 228.186 77.21 227.449 77.21ZM227.708 75.698C228.16 75.698 228.524 75.5953 228.8 75.39C229.08 75.18 229.283 74.8883 229.409 74.515C229.539 74.1417 229.605 73.71 229.605 73.22C229.605 72.7253 229.539 72.2937 229.409 71.925C229.283 71.5517 229.084 71.2623 228.814 71.057C228.543 70.847 228.193 70.742 227.764 70.742C227.311 70.742 226.938 70.854 226.644 71.078C226.35 71.2973 226.133 71.596 225.993 71.974C225.853 72.3473 225.783 72.7627 225.783 73.22C225.783 73.682 225.85 74.102 225.986 74.48C226.126 74.8533 226.338 75.1497 226.623 75.369C226.907 75.5883 227.269 75.698 227.708 75.698ZM229.605 77V71.694H229.395V66.92H231.096V77H229.605ZM238.287 77V73.36C238.287 73.122 238.271 72.8583 238.238 72.569C238.205 72.2797 238.128 72.002 238.007 71.736C237.89 71.4653 237.713 71.2437 237.475 71.071C237.242 70.8983 236.924 70.812 236.523 70.812C236.308 70.812 236.096 70.847 235.886 70.917C235.676 70.987 235.485 71.1083 235.312 71.281C235.144 71.449 235.009 71.6823 234.906 71.981C234.803 72.275 234.752 72.653 234.752 73.115L233.751 72.688C233.751 72.044 233.875 71.4607 234.122 70.938C234.374 70.4153 234.743 70 235.228 69.692C235.713 69.3793 236.311 69.223 237.02 69.223C237.58 69.223 238.042 69.3163 238.406 69.503C238.77 69.6897 239.059 69.9277 239.274 70.217C239.489 70.5063 239.647 70.8143 239.75 71.141C239.853 71.4677 239.918 71.778 239.946 72.072C239.979 72.3613 239.995 72.597 239.995 72.779V77H238.287ZM233.044 77V66.92H234.549V72.226H234.752V77H233.044ZM244.657 77.217C244.097 77.217 243.635 77.1237 243.271 76.937C242.907 76.7503 242.617 76.5123 242.403 76.223C242.188 75.9337 242.029 75.6257 241.927 75.299C241.824 74.9723 241.756 74.6643 241.724 74.375C241.696 74.081 241.682 73.843 241.682 73.661V69.44H243.39V73.08C243.39 73.3133 243.406 73.577 243.439 73.871C243.471 74.1603 243.546 74.4403 243.663 74.711C243.784 74.977 243.961 75.1963 244.195 75.369C244.433 75.5417 244.752 75.628 245.154 75.628C245.368 75.628 245.581 75.593 245.791 75.523C246.001 75.453 246.19 75.334 246.358 75.166C246.53 74.9933 246.668 74.7577 246.771 74.459C246.873 74.1603 246.925 73.7823 246.925 73.325L247.926 73.752C247.926 74.396 247.8 74.9793 247.548 75.502C247.3 76.0247 246.934 76.4423 246.449 76.755C245.963 77.063 245.366 77.217 244.657 77.217ZM247.128 77V74.655H246.925V69.44H248.619V77H247.128ZM250.571 77L250.585 66.92H252.293V73.08L255.058 69.44H257.165L254.232 73.22L257.417 77H255.184L252.293 73.36V77H250.571ZM260.954 77.217C260.394 77.217 259.932 77.1237 259.568 76.937C259.204 76.7503 258.914 76.5123 258.7 76.223C258.485 75.9337 258.326 75.6257 258.224 75.299C258.121 74.9723 258.053 74.6643 258.021 74.375C257.993 74.081 257.979 73.843 257.979 73.661V69.44H259.687V73.08C259.687 73.3133 259.703 73.577 259.736 73.871C259.768 74.1603 259.843 74.4403 259.96 74.711C260.081 74.977 260.258 75.1963 260.492 75.369C260.73 75.5417 261.049 75.628 261.451 75.628C261.665 75.628 261.878 75.593 262.088 75.523C262.298 75.453 262.487 75.334 262.655 75.166C262.827 74.9933 262.965 74.7577 263.068 74.459C263.17 74.1603 263.222 73.7823 263.222 73.325L264.223 73.752C264.223 74.396 264.097 74.9793 263.845 75.502C263.597 76.0247 263.231 76.4423 262.746 76.755C262.26 77.063 261.663 77.217 260.954 77.217ZM263.425 77V74.655H263.222V69.44H264.916V77H263.425ZM278.764 77V72.408C278.764 71.89 278.636 71.4863 278.379 71.197C278.122 70.903 277.775 70.756 277.336 70.756C277.065 70.756 276.823 70.819 276.608 70.945C276.393 71.0663 276.223 71.2483 276.097 71.491C275.971 71.729 275.908 72.0137 275.908 72.345L275.159 71.904C275.154 71.3813 275.271 70.9217 275.509 70.525C275.752 70.1237 276.078 69.811 276.489 69.587C276.9 69.363 277.357 69.251 277.861 69.251C278.696 69.251 279.336 69.503 279.779 70.007C280.227 70.5063 280.451 71.1643 280.451 71.981V77H278.764ZM269.671 77V69.44H271.162V71.785H271.372V77H269.671ZM274.228 77V72.429C274.228 71.9017 274.1 71.491 273.843 71.197C273.586 70.903 273.236 70.756 272.793 70.756C272.364 70.756 272.018 70.903 271.757 71.197C271.5 71.491 271.372 71.8737 271.372 72.345L270.616 71.841C270.616 71.351 270.737 70.91 270.98 70.518C271.223 70.126 271.549 69.818 271.96 69.594C272.375 69.3653 272.84 69.251 273.353 69.251C273.918 69.251 274.389 69.3723 274.767 69.615C275.15 69.853 275.434 70.1797 275.621 70.595C275.812 71.0057 275.908 71.47 275.908 71.988V77H274.228ZM285.112 77.217C284.552 77.217 284.09 77.1237 283.726 76.937C283.362 76.7503 283.073 76.5123 282.858 76.223C282.643 75.9337 282.485 75.6257 282.382 75.299C282.279 74.9723 282.212 74.6643 282.179 74.375C282.151 74.081 282.137 73.843 282.137 73.661V69.44H283.845V73.08C283.845 73.3133 283.861 73.577 283.894 73.871C283.927 74.1603 284.001 74.4403 284.118 74.711C284.239 74.977 284.417 75.1963 284.65 75.369C284.888 75.5417 285.208 75.628 285.609 75.628C285.824 75.628 286.036 75.593 286.246 75.523C286.456 75.453 286.645 75.334 286.813 75.166C286.986 74.9933 287.123 74.7577 287.226 74.459C287.329 74.1603 287.38 73.7823 287.38 73.325L288.381 73.752C288.381 74.396 288.255 74.9793 288.003 75.502C287.756 76.0247 287.389 76.4423 286.904 76.755C286.419 77.063 285.821 77.217 285.112 77.217ZM287.583 77V74.655H287.38V69.44H289.074V77H287.583ZM296.27 77V73.36C296.27 73.122 296.253 72.8583 296.221 72.569C296.188 72.2797 296.111 72.002 295.99 71.736C295.873 71.4653 295.696 71.2437 295.458 71.071C295.224 70.8983 294.907 70.812 294.506 70.812C294.291 70.812 294.079 70.847 293.869 70.917C293.659 70.987 293.467 71.1083 293.295 71.281C293.127 71.449 292.991 71.6823 292.889 71.981C292.786 72.275 292.735 72.653 292.735 73.115L291.734 72.688C291.734 72.044 291.857 71.4607 292.105 70.938C292.357 70.4153 292.725 70 293.211 69.692C293.696 69.3793 294.293 69.223 295.003 69.223C295.563 69.223 296.025 69.3163 296.389 69.503C296.753 69.6897 297.042 69.9277 297.257 70.217C297.471 70.5063 297.63 70.8143 297.733 71.141C297.835 71.4677 297.901 71.778 297.929 72.072C297.961 72.3613 297.978 72.597 297.978 72.779V77H296.27ZM291.027 77V69.44H292.532V71.785H292.735V77H291.027ZM301.918 77.21C301.372 77.21 300.91 77.1073 300.532 76.902C300.154 76.692 299.867 76.4143 299.671 76.069C299.48 75.7237 299.384 75.3433 299.384 74.928C299.384 74.564 299.445 74.2373 299.566 73.948C299.688 73.654 299.874 73.402 300.126 73.192C300.378 72.9773 300.705 72.8023 301.106 72.667C301.41 72.569 301.764 72.4803 302.17 72.401C302.581 72.3217 303.024 72.2493 303.5 72.184C303.981 72.114 304.483 72.0393 305.005 71.96L304.403 72.303C304.408 71.7803 304.291 71.3953 304.053 71.148C303.815 70.9007 303.414 70.777 302.849 70.777C302.509 70.777 302.18 70.8563 301.862 71.015C301.545 71.1737 301.323 71.4467 301.197 71.834L299.657 71.351C299.844 70.7117 300.199 70.1983 300.721 69.811C301.249 69.4237 301.958 69.23 302.849 69.23C303.521 69.23 304.112 69.3397 304.62 69.559C305.134 69.7783 305.514 70.1377 305.761 70.637C305.897 70.903 305.978 71.176 306.006 71.456C306.034 71.7313 306.048 72.0323 306.048 72.359V77H304.571V75.362L304.816 75.628C304.476 76.174 304.077 76.5753 303.619 76.832C303.167 77.084 302.6 77.21 301.918 77.21ZM302.254 75.866C302.637 75.866 302.964 75.7983 303.234 75.663C303.505 75.5277 303.72 75.362 303.878 75.166C304.042 74.97 304.151 74.7857 304.207 74.613C304.296 74.3983 304.345 74.1533 304.354 73.878C304.368 73.598 304.375 73.3717 304.375 73.199L304.893 73.353C304.385 73.4323 303.948 73.5023 303.584 73.563C303.22 73.6237 302.908 73.682 302.646 73.738C302.385 73.7893 302.154 73.8477 301.953 73.913C301.757 73.983 301.592 74.0647 301.456 74.158C301.321 74.2513 301.216 74.3587 301.141 74.48C301.071 74.6013 301.036 74.7437 301.036 74.907C301.036 75.0937 301.083 75.2593 301.176 75.404C301.27 75.544 301.405 75.656 301.582 75.74C301.764 75.824 301.988 75.866 302.254 75.866ZM310.902 77.21C310.206 77.21 309.6 77.035 309.082 76.685C308.564 76.335 308.162 75.859 307.878 75.257C307.593 74.655 307.451 73.976 307.451 73.22C307.451 72.4547 307.593 71.7733 307.878 71.176C308.167 70.574 308.575 70.1003 309.103 69.755C309.63 69.405 310.251 69.23 310.965 69.23C311.683 69.23 312.285 69.405 312.771 69.755C313.261 70.1003 313.632 70.574 313.884 71.176C314.136 71.778 314.262 72.4593 314.262 73.22C314.262 73.9713 314.136 74.6503 313.884 75.257C313.632 75.859 313.256 76.335 312.757 76.685C312.257 77.035 311.639 77.21 310.902 77.21ZM311.161 75.698C311.613 75.698 311.977 75.5953 312.253 75.39C312.533 75.18 312.736 74.8883 312.862 74.515C312.992 74.1417 313.058 73.71 313.058 73.22C313.058 72.7253 312.992 72.2937 312.862 71.925C312.736 71.5517 312.537 71.2623 312.267 71.057C311.996 70.847 311.646 70.742 311.217 70.742C310.764 70.742 310.391 70.854 310.097 71.078C309.803 71.2973 309.586 71.596 309.446 71.974C309.306 72.3473 309.236 72.7627 309.236 73.22C309.236 73.682 309.303 74.102 309.439 74.48C309.579 74.8533 309.791 75.1497 310.076 75.369C310.36 75.5883 310.722 75.698 311.161 75.698ZM313.058 77V71.694H312.848V66.92H314.549V77H313.058ZM316.651 68.292V66.745H318.338V68.292H316.651ZM316.651 77V69.44H318.338V77H316.651ZM326.577 77.21C325.821 77.21 325.16 77.0397 324.596 76.699C324.031 76.3583 323.592 75.8893 323.28 75.292C322.972 74.69 322.818 73.9993 322.818 73.22C322.818 72.4267 322.976 71.7313 323.294 71.134C323.611 70.5367 324.052 70.07 324.617 69.734C325.181 69.398 325.835 69.23 326.577 69.23C327.337 69.23 328 69.4003 328.565 69.741C329.129 70.0817 329.568 70.553 329.881 71.155C330.193 71.7523 330.35 72.4407 330.35 73.22C330.35 74.004 330.191 74.697 329.874 75.299C329.561 75.8963 329.122 76.3653 328.558 76.706C327.993 77.042 327.333 77.21 326.577 77.21ZM326.577 75.628C327.249 75.628 327.748 75.404 328.075 74.956C328.401 74.508 328.565 73.9293 328.565 73.22C328.565 72.4873 328.399 71.904 328.068 71.47C327.736 71.0313 327.239 70.812 326.577 70.812C326.124 70.812 325.751 70.9147 325.457 71.12C325.167 71.3207 324.953 71.603 324.813 71.967C324.673 72.3263 324.603 72.744 324.603 73.22C324.603 73.9527 324.768 74.5383 325.1 74.977C325.436 75.411 325.928 75.628 326.577 75.628ZM331.892 77V69.44H333.383V71.281L333.201 71.043C333.294 70.791 333.418 70.5623 333.572 70.357C333.731 70.147 333.92 69.9743 334.139 69.839C334.326 69.713 334.531 69.615 334.755 69.545C334.984 69.4703 335.217 69.426 335.455 69.412C335.693 69.3933 335.924 69.4027 336.148 69.44V71.015C335.924 70.9497 335.665 70.9287 335.371 70.952C335.082 70.9753 334.82 71.057 334.587 71.197C334.354 71.323 334.162 71.484 334.013 71.68C333.868 71.876 333.761 72.1 333.691 72.352C333.621 72.5993 333.586 72.8677 333.586 73.157V77H331.892ZM340.319 77.217C339.759 77.217 339.297 77.1237 338.933 76.937C338.569 76.7503 338.28 76.5123 338.065 76.223C337.85 75.9337 337.692 75.6257 337.589 75.299C337.486 74.9723 337.419 74.6643 337.386 74.375C337.358 74.081 337.344 73.843 337.344 73.661V69.44H339.052V73.08C339.052 73.3133 339.068 73.577 339.101 73.871C339.134 74.1603 339.208 74.4403 339.325 74.711C339.446 74.977 339.624 75.1963 339.857 75.369C340.095 75.5417 340.415 75.628 340.816 75.628C341.031 75.628 341.243 75.593 341.453 75.523C341.663 75.453 341.852 75.334 342.02 75.166C342.193 74.9933 342.33 74.7577 342.433 74.459C342.536 74.1603 342.587 73.7823 342.587 73.325L343.588 73.752C343.588 74.396 343.462 74.9793 343.21 75.502C342.963 76.0247 342.596 76.4423 342.111 76.755C341.626 77.063 341.028 77.217 340.319 77.217ZM342.79 77V74.655H342.587V69.44H344.281V77H342.79ZM189.911 96C189.412 96.0933 188.922 96.133 188.441 96.119C187.965 96.1097 187.538 96.0233 187.16 95.86C186.782 95.692 186.495 95.4283 186.299 95.069C186.126 94.7423 186.035 94.4087 186.026 94.068C186.017 93.7273 186.012 93.3423 186.012 92.913V86.34H187.692V92.815C187.692 93.1183 187.694 93.3843 187.699 93.613C187.708 93.8417 187.757 94.0283 187.846 94.173C188.014 94.453 188.282 94.6093 188.651 94.642C189.02 94.6747 189.44 94.656 189.911 94.586V96ZM184.64 89.763V88.44H189.911V89.763H184.64ZM191.677 87.292V85.745H193.364V87.292H191.677ZM191.677 96V88.44H193.364V96H191.677ZM204.539 96V91.408C204.539 90.89 204.411 90.4863 204.154 90.197C203.898 89.903 203.55 89.756 203.111 89.756C202.841 89.756 202.598 89.819 202.383 89.945C202.169 90.0663 201.998 90.2483 201.872 90.491C201.746 90.729 201.683 91.0137 201.683 91.345L200.934 90.904C200.93 90.3813 201.046 89.9217 201.284 89.525C201.527 89.1237 201.854 88.811 202.264 88.587C202.675 88.363 203.132 88.251 203.636 88.251C204.472 88.251 205.111 88.503 205.554 89.007C206.002 89.5063 206.226 90.1643 206.226 90.981V96H204.539ZM195.446 96V88.44H196.937V90.785H197.147V96H195.446ZM200.003 96V91.429C200.003 90.9017 199.875 90.491 199.618 90.197C199.362 89.903 199.012 89.756 198.568 89.756C198.139 89.756 197.794 89.903 197.532 90.197C197.276 90.491 197.147 90.8737 197.147 91.345L196.391 90.841C196.391 90.351 196.513 89.91 196.755 89.518C196.998 89.126 197.325 88.818 197.735 88.594C198.151 88.3653 198.615 88.251 199.128 88.251C199.693 88.251 200.164 88.3723 200.542 88.615C200.925 88.853 201.21 89.1797 201.396 89.595C201.588 90.0057 201.683 90.47 201.683 90.988V96H200.003ZM211.366 96.21C210.601 96.21 209.929 96.0443 209.35 95.713C208.772 95.3817 208.319 94.922 207.992 94.334C207.67 93.746 207.509 93.0693 207.509 92.304C207.509 91.478 207.668 90.7617 207.985 90.155C208.303 89.5437 208.744 89.07 209.308 88.734C209.873 88.398 210.526 88.23 211.268 88.23C212.052 88.23 212.717 88.4143 213.263 88.783C213.814 89.147 214.222 89.6627 214.488 90.33C214.754 90.9973 214.855 91.7837 214.789 92.689H213.116V92.073C213.112 91.2517 212.967 90.652 212.682 90.274C212.398 89.896 211.95 89.707 211.338 89.707C210.648 89.707 210.134 89.9217 209.798 90.351C209.462 90.7757 209.294 91.3987 209.294 92.22C209.294 92.9853 209.462 93.578 209.798 93.998C210.134 94.418 210.624 94.628 211.268 94.628C211.684 94.628 212.041 94.537 212.339 94.355C212.643 94.1683 212.876 93.9 213.039 93.55L214.705 94.054C214.416 94.7353 213.968 95.265 213.361 95.643C212.759 96.021 212.094 96.21 211.366 96.21ZM208.762 92.689V91.415H213.963V92.689H208.762ZM222.591 96.21C221.825 96.21 221.153 96.0443 220.575 95.713C219.996 95.3817 219.543 94.922 219.217 94.334C218.895 93.746 218.734 93.0693 218.734 92.304C218.734 91.478 218.892 90.7617 219.21 90.155C219.527 89.5437 219.968 89.07 220.533 88.734C221.097 88.398 221.751 88.23 222.493 88.23C223.277 88.23 223.942 88.4143 224.488 88.783C225.038 89.147 225.447 89.6627 225.713 90.33C225.979 90.9973 226.079 91.7837 226.014 92.689H224.341V92.073C224.336 91.2517 224.191 90.652 223.907 90.274C223.622 89.896 223.174 89.707 222.563 89.707C221.872 89.707 221.359 89.9217 221.023 90.351C220.687 90.7757 220.519 91.3987 220.519 92.22C220.519 92.9853 220.687 93.578 221.023 93.998C221.359 94.418 221.849 94.628 222.493 94.628C222.908 94.628 223.265 94.537 223.564 94.355C223.867 94.1683 224.1 93.9 224.264 93.55L225.93 94.054C225.64 94.7353 225.192 95.265 224.586 95.643C223.984 96.021 223.319 96.21 222.591 96.21ZM219.987 92.689V91.415H225.188V92.689H219.987ZM226.462 96L229.227 92.178L226.518 88.44H228.506L230.207 90.855L231.88 88.44H233.868L231.159 92.178L233.938 96H231.95L230.207 93.501L228.45 96H226.462ZM238.218 96.21C237.452 96.21 236.78 96.0443 236.202 95.713C235.623 95.3817 235.17 94.922 234.844 94.334C234.522 93.746 234.361 93.0693 234.361 92.304C234.361 91.478 234.519 90.7617 234.837 90.155C235.154 89.5437 235.595 89.07 236.16 88.734C236.724 88.398 237.378 88.23 238.12 88.23C238.904 88.23 239.569 88.4143 240.115 88.783C240.665 89.147 241.074 89.6627 241.34 90.33C241.606 90.9973 241.706 91.7837 241.641 92.689H239.968V92.073C239.963 91.2517 239.818 90.652 239.534 90.274C239.249 89.896 238.801 89.707 238.19 89.707C237.499 89.707 236.986 89.9217 236.65 90.351C236.314 90.7757 236.146 91.3987 236.146 92.22C236.146 92.9853 236.314 93.578 236.65 93.998C236.986 94.418 237.476 94.628 238.12 94.628C238.535 94.628 238.892 94.537 239.191 94.355C239.494 94.1683 239.727 93.9 239.891 93.55L241.557 94.054C241.267 94.7353 240.819 95.265 240.213 95.643C239.611 96.021 238.946 96.21 238.218 96.21ZM235.614 92.689V91.415H240.815V92.689H235.614ZM246.486 96.21C245.706 96.21 245.041 96.0373 244.491 95.692C243.94 95.342 243.518 94.866 243.224 94.264C242.934 93.662 242.787 92.9807 242.783 92.22C242.787 91.4453 242.939 90.7593 243.238 90.162C243.541 89.56 243.97 89.0887 244.526 88.748C245.081 88.4027 245.741 88.23 246.507 88.23C247.365 88.23 248.091 88.447 248.684 88.881C249.281 89.3103 249.671 89.8983 249.853 90.645L248.173 91.1C248.042 90.694 247.825 90.379 247.522 90.155C247.218 89.9263 246.873 89.812 246.486 89.812C246.047 89.812 245.685 89.917 245.401 90.127C245.116 90.3323 244.906 90.617 244.771 90.981C244.635 91.345 244.568 91.758 244.568 92.22C244.568 92.9387 244.729 93.5197 245.051 93.963C245.373 94.4063 245.851 94.628 246.486 94.628C246.934 94.628 247.286 94.5253 247.543 94.32C247.804 94.1147 248 93.8183 248.131 93.431L249.853 93.816C249.619 94.586 249.211 95.1787 248.628 95.594C248.044 96.0047 247.33 96.21 246.486 96.21ZM254.09 96.217C253.53 96.217 253.068 96.1237 252.704 95.937C252.34 95.7503 252.051 95.5123 251.836 95.223C251.622 94.9337 251.463 94.6257 251.36 94.299C251.258 93.9723 251.19 93.6643 251.157 93.375C251.129 93.081 251.115 92.843 251.115 92.661V88.44H252.823V92.08C252.823 92.3133 252.84 92.577 252.872 92.871C252.905 93.1603 252.98 93.4403 253.096 93.711C253.218 93.977 253.395 94.1963 253.628 94.369C253.866 94.5417 254.186 94.628 254.587 94.628C254.802 94.628 255.014 94.593 255.224 94.523C255.434 94.453 255.623 94.334 255.791 94.166C255.964 93.9933 256.102 93.7577 256.204 93.459C256.307 93.1603 256.358 92.7823 256.358 92.325L257.359 92.752C257.359 93.396 257.233 93.9793 256.981 94.502C256.734 95.0247 256.368 95.4423 255.882 95.755C255.397 96.063 254.8 96.217 254.09 96.217ZM256.561 96V93.655H256.358V88.44H258.052V96H256.561ZM264.45 96C263.951 96.0933 263.461 96.133 262.98 96.119C262.504 96.1097 262.077 96.0233 261.699 95.86C261.321 95.692 261.034 95.4283 260.838 95.069C260.665 94.7423 260.574 94.4087 260.565 94.068C260.556 93.7273 260.551 93.3423 260.551 92.913V86.34H262.231V92.815C262.231 93.1183 262.233 93.3843 262.238 93.613C262.247 93.8417 262.296 94.0283 262.385 94.173C262.553 94.453 262.821 94.6093 263.19 94.642C263.559 94.6747 263.979 94.656 264.45 94.586V96ZM259.179 89.763V88.44H264.45V89.763H259.179ZM269.13 96.21C268.365 96.21 267.693 96.0443 267.114 95.713C266.535 95.3817 266.083 94.922 265.756 94.334C265.434 93.746 265.273 93.0693 265.273 92.304C265.273 91.478 265.432 90.7617 265.749 90.155C266.066 89.5437 266.507 89.07 267.072 88.734C267.637 88.398 268.29 88.23 269.032 88.23C269.816 88.23 270.481 88.4143 271.027 88.783C271.578 89.147 271.986 89.6627 272.252 90.33C272.518 90.9973 272.618 91.7837 272.553 92.689H270.88V92.073C270.875 91.2517 270.731 90.652 270.446 90.274C270.161 89.896 269.713 89.707 269.102 89.707C268.411 89.707 267.898 89.9217 267.562 90.351C267.226 90.7757 267.058 91.3987 267.058 92.22C267.058 92.9853 267.226 93.578 267.562 93.998C267.898 94.418 268.388 94.628 269.032 94.628C269.447 94.628 269.804 94.537 270.103 94.355C270.406 94.1683 270.64 93.9 270.803 93.55L272.469 94.054C272.18 94.7353 271.732 95.265 271.125 95.643C270.523 96.021 269.858 96.21 269.13 96.21ZM266.526 92.689V91.415H271.727V92.689H266.526ZM280.551 96.21C279.813 96.21 279.195 96.035 278.696 95.685C278.196 95.335 277.821 94.859 277.569 94.257C277.317 93.6503 277.191 92.9713 277.191 92.22C277.191 91.4593 277.317 90.778 277.569 90.176C277.821 89.574 278.189 89.1003 278.675 88.755C279.165 88.405 279.769 88.23 280.488 88.23C281.202 88.23 281.82 88.405 282.343 88.755C282.87 89.1003 283.278 89.574 283.568 90.176C283.857 90.7733 284.002 91.4547 284.002 92.22C284.002 92.976 283.859 93.655 283.575 94.257C283.29 94.859 282.889 95.335 282.371 95.685C281.853 96.035 281.246 96.21 280.551 96.21ZM276.904 99.36V88.44H278.395V93.746H278.605V99.36H276.904ZM280.292 94.698C280.73 94.698 281.092 94.5883 281.377 94.369C281.661 94.1497 281.871 93.8533 282.007 93.48C282.147 93.102 282.217 92.682 282.217 92.22C282.217 91.7627 282.147 91.3473 282.007 90.974C281.867 90.596 281.65 90.2973 281.356 90.078C281.062 89.854 280.688 89.742 280.236 89.742C279.806 89.742 279.456 89.847 279.186 90.057C278.915 90.2623 278.714 90.5517 278.584 90.925C278.458 91.2937 278.395 91.7253 278.395 92.22C278.395 92.71 278.458 93.1417 278.584 93.515C278.714 93.8883 278.917 94.18 279.193 94.39C279.473 94.5953 279.839 94.698 280.292 94.698ZM287.658 96.21C287.112 96.21 286.65 96.1073 286.272 95.902C285.894 95.692 285.607 95.4143 285.411 95.069C285.22 94.7237 285.124 94.3433 285.124 93.928C285.124 93.564 285.185 93.2373 285.306 92.948C285.428 92.654 285.614 92.402 285.866 92.192C286.118 91.9773 286.445 91.8023 286.846 91.667C287.15 91.569 287.504 91.4803 287.91 91.401C288.321 91.3217 288.764 91.2493 289.24 91.184C289.721 91.114 290.223 91.0393 290.745 90.96L290.143 91.303C290.148 90.7803 290.031 90.3953 289.793 90.148C289.555 89.9007 289.154 89.777 288.589 89.777C288.249 89.777 287.92 89.8563 287.602 90.015C287.285 90.1737 287.063 90.4467 286.937 90.834L285.397 90.351C285.584 89.7117 285.939 89.1983 286.461 88.811C286.989 88.4237 287.698 88.23 288.589 88.23C289.261 88.23 289.852 88.3397 290.36 88.559C290.874 88.7783 291.254 89.1377 291.501 89.637C291.637 89.903 291.718 90.176 291.746 90.456C291.774 90.7313 291.788 91.0323 291.788 91.359V96H290.311V94.362L290.556 94.628C290.216 95.174 289.817 95.5753 289.359 95.832C288.907 96.084 288.34 96.21 287.658 96.21ZM287.994 94.866C288.377 94.866 288.704 94.7983 288.974 94.663C289.245 94.5277 289.46 94.362 289.618 94.166C289.782 93.97 289.891 93.7857 289.947 93.613C290.036 93.3983 290.085 93.1533 290.094 92.878C290.108 92.598 290.115 92.3717 290.115 92.199L290.633 92.353C290.125 92.4323 289.688 92.5023 289.324 92.563C288.96 92.6237 288.648 92.682 288.386 92.738C288.125 92.7893 287.894 92.8477 287.693 92.913C287.497 92.983 287.332 93.0647 287.196 93.158C287.061 93.2513 286.956 93.3587 286.881 93.48C286.811 93.6013 286.776 93.7437 286.776 93.907C286.776 94.0937 286.823 94.2593 286.916 94.404C287.01 94.544 287.145 94.656 287.322 94.74C287.504 94.824 287.728 94.866 287.994 94.866ZM298.84 96V92.36C298.84 92.122 298.824 91.8583 298.791 91.569C298.758 91.2797 298.681 91.002 298.56 90.736C298.443 90.4653 298.266 90.2437 298.028 90.071C297.795 89.8983 297.477 89.812 297.076 89.812C296.861 89.812 296.649 89.847 296.439 89.917C296.229 89.987 296.038 90.1083 295.865 90.281C295.697 90.449 295.562 90.6823 295.459 90.981C295.356 91.275 295.305 91.653 295.305 92.115L294.304 91.688C294.304 91.044 294.428 90.4607 294.675 89.938C294.927 89.4153 295.296 89 295.781 88.692C296.266 88.3793 296.864 88.223 297.573 88.223C298.133 88.223 298.595 88.3163 298.959 88.503C299.323 88.6897 299.612 88.9277 299.827 89.217C300.042 89.5063 300.2 89.8143 300.303 90.141C300.406 90.4677 300.471 90.778 300.499 91.072C300.532 91.3613 300.548 91.597 300.548 91.779V96H298.84ZM293.597 96V88.44H295.102V90.785H295.305V96H293.597ZM305.21 96.217C304.65 96.217 304.188 96.1237 303.824 95.937C303.46 95.7503 303.17 95.5123 302.956 95.223C302.741 94.9337 302.582 94.6257 302.48 94.299C302.377 93.9723 302.309 93.6643 302.277 93.375C302.249 93.081 302.235 92.843 302.235 92.661V88.44H303.943V92.08C303.943 92.3133 303.959 92.577 303.992 92.871C304.024 93.1603 304.099 93.4403 304.216 93.711C304.337 93.977 304.514 94.1963 304.748 94.369C304.986 94.5417 305.305 94.628 305.707 94.628C305.921 94.628 306.134 94.593 306.344 94.523C306.554 94.453 306.743 94.334 306.911 94.166C307.083 93.9933 307.221 93.7577 307.324 93.459C307.426 93.1603 307.478 92.7823 307.478 92.325L308.479 92.752C308.479 93.396 308.353 93.9793 308.101 94.502C307.853 95.0247 307.487 95.4423 307.002 95.755C306.516 96.063 305.919 96.217 305.21 96.217ZM307.681 96V93.655H307.478V88.44H309.172V96H307.681ZM320.217 96V91.408C320.217 90.89 320.089 90.4863 319.832 90.197C319.576 89.903 319.228 89.756 318.789 89.756C318.519 89.756 318.276 89.819 318.061 89.945C317.847 90.0663 317.676 90.2483 317.55 90.491C317.424 90.729 317.361 91.0137 317.361 91.345L316.612 90.904C316.608 90.3813 316.724 89.9217 316.962 89.525C317.205 89.1237 317.532 88.811 317.942 88.587C318.353 88.363 318.81 88.251 319.314 88.251C320.15 88.251 320.789 88.503 321.232 89.007C321.68 89.5063 321.904 90.1643 321.904 90.981V96H320.217ZM311.124 96V88.44H312.615V90.785H312.825V96H311.124ZM315.681 96V91.429C315.681 90.9017 315.553 90.491 315.296 90.197C315.04 89.903 314.69 89.756 314.246 89.756C313.817 89.756 313.472 89.903 313.21 90.197C312.954 90.491 312.825 90.8737 312.825 91.345L312.069 90.841C312.069 90.351 312.191 89.91 312.433 89.518C312.676 89.126 313.003 88.818 313.413 88.594C313.829 88.3653 314.293 88.251 314.806 88.251C315.371 88.251 315.842 88.3723 316.22 88.615C316.603 88.853 316.888 89.1797 317.074 89.595C317.266 90.0057 317.361 90.47 317.361 90.988V96H315.681Z" fill="#787DF7"/>
<path d="M82 66C81.4477 66 81 66.4477 81 67C81 67.5523 81.4477 68 82 68V66ZM172.707 67.7071C173.098 67.3166 173.098 66.6834 172.707 66.2929L166.343 59.9289C165.953 59.5384 165.319 59.5384 164.929 59.9289C164.538 60.3195 164.538 60.9526 164.929 61.3431L170.586 67L164.929 72.6569C164.538 73.0474 164.538 73.6805 164.929 74.0711C165.319 74.4616 165.953 74.4616 166.343 74.0711L172.707 67.7071ZM82 68H172V66H82V68Z" fill="#787DF7"/>
<rect x="38.5" y="172" width="275" height="79" rx="7" fill="#282525" stroke="#777777" stroke-width="2"/>
<path d="M62.806 203.21C61.798 203.21 60.9277 202.991 60.195 202.552C59.467 202.113 58.9047 201.5 58.508 200.711C58.116 199.922 57.92 199.005 57.92 197.96C57.92 196.915 58.116 195.998 58.508 195.209C58.9047 194.42 59.467 193.807 60.195 193.368C60.9277 192.929 61.798 192.71 62.806 192.71C63.9633 192.71 64.934 192.997 65.718 193.571C66.5067 194.145 67.062 194.922 67.384 195.902L65.466 196.434C65.2793 195.823 64.9643 195.349 64.521 195.013C64.0777 194.672 63.506 194.502 62.806 194.502C62.1667 194.502 61.6323 194.644 61.203 194.929C60.7783 195.214 60.4587 195.615 60.244 196.133C60.0293 196.651 59.922 197.26 59.922 197.96C59.922 198.66 60.0293 199.269 60.244 199.787C60.4587 200.305 60.7783 200.706 61.203 200.991C61.6323 201.276 62.1667 201.418 62.806 201.418C63.506 201.418 64.0777 201.248 64.521 200.907C64.9643 200.566 65.2793 200.093 65.466 199.486L67.384 200.018C67.062 200.998 66.5067 201.775 65.718 202.349C64.934 202.923 63.9633 203.21 62.806 203.21ZM72.3273 203.21C71.5666 203.21 70.8993 203.04 70.3253 202.699C69.7513 202.358 69.3033 201.889 68.9813 201.292C68.664 200.69 68.5053 199.999 68.5053 199.22C68.5053 198.431 68.6686 197.738 68.9953 197.141C69.322 196.539 69.7723 196.07 70.3463 195.734C70.9203 195.398 71.5806 195.23 72.3273 195.23C73.088 195.23 73.7553 195.4 74.3293 195.741C74.908 196.082 75.3583 196.553 75.6803 197.155C76.0023 197.752 76.1633 198.441 76.1633 199.22C76.1633 200.004 76 200.697 75.6733 201.299C75.3513 201.896 74.901 202.365 74.3223 202.706C73.7483 203.042 73.0833 203.21 72.3273 203.21ZM72.3273 201.432C72.9386 201.432 73.3936 201.227 73.6923 200.816C73.9956 200.401 74.1473 199.869 74.1473 199.22C74.1473 198.548 73.9933 198.011 73.6853 197.61C73.382 197.209 72.9293 197.008 72.3273 197.008C71.912 197.008 71.5713 197.101 71.3053 197.288C71.0393 197.475 70.841 197.734 70.7103 198.065C70.5843 198.396 70.5213 198.781 70.5213 199.22C70.5213 199.897 70.673 200.436 70.9763 200.837C71.2843 201.234 71.7346 201.432 72.3273 201.432ZM82.8547 203V199.43C82.8547 199.257 82.8453 199.038 82.8267 198.772C82.808 198.501 82.7497 198.231 82.6517 197.96C82.5537 197.689 82.3927 197.463 82.1687 197.281C81.9493 197.099 81.6367 197.008 81.2307 197.008C81.0673 197.008 80.8923 197.034 80.7057 197.085C80.519 197.136 80.344 197.237 80.1807 197.386C80.0173 197.531 79.882 197.745 79.7747 198.03C79.672 198.315 79.6207 198.693 79.6207 199.164L78.5287 198.646C78.5287 198.049 78.65 197.489 78.8927 196.966C79.1353 196.443 79.4993 196.021 79.9847 195.699C80.4747 195.377 81.0907 195.216 81.8327 195.216C82.4253 195.216 82.9083 195.316 83.2817 195.517C83.655 195.718 83.9443 195.972 84.1497 196.28C84.3597 196.588 84.509 196.91 84.5977 197.246C84.6863 197.577 84.74 197.881 84.7587 198.156C84.7773 198.431 84.7867 198.632 84.7867 198.758V203H82.8547ZM77.6887 203V195.44H79.3827V197.946H79.6207V203H77.6887ZM89.557 203.21C88.605 203.21 87.835 202.995 87.247 202.566C86.6637 202.132 86.309 201.521 86.183 200.732L88.129 200.438C88.2084 200.793 88.3834 201.07 88.654 201.271C88.9294 201.472 89.277 201.572 89.697 201.572C90.0424 201.572 90.3084 201.507 90.495 201.376C90.6817 201.241 90.775 201.054 90.775 200.816C90.775 200.667 90.7377 200.548 90.663 200.459C90.5884 200.366 90.4204 200.275 90.159 200.186C89.9024 200.097 89.501 199.981 88.955 199.836C88.339 199.677 87.8467 199.5 87.478 199.304C87.1094 199.108 86.8434 198.875 86.68 198.604C86.5167 198.329 86.435 197.997 86.435 197.61C86.435 197.125 86.5587 196.705 86.806 196.35C87.0534 195.991 87.401 195.715 87.849 195.524C88.3017 195.328 88.8337 195.23 89.445 195.23C90.0377 195.23 90.5627 195.321 91.02 195.503C91.4774 195.685 91.846 195.944 92.126 196.28C92.4107 196.616 92.5857 197.013 92.651 197.47L90.705 197.82C90.6724 197.54 90.551 197.318 90.341 197.155C90.131 196.992 89.8464 196.896 89.487 196.868C89.137 196.845 88.8547 196.891 88.64 197.008C88.43 197.125 88.325 197.293 88.325 197.512C88.325 197.643 88.3694 197.752 88.458 197.841C88.5514 197.93 88.7404 198.021 89.025 198.114C89.3144 198.207 89.753 198.329 90.341 198.478C90.915 198.627 91.3747 198.802 91.72 199.003C92.07 199.199 92.3244 199.437 92.483 199.717C92.6417 199.992 92.721 200.326 92.721 200.718C92.721 201.493 92.441 202.102 91.881 202.545C91.321 202.988 90.5464 203.21 89.557 203.21ZM97.6613 203.21C96.9006 203.21 96.2333 203.04 95.6593 202.699C95.0853 202.358 94.6373 201.889 94.3153 201.292C93.998 200.69 93.8393 199.999 93.8393 199.22C93.8393 198.431 94.0026 197.738 94.3293 197.141C94.656 196.539 95.1063 196.07 95.6803 195.734C96.2543 195.398 96.9146 195.23 97.6613 195.23C98.422 195.23 99.0893 195.4 99.6633 195.741C100.242 196.082 100.692 196.553 101.014 197.155C101.336 197.752 101.497 198.441 101.497 199.22C101.497 200.004 101.334 200.697 101.007 201.299C100.685 201.896 100.235 202.365 99.6563 202.706C99.0823 203.042 98.4173 203.21 97.6613 203.21ZM97.6613 201.432C98.2726 201.432 98.7276 201.227 99.0263 200.816C99.3296 200.401 99.4813 199.869 99.4813 199.22C99.4813 198.548 99.3273 198.011 99.0193 197.61C98.716 197.209 98.2633 197.008 97.6613 197.008C97.246 197.008 96.9053 197.101 96.6393 197.288C96.3733 197.475 96.175 197.734 96.0443 198.065C95.9183 198.396 95.8553 198.781 95.8553 199.22C95.8553 199.897 96.007 200.436 96.3103 200.837C96.6183 201.234 97.0686 201.432 97.6613 201.432ZM103.177 203V192.71H105.081V203H103.177ZM110.693 203.21C109.919 203.21 109.235 203.044 108.642 202.713C108.054 202.377 107.592 201.917 107.256 201.334C106.925 200.746 106.759 200.074 106.759 199.318C106.759 198.492 106.923 197.773 107.249 197.162C107.576 196.551 108.026 196.077 108.6 195.741C109.174 195.4 109.835 195.23 110.581 195.23C111.375 195.23 112.049 195.417 112.604 195.79C113.16 196.163 113.57 196.688 113.836 197.365C114.102 198.042 114.196 198.837 114.116 199.752H112.233V199.052C112.233 198.282 112.11 197.729 111.862 197.393C111.62 197.052 111.221 196.882 110.665 196.882C110.017 196.882 109.538 197.08 109.23 197.477C108.927 197.869 108.775 198.45 108.775 199.22C108.775 199.925 108.927 200.471 109.23 200.858C109.538 201.241 109.989 201.432 110.581 201.432C110.955 201.432 111.274 201.35 111.54 201.187C111.806 201.024 112.009 200.788 112.149 200.48L114.053 201.026C113.769 201.717 113.318 202.253 112.702 202.636C112.091 203.019 111.421 203.21 110.693 203.21ZM108.187 199.752V198.338H113.199V199.752H108.187Z" fill="white"/>
<path d="M61.882 230.21C61.2287 230.21 60.6453 230.063 60.132 229.769C59.6233 229.47 59.2197 229.067 58.921 228.558C58.627 228.045 58.48 227.461 58.48 226.808V223.112C58.48 222.459 58.627 221.875 58.921 221.362C59.2197 220.849 59.6233 220.445 60.132 220.151C60.6453 219.857 61.2287 219.71 61.882 219.71C62.5353 219.71 63.1187 219.857 63.632 220.151C64.1453 220.445 64.549 220.849 64.843 221.362C65.137 221.875 65.284 222.459 65.284 223.112V226.808C65.284 227.461 65.137 228.045 64.843 228.558C64.549 229.067 64.1453 229.47 63.632 229.769C63.1187 230.063 62.5353 230.21 61.882 230.21ZM61.882 229.013C62.2787 229.013 62.638 228.917 62.96 228.726C63.282 228.535 63.5387 228.278 63.73 227.956C63.9213 227.629 64.017 227.27 64.017 226.878V223.035C64.017 222.638 63.9213 222.279 63.73 221.957C63.5387 221.635 63.282 221.378 62.96 221.187C62.638 220.996 62.2787 220.9 61.882 220.9C61.49 220.9 61.1307 220.996 60.804 221.187C60.482 221.378 60.2253 221.635 60.034 221.957C59.8427 222.279 59.747 222.638 59.747 223.035V226.878C59.747 227.27 59.8427 227.629 60.034 227.956C60.2253 228.278 60.482 228.535 60.804 228.726C61.1307 228.917 61.49 229.013 61.882 229.013ZM71.8034 230V221.299L69.9064 222.447V221.054L71.8034 219.92H73.0704V230H71.8034ZM78.2566 229.993L78.2636 228.873L82.7366 224.848C83.11 224.512 83.3596 224.195 83.4856 223.896C83.6163 223.593 83.6816 223.282 83.6816 222.965C83.6816 222.578 83.593 222.228 83.4156 221.915C83.2383 221.602 82.9956 221.355 82.6876 221.173C82.3843 220.991 82.039 220.9 81.6516 220.9C81.2503 220.9 80.8933 220.996 80.5806 221.187C80.268 221.374 80.0206 221.623 79.8386 221.936C79.6613 222.249 79.575 222.589 79.5796 222.958H78.3056C78.3056 222.323 78.4526 221.763 78.7466 221.278C79.0406 220.788 79.4396 220.405 79.9436 220.13C80.4523 219.85 81.0286 219.71 81.6726 219.71C82.298 219.71 82.858 219.855 83.3526 220.144C83.8473 220.429 84.237 220.818 84.5216 221.313C84.811 221.803 84.9556 222.358 84.9556 222.979C84.9556 223.418 84.8996 223.798 84.7876 224.12C84.6803 224.442 84.5123 224.741 84.2836 225.016C84.055 225.287 83.768 225.576 83.4226 225.884L79.7056 229.223L79.5446 228.803H84.9556V229.993H78.2566ZM92.1981 230.196C91.6988 230.196 91.2345 230.105 90.8051 229.923C90.3758 229.736 90.0048 229.475 89.6921 229.139C89.3841 228.798 89.1578 228.395 89.0131 227.928L90.2101 227.585C90.3641 228.052 90.6208 228.406 90.9801 228.649C91.3395 228.892 91.7431 229.011 92.1911 229.006C92.6018 228.997 92.9565 228.903 93.2551 228.726C93.5585 228.544 93.7918 228.297 93.9551 227.984C94.1231 227.671 94.2071 227.31 94.2071 226.899C94.2071 226.274 94.0205 225.767 93.6471 225.38C93.2738 224.988 92.7838 224.792 92.1771 224.792C92.0091 224.792 91.8318 224.815 91.6451 224.862C91.4631 224.909 91.2928 224.974 91.1341 225.058L90.5321 224.071L94.2701 220.69L94.4311 221.11H89.4121V219.92H95.3551V221.117L92.1701 224.169L92.1561 223.728C92.8235 223.681 93.4068 223.791 93.9061 224.057C94.4055 224.323 94.7928 224.703 95.0681 225.198C95.3481 225.693 95.4881 226.26 95.4881 226.899C95.4881 227.543 95.3435 228.112 95.0541 228.607C94.7648 229.102 94.3728 229.491 93.8781 229.776C93.3835 230.056 92.8235 230.196 92.1981 230.196ZM104.465 230V228.145H99.8309V226.962L103.156 219.92H104.57L101.245 226.962H104.465V224.127H105.725V226.962H106.775V228.145H105.725V230H104.465Z" fill="white"/>
<path d="M45.5 92.5C46.0523 92.5 46.5 92.0523 46.5 91.5C46.5 90.9477 46.0523 90.5 45.5 90.5V92.5ZM30.2071 210.207C30.5976 209.817 30.5976 209.183 30.2071 208.793L23.8431 202.429C23.4526 202.038 22.8195 202.038 22.4289 202.429C22.0384 202.819 22.0384 203.453 22.4289 203.843L28.0858 209.5L22.4289 215.157C22.0384 215.547 22.0384 216.181 22.4289 216.571C22.8195 216.962 23.4526 216.962 23.8431 216.571L30.2071 210.207ZM45.5 90.5H11V92.5H45.5V90.5ZM0 101.5V199.5H2V101.5H0ZM11 210.5H29.5V208.5H11V210.5ZM0 199.5C0 205.575 4.92487 210.5 11 210.5V208.5C6.02944 208.5 2 204.471 2 199.5H0ZM11 90.5C4.92487 90.5 0 95.4249 0 101.5H2C2 96.5294 6.02944 92.5 11 92.5V90.5Z" fill="white"/>
</svg>
