<svg width="327" height="268" viewBox="0 0 327 268" fill="none" xmlns="http://www.w3.org/2000/svg">
<path d="M31.11 56V48.468C31.11 48.2767 31.1147 48.0597 31.124 47.817C31.1333 47.5743 31.1707 47.3293 31.236 47.082C31.306 46.8347 31.432 46.6107 31.614 46.41C31.8473 46.1487 32.0993 45.9713 32.37 45.878C32.6453 45.78 32.9113 45.7287 33.168 45.724C33.4247 45.7147 33.644 45.71 33.826 45.71H34.764V47.25H33.896C33.5973 47.25 33.3757 47.327 33.231 47.481C33.0863 47.6303 33.014 47.81 33.014 48.02V56H31.11ZM29.92 49.91V48.44H34.764V49.91H29.92ZM38.6944 56.224C38.1017 56.224 37.6187 56.1237 37.2454 55.923C36.8721 55.7223 36.5804 55.468 36.3704 55.16C36.1651 54.852 36.0181 54.5323 35.9294 54.201C35.8407 53.865 35.7871 53.5593 35.7684 53.284C35.7497 53.0087 35.7404 52.808 35.7404 52.682V48.44H37.6724V52.01C37.6724 52.1827 37.6817 52.4043 37.7004 52.675C37.7191 52.941 37.7774 53.2093 37.8754 53.48C37.9734 53.7507 38.1321 53.977 38.3514 54.159C38.5754 54.341 38.8904 54.432 39.2964 54.432C39.4597 54.432 39.6347 54.4063 39.8214 54.355C40.0081 54.3037 40.1831 54.2057 40.3464 54.061C40.5097 53.9117 40.6427 53.6947 40.7454 53.41C40.8527 53.1207 40.9064 52.7427 40.9064 52.276L41.9984 52.794C41.9984 53.3913 41.8771 53.9513 41.6344 54.474C41.3917 54.9967 41.0254 55.419 40.5354 55.741C40.0501 56.063 39.4364 56.224 38.6944 56.224ZM41.1444 56V53.494H40.9064V48.44H42.8244V56H41.1444ZM49.9328 56V52.43C49.9328 52.2573 49.9234 52.038 49.9048 51.772C49.8861 51.5013 49.8278 51.2307 49.7298 50.96C49.6318 50.6893 49.4708 50.463 49.2468 50.281C49.0274 50.099 48.7148 50.008 48.3088 50.008C48.1454 50.008 47.9704 50.0337 47.7838 50.085C47.5971 50.1363 47.4221 50.2367 47.2588 50.386C47.0954 50.5307 46.9601 50.7453 46.8528 51.03C46.7501 51.3147 46.6988 51.6927 46.6988 52.164L45.6068 51.646C45.6068 51.0487 45.7281 50.4887 45.9708 49.966C46.2134 49.4433 46.5774 49.021 47.0628 48.699C47.5528 48.377 48.1688 48.216 48.9108 48.216C49.5034 48.216 49.9864 48.3163 50.3598 48.517C50.7331 48.7177 51.0224 48.972 51.2278 49.28C51.4378 49.588 51.5871 49.91 51.6758 50.246C51.7644 50.5773 51.8181 50.8807 51.8368 51.156C51.8554 51.4313 51.8648 51.632 51.8648 51.758V56H49.9328ZM44.7668 56V48.44H46.4608V50.946H46.6988V56H44.7668ZM56.8765 56.21C56.0925 56.21 55.4205 56.035 54.8605 55.685C54.3005 55.335 53.8711 54.859 53.5725 54.257C53.2738 53.655 53.1245 52.976 53.1245 52.22C53.1245 51.4547 53.2785 50.771 53.5865 50.169C53.8991 49.567 54.3378 49.0933 54.9025 48.748C55.4671 48.4027 56.1345 48.23 56.9045 48.23C57.7958 48.23 58.5425 48.4563 59.1445 48.909C59.7511 49.357 60.1385 49.9707 60.3065 50.75L58.4025 51.254C58.2905 50.862 58.0945 50.5563 57.8145 50.337C57.5391 50.1177 57.2265 50.008 56.8765 50.008C56.4751 50.008 56.1461 50.106 55.8895 50.302C55.6328 50.4933 55.4438 50.757 55.3225 51.093C55.2011 51.4243 55.1405 51.8 55.1405 52.22C55.1405 52.878 55.2851 53.4123 55.5745 53.823C55.8685 54.229 56.3025 54.432 56.8765 54.432C57.3058 54.432 57.6325 54.334 57.8565 54.138C58.0805 53.942 58.2485 53.662 58.3605 53.298L60.3065 53.704C60.0918 54.5067 59.6858 55.125 59.0885 55.559C58.4911 55.993 57.7538 56.21 56.8765 56.21ZM66.2426 56C65.7199 56.098 65.2066 56.14 64.7026 56.126C64.2032 56.1167 63.7552 56.0303 63.3586 55.867C62.9666 55.699 62.6679 55.4307 62.4626 55.062C62.2759 54.7167 62.1779 54.3667 62.1686 54.012C62.1592 53.6527 62.1546 53.2467 62.1546 52.794V46.34H64.0586V52.682C64.0586 52.976 64.0609 53.242 64.0656 53.48C64.0749 53.7133 64.1239 53.9 64.2126 54.04C64.3806 54.306 64.6489 54.4507 65.0176 54.474C65.3862 54.4973 65.7946 54.4787 66.2426 54.418V56ZM60.8666 49.91V48.44H66.2426V49.91H60.8666ZM68.0673 47.39V45.71H69.9713V47.39H68.0673ZM68.0673 56V48.44H69.9713V56H68.0673ZM75.4718 56.21C74.7112 56.21 74.0438 56.0397 73.4698 55.699C72.8958 55.3583 72.4478 54.8893 72.1258 54.292C71.8085 53.69 71.6498 52.9993 71.6498 52.22C71.6498 51.4313 71.8132 50.7383 72.1398 50.141C72.4665 49.539 72.9168 49.07 73.4908 48.734C74.0648 48.398 74.7252 48.23 75.4718 48.23C76.2325 48.23 76.8998 48.4003 77.4738 48.741C78.0525 49.0817 78.5028 49.553 78.8248 50.155C79.1468 50.7523 79.3078 51.4407 79.3078 52.22C79.3078 53.004 79.1445 53.697 78.8178 54.299C78.4958 54.8963 78.0455 55.3653 77.4668 55.706C76.8928 56.042 76.2278 56.21 75.4718 56.21ZM75.4718 54.432C76.0832 54.432 76.5382 54.2267 76.8368 53.816C77.1402 53.4007 77.2918 52.8687 77.2918 52.22C77.2918 51.548 77.1378 51.0113 76.8298 50.61C76.5265 50.2087 76.0738 50.008 75.4718 50.008C75.0565 50.008 74.7158 50.1013 74.4498 50.288C74.1838 50.4747 73.9855 50.7337 73.8548 51.065C73.7288 51.3963 73.6658 51.7813 73.6658 52.22C73.6658 52.8967 73.8175 53.4357 74.1208 53.837C74.4288 54.2337 74.8792 54.432 75.4718 54.432ZM85.9992 56V52.43C85.9992 52.2573 85.9899 52.038 85.9712 51.772C85.9525 51.5013 85.8942 51.2307 85.7962 50.96C85.6982 50.6893 85.5372 50.463 85.3132 50.281C85.0939 50.099 84.7812 50.008 84.3752 50.008C84.2119 50.008 84.0369 50.0337 83.8502 50.085C83.6635 50.1363 83.4885 50.2367 83.3252 50.386C83.1619 50.5307 83.0265 50.7453 82.9192 51.03C82.8165 51.3147 82.7652 51.6927 82.7652 52.164L81.6732 51.646C81.6732 51.0487 81.7945 50.4887 82.0372 49.966C82.2799 49.4433 82.6439 49.021 83.1292 48.699C83.6192 48.377 84.2352 48.216 84.9772 48.216C85.5699 48.216 86.0529 48.3163 86.4262 48.517C86.7995 48.7177 87.0889 48.972 87.2942 49.28C87.5042 49.588 87.6535 49.91 87.7422 50.246C87.8309 50.5773 87.8845 50.8807 87.9032 51.156C87.9219 51.4313 87.9312 51.632 87.9312 51.758V56H85.9992ZM80.8332 56V48.44H82.5272V50.946H82.7652V56H80.8332ZM153.158 58.716C152.617 58.0813 152.152 57.3603 151.765 56.553C151.382 55.7457 151.091 54.901 150.89 54.019C150.694 53.1323 150.605 52.2527 150.624 51.38C150.605 50.5073 150.694 49.6277 150.89 48.741C151.091 47.8543 151.382 47.0097 151.765 46.207C152.152 45.3997 152.617 44.6787 153.158 44.044L154.572 45.08C154.003 45.766 153.557 46.452 153.235 47.138C152.913 47.8193 152.684 48.5123 152.549 49.217C152.418 49.917 152.351 50.638 152.346 51.38C152.351 52.122 152.418 52.8453 152.549 53.55C152.684 54.25 152.913 54.943 153.235 55.629C153.557 56.3103 154.003 56.994 154.572 57.68L153.158 58.716ZM180.402 58.716L178.988 57.68C179.557 56.994 180.003 56.3103 180.325 55.629C180.647 54.943 180.873 54.25 181.004 53.55C181.139 52.8453 181.209 52.122 181.214 51.38C181.209 50.638 181.139 49.917 181.004 49.217C180.873 48.5123 180.647 47.8193 180.325 47.138C180.003 46.452 179.557 45.766 178.988 45.08L180.402 44.044C180.943 44.6787 181.405 45.3997 181.788 46.207C182.175 47.0097 182.467 47.8543 182.663 48.741C182.863 49.6277 182.954 50.5073 182.936 51.38C182.954 52.2527 182.863 53.1323 182.663 54.019C182.467 54.901 182.175 55.7457 181.788 56.553C181.405 57.3603 180.943 58.0813 180.402 58.716ZM192.569 58.94C191.925 58.94 191.421 58.758 191.057 58.394C190.693 58.03 190.511 57.526 190.511 56.882V52.794C190.511 52.7053 190.488 52.6307 190.441 52.57L189.811 51.674C189.709 51.52 189.657 51.352 189.657 51.17C189.657 50.988 189.709 50.82 189.811 50.666L190.441 49.77C190.488 49.6907 190.511 49.616 190.511 49.546V45.458C190.511 44.8187 190.693 44.317 191.057 43.953C191.421 43.5843 191.925 43.4 192.569 43.4H193.563V45.192H192.709C192.597 45.192 192.502 45.2317 192.422 45.311C192.343 45.3903 192.303 45.486 192.303 45.598V49.546C192.303 50.0033 192.168 50.4233 191.897 50.806L191.631 51.17L191.897 51.534C192.168 51.9167 192.303 52.3367 192.303 52.794V56.742C192.303 56.8587 192.343 56.9567 192.422 57.036C192.502 57.12 192.597 57.162 192.709 57.162H193.563V58.94H192.569ZM36.0855 79V71.44H37.7655V73.288L37.5835 73.05C37.6815 72.7887 37.8121 72.5507 37.9755 72.336C38.1388 72.1213 38.3395 71.944 38.5775 71.804C38.7595 71.692 38.9578 71.6057 39.1725 71.545C39.3871 71.4797 39.6088 71.44 39.8375 71.426C40.0661 71.4073 40.2948 71.412 40.5235 71.44V73.218C40.3135 73.1527 40.0685 73.1317 39.7885 73.155C39.5131 73.1737 39.2635 73.2367 39.0395 73.344C38.8155 73.4467 38.6265 73.5843 38.4725 73.757C38.3185 73.925 38.2018 74.1257 38.1225 74.359C38.0431 74.5877 38.0035 74.8467 38.0035 75.136V79H36.0855ZM45.2323 79.21C44.4576 79.21 43.7739 79.0443 43.1813 78.713C42.5933 78.377 42.1313 77.9173 41.7953 77.334C41.4639 76.746 41.2983 76.074 41.2983 75.318C41.2983 74.492 41.4616 73.7733 41.7883 73.162C42.1149 72.5507 42.5653 72.077 43.1393 71.741C43.7133 71.4003 44.3736 71.23 45.1203 71.23C45.9136 71.23 46.5879 71.4167 47.1433 71.79C47.6986 72.1633 48.1093 72.6883 48.3753 73.365C48.6413 74.0417 48.7346 74.8373 48.6553 75.752H46.7723V75.052C46.7723 74.282 46.6486 73.729 46.4013 73.393C46.1586 73.0523 45.7596 72.882 45.2043 72.882C44.5556 72.882 44.0773 73.0803 43.7693 73.477C43.4659 73.869 43.3143 74.45 43.3143 75.22C43.3143 75.9247 43.4659 76.4707 43.7693 76.858C44.0773 77.2407 44.5276 77.432 45.1203 77.432C45.4936 77.432 45.8133 77.3503 46.0793 77.187C46.3453 77.0237 46.5483 76.788 46.6883 76.48L48.5923 77.026C48.3076 77.7167 47.8573 78.2533 47.2413 78.636C46.6299 79.0187 45.9603 79.21 45.2323 79.21ZM42.7263 75.752V74.338H47.7383V75.752H42.7263ZM54.7719 79C54.2492 79.098 53.7359 79.14 53.2319 79.126C52.7325 79.1167 52.2845 79.0303 51.8879 78.867C51.4959 78.699 51.1972 78.4307 50.9919 78.062C50.8052 77.7167 50.7072 77.3667 50.6979 77.012C50.6885 76.6527 50.6839 76.2467 50.6839 75.794V69.34H52.5879V75.682C52.5879 75.976 52.5902 76.242 52.5949 76.48C52.6042 76.7133 52.6532 76.9 52.7419 77.04C52.9099 77.306 53.1782 77.4507 53.5469 77.474C53.9155 77.4973 54.3239 77.4787 54.7719 77.418V79ZM49.3959 72.91V71.44H54.7719V72.91H49.3959ZM59.2706 79.224C58.6779 79.224 58.1949 79.1237 57.8216 78.923C57.4482 78.7223 57.1566 78.468 56.9466 78.16C56.7412 77.852 56.5942 77.5323 56.5056 77.201C56.4169 76.865 56.3632 76.5593 56.3446 76.284C56.3259 76.0087 56.3166 75.808 56.3166 75.682V71.44H58.2486V75.01C58.2486 75.1827 58.2579 75.4043 58.2766 75.675C58.2952 75.941 58.3536 76.2093 58.4516 76.48C58.5496 76.7507 58.7082 76.977 58.9276 77.159C59.1516 77.341 59.4666 77.432 59.8726 77.432C60.0359 77.432 60.2109 77.4063 60.3976 77.355C60.5842 77.3037 60.7592 77.2057 60.9226 77.061C61.0859 76.9117 61.2189 76.6947 61.3216 76.41C61.4289 76.1207 61.4826 75.7427 61.4826 75.276L62.5746 75.794C62.5746 76.3913 62.4532 76.9513 62.2106 77.474C61.9679 77.9967 61.6016 78.419 61.1116 78.741C60.6262 79.063 60.0126 79.224 59.2706 79.224ZM61.7206 79V76.494H61.4826V71.44H63.4006V79H61.7206ZM65.357 79V71.44H67.037V73.288L66.855 73.05C66.953 72.7887 67.0836 72.5507 67.247 72.336C67.4103 72.1213 67.611 71.944 67.849 71.804C68.031 71.692 68.2293 71.6057 68.444 71.545C68.6586 71.4797 68.8803 71.44 69.109 71.426C69.3376 71.4073 69.5663 71.412 69.795 71.44V73.218C69.585 73.1527 69.34 73.1317 69.06 73.155C68.7846 73.1737 68.535 73.2367 68.311 73.344C68.087 73.4467 67.898 73.5843 67.744 73.757C67.59 73.925 67.4733 74.1257 67.394 74.359C67.3146 74.5877 67.275 74.8467 67.275 75.136V79H65.357ZM76.2785 79V75.43C76.2785 75.2573 76.2692 75.038 76.2505 74.772C76.2318 74.5013 76.1735 74.2307 76.0755 73.96C75.9775 73.6893 75.8165 73.463 75.5925 73.281C75.3732 73.099 75.0605 73.008 74.6545 73.008C74.4912 73.008 74.3162 73.0337 74.1295 73.085C73.9428 73.1363 73.7678 73.2367 73.6045 73.386C73.4412 73.5307 73.3058 73.7453 73.1985 74.03C73.0958 74.3147 73.0445 74.6927 73.0445 75.164L71.9525 74.646C71.9525 74.0487 72.0738 73.4887 72.3165 72.966C72.5592 72.4433 72.9232 72.021 73.4085 71.699C73.8985 71.377 74.5145 71.216 75.2565 71.216C75.8492 71.216 76.3322 71.3163 76.7055 71.517C77.0788 71.7177 77.3682 71.972 77.5735 72.28C77.7835 72.588 77.9328 72.91 78.0215 73.246C78.1102 73.5773 78.1638 73.8807 78.1825 74.156C78.2012 74.4313 78.2105 74.632 78.2105 74.758V79H76.2785ZM71.1125 79V71.44H72.8065V73.946H73.0445V79H71.1125ZM84.9296 79.21C84.3883 79.21 83.9286 79.1073 83.5506 78.902C83.1773 78.692 82.8926 78.4143 82.6966 78.069C82.5053 77.719 82.4096 77.334 82.4096 76.914C82.4096 76.564 82.4633 76.2443 82.5706 75.955C82.6779 75.6657 82.8506 75.4113 83.0886 75.192C83.3313 74.968 83.6556 74.7813 84.0616 74.632C84.3416 74.5293 84.6753 74.4383 85.0626 74.359C85.4499 74.2797 85.8886 74.205 86.3786 74.135C86.8686 74.0603 87.4076 73.9787 87.9956 73.89L87.3096 74.268C87.3096 73.82 87.2023 73.491 86.9876 73.281C86.7729 73.071 86.4136 72.966 85.9096 72.966C85.6296 72.966 85.3379 73.0337 85.0346 73.169C84.7313 73.3043 84.5189 73.5447 84.3976 73.89L82.6756 73.344C82.8669 72.7187 83.2263 72.21 83.7536 71.818C84.2809 71.426 84.9996 71.23 85.9096 71.23C86.5769 71.23 87.1696 71.3327 87.6876 71.538C88.2056 71.7433 88.5976 72.098 88.8636 72.602C89.0129 72.882 89.1016 73.162 89.1296 73.442C89.1576 73.722 89.1716 74.0347 89.1716 74.38V79H87.5056V77.446L87.7436 77.768C87.3749 78.2767 86.9759 78.6453 86.5466 78.874C86.1219 79.098 85.5829 79.21 84.9296 79.21ZM85.3356 77.712C85.6856 77.712 85.9796 77.6513 86.2176 77.53C86.4603 77.404 86.6516 77.2617 86.7916 77.103C86.9363 76.9443 87.0343 76.8113 87.0856 76.704C87.1836 76.4987 87.2396 76.2607 87.2536 75.99C87.2723 75.7147 87.2816 75.486 87.2816 75.304L87.8416 75.444C87.2769 75.5373 86.8196 75.6167 86.4696 75.682C86.1196 75.7427 85.8373 75.7987 85.6226 75.85C85.4079 75.9013 85.2189 75.9573 85.0556 76.018C84.8689 76.0927 84.7173 76.1743 84.6006 76.263C84.4886 76.347 84.4046 76.4403 84.3486 76.543C84.2973 76.6457 84.2716 76.76 84.2716 76.886C84.2716 77.0587 84.3136 77.208 84.3976 77.334C84.4863 77.4553 84.6099 77.5487 84.7686 77.614C84.9273 77.6793 85.1163 77.712 85.3356 77.712ZM95.0965 74.03L93.7385 73.05L94.7745 71.874L93.2345 71.482L93.7525 69.886L95.2085 70.516L95.0825 68.92H96.7625L96.6365 70.516L98.0925 69.886L98.6105 71.482L97.0705 71.874L98.1065 73.05L96.7485 74.03L95.9225 72.7L95.0965 74.03ZM106.938 79.21C106.187 79.21 105.559 79.035 105.055 78.685C104.551 78.335 104.171 77.859 103.914 77.257C103.662 76.655 103.536 75.976 103.536 75.22C103.536 74.464 103.662 73.785 103.914 73.183C104.166 72.581 104.537 72.105 105.027 71.755C105.517 71.405 106.121 71.23 106.84 71.23C107.563 71.23 108.193 71.4027 108.73 71.748C109.267 72.0933 109.682 72.567 109.976 73.169C110.275 73.7663 110.424 74.45 110.424 75.22C110.424 75.976 110.277 76.655 109.983 77.257C109.694 77.859 109.288 78.335 108.765 78.685C108.242 79.035 107.633 79.21 106.938 79.21ZM103.214 79V68.92H105.132V73.82H104.894V79H103.214ZM106.63 77.516C107.041 77.516 107.377 77.4133 107.638 77.208C107.899 77.0027 108.093 76.7273 108.219 76.382C108.345 76.032 108.408 75.6447 108.408 75.22C108.408 74.8 108.343 74.4173 108.212 74.072C108.081 73.722 107.878 73.4443 107.603 73.239C107.332 73.029 106.985 72.924 106.56 72.924C106.163 72.924 105.841 73.0197 105.594 73.211C105.351 73.4023 105.174 73.6707 105.062 74.016C104.95 74.3613 104.894 74.7627 104.894 75.22C104.894 75.6773 104.95 76.0787 105.062 76.424C105.174 76.7693 105.356 77.0377 105.608 77.229C105.865 77.4203 106.205 77.516 106.63 77.516ZM112.524 80.89L112.636 80.092C112.86 80.1107 113.042 80.0733 113.182 79.98C113.322 79.8913 113.418 79.7607 113.469 79.588C113.525 79.42 113.537 79.224 113.504 79H112.524V77.096H114.428V79C114.428 79.672 114.272 80.1807 113.959 80.526C113.647 80.8713 113.168 80.9927 112.524 80.89ZM112.524 73.344V71.44H114.428V73.344H112.524ZM31.054 104.94H30.06V103.162H30.914C31.026 103.162 31.1217 103.12 31.201 103.036C31.2803 102.957 31.32 102.859 31.32 102.742V98.794C31.32 98.3367 31.4553 97.9167 31.726 97.534L31.992 97.17L31.726 96.806C31.4553 96.4233 31.32 96.0033 31.32 95.546V91.598C31.32 91.486 31.2803 91.3903 31.201 91.311C31.1217 91.2317 31.026 91.192 30.914 91.192H30.06V89.4H31.054C31.698 89.4 32.202 89.5843 32.566 89.953C32.93 90.317 33.112 90.8187 33.112 91.458V95.546C33.112 95.616 33.1353 95.6907 33.182 95.77L33.812 96.666C33.9193 96.82 33.973 96.988 33.973 97.17C33.973 97.352 33.9193 97.52 33.812 97.674L33.182 98.57C33.1353 98.6307 33.112 98.7053 33.112 98.794V102.882C33.112 103.526 32.93 104.03 32.566 104.394C32.202 104.758 31.698 104.94 31.054 104.94ZM30.62 148V137.71H32.524V148H30.62ZM38.1366 148.21C37.3619 148.21 36.6782 148.044 36.0856 147.713C35.4976 147.377 35.0356 146.917 34.6996 146.334C34.3682 145.746 34.2026 145.074 34.2026 144.318C34.2026 143.492 34.3659 142.773 34.6926 142.162C35.0192 141.551 35.4696 141.077 36.0436 140.741C36.6176 140.4 37.2779 140.23 38.0246 140.23C38.8179 140.23 39.4922 140.417 40.0476 140.79C40.6029 141.163 41.0136 141.688 41.2796 142.365C41.5456 143.042 41.6389 143.837 41.5596 144.752H39.6766V144.052C39.6766 143.282 39.5529 142.729 39.3056 142.393C39.0629 142.052 38.6639 141.882 38.1086 141.882C37.4599 141.882 36.9816 142.08 36.6736 142.477C36.3702 142.869 36.2186 143.45 36.2186 144.22C36.2186 144.925 36.3702 145.471 36.6736 145.858C36.9816 146.241 37.4319 146.432 38.0246 146.432C38.3979 146.432 38.7176 146.35 38.9836 146.187C39.2496 146.024 39.4526 145.788 39.5926 145.48L41.4966 146.026C41.2119 146.717 40.7616 147.253 40.1456 147.636C39.5342 148.019 38.8646 148.21 38.1366 148.21ZM35.6306 144.752V143.338H40.6426V144.752H35.6306ZM47.6762 148C47.1535 148.098 46.6402 148.14 46.1362 148.126C45.6368 148.117 45.1888 148.03 44.7922 147.867C44.4002 147.699 44.1015 147.431 43.8962 147.062C43.7095 146.717 43.6115 146.367 43.6022 146.012C43.5928 145.653 43.5882 145.247 43.5882 144.794V138.34H45.4922V144.682C45.4922 144.976 45.4945 145.242 45.4992 145.48C45.5085 145.713 45.5575 145.9 45.6462 146.04C45.8142 146.306 46.0825 146.451 46.4512 146.474C46.8198 146.497 47.2282 146.479 47.6762 146.418V148ZM42.3002 141.91V140.44H47.6762V141.91H42.3002ZM110.846 142.33V140.86H117.986V142.33H110.846ZM110.846 145.06V143.59H117.986V145.06H110.846ZM184.057 150.296C183.515 149.661 183.051 148.94 182.664 148.133C182.281 147.326 181.989 146.481 181.789 145.599C181.593 144.712 181.504 143.833 181.523 142.96C181.504 142.087 181.593 141.208 181.789 140.321C181.989 139.434 182.281 138.59 182.664 137.787C183.051 136.98 183.515 136.259 184.057 135.624L185.471 136.66C184.901 137.346 184.456 138.032 184.134 138.718C183.812 139.399 183.583 140.092 183.448 140.797C183.317 141.497 183.249 142.218 183.245 142.96C183.249 143.702 183.317 144.425 183.448 145.13C183.583 145.83 183.812 146.523 184.134 147.209C184.456 147.89 184.901 148.574 185.471 149.26L184.057 150.296ZM211.82 150.296L210.406 149.26C210.975 148.574 211.421 147.89 211.743 147.209C212.065 146.523 212.291 145.83 212.422 145.13C212.557 144.425 212.627 143.702 212.632 142.96C212.627 142.218 212.557 141.497 212.422 140.797C212.291 140.092 212.065 139.399 211.743 138.718C211.421 138.032 210.975 137.346 210.406 136.66L211.82 135.624C212.361 136.259 212.823 136.98 213.206 137.787C213.593 138.59 213.885 139.434 214.081 140.321C214.281 141.208 214.372 142.087 214.354 142.96C214.372 143.833 214.281 144.712 214.081 145.599C213.885 146.481 213.593 147.326 213.206 148.133C212.823 148.94 212.361 149.661 211.82 150.296ZM217.853 149.89L217.965 149.092C218.189 149.111 218.371 149.073 218.511 148.98C218.651 148.891 218.746 148.761 218.798 148.588C218.854 148.42 218.865 148.224 218.833 148H217.853V146.096H219.757V148C219.757 148.672 219.6 149.181 219.288 149.526C218.975 149.871 218.497 149.993 217.853 149.89ZM217.853 142.344V140.44H219.757V142.344H217.853ZM33.812 171.21C33.028 171.21 32.356 171.035 31.796 170.685C31.236 170.335 30.8067 169.859 30.508 169.257C30.2093 168.655 30.06 167.976 30.06 167.22C30.06 166.455 30.214 165.771 30.522 165.169C30.8347 164.567 31.2733 164.093 31.838 163.748C32.4027 163.403 33.07 163.23 33.84 163.23C34.7313 163.23 35.478 163.456 36.08 163.909C36.6867 164.357 37.074 164.971 37.242 165.75L35.338 166.254C35.226 165.862 35.03 165.556 34.75 165.337C34.4747 165.118 34.162 165.008 33.812 165.008C33.4107 165.008 33.0817 165.106 32.825 165.302C32.5683 165.493 32.3793 165.757 32.258 166.093C32.1367 166.424 32.076 166.8 32.076 167.22C32.076 167.878 32.2207 168.412 32.51 168.823C32.804 169.229 33.238 169.432 33.812 169.432C34.2413 169.432 34.568 169.334 34.792 169.138C35.016 168.942 35.184 168.662 35.296 168.298L37.242 168.704C37.0273 169.507 36.6213 170.125 36.024 170.559C35.4267 170.993 34.6893 171.21 33.812 171.21ZM41.839 171.21C41.0784 171.21 40.411 171.04 39.837 170.699C39.263 170.358 38.815 169.889 38.493 169.292C38.1757 168.69 38.017 167.999 38.017 167.22C38.017 166.431 38.1804 165.738 38.507 165.141C38.8337 164.539 39.284 164.07 39.858 163.734C40.432 163.398 41.0924 163.23 41.839 163.23C42.5997 163.23 43.267 163.4 43.841 163.741C44.4197 164.082 44.87 164.553 45.192 165.155C45.514 165.752 45.675 166.441 45.675 167.22C45.675 168.004 45.5117 168.697 45.185 169.299C44.863 169.896 44.4127 170.365 43.834 170.706C43.26 171.042 42.595 171.21 41.839 171.21ZM41.839 169.432C42.4504 169.432 42.9054 169.227 43.204 168.816C43.5074 168.401 43.659 167.869 43.659 167.22C43.659 166.548 43.505 166.011 43.197 165.61C42.8937 165.209 42.441 165.008 41.839 165.008C41.4237 165.008 41.083 165.101 40.817 165.288C40.551 165.475 40.3527 165.734 40.222 166.065C40.096 166.396 40.033 166.781 40.033 167.22C40.033 167.897 40.1847 168.436 40.488 168.837C40.796 169.234 41.2464 169.432 41.839 169.432ZM52.3664 171V167.43C52.3664 167.257 52.357 167.038 52.3384 166.772C52.3197 166.501 52.2614 166.231 52.1634 165.96C52.0654 165.689 51.9044 165.463 51.6804 165.281C51.461 165.099 51.1484 165.008 50.7424 165.008C50.579 165.008 50.404 165.034 50.2174 165.085C50.0307 165.136 49.8557 165.237 49.6924 165.386C49.529 165.531 49.3937 165.745 49.2864 166.03C49.1837 166.315 49.1324 166.693 49.1324 167.164L48.0404 166.646C48.0404 166.049 48.1617 165.489 48.4044 164.966C48.647 164.443 49.011 164.021 49.4964 163.699C49.9864 163.377 50.6024 163.216 51.3444 163.216C51.937 163.216 52.42 163.316 52.7934 163.517C53.1667 163.718 53.456 163.972 53.6614 164.28C53.8714 164.588 54.0207 164.91 54.1094 165.246C54.198 165.577 54.2517 165.881 54.2704 166.156C54.289 166.431 54.2984 166.632 54.2984 166.758V171H52.3664ZM47.2004 171V163.44H48.8944V165.946H49.1324V171H47.2004ZM59.0688 171.21C58.1168 171.21 57.3468 170.995 56.7588 170.566C56.1754 170.132 55.8208 169.521 55.6948 168.732L57.6408 168.438C57.7201 168.793 57.8951 169.07 58.1658 169.271C58.4411 169.472 58.7888 169.572 59.2088 169.572C59.5541 169.572 59.8201 169.507 60.0068 169.376C60.1934 169.241 60.2868 169.054 60.2868 168.816C60.2868 168.667 60.2494 168.548 60.1748 168.459C60.1001 168.366 59.9321 168.275 59.6708 168.186C59.4141 168.097 59.0128 167.981 58.4668 167.836C57.8508 167.677 57.3584 167.5 56.9898 167.304C56.6211 167.108 56.3551 166.875 56.1918 166.604C56.0284 166.329 55.9468 165.997 55.9468 165.61C55.9468 165.125 56.0704 164.705 56.3178 164.35C56.5651 163.991 56.9128 163.715 57.3608 163.524C57.8134 163.328 58.3454 163.23 58.9568 163.23C59.5494 163.23 60.0744 163.321 60.5318 163.503C60.9891 163.685 61.3578 163.944 61.6378 164.28C61.9224 164.616 62.0974 165.013 62.1628 165.47L60.2168 165.82C60.1841 165.54 60.0628 165.318 59.8528 165.155C59.6428 164.992 59.3581 164.896 58.9988 164.868C58.6488 164.845 58.3664 164.891 58.1518 165.008C57.9418 165.125 57.8368 165.293 57.8368 165.512C57.8368 165.643 57.8811 165.752 57.9698 165.841C58.0631 165.93 58.2521 166.021 58.5368 166.114C58.8261 166.207 59.2648 166.329 59.8528 166.478C60.4268 166.627 60.8864 166.802 61.2318 167.003C61.5818 167.199 61.8361 167.437 61.9948 167.717C62.1534 167.992 62.2328 168.326 62.2328 168.718C62.2328 169.493 61.9528 170.102 61.3928 170.545C60.8328 170.988 60.0581 171.21 59.0688 171.21ZM67.173 171.21C66.4123 171.21 65.745 171.04 65.171 170.699C64.597 170.358 64.149 169.889 63.827 169.292C63.5097 168.69 63.351 167.999 63.351 167.22C63.351 166.431 63.5143 165.738 63.841 165.141C64.1677 164.539 64.618 164.07 65.192 163.734C65.766 163.398 66.4263 163.23 67.173 163.23C67.9337 163.23 68.601 163.4 69.175 163.741C69.7537 164.082 70.204 164.553 70.526 165.155C70.848 165.752 71.009 166.441 71.009 167.22C71.009 168.004 70.8457 168.697 70.519 169.299C70.197 169.896 69.7467 170.365 69.168 170.706C68.594 171.042 67.929 171.21 67.173 171.21ZM67.173 169.432C67.7843 169.432 68.2393 169.227 68.538 168.816C68.8413 168.401 68.993 167.869 68.993 167.22C68.993 166.548 68.839 166.011 68.531 165.61C68.2277 165.209 67.775 165.008 67.173 165.008C66.7577 165.008 66.417 165.101 66.151 165.288C65.885 165.475 65.6867 165.734 65.556 166.065C65.43 166.396 65.367 166.781 65.367 167.22C65.367 167.897 65.5187 168.436 65.822 168.837C66.13 169.234 66.5803 169.432 67.173 169.432ZM72.6884 171V160.71H74.5924V171H72.6884ZM80.2049 171.21C79.4303 171.21 78.7466 171.044 78.1539 170.713C77.5659 170.377 77.1039 169.917 76.7679 169.334C76.4366 168.746 76.2709 168.074 76.2709 167.318C76.2709 166.492 76.4343 165.773 76.7609 165.162C77.0876 164.551 77.5379 164.077 78.1119 163.741C78.6859 163.4 79.3463 163.23 80.0929 163.23C80.8863 163.23 81.5606 163.417 82.1159 163.79C82.6713 164.163 83.0819 164.688 83.3479 165.365C83.6139 166.042 83.7073 166.837 83.6279 167.752H81.7449V167.052C81.7449 166.282 81.6213 165.729 81.3739 165.393C81.1313 165.052 80.7323 164.882 80.1769 164.882C79.5283 164.882 79.0499 165.08 78.7419 165.477C78.4386 165.869 78.2869 166.45 78.2869 167.22C78.2869 167.925 78.4386 168.471 78.7419 168.858C79.0499 169.241 79.5003 169.432 80.0929 169.432C80.4663 169.432 80.7859 169.35 81.0519 169.187C81.3179 169.024 81.5209 168.788 81.6609 168.48L83.5649 169.026C83.2803 169.717 82.8299 170.253 82.2139 170.636C81.6026 171.019 80.9329 171.21 80.2049 171.21ZM77.6989 167.752V166.338H82.7109V167.752H77.6989ZM85.2431 171V169.096H87.1471V171H85.2431ZM89.5595 171V160.71H91.4635V171H89.5595ZM96.964 171.21C96.2034 171.21 95.536 171.04 94.962 170.699C94.388 170.358 93.94 169.889 93.618 169.292C93.3007 168.69 93.142 167.999 93.142 167.22C93.142 166.431 93.3054 165.738 93.632 165.141C93.9587 164.539 94.409 164.07 94.983 163.734C95.557 163.398 96.2174 163.23 96.964 163.23C97.7247 163.23 98.392 163.4 98.966 163.741C99.5447 164.082 99.995 164.553 100.317 165.155C100.639 165.752 100.8 166.441 100.8 167.22C100.8 168.004 100.637 168.697 100.31 169.299C99.988 169.896 99.5377 170.365 98.959 170.706C98.385 171.042 97.72 171.21 96.964 171.21ZM96.964 169.432C97.5754 169.432 98.0304 169.227 98.329 168.816C98.6324 168.401 98.784 167.869 98.784 167.22C98.784 166.548 98.63 166.011 98.322 165.61C98.0187 165.209 97.566 165.008 96.964 165.008C96.5487 165.008 96.208 165.101 95.942 165.288C95.676 165.475 95.4777 165.734 95.347 166.065C95.221 166.396 95.158 166.781 95.158 167.22C95.158 167.897 95.3097 168.436 95.613 168.837C95.921 169.234 96.3714 169.432 96.964 169.432ZM105.573 174.57C105.144 174.57 104.736 174.5 104.348 174.36C103.961 174.225 103.613 174.033 103.305 173.786C103.002 173.543 102.755 173.259 102.563 172.932L104.327 172.078C104.449 172.302 104.621 172.472 104.845 172.589C105.074 172.706 105.321 172.764 105.587 172.764C105.872 172.764 106.14 172.715 106.392 172.617C106.644 172.524 106.845 172.381 106.994 172.19C107.148 172.003 107.221 171.77 107.211 171.49V169.292H107.449V163.44H109.115V171.518C109.115 171.705 109.106 171.88 109.087 172.043C109.073 172.211 109.045 172.377 109.003 172.54C108.882 173.002 108.656 173.382 108.324 173.681C107.998 173.98 107.596 174.201 107.12 174.346C106.644 174.495 106.129 174.57 105.573 174.57ZM105.405 171.21C104.71 171.21 104.101 171.035 103.578 170.685C103.056 170.335 102.647 169.859 102.353 169.257C102.064 168.655 101.919 167.976 101.919 167.22C101.919 166.45 102.066 165.766 102.36 165.169C102.659 164.567 103.077 164.093 103.613 163.748C104.15 163.403 104.78 163.23 105.503 163.23C106.222 163.23 106.826 163.405 107.316 163.755C107.806 164.105 108.177 164.581 108.429 165.183C108.681 165.785 108.807 166.464 108.807 167.22C108.807 167.976 108.679 168.655 108.422 169.257C108.17 169.859 107.792 170.335 107.288 170.685C106.784 171.035 106.157 171.21 105.405 171.21ZM105.713 169.516C106.138 169.516 106.476 169.42 106.728 169.229C106.985 169.038 107.169 168.769 107.281 168.424C107.393 168.079 107.449 167.677 107.449 167.22C107.449 166.763 107.393 166.361 107.281 166.016C107.169 165.671 106.99 165.402 106.742 165.211C106.5 165.02 106.18 164.924 105.783 164.924C105.359 164.924 105.009 165.029 104.733 165.239C104.463 165.444 104.262 165.722 104.131 166.072C104.001 166.417 103.935 166.8 103.935 167.22C103.935 167.645 103.998 168.032 104.124 168.382C104.25 168.727 104.444 169.003 104.705 169.208C104.967 169.413 105.303 169.516 105.713 169.516ZM114.59 173.716C114.048 173.081 113.584 172.36 113.197 171.553C112.814 170.746 112.522 169.901 112.322 169.019C112.126 168.132 112.037 167.253 112.056 166.38C112.037 165.507 112.126 164.628 112.322 163.741C112.522 162.854 112.814 162.01 113.197 161.207C113.584 160.4 114.048 159.679 114.59 159.044L116.004 160.08C115.434 160.766 114.989 161.452 114.667 162.138C114.345 162.819 114.116 163.512 113.981 164.217C113.85 164.917 113.782 165.638 113.778 166.38C113.782 167.122 113.85 167.845 113.981 168.55C114.116 169.25 114.345 169.943 114.667 170.629C114.989 171.31 115.434 171.994 116.004 172.68L114.59 173.716ZM173.716 173.716L172.302 172.68C172.872 171.994 173.317 171.31 173.639 170.629C173.961 169.943 174.188 169.25 174.318 168.55C174.454 167.845 174.524 167.122 174.528 166.38C174.524 165.638 174.454 164.917 174.318 164.217C174.188 163.512 173.961 162.819 173.639 162.138C173.317 161.452 172.872 160.766 172.302 160.08L173.716 159.044C174.258 159.679 174.72 160.4 175.102 161.207C175.49 162.01 175.781 162.854 175.977 163.741C176.178 164.628 176.269 165.507 176.25 166.38C176.269 167.253 176.178 168.132 175.977 169.019C175.781 169.901 175.49 170.746 175.102 171.553C174.72 172.36 174.258 173.081 173.716 173.716ZM179.749 172.89L179.861 172.092C180.085 172.111 180.267 172.073 180.407 171.98C180.547 171.891 180.643 171.761 180.694 171.588C180.75 171.42 180.762 171.224 180.729 171H179.749V169.096H181.653V171C181.653 171.672 181.497 172.181 181.184 172.526C180.871 172.871 180.393 172.993 179.749 172.89ZM179.749 165.344V163.44H181.653V165.344H179.749Z" fill="white"/>
<path d="M101.65 56V51.534C101.65 51.0347 101.531 50.6473 101.293 50.372C101.06 50.092 100.736 49.952 100.32 49.952C100.054 49.952 99.8233 50.015 99.6273 50.141C99.4313 50.2623 99.2773 50.435 99.1653 50.659C99.058 50.8783 99.0043 51.1327 99.0043 51.422L98.2063 50.89C98.2063 50.372 98.3276 49.9147 98.5703 49.518C98.8176 49.1213 99.1466 48.8133 99.5573 48.594C99.9726 48.37 100.432 48.258 100.936 48.258C101.8 48.258 102.451 48.5147 102.889 49.028C103.333 49.5367 103.554 50.204 103.554 51.03V56H101.65ZM92.5363 56V48.44H94.2163V50.946H94.4543V56H92.5363ZM97.1003 56V51.534C97.1003 51.0347 96.9813 50.6473 96.7433 50.372C96.51 50.092 96.1856 49.952 95.7703 49.952C95.3736 49.952 95.054 50.0897 94.8113 50.365C94.5733 50.6357 94.4543 50.988 94.4543 51.422L93.6563 50.862C93.6563 50.3673 93.78 49.924 94.0273 49.532C94.2746 49.14 94.606 48.8297 95.0213 48.601C95.4413 48.3723 95.9103 48.258 96.4283 48.258C97.021 48.258 97.5063 48.384 97.8843 48.636C98.267 48.888 98.5493 49.224 98.7313 49.644C98.9133 50.064 99.0043 50.526 99.0043 51.03V56H97.1003ZM108.189 56.224C107.596 56.224 107.113 56.1237 106.74 55.923C106.366 55.7223 106.075 55.468 105.865 55.16C105.659 54.852 105.512 54.5323 105.424 54.201C105.335 53.865 105.281 53.5593 105.263 53.284C105.244 53.0087 105.235 52.808 105.235 52.682V48.44H107.167V52.01C107.167 52.1827 107.176 52.4043 107.195 52.675C107.213 52.941 107.272 53.2093 107.37 53.48C107.468 53.7507 107.626 53.977 107.846 54.159C108.07 54.341 108.385 54.432 108.791 54.432C108.954 54.432 109.129 54.4063 109.316 54.355C109.502 54.3037 109.677 54.2057 109.841 54.061C110.004 53.9117 110.137 53.6947 110.24 53.41C110.347 53.1207 110.401 52.7427 110.401 52.276L111.493 52.794C111.493 53.3913 111.371 53.9513 111.129 54.474C110.886 54.9967 110.52 55.419 110.03 55.741C109.544 56.063 108.931 56.224 108.189 56.224ZM110.639 56V53.494H110.401V48.44H112.319V56H110.639ZM114.415 56V45.71H116.319V56H114.415ZM122.954 56C122.431 56.098 121.918 56.14 121.414 56.126C120.914 56.1167 120.466 56.0303 120.07 55.867C119.678 55.699 119.379 55.4307 119.174 55.062C118.987 54.7167 118.889 54.3667 118.88 54.012C118.87 53.6527 118.866 53.2467 118.866 52.794V46.34H120.77V52.682C120.77 52.976 120.772 53.242 120.777 53.48C120.786 53.7133 120.835 53.9 120.924 54.04C121.092 54.306 121.36 54.4507 121.729 54.474C122.097 54.4973 122.506 54.4787 122.954 54.418V56ZM117.578 49.91V48.44H122.954V49.91H117.578ZM124.778 47.39V45.71H126.682V47.39H124.778ZM124.778 56V48.44H126.682V56H124.778ZM132.491 56.21C131.739 56.21 131.112 56.035 130.608 55.685C130.104 55.335 129.723 54.859 129.467 54.257C129.215 53.655 129.089 52.976 129.089 52.22C129.089 51.464 129.215 50.785 129.467 50.183C129.719 49.581 130.09 49.105 130.58 48.755C131.07 48.405 131.674 48.23 132.393 48.23C133.116 48.23 133.746 48.4027 134.283 48.748C134.819 49.0933 135.235 49.567 135.529 50.169C135.827 50.7663 135.977 51.45 135.977 52.22C135.977 52.976 135.83 53.655 135.536 54.257C135.246 54.859 134.84 55.335 134.318 55.685C133.795 56.035 133.186 56.21 132.491 56.21ZM128.767 59.36V48.44H130.447V53.62H130.685V59.36H128.767ZM132.183 54.516C132.593 54.516 132.929 54.4133 133.191 54.208C133.452 54.0027 133.646 53.7273 133.772 53.382C133.898 53.032 133.961 52.6447 133.961 52.22C133.961 51.8 133.895 51.4173 133.765 51.072C133.634 50.722 133.431 50.4443 133.156 50.239C132.885 50.029 132.537 49.924 132.113 49.924C131.716 49.924 131.394 50.0197 131.147 50.211C130.904 50.4023 130.727 50.6707 130.615 51.016C130.503 51.3613 130.447 51.7627 130.447 52.22C130.447 52.6773 130.503 53.0787 130.615 53.424C130.727 53.7693 130.909 54.0377 131.161 54.229C131.417 54.4203 131.758 54.516 132.183 54.516ZM137.657 56V45.71H139.561V56H137.657ZM142.626 59.36L144.082 55.356L144.11 56.532L140.82 48.44H142.794L145.006 54.166H144.558L146.756 48.44H148.66L144.39 59.36H142.626ZM55.8736 148.21C55.1223 148.21 54.4946 148.035 53.9906 147.685C53.4866 147.335 53.1063 146.859 52.8496 146.257C52.5976 145.655 52.4716 144.976 52.4716 144.22C52.4716 143.464 52.5976 142.785 52.8496 142.183C53.1016 141.581 53.4726 141.105 53.9626 140.755C54.4526 140.405 55.0569 140.23 55.7756 140.23C56.4989 140.23 57.1289 140.403 57.6656 140.748C58.2023 141.093 58.6176 141.567 58.9116 142.169C59.2103 142.766 59.3596 143.45 59.3596 144.22C59.3596 144.976 59.2126 145.655 58.9186 146.257C58.6293 146.859 58.2233 147.335 57.7006 147.685C57.1779 148.035 56.5689 148.21 55.8736 148.21ZM52.1496 151.36V140.44H53.8296V145.62H54.0676V151.36H52.1496ZM55.5656 146.516C55.9763 146.516 56.3123 146.413 56.5736 146.208C56.8349 146.003 57.0286 145.727 57.1546 145.382C57.2806 145.032 57.3436 144.645 57.3436 144.22C57.3436 143.8 57.2783 143.417 57.1476 143.072C57.0169 142.722 56.8139 142.444 56.5386 142.239C56.2679 142.029 55.9203 141.924 55.4956 141.924C55.0989 141.924 54.7769 142.02 54.5296 142.211C54.2869 142.402 54.1096 142.671 53.9976 143.016C53.8856 143.361 53.8296 143.763 53.8296 144.22C53.8296 144.677 53.8856 145.079 53.9976 145.424C54.1096 145.769 54.2916 146.038 54.5436 146.229C54.8003 146.42 55.1409 146.516 55.5656 146.516ZM60.8999 148V140.44H62.5799V142.288L62.3979 142.05C62.4959 141.789 62.6266 141.551 62.7899 141.336C62.9533 141.121 63.1539 140.944 63.3919 140.804C63.5739 140.692 63.7723 140.606 63.9869 140.545C64.2016 140.48 64.4233 140.44 64.6519 140.426C64.8806 140.407 65.1093 140.412 65.3379 140.44V142.218C65.1279 142.153 64.8829 142.132 64.6029 142.155C64.3276 142.174 64.0779 142.237 63.8539 142.344C63.6299 142.447 63.4409 142.584 63.2869 142.757C63.1329 142.925 63.0163 143.126 62.9369 143.359C62.8576 143.588 62.8179 143.847 62.8179 144.136V148H60.8999ZM69.9347 148.21C69.1741 148.21 68.5067 148.04 67.9327 147.699C67.3587 147.358 66.9107 146.889 66.5887 146.292C66.2714 145.69 66.1127 144.999 66.1127 144.22C66.1127 143.431 66.2761 142.738 66.6027 142.141C66.9294 141.539 67.3797 141.07 67.9537 140.734C68.5277 140.398 69.1881 140.23 69.9347 140.23C70.6954 140.23 71.3627 140.4 71.9367 140.741C72.5154 141.082 72.9657 141.553 73.2877 142.155C73.6097 142.752 73.7707 143.441 73.7707 144.22C73.7707 145.004 73.6074 145.697 73.2807 146.299C72.9587 146.896 72.5084 147.365 71.9297 147.706C71.3557 148.042 70.6907 148.21 69.9347 148.21ZM69.9347 146.432C70.5461 146.432 71.0011 146.227 71.2997 145.816C71.6031 145.401 71.7547 144.869 71.7547 144.22C71.7547 143.548 71.6007 143.011 71.2927 142.61C70.9894 142.209 70.5367 142.008 69.9347 142.008C69.5194 142.008 69.1787 142.101 68.9127 142.288C68.6467 142.475 68.4484 142.734 68.3177 143.065C68.1917 143.396 68.1287 143.781 68.1287 144.22C68.1287 144.897 68.2804 145.436 68.5837 145.837C68.8917 146.234 69.3421 146.432 69.9347 146.432ZM78.3761 148.21C77.6807 148.21 77.0717 148.035 76.5491 147.685C76.0264 147.335 75.6181 146.859 75.3241 146.257C75.0347 145.655 74.8901 144.976 74.8901 144.22C74.8901 143.45 75.0371 142.766 75.3311 142.169C75.6297 141.567 76.0474 141.093 76.5841 140.748C77.1207 140.403 77.7507 140.23 78.4741 140.23C79.1927 140.23 79.7971 140.405 80.2871 140.755C80.7771 141.105 81.1481 141.581 81.4001 142.183C81.6521 142.785 81.7781 143.464 81.7781 144.22C81.7781 144.976 81.6497 145.655 81.3931 146.257C81.1411 146.859 80.7631 147.335 80.2591 147.685C79.7551 148.035 79.1274 148.21 78.3761 148.21ZM78.6841 146.516C79.1087 146.516 79.4471 146.42 79.6991 146.229C79.9557 146.038 80.1401 145.769 80.2521 145.424C80.3641 145.079 80.4201 144.677 80.4201 144.22C80.4201 143.763 80.3641 143.361 80.2521 143.016C80.1401 142.671 79.9604 142.402 79.7131 142.211C79.4704 142.02 79.1507 141.924 78.7541 141.924C78.3294 141.924 77.9794 142.029 77.7041 142.239C77.4334 142.444 77.2327 142.722 77.1021 143.072C76.9714 143.417 76.9061 143.8 76.9061 144.22C76.9061 144.645 76.9691 145.032 77.0951 145.382C77.2211 145.727 77.4147 146.003 77.6761 146.208C77.9374 146.413 78.2734 146.516 78.6841 146.516ZM80.4201 148V142.82H80.1821V137.92H82.1001V148H80.4201ZM86.8741 148.224C86.2814 148.224 85.7984 148.124 85.4251 147.923C85.0517 147.722 84.7601 147.468 84.5501 147.16C84.3447 146.852 84.1977 146.532 84.1091 146.201C84.0204 145.865 83.9667 145.559 83.9481 145.284C83.9294 145.009 83.9201 144.808 83.9201 144.682V140.44H85.8521V144.01C85.8521 144.183 85.8614 144.404 85.8801 144.675C85.8987 144.941 85.9571 145.209 86.0551 145.48C86.1531 145.751 86.3117 145.977 86.5311 146.159C86.7551 146.341 87.0701 146.432 87.4761 146.432C87.6394 146.432 87.8144 146.406 88.0011 146.355C88.1877 146.304 88.3627 146.206 88.5261 146.061C88.6894 145.912 88.8224 145.695 88.9251 145.41C89.0324 145.121 89.0861 144.743 89.0861 144.276L90.1781 144.794C90.1781 145.391 90.0567 145.951 89.8141 146.474C89.5714 146.997 89.2051 147.419 88.7151 147.741C88.2297 148.063 87.6161 148.224 86.8741 148.224ZM89.3241 148V145.494H89.0861V140.44H91.0041V148H89.3241ZM96.2925 148.21C95.5085 148.21 94.8365 148.035 94.2765 147.685C93.7165 147.335 93.2871 146.859 92.9885 146.257C92.6898 145.655 92.5405 144.976 92.5405 144.22C92.5405 143.455 92.6945 142.771 93.0025 142.169C93.3151 141.567 93.7538 141.093 94.3185 140.748C94.8831 140.403 95.5505 140.23 96.3205 140.23C97.2118 140.23 97.9585 140.456 98.5605 140.909C99.1671 141.357 99.5545 141.971 99.7225 142.75L97.8185 143.254C97.7065 142.862 97.5105 142.556 97.2305 142.337C96.9551 142.118 96.6425 142.008 96.2925 142.008C95.8911 142.008 95.5621 142.106 95.3055 142.302C95.0488 142.493 94.8598 142.757 94.7385 143.093C94.6171 143.424 94.5565 143.8 94.5565 144.22C94.5565 144.878 94.7011 145.412 94.9905 145.823C95.2845 146.229 95.7185 146.432 96.2925 146.432C96.7218 146.432 97.0485 146.334 97.2725 146.138C97.4965 145.942 97.6645 145.662 97.7765 145.298L99.7225 145.704C99.5078 146.507 99.1018 147.125 98.5045 147.559C97.9071 147.993 97.1698 148.21 96.2925 148.21ZM105.659 148C105.136 148.098 104.623 148.14 104.119 148.126C103.619 148.117 103.171 148.03 102.775 147.867C102.383 147.699 102.084 147.431 101.879 147.062C101.692 146.717 101.594 146.367 101.585 146.012C101.575 145.653 101.571 145.247 101.571 144.794V138.34H103.475V144.682C103.475 144.976 103.477 145.242 103.482 145.48C103.491 145.713 103.54 145.9 103.629 146.04C103.797 146.306 104.065 146.451 104.434 146.474C104.802 146.497 105.211 146.479 105.659 146.418V148ZM100.283 141.91V140.44H105.659V141.91H100.283ZM132.549 148V143.534C132.549 143.035 132.43 142.647 132.192 142.372C131.958 142.092 131.634 141.952 131.219 141.952C130.953 141.952 130.722 142.015 130.526 142.141C130.33 142.262 130.176 142.435 130.064 142.659C129.956 142.878 129.903 143.133 129.903 143.422L129.105 142.89C129.105 142.372 129.226 141.915 129.469 141.518C129.716 141.121 130.045 140.813 130.456 140.594C130.871 140.37 131.331 140.258 131.835 140.258C132.698 140.258 133.349 140.515 133.788 141.028C134.231 141.537 134.453 142.204 134.453 143.03V148H132.549ZM123.435 148V140.44H125.115V142.946H125.353V148H123.435ZM127.999 148V143.534C127.999 143.035 127.88 142.647 127.642 142.372C127.408 142.092 127.084 141.952 126.669 141.952C126.272 141.952 125.952 142.09 125.71 142.365C125.472 142.636 125.353 142.988 125.353 143.422L124.555 142.862C124.555 142.367 124.678 141.924 124.926 141.532C125.173 141.14 125.504 140.83 125.92 140.601C126.34 140.372 126.809 140.258 127.327 140.258C127.919 140.258 128.405 140.384 128.783 140.636C129.165 140.888 129.448 141.224 129.63 141.644C129.812 142.064 129.903 142.526 129.903 143.03V148H127.999ZM139.087 148.224C138.494 148.224 138.011 148.124 137.638 147.923C137.265 147.722 136.973 147.468 136.763 147.16C136.558 146.852 136.411 146.532 136.322 146.201C136.233 145.865 136.18 145.559 136.161 145.284C136.142 145.009 136.133 144.808 136.133 144.682V140.44H138.065V144.01C138.065 144.183 138.074 144.404 138.093 144.675C138.112 144.941 138.17 145.209 138.268 145.48C138.366 145.751 138.525 145.977 138.744 146.159C138.968 146.341 139.283 146.432 139.689 146.432C139.852 146.432 140.027 146.406 140.214 146.355C140.401 146.304 140.576 146.206 140.739 146.061C140.902 145.912 141.035 145.695 141.138 145.41C141.245 145.121 141.299 144.743 141.299 144.276L142.391 144.794C142.391 145.391 142.27 145.951 142.027 146.474C141.784 146.997 141.418 147.419 140.928 147.741C140.443 148.063 139.829 148.224 139.087 148.224ZM141.537 148V145.494H141.299V140.44H143.217V148H141.537ZM145.313 148V137.71H147.217V148H145.313ZM153.852 148C153.329 148.098 152.816 148.14 152.312 148.126C151.813 148.117 151.365 148.03 150.968 147.867C150.576 147.699 150.277 147.431 150.072 147.062C149.885 146.717 149.787 146.367 149.778 146.012C149.769 145.653 149.764 145.247 149.764 144.794V138.34H151.668V144.682C151.668 144.976 151.67 145.242 151.675 145.48C151.684 145.713 151.733 145.9 151.822 146.04C151.99 146.306 152.258 146.451 152.627 146.474C152.996 146.497 153.404 146.479 153.852 146.418V148ZM148.476 141.91V140.44H153.852V141.91H148.476ZM155.677 139.39V137.71H157.581V139.39H155.677ZM155.677 148V140.44H157.581V148H155.677ZM163.389 148.21C162.638 148.21 162.01 148.035 161.506 147.685C161.002 147.335 160.622 146.859 160.365 146.257C160.113 145.655 159.987 144.976 159.987 144.22C159.987 143.464 160.113 142.785 160.365 142.183C160.617 141.581 160.988 141.105 161.478 140.755C161.968 140.405 162.573 140.23 163.291 140.23C164.015 140.23 164.645 140.403 165.181 140.748C165.718 141.093 166.133 141.567 166.427 142.169C166.726 142.766 166.875 143.45 166.875 144.22C166.875 144.976 166.728 145.655 166.434 146.257C166.145 146.859 165.739 147.335 165.216 147.685C164.694 148.035 164.085 148.21 163.389 148.21ZM159.665 151.36V140.44H161.345V145.62H161.583V151.36H159.665ZM163.081 146.516C163.492 146.516 163.828 146.413 164.089 146.208C164.351 146.003 164.544 145.727 164.67 145.382C164.796 145.032 164.859 144.645 164.859 144.22C164.859 143.8 164.794 143.417 164.663 143.072C164.533 142.722 164.33 142.444 164.054 142.239C163.784 142.029 163.436 141.924 163.011 141.924C162.615 141.924 162.293 142.02 162.045 142.211C161.803 142.402 161.625 142.671 161.513 143.016C161.401 143.361 161.345 143.763 161.345 144.22C161.345 144.677 161.401 145.079 161.513 145.424C161.625 145.769 161.807 146.038 162.059 146.229C162.316 146.42 162.657 146.516 163.081 146.516ZM168.556 148V137.71H170.46V148H168.556ZM173.524 151.36L174.98 147.356L175.008 148.532L171.718 140.44H173.692L175.904 146.166H175.456L177.654 140.44H179.558L175.288 151.36H173.524ZM121.253 171.21C120.501 171.21 119.874 171.035 119.37 170.685C118.866 170.335 118.485 169.859 118.229 169.257C117.977 168.655 117.851 167.976 117.851 167.22C117.851 166.464 117.977 165.785 118.229 165.183C118.481 164.581 118.852 164.105 119.342 163.755C119.832 163.405 120.436 163.23 121.155 163.23C121.878 163.23 122.508 163.403 123.045 163.748C123.581 164.093 123.997 164.567 124.291 165.169C124.589 165.766 124.739 166.45 124.739 167.22C124.739 167.976 124.592 168.655 124.298 169.257C124.008 169.859 123.602 170.335 123.08 170.685C122.557 171.035 121.948 171.21 121.253 171.21ZM117.529 174.36V163.44H119.209V168.62H119.447V174.36H117.529ZM120.945 169.516C121.355 169.516 121.691 169.413 121.953 169.208C122.214 169.003 122.408 168.727 122.534 168.382C122.66 168.032 122.723 167.645 122.723 167.22C122.723 166.8 122.657 166.417 122.527 166.072C122.396 165.722 122.193 165.444 121.918 165.239C121.647 165.029 121.299 164.924 120.875 164.924C120.478 164.924 120.156 165.02 119.909 165.211C119.666 165.402 119.489 165.671 119.377 166.016C119.265 166.361 119.209 166.763 119.209 167.22C119.209 167.677 119.265 168.079 119.377 168.424C119.489 168.769 119.671 169.038 119.923 169.229C120.179 169.42 120.52 169.516 120.945 169.516ZM126.279 171V163.44H127.959V165.288L127.777 165.05C127.875 164.789 128.005 164.551 128.169 164.336C128.332 164.121 128.533 163.944 128.771 163.804C128.953 163.692 129.151 163.606 129.366 163.545C129.58 163.48 129.802 163.44 130.031 163.426C130.259 163.407 130.488 163.412 130.717 163.44V165.218C130.507 165.153 130.262 165.132 129.982 165.155C129.706 165.174 129.457 165.237 129.233 165.344C129.009 165.447 128.82 165.584 128.666 165.757C128.512 165.925 128.395 166.126 128.316 166.359C128.236 166.588 128.197 166.847 128.197 167.136V171H126.279ZM135.314 171.21C134.553 171.21 133.886 171.04 133.312 170.699C132.738 170.358 132.29 169.889 131.968 169.292C131.65 168.69 131.492 167.999 131.492 167.22C131.492 166.431 131.655 165.738 131.982 165.141C132.308 164.539 132.759 164.07 133.333 163.734C133.907 163.398 134.567 163.23 135.314 163.23C136.074 163.23 136.742 163.4 137.316 163.741C137.894 164.082 138.345 164.553 138.667 165.155C138.989 165.752 139.15 166.441 139.15 167.22C139.15 168.004 138.986 168.697 138.66 169.299C138.338 169.896 137.887 170.365 137.309 170.706C136.735 171.042 136.07 171.21 135.314 171.21ZM135.314 169.432C135.925 169.432 136.38 169.227 136.679 168.816C136.982 168.401 137.134 167.869 137.134 167.22C137.134 166.548 136.98 166.011 136.672 165.61C136.368 165.209 135.916 165.008 135.314 165.008C134.898 165.008 134.558 165.101 134.292 165.288C134.026 165.475 133.827 165.734 133.697 166.065C133.571 166.396 133.508 166.781 133.508 167.22C133.508 167.897 133.659 168.436 133.963 168.837C134.271 169.234 134.721 169.432 135.314 169.432ZM143.755 171.21C143.06 171.21 142.451 171.035 141.928 170.685C141.405 170.335 140.997 169.859 140.703 169.257C140.414 168.655 140.269 167.976 140.269 167.22C140.269 166.45 140.416 165.766 140.71 165.169C141.009 164.567 141.426 164.093 141.963 163.748C142.5 163.403 143.13 163.23 143.853 163.23C144.572 163.23 145.176 163.405 145.666 163.755C146.156 164.105 146.527 164.581 146.779 165.183C147.031 165.785 147.157 166.464 147.157 167.22C147.157 167.976 147.029 168.655 146.772 169.257C146.52 169.859 146.142 170.335 145.638 170.685C145.134 171.035 144.506 171.21 143.755 171.21ZM144.063 169.516C144.488 169.516 144.826 169.42 145.078 169.229C145.335 169.038 145.519 168.769 145.631 168.424C145.743 168.079 145.799 167.677 145.799 167.22C145.799 166.763 145.743 166.361 145.631 166.016C145.519 165.671 145.339 165.402 145.092 165.211C144.849 165.02 144.53 164.924 144.133 164.924C143.708 164.924 143.358 165.029 143.083 165.239C142.812 165.444 142.612 165.722 142.481 166.072C142.35 166.417 142.285 166.8 142.285 167.22C142.285 167.645 142.348 168.032 142.474 168.382C142.6 168.727 142.794 169.003 143.055 169.208C143.316 169.413 143.652 169.516 144.063 169.516ZM145.799 171V165.82H145.561V160.92H147.479V171H145.799ZM152.253 171.224C151.66 171.224 151.177 171.124 150.804 170.923C150.431 170.722 150.139 170.468 149.929 170.16C149.724 169.852 149.577 169.532 149.488 169.201C149.399 168.865 149.346 168.559 149.327 168.284C149.308 168.009 149.299 167.808 149.299 167.682V163.44H151.231V167.01C151.231 167.183 151.24 167.404 151.259 167.675C151.278 167.941 151.336 168.209 151.434 168.48C151.532 168.751 151.691 168.977 151.91 169.159C152.134 169.341 152.449 169.432 152.855 169.432C153.018 169.432 153.193 169.406 153.38 169.355C153.567 169.304 153.742 169.206 153.905 169.061C154.068 168.912 154.201 168.695 154.304 168.41C154.411 168.121 154.465 167.743 154.465 167.276L155.557 167.794C155.557 168.391 155.436 168.951 155.193 169.474C154.95 169.997 154.584 170.419 154.094 170.741C153.609 171.063 152.995 171.224 152.253 171.224ZM154.703 171V168.494H154.465V163.44H156.383V171H154.703ZM161.671 171.21C160.887 171.21 160.215 171.035 159.655 170.685C159.095 170.335 158.666 169.859 158.367 169.257C158.069 168.655 157.919 167.976 157.919 167.22C157.919 166.455 158.073 165.771 158.381 165.169C158.694 164.567 159.133 164.093 159.697 163.748C160.262 163.403 160.929 163.23 161.699 163.23C162.591 163.23 163.337 163.456 163.939 163.909C164.546 164.357 164.933 164.971 165.101 165.75L163.197 166.254C163.085 165.862 162.889 165.556 162.609 165.337C162.334 165.118 162.021 165.008 161.671 165.008C161.27 165.008 160.941 165.106 160.684 165.302C160.428 165.493 160.239 165.757 160.117 166.093C159.996 166.424 159.935 166.8 159.935 167.22C159.935 167.878 160.08 168.412 160.369 168.823C160.663 169.229 161.097 169.432 161.671 169.432C162.101 169.432 162.427 169.334 162.651 169.138C162.875 168.942 163.043 168.662 163.155 168.298L165.101 168.704C164.887 169.507 164.481 170.125 163.883 170.559C163.286 170.993 162.549 171.21 161.671 171.21ZM171.037 171C170.515 171.098 170.001 171.14 169.497 171.126C168.998 171.117 168.55 171.03 168.153 170.867C167.761 170.699 167.463 170.431 167.257 170.062C167.071 169.717 166.973 169.367 166.963 169.012C166.954 168.653 166.949 168.247 166.949 167.794V161.34H168.853V167.682C168.853 167.976 168.856 168.242 168.86 168.48C168.87 168.713 168.919 168.9 169.007 169.04C169.175 169.306 169.444 169.451 169.812 169.474C170.181 169.497 170.589 169.479 171.037 169.418V171ZM165.661 164.91V163.44H171.037V164.91H165.661Z" fill="#FFD966"/>
<path d="M157.937 56.21C157.396 56.21 156.936 56.1073 156.558 55.902C156.185 55.692 155.9 55.4143 155.704 55.069C155.513 54.719 155.417 54.334 155.417 53.914C155.417 53.564 155.471 53.2443 155.578 52.955C155.686 52.6657 155.858 52.4113 156.096 52.192C156.339 51.968 156.663 51.7813 157.069 51.632C157.349 51.5293 157.683 51.4383 158.07 51.359C158.458 51.2797 158.896 51.205 159.386 51.135C159.876 51.0603 160.415 50.9787 161.003 50.89L160.317 51.268C160.317 50.82 160.21 50.491 159.995 50.281C159.781 50.071 159.421 49.966 158.917 49.966C158.637 49.966 158.346 50.0337 158.042 50.169C157.739 50.3043 157.527 50.5447 157.405 50.89L155.683 50.344C155.875 49.7187 156.234 49.21 156.761 48.818C157.289 48.426 158.007 48.23 158.917 48.23C159.585 48.23 160.177 48.3327 160.695 48.538C161.213 48.7433 161.605 49.098 161.871 49.602C162.021 49.882 162.109 50.162 162.137 50.442C162.165 50.722 162.179 51.0347 162.179 51.38V56H160.513V54.446L160.751 54.768C160.383 55.2767 159.984 55.6453 159.554 55.874C159.13 56.098 158.591 56.21 157.937 56.21ZM158.343 54.712C158.693 54.712 158.987 54.6513 159.225 54.53C159.468 54.404 159.659 54.2617 159.799 54.103C159.944 53.9443 160.042 53.8113 160.093 53.704C160.191 53.4987 160.247 53.2607 160.261 52.99C160.28 52.7147 160.289 52.486 160.289 52.304L160.849 52.444C160.285 52.5373 159.827 52.6167 159.477 52.682C159.127 52.7427 158.845 52.7987 158.63 52.85C158.416 52.9013 158.227 52.9573 158.063 53.018C157.877 53.0927 157.725 53.1743 157.608 53.263C157.496 53.347 157.412 53.4403 157.356 53.543C157.305 53.6457 157.279 53.76 157.279 53.886C157.279 54.0587 157.321 54.208 157.405 54.334C157.494 54.4553 157.618 54.5487 157.776 54.614C157.935 54.6793 158.124 54.712 158.343 54.712ZM163.86 57.89L163.972 57.092C164.196 57.1107 164.378 57.0733 164.518 56.98C164.658 56.8913 164.753 56.7607 164.805 56.588C164.861 56.42 164.872 56.224 164.84 56H163.86V54.096H165.764V56C165.764 56.672 165.607 57.1807 165.295 57.526C164.982 57.8713 164.504 57.9927 163.86 57.89ZM174.942 56.21C174.191 56.21 173.563 56.035 173.059 55.685C172.555 55.335 172.175 54.859 171.918 54.257C171.666 53.655 171.54 52.976 171.54 52.22C171.54 51.464 171.666 50.785 171.918 50.183C172.17 49.581 172.541 49.105 173.031 48.755C173.521 48.405 174.125 48.23 174.844 48.23C175.567 48.23 176.197 48.4027 176.734 48.748C177.271 49.0933 177.686 49.567 177.98 50.169C178.279 50.7663 178.428 51.45 178.428 52.22C178.428 52.976 178.281 53.655 177.987 54.257C177.698 54.859 177.292 55.335 176.769 55.685C176.246 56.035 175.637 56.21 174.942 56.21ZM171.218 56V45.92H173.136V50.82H172.898V56H171.218ZM174.634 54.516C175.045 54.516 175.381 54.4133 175.642 54.208C175.903 54.0027 176.097 53.7273 176.223 53.382C176.349 53.032 176.412 52.6447 176.412 52.22C176.412 51.8 176.347 51.4173 176.216 51.072C176.085 50.722 175.882 50.4443 175.607 50.239C175.336 50.029 174.989 49.924 174.564 49.924C174.167 49.924 173.845 50.0197 173.598 50.211C173.355 50.4023 173.178 50.6707 173.066 51.016C172.954 51.3613 172.898 51.7627 172.898 52.22C172.898 52.6773 172.954 53.0787 173.066 53.424C173.178 53.7693 173.36 54.0377 173.612 54.229C173.869 54.4203 174.209 54.516 174.634 54.516ZM191.111 148V146.432H186.729V144.654L189.907 137.92H192.091L188.913 144.654H191.111V142.134H193.043V144.654H193.939V146.432H193.043V148H191.111ZM195.209 149.89L195.321 149.092C195.545 149.111 195.727 149.073 195.867 148.98C196.007 148.891 196.103 148.761 196.154 148.588C196.21 148.42 196.222 148.224 196.189 148H195.209V146.096H197.113V148C197.113 148.672 196.957 149.181 196.644 149.526C196.331 149.871 195.853 149.993 195.209 149.89ZM205.578 148.21C205.069 148.21 204.591 148.105 204.143 147.895C203.699 147.685 203.317 147.393 202.995 147.02C202.673 146.647 202.442 146.213 202.302 145.718L204.136 145.228C204.196 145.466 204.304 145.671 204.458 145.844C204.616 146.017 204.798 146.152 205.004 146.25C205.214 146.343 205.428 146.39 205.648 146.39C205.937 146.39 206.201 146.32 206.439 146.18C206.681 146.04 206.873 145.851 207.013 145.613C207.157 145.375 207.23 145.111 207.23 144.822C207.23 144.533 207.157 144.269 207.013 144.031C206.873 143.793 206.681 143.604 206.439 143.464C206.201 143.324 205.937 143.254 205.648 143.254C205.293 143.254 205.004 143.315 204.78 143.436C204.556 143.553 204.388 143.665 204.276 143.772L202.666 143.282L202.974 137.92H208.476V139.698H204.024L204.696 139.068L204.486 142.526L204.164 142.134C204.416 141.929 204.703 141.779 205.025 141.686C205.347 141.593 205.648 141.546 205.928 141.546C206.562 141.546 207.12 141.688 207.601 141.973C208.086 142.253 208.464 142.64 208.735 143.135C209.01 143.625 209.148 144.187 209.148 144.822C209.148 145.457 208.982 146.031 208.651 146.544C208.319 147.053 207.883 147.459 207.342 147.762C206.8 148.061 206.212 148.21 205.578 148.21Z" fill="#787DF7"/>
<rect x="27.5" y="198" width="217" height="69" rx="7" fill="#282525" stroke="#777777" stroke-width="2"/>
<path d="M52.9535 223.21C51.9455 223.21 51.0751 222.991 50.3425 222.552C49.6145 222.113 49.0521 221.5 48.6555 220.711C48.2635 219.922 48.0675 219.005 48.0675 217.96C48.0675 216.915 48.2635 215.998 48.6555 215.209C49.0521 214.42 49.6145 213.807 50.3425 213.368C51.0751 212.929 51.9455 212.71 52.9535 212.71C54.1108 212.71 55.0815 212.997 55.8655 213.571C56.6541 214.145 57.2095 214.922 57.5315 215.902L55.6135 216.434C55.4268 215.823 55.1118 215.349 54.6685 215.013C54.2251 214.672 53.6535 214.502 52.9535 214.502C52.3141 214.502 51.7798 214.644 51.3505 214.929C50.9258 215.214 50.6061 215.615 50.3915 216.133C50.1768 216.651 50.0695 217.26 50.0695 217.96C50.0695 218.66 50.1768 219.269 50.3915 219.787C50.6061 220.305 50.9258 220.706 51.3505 220.991C51.7798 221.276 52.3141 221.418 52.9535 221.418C53.6535 221.418 54.2251 221.248 54.6685 220.907C55.1118 220.566 55.4268 220.093 55.6135 219.486L57.5315 220.018C57.2095 220.998 56.6541 221.775 55.8655 222.349C55.0815 222.923 54.1108 223.21 52.9535 223.21ZM62.4748 223.21C61.7141 223.21 61.0468 223.04 60.4728 222.699C59.8988 222.358 59.4508 221.889 59.1288 221.292C58.8114 220.69 58.6528 219.999 58.6528 219.22C58.6528 218.431 58.8161 217.738 59.1428 217.141C59.4694 216.539 59.9198 216.07 60.4938 215.734C61.0678 215.398 61.7281 215.23 62.4748 215.23C63.2354 215.23 63.9028 215.4 64.4768 215.741C65.0554 216.082 65.5058 216.553 65.8278 217.155C66.1498 217.752 66.3108 218.441 66.3108 219.22C66.3108 220.004 66.1474 220.697 65.8208 221.299C65.4988 221.896 65.0484 222.365 64.4698 222.706C63.8958 223.042 63.2308 223.21 62.4748 223.21ZM62.4748 221.432C63.0861 221.432 63.5411 221.227 63.8398 220.816C64.1431 220.401 64.2948 219.869 64.2948 219.22C64.2948 218.548 64.1408 218.011 63.8328 217.61C63.5294 217.209 63.0768 217.008 62.4748 217.008C62.0594 217.008 61.7188 217.101 61.4528 217.288C61.1868 217.475 60.9884 217.734 60.8578 218.065C60.7318 218.396 60.6688 218.781 60.6688 219.22C60.6688 219.897 60.8204 220.436 61.1238 220.837C61.4318 221.234 61.8821 221.432 62.4748 221.432ZM73.0021 223V219.43C73.0021 219.257 72.9928 219.038 72.9741 218.772C72.9555 218.501 72.8971 218.231 72.7991 217.96C72.7011 217.689 72.5401 217.463 72.3161 217.281C72.0968 217.099 71.7841 217.008 71.3781 217.008C71.2148 217.008 71.0398 217.034 70.8531 217.085C70.6665 217.136 70.4915 217.237 70.3281 217.386C70.1648 217.531 70.0295 217.745 69.9221 218.03C69.8195 218.315 69.7681 218.693 69.7681 219.164L68.6761 218.646C68.6761 218.049 68.7975 217.489 69.0401 216.966C69.2828 216.443 69.6468 216.021 70.1321 215.699C70.6221 215.377 71.2381 215.216 71.9801 215.216C72.5728 215.216 73.0558 215.316 73.4291 215.517C73.8025 215.718 74.0918 215.972 74.2971 216.28C74.5071 216.588 74.6565 216.91 74.7451 217.246C74.8338 217.577 74.8875 217.881 74.9061 218.156C74.9248 218.431 74.9341 218.632 74.9341 218.758V223H73.0021ZM67.8361 223V215.44H69.5301V217.946H69.7681V223H67.8361ZM79.7045 223.21C78.7525 223.21 77.9825 222.995 77.3945 222.566C76.8112 222.132 76.4565 221.521 76.3305 220.732L78.2765 220.438C78.3558 220.793 78.5308 221.07 78.8015 221.271C79.0768 221.472 79.4245 221.572 79.8445 221.572C80.1898 221.572 80.4558 221.507 80.6425 221.376C80.8292 221.241 80.9225 221.054 80.9225 220.816C80.9225 220.667 80.8852 220.548 80.8105 220.459C80.7358 220.366 80.5678 220.275 80.3065 220.186C80.0498 220.097 79.6485 219.981 79.1025 219.836C78.4865 219.677 77.9942 219.5 77.6255 219.304C77.2568 219.108 76.9908 218.875 76.8275 218.604C76.6642 218.329 76.5825 217.997 76.5825 217.61C76.5825 217.125 76.7062 216.705 76.9535 216.35C77.2008 215.991 77.5485 215.715 77.9965 215.524C78.4492 215.328 78.9812 215.23 79.5925 215.23C80.1852 215.23 80.7102 215.321 81.1675 215.503C81.6248 215.685 81.9935 215.944 82.2735 216.28C82.5582 216.616 82.7332 217.013 82.7985 217.47L80.8525 217.82C80.8198 217.54 80.6985 217.318 80.4885 217.155C80.2785 216.992 79.9938 216.896 79.6345 216.868C79.2845 216.845 79.0022 216.891 78.7875 217.008C78.5775 217.125 78.4725 217.293 78.4725 217.512C78.4725 217.643 78.5168 217.752 78.6055 217.841C78.6988 217.93 78.8878 218.021 79.1725 218.114C79.4618 218.207 79.9005 218.329 80.4885 218.478C81.0625 218.627 81.5222 218.802 81.8675 219.003C82.2175 219.199 82.4718 219.437 82.6305 219.717C82.7892 219.992 82.8685 220.326 82.8685 220.718C82.8685 221.493 82.5885 222.102 82.0285 222.545C81.4685 222.988 80.6938 223.21 79.7045 223.21ZM87.8088 223.21C87.0481 223.21 86.3808 223.04 85.8068 222.699C85.2328 222.358 84.7848 221.889 84.4628 221.292C84.1454 220.69 83.9868 219.999 83.9868 219.22C83.9868 218.431 84.1501 217.738 84.4768 217.141C84.8034 216.539 85.2538 216.07 85.8278 215.734C86.4018 215.398 87.0621 215.23 87.8088 215.23C88.5694 215.23 89.2368 215.4 89.8108 215.741C90.3894 216.082 90.8398 216.553 91.1618 217.155C91.4838 217.752 91.6448 218.441 91.6448 219.22C91.6448 220.004 91.4814 220.697 91.1548 221.299C90.8328 221.896 90.3824 222.365 89.8038 222.706C89.2298 223.042 88.5648 223.21 87.8088 223.21ZM87.8088 221.432C88.4201 221.432 88.8751 221.227 89.1738 220.816C89.4771 220.401 89.6288 219.869 89.6288 219.22C89.6288 218.548 89.4748 218.011 89.1668 217.61C88.8634 217.209 88.4108 217.008 87.8088 217.008C87.3934 217.008 87.0528 217.101 86.7868 217.288C86.5208 217.475 86.3224 217.734 86.1918 218.065C86.0658 218.396 86.0028 218.781 86.0028 219.22C86.0028 219.897 86.1544 220.436 86.4578 220.837C86.7658 221.234 87.2161 221.432 87.8088 221.432ZM93.3241 223V212.71H95.2281V223H93.3241ZM100.841 223.21C100.066 223.21 99.3823 223.044 98.7897 222.713C98.2017 222.377 97.7397 221.917 97.4037 221.334C97.0723 220.746 96.9067 220.074 96.9067 219.318C96.9067 218.492 97.07 217.773 97.3967 217.162C97.7233 216.551 98.1737 216.077 98.7477 215.741C99.3217 215.4 99.982 215.23 100.729 215.23C101.522 215.23 102.196 215.417 102.752 215.79C103.307 216.163 103.718 216.688 103.984 217.365C104.25 218.042 104.343 218.837 104.264 219.752H102.381V219.052C102.381 218.282 102.257 217.729 102.01 217.393C101.767 217.052 101.368 216.882 100.813 216.882C100.164 216.882 99.6857 217.08 99.3777 217.477C99.0743 217.869 98.9227 218.45 98.9227 219.22C98.9227 219.925 99.0743 220.471 99.3777 220.858C99.6857 221.241 100.136 221.432 100.729 221.432C101.102 221.432 101.422 221.35 101.688 221.187C101.954 221.024 102.157 220.788 102.297 220.48L104.201 221.026C103.916 221.717 103.466 222.253 102.85 222.636C102.238 223.019 101.569 223.21 100.841 223.21ZM98.3347 219.752V218.338H103.347V219.752H98.3347Z" fill="white"/>
<path d="M48.2 249.993L48.207 248.873L52.68 244.848C53.0533 244.512 53.303 244.195 53.429 243.896C53.5597 243.593 53.625 243.282 53.625 242.965C53.625 242.578 53.5363 242.228 53.359 241.915C53.1817 241.602 52.939 241.355 52.631 241.173C52.3277 240.991 51.9823 240.9 51.595 240.9C51.1937 240.9 50.8367 240.996 50.524 241.187C50.2113 241.374 49.964 241.623 49.782 241.936C49.6047 242.249 49.5183 242.589 49.523 242.958H48.249C48.249 242.323 48.396 241.763 48.69 241.278C48.984 240.788 49.383 240.405 49.887 240.13C50.3957 239.85 50.972 239.71 51.616 239.71C52.2413 239.71 52.8013 239.855 53.296 240.144C53.7907 240.429 54.1803 240.818 54.465 241.313C54.7543 241.803 54.899 242.358 54.899 242.979C54.899 243.418 54.843 243.798 54.731 244.12C54.6237 244.442 54.4557 244.741 54.227 245.016C53.9983 245.287 53.7113 245.576 53.366 245.884L49.649 249.223L49.488 248.803H54.899V249.993H48.2ZM59.9758 250.21C59.3224 250.21 58.7391 250.063 58.2258 249.769C57.7171 249.47 57.3134 249.067 57.0148 248.558C56.7208 248.045 56.5738 247.461 56.5738 246.808V243.112C56.5738 242.459 56.7208 241.875 57.0148 241.362C57.3134 240.849 57.7171 240.445 58.2258 240.151C58.7391 239.857 59.3224 239.71 59.9758 239.71C60.6291 239.71 61.2124 239.857 61.7258 240.151C62.2391 240.445 62.6428 240.849 62.9368 241.362C63.2308 241.875 63.3778 242.459 63.3778 243.112V246.808C63.3778 247.461 63.2308 248.045 62.9368 248.558C62.6428 249.067 62.2391 249.47 61.7258 249.769C61.2124 250.063 60.6291 250.21 59.9758 250.21ZM59.9758 249.013C60.3724 249.013 60.7318 248.917 61.0538 248.726C61.3758 248.535 61.6324 248.278 61.8238 247.956C62.0151 247.629 62.1108 247.27 62.1108 246.878V243.035C62.1108 242.638 62.0151 242.279 61.8238 241.957C61.6324 241.635 61.3758 241.378 61.0538 241.187C60.7318 240.996 60.3724 240.9 59.9758 240.9C59.5838 240.9 59.2244 240.996 58.8978 241.187C58.5758 241.378 58.3191 241.635 58.1278 241.957C57.9364 242.279 57.8408 242.638 57.8408 243.035V246.878C57.8408 247.27 57.9364 247.629 58.1278 247.956C58.3191 248.278 58.5758 248.535 58.8978 248.726C59.2244 248.917 59.5838 249.013 59.9758 249.013Z" fill="#FCFCFC"/>
<path d="M223.69 17.21C222.939 17.21 222.311 17.035 221.807 16.685C221.303 16.335 220.923 15.859 220.666 15.257C220.414 14.655 220.288 13.976 220.288 13.22C220.288 12.464 220.414 11.785 220.666 11.183C220.918 10.581 221.289 10.105 221.779 9.755C222.269 9.405 222.873 9.23 223.592 9.23C224.315 9.23 224.945 9.40267 225.482 9.748C226.019 10.0933 226.434 10.567 226.728 11.169C227.027 11.7663 227.176 12.45 227.176 13.22C227.176 13.976 227.029 14.655 226.735 15.257C226.446 15.859 226.04 16.335 225.517 16.685C224.994 17.035 224.385 17.21 223.69 17.21ZM219.966 20.36V9.44H221.646V14.62H221.884V20.36H219.966ZM223.382 15.516C223.793 15.516 224.129 15.4133 224.39 15.208C224.651 15.0027 224.845 14.7273 224.971 14.382C225.097 14.032 225.16 13.6447 225.16 13.22C225.16 12.8 225.095 12.4173 224.964 12.072C224.833 11.722 224.63 11.4443 224.355 11.239C224.084 11.029 223.737 10.924 223.312 10.924C222.915 10.924 222.593 11.0197 222.346 11.211C222.103 11.4023 221.926 11.6707 221.814 12.016C221.702 12.3613 221.646 12.7627 221.646 13.22C221.646 13.6773 221.702 14.0787 221.814 14.424C221.926 14.7693 222.108 15.0377 222.36 15.229C222.617 15.4203 222.957 15.516 223.382 15.516ZM230.816 17.21C230.275 17.21 229.815 17.1073 229.437 16.902C229.064 16.692 228.779 16.4143 228.583 16.069C228.392 15.719 228.296 15.334 228.296 14.914C228.296 14.564 228.35 14.2443 228.457 13.955C228.565 13.6657 228.737 13.4113 228.975 13.192C229.218 12.968 229.542 12.7813 229.948 12.632C230.228 12.5293 230.562 12.4383 230.949 12.359C231.337 12.2797 231.775 12.205 232.265 12.135C232.755 12.0603 233.294 11.9787 233.882 11.89L233.196 12.268C233.196 11.82 233.089 11.491 232.874 11.281C232.66 11.071 232.3 10.966 231.796 10.966C231.516 10.966 231.225 11.0337 230.921 11.169C230.618 11.3043 230.406 11.5447 230.284 11.89L228.562 11.344C228.754 10.7187 229.113 10.21 229.64 9.818C230.168 9.426 230.886 9.23 231.796 9.23C232.464 9.23 233.056 9.33267 233.574 9.538C234.092 9.74333 234.484 10.098 234.75 10.602C234.9 10.882 234.988 11.162 235.016 11.442C235.044 11.722 235.058 12.0347 235.058 12.38V17H233.392V15.446L233.63 15.768C233.262 16.2767 232.863 16.6453 232.433 16.874C232.009 17.098 231.47 17.21 230.816 17.21ZM231.222 15.712C231.572 15.712 231.866 15.6513 232.104 15.53C232.347 15.404 232.538 15.2617 232.678 15.103C232.823 14.9443 232.921 14.8113 232.972 14.704C233.07 14.4987 233.126 14.2607 233.14 13.99C233.159 13.7147 233.168 13.486 233.168 13.304L233.728 13.444C233.164 13.5373 232.706 13.6167 232.356 13.682C232.006 13.7427 231.724 13.7987 231.509 13.85C231.295 13.9013 231.106 13.9573 230.942 14.018C230.756 14.0927 230.604 14.1743 230.487 14.263C230.375 14.347 230.291 14.4403 230.235 14.543C230.184 14.6457 230.158 14.76 230.158 14.886C230.158 15.0587 230.2 15.208 230.284 15.334C230.373 15.4553 230.497 15.5487 230.655 15.614C230.814 15.6793 231.003 15.712 231.222 15.712ZM236.878 17V9.44H238.558V11.288L238.376 11.05C238.474 10.7887 238.605 10.5507 238.768 10.336C238.932 10.1213 239.132 9.944 239.37 9.804C239.552 9.692 239.751 9.60567 239.965 9.545C240.18 9.47967 240.402 9.44 240.63 9.426C240.859 9.40733 241.088 9.412 241.316 9.44V11.218C241.106 11.1527 240.861 11.1317 240.581 11.155C240.306 11.1737 240.056 11.2367 239.832 11.344C239.608 11.4467 239.419 11.5843 239.265 11.757C239.111 11.925 238.995 12.1257 238.915 12.359C238.836 12.5877 238.796 12.8467 238.796 13.136V17H236.878ZM244.598 17.21C244.056 17.21 243.597 17.1073 243.219 16.902C242.845 16.692 242.561 16.4143 242.365 16.069C242.173 15.719 242.078 15.334 242.078 14.914C242.078 14.564 242.131 14.2443 242.239 13.955C242.346 13.6657 242.519 13.4113 242.757 13.192C242.999 12.968 243.324 12.7813 243.73 12.632C244.01 12.5293 244.343 12.4383 244.731 12.359C245.118 12.2797 245.557 12.205 246.047 12.135C246.537 12.0603 247.076 11.9787 247.664 11.89L246.978 12.268C246.978 11.82 246.87 11.491 246.656 11.281C246.441 11.071 246.082 10.966 245.578 10.966C245.298 10.966 245.006 11.0337 244.703 11.169C244.399 11.3043 244.187 11.5447 244.066 11.89L242.344 11.344C242.535 10.7187 242.894 10.21 243.422 9.818C243.949 9.426 244.668 9.23 245.578 9.23C246.245 9.23 246.838 9.33267 247.356 9.538C247.874 9.74333 248.266 10.098 248.532 10.602C248.681 10.882 248.77 11.162 248.798 11.442C248.826 11.722 248.84 12.0347 248.84 12.38V17H247.174V15.446L247.412 15.768C247.043 16.2767 246.644 16.6453 246.215 16.874C245.79 17.098 245.251 17.21 244.598 17.21ZM245.004 15.712C245.354 15.712 245.648 15.6513 245.886 15.53C246.128 15.404 246.32 15.2617 246.46 15.103C246.604 14.9443 246.702 14.8113 246.754 14.704C246.852 14.4987 246.908 14.2607 246.922 13.99C246.94 13.7147 246.95 13.486 246.95 13.304L247.51 13.444C246.945 13.5373 246.488 13.6167 246.138 13.682C245.788 13.7427 245.505 13.7987 245.291 13.85C245.076 13.9013 244.887 13.9573 244.724 14.018C244.537 14.0927 244.385 14.1743 244.269 14.263C244.157 14.347 244.073 14.4403 244.017 14.543C243.965 14.6457 243.94 14.76 243.94 14.886C243.94 15.0587 243.982 15.208 244.066 15.334C244.154 15.4553 244.278 15.5487 244.437 15.614C244.595 15.6793 244.784 15.712 245.004 15.712ZM259.76 17V12.534C259.76 12.0347 259.641 11.6473 259.403 11.372C259.169 11.092 258.845 10.952 258.43 10.952C258.164 10.952 257.933 11.015 257.737 11.141C257.541 11.2623 257.387 11.435 257.275 11.659C257.167 11.8783 257.114 12.1327 257.114 12.422L256.316 11.89C256.316 11.372 256.437 10.9147 256.68 10.518C256.927 10.1213 257.256 9.81333 257.667 9.594C258.082 9.37 258.542 9.258 259.046 9.258C259.909 9.258 260.56 9.51467 260.999 10.028C261.442 10.5367 261.664 11.204 261.664 12.03V17H259.76ZM250.646 17V9.44H252.326V11.946H252.564V17H250.646ZM255.21 17V12.534C255.21 12.0347 255.091 11.6473 254.853 11.372C254.619 11.092 254.295 10.952 253.88 10.952C253.483 10.952 253.163 11.0897 252.921 11.365C252.683 11.6357 252.564 11.988 252.564 12.422L251.766 11.862C251.766 11.3673 251.889 10.924 252.137 10.532C252.384 10.14 252.715 9.82967 253.131 9.601C253.551 9.37233 254.02 9.258 254.538 9.258C255.13 9.258 255.616 9.384 255.994 9.636C256.376 9.888 256.659 10.224 256.841 10.644C257.023 11.064 257.114 11.526 257.114 12.03V17H255.21ZM266.861 17.21C266.087 17.21 265.403 17.0443 264.81 16.713C264.222 16.377 263.76 15.9173 263.424 15.334C263.093 14.746 262.927 14.074 262.927 13.318C262.927 12.492 263.091 11.7733 263.417 11.162C263.744 10.5507 264.194 10.077 264.768 9.741C265.342 9.40033 266.003 9.23 266.749 9.23C267.543 9.23 268.217 9.41667 268.772 9.79C269.328 10.1633 269.738 10.6883 270.004 11.365C270.27 12.0417 270.364 12.8373 270.284 13.752H268.401V13.052C268.401 12.282 268.278 11.729 268.03 11.393C267.788 11.0523 267.389 10.882 266.833 10.882C266.185 10.882 265.706 11.0803 265.398 11.477C265.095 11.869 264.943 12.45 264.943 13.22C264.943 13.9247 265.095 14.4707 265.398 14.858C265.706 15.2407 266.157 15.432 266.749 15.432C267.123 15.432 267.442 15.3503 267.708 15.187C267.974 15.0237 268.177 14.788 268.317 14.48L270.221 15.026C269.937 15.7167 269.486 16.2533 268.87 16.636C268.259 17.0187 267.589 17.21 266.861 17.21ZM264.355 13.752V12.338H269.367V13.752H264.355ZM276.401 17C275.878 17.098 275.365 17.14 274.861 17.126C274.361 17.1167 273.913 17.0303 273.517 16.867C273.125 16.699 272.826 16.4307 272.621 16.062C272.434 15.7167 272.336 15.3667 272.327 15.012C272.317 14.6527 272.313 14.2467 272.313 13.794V7.34H274.217V13.682C274.217 13.976 274.219 14.242 274.224 14.48C274.233 14.7133 274.282 14.9 274.371 15.04C274.539 15.306 274.807 15.4507 275.176 15.474C275.544 15.4973 275.953 15.4787 276.401 15.418V17ZM271.025 10.91V9.44H276.401V10.91H271.025ZM281.189 17.21C280.415 17.21 279.731 17.0443 279.138 16.713C278.55 16.377 278.088 15.9173 277.752 15.334C277.421 14.746 277.255 14.074 277.255 13.318C277.255 12.492 277.419 11.7733 277.745 11.162C278.072 10.5507 278.522 10.077 279.096 9.741C279.67 9.40033 280.331 9.23 281.077 9.23C281.871 9.23 282.545 9.41667 283.1 9.79C283.656 10.1633 284.066 10.6883 284.332 11.365C284.598 12.0417 284.692 12.8373 284.612 13.752H282.729V13.052C282.729 12.282 282.606 11.729 282.358 11.393C282.116 11.0523 281.717 10.882 281.161 10.882C280.513 10.882 280.034 11.0803 279.726 11.477C279.423 11.869 279.271 12.45 279.271 13.22C279.271 13.9247 279.423 14.4707 279.726 14.858C280.034 15.2407 280.485 15.432 281.077 15.432C281.451 15.432 281.77 15.3503 282.036 15.187C282.302 15.0237 282.505 14.788 282.645 14.48L284.549 15.026C284.265 15.7167 283.814 16.2533 283.198 16.636C282.587 17.0187 281.917 17.21 281.189 17.21ZM278.683 13.752V12.338H283.695V13.752H278.683ZM286.193 17V9.44H287.873V11.288L287.691 11.05C287.789 10.7887 287.92 10.5507 288.083 10.336C288.246 10.1213 288.447 9.944 288.685 9.804C288.867 9.692 289.065 9.60567 289.28 9.545C289.495 9.47967 289.716 9.44 289.945 9.426C290.174 9.40733 290.402 9.412 290.631 9.44V11.218C290.421 11.1527 290.176 11.1317 289.896 11.155C289.621 11.1737 289.371 11.2367 289.147 11.344C288.923 11.4467 288.734 11.5843 288.58 11.757C288.426 11.925 288.309 12.1257 288.23 12.359C288.151 12.5877 288.111 12.8467 288.111 13.136V17H286.193ZM294.643 17.21C293.691 17.21 292.921 16.9953 292.333 16.566C291.75 16.132 291.395 15.5207 291.269 14.732L293.215 14.438C293.294 14.7927 293.469 15.0703 293.74 15.271C294.015 15.4717 294.363 15.572 294.783 15.572C295.128 15.572 295.394 15.5067 295.581 15.376C295.768 15.2407 295.861 15.054 295.861 14.816C295.861 14.6667 295.824 14.5477 295.749 14.459C295.674 14.3657 295.506 14.2747 295.245 14.186C294.988 14.0973 294.587 13.9807 294.041 13.836C293.425 13.6773 292.933 13.5 292.564 13.304C292.195 13.108 291.929 12.8747 291.766 12.604C291.603 12.3287 291.521 11.9973 291.521 11.61C291.521 11.1247 291.645 10.7047 291.892 10.35C292.139 9.99067 292.487 9.71533 292.935 9.524C293.388 9.328 293.92 9.23 294.531 9.23C295.124 9.23 295.649 9.321 296.106 9.503C296.563 9.685 296.932 9.944 297.212 10.28C297.497 10.616 297.672 11.0127 297.737 11.47L295.791 11.82C295.758 11.54 295.637 11.3183 295.427 11.155C295.217 10.9917 294.932 10.896 294.573 10.868C294.223 10.8447 293.941 10.8913 293.726 11.008C293.516 11.1247 293.411 11.2927 293.411 11.512C293.411 11.6427 293.455 11.7523 293.544 11.841C293.637 11.9297 293.826 12.0207 294.111 12.114C294.4 12.2073 294.839 12.3287 295.427 12.478C296.001 12.6273 296.461 12.8023 296.806 13.003C297.156 13.199 297.41 13.437 297.569 13.717C297.728 13.9923 297.807 14.326 297.807 14.718C297.807 15.4927 297.527 16.1017 296.967 16.545C296.407 16.9883 295.632 17.21 294.643 17.21Z" fill="#787DF7"/>
<path d="M250.28 107L253.36 96.92H256.202L259.282 107H257.322L254.578 98.11H254.942L252.24 107H250.28ZM252.128 104.9V103.122H257.448V104.9H252.128ZM260.537 107V99.44H262.217V101.288L262.035 101.05C262.133 100.789 262.263 100.551 262.427 100.336C262.59 100.121 262.791 99.944 263.029 99.804C263.211 99.692 263.409 99.6057 263.624 99.545C263.838 99.4797 264.06 99.44 264.289 99.426C264.517 99.4073 264.746 99.412 264.975 99.44V101.218C264.765 101.153 264.52 101.132 264.24 101.155C263.964 101.174 263.715 101.237 263.491 101.344C263.267 101.447 263.078 101.584 262.924 101.757C262.77 101.925 262.653 102.126 262.574 102.359C262.494 102.588 262.455 102.847 262.455 103.136V107H260.537ZM269.267 110.57C268.837 110.57 268.429 110.5 268.042 110.36C267.654 110.225 267.307 110.033 266.999 109.786C266.695 109.543 266.448 109.259 266.257 108.932L268.021 108.078C268.142 108.302 268.315 108.472 268.539 108.589C268.767 108.706 269.015 108.764 269.281 108.764C269.565 108.764 269.834 108.715 270.086 108.617C270.338 108.524 270.538 108.381 270.688 108.19C270.842 108.003 270.914 107.77 270.905 107.49V105.292H271.143V99.44H272.809V107.518C272.809 107.705 272.799 107.88 272.781 108.043C272.767 108.211 272.739 108.377 272.697 108.54C272.575 109.002 272.349 109.382 272.018 109.681C271.691 109.98 271.29 110.201 270.814 110.346C270.338 110.495 269.822 110.57 269.267 110.57ZM269.099 107.21C268.403 107.21 267.794 107.035 267.272 106.685C266.749 106.335 266.341 105.859 266.047 105.257C265.757 104.655 265.613 103.976 265.613 103.22C265.613 102.45 265.76 101.766 266.054 101.169C266.352 100.567 266.77 100.093 267.307 99.748C267.843 99.4027 268.473 99.23 269.197 99.23C269.915 99.23 270.52 99.405 271.01 99.755C271.5 100.105 271.871 100.581 272.123 101.183C272.375 101.785 272.501 102.464 272.501 103.22C272.501 103.976 272.372 104.655 272.116 105.257C271.864 105.859 271.486 106.335 270.982 106.685C270.478 107.035 269.85 107.21 269.099 107.21ZM269.407 105.516C269.831 105.516 270.17 105.42 270.422 105.229C270.678 105.038 270.863 104.769 270.975 104.424C271.087 104.079 271.143 103.677 271.143 103.22C271.143 102.763 271.087 102.361 270.975 102.016C270.863 101.671 270.683 101.402 270.436 101.211C270.193 101.02 269.873 100.924 269.477 100.924C269.052 100.924 268.702 101.029 268.427 101.239C268.156 101.444 267.955 101.722 267.825 102.072C267.694 102.417 267.629 102.8 267.629 103.22C267.629 103.645 267.692 104.032 267.818 104.382C267.944 104.727 268.137 105.003 268.399 105.208C268.66 105.413 268.996 105.516 269.407 105.516ZM277.583 107.224C276.99 107.224 276.507 107.124 276.134 106.923C275.761 106.722 275.469 106.468 275.259 106.16C275.054 105.852 274.907 105.532 274.818 105.201C274.729 104.865 274.676 104.559 274.657 104.284C274.638 104.009 274.629 103.808 274.629 103.682V99.44H276.561V103.01C276.561 103.183 276.57 103.404 276.589 103.675C276.608 103.941 276.666 104.209 276.764 104.48C276.862 104.751 277.021 104.977 277.24 105.159C277.464 105.341 277.779 105.432 278.185 105.432C278.348 105.432 278.523 105.406 278.71 105.355C278.897 105.304 279.072 105.206 279.235 105.061C279.398 104.912 279.531 104.695 279.634 104.41C279.741 104.121 279.795 103.743 279.795 103.276L280.887 103.794C280.887 104.391 280.766 104.951 280.523 105.474C280.28 105.997 279.914 106.419 279.424 106.741C278.939 107.063 278.325 107.224 277.583 107.224ZM280.033 107V104.494H279.795V99.44H281.713V107H280.033ZM292.769 107V102.534C292.769 102.035 292.65 101.647 292.412 101.372C292.179 101.092 291.855 100.952 291.439 100.952C291.173 100.952 290.942 101.015 290.746 101.141C290.55 101.262 290.396 101.435 290.284 101.659C290.177 101.878 290.123 102.133 290.123 102.422L289.325 101.89C289.325 101.372 289.447 100.915 289.689 100.518C289.937 100.121 290.266 99.8133 290.676 99.594C291.092 99.37 291.551 99.258 292.055 99.258C292.919 99.258 293.57 99.5147 294.008 100.028C294.452 100.537 294.673 101.204 294.673 102.03V107H292.769ZM283.655 107V99.44H285.335V101.946H285.573V107H283.655ZM288.219 107V102.534C288.219 102.035 288.1 101.647 287.862 101.372C287.629 101.092 287.305 100.952 286.889 100.952C286.493 100.952 286.173 101.09 285.93 101.365C285.692 101.636 285.573 101.988 285.573 102.422L284.775 101.862C284.775 101.367 284.899 100.924 285.146 100.532C285.394 100.14 285.725 99.8297 286.14 99.601C286.56 99.3723 287.029 99.258 287.547 99.258C288.14 99.258 288.625 99.384 289.003 99.636C289.386 99.888 289.668 100.224 289.85 100.644C290.032 101.064 290.123 101.526 290.123 102.03V107H288.219ZM299.871 107.21C299.096 107.21 298.413 107.044 297.82 106.713C297.232 106.377 296.77 105.917 296.434 105.334C296.103 104.746 295.937 104.074 295.937 103.318C295.937 102.492 296.1 101.773 296.427 101.162C296.754 100.551 297.204 100.077 297.778 99.741C298.352 99.4003 299.012 99.23 299.759 99.23C300.552 99.23 301.227 99.4167 301.782 99.79C302.337 100.163 302.748 100.688 303.014 101.365C303.28 102.042 303.373 102.837 303.294 103.752H301.411V103.052C301.411 102.282 301.287 101.729 301.04 101.393C300.797 101.052 300.398 100.882 299.843 100.882C299.194 100.882 298.716 101.08 298.408 101.477C298.105 101.869 297.953 102.45 297.953 103.22C297.953 103.925 298.105 104.471 298.408 104.858C298.716 105.241 299.166 105.432 299.759 105.432C300.132 105.432 300.452 105.35 300.718 105.187C300.984 105.024 301.187 104.788 301.327 104.48L303.231 105.026C302.946 105.717 302.496 106.253 301.88 106.636C301.269 107.019 300.599 107.21 299.871 107.21ZM297.365 103.752V102.338H302.377V103.752H297.365ZM309.821 107V103.43C309.821 103.257 309.812 103.038 309.793 102.772C309.775 102.501 309.716 102.231 309.618 101.96C309.52 101.689 309.359 101.463 309.135 101.281C308.916 101.099 308.603 101.008 308.197 101.008C308.034 101.008 307.859 101.034 307.672 101.085C307.486 101.136 307.311 101.237 307.147 101.386C306.984 101.531 306.849 101.745 306.741 102.03C306.639 102.315 306.587 102.693 306.587 103.164L305.495 102.646C305.495 102.049 305.617 101.489 305.859 100.966C306.102 100.443 306.466 100.021 306.951 99.699C307.441 99.377 308.057 99.216 308.799 99.216C309.392 99.216 309.875 99.3163 310.248 99.517C310.622 99.7177 310.911 99.972 311.116 100.28C311.326 100.588 311.476 100.91 311.564 101.246C311.653 101.577 311.707 101.881 311.725 102.156C311.744 102.431 311.753 102.632 311.753 102.758V107H309.821ZM304.655 107V99.44H306.349V101.946H306.587V107H304.655ZM318.106 107C317.583 107.098 317.07 107.14 316.566 107.126C316.067 107.117 315.619 107.03 315.222 106.867C314.83 106.699 314.531 106.431 314.326 106.062C314.139 105.717 314.041 105.367 314.032 105.012C314.023 104.653 314.018 104.247 314.018 103.794V97.34H315.922V103.682C315.922 103.976 315.924 104.242 315.929 104.48C315.938 104.713 315.987 104.9 316.076 105.04C316.244 105.306 316.512 105.451 316.881 105.474C317.25 105.497 317.658 105.479 318.106 105.418V107ZM312.73 100.91V99.44H318.106V100.91H312.73ZM322.745 107.21C321.793 107.21 321.023 106.995 320.435 106.566C319.851 106.132 319.497 105.521 319.371 104.732L321.317 104.438C321.396 104.793 321.571 105.07 321.842 105.271C322.117 105.472 322.465 105.572 322.885 105.572C323.23 105.572 323.496 105.507 323.683 105.376C323.869 105.241 323.963 105.054 323.963 104.816C323.963 104.667 323.925 104.548 323.851 104.459C323.776 104.366 323.608 104.275 323.347 104.186C323.09 104.097 322.689 103.981 322.143 103.836C321.527 103.677 321.034 103.5 320.666 103.304C320.297 103.108 320.031 102.875 319.868 102.604C319.704 102.329 319.623 101.997 319.623 101.61C319.623 101.125 319.746 100.705 319.994 100.35C320.241 99.9907 320.589 99.7153 321.037 99.524C321.489 99.328 322.021 99.23 322.633 99.23C323.225 99.23 323.75 99.321 324.208 99.503C324.665 99.685 325.034 99.944 325.314 100.28C325.598 100.616 325.773 101.013 325.839 101.47L323.893 101.82C323.86 101.54 323.739 101.318 323.529 101.155C323.319 100.992 323.034 100.896 322.675 100.868C322.325 100.845 322.042 100.891 321.828 101.008C321.618 101.125 321.513 101.293 321.513 101.512C321.513 101.643 321.557 101.752 321.646 101.841C321.739 101.93 321.928 102.021 322.213 102.114C322.502 102.207 322.941 102.329 323.529 102.478C324.103 102.627 324.562 102.802 324.908 103.003C325.258 103.199 325.512 103.437 325.671 103.717C325.829 103.992 325.909 104.326 325.909 104.718C325.909 105.493 325.629 106.102 325.069 106.545C324.509 106.988 323.734 107.21 322.745 107.21Z" fill="#787DF7"/>
<path d="M171.5 39C171.5 39.5523 171.948 40 172.5 40C173.052 40 173.5 39.5523 173.5 39H171.5ZM211.207 12.7071C211.598 12.3166 211.598 11.6834 211.207 11.2929L204.843 4.92893C204.453 4.53841 203.819 4.53841 203.429 4.92893C203.038 5.31946 203.038 5.95262 203.429 6.34315L209.086 12L203.429 17.6569C203.038 18.0474 203.038 18.6805 203.429 19.0711C203.819 19.4616 204.453 19.4616 204.843 19.0711L211.207 12.7071ZM173.5 39V22H171.5V39H173.5ZM182.5 13H210.5V11H182.5V13ZM173.5 22C173.5 17.0294 177.529 13 182.5 13V11C176.425 11 171.5 15.9249 171.5 22H173.5Z" fill="#787DF7"/>
<path d="M202.5 129C202.5 129.552 202.948 130 203.5 130C204.052 130 204.5 129.552 204.5 129H202.5ZM242.207 102.707C242.598 102.317 242.598 101.683 242.207 101.293L235.843 94.9289C235.453 94.5384 234.819 94.5384 234.429 94.9289C234.038 95.3195 234.038 95.9526 234.429 96.3431L240.086 102L234.429 107.657C234.038 108.047 234.038 108.681 234.429 109.071C234.819 109.462 235.453 109.462 235.843 109.071L242.207 102.707ZM204.5 129V112H202.5V129H204.5ZM213.5 103H241.5V101H213.5V103ZM204.5 112C204.5 107.029 208.529 103 213.5 103V101C207.425 101 202.5 105.925 202.5 112H204.5Z" fill="#787DF7"/>
<path d="M196 129C196 129.552 196.448 130 197 130C197.552 130 198 129.552 198 129H196ZM157.293 39.7071C157.683 40.0976 158.317 40.0976 158.707 39.7071L165.071 33.3431C165.462 32.9526 165.462 32.3195 165.071 31.9289C164.681 31.5384 164.047 31.5384 163.657 31.9289L158 37.5858L152.343 31.9289C151.953 31.5384 151.319 31.5384 150.929 31.9289C150.538 32.3195 150.538 32.9526 150.929 33.3431L157.293 39.7071ZM198 129V127H196V129H198ZM187 116H11V118H187V116ZM2 107V29.5H0V107H2ZM11 20.5H148V18.5H11V20.5ZM157 29.5V39H159V29.5H157ZM148 20.5C152.971 20.5 157 24.5294 157 29.5H159C159 23.4249 154.075 18.5 148 18.5V20.5ZM2 29.5C2 24.5294 6.02944 20.5 11 20.5V18.5C4.92487 18.5 0 23.4249 0 29.5H2ZM11 116C6.02943 116 2 111.971 2 107H0C0 113.075 4.92486 118 11 118V116ZM198 127C198 120.925 193.075 116 187 116V118C191.971 118 196 122.029 196 127H198Z" fill="#787DF7"/>
</svg>
