<svg width="398" height="130" viewBox="0 0 398 130" fill="none" xmlns="http://www.w3.org/2000/svg">
<path d="M79.11 53V45.468C79.11 45.2767 79.1147 45.0597 79.124 44.817C79.1333 44.5743 79.1707 44.3293 79.236 44.082C79.306 43.8347 79.432 43.6107 79.614 43.41C79.8473 43.1487 80.0993 42.9713 80.37 42.878C80.6453 42.78 80.9113 42.7287 81.168 42.724C81.4247 42.7147 81.644 42.71 81.826 42.71H82.764V44.25H81.896C81.5973 44.25 81.3757 44.327 81.231 44.481C81.0863 44.6303 81.014 44.81 81.014 45.02V53H79.11ZM77.92 46.91V45.44H82.764V46.91H77.92ZM86.6944 53.224C86.1017 53.224 85.6187 53.1237 85.2454 52.923C84.8721 52.7223 84.5804 52.468 84.3704 52.16C84.1651 51.852 84.0181 51.5323 83.9294 51.201C83.8407 50.865 83.7871 50.5593 83.7684 50.284C83.7497 50.0087 83.7404 49.808 83.7404 49.682V45.44H85.6724V49.01C85.6724 49.1827 85.6817 49.4043 85.7004 49.675C85.7191 49.941 85.7774 50.2093 85.8754 50.48C85.9734 50.7507 86.1321 50.977 86.3514 51.159C86.5754 51.341 86.8904 51.432 87.2964 51.432C87.4597 51.432 87.6347 51.4063 87.8214 51.355C88.0081 51.3037 88.1831 51.2057 88.3464 51.061C88.5097 50.9117 88.6427 50.6947 88.7454 50.41C88.8527 50.1207 88.9064 49.7427 88.9064 49.276L89.9984 49.794C89.9984 50.3913 89.8771 50.9513 89.6344 51.474C89.3917 51.9967 89.0254 52.419 88.5354 52.741C88.0501 53.063 87.4364 53.224 86.6944 53.224ZM89.1444 53V50.494H88.9064V45.44H90.8244V53H89.1444ZM97.9328 53V49.43C97.9328 49.2573 97.9234 49.038 97.9048 48.772C97.8861 48.5013 97.8278 48.2307 97.7298 47.96C97.6318 47.6893 97.4708 47.463 97.2468 47.281C97.0274 47.099 96.7148 47.008 96.3088 47.008C96.1454 47.008 95.9704 47.0337 95.7838 47.085C95.5971 47.1363 95.4221 47.2367 95.2588 47.386C95.0954 47.5307 94.9601 47.7453 94.8528 48.03C94.7501 48.3147 94.6988 48.6927 94.6988 49.164L93.6068 48.646C93.6068 48.0487 93.7281 47.4887 93.9708 46.966C94.2134 46.4433 94.5774 46.021 95.0628 45.699C95.5528 45.377 96.1688 45.216 96.9108 45.216C97.5034 45.216 97.9864 45.3163 98.3598 45.517C98.7331 45.7177 99.0224 45.972 99.2278 46.28C99.4378 46.588 99.5871 46.91 99.6758 47.246C99.7644 47.5773 99.8181 47.8807 99.8368 48.156C99.8554 48.4313 99.8648 48.632 99.8648 48.758V53H97.9328ZM92.7668 53V45.44H94.4608V47.946H94.6988V53H92.7668ZM104.876 53.21C104.092 53.21 103.42 53.035 102.86 52.685C102.3 52.335 101.871 51.859 101.572 51.257C101.274 50.655 101.124 49.976 101.124 49.22C101.124 48.4547 101.278 47.771 101.586 47.169C101.899 46.567 102.338 46.0933 102.902 45.748C103.467 45.4027 104.134 45.23 104.904 45.23C105.796 45.23 106.542 45.4563 107.144 45.909C107.751 46.357 108.138 46.9707 108.306 47.75L106.402 48.254C106.29 47.862 106.094 47.5563 105.814 47.337C105.539 47.1177 105.226 47.008 104.876 47.008C104.475 47.008 104.146 47.106 103.889 47.302C103.633 47.4933 103.444 47.757 103.322 48.093C103.201 48.4243 103.14 48.8 103.14 49.22C103.14 49.878 103.285 50.4123 103.574 50.823C103.868 51.229 104.302 51.432 104.876 51.432C105.306 51.432 105.632 51.334 105.856 51.138C106.08 50.942 106.248 50.662 106.36 50.298L108.306 50.704C108.092 51.5067 107.686 52.125 107.088 52.559C106.491 52.993 105.754 53.21 104.876 53.21ZM114.243 53C113.72 53.098 113.207 53.14 112.703 53.126C112.203 53.1167 111.755 53.0303 111.359 52.867C110.967 52.699 110.668 52.4307 110.463 52.062C110.276 51.7167 110.178 51.3667 110.169 51.012C110.159 50.6527 110.155 50.2467 110.155 49.794V43.34H112.059V49.682C112.059 49.976 112.061 50.242 112.066 50.48C112.075 50.7133 112.124 50.9 112.213 51.04C112.381 51.306 112.649 51.4507 113.018 51.474C113.386 51.4973 113.795 51.4787 114.243 51.418V53ZM108.867 46.91V45.44H114.243V46.91H108.867ZM116.067 44.39V42.71H117.971V44.39H116.067ZM116.067 53V45.44H117.971V53H116.067ZM123.472 53.21C122.711 53.21 122.044 53.0397 121.47 52.699C120.896 52.3583 120.448 51.8893 120.126 51.292C119.809 50.69 119.65 49.9993 119.65 49.22C119.65 48.4313 119.813 47.7383 120.14 47.141C120.467 46.539 120.917 46.07 121.491 45.734C122.065 45.398 122.725 45.23 123.472 45.23C124.233 45.23 124.9 45.4003 125.474 45.741C126.053 46.0817 126.503 46.553 126.825 47.155C127.147 47.7523 127.308 48.4407 127.308 49.22C127.308 50.004 127.145 50.697 126.818 51.299C126.496 51.8963 126.046 52.3653 125.467 52.706C124.893 53.042 124.228 53.21 123.472 53.21ZM123.472 51.432C124.083 51.432 124.538 51.2267 124.837 50.816C125.14 50.4007 125.292 49.8687 125.292 49.22C125.292 48.548 125.138 48.0113 124.83 47.61C124.527 47.2087 124.074 47.008 123.472 47.008C123.057 47.008 122.716 47.1013 122.45 47.288C122.184 47.4747 121.986 47.7337 121.855 48.065C121.729 48.3963 121.666 48.7813 121.666 49.22C121.666 49.8967 121.818 50.4357 122.121 50.837C122.429 51.2337 122.879 51.432 123.472 51.432ZM133.999 53V49.43C133.999 49.2573 133.99 49.038 133.971 48.772C133.953 48.5013 133.894 48.2307 133.796 47.96C133.698 47.6893 133.537 47.463 133.313 47.281C133.094 47.099 132.781 47.008 132.375 47.008C132.212 47.008 132.037 47.0337 131.85 47.085C131.664 47.1363 131.489 47.2367 131.325 47.386C131.162 47.5307 131.027 47.7453 130.919 48.03C130.817 48.3147 130.765 48.6927 130.765 49.164L129.673 48.646C129.673 48.0487 129.795 47.4887 130.037 46.966C130.28 46.4433 130.644 46.021 131.129 45.699C131.619 45.377 132.235 45.216 132.977 45.216C133.57 45.216 134.053 45.3163 134.426 45.517C134.8 45.7177 135.089 45.972 135.294 46.28C135.504 46.588 135.654 46.91 135.742 47.246C135.831 47.5773 135.885 47.8807 135.903 48.156C135.922 48.4313 135.931 48.632 135.931 48.758V53H133.999ZM128.833 53V45.44H130.527V47.946H130.765V53H128.833ZM181.689 55.716C181.148 55.0813 180.684 54.3603 180.296 53.553C179.914 52.7457 179.622 51.901 179.421 51.019C179.225 50.1323 179.137 49.2527 179.155 48.38C179.137 47.5073 179.225 46.6277 179.421 45.741C179.622 44.8543 179.914 44.0097 180.296 43.207C180.684 42.3997 181.148 41.6787 181.689 41.044L183.103 42.08C182.534 42.766 182.088 43.452 181.766 44.138C181.444 44.8193 181.216 45.5123 181.08 46.217C180.95 46.917 180.882 47.638 180.877 48.38C180.882 49.122 180.95 49.8453 181.08 50.55C181.216 51.25 181.444 51.943 181.766 52.629C182.088 53.3103 182.534 53.994 183.103 54.68L181.689 55.716ZM223.343 55.716L221.929 54.68C222.498 53.994 222.944 53.3103 223.266 52.629C223.588 51.943 223.814 51.25 223.945 50.55C224.08 49.8453 224.15 49.122 224.155 48.38C224.15 47.638 224.08 46.917 223.945 46.217C223.814 45.5123 223.588 44.8193 223.266 44.138C222.944 43.452 222.498 42.766 221.929 42.08L223.343 41.044C223.884 41.6787 224.346 42.3997 224.729 43.207C225.116 44.0097 225.408 44.8543 225.604 45.741C225.805 46.6277 225.896 47.5073 225.877 48.38C225.896 49.2527 225.805 50.1323 225.604 51.019C225.408 51.901 225.116 52.7457 224.729 53.553C224.346 54.3603 223.884 55.0813 223.343 55.716ZM90.2202 76.21C89.4362 76.21 88.7642 76.035 88.2042 75.685C87.6442 75.335 87.2149 74.859 86.9162 74.257C86.6175 73.655 86.4682 72.976 86.4682 72.22C86.4682 71.4547 86.6222 70.771 86.9302 70.169C87.2429 69.567 87.6815 69.0933 88.2462 68.748C88.8109 68.4027 89.4782 68.23 90.2482 68.23C91.1395 68.23 91.8862 68.4563 92.4882 68.909C93.0949 69.357 93.4822 69.9707 93.6502 70.75L91.7462 71.254C91.6342 70.862 91.4382 70.5563 91.1582 70.337C90.8829 70.1177 90.5702 70.008 90.2202 70.008C89.8189 70.008 89.4899 70.106 89.2332 70.302C88.9765 70.4933 88.7875 70.757 88.6662 71.093C88.5449 71.4243 88.4842 71.8 88.4842 72.22C88.4842 72.878 88.6289 73.4123 88.9182 73.823C89.2122 74.229 89.6462 74.432 90.2202 74.432C90.6495 74.432 90.9762 74.334 91.2002 74.138C91.4242 73.942 91.5922 73.662 91.7042 73.298L93.6502 73.704C93.4355 74.5067 93.0295 75.125 92.4322 75.559C91.8349 75.993 91.0975 76.21 90.2202 76.21ZM98.2472 76.21C97.4866 76.21 96.8192 76.0397 96.2452 75.699C95.6712 75.3583 95.2232 74.8893 94.9012 74.292C94.5839 73.69 94.4252 72.9993 94.4252 72.22C94.4252 71.4313 94.5886 70.7383 94.9152 70.141C95.2419 69.539 95.6922 69.07 96.2662 68.734C96.8402 68.398 97.5006 68.23 98.2472 68.23C99.0079 68.23 99.6752 68.4003 100.249 68.741C100.828 69.0817 101.278 69.553 101.6 70.155C101.922 70.7523 102.083 71.4407 102.083 72.22C102.083 73.004 101.92 73.697 101.593 74.299C101.271 74.8963 100.821 75.3653 100.242 75.706C99.6682 76.042 99.0032 76.21 98.2472 76.21ZM98.2472 74.432C98.8586 74.432 99.3136 74.2267 99.6122 73.816C99.9156 73.4007 100.067 72.8687 100.067 72.22C100.067 71.548 99.9132 71.0113 99.6052 70.61C99.3019 70.2087 98.8492 70.008 98.2472 70.008C97.8319 70.008 97.4912 70.1013 97.2252 70.288C96.9592 70.4747 96.7609 70.7337 96.6302 71.065C96.5042 71.3963 96.4412 71.7813 96.4412 72.22C96.4412 72.8967 96.5929 73.4357 96.8962 73.837C97.2042 74.2337 97.6546 74.432 98.2472 74.432ZM108.775 76V72.43C108.775 72.2573 108.765 72.038 108.747 71.772C108.728 71.5013 108.67 71.2307 108.572 70.96C108.474 70.6893 108.313 70.463 108.089 70.281C107.869 70.099 107.557 70.008 107.151 70.008C106.987 70.008 106.812 70.0337 106.626 70.085C106.439 70.1363 106.264 70.2367 106.101 70.386C105.937 70.5307 105.802 70.7453 105.695 71.03C105.592 71.3147 105.541 71.6927 105.541 72.164L104.449 71.646C104.449 71.0487 104.57 70.4887 104.813 69.966C105.055 69.4433 105.419 69.021 105.905 68.699C106.395 68.377 107.011 68.216 107.753 68.216C108.345 68.216 108.828 68.3163 109.202 68.517C109.575 68.7177 109.864 68.972 110.07 69.28C110.28 69.588 110.429 69.91 110.518 70.246C110.606 70.5773 110.66 70.8807 110.679 71.156C110.697 71.4313 110.707 71.632 110.707 71.758V76H108.775ZM103.609 76V68.44H105.303V70.946H105.541V76H103.609ZM115.477 76.21C114.525 76.21 113.755 75.9953 113.167 75.566C112.584 75.132 112.229 74.5207 112.103 73.732L114.049 73.438C114.128 73.7927 114.303 74.0703 114.574 74.271C114.849 74.4717 115.197 74.572 115.617 74.572C115.962 74.572 116.228 74.5067 116.415 74.376C116.602 74.2407 116.695 74.054 116.695 73.816C116.695 73.6667 116.658 73.5477 116.583 73.459C116.508 73.3657 116.34 73.2747 116.079 73.186C115.822 73.0973 115.421 72.9807 114.875 72.836C114.259 72.6773 113.767 72.5 113.398 72.304C113.029 72.108 112.763 71.8747 112.6 71.604C112.437 71.3287 112.355 70.9973 112.355 70.61C112.355 70.1247 112.479 69.7047 112.726 69.35C112.973 68.9907 113.321 68.7153 113.769 68.524C114.222 68.328 114.754 68.23 115.365 68.23C115.958 68.23 116.483 68.321 116.94 68.503C117.397 68.685 117.766 68.944 118.046 69.28C118.331 69.616 118.506 70.0127 118.571 70.47L116.625 70.82C116.592 70.54 116.471 70.3183 116.261 70.155C116.051 69.9917 115.766 69.896 115.407 69.868C115.057 69.8447 114.775 69.8913 114.56 70.008C114.35 70.1247 114.245 70.2927 114.245 70.512C114.245 70.6427 114.289 70.7523 114.378 70.841C114.471 70.9297 114.66 71.0207 114.945 71.114C115.234 71.2073 115.673 71.3287 116.261 71.478C116.835 71.6273 117.295 71.8023 117.64 72.003C117.99 72.199 118.244 72.437 118.403 72.717C118.562 72.9923 118.641 73.326 118.641 73.718C118.641 74.4927 118.361 75.1017 117.801 75.545C117.241 75.9883 116.466 76.21 115.477 76.21ZM123.581 76.21C122.821 76.21 122.153 76.0397 121.579 75.699C121.005 75.3583 120.557 74.8893 120.235 74.292C119.918 73.69 119.759 72.9993 119.759 72.22C119.759 71.4313 119.923 70.7383 120.249 70.141C120.576 69.539 121.026 69.07 121.6 68.734C122.174 68.398 122.835 68.23 123.581 68.23C124.342 68.23 125.009 68.4003 125.583 68.741C126.162 69.0817 126.612 69.553 126.934 70.155C127.256 70.7523 127.417 71.4407 127.417 72.22C127.417 73.004 127.254 73.697 126.927 74.299C126.605 74.8963 126.155 75.3653 125.576 75.706C125.002 76.042 124.337 76.21 123.581 76.21ZM123.581 74.432C124.193 74.432 124.648 74.2267 124.946 73.816C125.25 73.4007 125.401 72.8687 125.401 72.22C125.401 71.548 125.247 71.0113 124.939 70.61C124.636 70.2087 124.183 70.008 123.581 70.008C123.166 70.008 122.825 70.1013 122.559 70.288C122.293 70.4747 122.095 70.7337 121.964 71.065C121.838 71.3963 121.775 71.7813 121.775 72.22C121.775 72.8967 121.927 73.4357 122.23 73.837C122.538 74.2337 122.989 74.432 123.581 74.432ZM129.097 76V65.71H131.001V76H129.097ZM136.613 76.21C135.838 76.21 135.155 76.0443 134.562 75.713C133.974 75.377 133.512 74.9173 133.176 74.334C132.845 73.746 132.679 73.074 132.679 72.318C132.679 71.492 132.842 70.7733 133.169 70.162C133.496 69.5507 133.946 69.077 134.52 68.741C135.094 68.4003 135.754 68.23 136.501 68.23C137.294 68.23 137.969 68.4167 138.524 68.79C139.079 69.1633 139.49 69.6883 139.756 70.365C140.022 71.0417 140.115 71.8373 140.036 72.752H138.153V72.052C138.153 71.282 138.029 70.729 137.782 70.393C137.539 70.0523 137.14 69.882 136.585 69.882C135.936 69.882 135.458 70.0803 135.15 70.477C134.847 70.869 134.695 71.45 134.695 72.22C134.695 72.9247 134.847 73.4707 135.15 73.858C135.458 74.2407 135.908 74.432 136.501 74.432C136.874 74.432 137.194 74.3503 137.46 74.187C137.726 74.0237 137.929 73.788 138.069 73.48L139.973 74.026C139.688 74.7167 139.238 75.2533 138.622 75.636C138.011 76.0187 137.341 76.21 136.613 76.21ZM134.107 72.752V71.338H139.119V72.752H134.107ZM141.651 76V74.096H143.555V76H141.651ZM145.968 76V65.71H147.872V76H145.968ZM153.372 76.21C152.612 76.21 151.944 76.0397 151.37 75.699C150.796 75.3583 150.348 74.8893 150.026 74.292C149.709 73.69 149.55 72.9993 149.55 72.22C149.55 71.4313 149.714 70.7383 150.04 70.141C150.367 69.539 150.817 69.07 151.391 68.734C151.965 68.398 152.626 68.23 153.372 68.23C154.133 68.23 154.8 68.4003 155.374 68.741C155.953 69.0817 156.403 69.553 156.725 70.155C157.047 70.7523 157.208 71.4407 157.208 72.22C157.208 73.004 157.045 73.697 156.718 74.299C156.396 74.8963 155.946 75.3653 155.367 75.706C154.793 76.042 154.128 76.21 153.372 76.21ZM153.372 74.432C153.984 74.432 154.439 74.2267 154.737 73.816C155.041 73.4007 155.192 72.8687 155.192 72.22C155.192 71.548 155.038 71.0113 154.73 70.61C154.427 70.2087 153.974 70.008 153.372 70.008C152.957 70.008 152.616 70.1013 152.35 70.288C152.084 70.4747 151.886 70.7337 151.755 71.065C151.629 71.3963 151.566 71.7813 151.566 72.22C151.566 72.8967 151.718 73.4357 152.021 73.837C152.329 74.2337 152.78 74.432 153.372 74.432ZM161.982 79.57C161.552 79.57 161.144 79.5 160.757 79.36C160.369 79.2247 160.022 79.0333 159.714 78.786C159.41 78.5433 159.163 78.2587 158.972 77.932L160.736 77.078C160.857 77.302 161.03 77.4723 161.254 77.589C161.482 77.7057 161.73 77.764 161.996 77.764C162.28 77.764 162.549 77.715 162.801 77.617C163.053 77.5237 163.253 77.3813 163.403 77.19C163.557 77.0033 163.629 76.77 163.62 76.49V74.292H163.858V68.44H165.524V76.518C165.524 76.7047 165.514 76.8797 165.496 77.043C165.482 77.211 165.454 77.3767 165.412 77.54C165.29 78.002 165.064 78.3823 164.733 78.681C164.406 78.9797 164.005 79.2013 163.529 79.346C163.053 79.4953 162.537 79.57 161.982 79.57ZM161.814 76.21C161.118 76.21 160.509 76.035 159.987 75.685C159.464 75.335 159.056 74.859 158.762 74.257C158.472 73.655 158.328 72.976 158.328 72.22C158.328 71.45 158.475 70.7663 158.769 70.169C159.067 69.567 159.485 69.0933 160.022 68.748C160.558 68.4027 161.188 68.23 161.912 68.23C162.63 68.23 163.235 68.405 163.725 68.755C164.215 69.105 164.586 69.581 164.838 70.183C165.09 70.785 165.216 71.464 165.216 72.22C165.216 72.976 165.087 73.655 164.831 74.257C164.579 74.859 164.201 75.335 163.697 75.685C163.193 76.035 162.565 76.21 161.814 76.21ZM162.122 74.516C162.546 74.516 162.885 74.4203 163.137 74.229C163.393 74.0377 163.578 73.7693 163.69 73.424C163.802 73.0787 163.858 72.6773 163.858 72.22C163.858 71.7627 163.802 71.3613 163.69 71.016C163.578 70.6707 163.398 70.4023 163.151 70.211C162.908 70.0197 162.588 69.924 162.192 69.924C161.767 69.924 161.417 70.029 161.142 70.239C160.871 70.4443 160.67 70.722 160.54 71.072C160.409 71.4173 160.344 71.8 160.344 72.22C160.344 72.6447 160.407 73.032 160.533 73.382C160.659 73.7273 160.852 74.0027 161.114 74.208C161.375 74.4133 161.711 74.516 162.122 74.516ZM170.998 78.716C170.457 78.0813 169.992 77.3603 169.605 76.553C169.222 75.7457 168.931 74.901 168.73 74.019C168.534 73.1323 168.445 72.2527 168.464 71.38C168.445 70.5073 168.534 69.6277 168.73 68.741C168.931 67.8543 169.222 67.0097 169.605 66.207C169.992 65.3997 170.457 64.6787 170.998 64.044L172.412 65.08C171.843 65.766 171.397 66.452 171.075 67.138C170.753 67.8193 170.524 68.5123 170.389 69.217C170.258 69.917 170.191 70.638 170.186 71.38C170.191 72.122 170.258 72.8453 170.389 73.55C170.524 74.25 170.753 74.943 171.075 75.629C171.397 76.3103 171.843 76.994 172.412 77.68L170.998 78.716ZM173.811 68.44V65.92H175.715V68.44H173.811ZM176.555 68.44V65.92H178.459V68.44H176.555ZM180.841 76V65.92H182.745V70.064H187.253V65.92H189.157V76H187.253V71.842H182.745V76H180.841ZM194.637 76.21C193.862 76.21 193.178 76.0443 192.586 75.713C191.998 75.377 191.536 74.9173 191.2 74.334C190.868 73.746 190.703 73.074 190.703 72.318C190.703 71.492 190.866 70.7733 191.193 70.162C191.519 69.5507 191.97 69.077 192.544 68.741C193.118 68.4003 193.778 68.23 194.525 68.23C195.318 68.23 195.992 68.4167 196.548 68.79C197.103 69.1633 197.514 69.6883 197.78 70.365C198.046 71.0417 198.139 71.8373 198.06 72.752H196.177V72.052C196.177 71.282 196.053 70.729 195.806 70.393C195.563 70.0523 195.164 69.882 194.609 69.882C193.96 69.882 193.482 70.0803 193.174 70.477C192.87 70.869 192.719 71.45 192.719 72.22C192.719 72.9247 192.87 73.4707 193.174 73.858C193.482 74.2407 193.932 74.432 194.525 74.432C194.898 74.432 195.218 74.3503 195.484 74.187C195.75 74.0237 195.953 73.788 196.093 73.48L197.997 74.026C197.712 74.7167 197.262 75.2533 196.646 75.636C196.034 76.0187 195.365 76.21 194.637 76.21ZM192.131 72.752V71.338H197.143V72.752H192.131ZM199.78 76V65.71H201.684V76H199.78ZM203.923 76V65.71H205.827V76H203.923ZM211.327 76.21C210.567 76.21 209.899 76.0397 209.325 75.699C208.751 75.3583 208.303 74.8893 207.981 74.292C207.664 73.69 207.505 72.9993 207.505 72.22C207.505 71.4313 207.669 70.7383 207.995 70.141C208.322 69.539 208.772 69.07 209.346 68.734C209.92 68.398 210.581 68.23 211.327 68.23C212.088 68.23 212.755 68.4003 213.329 68.741C213.908 69.0817 214.358 69.553 214.68 70.155C215.002 70.7523 215.163 71.4407 215.163 72.22C215.163 73.004 215 73.697 214.673 74.299C214.351 74.8963 213.901 75.3653 213.322 75.706C212.748 76.042 212.083 76.21 211.327 76.21ZM211.327 74.432C211.939 74.432 212.394 74.2267 212.692 73.816C212.996 73.4007 213.147 72.8687 213.147 72.22C213.147 71.548 212.993 71.0113 212.685 70.61C212.382 70.2087 211.929 70.008 211.327 70.008C210.912 70.008 210.571 70.1013 210.305 70.288C210.039 70.4747 209.841 70.7337 209.71 71.065C209.584 71.3963 209.521 71.7813 209.521 72.22C209.521 72.8967 209.673 73.4357 209.976 73.837C210.284 74.2337 210.735 74.432 211.327 74.432ZM216.289 77.89L216.401 77.092C216.625 77.1107 216.807 77.0733 216.947 76.98C217.087 76.8913 217.183 76.7607 217.234 76.588C217.29 76.42 217.302 76.224 217.269 76H216.289V74.096H218.193V76C218.193 76.672 218.037 77.1807 217.724 77.526C217.412 77.8713 216.933 77.9927 216.289 77.89ZM223.522 68.44V65.92H225.426V68.44H223.522ZM226.266 68.44V65.92H228.17V68.44H226.266ZM235.637 74.11V71.688H233.215V70.218H235.637V67.81H237.107V70.218H239.515V71.688H237.107V74.11H235.637ZM287.494 74.11V71.688H285.072V70.218H287.494V67.81H288.964V70.218H291.372V71.688H288.964V74.11H287.494ZM295.86 68.44V65.92H297.764V68.44H295.86ZM298.604 68.44V65.92H300.508V68.44H298.604ZM303.59 76V74.32H305.494V76H303.59ZM303.59 73.48V65.92H305.494V73.48H303.59ZM308.014 68.44V65.92H309.918V68.44H308.014ZM310.758 68.44V65.92H312.662V68.44H310.758ZM316.038 78.716L314.624 77.68C315.194 76.994 315.639 76.3103 315.961 75.629C316.283 74.943 316.51 74.25 316.64 73.55C316.776 72.8453 316.846 72.122 316.85 71.38C316.846 70.638 316.776 69.917 316.64 69.217C316.51 68.5123 316.283 67.8193 315.961 67.138C315.639 66.452 315.194 65.766 314.624 65.08L316.038 64.044C316.58 64.6787 317.042 65.3997 317.424 66.207C317.812 67.0097 318.103 67.8543 318.299 68.741C318.5 69.6277 318.591 70.5073 318.572 71.38C318.591 72.2527 318.5 73.1323 318.299 74.019C318.103 74.901 317.812 75.7457 317.424 76.553C317.042 77.3603 316.58 78.0813 316.038 78.716ZM322.071 77.89L322.183 77.092C322.407 77.1107 322.589 77.0733 322.729 76.98C322.869 76.8913 322.965 76.7607 323.016 76.588C323.072 76.42 323.084 76.224 323.051 76H322.071V74.096H323.975V76C323.975 76.672 323.819 77.1807 323.506 77.526C323.194 77.8713 322.715 77.9927 322.071 77.89ZM322.071 70.344V68.44H323.975V70.344H322.071Z" fill="white"/>
<path d="M143.784 56.57C143.355 56.57 142.947 56.5 142.559 56.36C142.172 56.2247 141.824 56.0333 141.516 55.786C141.213 55.5433 140.966 55.2587 140.774 54.932L142.538 54.078C142.66 54.302 142.832 54.4723 143.056 54.589C143.285 54.7057 143.532 54.764 143.798 54.764C144.083 54.764 144.351 54.715 144.603 54.617C144.855 54.5237 145.056 54.3813 145.205 54.19C145.359 54.0033 145.432 53.77 145.422 53.49V51.292H145.66V45.44H147.326V53.518C147.326 53.7047 147.317 53.8797 147.298 54.043C147.284 54.211 147.256 54.3767 147.214 54.54C147.093 55.002 146.867 55.3823 146.535 55.681C146.209 55.9797 145.807 56.2013 145.331 56.346C144.855 56.4953 144.34 56.57 143.784 56.57ZM143.616 53.21C142.921 53.21 142.312 53.035 141.789 52.685C141.267 52.335 140.858 51.859 140.564 51.257C140.275 50.655 140.13 49.976 140.13 49.22C140.13 48.45 140.277 47.7663 140.571 47.169C140.87 46.567 141.288 46.0933 141.824 45.748C142.361 45.4027 142.991 45.23 143.714 45.23C144.433 45.23 145.037 45.405 145.527 45.755C146.017 46.105 146.388 46.581 146.64 47.183C146.892 47.785 147.018 48.464 147.018 49.22C147.018 49.976 146.89 50.655 146.633 51.257C146.381 51.859 146.003 52.335 145.499 52.685C144.995 53.035 144.368 53.21 143.616 53.21ZM143.924 51.516C144.349 51.516 144.687 51.4203 144.939 51.229C145.196 51.0377 145.38 50.7693 145.492 50.424C145.604 50.0787 145.66 49.6773 145.66 49.22C145.66 48.7627 145.604 48.3613 145.492 48.016C145.38 47.6707 145.201 47.4023 144.953 47.211C144.711 47.0197 144.391 46.924 143.994 46.924C143.57 46.924 143.22 47.029 142.944 47.239C142.674 47.4443 142.473 47.722 142.342 48.072C142.212 48.4173 142.146 48.8 142.146 49.22C142.146 49.6447 142.209 50.032 142.335 50.382C142.461 50.7273 142.655 51.0027 142.916 51.208C143.178 51.4133 143.514 51.516 143.924 51.516ZM149.287 53V45.44H150.967V47.288L150.785 47.05C150.883 46.7887 151.013 46.5507 151.177 46.336C151.34 46.1213 151.541 45.944 151.779 45.804C151.961 45.692 152.159 45.6057 152.374 45.545C152.588 45.4797 152.81 45.44 153.039 45.426C153.267 45.4073 153.496 45.412 153.725 45.44V47.218C153.515 47.1527 153.27 47.1317 152.99 47.155C152.714 47.1737 152.465 47.2367 152.241 47.344C152.017 47.4467 151.828 47.5843 151.674 47.757C151.52 47.925 151.403 48.1257 151.324 48.359C151.244 48.5877 151.205 48.8467 151.205 49.136V53H149.287ZM158.433 53.21C157.659 53.21 156.975 53.0443 156.382 52.713C155.794 52.377 155.332 51.9173 154.996 51.334C154.665 50.746 154.499 50.074 154.499 49.318C154.499 48.492 154.663 47.7733 154.989 47.162C155.316 46.5507 155.766 46.077 156.34 45.741C156.914 45.4003 157.575 45.23 158.321 45.23C159.115 45.23 159.789 45.4167 160.344 45.79C160.9 46.1633 161.31 46.6883 161.576 47.365C161.842 48.0417 161.936 48.8373 161.856 49.752H159.973V49.052C159.973 48.282 159.85 47.729 159.602 47.393C159.36 47.0523 158.961 46.882 158.405 46.882C157.757 46.882 157.278 47.0803 156.97 47.477C156.667 47.869 156.515 48.45 156.515 49.22C156.515 49.9247 156.667 50.4707 156.97 50.858C157.278 51.2407 157.729 51.432 158.321 51.432C158.695 51.432 159.014 51.3503 159.28 51.187C159.546 51.0237 159.749 50.788 159.889 50.48L161.793 51.026C161.509 51.7167 161.058 52.2533 160.442 52.636C159.831 53.0187 159.161 53.21 158.433 53.21ZM155.927 49.752V48.338H160.939V49.752H155.927ZM166.951 53.21C166.176 53.21 165.493 53.0443 164.9 52.713C164.312 52.377 163.85 51.9173 163.514 51.334C163.183 50.746 163.017 50.074 163.017 49.318C163.017 48.492 163.18 47.7733 163.507 47.162C163.834 46.5507 164.284 46.077 164.858 45.741C165.432 45.4003 166.092 45.23 166.839 45.23C167.632 45.23 168.307 45.4167 168.862 45.79C169.417 46.1633 169.828 46.6883 170.094 47.365C170.36 48.0417 170.453 48.8373 170.374 49.752H168.491V49.052C168.491 48.282 168.367 47.729 168.12 47.393C167.877 47.0523 167.478 46.882 166.923 46.882C166.274 46.882 165.796 47.0803 165.488 47.477C165.185 47.869 165.033 48.45 165.033 49.22C165.033 49.9247 165.185 50.4707 165.488 50.858C165.796 51.2407 166.246 51.432 166.839 51.432C167.212 51.432 167.532 51.3503 167.798 51.187C168.064 51.0237 168.267 50.788 168.407 50.48L170.311 51.026C170.026 51.7167 169.576 52.2533 168.96 52.636C168.349 53.0187 167.679 53.21 166.951 53.21ZM164.445 49.752V48.338H169.457V49.752H164.445ZM176.491 53C175.968 53.098 175.455 53.14 174.951 53.126C174.451 53.1167 174.003 53.0303 173.607 52.867C173.215 52.699 172.916 52.4307 172.711 52.062C172.524 51.7167 172.426 51.3667 172.417 51.012C172.407 50.6527 172.403 50.2467 172.403 49.794V43.34H174.307V49.682C174.307 49.976 174.309 50.242 174.314 50.48C174.323 50.7133 174.372 50.9 174.461 51.04C174.629 51.306 174.897 51.4507 175.266 51.474C175.634 51.4973 176.043 51.4787 176.491 51.418V53ZM171.115 46.91V45.44H176.491V46.91H171.115Z" fill="#FFD966"/>
<path d="M189.794 53V49.43C189.794 49.2573 189.785 49.038 189.766 48.772C189.747 48.5013 189.689 48.2307 189.591 47.96C189.493 47.6893 189.332 47.463 189.108 47.281C188.889 47.099 188.576 47.008 188.17 47.008C188.007 47.008 187.832 47.0337 187.645 47.085C187.458 47.1363 187.283 47.2367 187.12 47.386C186.957 47.5307 186.821 47.7453 186.714 48.03C186.611 48.3147 186.56 48.6927 186.56 49.164L185.468 48.646C185.468 48.0487 185.589 47.4887 185.832 46.966C186.075 46.4433 186.439 46.021 186.924 45.699C187.414 45.377 188.03 45.216 188.772 45.216C189.365 45.216 189.848 45.3163 190.221 45.517C190.594 45.7177 190.884 45.972 191.089 46.28C191.299 46.588 191.448 46.91 191.537 47.246C191.626 47.5773 191.679 47.8807 191.698 48.156C191.717 48.4313 191.726 48.632 191.726 48.758V53H189.794ZM184.628 53V45.44H186.322V47.946H186.56V53H184.628ZM195.643 53.21C195.101 53.21 194.642 53.1073 194.264 52.902C193.89 52.692 193.606 52.4143 193.41 52.069C193.218 51.719 193.123 51.334 193.123 50.914C193.123 50.564 193.176 50.2443 193.284 49.955C193.391 49.6657 193.564 49.4113 193.802 49.192C194.044 48.968 194.369 48.7813 194.775 48.632C195.055 48.5293 195.388 48.4383 195.776 48.359C196.163 48.2797 196.602 48.205 197.092 48.135C197.582 48.0603 198.121 47.9787 198.709 47.89L198.023 48.268C198.023 47.82 197.915 47.491 197.701 47.281C197.486 47.071 197.127 46.966 196.623 46.966C196.343 46.966 196.051 47.0337 195.748 47.169C195.444 47.3043 195.232 47.5447 195.111 47.89L193.389 47.344C193.58 46.7187 193.939 46.21 194.467 45.818C194.994 45.426 195.713 45.23 196.623 45.23C197.29 45.23 197.883 45.3327 198.401 45.538C198.919 45.7433 199.311 46.098 199.577 46.602C199.726 46.882 199.815 47.162 199.843 47.442C199.871 47.722 199.885 48.0347 199.885 48.38V53H198.219V51.446L198.457 51.768C198.088 52.2767 197.689 52.6453 197.26 52.874C196.835 53.098 196.296 53.21 195.643 53.21ZM196.049 51.712C196.399 51.712 196.693 51.6513 196.931 51.53C197.173 51.404 197.365 51.2617 197.505 51.103C197.649 50.9443 197.747 50.8113 197.799 50.704C197.897 50.4987 197.953 50.2607 197.967 49.99C197.985 49.7147 197.995 49.486 197.995 49.304L198.555 49.444C197.99 49.5373 197.533 49.6167 197.183 49.682C196.833 49.7427 196.55 49.7987 196.336 49.85C196.121 49.9013 195.932 49.9573 195.769 50.018C195.582 50.0927 195.43 50.1743 195.314 50.263C195.202 50.347 195.118 50.4403 195.062 50.543C195.01 50.6457 194.985 50.76 194.985 50.886C194.985 51.0587 195.027 51.208 195.111 51.334C195.199 51.4553 195.323 51.5487 195.482 51.614C195.64 51.6793 195.829 51.712 196.049 51.712ZM210.805 53V48.534C210.805 48.0347 210.686 47.6473 210.448 47.372C210.214 47.092 209.89 46.952 209.475 46.952C209.209 46.952 208.978 47.015 208.782 47.141C208.586 47.2623 208.432 47.435 208.32 47.659C208.212 47.8783 208.159 48.1327 208.159 48.422L207.361 47.89C207.361 47.372 207.482 46.9147 207.725 46.518C207.972 46.1213 208.301 45.8133 208.712 45.594C209.127 45.37 209.587 45.258 210.091 45.258C210.954 45.258 211.605 45.5147 212.044 46.028C212.487 46.5367 212.709 47.204 212.709 48.03V53H210.805ZM201.691 53V45.44H203.371V47.946H203.609V53H201.691ZM206.255 53V48.534C206.255 48.0347 206.136 47.6473 205.898 47.372C205.664 47.092 205.34 46.952 204.925 46.952C204.528 46.952 204.208 47.0897 203.966 47.365C203.728 47.6357 203.609 47.988 203.609 48.422L202.811 47.862C202.811 47.3673 202.934 46.924 203.182 46.532C203.429 46.14 203.76 45.8297 204.176 45.601C204.596 45.3723 205.065 45.258 205.583 45.258C206.175 45.258 206.661 45.384 207.039 45.636C207.421 45.888 207.704 46.224 207.886 46.644C208.068 47.064 208.159 47.526 208.159 48.03V53H206.255ZM217.906 53.21C217.131 53.21 216.448 53.0443 215.855 52.713C215.267 52.377 214.805 51.9173 214.469 51.334C214.138 50.746 213.972 50.074 213.972 49.318C213.972 48.492 214.135 47.7733 214.462 47.162C214.789 46.5507 215.239 46.077 215.813 45.741C216.387 45.4003 217.047 45.23 217.794 45.23C218.587 45.23 219.262 45.4167 219.817 45.79C220.372 46.1633 220.783 46.6883 221.049 47.365C221.315 48.0417 221.408 48.8373 221.329 49.752H219.446V49.052C219.446 48.282 219.322 47.729 219.075 47.393C218.832 47.0523 218.433 46.882 217.878 46.882C217.229 46.882 216.751 47.0803 216.443 47.477C216.14 47.869 215.988 48.45 215.988 49.22C215.988 49.9247 216.14 50.4707 216.443 50.858C216.751 51.2407 217.201 51.432 217.794 51.432C218.167 51.432 218.487 51.3503 218.753 51.187C219.019 51.0237 219.222 50.788 219.362 50.48L221.266 51.026C220.981 51.7167 220.531 52.2533 219.915 52.636C219.304 53.0187 218.634 53.21 217.906 53.21ZM215.4 49.752V48.338H220.412V49.752H215.4ZM235.511 55.94C234.867 55.94 234.363 55.758 233.999 55.394C233.635 55.03 233.453 54.526 233.453 53.882V49.794C233.453 49.7053 233.429 49.6307 233.383 49.57L232.753 48.674C232.65 48.52 232.599 48.352 232.599 48.17C232.599 47.988 232.65 47.82 232.753 47.666L233.383 46.77C233.429 46.6907 233.453 46.616 233.453 46.546V42.458C233.453 41.8187 233.635 41.317 233.999 40.953C234.363 40.5843 234.867 40.4 235.511 40.4H236.505V42.192H235.651C235.539 42.192 235.443 42.2317 235.364 42.311C235.284 42.3903 235.245 42.486 235.245 42.598V46.546C235.245 47.0033 235.109 47.4233 234.839 47.806L234.573 48.17L234.839 48.534C235.109 48.9167 235.245 49.3367 235.245 49.794V53.742C235.245 53.8587 235.284 53.9567 235.364 54.036C235.443 54.12 235.539 54.162 235.651 54.162H236.505V55.94H235.511ZM249.294 76V72.43C249.294 72.2573 249.285 72.038 249.266 71.772C249.247 71.5013 249.189 71.2307 249.091 70.96C248.993 70.6893 248.832 70.463 248.608 70.281C248.389 70.099 248.076 70.008 247.67 70.008C247.507 70.008 247.332 70.0337 247.145 70.085C246.958 70.1363 246.783 70.2367 246.62 70.386C246.457 70.5307 246.321 70.7453 246.214 71.03C246.111 71.3147 246.06 71.6927 246.06 72.164L244.968 71.646C244.968 71.0487 245.089 70.4887 245.332 69.966C245.575 69.4433 245.939 69.021 246.424 68.699C246.914 68.377 247.53 68.216 248.272 68.216C248.865 68.216 249.348 68.3163 249.721 68.517C250.094 68.7177 250.384 68.972 250.589 69.28C250.799 69.588 250.948 69.91 251.037 70.246C251.126 70.5773 251.179 70.8807 251.198 71.156C251.217 71.4313 251.226 71.632 251.226 71.758V76H249.294ZM244.128 76V68.44H245.822V70.946H246.06V76H244.128ZM255.143 76.21C254.601 76.21 254.142 76.1073 253.764 75.902C253.39 75.692 253.106 75.4143 252.91 75.069C252.718 74.719 252.623 74.334 252.623 73.914C252.623 73.564 252.676 73.2443 252.784 72.955C252.891 72.6657 253.064 72.4113 253.302 72.192C253.544 71.968 253.869 71.7813 254.275 71.632C254.555 71.5293 254.888 71.4383 255.276 71.359C255.663 71.2797 256.102 71.205 256.592 71.135C257.082 71.0603 257.621 70.9787 258.209 70.89L257.523 71.268C257.523 70.82 257.415 70.491 257.201 70.281C256.986 70.071 256.627 69.966 256.123 69.966C255.843 69.966 255.551 70.0337 255.248 70.169C254.944 70.3043 254.732 70.5447 254.611 70.89L252.889 70.344C253.08 69.7187 253.439 69.21 253.967 68.818C254.494 68.426 255.213 68.23 256.123 68.23C256.79 68.23 257.383 68.3327 257.901 68.538C258.419 68.7433 258.811 69.098 259.077 69.602C259.226 69.882 259.315 70.162 259.343 70.442C259.371 70.722 259.385 71.0347 259.385 71.38V76H257.719V74.446L257.957 74.768C257.588 75.2767 257.189 75.6453 256.76 75.874C256.335 76.098 255.796 76.21 255.143 76.21ZM255.549 74.712C255.899 74.712 256.193 74.6513 256.431 74.53C256.673 74.404 256.865 74.2617 257.005 74.103C257.149 73.9443 257.247 73.8113 257.299 73.704C257.397 73.4987 257.453 73.2607 257.467 72.99C257.485 72.7147 257.495 72.486 257.495 72.304L258.055 72.444C257.49 72.5373 257.033 72.6167 256.683 72.682C256.333 72.7427 256.05 72.7987 255.836 72.85C255.621 72.9013 255.432 72.9573 255.269 73.018C255.082 73.0927 254.93 73.1743 254.814 73.263C254.702 73.347 254.618 73.4403 254.562 73.543C254.51 73.6457 254.485 73.76 254.485 73.886C254.485 74.0587 254.527 74.208 254.611 74.334C254.699 74.4553 254.823 74.5487 254.982 74.614C255.14 74.6793 255.329 74.712 255.549 74.712ZM270.305 76V71.534C270.305 71.0347 270.186 70.6473 269.948 70.372C269.714 70.092 269.39 69.952 268.975 69.952C268.709 69.952 268.478 70.015 268.282 70.141C268.086 70.2623 267.932 70.435 267.82 70.659C267.712 70.8783 267.659 71.1327 267.659 71.422L266.861 70.89C266.861 70.372 266.982 69.9147 267.225 69.518C267.472 69.1213 267.801 68.8133 268.212 68.594C268.627 68.37 269.087 68.258 269.591 68.258C270.454 68.258 271.105 68.5147 271.544 69.028C271.987 69.5367 272.209 70.204 272.209 71.03V76H270.305ZM261.191 76V68.44H262.871V70.946H263.109V76H261.191ZM265.755 76V71.534C265.755 71.0347 265.636 70.6473 265.398 70.372C265.164 70.092 264.84 69.952 264.425 69.952C264.028 69.952 263.708 70.0897 263.466 70.365C263.228 70.6357 263.109 70.988 263.109 71.422L262.311 70.862C262.311 70.3673 262.434 69.924 262.682 69.532C262.929 69.14 263.26 68.8297 263.676 68.601C264.096 68.3723 264.565 68.258 265.083 68.258C265.675 68.258 266.161 68.384 266.539 68.636C266.921 68.888 267.204 69.224 267.386 69.644C267.568 70.064 267.659 70.526 267.659 71.03V76H265.755ZM277.406 76.21C276.631 76.21 275.948 76.0443 275.355 75.713C274.767 75.377 274.305 74.9173 273.969 74.334C273.638 73.746 273.472 73.074 273.472 72.318C273.472 71.492 273.635 70.7733 273.962 70.162C274.289 69.5507 274.739 69.077 275.313 68.741C275.887 68.4003 276.547 68.23 277.294 68.23C278.087 68.23 278.762 68.4167 279.317 68.79C279.872 69.1633 280.283 69.6883 280.549 70.365C280.815 71.0417 280.908 71.8373 280.829 72.752H278.946V72.052C278.946 71.282 278.822 70.729 278.575 70.393C278.332 70.0523 277.933 69.882 277.378 69.882C276.729 69.882 276.251 70.0803 275.943 70.477C275.64 70.869 275.488 71.45 275.488 72.22C275.488 72.9247 275.64 73.4707 275.943 73.858C276.251 74.2407 276.701 74.432 277.294 74.432C277.667 74.432 277.987 74.3503 278.253 74.187C278.519 74.0237 278.722 73.788 278.862 73.48L280.766 74.026C280.481 74.7167 280.031 75.2533 279.415 75.636C278.804 76.0187 278.134 76.21 277.406 76.21ZM274.9 72.752V71.338H279.912V72.752H274.9ZM79.054 101.94H78.06V100.162H78.914C79.026 100.162 79.1217 100.12 79.201 100.036C79.2803 99.9567 79.32 99.8587 79.32 99.742V95.794C79.32 95.3367 79.4553 94.9167 79.726 94.534L79.992 94.17L79.726 93.806C79.4553 93.4233 79.32 93.0033 79.32 92.546V88.598C79.32 88.486 79.2803 88.3903 79.201 88.311C79.1217 88.2317 79.026 88.192 78.914 88.192H78.06V86.4H79.054C79.698 86.4 80.202 86.5843 80.566 86.953C80.93 87.317 81.112 87.8187 81.112 88.458V92.546C81.112 92.616 81.1353 92.6907 81.182 92.77L81.812 93.666C81.9193 93.82 81.973 93.988 81.973 94.17C81.973 94.352 81.9193 94.52 81.812 94.674L81.182 95.57C81.1353 95.6307 81.112 95.7053 81.112 95.794V99.882C81.112 100.526 80.93 101.03 80.566 101.394C80.202 101.758 79.698 101.94 79.054 101.94Z" fill="#787DF7"/>
<path d="M250.69 17.21C249.939 17.21 249.311 17.035 248.807 16.685C248.303 16.335 247.923 15.859 247.666 15.257C247.414 14.655 247.288 13.976 247.288 13.22C247.288 12.464 247.414 11.785 247.666 11.183C247.918 10.581 248.289 10.105 248.779 9.755C249.269 9.405 249.873 9.23 250.592 9.23C251.315 9.23 251.945 9.40267 252.482 9.748C253.019 10.0933 253.434 10.567 253.728 11.169C254.027 11.7663 254.176 12.45 254.176 13.22C254.176 13.976 254.029 14.655 253.735 15.257C253.446 15.859 253.04 16.335 252.517 16.685C251.994 17.035 251.385 17.21 250.69 17.21ZM246.966 20.36V9.44H248.646V14.62H248.884V20.36H246.966ZM250.382 15.516C250.793 15.516 251.129 15.4133 251.39 15.208C251.651 15.0027 251.845 14.7273 251.971 14.382C252.097 14.032 252.16 13.6447 252.16 13.22C252.16 12.8 252.095 12.4173 251.964 12.072C251.833 11.722 251.63 11.4443 251.355 11.239C251.084 11.029 250.737 10.924 250.312 10.924C249.915 10.924 249.593 11.0197 249.346 11.211C249.103 11.4023 248.926 11.6707 248.814 12.016C248.702 12.3613 248.646 12.7627 248.646 13.22C248.646 13.6773 248.702 14.0787 248.814 14.424C248.926 14.7693 249.108 15.0377 249.36 15.229C249.617 15.4203 249.957 15.516 250.382 15.516ZM257.816 17.21C257.275 17.21 256.815 17.1073 256.437 16.902C256.064 16.692 255.779 16.4143 255.583 16.069C255.392 15.719 255.296 15.334 255.296 14.914C255.296 14.564 255.35 14.2443 255.457 13.955C255.565 13.6657 255.737 13.4113 255.975 13.192C256.218 12.968 256.542 12.7813 256.948 12.632C257.228 12.5293 257.562 12.4383 257.949 12.359C258.337 12.2797 258.775 12.205 259.265 12.135C259.755 12.0603 260.294 11.9787 260.882 11.89L260.196 12.268C260.196 11.82 260.089 11.491 259.874 11.281C259.66 11.071 259.3 10.966 258.796 10.966C258.516 10.966 258.225 11.0337 257.921 11.169C257.618 11.3043 257.406 11.5447 257.284 11.89L255.562 11.344C255.754 10.7187 256.113 10.21 256.64 9.818C257.168 9.426 257.886 9.23 258.796 9.23C259.464 9.23 260.056 9.33267 260.574 9.538C261.092 9.74333 261.484 10.098 261.75 10.602C261.9 10.882 261.988 11.162 262.016 11.442C262.044 11.722 262.058 12.0347 262.058 12.38V17H260.392V15.446L260.63 15.768C260.262 16.2767 259.863 16.6453 259.433 16.874C259.009 17.098 258.47 17.21 257.816 17.21ZM258.222 15.712C258.572 15.712 258.866 15.6513 259.104 15.53C259.347 15.404 259.538 15.2617 259.678 15.103C259.823 14.9443 259.921 14.8113 259.972 14.704C260.07 14.4987 260.126 14.2607 260.14 13.99C260.159 13.7147 260.168 13.486 260.168 13.304L260.728 13.444C260.164 13.5373 259.706 13.6167 259.356 13.682C259.006 13.7427 258.724 13.7987 258.509 13.85C258.295 13.9013 258.106 13.9573 257.942 14.018C257.756 14.0927 257.604 14.1743 257.487 14.263C257.375 14.347 257.291 14.4403 257.235 14.543C257.184 14.6457 257.158 14.76 257.158 14.886C257.158 15.0587 257.2 15.208 257.284 15.334C257.373 15.4553 257.497 15.5487 257.655 15.614C257.814 15.6793 258.003 15.712 258.222 15.712ZM263.878 17V9.44H265.558V11.288L265.376 11.05C265.474 10.7887 265.605 10.5507 265.768 10.336C265.932 10.1213 266.132 9.944 266.37 9.804C266.552 9.692 266.751 9.60567 266.965 9.545C267.18 9.47967 267.402 9.44 267.63 9.426C267.859 9.40733 268.088 9.412 268.316 9.44V11.218C268.106 11.1527 267.861 11.1317 267.581 11.155C267.306 11.1737 267.056 11.2367 266.832 11.344C266.608 11.4467 266.419 11.5843 266.265 11.757C266.111 11.925 265.995 12.1257 265.915 12.359C265.836 12.5877 265.796 12.8467 265.796 13.136V17H263.878ZM271.598 17.21C271.056 17.21 270.597 17.1073 270.219 16.902C269.845 16.692 269.561 16.4143 269.365 16.069C269.173 15.719 269.078 15.334 269.078 14.914C269.078 14.564 269.131 14.2443 269.239 13.955C269.346 13.6657 269.519 13.4113 269.757 13.192C269.999 12.968 270.324 12.7813 270.73 12.632C271.01 12.5293 271.343 12.4383 271.731 12.359C272.118 12.2797 272.557 12.205 273.047 12.135C273.537 12.0603 274.076 11.9787 274.664 11.89L273.978 12.268C273.978 11.82 273.87 11.491 273.656 11.281C273.441 11.071 273.082 10.966 272.578 10.966C272.298 10.966 272.006 11.0337 271.703 11.169C271.399 11.3043 271.187 11.5447 271.066 11.89L269.344 11.344C269.535 10.7187 269.894 10.21 270.422 9.818C270.949 9.426 271.668 9.23 272.578 9.23C273.245 9.23 273.838 9.33267 274.356 9.538C274.874 9.74333 275.266 10.098 275.532 10.602C275.681 10.882 275.77 11.162 275.798 11.442C275.826 11.722 275.84 12.0347 275.84 12.38V17H274.174V15.446L274.412 15.768C274.043 16.2767 273.644 16.6453 273.215 16.874C272.79 17.098 272.251 17.21 271.598 17.21ZM272.004 15.712C272.354 15.712 272.648 15.6513 272.886 15.53C273.128 15.404 273.32 15.2617 273.46 15.103C273.604 14.9443 273.702 14.8113 273.754 14.704C273.852 14.4987 273.908 14.2607 273.922 13.99C273.94 13.7147 273.95 13.486 273.95 13.304L274.51 13.444C273.945 13.5373 273.488 13.6167 273.138 13.682C272.788 13.7427 272.505 13.7987 272.291 13.85C272.076 13.9013 271.887 13.9573 271.724 14.018C271.537 14.0927 271.385 14.1743 271.269 14.263C271.157 14.347 271.073 14.4403 271.017 14.543C270.965 14.6457 270.94 14.76 270.94 14.886C270.94 15.0587 270.982 15.208 271.066 15.334C271.154 15.4553 271.278 15.5487 271.437 15.614C271.595 15.6793 271.784 15.712 272.004 15.712ZM286.76 17V12.534C286.76 12.0347 286.641 11.6473 286.403 11.372C286.169 11.092 285.845 10.952 285.43 10.952C285.164 10.952 284.933 11.015 284.737 11.141C284.541 11.2623 284.387 11.435 284.275 11.659C284.167 11.8783 284.114 12.1327 284.114 12.422L283.316 11.89C283.316 11.372 283.437 10.9147 283.68 10.518C283.927 10.1213 284.256 9.81333 284.667 9.594C285.082 9.37 285.542 9.258 286.046 9.258C286.909 9.258 287.56 9.51467 287.999 10.028C288.442 10.5367 288.664 11.204 288.664 12.03V17H286.76ZM277.646 17V9.44H279.326V11.946H279.564V17H277.646ZM282.21 17V12.534C282.21 12.0347 282.091 11.6473 281.853 11.372C281.619 11.092 281.295 10.952 280.88 10.952C280.483 10.952 280.163 11.0897 279.921 11.365C279.683 11.6357 279.564 11.988 279.564 12.422L278.766 11.862C278.766 11.3673 278.889 10.924 279.137 10.532C279.384 10.14 279.715 9.82967 280.131 9.601C280.551 9.37233 281.02 9.258 281.538 9.258C282.13 9.258 282.616 9.384 282.994 9.636C283.376 9.888 283.659 10.224 283.841 10.644C284.023 11.064 284.114 11.526 284.114 12.03V17H282.21ZM293.861 17.21C293.087 17.21 292.403 17.0443 291.81 16.713C291.222 16.377 290.76 15.9173 290.424 15.334C290.093 14.746 289.927 14.074 289.927 13.318C289.927 12.492 290.091 11.7733 290.417 11.162C290.744 10.5507 291.194 10.077 291.768 9.741C292.342 9.40033 293.003 9.23 293.749 9.23C294.543 9.23 295.217 9.41667 295.772 9.79C296.328 10.1633 296.738 10.6883 297.004 11.365C297.27 12.0417 297.364 12.8373 297.284 13.752H295.401V13.052C295.401 12.282 295.278 11.729 295.03 11.393C294.788 11.0523 294.389 10.882 293.833 10.882C293.185 10.882 292.706 11.0803 292.398 11.477C292.095 11.869 291.943 12.45 291.943 13.22C291.943 13.9247 292.095 14.4707 292.398 14.858C292.706 15.2407 293.157 15.432 293.749 15.432C294.123 15.432 294.442 15.3503 294.708 15.187C294.974 15.0237 295.177 14.788 295.317 14.48L297.221 15.026C296.937 15.7167 296.486 16.2533 295.87 16.636C295.259 17.0187 294.589 17.21 293.861 17.21ZM291.355 13.752V12.338H296.367V13.752H291.355ZM303.401 17C302.878 17.098 302.365 17.14 301.861 17.126C301.361 17.1167 300.913 17.0303 300.517 16.867C300.125 16.699 299.826 16.4307 299.621 16.062C299.434 15.7167 299.336 15.3667 299.327 15.012C299.317 14.6527 299.313 14.2467 299.313 13.794V7.34H301.217V13.682C301.217 13.976 301.219 14.242 301.224 14.48C301.233 14.7133 301.282 14.9 301.371 15.04C301.539 15.306 301.807 15.4507 302.176 15.474C302.544 15.4973 302.953 15.4787 303.401 15.418V17ZM298.025 10.91V9.44H303.401V10.91H298.025ZM308.189 17.21C307.415 17.21 306.731 17.0443 306.138 16.713C305.55 16.377 305.088 15.9173 304.752 15.334C304.421 14.746 304.255 14.074 304.255 13.318C304.255 12.492 304.419 11.7733 304.745 11.162C305.072 10.5507 305.522 10.077 306.096 9.741C306.67 9.40033 307.331 9.23 308.077 9.23C308.871 9.23 309.545 9.41667 310.1 9.79C310.656 10.1633 311.066 10.6883 311.332 11.365C311.598 12.0417 311.692 12.8373 311.612 13.752H309.729V13.052C309.729 12.282 309.606 11.729 309.358 11.393C309.116 11.0523 308.717 10.882 308.161 10.882C307.513 10.882 307.034 11.0803 306.726 11.477C306.423 11.869 306.271 12.45 306.271 13.22C306.271 13.9247 306.423 14.4707 306.726 14.858C307.034 15.2407 307.485 15.432 308.077 15.432C308.451 15.432 308.77 15.3503 309.036 15.187C309.302 15.0237 309.505 14.788 309.645 14.48L311.549 15.026C311.265 15.7167 310.814 16.2533 310.198 16.636C309.587 17.0187 308.917 17.21 308.189 17.21ZM305.683 13.752V12.338H310.695V13.752H305.683ZM313.193 17V9.44H314.873V11.288L314.691 11.05C314.789 10.7887 314.92 10.5507 315.083 10.336C315.246 10.1213 315.447 9.944 315.685 9.804C315.867 9.692 316.065 9.60567 316.28 9.545C316.495 9.47967 316.716 9.44 316.945 9.426C317.174 9.40733 317.402 9.412 317.631 9.44V11.218C317.421 11.1527 317.176 11.1317 316.896 11.155C316.621 11.1737 316.371 11.2367 316.147 11.344C315.923 11.4467 315.734 11.5843 315.58 11.757C315.426 11.925 315.309 12.1257 315.23 12.359C315.151 12.5877 315.111 12.8467 315.111 13.136V17H313.193ZM321.643 17.21C320.691 17.21 319.921 16.9953 319.333 16.566C318.75 16.132 318.395 15.5207 318.269 14.732L320.215 14.438C320.294 14.7927 320.469 15.0703 320.74 15.271C321.015 15.4717 321.363 15.572 321.783 15.572C322.128 15.572 322.394 15.5067 322.581 15.376C322.768 15.2407 322.861 15.054 322.861 14.816C322.861 14.6667 322.824 14.5477 322.749 14.459C322.674 14.3657 322.506 14.2747 322.245 14.186C321.988 14.0973 321.587 13.9807 321.041 13.836C320.425 13.6773 319.933 13.5 319.564 13.304C319.195 13.108 318.929 12.8747 318.766 12.604C318.603 12.3287 318.521 11.9973 318.521 11.61C318.521 11.1247 318.645 10.7047 318.892 10.35C319.139 9.99067 319.487 9.71533 319.935 9.524C320.388 9.328 320.92 9.23 321.531 9.23C322.124 9.23 322.649 9.321 323.106 9.503C323.563 9.685 323.932 9.944 324.212 10.28C324.497 10.616 324.672 11.0127 324.737 11.47L322.791 11.82C322.758 11.54 322.637 11.3183 322.427 11.155C322.217 10.9917 321.932 10.896 321.573 10.868C321.223 10.8447 320.941 10.8913 320.726 11.008C320.516 11.1247 320.411 11.2927 320.411 11.512C320.411 11.6427 320.455 11.7523 320.544 11.841C320.637 11.9297 320.826 12.0207 321.111 12.114C321.4 12.2073 321.839 12.3287 322.427 12.478C323.001 12.6273 323.461 12.8023 323.806 13.003C324.156 13.199 324.41 13.437 324.569 13.717C324.728 13.9923 324.807 14.326 324.807 14.718C324.807 15.4927 324.527 16.1017 323.967 16.545C323.407 16.9883 322.632 17.21 321.643 17.21Z" fill="#787DF7"/>
<path d="M0.98 17V6.92H2.884V11.568L6.72 6.92H9.044L4.83 11.89L9.31 17H6.902L2.884 12.408V17H0.98ZM13.244 17.21C12.4693 17.21 11.7857 17.0443 11.193 16.713C10.605 16.377 10.143 15.9173 9.807 15.334C9.47567 14.746 9.31 14.074 9.31 13.318C9.31 12.492 9.47333 11.7733 9.8 11.162C10.1267 10.5507 10.577 10.077 11.151 9.741C11.725 9.40033 12.3853 9.23 13.132 9.23C13.9253 9.23 14.5997 9.41667 15.155 9.79C15.7103 10.1633 16.121 10.6883 16.387 11.365C16.653 12.0417 16.7463 12.8373 16.667 13.752H14.784V13.052C14.784 12.282 14.6603 11.729 14.413 11.393C14.1703 11.0523 13.7713 10.882 13.216 10.882C12.5673 10.882 12.089 11.0803 11.781 11.477C11.4777 11.869 11.326 12.45 11.326 13.22C11.326 13.9247 11.4777 14.4707 11.781 14.858C12.089 15.2407 12.5393 15.432 13.132 15.432C13.5053 15.432 13.825 15.3503 14.091 15.187C14.357 15.0237 14.56 14.788 14.7 14.48L16.604 15.026C16.3193 15.7167 15.869 16.2533 15.253 16.636C14.6417 17.0187 13.972 17.21 13.244 17.21ZM10.738 13.752V12.338H15.75V13.752H10.738ZM19.0769 20.36L20.5329 16.356L20.5609 17.532L17.2709 9.44H19.2449L21.4569 15.166H21.0089L23.2069 9.44H25.1109L20.8409 20.36H19.0769ZM27.7052 17L25.3952 9.426L27.2572 9.44L28.6292 13.948L30.0222 9.44H31.6042L32.9972 13.948L34.3692 9.44H36.2312L33.9212 17H32.4652L30.8132 12.072L29.1612 17H27.7052ZM40.6261 17.21C39.8655 17.21 39.1981 17.0397 38.6241 16.699C38.0501 16.3583 37.6021 15.8893 37.2801 15.292C36.9628 14.69 36.8041 13.9993 36.8041 13.22C36.8041 12.4313 36.9675 11.7383 37.2941 11.141C37.6208 10.539 38.0711 10.07 38.6451 9.734C39.2191 9.398 39.8795 9.23 40.6261 9.23C41.3868 9.23 42.0541 9.40033 42.6281 9.741C43.2068 10.0817 43.6571 10.553 43.9791 11.155C44.3011 11.7523 44.4621 12.4407 44.4621 13.22C44.4621 14.004 44.2988 14.697 43.9721 15.299C43.6501 15.8963 43.1998 16.3653 42.6211 16.706C42.0471 17.042 41.3821 17.21 40.6261 17.21ZM40.6261 15.432C41.2375 15.432 41.6925 15.2267 41.9911 14.816C42.2945 14.4007 42.4461 13.8687 42.4461 13.22C42.4461 12.548 42.2921 12.0113 41.9841 11.61C41.6808 11.2087 41.2281 11.008 40.6261 11.008C40.2108 11.008 39.8701 11.1013 39.6041 11.288C39.3381 11.4747 39.1398 11.7337 39.0091 12.065C38.8831 12.3963 38.8201 12.7813 38.8201 13.22C38.8201 13.8967 38.9718 14.4357 39.2751 14.837C39.5831 15.2337 40.0335 15.432 40.6261 15.432ZM46.0015 17V9.44H47.6815V11.288L47.4995 11.05C47.5975 10.7887 47.7282 10.5507 47.8915 10.336C48.0548 10.1213 48.2555 9.944 48.4935 9.804C48.6755 9.692 48.8738 9.60567 49.0885 9.545C49.3032 9.47967 49.5248 9.44 49.7535 9.426C49.9822 9.40733 50.2108 9.412 50.4395 9.44V11.218C50.2295 11.1527 49.9845 11.1317 49.7045 11.155C49.4292 11.1737 49.1795 11.2367 48.9555 11.344C48.7315 11.4467 48.5425 11.5843 48.3885 11.757C48.2345 11.925 48.1178 12.1257 48.0385 12.359C47.9592 12.5877 47.9195 12.8467 47.9195 13.136V17H46.0015ZM54.7003 17.21C54.005 17.21 53.396 17.035 52.8733 16.685C52.3506 16.335 51.9423 15.859 51.6483 15.257C51.359 14.655 51.2143 13.976 51.2143 13.22C51.2143 12.45 51.3613 11.7663 51.6553 11.169C51.954 10.567 52.3716 10.0933 52.9083 9.748C53.445 9.40267 54.075 9.23 54.7983 9.23C55.517 9.23 56.1213 9.405 56.6113 9.755C57.1013 10.105 57.4723 10.581 57.7243 11.183C57.9763 11.785 58.1023 12.464 58.1023 13.22C58.1023 13.976 57.974 14.655 57.7173 15.257C57.4653 15.859 57.0873 16.335 56.5833 16.685C56.0793 17.035 55.4516 17.21 54.7003 17.21ZM55.0083 15.516C55.433 15.516 55.7713 15.4203 56.0233 15.229C56.28 15.0377 56.4643 14.7693 56.5763 14.424C56.6883 14.0787 56.7443 13.6773 56.7443 13.22C56.7443 12.7627 56.6883 12.3613 56.5763 12.016C56.4643 11.6707 56.2846 11.4023 56.0373 11.211C55.7946 11.0197 55.475 10.924 55.0783 10.924C54.6536 10.924 54.3036 11.029 54.0283 11.239C53.7576 11.4443 53.557 11.722 53.4263 12.072C53.2956 12.4173 53.2303 12.8 53.2303 13.22C53.2303 13.6447 53.2933 14.032 53.4193 14.382C53.5453 14.7273 53.739 15.0027 54.0003 15.208C54.2616 15.4133 54.5976 15.516 55.0083 15.516ZM56.7443 17V11.82H56.5063V6.92H58.4243V17H56.7443Z" fill="white"/>
<path d="M211.98 124V113.92H216.012C216.731 113.92 217.312 114.065 217.755 114.354C218.198 114.639 218.523 114.998 218.728 115.432C218.933 115.866 219.036 116.305 219.036 116.748C219.036 117.313 218.908 117.782 218.651 118.155C218.399 118.528 218.051 118.778 217.608 118.904V118.554C218.238 118.685 218.709 118.976 219.022 119.429C219.339 119.882 219.498 120.388 219.498 120.948C219.498 121.55 219.386 122.08 219.162 122.537C218.943 122.994 218.607 123.354 218.154 123.615C217.701 123.872 217.132 124 216.446 124H211.98ZM213.912 122.208H216.25C216.507 122.208 216.735 122.154 216.936 122.047C217.137 121.935 217.293 121.781 217.405 121.585C217.522 121.384 217.58 121.149 217.58 120.878C217.58 120.64 217.531 120.428 217.433 120.241C217.335 120.054 217.186 119.907 216.985 119.8C216.789 119.688 216.544 119.632 216.25 119.632H213.912V122.208ZM213.912 117.854H215.984C216.199 117.854 216.39 117.817 216.558 117.742C216.726 117.667 216.859 117.553 216.957 117.399C217.055 117.24 217.104 117.037 217.104 116.79C217.104 116.482 217.008 116.223 216.817 116.013C216.626 115.803 216.348 115.698 215.984 115.698H213.912V117.854ZM221.034 124V113.71H222.938V124H221.034ZM228.439 124.21C227.678 124.21 227.011 124.04 226.437 123.699C225.863 123.358 225.415 122.889 225.093 122.292C224.775 121.69 224.617 120.999 224.617 120.22C224.617 119.431 224.78 118.738 225.107 118.141C225.433 117.539 225.884 117.07 226.458 116.734C227.032 116.398 227.692 116.23 228.439 116.23C229.199 116.23 229.867 116.4 230.441 116.741C231.019 117.082 231.47 117.553 231.792 118.155C232.114 118.752 232.275 119.441 232.275 120.22C232.275 121.004 232.111 121.697 231.785 122.299C231.463 122.896 231.012 123.365 230.434 123.706C229.86 124.042 229.195 124.21 228.439 124.21ZM228.439 122.432C229.05 122.432 229.505 122.227 229.804 121.816C230.107 121.401 230.259 120.869 230.259 120.22C230.259 119.548 230.105 119.011 229.797 118.61C229.493 118.209 229.041 118.008 228.439 118.008C228.023 118.008 227.683 118.101 227.417 118.288C227.151 118.475 226.952 118.734 226.822 119.065C226.696 119.396 226.633 119.781 226.633 120.22C226.633 120.897 226.784 121.436 227.088 121.837C227.396 122.234 227.846 122.432 228.439 122.432ZM237.146 124.21C236.362 124.21 235.69 124.035 235.13 123.685C234.57 123.335 234.141 122.859 233.842 122.257C233.543 121.655 233.394 120.976 233.394 120.22C233.394 119.455 233.548 118.771 233.856 118.169C234.169 117.567 234.607 117.093 235.172 116.748C235.737 116.403 236.404 116.23 237.174 116.23C238.065 116.23 238.812 116.456 239.414 116.909C240.021 117.357 240.408 117.971 240.576 118.75L238.672 119.254C238.56 118.862 238.364 118.556 238.084 118.337C237.809 118.118 237.496 118.008 237.146 118.008C236.745 118.008 236.416 118.106 236.159 118.302C235.902 118.493 235.713 118.757 235.592 119.093C235.471 119.424 235.41 119.8 235.41 120.22C235.41 120.878 235.555 121.412 235.844 121.823C236.138 122.229 236.572 122.432 237.146 122.432C237.575 122.432 237.902 122.334 238.126 122.138C238.35 121.942 238.518 121.662 238.63 121.298L240.576 121.704C240.361 122.507 239.955 123.125 239.358 123.559C238.761 123.993 238.023 124.21 237.146 124.21ZM241.962 124L241.976 113.92H243.908V120.08L246.47 116.44H248.822L246.092 120.22L249.004 124H246.526L243.908 120.36V124H241.962ZM255.905 124.21C255.145 124.21 254.477 124.04 253.903 123.699C253.329 123.358 252.881 122.889 252.559 122.292C252.242 121.69 252.083 120.999 252.083 120.22C252.083 119.431 252.247 118.738 252.573 118.141C252.9 117.539 253.35 117.07 253.924 116.734C254.498 116.398 255.159 116.23 255.905 116.23C256.666 116.23 257.333 116.4 257.907 116.741C258.486 117.082 258.936 117.553 259.258 118.155C259.58 118.752 259.741 119.441 259.741 120.22C259.741 121.004 259.578 121.697 259.251 122.299C258.929 122.896 258.479 123.365 257.9 123.706C257.326 124.042 256.661 124.21 255.905 124.21ZM255.905 122.432C256.517 122.432 256.972 122.227 257.27 121.816C257.574 121.401 257.725 120.869 257.725 120.22C257.725 119.548 257.571 119.011 257.263 118.61C256.96 118.209 256.507 118.008 255.905 118.008C255.49 118.008 255.149 118.101 254.883 118.288C254.617 118.475 254.419 118.734 254.288 119.065C254.162 119.396 254.099 119.781 254.099 120.22C254.099 120.897 254.251 121.436 254.554 121.837C254.862 122.234 255.313 122.432 255.905 122.432ZM261.911 124V116.468C261.911 116.277 261.915 116.06 261.925 115.817C261.934 115.574 261.971 115.329 262.037 115.082C262.107 114.835 262.233 114.611 262.415 114.41C262.648 114.149 262.9 113.971 263.171 113.878C263.446 113.78 263.712 113.729 263.969 113.724C264.225 113.715 264.445 113.71 264.627 113.71H265.565V115.25H264.697C264.398 115.25 264.176 115.327 264.032 115.481C263.887 115.63 263.815 115.81 263.815 116.02V124H261.911ZM260.721 117.91V116.44H265.565V117.91H260.721ZM272.816 124.21C272.032 124.21 271.36 124.035 270.8 123.685C270.24 123.335 269.811 122.859 269.512 122.257C269.213 121.655 269.064 120.976 269.064 120.22C269.064 119.455 269.218 118.771 269.526 118.169C269.839 117.567 270.277 117.093 270.842 116.748C271.407 116.403 272.074 116.23 272.844 116.23C273.735 116.23 274.482 116.456 275.084 116.909C275.691 117.357 276.078 117.971 276.246 118.75L274.342 119.254C274.23 118.862 274.034 118.556 273.754 118.337C273.479 118.118 273.166 118.008 272.816 118.008C272.415 118.008 272.086 118.106 271.829 118.302C271.572 118.493 271.383 118.757 271.262 119.093C271.141 119.424 271.08 119.8 271.08 120.22C271.08 120.878 271.225 121.412 271.514 121.823C271.808 122.229 272.242 122.432 272.816 122.432C273.245 122.432 273.572 122.334 273.796 122.138C274.02 121.942 274.188 121.662 274.3 121.298L276.246 121.704C276.031 122.507 275.625 123.125 275.028 123.559C274.431 123.993 273.693 124.21 272.816 124.21ZM280.843 124.21C280.082 124.21 279.415 124.04 278.841 123.699C278.267 123.358 277.819 122.889 277.497 122.292C277.18 121.69 277.021 120.999 277.021 120.22C277.021 119.431 277.184 118.738 277.511 118.141C277.838 117.539 278.288 117.07 278.862 116.734C279.436 116.398 280.096 116.23 280.843 116.23C281.604 116.23 282.271 116.4 282.845 116.741C283.424 117.082 283.874 117.553 284.196 118.155C284.518 118.752 284.679 119.441 284.679 120.22C284.679 121.004 284.516 121.697 284.189 122.299C283.867 122.896 283.417 123.365 282.838 123.706C282.264 124.042 281.599 124.21 280.843 124.21ZM280.843 122.432C281.454 122.432 281.909 122.227 282.208 121.816C282.511 121.401 282.663 120.869 282.663 120.22C282.663 119.548 282.509 119.011 282.201 118.61C281.898 118.209 281.445 118.008 280.843 118.008C280.428 118.008 280.087 118.101 279.821 118.288C279.555 118.475 279.357 118.734 279.226 119.065C279.1 119.396 279.037 119.781 279.037 120.22C279.037 120.897 279.189 121.436 279.492 121.837C279.8 122.234 280.25 122.432 280.843 122.432ZM289.284 124.21C288.589 124.21 287.98 124.035 287.457 123.685C286.935 123.335 286.526 122.859 286.232 122.257C285.943 121.655 285.798 120.976 285.798 120.22C285.798 119.45 285.945 118.766 286.239 118.169C286.538 117.567 286.956 117.093 287.492 116.748C288.029 116.403 288.659 116.23 289.382 116.23C290.101 116.23 290.705 116.405 291.195 116.755C291.685 117.105 292.056 117.581 292.308 118.183C292.56 118.785 292.686 119.464 292.686 120.22C292.686 120.976 292.558 121.655 292.301 122.257C292.049 122.859 291.671 123.335 291.167 123.685C290.663 124.035 290.036 124.21 289.284 124.21ZM289.592 122.516C290.017 122.516 290.355 122.42 290.607 122.229C290.864 122.038 291.048 121.769 291.16 121.424C291.272 121.079 291.328 120.677 291.328 120.22C291.328 119.763 291.272 119.361 291.16 119.016C291.048 118.671 290.869 118.402 290.621 118.211C290.379 118.02 290.059 117.924 289.662 117.924C289.238 117.924 288.888 118.029 288.612 118.239C288.342 118.444 288.141 118.722 288.01 119.072C287.88 119.417 287.814 119.8 287.814 120.22C287.814 120.645 287.877 121.032 288.003 121.382C288.129 121.727 288.323 122.003 288.584 122.208C288.846 122.413 289.182 122.516 289.592 122.516ZM291.328 124V118.82H291.09V113.92H293.008V124H291.328ZM298.482 124.21C297.708 124.21 297.024 124.044 296.431 123.713C295.843 123.377 295.381 122.917 295.045 122.334C294.714 121.746 294.548 121.074 294.548 120.318C294.548 119.492 294.712 118.773 295.038 118.162C295.365 117.551 295.815 117.077 296.389 116.741C296.963 116.4 297.624 116.23 298.37 116.23C299.164 116.23 299.838 116.417 300.393 116.79C300.949 117.163 301.359 117.688 301.625 118.365C301.891 119.042 301.985 119.837 301.905 120.752H300.022V120.052C300.022 119.282 299.899 118.729 299.651 118.393C299.409 118.052 299.01 117.882 298.454 117.882C297.806 117.882 297.327 118.08 297.019 118.477C296.716 118.869 296.564 119.45 296.564 120.22C296.564 120.925 296.716 121.471 297.019 121.858C297.327 122.241 297.778 122.432 298.37 122.432C298.744 122.432 299.063 122.35 299.329 122.187C299.595 122.024 299.798 121.788 299.938 121.48L301.842 122.026C301.558 122.717 301.107 123.253 300.491 123.636C299.88 124.019 299.21 124.21 298.482 124.21ZM295.976 120.752V119.338H300.988V120.752H295.976Z" fill="white"/>
<path d="M198.5 39C198.5 39.5523 198.948 40 199.5 40C200.052 40 200.5 39.5523 200.5 39H198.5ZM238.207 12.7071C238.598 12.3166 238.598 11.6834 238.207 11.2929L231.843 4.92893C231.453 4.53841 230.819 4.53841 230.429 4.92893C230.038 5.31946 230.038 5.95262 230.429 6.34315L236.086 12L230.429 17.6569C230.038 18.0474 230.038 18.6805 230.429 19.0711C230.819 19.4616 231.453 19.4616 231.843 19.0711L238.207 12.7071ZM200.5 39V22H198.5V39H200.5ZM209.5 13H237.5V11H209.5V13ZM200.5 22C200.5 17.0294 204.529 13 209.5 13V11C203.425 11 198.5 15.9249 198.5 22H200.5Z" fill="#787DF7"/>
<path d="M108 39C108 39.5523 108.448 40 109 40C109.552 40 110 39.5523 110 39H108ZM67.2929 11.2929C66.9024 11.6834 66.9024 12.3166 67.2929 12.7071L73.6569 19.0711C74.0474 19.4616 74.6805 19.4616 75.0711 19.0711C75.4616 18.6805 75.4616 18.0474 75.0711 17.6569L69.4142 12L75.0711 6.34315C75.4616 5.95262 75.4616 5.31946 75.0711 4.92893C74.6805 4.53841 74.0474 4.53841 73.6569 4.92893L67.2929 11.2929ZM110 39V22H108V39H110ZM99 11H68V13H99V11ZM110 22C110 15.9249 105.075 11 99 11V13C103.971 13 108 17.0294 108 22H110Z" fill="white"/>
<path d="M248.793 47.2929C248.402 47.6834 248.402 48.3166 248.793 48.7071L255.157 55.0711C255.547 55.4616 256.181 55.4616 256.571 55.0711C256.962 54.6805 256.962 54.0474 256.571 53.6569L250.914 48L256.571 42.3431C256.962 41.9526 256.962 41.3195 256.571 40.9289C256.181 40.5384 255.547 40.5384 255.157 40.9289L248.793 47.2929ZM94.2929 97.7929C93.9024 98.1834 93.9024 98.8166 94.2929 99.2071L100.657 105.571C101.047 105.962 101.681 105.962 102.071 105.571C102.462 105.181 102.462 104.547 102.071 104.157L96.4142 98.5L102.071 92.8431C102.462 92.4526 102.462 91.8195 102.071 91.4289C101.681 91.0384 101.047 91.0384 100.657 91.4289L94.2929 97.7929ZM249.5 49H355V47H249.5V49ZM364 58V88.5H366V58H364ZM355 97.5H95V99.5H355V97.5ZM364 88.5C364 93.4706 359.971 97.5 355 97.5V99.5C361.075 99.5 366 94.5751 366 88.5H364ZM355 49C359.971 49 364 53.0294 364 58H366C366 51.9249 361.075 47 355 47V49Z" fill="#787DF7"/>
<path d="M310.793 119.293C310.402 119.683 310.402 120.317 310.793 120.707L317.157 127.071C317.547 127.462 318.181 127.462 318.571 127.071C318.962 126.681 318.962 126.047 318.571 125.657L312.914 120L318.571 114.343C318.962 113.953 318.962 113.319 318.571 112.929C318.181 112.538 317.547 112.538 317.157 112.929L310.793 119.293ZM365.5 82H387V80H365.5V82ZM396 91V110H398V91H396ZM387 119H311.5V121H387V119ZM396 110C396 114.971 391.971 119 387 119V121C393.075 121 398 116.075 398 110H396ZM387 82C391.971 82 396 86.0294 396 91H398C398 84.9249 393.075 80 387 80V82Z" fill="white"/>
</svg>
