<svg width="320" height="225" viewBox="0 0 320 225" fill="none" xmlns="http://www.w3.org/2000/svg">
<path d="M5.12 15V4.71H7.024V15H5.12ZM12.6366 15.21C11.8619 15.21 11.1782 15.0443 10.5856 14.713C9.99758 14.377 9.53558 13.9173 9.19958 13.334C8.86824 12.746 8.70258 12.074 8.70258 11.318C8.70258 10.492 8.86591 9.77333 9.19258 9.162C9.51924 8.55067 9.96958 8.077 10.5436 7.741C11.1176 7.40033 11.7779 7.23 12.5246 7.23C13.3179 7.23 13.9922 7.41667 14.5476 7.79C15.1029 8.16333 15.5136 8.68833 15.7796 9.365C16.0456 10.0417 16.1389 10.8373 16.0596 11.752H14.1766V11.052C14.1766 10.282 14.0529 9.729 13.8056 9.393C13.5629 9.05233 13.1639 8.882 12.6086 8.882C11.9599 8.882 11.4816 9.08033 11.1736 9.477C10.8702 9.869 10.7186 10.45 10.7186 11.22C10.7186 11.9247 10.8702 12.4707 11.1736 12.858C11.4816 13.2407 11.9319 13.432 12.5246 13.432C12.8979 13.432 13.2176 13.3503 13.4836 13.187C13.7496 13.0237 13.9526 12.788 14.0926 12.48L15.9966 13.026C15.7119 13.7167 15.2616 14.2533 14.6456 14.636C14.0342 15.0187 13.3646 15.21 12.6366 15.21ZM10.1306 11.752V10.338H15.1426V11.752H10.1306ZM22.1762 15C21.6535 15.098 21.1402 15.14 20.6362 15.126C20.1368 15.1167 19.6888 15.0303 19.2922 14.867C18.9002 14.699 18.6015 14.4307 18.3962 14.062C18.2095 13.7167 18.1115 13.3667 18.1022 13.012C18.0928 12.6527 18.0882 12.2467 18.0882 11.794V5.34H19.9922V11.682C19.9922 11.976 19.9945 12.242 19.9992 12.48C20.0085 12.7133 20.0575 12.9 20.1462 13.04C20.3142 13.306 20.5825 13.4507 20.9512 13.474C21.3198 13.4973 21.7282 13.4787 22.1762 13.418V15ZM16.8002 8.91V7.44H22.1762V8.91H16.8002ZM55.5823 9.33V7.86H62.7223V9.33H55.5823ZM55.5823 12.06V10.59H62.7223V12.06H55.5823ZM83.8115 16.89L83.9235 16.092C84.1475 16.1107 84.3295 16.0733 84.4695 15.98C84.6095 15.8913 84.7052 15.7607 84.7565 15.588C84.8125 15.42 84.8242 15.224 84.7915 15H83.8115V13.096H85.7155V15C85.7155 15.672 85.5592 16.1807 85.2465 16.526C84.9338 16.8713 84.4555 16.9927 83.8115 16.89ZM83.8115 9.344V7.44H85.7155V9.344H83.8115ZM5.12 44.39V42.71H7.024V44.39H5.12ZM5.12 53V45.44H7.024V53H5.12ZM9.75258 53V45.468C9.75258 45.2767 9.75724 45.0597 9.76658 44.817C9.77591 44.5743 9.81324 44.3293 9.87858 44.082C9.94858 43.8347 10.0746 43.6107 10.2566 43.41C10.4899 43.1487 10.7419 42.9713 11.0126 42.878C11.2879 42.78 11.5539 42.7287 11.8106 42.724C12.0672 42.7147 12.2866 42.71 12.4686 42.71H13.4066V44.25H12.5386C12.2399 44.25 12.0182 44.327 11.8736 44.481C11.7289 44.6303 11.6566 44.81 11.6566 45.02V53H9.75258ZM8.56258 46.91V45.44H13.4066V46.91H8.56258ZM20.8397 55.716C20.2984 55.0813 19.834 54.3603 19.4467 53.553C19.064 52.7457 18.7724 51.901 18.5717 51.019C18.3757 50.1323 18.287 49.2527 18.3057 48.38C18.287 47.5073 18.3757 46.6277 18.5717 45.741C18.7724 44.8543 19.064 44.0097 19.4467 43.207C19.834 42.3997 20.2984 41.6787 20.8397 41.044L22.2537 42.08C21.6844 42.766 21.2387 43.452 20.9167 44.138C20.5947 44.8193 20.366 45.5123 20.2307 46.217C20.1 46.917 20.0324 47.638 20.0277 48.38C20.0324 49.122 20.1 49.8453 20.2307 50.55C20.366 51.25 20.5947 51.943 20.9167 52.629C21.2387 53.3103 21.6844 53.994 22.2537 54.68L20.8397 55.716ZM54.4398 51.978L53.2638 50.802L55.5598 48.59L53.2638 46.378L54.4398 45.202L57.8278 48.59L54.4398 51.978ZM61.4613 47.33V45.86H68.6013V47.33H61.4613ZM61.4613 50.06V48.59H68.6013V50.06H61.4613ZM90.1381 55.296L88.7241 54.26C89.2934 53.574 89.7391 52.8903 90.0611 52.209C90.3831 51.523 90.6094 50.83 90.7401 50.13C90.8754 49.4253 90.9454 48.702 90.9501 47.96C90.9454 47.218 90.8754 46.497 90.7401 45.797C90.6094 45.0923 90.3831 44.3993 90.0611 43.718C89.7391 43.032 89.2934 42.346 88.7241 41.66L90.1381 40.624C90.6794 41.2587 91.1414 41.9797 91.5241 42.787C91.9114 43.5897 92.2031 44.4343 92.3991 45.321C92.5997 46.2077 92.6907 47.0873 92.6721 47.96C92.6907 48.8327 92.5997 49.7123 92.3991 50.599C92.2031 51.481 91.9114 52.3257 91.5241 53.133C91.1414 53.9403 90.6794 54.6613 90.1381 55.296ZM102.306 55.94C101.662 55.94 101.158 55.758 100.794 55.394C100.43 55.03 100.248 54.526 100.248 53.882V49.794C100.248 49.7053 100.224 49.6307 100.178 49.57L99.5476 48.674C99.4449 48.52 99.3936 48.352 99.3936 48.17C99.3936 47.988 99.4449 47.82 99.5476 47.666L100.178 46.77C100.224 46.6907 100.248 46.616 100.248 46.546V42.458C100.248 41.8187 100.43 41.317 100.794 40.953C101.158 40.5843 101.662 40.4 102.306 40.4H103.3V42.192H102.446C102.334 42.192 102.238 42.2317 102.159 42.311C102.079 42.3903 102.04 42.486 102.04 42.598V46.546C102.04 47.0033 101.904 47.4233 101.634 47.806L101.368 48.17L101.634 48.534C101.904 48.9167 102.04 49.3367 102.04 49.794V53.742C102.04 53.8587 102.079 53.9567 102.159 54.036C102.238 54.12 102.334 54.162 102.446 54.162H103.3V55.94H102.306ZM13.9175 72.21C13.1335 72.21 12.4615 72.035 11.9015 71.685C11.3415 71.335 10.9121 70.859 10.6135 70.257C10.3148 69.655 10.1655 68.976 10.1655 68.22C10.1655 67.4547 10.3195 66.771 10.6275 66.169C10.9401 65.567 11.3788 65.0933 11.9435 64.748C12.5081 64.4027 13.1755 64.23 13.9455 64.23C14.8368 64.23 15.5835 64.4563 16.1855 64.909C16.7921 65.357 17.1795 65.9707 17.3475 66.75L15.4435 67.254C15.3315 66.862 15.1355 66.5563 14.8555 66.337C14.5801 66.1177 14.2675 66.008 13.9175 66.008C13.5161 66.008 13.1871 66.106 12.9305 66.302C12.6738 66.4933 12.4848 66.757 12.3635 67.093C12.2421 67.4243 12.1815 67.8 12.1815 68.22C12.1815 68.878 12.3261 69.4123 12.6155 69.823C12.9095 70.229 13.3435 70.432 13.9175 70.432C14.3468 70.432 14.6735 70.334 14.8975 70.138C15.1215 69.942 15.2895 69.662 15.4015 69.298L17.3475 69.704C17.1328 70.5067 16.7268 71.125 16.1295 71.559C15.5321 71.993 14.7948 72.21 13.9175 72.21ZM21.9445 72.21C21.1838 72.21 20.5165 72.0397 19.9425 71.699C19.3685 71.3583 18.9205 70.8893 18.5985 70.292C18.2812 69.69 18.1225 68.9993 18.1225 68.22C18.1225 67.4313 18.2858 66.7383 18.6125 66.141C18.9392 65.539 19.3895 65.07 19.9635 64.734C20.5375 64.398 21.1978 64.23 21.9445 64.23C22.7052 64.23 23.3725 64.4003 23.9465 64.741C24.5252 65.0817 24.9755 65.553 25.2975 66.155C25.6195 66.7523 25.7805 67.4407 25.7805 68.22C25.7805 69.004 25.6172 69.697 25.2905 70.299C24.9685 70.8963 24.5182 71.3653 23.9395 71.706C23.3655 72.042 22.7005 72.21 21.9445 72.21ZM21.9445 70.432C22.5558 70.432 23.0108 70.2267 23.3095 69.816C23.6128 69.4007 23.7645 68.8687 23.7645 68.22C23.7645 67.548 23.6105 67.0113 23.3025 66.61C22.9992 66.2087 22.5465 66.008 21.9445 66.008C21.5292 66.008 21.1885 66.1013 20.9225 66.288C20.6565 66.4747 20.4582 66.7337 20.3275 67.065C20.2015 67.3963 20.1385 67.7813 20.1385 68.22C20.1385 68.8967 20.2902 69.4357 20.5935 69.837C20.9015 70.2337 21.3518 70.432 21.9445 70.432ZM32.4718 72V68.43C32.4718 68.2573 32.4625 68.038 32.4438 67.772C32.4252 67.5013 32.3668 67.2307 32.2688 66.96C32.1708 66.6893 32.0098 66.463 31.7858 66.281C31.5665 66.099 31.2538 66.008 30.8478 66.008C30.6845 66.008 30.5095 66.0337 30.3228 66.085C30.1362 66.1363 29.9612 66.2367 29.7978 66.386C29.6345 66.5307 29.4992 66.7453 29.3918 67.03C29.2892 67.3147 29.2378 67.6927 29.2378 68.164L28.1458 67.646C28.1458 67.0487 28.2672 66.4887 28.5098 65.966C28.7525 65.4433 29.1165 65.021 29.6018 64.699C30.0918 64.377 30.7078 64.216 31.4498 64.216C32.0425 64.216 32.5255 64.3163 32.8988 64.517C33.2722 64.7177 33.5615 64.972 33.7668 65.28C33.9768 65.588 34.1262 65.91 34.2148 66.246C34.3035 66.5773 34.3572 66.8807 34.3758 67.156C34.3945 67.4313 34.4038 67.632 34.4038 67.758V72H32.4718ZM27.3058 72V64.44H28.9998V66.946H29.2378V72H27.3058ZM39.1742 72.21C38.2222 72.21 37.4522 71.9953 36.8642 71.566C36.2809 71.132 35.9262 70.5207 35.8002 69.732L37.7462 69.438C37.8256 69.7927 38.0006 70.0703 38.2712 70.271C38.5466 70.4717 38.8942 70.572 39.3142 70.572C39.6596 70.572 39.9256 70.5067 40.1122 70.376C40.2989 70.2407 40.3922 70.054 40.3922 69.816C40.3922 69.6667 40.3549 69.5477 40.2802 69.459C40.2056 69.3657 40.0376 69.2747 39.7762 69.186C39.5196 69.0973 39.1182 68.9807 38.5722 68.836C37.9562 68.6773 37.4639 68.5 37.0952 68.304C36.7266 68.108 36.4606 67.8747 36.2972 67.604C36.1339 67.3287 36.0522 66.9973 36.0522 66.61C36.0522 66.1247 36.1759 65.7047 36.4232 65.35C36.6706 64.9907 37.0182 64.7153 37.4662 64.524C37.9189 64.328 38.4509 64.23 39.0622 64.23C39.6549 64.23 40.1799 64.321 40.6372 64.503C41.0946 64.685 41.4632 64.944 41.7432 65.28C42.0279 65.616 42.2029 66.0127 42.2682 66.47L40.3222 66.82C40.2896 66.54 40.1682 66.3183 39.9582 66.155C39.7482 65.9917 39.4636 65.896 39.1042 65.868C38.7542 65.8447 38.4719 65.8913 38.2572 66.008C38.0472 66.1247 37.9422 66.2927 37.9422 66.512C37.9422 66.6427 37.9866 66.7523 38.0752 66.841C38.1686 66.9297 38.3576 67.0207 38.6422 67.114C38.9316 67.2073 39.3702 67.3287 39.9582 67.478C40.5322 67.6273 40.9919 67.8023 41.3372 68.003C41.6872 68.199 41.9416 68.437 42.1002 68.717C42.2589 68.9923 42.3382 69.326 42.3382 69.718C42.3382 70.4927 42.0582 71.1017 41.4982 71.545C40.9382 71.9883 40.1636 72.21 39.1742 72.21ZM47.2785 72.21C46.5178 72.21 45.8505 72.0397 45.2765 71.699C44.7025 71.3583 44.2545 70.8893 43.9325 70.292C43.6152 69.69 43.4565 68.9993 43.4565 68.22C43.4565 67.4313 43.6198 66.7383 43.9465 66.141C44.2732 65.539 44.7235 65.07 45.2975 64.734C45.8715 64.398 46.5318 64.23 47.2785 64.23C48.0392 64.23 48.7065 64.4003 49.2805 64.741C49.8592 65.0817 50.3095 65.553 50.6315 66.155C50.9535 66.7523 51.1145 67.4407 51.1145 68.22C51.1145 69.004 50.9512 69.697 50.6245 70.299C50.3025 70.8963 49.8522 71.3653 49.2735 71.706C48.6995 72.042 48.0345 72.21 47.2785 72.21ZM47.2785 70.432C47.8898 70.432 48.3448 70.2267 48.6435 69.816C48.9468 69.4007 49.0985 68.8687 49.0985 68.22C49.0985 67.548 48.9445 67.0113 48.6365 66.61C48.3332 66.2087 47.8805 66.008 47.2785 66.008C46.8632 66.008 46.5225 66.1013 46.2565 66.288C45.9905 66.4747 45.7922 66.7337 45.6615 67.065C45.5355 67.3963 45.4725 67.7813 45.4725 68.22C45.4725 68.8967 45.6242 69.4357 45.9275 69.837C46.2355 70.2337 46.6858 70.432 47.2785 70.432ZM52.7938 72V61.71H54.6978V72H52.7938ZM60.3104 72.21C59.5357 72.21 58.8521 72.0443 58.2594 71.713C57.6714 71.377 57.2094 70.9173 56.8734 70.334C56.5421 69.746 56.3764 69.074 56.3764 68.318C56.3764 67.492 56.5397 66.7733 56.8664 66.162C57.1931 65.5507 57.6434 65.077 58.2174 64.741C58.7914 64.4003 59.4517 64.23 60.1984 64.23C60.9917 64.23 61.6661 64.4167 62.2214 64.79C62.7767 65.1633 63.1874 65.6883 63.4534 66.365C63.7194 67.0417 63.8127 67.8373 63.7334 68.752H61.8504V68.052C61.8504 67.282 61.7267 66.729 61.4794 66.393C61.2367 66.0523 60.8377 65.882 60.2824 65.882C59.6337 65.882 59.1554 66.0803 58.8474 66.477C58.5441 66.869 58.3924 67.45 58.3924 68.22C58.3924 68.9247 58.5441 69.4707 58.8474 69.858C59.1554 70.2407 59.6057 70.432 60.1984 70.432C60.5717 70.432 60.8914 70.3503 61.1574 70.187C61.4234 70.0237 61.6264 69.788 61.7664 69.48L63.6704 70.026C63.3857 70.7167 62.9354 71.2533 62.3194 71.636C61.7081 72.0187 61.0384 72.21 60.3104 72.21ZM57.8044 68.752V67.338H62.8164V68.752H57.8044ZM65.3485 72V70.096H67.2525V72H65.3485ZM69.6649 72V61.71H71.5689V72H69.6649ZM77.0695 72.21C76.3088 72.21 75.6415 72.0397 75.0675 71.699C74.4935 71.3583 74.0455 70.8893 73.7235 70.292C73.4062 69.69 73.2475 68.9993 73.2475 68.22C73.2475 67.4313 73.4108 66.7383 73.7375 66.141C74.0642 65.539 74.5145 65.07 75.0885 64.734C75.6625 64.398 76.3228 64.23 77.0695 64.23C77.8302 64.23 78.4975 64.4003 79.0715 64.741C79.6502 65.0817 80.1005 65.553 80.4225 66.155C80.7445 66.7523 80.9055 67.4407 80.9055 68.22C80.9055 69.004 80.7422 69.697 80.4155 70.299C80.0935 70.8963 79.6432 71.3653 79.0645 71.706C78.4905 72.042 77.8255 72.21 77.0695 72.21ZM77.0695 70.432C77.6808 70.432 78.1358 70.2267 78.4345 69.816C78.7378 69.4007 78.8895 68.8687 78.8895 68.22C78.8895 67.548 78.7355 67.0113 78.4275 66.61C78.1242 66.2087 77.6715 66.008 77.0695 66.008C76.6542 66.008 76.3135 66.1013 76.0475 66.288C75.7815 66.4747 75.5832 66.7337 75.4525 67.065C75.3265 67.3963 75.2635 67.7813 75.2635 68.22C75.2635 68.8967 75.4152 69.4357 75.7185 69.837C76.0265 70.2337 76.4768 70.432 77.0695 70.432ZM85.6788 75.57C85.2495 75.57 84.8412 75.5 84.4538 75.36C84.0665 75.2247 83.7188 75.0333 83.4108 74.786C83.1075 74.5433 82.8602 74.2587 82.6688 73.932L84.4328 73.078C84.5542 73.302 84.7268 73.4723 84.9508 73.589C85.1795 73.7057 85.4268 73.764 85.6928 73.764C85.9775 73.764 86.2458 73.715 86.4978 73.617C86.7498 73.5237 86.9505 73.3813 87.0998 73.19C87.2538 73.0033 87.3262 72.77 87.3168 72.49V70.292H87.5548V64.44H89.2208V72.518C89.2208 72.7047 89.2115 72.8797 89.1928 73.043C89.1788 73.211 89.1508 73.3767 89.1088 73.54C88.9875 74.002 88.7612 74.3823 88.4298 74.681C88.1032 74.9797 87.7018 75.2013 87.2258 75.346C86.7498 75.4953 86.2342 75.57 85.6788 75.57ZM85.5108 72.21C84.8155 72.21 84.2065 72.035 83.6838 71.685C83.1612 71.335 82.7528 70.859 82.4588 70.257C82.1695 69.655 82.0248 68.976 82.0248 68.22C82.0248 67.45 82.1718 66.7663 82.4658 66.169C82.7645 65.567 83.1822 65.0933 83.7188 64.748C84.2555 64.4027 84.8855 64.23 85.6088 64.23C86.3275 64.23 86.9318 64.405 87.4218 64.755C87.9118 65.105 88.2828 65.581 88.5348 66.183C88.7868 66.785 88.9128 67.464 88.9128 68.22C88.9128 68.976 88.7845 69.655 88.5278 70.257C88.2758 70.859 87.8978 71.335 87.3938 71.685C86.8898 72.035 86.2622 72.21 85.5108 72.21ZM85.8188 70.516C86.2435 70.516 86.5818 70.4203 86.8338 70.229C87.0905 70.0377 87.2748 69.7693 87.3868 69.424C87.4988 69.0787 87.5548 68.6773 87.5548 68.22C87.5548 67.7627 87.4988 67.3613 87.3868 67.016C87.2748 66.6707 87.0952 66.4023 86.8478 66.211C86.6052 66.0197 86.2855 65.924 85.8888 65.924C85.4642 65.924 85.1142 66.029 84.8388 66.239C84.5682 66.4443 84.3675 66.722 84.2368 67.072C84.1062 67.4173 84.0408 67.8 84.0408 68.22C84.0408 68.6447 84.1038 69.032 84.2298 69.382C84.3558 69.7273 84.5495 70.0027 84.8108 70.208C85.0722 70.4133 85.4082 70.516 85.8188 70.516ZM94.6952 74.716C94.1538 74.0813 93.6895 73.3603 93.3022 72.553C92.9195 71.7457 92.6278 70.901 92.4272 70.019C92.2312 69.1323 92.1425 68.2527 92.1612 67.38C92.1425 66.5073 92.2312 65.6277 92.4272 64.741C92.6278 63.8543 92.9195 63.0097 93.3022 62.207C93.6895 61.3997 94.1538 60.6787 94.6952 60.044L96.1092 61.08C95.5398 61.766 95.0942 62.452 94.7722 63.138C94.4502 63.8193 94.2215 64.5123 94.0862 65.217C93.9555 65.917 93.8878 66.638 93.8832 67.38C93.8878 68.122 93.9555 68.8453 94.0862 69.55C94.2215 70.25 94.4502 70.943 94.7722 71.629C95.0942 72.3103 95.5398 72.994 96.1092 73.68L94.6952 74.716ZM97.508 64.44V61.92H99.412V64.44H97.508ZM100.252 64.44V61.92H102.156V64.44H100.252ZM218.217 64.44V61.92H220.121V64.44H218.217ZM220.961 64.44V61.92H222.865V64.44H220.961ZM226.242 74.716L224.828 73.68C225.397 72.994 225.843 72.3103 226.165 71.629C226.487 70.943 226.713 70.25 226.844 69.55C226.979 68.8453 227.049 68.122 227.054 67.38C227.049 66.638 226.979 65.917 226.844 65.217C226.713 64.5123 226.487 63.8193 226.165 63.138C225.843 62.452 225.397 61.766 224.828 61.08L226.242 60.044C226.783 60.6787 227.245 61.3997 227.628 62.207C228.015 63.0097 228.307 63.8543 228.503 64.741C228.703 65.6277 228.794 66.5073 228.776 67.38C228.794 68.2527 228.703 69.1323 228.503 70.019C228.307 70.901 228.015 71.7457 227.628 72.553C227.245 73.3603 226.783 74.0813 226.242 74.716ZM232.274 73.89L232.386 73.092C232.61 73.1107 232.792 73.0733 232.932 72.98C233.072 72.8913 233.168 72.7607 233.219 72.588C233.275 72.42 233.287 72.224 233.254 72H232.274V70.096H234.178V72C234.178 72.672 234.022 73.1807 233.709 73.526C233.397 73.8713 232.918 73.9927 232.274 73.89ZM232.274 66.344V64.44H234.178V66.344H232.274ZM5.554 93.94H4.56V92.162H5.414C5.526 92.162 5.62167 92.12 5.701 92.036C5.78033 91.9567 5.82 91.8587 5.82 91.742V87.794C5.82 87.3367 5.95533 86.9167 6.226 86.534L6.492 86.17L6.226 85.806C5.95533 85.4233 5.82 85.0033 5.82 84.546V80.598C5.82 80.486 5.78033 80.3903 5.701 80.311C5.62167 80.2317 5.526 80.192 5.414 80.192H4.56V78.4H5.554C6.198 78.4 6.702 78.5843 7.066 78.953C7.43 79.317 7.612 79.8187 7.612 80.458V84.546C7.612 84.616 7.63533 84.6907 7.682 84.77L8.312 85.666C8.41933 85.82 8.473 85.988 8.473 86.17C8.473 86.352 8.41933 86.52 8.312 86.674L7.682 87.57C7.63533 87.6307 7.612 87.7053 7.612 87.794V91.882C7.612 92.526 7.43 93.03 7.066 93.394C6.702 93.758 6.198 93.94 5.554 93.94ZM17.7225 91.21C16.9478 91.21 16.2642 91.0443 15.6715 90.713C15.0835 90.377 14.6215 89.9173 14.2855 89.334C13.9542 88.746 13.7885 88.074 13.7885 87.318C13.7885 86.492 13.9518 85.7733 14.2785 85.162C14.6052 84.5507 15.0555 84.077 15.6295 83.741C16.2035 83.4003 16.8638 83.23 17.6105 83.23C18.4038 83.23 19.0782 83.4167 19.6335 83.79C20.1888 84.1633 20.5995 84.6883 20.8655 85.365C21.1315 86.0417 21.2248 86.8373 21.1455 87.752H19.2625V87.052C19.2625 86.282 19.1388 85.729 18.8915 85.393C18.6488 85.0523 18.2498 84.882 17.6945 84.882C17.0458 84.882 16.5675 85.0803 16.2595 85.477C15.9562 85.869 15.8045 86.45 15.8045 87.22C15.8045 87.9247 15.9562 88.4707 16.2595 88.858C16.5675 89.2407 17.0178 89.432 17.6105 89.432C17.9838 89.432 18.3035 89.3503 18.5695 89.187C18.8355 89.0237 19.0385 88.788 19.1785 88.48L21.0825 89.026C20.7978 89.7167 20.3475 90.2533 19.7315 90.636C19.1202 91.0187 18.4505 91.21 17.7225 91.21ZM15.2165 87.752V86.338H20.2285V87.752H15.2165ZM22.8661 91V80.71H24.7701V91H22.8661ZM29.8227 91.21C28.8707 91.21 28.1007 90.9953 27.5127 90.566C26.9293 90.132 26.5747 89.5207 26.4487 88.732L28.3947 88.438C28.474 88.7927 28.649 89.0703 28.9197 89.271C29.195 89.4717 29.5427 89.572 29.9627 89.572C30.308 89.572 30.574 89.5067 30.7607 89.376C30.9473 89.2407 31.0407 89.054 31.0407 88.816C31.0407 88.6667 31.0033 88.5477 30.9287 88.459C30.854 88.3657 30.686 88.2747 30.4247 88.186C30.168 88.0973 29.7667 87.9807 29.2207 87.836C28.6047 87.6773 28.1123 87.5 27.7437 87.304C27.375 87.108 27.109 86.8747 26.9457 86.604C26.7823 86.3287 26.7007 85.9973 26.7007 85.61C26.7007 85.1247 26.8243 84.7047 27.0717 84.35C27.319 83.9907 27.6667 83.7153 28.1147 83.524C28.5673 83.328 29.0993 83.23 29.7107 83.23C30.3033 83.23 30.8283 83.321 31.2857 83.503C31.743 83.685 32.1117 83.944 32.3917 84.28C32.6763 84.616 32.8513 85.0127 32.9167 85.47L30.9707 85.82C30.938 85.54 30.8167 85.3183 30.6067 85.155C30.3967 84.9917 30.112 84.896 29.7527 84.868C29.4027 84.8447 29.1203 84.8913 28.9057 85.008C28.6957 85.1247 28.5907 85.2927 28.5907 85.512C28.5907 85.6427 28.635 85.7523 28.7237 85.841C28.817 85.9297 29.006 86.0207 29.2907 86.114C29.58 86.2073 30.0187 86.3287 30.6067 86.478C31.1807 86.6273 31.6403 86.8023 31.9857 87.003C32.3357 87.199 32.59 87.437 32.7487 87.717C32.9073 87.9923 32.9867 88.326 32.9867 88.718C32.9867 89.4927 32.7067 90.1017 32.1467 90.545C31.5867 90.9883 30.812 91.21 29.8227 91.21ZM38.0389 91.21C37.2643 91.21 36.5806 91.0443 35.9879 90.713C35.3999 90.377 34.9379 89.9173 34.6019 89.334C34.2706 88.746 34.1049 88.074 34.1049 87.318C34.1049 86.492 34.2683 85.7733 34.5949 85.162C34.9216 84.5507 35.3719 84.077 35.9459 83.741C36.5199 83.4003 37.1803 83.23 37.9269 83.23C38.7203 83.23 39.3946 83.4167 39.9499 83.79C40.5053 84.1633 40.9159 84.6883 41.1819 85.365C41.4479 86.0417 41.5413 86.8373 41.4619 87.752H39.5789V87.052C39.5789 86.282 39.4553 85.729 39.2079 85.393C38.9653 85.0523 38.5663 84.882 38.0109 84.882C37.3623 84.882 36.8839 85.0803 36.5759 85.477C36.2726 85.869 36.1209 86.45 36.1209 87.22C36.1209 87.9247 36.2726 88.4707 36.5759 88.858C36.8839 89.2407 37.3343 89.432 37.9269 89.432C38.3003 89.432 38.6199 89.3503 38.8859 89.187C39.1519 89.0237 39.3549 88.788 39.4949 88.48L41.3989 89.026C41.1143 89.7167 40.6639 90.2533 40.0479 90.636C39.4366 91.0187 38.7669 91.21 38.0389 91.21ZM35.5329 87.752V86.338H40.5449V87.752H35.5329ZM49.7372 93.94C49.0932 93.94 48.5892 93.758 48.2252 93.394C47.8612 93.03 47.6792 92.526 47.6792 91.882V87.794C47.6792 87.7053 47.6559 87.6307 47.6092 87.57L46.9792 86.674C46.8766 86.52 46.8252 86.352 46.8252 86.17C46.8252 85.988 46.8766 85.82 46.9792 85.666L47.6092 84.77C47.6559 84.6907 47.6792 84.616 47.6792 84.546V80.458C47.6792 79.8187 47.8612 79.317 48.2252 78.953C48.5892 78.5843 49.0932 78.4 49.7372 78.4H50.7312V80.192H49.8772C49.7652 80.192 49.6696 80.2317 49.5902 80.311C49.5109 80.3903 49.4712 80.486 49.4712 80.598V84.546C49.4712 85.0033 49.3359 85.4233 49.0652 85.806L48.7992 86.17L49.0652 86.534C49.3359 86.9167 49.4712 87.3367 49.4712 87.794V91.742C49.4712 91.8587 49.5109 91.9567 49.5902 92.036C49.6696 92.12 49.7652 92.162 49.8772 92.162H50.7312V93.94H49.7372ZM13.9175 110.21C13.1335 110.21 12.4615 110.035 11.9015 109.685C11.3415 109.335 10.9121 108.859 10.6135 108.257C10.3148 107.655 10.1655 106.976 10.1655 106.22C10.1655 105.455 10.3195 104.771 10.6275 104.169C10.9401 103.567 11.3788 103.093 11.9435 102.748C12.5081 102.403 13.1755 102.23 13.9455 102.23C14.8368 102.23 15.5835 102.456 16.1855 102.909C16.7921 103.357 17.1795 103.971 17.3475 104.75L15.4435 105.254C15.3315 104.862 15.1355 104.556 14.8555 104.337C14.5801 104.118 14.2675 104.008 13.9175 104.008C13.5161 104.008 13.1871 104.106 12.9305 104.302C12.6738 104.493 12.4848 104.757 12.3635 105.093C12.2421 105.424 12.1815 105.8 12.1815 106.22C12.1815 106.878 12.3261 107.412 12.6155 107.823C12.9095 108.229 13.3435 108.432 13.9175 108.432C14.3468 108.432 14.6735 108.334 14.8975 108.138C15.1215 107.942 15.2895 107.662 15.4015 107.298L17.3475 107.704C17.1328 108.507 16.7268 109.125 16.1295 109.559C15.5321 109.993 14.7948 110.21 13.9175 110.21ZM21.9445 110.21C21.1838 110.21 20.5165 110.04 19.9425 109.699C19.3685 109.358 18.9205 108.889 18.5985 108.292C18.2812 107.69 18.1225 106.999 18.1225 106.22C18.1225 105.431 18.2858 104.738 18.6125 104.141C18.9392 103.539 19.3895 103.07 19.9635 102.734C20.5375 102.398 21.1978 102.23 21.9445 102.23C22.7052 102.23 23.3725 102.4 23.9465 102.741C24.5252 103.082 24.9755 103.553 25.2975 104.155C25.6195 104.752 25.7805 105.441 25.7805 106.22C25.7805 107.004 25.6172 107.697 25.2905 108.299C24.9685 108.896 24.5182 109.365 23.9395 109.706C23.3655 110.042 22.7005 110.21 21.9445 110.21ZM21.9445 108.432C22.5558 108.432 23.0108 108.227 23.3095 107.816C23.6128 107.401 23.7645 106.869 23.7645 106.22C23.7645 105.548 23.6105 105.011 23.3025 104.61C22.9992 104.209 22.5465 104.008 21.9445 104.008C21.5292 104.008 21.1885 104.101 20.9225 104.288C20.6565 104.475 20.4582 104.734 20.3275 105.065C20.2015 105.396 20.1385 105.781 20.1385 106.22C20.1385 106.897 20.2902 107.436 20.5935 107.837C20.9015 108.234 21.3518 108.432 21.9445 108.432ZM32.4718 110V106.43C32.4718 106.257 32.4625 106.038 32.4438 105.772C32.4252 105.501 32.3668 105.231 32.2688 104.96C32.1708 104.689 32.0098 104.463 31.7858 104.281C31.5665 104.099 31.2538 104.008 30.8478 104.008C30.6845 104.008 30.5095 104.034 30.3228 104.085C30.1362 104.136 29.9612 104.237 29.7978 104.386C29.6345 104.531 29.4992 104.745 29.3918 105.03C29.2892 105.315 29.2378 105.693 29.2378 106.164L28.1458 105.646C28.1458 105.049 28.2672 104.489 28.5098 103.966C28.7525 103.443 29.1165 103.021 29.6018 102.699C30.0918 102.377 30.7078 102.216 31.4498 102.216C32.0425 102.216 32.5255 102.316 32.8988 102.517C33.2722 102.718 33.5615 102.972 33.7668 103.28C33.9768 103.588 34.1262 103.91 34.2148 104.246C34.3035 104.577 34.3572 104.881 34.3758 105.156C34.3945 105.431 34.4038 105.632 34.4038 105.758V110H32.4718ZM27.3058 110V102.44H28.9998V104.946H29.2378V110H27.3058ZM39.1742 110.21C38.2222 110.21 37.4522 109.995 36.8642 109.566C36.2809 109.132 35.9262 108.521 35.8002 107.732L37.7462 107.438C37.8256 107.793 38.0006 108.07 38.2712 108.271C38.5466 108.472 38.8942 108.572 39.3142 108.572C39.6596 108.572 39.9256 108.507 40.1122 108.376C40.2989 108.241 40.3922 108.054 40.3922 107.816C40.3922 107.667 40.3549 107.548 40.2802 107.459C40.2056 107.366 40.0376 107.275 39.7762 107.186C39.5196 107.097 39.1182 106.981 38.5722 106.836C37.9562 106.677 37.4639 106.5 37.0952 106.304C36.7266 106.108 36.4606 105.875 36.2972 105.604C36.1339 105.329 36.0522 104.997 36.0522 104.61C36.0522 104.125 36.1759 103.705 36.4232 103.35C36.6706 102.991 37.0182 102.715 37.4662 102.524C37.9189 102.328 38.4509 102.23 39.0622 102.23C39.6549 102.23 40.1799 102.321 40.6372 102.503C41.0946 102.685 41.4632 102.944 41.7432 103.28C42.0279 103.616 42.2029 104.013 42.2682 104.47L40.3222 104.82C40.2896 104.54 40.1682 104.318 39.9582 104.155C39.7482 103.992 39.4636 103.896 39.1042 103.868C38.7542 103.845 38.4719 103.891 38.2572 104.008C38.0472 104.125 37.9422 104.293 37.9422 104.512C37.9422 104.643 37.9866 104.752 38.0752 104.841C38.1686 104.93 38.3576 105.021 38.6422 105.114C38.9316 105.207 39.3702 105.329 39.9582 105.478C40.5322 105.627 40.9919 105.802 41.3372 106.003C41.6872 106.199 41.9416 106.437 42.1002 106.717C42.2589 106.992 42.3382 107.326 42.3382 107.718C42.3382 108.493 42.0582 109.102 41.4982 109.545C40.9382 109.988 40.1636 110.21 39.1742 110.21ZM47.2785 110.21C46.5178 110.21 45.8505 110.04 45.2765 109.699C44.7025 109.358 44.2545 108.889 43.9325 108.292C43.6152 107.69 43.4565 106.999 43.4565 106.22C43.4565 105.431 43.6198 104.738 43.9465 104.141C44.2732 103.539 44.7235 103.07 45.2975 102.734C45.8715 102.398 46.5318 102.23 47.2785 102.23C48.0392 102.23 48.7065 102.4 49.2805 102.741C49.8592 103.082 50.3095 103.553 50.6315 104.155C50.9535 104.752 51.1145 105.441 51.1145 106.22C51.1145 107.004 50.9512 107.697 50.6245 108.299C50.3025 108.896 49.8522 109.365 49.2735 109.706C48.6995 110.042 48.0345 110.21 47.2785 110.21ZM47.2785 108.432C47.8898 108.432 48.3448 108.227 48.6435 107.816C48.9468 107.401 49.0985 106.869 49.0985 106.22C49.0985 105.548 48.9445 105.011 48.6365 104.61C48.3332 104.209 47.8805 104.008 47.2785 104.008C46.8632 104.008 46.5225 104.101 46.2565 104.288C45.9905 104.475 45.7922 104.734 45.6615 105.065C45.5355 105.396 45.4725 105.781 45.4725 106.22C45.4725 106.897 45.6242 107.436 45.9275 107.837C46.2355 108.234 46.6858 108.432 47.2785 108.432ZM52.7938 110V99.71H54.6978V110H52.7938ZM60.3104 110.21C59.5357 110.21 58.8521 110.044 58.2594 109.713C57.6714 109.377 57.2094 108.917 56.8734 108.334C56.5421 107.746 56.3764 107.074 56.3764 106.318C56.3764 105.492 56.5397 104.773 56.8664 104.162C57.1931 103.551 57.6434 103.077 58.2174 102.741C58.7914 102.4 59.4517 102.23 60.1984 102.23C60.9917 102.23 61.6661 102.417 62.2214 102.79C62.7767 103.163 63.1874 103.688 63.4534 104.365C63.7194 105.042 63.8127 105.837 63.7334 106.752H61.8504V106.052C61.8504 105.282 61.7267 104.729 61.4794 104.393C61.2367 104.052 60.8377 103.882 60.2824 103.882C59.6337 103.882 59.1554 104.08 58.8474 104.477C58.5441 104.869 58.3924 105.45 58.3924 106.22C58.3924 106.925 58.5441 107.471 58.8474 107.858C59.1554 108.241 59.6057 108.432 60.1984 108.432C60.5717 108.432 60.8914 108.35 61.1574 108.187C61.4234 108.024 61.6264 107.788 61.7664 107.48L63.6704 108.026C63.3857 108.717 62.9354 109.253 62.3194 109.636C61.7081 110.019 61.0384 110.21 60.3104 110.21ZM57.8044 106.752V105.338H62.8164V106.752H57.8044ZM65.3485 110V108.096H67.2525V110H65.3485ZM69.6649 110V99.71H71.5689V110H69.6649ZM77.0695 110.21C76.3088 110.21 75.6415 110.04 75.0675 109.699C74.4935 109.358 74.0455 108.889 73.7235 108.292C73.4062 107.69 73.2475 106.999 73.2475 106.22C73.2475 105.431 73.4108 104.738 73.7375 104.141C74.0642 103.539 74.5145 103.07 75.0885 102.734C75.6625 102.398 76.3228 102.23 77.0695 102.23C77.8302 102.23 78.4975 102.4 79.0715 102.741C79.6502 103.082 80.1005 103.553 80.4225 104.155C80.7445 104.752 80.9055 105.441 80.9055 106.22C80.9055 107.004 80.7422 107.697 80.4155 108.299C80.0935 108.896 79.6432 109.365 79.0645 109.706C78.4905 110.042 77.8255 110.21 77.0695 110.21ZM77.0695 108.432C77.6808 108.432 78.1358 108.227 78.4345 107.816C78.7378 107.401 78.8895 106.869 78.8895 106.22C78.8895 105.548 78.7355 105.011 78.4275 104.61C78.1242 104.209 77.6715 104.008 77.0695 104.008C76.6542 104.008 76.3135 104.101 76.0475 104.288C75.7815 104.475 75.5832 104.734 75.4525 105.065C75.3265 105.396 75.2635 105.781 75.2635 106.22C75.2635 106.897 75.4152 107.436 75.7185 107.837C76.0265 108.234 76.4768 108.432 77.0695 108.432ZM85.6788 113.57C85.2495 113.57 84.8412 113.5 84.4538 113.36C84.0665 113.225 83.7188 113.033 83.4108 112.786C83.1075 112.543 82.8602 112.259 82.6688 111.932L84.4328 111.078C84.5542 111.302 84.7268 111.472 84.9508 111.589C85.1795 111.706 85.4268 111.764 85.6928 111.764C85.9775 111.764 86.2458 111.715 86.4978 111.617C86.7498 111.524 86.9505 111.381 87.0998 111.19C87.2538 111.003 87.3262 110.77 87.3168 110.49V108.292H87.5548V102.44H89.2208V110.518C89.2208 110.705 89.2115 110.88 89.1928 111.043C89.1788 111.211 89.1508 111.377 89.1088 111.54C88.9875 112.002 88.7612 112.382 88.4298 112.681C88.1032 112.98 87.7018 113.201 87.2258 113.346C86.7498 113.495 86.2342 113.57 85.6788 113.57ZM85.5108 110.21C84.8155 110.21 84.2065 110.035 83.6838 109.685C83.1612 109.335 82.7528 108.859 82.4588 108.257C82.1695 107.655 82.0248 106.976 82.0248 106.22C82.0248 105.45 82.1718 104.766 82.4658 104.169C82.7645 103.567 83.1822 103.093 83.7188 102.748C84.2555 102.403 84.8855 102.23 85.6088 102.23C86.3275 102.23 86.9318 102.405 87.4218 102.755C87.9118 103.105 88.2828 103.581 88.5348 104.183C88.7868 104.785 88.9128 105.464 88.9128 106.22C88.9128 106.976 88.7845 107.655 88.5278 108.257C88.2758 108.859 87.8978 109.335 87.3938 109.685C86.8898 110.035 86.2622 110.21 85.5108 110.21ZM85.8188 108.516C86.2435 108.516 86.5818 108.42 86.8338 108.229C87.0905 108.038 87.2748 107.769 87.3868 107.424C87.4988 107.079 87.5548 106.677 87.5548 106.22C87.5548 105.763 87.4988 105.361 87.3868 105.016C87.2748 104.671 87.0952 104.402 86.8478 104.211C86.6052 104.02 86.2855 103.924 85.8888 103.924C85.4642 103.924 85.1142 104.029 84.8388 104.239C84.5682 104.444 84.3675 104.722 84.2368 105.072C84.1062 105.417 84.0408 105.8 84.0408 106.22C84.0408 106.645 84.1038 107.032 84.2298 107.382C84.3558 107.727 84.5495 108.003 84.8108 108.208C85.0722 108.413 85.4082 108.516 85.8188 108.516ZM94.6952 112.716C94.1538 112.081 93.6895 111.36 93.3022 110.553C92.9195 109.746 92.6278 108.901 92.4272 108.019C92.2312 107.132 92.1425 106.253 92.1612 105.38C92.1425 104.507 92.2312 103.628 92.4272 102.741C92.6278 101.854 92.9195 101.01 93.3022 100.207C93.6895 99.3997 94.1538 98.6787 94.6952 98.044L96.1092 99.08C95.5398 99.766 95.0942 100.452 94.7722 101.138C94.4502 101.819 94.2215 102.512 94.0862 103.217C93.9555 103.917 93.8878 104.638 93.8832 105.38C93.8878 106.122 93.9555 106.845 94.0862 107.55C94.2215 108.25 94.4502 108.943 94.7722 109.629C95.0942 110.31 95.5398 110.994 96.1092 111.68L94.6952 112.716ZM97.508 102.44V99.92H99.412V102.44H97.508ZM100.252 102.44V99.92H102.156V102.44H100.252ZM244.781 102.44V99.92H246.685V102.44H244.781ZM247.525 102.44V99.92H249.429V102.44H247.525ZM252.806 112.716L251.392 111.68C251.961 110.994 252.407 110.31 252.729 109.629C253.051 108.943 253.277 108.25 253.408 107.55C253.543 106.845 253.613 106.122 253.618 105.38C253.613 104.638 253.543 103.917 253.408 103.217C253.277 102.512 253.051 101.819 252.729 101.138C252.407 100.452 251.961 99.766 251.392 99.08L252.806 98.044C253.347 98.6787 253.809 99.3997 254.192 100.207C254.579 101.01 254.871 101.854 255.067 102.741C255.268 103.628 255.359 104.507 255.34 105.38C255.359 106.253 255.268 107.132 255.067 108.019C254.871 108.901 254.579 109.746 254.192 110.553C253.809 111.36 253.347 112.081 252.806 112.716ZM258.839 111.89L258.951 111.092C259.175 111.111 259.357 111.073 259.497 110.98C259.637 110.891 259.732 110.761 259.784 110.588C259.84 110.42 259.851 110.224 259.819 110H258.839V108.096H260.743V110C260.743 110.672 260.586 111.181 260.274 111.526C259.961 111.871 259.483 111.993 258.839 111.89ZM258.839 104.344V102.44H260.743V104.344H258.839ZM5.554 131.94H4.56V130.162H5.414C5.526 130.162 5.62167 130.12 5.701 130.036C5.78033 129.957 5.82 129.859 5.82 129.742V125.794C5.82 125.337 5.95533 124.917 6.226 124.534L6.492 124.17L6.226 123.806C5.95533 123.423 5.82 123.003 5.82 122.546V118.598C5.82 118.486 5.78033 118.39 5.701 118.311C5.62167 118.232 5.526 118.192 5.414 118.192H4.56V116.4H5.554C6.198 116.4 6.702 116.584 7.066 116.953C7.43 117.317 7.612 117.819 7.612 118.458V122.546C7.612 122.616 7.63533 122.691 7.682 122.77L8.312 123.666C8.41933 123.82 8.473 123.988 8.473 124.17C8.473 124.352 8.41933 124.52 8.312 124.674L7.682 125.57C7.63533 125.631 7.612 125.705 7.612 125.794V129.882C7.612 130.526 7.43 131.03 7.066 131.394C6.702 131.758 6.198 131.94 5.554 131.94Z" fill="white"/>
<path d="M28.7636 15.21C28.2223 15.21 27.7626 15.1073 27.3846 14.902C27.0113 14.692 26.7266 14.4143 26.5306 14.069C26.3393 13.719 26.2436 13.334 26.2436 12.914C26.2436 12.564 26.2973 12.2443 26.4046 11.955C26.5119 11.6657 26.6846 11.4113 26.9226 11.192C27.1653 10.968 27.4896 10.7813 27.8956 10.632C28.1756 10.5293 28.5093 10.4383 28.8966 10.359C29.2839 10.2797 29.7226 10.205 30.2126 10.135C30.7026 10.0603 31.2416 9.97867 31.8296 9.89L31.1436 10.268C31.1436 9.82 31.0363 9.491 30.8216 9.281C30.6069 9.071 30.2476 8.966 29.7436 8.966C29.4636 8.966 29.1719 9.03367 28.8686 9.169C28.5653 9.30433 28.3529 9.54467 28.2316 9.89L26.5096 9.344C26.7009 8.71867 27.0603 8.21 27.5876 7.818C28.1149 7.426 28.8336 7.23 29.7436 7.23C30.4109 7.23 31.0036 7.33267 31.5216 7.538C32.0396 7.74333 32.4316 8.098 32.6976 8.602C32.8469 8.882 32.9356 9.162 32.9636 9.442C32.9916 9.722 33.0056 10.0347 33.0056 10.38V15H31.3396V13.446L31.5776 13.768C31.2089 14.2767 30.8099 14.6453 30.3806 14.874C29.9559 15.098 29.4169 15.21 28.7636 15.21ZM29.1696 13.712C29.5196 13.712 29.8136 13.6513 30.0516 13.53C30.2943 13.404 30.4856 13.2617 30.6256 13.103C30.7703 12.9443 30.8683 12.8113 30.9196 12.704C31.0176 12.4987 31.0736 12.2607 31.0876 11.99C31.1063 11.7147 31.1156 11.486 31.1156 11.304L31.6756 11.444C31.1109 11.5373 30.6536 11.6167 30.3036 11.682C29.9536 11.7427 29.6713 11.7987 29.4566 11.85C29.2419 11.9013 29.0529 11.9573 28.8896 12.018C28.7029 12.0927 28.5513 12.1743 28.4346 12.263C28.3226 12.347 28.2386 12.4403 28.1826 12.543C28.1313 12.6457 28.1056 12.76 28.1056 12.886C28.1056 13.0587 28.1476 13.208 28.2316 13.334C28.3203 13.4553 28.4439 13.5487 28.6026 13.614C28.7613 13.6793 28.9503 13.712 29.1696 13.712ZM38.0597 18.57C37.6304 18.57 37.222 18.5 36.8347 18.36C36.4474 18.2247 36.0997 18.0333 35.7917 17.786C35.4884 17.5433 35.241 17.2587 35.0497 16.932L36.8137 16.078C36.935 16.302 37.1077 16.4723 37.3317 16.589C37.5604 16.7057 37.8077 16.764 38.0737 16.764C38.3584 16.764 38.6267 16.715 38.8787 16.617C39.1307 16.5237 39.3314 16.3813 39.4807 16.19C39.6347 16.0033 39.707 15.77 39.6977 15.49V13.292H39.9357V7.44H41.6017V15.518C41.6017 15.7047 41.5924 15.8797 41.5737 16.043C41.5597 16.211 41.5317 16.3767 41.4897 16.54C41.3684 17.002 41.142 17.3823 40.8107 17.681C40.484 17.9797 40.0827 18.2013 39.6067 18.346C39.1307 18.4953 38.615 18.57 38.0597 18.57ZM37.8917 15.21C37.1964 15.21 36.5874 15.035 36.0647 14.685C35.542 14.335 35.1337 13.859 34.8397 13.257C34.5504 12.655 34.4057 11.976 34.4057 11.22C34.4057 10.45 34.5527 9.76633 34.8467 9.169C35.1454 8.567 35.563 8.09333 36.0997 7.748C36.6364 7.40267 37.2664 7.23 37.9897 7.23C38.7084 7.23 39.3127 7.405 39.8027 7.755C40.2927 8.105 40.6637 8.581 40.9157 9.183C41.1677 9.785 41.2937 10.464 41.2937 11.22C41.2937 11.976 41.1654 12.655 40.9087 13.257C40.6567 13.859 40.2787 14.335 39.7747 14.685C39.2707 15.035 38.643 15.21 37.8917 15.21ZM38.1997 13.516C38.6244 13.516 38.9627 13.4203 39.2147 13.229C39.4714 13.0377 39.6557 12.7693 39.7677 12.424C39.8797 12.0787 39.9357 11.6773 39.9357 11.22C39.9357 10.7627 39.8797 10.3613 39.7677 10.016C39.6557 9.67067 39.476 9.40233 39.2287 9.211C38.986 9.01967 38.6664 8.924 38.2697 8.924C37.845 8.924 37.495 9.029 37.2197 9.239C36.949 9.44433 36.7484 9.722 36.6177 10.072C36.487 10.4173 36.4217 10.8 36.4217 11.22C36.4217 11.6447 36.4847 12.032 36.6107 12.382C36.7367 12.7273 36.9304 13.0027 37.1917 13.208C37.453 13.4133 37.789 13.516 38.1997 13.516ZM47.076 15.21C46.3014 15.21 45.6177 15.0443 45.025 14.713C44.437 14.377 43.975 13.9173 43.639 13.334C43.3077 12.746 43.142 12.074 43.142 11.318C43.142 10.492 43.3054 9.77333 43.632 9.162C43.9587 8.55067 44.409 8.077 44.983 7.741C45.557 7.40033 46.2174 7.23 46.964 7.23C47.7574 7.23 48.4317 7.41667 48.987 7.79C49.5424 8.16333 49.953 8.68833 50.219 9.365C50.485 10.0417 50.5784 10.8373 50.499 11.752H48.616V11.052C48.616 10.282 48.4924 9.729 48.245 9.393C48.0024 9.05233 47.6034 8.882 47.048 8.882C46.3994 8.882 45.921 9.08033 45.613 9.477C45.3097 9.869 45.158 10.45 45.158 11.22C45.158 11.9247 45.3097 12.4707 45.613 12.858C45.921 13.2407 46.3714 13.432 46.964 13.432C47.3374 13.432 47.657 13.3503 47.923 13.187C48.189 13.0237 48.392 12.788 48.532 12.48L50.436 13.026C50.1514 13.7167 49.701 14.2533 49.085 14.636C48.4737 15.0187 47.804 15.21 47.076 15.21ZM44.57 11.752V10.338H49.582V11.752H44.57ZM25.6191 53.21C25.0777 53.21 24.6181 53.1073 24.2401 52.902C23.8667 52.692 23.5821 52.4143 23.3861 52.069C23.1947 51.719 23.0991 51.334 23.0991 50.914C23.0991 50.564 23.1527 50.2443 23.2601 49.955C23.3674 49.6657 23.5401 49.4113 23.7781 49.192C24.0207 48.968 24.3451 48.7813 24.7511 48.632C25.0311 48.5293 25.3647 48.4383 25.7521 48.359C26.1394 48.2797 26.5781 48.205 27.0681 48.135C27.5581 48.0603 28.0971 47.9787 28.6851 47.89L27.9991 48.268C27.9991 47.82 27.8917 47.491 27.6771 47.281C27.4624 47.071 27.1031 46.966 26.5991 46.966C26.3191 46.966 26.0274 47.0337 25.7241 47.169C25.4207 47.3043 25.2084 47.5447 25.0871 47.89L23.3651 47.344C23.5564 46.7187 23.9157 46.21 24.4431 45.818C24.9704 45.426 25.6891 45.23 26.5991 45.23C27.2664 45.23 27.8591 45.3327 28.3771 45.538C28.8951 45.7433 29.2871 46.098 29.5531 46.602C29.7024 46.882 29.7911 47.162 29.8191 47.442C29.8471 47.722 29.8611 48.0347 29.8611 48.38V53H28.1951V51.446L28.4331 51.768C28.0644 52.2767 27.6654 52.6453 27.2361 52.874C26.8114 53.098 26.2724 53.21 25.6191 53.21ZM26.0251 51.712C26.3751 51.712 26.6691 51.6513 26.9071 51.53C27.1497 51.404 27.3411 51.2617 27.4811 51.103C27.6257 50.9443 27.7237 50.8113 27.7751 50.704C27.8731 50.4987 27.9291 50.2607 27.9431 49.99C27.9617 49.7147 27.9711 49.486 27.9711 49.304L28.5311 49.444C27.9664 49.5373 27.5091 49.6167 27.1591 49.682C26.8091 49.7427 26.5267 49.7987 26.3121 49.85C26.0974 49.9013 25.9084 49.9573 25.7451 50.018C25.5584 50.0927 25.4067 50.1743 25.2901 50.263C25.1781 50.347 25.0941 50.4403 25.0381 50.543C24.9867 50.6457 24.9611 50.76 24.9611 50.886C24.9611 51.0587 25.0031 51.208 25.0871 51.334C25.1757 51.4553 25.2994 51.5487 25.4581 51.614C25.6167 51.6793 25.8057 51.712 26.0251 51.712ZM34.9152 56.57C34.4858 56.57 34.0775 56.5 33.6902 56.36C33.3028 56.2247 32.9552 56.0333 32.6472 55.786C32.3438 55.5433 32.0965 55.2587 31.9052 54.932L33.6692 54.078C33.7905 54.302 33.9632 54.4723 34.1872 54.589C34.4158 54.7057 34.6632 54.764 34.9292 54.764C35.2138 54.764 35.4822 54.715 35.7342 54.617C35.9862 54.5237 36.1868 54.3813 36.3362 54.19C36.4902 54.0033 36.5625 53.77 36.5532 53.49V51.292H36.7912V45.44H38.4572V53.518C38.4572 53.7047 38.4478 53.8797 38.4292 54.043C38.4152 54.211 38.3872 54.3767 38.3452 54.54C38.2238 55.002 37.9975 55.3823 37.6662 55.681C37.3395 55.9797 36.9382 56.2013 36.4622 56.346C35.9862 56.4953 35.4705 56.57 34.9152 56.57ZM34.7472 53.21C34.0518 53.21 33.4428 53.035 32.9202 52.685C32.3975 52.335 31.9892 51.859 31.6952 51.257C31.4058 50.655 31.2612 49.976 31.2612 49.22C31.2612 48.45 31.4082 47.7663 31.7022 47.169C32.0008 46.567 32.4185 46.0933 32.9552 45.748C33.4918 45.4027 34.1218 45.23 34.8452 45.23C35.5638 45.23 36.1682 45.405 36.6582 45.755C37.1482 46.105 37.5192 46.581 37.7712 47.183C38.0232 47.785 38.1492 48.464 38.1492 49.22C38.1492 49.976 38.0208 50.655 37.7642 51.257C37.5122 51.859 37.1342 52.335 36.6302 52.685C36.1262 53.035 35.4985 53.21 34.7472 53.21ZM35.0552 51.516C35.4798 51.516 35.8182 51.4203 36.0702 51.229C36.3268 51.0377 36.5112 50.7693 36.6232 50.424C36.7352 50.0787 36.7912 49.6773 36.7912 49.22C36.7912 48.7627 36.7352 48.3613 36.6232 48.016C36.5112 47.6707 36.3315 47.4023 36.0842 47.211C35.8415 47.0197 35.5218 46.924 35.1252 46.924C34.7005 46.924 34.3505 47.029 34.0752 47.239C33.8045 47.4443 33.6038 47.722 33.4732 48.072C33.3425 48.4173 33.2772 48.8 33.2772 49.22C33.2772 49.6447 33.3402 50.032 33.4662 50.382C33.5922 50.7273 33.7858 51.0027 34.0472 51.208C34.3085 51.4133 34.6445 51.516 35.0552 51.516ZM43.9315 53.21C43.1568 53.21 42.4732 53.0443 41.8805 52.713C41.2925 52.377 40.8305 51.9173 40.4945 51.334C40.1632 50.746 39.9975 50.074 39.9975 49.318C39.9975 48.492 40.1608 47.7733 40.4875 47.162C40.8142 46.5507 41.2645 46.077 41.8385 45.741C42.4125 45.4003 43.0728 45.23 43.8195 45.23C44.6128 45.23 45.2872 45.4167 45.8425 45.79C46.3978 46.1633 46.8085 46.6883 47.0745 47.365C47.3405 48.0417 47.4338 48.8373 47.3545 49.752H45.4715V49.052C45.4715 48.282 45.3478 47.729 45.1005 47.393C44.8578 47.0523 44.4588 46.882 43.9035 46.882C43.2548 46.882 42.7765 47.0803 42.4685 47.477C42.1652 47.869 42.0135 48.45 42.0135 49.22C42.0135 49.9247 42.1652 50.4707 42.4685 50.858C42.7765 51.2407 43.2268 51.432 43.8195 51.432C44.1928 51.432 44.5125 51.3503 44.7785 51.187C45.0445 51.0237 45.2475 50.788 45.3875 50.48L47.2915 51.026C47.0068 51.7167 46.5565 52.2533 45.9405 52.636C45.3292 53.0187 44.6595 53.21 43.9315 53.21ZM41.4255 49.752V48.338H46.4375V49.752H41.4255ZM107.003 72V67.898L103.559 61.92H105.785L107.969 65.714L110.153 61.92H112.379L108.935 67.898V72H107.003ZM115.638 72.21C114.877 72.21 114.21 72.0397 113.636 71.699C113.062 71.3583 112.614 70.8893 112.292 70.292C111.975 69.69 111.816 68.9993 111.816 68.22C111.816 67.4313 111.979 66.7383 112.306 66.141C112.633 65.539 113.083 65.07 113.657 64.734C114.231 64.398 114.891 64.23 115.638 64.23C116.399 64.23 117.066 64.4003 117.64 64.741C118.219 65.0817 118.669 65.553 118.991 66.155C119.313 66.7523 119.474 67.4407 119.474 68.22C119.474 69.004 119.311 69.697 118.984 70.299C118.662 70.8963 118.212 71.3653 117.633 71.706C117.059 72.042 116.394 72.21 115.638 72.21ZM115.638 70.432C116.249 70.432 116.704 70.2267 117.003 69.816C117.306 69.4007 117.458 68.8687 117.458 68.22C117.458 67.548 117.304 67.0113 116.996 66.61C116.693 66.2087 116.24 66.008 115.638 66.008C115.223 66.008 114.882 66.1013 114.616 66.288C114.35 66.4747 114.152 66.7337 114.021 67.065C113.895 67.3963 113.832 67.7813 113.832 68.22C113.832 68.8967 113.984 69.4357 114.287 69.837C114.595 70.2337 115.045 70.432 115.638 70.432ZM123.827 72.224C123.235 72.224 122.752 72.1237 122.378 71.923C122.005 71.7223 121.713 71.468 121.503 71.16C121.298 70.852 121.151 70.5323 121.062 70.201C120.974 69.865 120.92 69.5593 120.901 69.284C120.883 69.0087 120.873 68.808 120.873 68.682V64.44H122.805V68.01C122.805 68.1827 122.815 68.4043 122.833 68.675C122.852 68.941 122.91 69.2093 123.008 69.48C123.106 69.7507 123.265 69.977 123.484 70.159C123.708 70.341 124.023 70.432 124.429 70.432C124.593 70.432 124.768 70.4063 124.954 70.355C125.141 70.3037 125.316 70.2057 125.479 70.061C125.643 69.9117 125.776 69.6947 125.878 69.41C125.986 69.1207 126.039 68.7427 126.039 68.276L127.131 68.794C127.131 69.3913 127.01 69.9513 126.767 70.474C126.525 70.9967 126.158 71.419 125.668 71.741C125.183 72.063 124.569 72.224 123.827 72.224ZM126.277 72V69.494H126.039V64.44H127.957V72H126.277ZM134.816 72.21C134.275 72.21 133.815 72.1073 133.437 71.902C133.064 71.692 132.779 71.4143 132.583 71.069C132.392 70.719 132.296 70.334 132.296 69.914C132.296 69.564 132.35 69.2443 132.457 68.955C132.565 68.6657 132.737 68.4113 132.975 68.192C133.218 67.968 133.542 67.7813 133.948 67.632C134.228 67.5293 134.562 67.4383 134.949 67.359C135.337 67.2797 135.775 67.205 136.265 67.135C136.755 67.0603 137.294 66.9787 137.882 66.89L137.196 67.268C137.196 66.82 137.089 66.491 136.874 66.281C136.66 66.071 136.3 65.966 135.796 65.966C135.516 65.966 135.225 66.0337 134.921 66.169C134.618 66.3043 134.406 66.5447 134.284 66.89L132.562 66.344C132.754 65.7187 133.113 65.21 133.64 64.818C134.168 64.426 134.886 64.23 135.796 64.23C136.464 64.23 137.056 64.3327 137.574 64.538C138.092 64.7433 138.484 65.098 138.75 65.602C138.9 65.882 138.988 66.162 139.016 66.442C139.044 66.722 139.058 67.0347 139.058 67.38V72H137.392V70.446L137.63 70.768C137.262 71.2767 136.863 71.6453 136.433 71.874C136.009 72.098 135.47 72.21 134.816 72.21ZM135.222 70.712C135.572 70.712 135.866 70.6513 136.104 70.53C136.347 70.404 136.538 70.2617 136.678 70.103C136.823 69.9443 136.921 69.8113 136.972 69.704C137.07 69.4987 137.126 69.2607 137.14 68.99C137.159 68.7147 137.168 68.486 137.168 68.304L137.728 68.444C137.164 68.5373 136.706 68.6167 136.356 68.682C136.006 68.7427 135.724 68.7987 135.509 68.85C135.295 68.9013 135.106 68.9573 134.942 69.018C134.756 69.0927 134.604 69.1743 134.487 69.263C134.375 69.347 134.291 69.4403 134.235 69.543C134.184 69.6457 134.158 69.76 134.158 69.886C134.158 70.0587 134.2 70.208 134.284 70.334C134.373 70.4553 134.497 70.5487 134.655 70.614C134.814 70.6793 135.003 70.712 135.222 70.712ZM140.878 72V64.44H142.558V66.288L142.376 66.05C142.474 65.7887 142.605 65.5507 142.768 65.336C142.932 65.1213 143.132 64.944 143.37 64.804C143.552 64.692 143.751 64.6057 143.965 64.545C144.18 64.4797 144.402 64.44 144.63 64.426C144.859 64.4073 145.088 64.412 145.316 64.44V66.218C145.106 66.1527 144.861 66.1317 144.581 66.155C144.306 66.1737 144.056 66.2367 143.832 66.344C143.608 66.4467 143.419 66.5843 143.265 66.757C143.111 66.925 142.995 67.1257 142.915 67.359C142.836 67.5877 142.796 67.8467 142.796 68.136V72H140.878ZM150.025 72.21C149.251 72.21 148.567 72.0443 147.974 71.713C147.386 71.377 146.924 70.9173 146.588 70.334C146.257 69.746 146.091 69.074 146.091 68.318C146.091 67.492 146.255 66.7733 146.581 66.162C146.908 65.5507 147.358 65.077 147.932 64.741C148.506 64.4003 149.167 64.23 149.913 64.23C150.707 64.23 151.381 64.4167 151.936 64.79C152.492 65.1633 152.902 65.6883 153.168 66.365C153.434 67.0417 153.528 67.8373 153.448 68.752H151.565V68.052C151.565 67.282 151.442 66.729 151.194 66.393C150.952 66.0523 150.553 65.882 149.997 65.882C149.349 65.882 148.87 66.0803 148.562 66.477C148.259 66.869 148.107 67.45 148.107 68.22C148.107 68.9247 148.259 69.4707 148.562 69.858C148.87 70.2407 149.321 70.432 149.913 70.432C150.287 70.432 150.606 70.3503 150.872 70.187C151.138 70.0237 151.341 69.788 151.481 69.48L153.385 70.026C153.101 70.7167 152.65 71.2533 152.034 71.636C151.423 72.0187 150.753 72.21 150.025 72.21ZM147.519 68.752V67.338H152.531V68.752H147.519ZM159.932 72.21C159.39 72.21 158.931 72.1073 158.553 71.902C158.179 71.692 157.895 71.4143 157.699 71.069C157.507 70.719 157.412 70.334 157.412 69.914C157.412 69.564 157.465 69.2443 157.573 68.955C157.68 68.6657 157.853 68.4113 158.091 68.192C158.333 67.968 158.658 67.7813 159.064 67.632C159.344 67.5293 159.677 67.4383 160.065 67.359C160.452 67.2797 160.891 67.205 161.381 67.135C161.871 67.0603 162.41 66.9787 162.998 66.89L162.312 67.268C162.312 66.82 162.204 66.491 161.99 66.281C161.775 66.071 161.416 65.966 160.912 65.966C160.632 65.966 160.34 66.0337 160.037 66.169C159.733 66.3043 159.521 66.5447 159.4 66.89L157.678 66.344C157.869 65.7187 158.228 65.21 158.756 64.818C159.283 64.426 160.002 64.23 160.912 64.23C161.579 64.23 162.172 64.3327 162.69 64.538C163.208 64.7433 163.6 65.098 163.866 65.602C164.015 65.882 164.104 66.162 164.132 66.442C164.16 66.722 164.174 67.0347 164.174 67.38V72H162.508V70.446L162.746 70.768C162.377 71.2767 161.978 71.6453 161.549 71.874C161.124 72.098 160.585 72.21 159.932 72.21ZM160.338 70.712C160.688 70.712 160.982 70.6513 161.22 70.53C161.462 70.404 161.654 70.2617 161.794 70.103C161.938 69.9443 162.036 69.8113 162.088 69.704C162.186 69.4987 162.242 69.2607 162.256 68.99C162.274 68.7147 162.284 68.486 162.284 68.304L162.844 68.444C162.279 68.5373 161.822 68.6167 161.472 68.682C161.122 68.7427 160.839 68.7987 160.625 68.85C160.41 68.9013 160.221 68.9573 160.058 69.018C159.871 69.0927 159.719 69.1743 159.603 69.263C159.491 69.347 159.407 69.4403 159.351 69.543C159.299 69.6457 159.274 69.76 159.274 69.886C159.274 70.0587 159.316 70.208 159.4 70.334C159.488 70.4553 159.612 70.5487 159.771 70.614C159.929 70.6793 160.118 70.712 160.338 70.712ZM171.146 72V68.43C171.146 68.2573 171.136 68.038 171.118 67.772C171.099 67.5013 171.041 67.2307 170.943 66.96C170.845 66.6893 170.684 66.463 170.46 66.281C170.24 66.099 169.928 66.008 169.522 66.008C169.358 66.008 169.183 66.0337 168.997 66.085C168.81 66.1363 168.635 66.2367 168.472 66.386C168.308 66.5307 168.173 66.7453 168.066 67.03C167.963 67.3147 167.912 67.6927 167.912 68.164L166.82 67.646C166.82 67.0487 166.941 66.4887 167.184 65.966C167.426 65.4433 167.79 65.021 168.276 64.699C168.766 64.377 169.382 64.216 170.124 64.216C170.716 64.216 171.199 64.3163 171.573 64.517C171.946 64.7177 172.235 64.972 172.441 65.28C172.651 65.588 172.8 65.91 172.889 66.246C172.977 66.5773 173.031 66.8807 173.05 67.156C173.068 67.4313 173.078 67.632 173.078 67.758V72H171.146ZM165.98 72V64.44H167.674V66.946H167.912V72H165.98ZM179.797 72.21C179.255 72.21 178.796 72.1073 178.418 71.902C178.044 71.692 177.76 71.4143 177.564 71.069C177.372 70.719 177.277 70.334 177.277 69.914C177.277 69.564 177.33 69.2443 177.438 68.955C177.545 68.6657 177.718 68.4113 177.956 68.192C178.198 67.968 178.523 67.7813 178.929 67.632C179.209 67.5293 179.542 67.4383 179.93 67.359C180.317 67.2797 180.756 67.205 181.246 67.135C181.736 67.0603 182.275 66.9787 182.863 66.89L182.177 67.268C182.177 66.82 182.069 66.491 181.855 66.281C181.64 66.071 181.281 65.966 180.777 65.966C180.497 65.966 180.205 66.0337 179.902 66.169C179.598 66.3043 179.386 66.5447 179.265 66.89L177.543 66.344C177.734 65.7187 178.093 65.21 178.621 64.818C179.148 64.426 179.867 64.23 180.777 64.23C181.444 64.23 182.037 64.3327 182.555 64.538C183.073 64.7433 183.465 65.098 183.731 65.602C183.88 65.882 183.969 66.162 183.997 66.442C184.025 66.722 184.039 67.0347 184.039 67.38V72H182.373V70.446L182.611 70.768C182.242 71.2767 181.843 71.6453 181.414 71.874C180.989 72.098 180.45 72.21 179.797 72.21ZM180.203 70.712C180.553 70.712 180.847 70.6513 181.085 70.53C181.327 70.404 181.519 70.2617 181.659 70.103C181.803 69.9443 181.901 69.8113 181.953 69.704C182.051 69.4987 182.107 69.2607 182.121 68.99C182.139 68.7147 182.149 68.486 182.149 68.304L182.709 68.444C182.144 68.5373 181.687 68.6167 181.337 68.682C180.987 68.7427 180.704 68.7987 180.49 68.85C180.275 68.9013 180.086 68.9573 179.923 69.018C179.736 69.0927 179.584 69.1743 179.468 69.263C179.356 69.347 179.272 69.4403 179.216 69.543C179.164 69.6457 179.139 69.76 179.139 69.886C179.139 70.0587 179.181 70.208 179.265 70.334C179.353 70.4553 179.477 70.5487 179.636 70.614C179.794 70.6793 179.983 70.712 180.203 70.712ZM188.925 72.21C188.23 72.21 187.621 72.035 187.098 71.685C186.575 71.335 186.167 70.859 185.873 70.257C185.584 69.655 185.439 68.976 185.439 68.22C185.439 67.45 185.586 66.7663 185.88 66.169C186.179 65.567 186.596 65.0933 187.133 64.748C187.67 64.4027 188.3 64.23 189.023 64.23C189.742 64.23 190.346 64.405 190.836 64.755C191.326 65.105 191.697 65.581 191.949 66.183C192.201 66.785 192.327 67.464 192.327 68.22C192.327 68.976 192.199 69.655 191.942 70.257C191.69 70.859 191.312 71.335 190.808 71.685C190.304 72.035 189.676 72.21 188.925 72.21ZM189.233 70.516C189.658 70.516 189.996 70.4203 190.248 70.229C190.505 70.0377 190.689 69.7693 190.801 69.424C190.913 69.0787 190.969 68.6773 190.969 68.22C190.969 67.7627 190.913 67.3613 190.801 67.016C190.689 66.6707 190.509 66.4023 190.262 66.211C190.019 66.0197 189.7 65.924 189.303 65.924C188.878 65.924 188.528 66.029 188.253 66.239C187.982 66.4443 187.782 66.722 187.651 67.072C187.52 67.4173 187.455 67.8 187.455 68.22C187.455 68.6447 187.518 69.032 187.644 69.382C187.77 69.7273 187.964 70.0027 188.225 70.208C188.486 70.4133 188.822 70.516 189.233 70.516ZM190.969 72V66.82H190.731V61.92H192.649V72H190.969ZM197.423 72.224C196.83 72.224 196.347 72.1237 195.974 71.923C195.601 71.7223 195.309 71.468 195.099 71.16C194.894 70.852 194.747 70.5323 194.658 70.201C194.569 69.865 194.516 69.5593 194.497 69.284C194.478 69.0087 194.469 68.808 194.469 68.682V64.44H196.401V68.01C196.401 68.1827 196.41 68.4043 196.429 68.675C196.448 68.941 196.506 69.2093 196.604 69.48C196.702 69.7507 196.861 69.977 197.08 70.159C197.304 70.341 197.619 70.432 198.025 70.432C198.188 70.432 198.363 70.4063 198.55 70.355C198.737 70.3037 198.912 70.2057 199.075 70.061C199.238 69.9117 199.371 69.6947 199.474 69.41C199.581 69.1207 199.635 68.7427 199.635 68.276L200.727 68.794C200.727 69.3913 200.606 69.9513 200.363 70.474C200.12 70.9967 199.754 71.419 199.264 71.741C198.779 72.063 198.165 72.224 197.423 72.224ZM199.873 72V69.494H199.635V64.44H201.553V72H199.873ZM203.649 72V61.71H205.553V72H203.649ZM212.188 72C211.665 72.098 211.152 72.14 210.648 72.126C210.149 72.1167 209.701 72.0303 209.304 71.867C208.912 71.699 208.613 71.4307 208.408 71.062C208.221 70.7167 208.123 70.3667 208.114 70.012C208.105 69.6527 208.1 69.2467 208.1 68.794V62.34H210.004V68.682C210.004 68.976 210.006 69.242 210.011 69.48C210.02 69.7133 210.069 69.9 210.158 70.04C210.326 70.306 210.594 70.4507 210.963 70.474C211.332 70.4973 211.74 70.4787 212.188 70.418V72ZM206.812 65.91V64.44H212.188V65.91H206.812ZM214.181 72V70.096H216.085V72H214.181ZM107.003 110V105.898L103.559 99.92H105.785L107.969 103.714L110.153 99.92H112.379L108.935 105.898V110H107.003ZM115.638 110.21C114.877 110.21 114.21 110.04 113.636 109.699C113.062 109.358 112.614 108.889 112.292 108.292C111.975 107.69 111.816 106.999 111.816 106.22C111.816 105.431 111.979 104.738 112.306 104.141C112.633 103.539 113.083 103.07 113.657 102.734C114.231 102.398 114.891 102.23 115.638 102.23C116.399 102.23 117.066 102.4 117.64 102.741C118.219 103.082 118.669 103.553 118.991 104.155C119.313 104.752 119.474 105.441 119.474 106.22C119.474 107.004 119.311 107.697 118.984 108.299C118.662 108.896 118.212 109.365 117.633 109.706C117.059 110.042 116.394 110.21 115.638 110.21ZM115.638 108.432C116.249 108.432 116.704 108.227 117.003 107.816C117.306 107.401 117.458 106.869 117.458 106.22C117.458 105.548 117.304 105.011 116.996 104.61C116.693 104.209 116.24 104.008 115.638 104.008C115.223 104.008 114.882 104.101 114.616 104.288C114.35 104.475 114.152 104.734 114.021 105.065C113.895 105.396 113.832 105.781 113.832 106.22C113.832 106.897 113.984 107.436 114.287 107.837C114.595 108.234 115.045 108.432 115.638 108.432ZM123.827 110.224C123.235 110.224 122.752 110.124 122.378 109.923C122.005 109.722 121.713 109.468 121.503 109.16C121.298 108.852 121.151 108.532 121.062 108.201C120.974 107.865 120.92 107.559 120.901 107.284C120.883 107.009 120.873 106.808 120.873 106.682V102.44H122.805V106.01C122.805 106.183 122.815 106.404 122.833 106.675C122.852 106.941 122.91 107.209 123.008 107.48C123.106 107.751 123.265 107.977 123.484 108.159C123.708 108.341 124.023 108.432 124.429 108.432C124.593 108.432 124.768 108.406 124.954 108.355C125.141 108.304 125.316 108.206 125.479 108.061C125.643 107.912 125.776 107.695 125.878 107.41C125.986 107.121 126.039 106.743 126.039 106.276L127.131 106.794C127.131 107.391 127.01 107.951 126.767 108.474C126.525 108.997 126.158 109.419 125.668 109.741C125.183 110.063 124.569 110.224 123.827 110.224ZM126.277 110V107.494H126.039V102.44H127.957V110H126.277ZM134.816 110.21C134.275 110.21 133.815 110.107 133.437 109.902C133.064 109.692 132.779 109.414 132.583 109.069C132.392 108.719 132.296 108.334 132.296 107.914C132.296 107.564 132.35 107.244 132.457 106.955C132.565 106.666 132.737 106.411 132.975 106.192C133.218 105.968 133.542 105.781 133.948 105.632C134.228 105.529 134.562 105.438 134.949 105.359C135.337 105.28 135.775 105.205 136.265 105.135C136.755 105.06 137.294 104.979 137.882 104.89L137.196 105.268C137.196 104.82 137.089 104.491 136.874 104.281C136.66 104.071 136.3 103.966 135.796 103.966C135.516 103.966 135.225 104.034 134.921 104.169C134.618 104.304 134.406 104.545 134.284 104.89L132.562 104.344C132.754 103.719 133.113 103.21 133.64 102.818C134.168 102.426 134.886 102.23 135.796 102.23C136.464 102.23 137.056 102.333 137.574 102.538C138.092 102.743 138.484 103.098 138.75 103.602C138.9 103.882 138.988 104.162 139.016 104.442C139.044 104.722 139.058 105.035 139.058 105.38V110H137.392V108.446L137.63 108.768C137.262 109.277 136.863 109.645 136.433 109.874C136.009 110.098 135.47 110.21 134.816 110.21ZM135.222 108.712C135.572 108.712 135.866 108.651 136.104 108.53C136.347 108.404 136.538 108.262 136.678 108.103C136.823 107.944 136.921 107.811 136.972 107.704C137.07 107.499 137.126 107.261 137.14 106.99C137.159 106.715 137.168 106.486 137.168 106.304L137.728 106.444C137.164 106.537 136.706 106.617 136.356 106.682C136.006 106.743 135.724 106.799 135.509 106.85C135.295 106.901 135.106 106.957 134.942 107.018C134.756 107.093 134.604 107.174 134.487 107.263C134.375 107.347 134.291 107.44 134.235 107.543C134.184 107.646 134.158 107.76 134.158 107.886C134.158 108.059 134.2 108.208 134.284 108.334C134.373 108.455 134.497 108.549 134.655 108.614C134.814 108.679 135.003 108.712 135.222 108.712ZM140.878 110V102.44H142.558V104.288L142.376 104.05C142.474 103.789 142.605 103.551 142.768 103.336C142.932 103.121 143.132 102.944 143.37 102.804C143.552 102.692 143.751 102.606 143.965 102.545C144.18 102.48 144.402 102.44 144.63 102.426C144.859 102.407 145.088 102.412 145.316 102.44V104.218C145.106 104.153 144.861 104.132 144.581 104.155C144.306 104.174 144.056 104.237 143.832 104.344C143.608 104.447 143.419 104.584 143.265 104.757C143.111 104.925 142.995 105.126 142.915 105.359C142.836 105.588 142.796 105.847 142.796 106.136V110H140.878ZM150.025 110.21C149.251 110.21 148.567 110.044 147.974 109.713C147.386 109.377 146.924 108.917 146.588 108.334C146.257 107.746 146.091 107.074 146.091 106.318C146.091 105.492 146.255 104.773 146.581 104.162C146.908 103.551 147.358 103.077 147.932 102.741C148.506 102.4 149.167 102.23 149.913 102.23C150.707 102.23 151.381 102.417 151.936 102.79C152.492 103.163 152.902 103.688 153.168 104.365C153.434 105.042 153.528 105.837 153.448 106.752H151.565V106.052C151.565 105.282 151.442 104.729 151.194 104.393C150.952 104.052 150.553 103.882 149.997 103.882C149.349 103.882 148.87 104.08 148.562 104.477C148.259 104.869 148.107 105.45 148.107 106.22C148.107 106.925 148.259 107.471 148.562 107.858C148.87 108.241 149.321 108.432 149.913 108.432C150.287 108.432 150.606 108.35 150.872 108.187C151.138 108.024 151.341 107.788 151.481 107.48L153.385 108.026C153.101 108.717 152.65 109.253 152.034 109.636C151.423 110.019 150.753 110.21 150.025 110.21ZM147.519 106.752V105.338H152.531V106.752H147.519ZM162.984 110V106.43C162.984 106.257 162.974 106.038 162.956 105.772C162.937 105.501 162.879 105.231 162.781 104.96C162.683 104.689 162.522 104.463 162.298 104.281C162.078 104.099 161.766 104.008 161.36 104.008C161.196 104.008 161.021 104.034 160.835 104.085C160.648 104.136 160.473 104.237 160.31 104.386C160.146 104.531 160.011 104.745 159.904 105.03C159.801 105.315 159.75 105.693 159.75 106.164L158.658 105.646C158.658 105.049 158.779 104.489 159.022 103.966C159.264 103.443 159.628 103.021 160.114 102.699C160.604 102.377 161.22 102.216 161.962 102.216C162.554 102.216 163.037 102.316 163.411 102.517C163.784 102.718 164.073 102.972 164.279 103.28C164.489 103.588 164.638 103.91 164.727 104.246C164.815 104.577 164.869 104.881 164.888 105.156C164.906 105.431 164.916 105.632 164.916 105.758V110H162.984ZM157.818 110V102.44H159.512V104.946H159.75V110H157.818ZM169.997 110.21C169.237 110.21 168.569 110.04 167.995 109.699C167.421 109.358 166.973 108.889 166.651 108.292C166.334 107.69 166.175 106.999 166.175 106.22C166.175 105.431 166.339 104.738 166.665 104.141C166.992 103.539 167.442 103.07 168.016 102.734C168.59 102.398 169.251 102.23 169.997 102.23C170.758 102.23 171.425 102.4 171.999 102.741C172.578 103.082 173.028 103.553 173.35 104.155C173.672 104.752 173.833 105.441 173.833 106.22C173.833 107.004 173.67 107.697 173.343 108.299C173.021 108.896 172.571 109.365 171.992 109.706C171.418 110.042 170.753 110.21 169.997 110.21ZM169.997 108.432C170.609 108.432 171.064 108.227 171.362 107.816C171.666 107.401 171.817 106.869 171.817 106.22C171.817 105.548 171.663 105.011 171.355 104.61C171.052 104.209 170.599 104.008 169.997 104.008C169.582 104.008 169.241 104.101 168.975 104.288C168.709 104.475 168.511 104.734 168.38 105.065C168.254 105.396 168.191 105.781 168.191 106.22C168.191 106.897 168.343 107.436 168.646 107.837C168.954 108.234 169.405 108.432 169.997 108.432ZM179.909 110C179.386 110.098 178.873 110.14 178.369 110.126C177.869 110.117 177.421 110.03 177.025 109.867C176.633 109.699 176.334 109.431 176.129 109.062C175.942 108.717 175.844 108.367 175.835 108.012C175.825 107.653 175.821 107.247 175.821 106.794V100.34H177.725V106.682C177.725 106.976 177.727 107.242 177.732 107.48C177.741 107.713 177.79 107.9 177.879 108.04C178.047 108.306 178.315 108.451 178.684 108.474C179.052 108.497 179.461 108.479 179.909 108.418V110ZM174.533 103.91V102.44H179.909V103.91H174.533ZM186.496 110.21C185.955 110.21 185.495 110.107 185.117 109.902C184.744 109.692 184.459 109.414 184.263 109.069C184.072 108.719 183.976 108.334 183.976 107.914C183.976 107.564 184.03 107.244 184.137 106.955C184.244 106.666 184.417 106.411 184.655 106.192C184.898 105.968 185.222 105.781 185.628 105.632C185.908 105.529 186.242 105.438 186.629 105.359C187.016 105.28 187.455 105.205 187.945 105.135C188.435 105.06 188.974 104.979 189.562 104.89L188.876 105.268C188.876 104.82 188.769 104.491 188.554 104.281C188.339 104.071 187.98 103.966 187.476 103.966C187.196 103.966 186.904 104.034 186.601 104.169C186.298 104.304 186.085 104.545 185.964 104.89L184.242 104.344C184.433 103.719 184.793 103.21 185.32 102.818C185.847 102.426 186.566 102.23 187.476 102.23C188.143 102.23 188.736 102.333 189.254 102.538C189.772 102.743 190.164 103.098 190.43 103.602C190.579 103.882 190.668 104.162 190.696 104.442C190.724 104.722 190.738 105.035 190.738 105.38V110H189.072V108.446L189.31 108.768C188.941 109.277 188.542 109.645 188.113 109.874C187.688 110.098 187.149 110.21 186.496 110.21ZM186.902 108.712C187.252 108.712 187.546 108.651 187.784 108.53C188.027 108.404 188.218 108.262 188.358 108.103C188.503 107.944 188.601 107.811 188.652 107.704C188.75 107.499 188.806 107.261 188.82 106.99C188.839 106.715 188.848 106.486 188.848 106.304L189.408 106.444C188.843 106.537 188.386 106.617 188.036 106.682C187.686 106.743 187.404 106.799 187.189 106.85C186.974 106.901 186.785 106.957 186.622 107.018C186.435 107.093 186.284 107.174 186.167 107.263C186.055 107.347 185.971 107.44 185.915 107.543C185.864 107.646 185.838 107.76 185.838 107.886C185.838 108.059 185.88 108.208 185.964 108.334C186.053 108.455 186.176 108.549 186.335 108.614C186.494 108.679 186.683 108.712 186.902 108.712ZM197.71 110V106.43C197.71 106.257 197.701 106.038 197.682 105.772C197.663 105.501 197.605 105.231 197.507 104.96C197.409 104.689 197.248 104.463 197.024 104.281C196.805 104.099 196.492 104.008 196.086 104.008C195.923 104.008 195.748 104.034 195.561 104.085C195.374 104.136 195.199 104.237 195.036 104.386C194.873 104.531 194.737 104.745 194.63 105.03C194.527 105.315 194.476 105.693 194.476 106.164L193.384 105.646C193.384 105.049 193.505 104.489 193.748 103.966C193.991 103.443 194.355 103.021 194.84 102.699C195.33 102.377 195.946 102.216 196.688 102.216C197.281 102.216 197.764 102.316 198.137 102.517C198.51 102.718 198.8 102.972 199.005 103.28C199.215 103.588 199.364 103.91 199.453 104.246C199.542 104.577 199.595 104.881 199.614 105.156C199.633 105.431 199.642 105.632 199.642 105.758V110H197.71ZM192.544 110V102.44H194.238V104.946H194.476V110H192.544ZM206.361 110.21C205.82 110.21 205.36 110.107 204.982 109.902C204.609 109.692 204.324 109.414 204.128 109.069C203.937 108.719 203.841 108.334 203.841 107.914C203.841 107.564 203.895 107.244 204.002 106.955C204.11 106.666 204.282 106.411 204.52 106.192C204.763 105.968 205.087 105.781 205.493 105.632C205.773 105.529 206.107 105.438 206.494 105.359C206.882 105.28 207.32 105.205 207.81 105.135C208.3 105.06 208.839 104.979 209.427 104.89L208.741 105.268C208.741 104.82 208.634 104.491 208.419 104.281C208.205 104.071 207.845 103.966 207.341 103.966C207.061 103.966 206.77 104.034 206.466 104.169C206.163 104.304 205.951 104.545 205.829 104.89L204.107 104.344C204.299 103.719 204.658 103.21 205.185 102.818C205.713 102.426 206.431 102.23 207.341 102.23C208.009 102.23 208.601 102.333 209.119 102.538C209.637 102.743 210.029 103.098 210.295 103.602C210.445 103.882 210.533 104.162 210.561 104.442C210.589 104.722 210.603 105.035 210.603 105.38V110H208.937V108.446L209.175 108.768C208.807 109.277 208.408 109.645 207.978 109.874C207.554 110.098 207.015 110.21 206.361 110.21ZM206.767 108.712C207.117 108.712 207.411 108.651 207.649 108.53C207.892 108.404 208.083 108.262 208.223 108.103C208.368 107.944 208.466 107.811 208.517 107.704C208.615 107.499 208.671 107.261 208.685 106.99C208.704 106.715 208.713 106.486 208.713 106.304L209.273 106.444C208.709 106.537 208.251 106.617 207.901 106.682C207.551 106.743 207.269 106.799 207.054 106.85C206.84 106.901 206.651 106.957 206.487 107.018C206.301 107.093 206.149 107.174 206.032 107.263C205.92 107.347 205.836 107.44 205.78 107.543C205.729 107.646 205.703 107.76 205.703 107.886C205.703 108.059 205.745 108.208 205.829 108.334C205.918 108.455 206.042 108.549 206.2 108.614C206.359 108.679 206.548 108.712 206.767 108.712ZM215.489 110.21C214.794 110.21 214.185 110.035 213.662 109.685C213.14 109.335 212.731 108.859 212.437 108.257C212.148 107.655 212.003 106.976 212.003 106.22C212.003 105.45 212.15 104.766 212.444 104.169C212.743 103.567 213.161 103.093 213.697 102.748C214.234 102.403 214.864 102.23 215.587 102.23C216.306 102.23 216.91 102.405 217.4 102.755C217.89 103.105 218.261 103.581 218.513 104.183C218.765 104.785 218.891 105.464 218.891 106.22C218.891 106.976 218.763 107.655 218.506 108.257C218.254 108.859 217.876 109.335 217.372 109.685C216.868 110.035 216.241 110.21 215.489 110.21ZM215.797 108.516C216.222 108.516 216.56 108.42 216.812 108.229C217.069 108.038 217.253 107.769 217.365 107.424C217.477 107.079 217.533 106.677 217.533 106.22C217.533 105.763 217.477 105.361 217.365 105.016C217.253 104.671 217.074 104.402 216.826 104.211C216.584 104.02 216.264 103.924 215.867 103.924C215.443 103.924 215.093 104.029 214.817 104.239C214.547 104.444 214.346 104.722 214.215 105.072C214.085 105.417 214.019 105.8 214.019 106.22C214.019 106.645 214.082 107.032 214.208 107.382C214.334 107.727 214.528 108.003 214.789 108.208C215.051 108.413 215.387 108.516 215.797 108.516ZM217.533 110V104.82H217.295V99.92H219.213V110H217.533ZM223.987 110.224C223.395 110.224 222.912 110.124 222.538 109.923C222.165 109.722 221.873 109.468 221.663 109.16C221.458 108.852 221.311 108.532 221.222 108.201C221.134 107.865 221.08 107.559 221.061 107.284C221.043 107.009 221.033 106.808 221.033 106.682V102.44H222.965V106.01C222.965 106.183 222.975 106.404 222.993 106.675C223.012 106.941 223.07 107.209 223.168 107.48C223.266 107.751 223.425 107.977 223.644 108.159C223.868 108.341 224.183 108.432 224.589 108.432C224.753 108.432 224.928 108.406 225.114 108.355C225.301 108.304 225.476 108.206 225.639 108.061C225.803 107.912 225.936 107.695 226.038 107.41C226.146 107.121 226.199 106.743 226.199 106.276L227.291 106.794C227.291 107.391 227.17 107.951 226.927 108.474C226.685 108.997 226.318 109.419 225.828 109.741C225.343 110.063 224.729 110.224 223.987 110.224ZM226.437 110V107.494H226.199V102.44H228.117V110H226.437ZM230.214 110V99.71H232.118V110H230.214ZM238.752 110C238.23 110.098 237.716 110.14 237.212 110.126C236.713 110.117 236.265 110.03 235.868 109.867C235.476 109.699 235.178 109.431 234.972 109.062C234.786 108.717 234.688 108.367 234.678 108.012C234.669 107.653 234.664 107.247 234.664 106.794V100.34H236.568V106.682C236.568 106.976 236.571 107.242 236.575 107.48C236.585 107.713 236.634 107.9 236.722 108.04C236.89 108.306 237.159 108.451 237.527 108.474C237.896 108.497 238.304 108.479 238.752 108.418V110ZM233.376 103.91V102.44H238.752V103.91H233.376ZM240.745 110V108.096H242.649V110H240.745Z" fill="#FFD966"/>
<path d="M69.9351 15V6.992L68.0451 8.154V6.054L69.9351 4.92H71.8811V15H69.9351ZM78.0565 15.21C77.3892 15.21 76.7895 15.0537 76.2575 14.741C75.7302 14.4283 75.3125 13.9943 75.0045 13.439C74.6965 12.879 74.5425 12.2327 74.5425 11.5V8.574C74.5425 7.78067 74.6965 7.097 75.0045 6.523C75.3125 5.94433 75.7465 5.501 76.3065 5.193C76.8665 4.88033 77.5245 4.724 78.2805 4.724C78.7705 4.724 79.2372 4.79633 79.6805 4.941C80.1238 5.08567 80.5298 5.33067 80.8985 5.676L79.5405 7.034C79.3725 6.866 79.1788 6.73533 78.9595 6.642C78.7402 6.54867 78.5138 6.502 78.2805 6.502C77.9165 6.502 77.5992 6.58833 77.3285 6.761C77.0625 6.929 76.8548 7.15067 76.7055 7.426C76.5608 7.69667 76.4885 7.986 76.4885 8.294V9.792L76.1665 9.442C76.4558 9.148 76.7895 8.924 77.1675 8.77C77.5502 8.61133 77.9445 8.532 78.3505 8.532C78.9852 8.532 79.5428 8.67433 80.0235 8.959C80.5088 9.24367 80.8868 9.63333 81.1575 10.128C81.4328 10.6227 81.5705 11.1873 81.5705 11.822C81.5705 12.4567 81.4095 13.0307 81.0875 13.544C80.7655 14.0527 80.3385 14.4587 79.8065 14.762C79.2745 15.0607 78.6912 15.21 78.0565 15.21ZM78.0565 13.39C78.3458 13.39 78.6095 13.32 78.8475 13.18C79.0902 13.04 79.2815 12.851 79.4215 12.613C79.5662 12.375 79.6385 12.1113 79.6385 11.822C79.6385 11.5327 79.5685 11.269 79.4285 11.031C79.2885 10.7883 79.0995 10.597 78.8615 10.457C78.6235 10.3123 78.3598 10.24 78.0705 10.24C77.7812 10.24 77.5152 10.3123 77.2725 10.457C77.0345 10.597 76.8432 10.7883 76.6985 11.031C76.5585 11.269 76.4885 11.5327 76.4885 11.822C76.4885 12.102 76.5585 12.361 76.6985 12.599C76.8385 12.837 77.0275 13.0283 77.2655 13.173C77.5035 13.3177 77.7672 13.39 78.0565 13.39ZM75.814 53V44.992L73.924 46.154V44.054L75.814 42.92H77.76V53H75.814ZM83.7954 53.21C83.1141 53.21 82.5074 53.0723 81.9754 52.797C81.4481 52.517 81.0327 52.1343 80.7294 51.649C80.4307 51.159 80.2814 50.6013 80.2814 49.976C80.2814 49.444 80.4004 48.9423 80.6384 48.471C80.8811 47.9997 81.2287 47.6147 81.6814 47.316L81.6394 47.904C81.2987 47.5727 81.0304 47.2227 80.8344 46.854C80.6431 46.4853 80.5474 46.07 80.5474 45.608C80.5474 45.0247 80.6851 44.516 80.9604 44.082C81.2404 43.648 81.6231 43.312 82.1084 43.074C82.5984 42.8313 83.1607 42.71 83.7954 42.71C84.4301 42.71 84.9901 42.8313 85.4754 43.074C85.9654 43.312 86.3481 43.648 86.6234 44.082C86.9034 44.516 87.0434 45.0247 87.0434 45.608C87.0434 46.07 86.9524 46.4853 86.7704 46.854C86.5884 47.218 86.3107 47.5727 85.9374 47.918V47.33C86.3807 47.61 86.7214 47.988 86.9594 48.464C87.2021 48.94 87.3234 49.444 87.3234 49.976C87.3234 50.6013 87.1717 51.159 86.8684 51.649C86.5651 52.1343 86.1474 52.517 85.6154 52.797C85.0834 53.0723 84.4767 53.21 83.7954 53.21ZM83.7954 51.418C84.2434 51.418 84.6074 51.2967 84.8874 51.054C85.1674 50.8113 85.3074 50.452 85.3074 49.976C85.3074 49.5047 85.1674 49.1453 84.8874 48.898C84.6074 48.646 84.2434 48.52 83.7954 48.52C83.3474 48.52 82.9857 48.646 82.7104 48.898C82.4351 49.1453 82.2974 49.5047 82.2974 49.976C82.2974 50.452 82.4351 50.8113 82.7104 51.054C82.9857 51.2967 83.3474 51.418 83.7954 51.418ZM83.7954 46.714C84.1594 46.714 84.4557 46.6253 84.6844 46.448C84.9131 46.266 85.0274 45.986 85.0274 45.608C85.0274 45.23 84.9131 44.95 84.6844 44.768C84.4557 44.5813 84.1594 44.488 83.7954 44.488C83.4314 44.488 83.1351 44.5813 82.9064 44.768C82.6777 44.95 82.5634 45.23 82.5634 45.608C82.5634 45.986 82.6777 46.266 82.9064 46.448C83.1351 46.6253 83.4314 46.714 83.7954 46.714Z" fill="#FF378B"/>
<rect x="1" y="145" width="256" height="79" rx="7" fill="#282525" stroke="#777777" stroke-width="2"/>
<path d="M26.4535 176.21C25.4455 176.21 24.5752 175.991 23.8425 175.552C23.1145 175.113 22.5522 174.5 22.1555 173.711C21.7635 172.922 21.5675 172.005 21.5675 170.96C21.5675 169.915 21.7635 168.998 22.1555 168.209C22.5522 167.42 23.1145 166.807 23.8425 166.368C24.5752 165.929 25.4455 165.71 26.4535 165.71C27.6109 165.71 28.5815 165.997 29.3655 166.571C30.1542 167.145 30.7095 167.922 31.0315 168.902L29.1135 169.434C28.9269 168.823 28.6119 168.349 28.1685 168.013C27.7252 167.672 27.1535 167.502 26.4535 167.502C25.8142 167.502 25.2799 167.644 24.8505 167.929C24.4259 168.214 24.1062 168.615 23.8915 169.133C23.6769 169.651 23.5695 170.26 23.5695 170.96C23.5695 171.66 23.6769 172.269 23.8915 172.787C24.1062 173.305 24.4259 173.706 24.8505 173.991C25.2799 174.276 25.8142 174.418 26.4535 174.418C27.1535 174.418 27.7252 174.248 28.1685 173.907C28.6119 173.566 28.9269 173.093 29.1135 172.486L31.0315 173.018C30.7095 173.998 30.1542 174.775 29.3655 175.349C28.5815 175.923 27.6109 176.21 26.4535 176.21ZM35.9748 176.21C35.2142 176.21 34.5468 176.04 33.9728 175.699C33.3988 175.358 32.9508 174.889 32.6288 174.292C32.3115 173.69 32.1528 172.999 32.1528 172.22C32.1528 171.431 32.3162 170.738 32.6428 170.141C32.9695 169.539 33.4198 169.07 33.9938 168.734C34.5678 168.398 35.2282 168.23 35.9748 168.23C36.7355 168.23 37.4028 168.4 37.9768 168.741C38.5555 169.082 39.0058 169.553 39.3278 170.155C39.6498 170.752 39.8108 171.441 39.8108 172.22C39.8108 173.004 39.6475 173.697 39.3208 174.299C38.9988 174.896 38.5485 175.365 37.9698 175.706C37.3958 176.042 36.7308 176.21 35.9748 176.21ZM35.9748 174.432C36.5862 174.432 37.0412 174.227 37.3398 173.816C37.6432 173.401 37.7948 172.869 37.7948 172.22C37.7948 171.548 37.6408 171.011 37.3328 170.61C37.0295 170.209 36.5768 170.008 35.9748 170.008C35.5595 170.008 35.2188 170.101 34.9528 170.288C34.6868 170.475 34.4885 170.734 34.3578 171.065C34.2318 171.396 34.1688 171.781 34.1688 172.22C34.1688 172.897 34.3205 173.436 34.6238 173.837C34.9318 174.234 35.3822 174.432 35.9748 174.432ZM46.5022 176V172.43C46.5022 172.257 46.4928 172.038 46.4742 171.772C46.4555 171.501 46.3972 171.231 46.2992 170.96C46.2012 170.689 46.0402 170.463 45.8162 170.281C45.5968 170.099 45.2842 170.008 44.8782 170.008C44.7148 170.008 44.5398 170.034 44.3532 170.085C44.1665 170.136 43.9915 170.237 43.8282 170.386C43.6648 170.531 43.5295 170.745 43.4222 171.03C43.3195 171.315 43.2682 171.693 43.2682 172.164L42.1762 171.646C42.1762 171.049 42.2975 170.489 42.5402 169.966C42.7828 169.443 43.1468 169.021 43.6322 168.699C44.1222 168.377 44.7382 168.216 45.4802 168.216C46.0728 168.216 46.5558 168.316 46.9292 168.517C47.3025 168.718 47.5918 168.972 47.7972 169.28C48.0072 169.588 48.1565 169.91 48.2452 170.246C48.3338 170.577 48.3875 170.881 48.4062 171.156C48.4248 171.431 48.4342 171.632 48.4342 171.758V176H46.5022ZM41.3362 176V168.44H43.0302V170.946H43.2682V176H41.3362ZM53.2046 176.21C52.2526 176.21 51.4826 175.995 50.8946 175.566C50.3112 175.132 49.9566 174.521 49.8306 173.732L51.7766 173.438C51.8559 173.793 52.0309 174.07 52.3016 174.271C52.5769 174.472 52.9246 174.572 53.3446 174.572C53.6899 174.572 53.9559 174.507 54.1426 174.376C54.3292 174.241 54.4226 174.054 54.4226 173.816C54.4226 173.667 54.3852 173.548 54.3106 173.459C54.2359 173.366 54.0679 173.275 53.8066 173.186C53.5499 173.097 53.1486 172.981 52.6026 172.836C51.9866 172.677 51.4942 172.5 51.1256 172.304C50.7569 172.108 50.4909 171.875 50.3276 171.604C50.1642 171.329 50.0826 170.997 50.0826 170.61C50.0826 170.125 50.2062 169.705 50.4536 169.35C50.7009 168.991 51.0486 168.715 51.4966 168.524C51.9492 168.328 52.4812 168.23 53.0926 168.23C53.6852 168.23 54.2102 168.321 54.6676 168.503C55.1249 168.685 55.4936 168.944 55.7736 169.28C56.0582 169.616 56.2332 170.013 56.2986 170.47L54.3526 170.82C54.3199 170.54 54.1986 170.318 53.9886 170.155C53.7786 169.992 53.4939 169.896 53.1346 169.868C52.7846 169.845 52.5022 169.891 52.2876 170.008C52.0776 170.125 51.9726 170.293 51.9726 170.512C51.9726 170.643 52.0169 170.752 52.1056 170.841C52.1989 170.93 52.3879 171.021 52.6726 171.114C52.9619 171.207 53.4006 171.329 53.9886 171.478C54.5626 171.627 55.0222 171.802 55.3676 172.003C55.7176 172.199 55.9719 172.437 56.1306 172.717C56.2892 172.992 56.3686 173.326 56.3686 173.718C56.3686 174.493 56.0886 175.102 55.5286 175.545C54.9686 175.988 54.1939 176.21 53.2046 176.21ZM61.3088 176.21C60.5482 176.21 59.8808 176.04 59.3068 175.699C58.7328 175.358 58.2848 174.889 57.9628 174.292C57.6455 173.69 57.4868 172.999 57.4868 172.22C57.4868 171.431 57.6502 170.738 57.9768 170.141C58.3035 169.539 58.7538 169.07 59.3278 168.734C59.9018 168.398 60.5622 168.23 61.3088 168.23C62.0695 168.23 62.7368 168.4 63.3108 168.741C63.8895 169.082 64.3398 169.553 64.6618 170.155C64.9838 170.752 65.1448 171.441 65.1448 172.22C65.1448 173.004 64.9815 173.697 64.6548 174.299C64.3328 174.896 63.8825 175.365 63.3038 175.706C62.7298 176.042 62.0648 176.21 61.3088 176.21ZM61.3088 174.432C61.9202 174.432 62.3752 174.227 62.6738 173.816C62.9772 173.401 63.1288 172.869 63.1288 172.22C63.1288 171.548 62.9748 171.011 62.6668 170.61C62.3635 170.209 61.9108 170.008 61.3088 170.008C60.8935 170.008 60.5528 170.101 60.2868 170.288C60.0208 170.475 59.8225 170.734 59.6918 171.065C59.5658 171.396 59.5028 171.781 59.5028 172.22C59.5028 172.897 59.6545 173.436 59.9578 173.837C60.2658 174.234 60.7162 174.432 61.3088 174.432ZM66.8242 176V165.71H68.7282V176H66.8242ZM74.3407 176.21C73.5661 176.21 72.8824 176.044 72.2897 175.713C71.7017 175.377 71.2397 174.917 70.9037 174.334C70.5724 173.746 70.4067 173.074 70.4067 172.318C70.4067 171.492 70.5701 170.773 70.8967 170.162C71.2234 169.551 71.6737 169.077 72.2477 168.741C72.8217 168.4 73.4821 168.23 74.2287 168.23C75.0221 168.23 75.6964 168.417 76.2517 168.79C76.8071 169.163 77.2177 169.688 77.4837 170.365C77.7497 171.042 77.8431 171.837 77.7637 172.752H75.8807V172.052C75.8807 171.282 75.7571 170.729 75.5097 170.393C75.2671 170.052 74.8681 169.882 74.3127 169.882C73.6641 169.882 73.1857 170.08 72.8777 170.477C72.5744 170.869 72.4227 171.45 72.4227 172.22C72.4227 172.925 72.5744 173.471 72.8777 173.858C73.1857 174.241 73.6361 174.432 74.2287 174.432C74.6021 174.432 74.9217 174.35 75.1877 174.187C75.4537 174.024 75.6567 173.788 75.7967 173.48L77.7007 174.026C77.4161 174.717 76.9657 175.253 76.3497 175.636C75.7384 176.019 75.0687 176.21 74.3407 176.21ZM71.8347 172.752V171.338H76.8467V172.752H71.8347Z" fill="white"/>
<path d="M24.395 203V198.807L21 192.92H22.449L25.025 197.379L27.594 192.92H29.043L25.655 198.807V203H24.395ZM32.118 203.21C31.3666 203.21 30.718 203.04 30.172 202.699C29.6306 202.358 29.213 201.887 28.919 201.285C28.625 200.683 28.478 199.992 28.478 199.213C28.478 198.42 28.6273 197.724 28.926 197.127C29.2246 196.53 29.647 196.065 30.193 195.734C30.739 195.398 31.3806 195.23 32.118 195.23C32.874 195.23 33.525 195.4 34.071 195.741C34.617 196.077 35.0346 196.546 35.324 197.148C35.618 197.745 35.765 198.434 35.765 199.213C35.765 200.002 35.618 200.697 35.324 201.299C35.03 201.896 34.61 202.365 34.064 202.706C33.518 203.042 32.8693 203.21 32.118 203.21ZM32.118 202.027C32.902 202.027 33.4853 201.766 33.868 201.243C34.2506 200.72 34.442 200.044 34.442 199.213C34.442 198.359 34.2483 197.68 33.861 197.176C33.4736 196.667 32.8926 196.413 32.118 196.413C31.5906 196.413 31.1566 196.532 30.816 196.77C30.4753 197.008 30.221 197.337 30.053 197.757C29.885 198.177 29.801 198.662 29.801 199.213C29.801 200.062 29.997 200.744 30.389 201.257C30.781 201.77 31.3573 202.027 32.118 202.027ZM40.1762 203.196C39.6908 203.196 39.2732 203.119 38.9232 202.965C38.5778 202.811 38.2908 202.606 38.0622 202.349C37.8335 202.092 37.6538 201.808 37.5232 201.495C37.3925 201.182 37.2992 200.863 37.2432 200.536C37.1918 200.209 37.1662 199.904 37.1662 199.619V195.44H38.4262V199.227C38.4262 199.582 38.4588 199.925 38.5242 200.256C38.5895 200.587 38.6992 200.886 38.8532 201.152C39.0118 201.418 39.2218 201.628 39.4832 201.782C39.7492 201.936 40.0805 202.013 40.4772 202.013C40.7898 202.013 41.0745 201.959 41.3312 201.852C41.5878 201.745 41.8072 201.586 41.9892 201.376C42.1712 201.161 42.3112 200.891 42.4092 200.564C42.5072 200.237 42.5562 199.857 42.5562 199.423L43.3752 199.675C43.3752 200.403 43.2422 201.031 42.9762 201.558C42.7148 202.085 42.3438 202.491 41.8632 202.776C41.3872 203.056 40.8248 203.196 40.1762 203.196ZM42.6962 203V200.977H42.5562V195.44H43.8092V203H42.6962ZM50.7208 203.21C50.1561 203.21 49.6825 203.107 49.2998 202.902C48.9218 202.692 48.6348 202.417 48.4388 202.076C48.2475 201.735 48.1518 201.362 48.1518 200.956C48.1518 200.559 48.2265 200.216 48.3758 199.927C48.5298 199.633 48.7445 199.39 49.0198 199.199C49.2951 199.003 49.6241 198.849 50.0068 198.737C50.3661 198.639 50.7675 198.555 51.2108 198.485C51.6588 198.41 52.1115 198.343 52.5688 198.282C53.0261 198.221 53.4531 198.163 53.8498 198.107L53.4018 198.366C53.4158 197.694 53.2805 197.197 52.9958 196.875C52.7158 196.553 52.2305 196.392 51.5398 196.392C51.0825 196.392 50.6811 196.497 50.3358 196.707C49.9951 196.912 49.7548 197.248 49.6148 197.715L48.4318 197.358C48.6138 196.695 48.9661 196.175 49.4888 195.797C50.0115 195.419 50.6998 195.23 51.5538 195.23C52.2398 195.23 52.8278 195.354 53.3178 195.601C53.8125 195.844 54.1671 196.212 54.3818 196.707C54.4891 196.94 54.5568 197.195 54.5848 197.47C54.6128 197.741 54.6268 198.025 54.6268 198.324V203H53.5208V201.187L53.7798 201.355C53.4951 201.966 53.0961 202.428 52.5828 202.741C52.0741 203.054 51.4535 203.21 50.7208 203.21ZM50.9098 202.167C51.3578 202.167 51.7451 202.088 52.0718 201.929C52.4031 201.766 52.6691 201.553 52.8698 201.292C53.0705 201.026 53.2011 200.737 53.2618 200.424C53.3318 200.191 53.3691 199.932 53.3738 199.647C53.3831 199.358 53.3878 199.136 53.3878 198.982L53.8218 199.171C53.4158 199.227 53.0168 199.281 52.6248 199.332C52.2328 199.383 51.8618 199.439 51.5118 199.5C51.1618 199.556 50.8468 199.624 50.5668 199.703C50.3615 199.768 50.1678 199.852 49.9858 199.955C49.8085 200.058 49.6638 200.191 49.5518 200.354C49.4445 200.513 49.3908 200.711 49.3908 200.949C49.3908 201.154 49.4421 201.35 49.5448 201.537C49.6521 201.724 49.8155 201.875 50.0348 201.992C50.2588 202.109 50.5505 202.167 50.9098 202.167ZM56.4468 203V195.44H57.5598V197.267L57.3778 197.029C57.4665 196.796 57.5808 196.581 57.7208 196.385C57.8655 196.189 58.0265 196.028 58.2038 195.902C58.3998 195.743 58.6215 195.622 58.8688 195.538C59.1161 195.454 59.3681 195.405 59.6248 195.391C59.8815 195.372 60.1218 195.389 60.3458 195.44V196.609C60.0845 196.539 59.7975 196.52 59.4848 196.553C59.1721 196.586 58.8828 196.7 58.6168 196.896C58.3741 197.069 58.1851 197.279 58.0498 197.526C57.9191 197.773 57.8281 198.042 57.7768 198.331C57.7255 198.616 57.6998 198.907 57.6998 199.206V203H56.4468ZM64.8087 203.21C64.0667 203.21 63.4181 203.047 62.8627 202.72C62.3121 202.389 61.8827 201.929 61.5747 201.341C61.2667 200.748 61.1127 200.058 61.1127 199.269C61.1127 198.443 61.2644 197.729 61.5677 197.127C61.8711 196.52 62.2934 196.054 62.8347 195.727C63.3807 195.396 64.0201 195.23 64.7527 195.23C65.5134 195.23 66.1597 195.405 66.6917 195.755C67.2284 196.105 67.6297 196.604 67.8957 197.253C68.1664 197.902 68.2831 198.674 68.2457 199.57H66.9857V199.122C66.9717 198.193 66.7827 197.5 66.4187 197.043C66.0547 196.581 65.5134 196.35 64.7947 196.35C64.0247 196.35 63.4391 196.597 63.0377 197.092C62.6364 197.587 62.4357 198.296 62.4357 199.22C62.4357 200.111 62.6364 200.802 63.0377 201.292C63.4391 201.782 64.0107 202.027 64.7527 202.027C65.2521 202.027 65.6861 201.913 66.0547 201.684C66.4234 201.455 66.7127 201.126 66.9227 200.697L68.1197 201.11C67.8257 201.777 67.3824 202.295 66.7897 202.664C66.2017 203.028 65.5414 203.21 64.8087 203.21ZM62.0157 199.57V198.569H67.6017V199.57H62.0157ZM77.99 203V199.213C77.99 198.854 77.9573 198.508 77.892 198.177C77.8313 197.846 77.7216 197.549 77.563 197.288C77.409 197.022 77.199 196.812 76.933 196.658C76.6716 196.504 76.3403 196.427 75.939 196.427C75.6263 196.427 75.3416 196.481 75.085 196.588C74.833 196.691 74.616 196.849 74.434 197.064C74.252 197.279 74.1096 197.549 74.007 197.876C73.909 198.198 73.86 198.578 73.86 199.017L73.041 198.765C73.041 198.032 73.1716 197.405 73.433 196.882C73.699 196.355 74.07 195.951 74.546 195.671C75.0266 195.386 75.5913 195.244 76.24 195.244C76.73 195.244 77.1476 195.321 77.493 195.475C77.8383 195.629 78.1253 195.834 78.354 196.091C78.5826 196.343 78.7623 196.628 78.893 196.945C79.0236 197.258 79.1146 197.577 79.166 197.904C79.222 198.226 79.25 198.532 79.25 198.821V203H77.99ZM72.6 203V195.44H73.72V197.463H73.86V203H72.6ZM84.2215 203.21C83.4702 203.21 82.8215 203.04 82.2755 202.699C81.7342 202.358 81.3165 201.887 81.0225 201.285C80.7285 200.683 80.5815 199.992 80.5815 199.213C80.5815 198.42 80.7308 197.724 81.0295 197.127C81.3282 196.53 81.7505 196.065 82.2965 195.734C82.8425 195.398 83.4842 195.23 84.2215 195.23C84.9775 195.23 85.6285 195.4 86.1745 195.741C86.7205 196.077 87.1382 196.546 87.4275 197.148C87.7215 197.745 87.8685 198.434 87.8685 199.213C87.8685 200.002 87.7215 200.697 87.4275 201.299C87.1335 201.896 86.7135 202.365 86.1675 202.706C85.6215 203.042 84.9728 203.21 84.2215 203.21ZM84.2215 202.027C85.0055 202.027 85.5888 201.766 85.9715 201.243C86.3542 200.72 86.5455 200.044 86.5455 199.213C86.5455 198.359 86.3518 197.68 85.9645 197.176C85.5772 196.667 84.9962 196.413 84.2215 196.413C83.6942 196.413 83.2602 196.532 82.9195 196.77C82.5788 197.008 82.3245 197.337 82.1565 197.757C81.9885 198.177 81.9045 198.662 81.9045 199.213C81.9045 200.062 82.1005 200.744 82.4925 201.257C82.8845 201.77 83.4608 202.027 84.2215 202.027ZM93.6307 203C93.1827 203.089 92.7394 203.124 92.3007 203.105C91.8667 203.091 91.4794 203.005 91.1387 202.846C90.798 202.683 90.539 202.431 90.3617 202.09C90.2124 201.791 90.1307 201.49 90.1167 201.187C90.1074 200.879 90.1027 200.531 90.1027 200.144V193.34H91.3487V200.088C91.3487 200.396 91.351 200.66 91.3557 200.879C91.365 201.098 91.414 201.287 91.5027 201.446C91.6707 201.745 91.9367 201.92 92.3007 201.971C92.6694 202.022 93.1127 202.008 93.6307 201.929V203ZM88.5697 196.469V195.44H93.6307V196.469H88.5697ZM100.117 203.21C99.5526 203.21 99.0789 203.107 98.6963 202.902C98.3183 202.692 98.0313 202.417 97.8353 202.076C97.6439 201.735 97.5483 201.362 97.5483 200.956C97.5483 200.559 97.6229 200.216 97.7723 199.927C97.9263 199.633 98.1409 199.39 98.4163 199.199C98.6916 199.003 99.0206 198.849 99.4033 198.737C99.7626 198.639 100.164 198.555 100.607 198.485C101.055 198.41 101.508 198.343 101.965 198.282C102.423 198.221 102.85 198.163 103.246 198.107L102.798 198.366C102.812 197.694 102.677 197.197 102.392 196.875C102.112 196.553 101.627 196.392 100.936 196.392C100.479 196.392 100.078 196.497 99.7323 196.707C99.3916 196.912 99.1513 197.248 99.0113 197.715L97.8283 197.358C98.0103 196.695 98.3626 196.175 98.8853 195.797C99.4079 195.419 100.096 195.23 100.95 195.23C101.636 195.23 102.224 195.354 102.714 195.601C103.209 195.844 103.564 196.212 103.778 196.707C103.886 196.94 103.953 197.195 103.981 197.47C104.009 197.741 104.023 198.025 104.023 198.324V203H102.917V201.187L103.176 201.355C102.892 201.966 102.493 202.428 101.979 202.741C101.471 203.054 100.85 203.21 100.117 203.21ZM100.306 202.167C100.754 202.167 101.142 202.088 101.468 201.929C101.8 201.766 102.066 201.553 102.266 201.292C102.467 201.026 102.598 200.737 102.658 200.424C102.728 200.191 102.766 199.932 102.77 199.647C102.78 199.358 102.784 199.136 102.784 198.982L103.218 199.171C102.812 199.227 102.413 199.281 102.021 199.332C101.629 199.383 101.258 199.439 100.908 199.5C100.558 199.556 100.243 199.624 99.9633 199.703C99.7579 199.768 99.5643 199.852 99.3823 199.955C99.2049 200.058 99.0603 200.191 98.9483 200.354C98.8409 200.513 98.7873 200.711 98.7873 200.949C98.7873 201.154 98.8386 201.35 98.9413 201.537C99.0486 201.724 99.2119 201.875 99.4313 201.992C99.6553 202.109 99.9469 202.167 100.306 202.167ZM111.226 203V199.213C111.226 198.854 111.194 198.508 111.128 198.177C111.068 197.846 110.958 197.549 110.799 197.288C110.645 197.022 110.435 196.812 110.169 196.658C109.908 196.504 109.577 196.427 109.175 196.427C108.863 196.427 108.578 196.481 108.321 196.588C108.069 196.691 107.852 196.849 107.67 197.064C107.488 197.279 107.346 197.549 107.243 197.876C107.145 198.198 107.096 198.578 107.096 199.017L106.277 198.765C106.277 198.032 106.408 197.405 106.669 196.882C106.935 196.355 107.306 195.951 107.782 195.671C108.263 195.386 108.828 195.244 109.476 195.244C109.966 195.244 110.384 195.321 110.729 195.475C111.075 195.629 111.362 195.834 111.59 196.091C111.819 196.343 111.999 196.628 112.129 196.945C112.26 197.258 112.351 197.577 112.402 197.904C112.458 198.226 112.486 198.532 112.486 198.821V203H111.226ZM105.836 203V195.44H106.956V197.463H107.096V203H105.836ZM119.258 203.21C118.693 203.21 118.22 203.107 117.837 202.902C117.459 202.692 117.172 202.417 116.976 202.076C116.785 201.735 116.689 201.362 116.689 200.956C116.689 200.559 116.764 200.216 116.913 199.927C117.067 199.633 117.282 199.39 117.557 199.199C117.832 199.003 118.161 198.849 118.544 198.737C118.903 198.639 119.305 198.555 119.748 198.485C120.196 198.41 120.649 198.343 121.106 198.282C121.563 198.221 121.99 198.163 122.387 198.107L121.939 198.366C121.953 197.694 121.818 197.197 121.533 196.875C121.253 196.553 120.768 196.392 120.077 196.392C119.62 196.392 119.218 196.497 118.873 196.707C118.532 196.912 118.292 197.248 118.152 197.715L116.969 197.358C117.151 196.695 117.503 196.175 118.026 195.797C118.549 195.419 119.237 195.23 120.091 195.23C120.777 195.23 121.365 195.354 121.855 195.601C122.35 195.844 122.704 196.212 122.919 196.707C123.026 196.94 123.094 197.195 123.122 197.47C123.15 197.741 123.164 198.025 123.164 198.324V203H122.058V201.187L122.317 201.355C122.032 201.966 121.633 202.428 121.12 202.741C120.611 203.054 119.991 203.21 119.258 203.21ZM119.447 202.167C119.895 202.167 120.282 202.088 120.609 201.929C120.94 201.766 121.206 201.553 121.407 201.292C121.608 201.026 121.738 200.737 121.799 200.424C121.869 200.191 121.906 199.932 121.911 199.647C121.92 199.358 121.925 199.136 121.925 198.982L122.359 199.171C121.953 199.227 121.554 199.281 121.162 199.332C120.77 199.383 120.399 199.439 120.049 199.5C119.699 199.556 119.384 199.624 119.104 199.703C118.899 199.768 118.705 199.852 118.523 199.955C118.346 200.058 118.201 200.191 118.089 200.354C117.982 200.513 117.928 200.711 117.928 200.949C117.928 201.154 117.979 201.35 118.082 201.537C118.189 201.724 118.353 201.875 118.572 201.992C118.796 202.109 119.088 202.167 119.447 202.167ZM127.952 203.21C127.247 203.21 126.643 203.035 126.139 202.685C125.635 202.33 125.245 201.852 124.97 201.25C124.699 200.648 124.564 199.969 124.564 199.213C124.564 198.457 124.699 197.778 124.97 197.176C125.245 196.574 125.635 196.1 126.139 195.755C126.643 195.405 127.245 195.23 127.945 195.23C128.659 195.23 129.259 195.403 129.744 195.748C130.229 196.093 130.596 196.567 130.843 197.169C131.095 197.771 131.221 198.452 131.221 199.213C131.221 199.964 131.095 200.643 130.843 201.25C130.596 201.852 130.229 202.33 129.744 202.685C129.259 203.035 128.661 203.21 127.952 203.21ZM128.106 202.069C128.615 202.069 129.032 201.948 129.359 201.705C129.686 201.458 129.926 201.119 130.08 200.69C130.239 200.256 130.318 199.764 130.318 199.213C130.318 198.653 130.239 198.161 130.08 197.736C129.926 197.307 129.688 196.973 129.366 196.735C129.044 196.492 128.636 196.371 128.141 196.371C127.628 196.371 127.203 196.497 126.867 196.749C126.536 197.001 126.288 197.342 126.125 197.771C125.966 198.2 125.887 198.681 125.887 199.213C125.887 199.75 125.969 200.235 126.132 200.669C126.295 201.098 126.54 201.439 126.867 201.691C127.198 201.943 127.611 202.069 128.106 202.069ZM130.318 203V197.435H130.178V192.92H131.431V203H130.318ZM136.262 203.196C135.777 203.196 135.359 203.119 135.009 202.965C134.664 202.811 134.377 202.606 134.148 202.349C133.919 202.092 133.74 201.808 133.609 201.495C133.478 201.182 133.385 200.863 133.329 200.536C133.278 200.209 133.252 199.904 133.252 199.619V195.44H134.512V199.227C134.512 199.582 134.545 199.925 134.61 200.256C134.675 200.587 134.785 200.886 134.939 201.152C135.098 201.418 135.308 201.628 135.569 201.782C135.835 201.936 136.166 202.013 136.563 202.013C136.876 202.013 137.16 201.959 137.417 201.852C137.674 201.745 137.893 201.586 138.075 201.376C138.257 201.161 138.397 200.891 138.495 200.564C138.593 200.237 138.642 199.857 138.642 199.423L139.461 199.675C139.461 200.403 139.328 201.031 139.062 201.558C138.801 202.085 138.43 202.491 137.949 202.776C137.473 203.056 136.911 203.196 136.262 203.196ZM138.782 203V200.977H138.642V195.44H139.895V203H138.782ZM141.995 203V192.71H143.241V203H141.995ZM149.562 203C149.114 203.089 148.671 203.124 148.232 203.105C147.798 203.091 147.411 203.005 147.07 202.846C146.73 202.683 146.471 202.431 146.293 202.09C146.144 201.791 146.062 201.49 146.048 201.187C146.039 200.879 146.034 200.531 146.034 200.144V193.34H147.28V200.088C147.28 200.396 147.283 200.66 147.287 200.879C147.297 201.098 147.346 201.287 147.434 201.446C147.602 201.745 147.868 201.92 148.232 201.971C148.601 202.022 149.044 202.008 149.562 201.929V203ZM144.501 196.469V195.44H149.562V196.469H144.501ZM151.321 203V201.628H152.693V203H151.321Z" fill="#FCFCFC"/>
<path d="M270.19 91.0261C269.8 91.4166 269.8 92.0498 270.19 92.4403L276.554 98.8043C276.945 99.1948 277.578 99.1948 277.968 98.8043C278.359 98.4137 278.359 97.7806 277.968 97.39L272.312 91.7332L277.968 86.0763C278.359 85.6858 278.359 85.0526 277.968 84.6621C277.578 84.2716 276.945 84.2716 276.554 84.6621L270.19 91.0261ZM261.5 183.5C260.948 183.5 260.5 183.948 260.5 184.5C260.5 185.052 260.948 185.5 261.5 185.5V183.5ZM295 91.7332L295 90.7332L295 91.7332ZM270.897 92.7332L295 92.7332L295 90.7332L270.897 90.7332L270.897 92.7332ZM318 115.733V160.5H320V115.733H318ZM295 183.5H261.5V185.5H295V183.5ZM318 160.5C318 173.203 307.703 183.5 295 183.5V185.5C308.807 185.5 320 174.307 320 160.5H318ZM295 92.7332C307.703 92.7332 318 103.031 318 115.733H320C320 101.926 308.807 90.7332 295 90.7332L295 92.7332Z" fill="#FFD966"/>
</svg>
