<svg width="298" height="200" viewBox="0 0 298 200" fill="none" xmlns="http://www.w3.org/2000/svg">
<path d="M1.12 15V4.71H3.024V15H1.12ZM8.63658 15.21C7.86191 15.21 7.17824 15.0443 6.58558 14.713C5.99758 14.377 5.53558 13.9173 5.19958 13.334C4.86824 12.746 4.70258 12.074 4.70258 11.318C4.70258 10.492 4.86591 9.77333 5.19258 9.162C5.51924 8.55067 5.96958 8.077 6.54358 7.741C7.11758 7.40033 7.77791 7.23 8.52458 7.23C9.31791 7.23 9.99225 7.41667 10.5476 7.79C11.1029 8.16333 11.5136 8.68833 11.7796 9.365C12.0456 10.0417 12.1389 10.8373 12.0596 11.752H10.1766V11.052C10.1766 10.282 10.0529 9.729 9.80558 9.393C9.56291 9.05233 9.16391 8.882 8.60858 8.882C7.95991 8.882 7.48158 9.08033 7.17358 9.477C6.87024 9.869 6.71858 10.45 6.71858 11.22C6.71858 11.9247 6.87024 12.4707 7.17358 12.858C7.48158 13.2407 7.93191 13.432 8.52458 13.432C8.89791 13.432 9.21758 13.3503 9.48358 13.187C9.74958 13.0237 9.95258 12.788 10.0926 12.48L11.9966 13.026C11.7119 13.7167 11.2616 14.2533 10.6456 14.636C10.0342 15.0187 9.36458 15.21 8.63658 15.21ZM6.13058 11.752V10.338H11.1426V11.752H6.13058ZM18.1762 15C17.6535 15.098 17.1402 15.14 16.6362 15.126C16.1368 15.1167 15.6888 15.0303 15.2922 14.867C14.9002 14.699 14.6015 14.4307 14.3962 14.062C14.2095 13.7167 14.1115 13.3667 14.1022 13.012C14.0928 12.6527 14.0882 12.2467 14.0882 11.794V5.34H15.9922V11.682C15.9922 11.976 15.9945 12.242 15.9992 12.48C16.0085 12.7133 16.0575 12.9 16.1462 13.04C16.3142 13.306 16.5825 13.4507 16.9512 13.474C17.3198 13.4973 17.7282 13.4787 18.1762 13.418V15ZM12.8002 8.91V7.44H18.1762V8.91H12.8002ZM51.5823 9.33V7.86H58.7223V9.33H51.5823ZM51.5823 12.06V10.59H58.7223V12.06H51.5823ZM79.8252 16.89L79.9372 16.092C80.1612 16.1107 80.3432 16.0733 80.4832 15.98C80.6232 15.8913 80.7188 15.7607 80.7702 15.588C80.8262 15.42 80.8378 15.224 80.8052 15H79.8252V13.096H81.7292V15C81.7292 15.672 81.5728 16.1807 81.2602 16.526C80.9475 16.8713 80.4692 16.9927 79.8252 16.89ZM79.8252 9.344V7.44H81.7292V9.344H79.8252ZM1.12 44.39V42.71H3.024V44.39H1.12ZM1.12 53V45.44H3.024V53H1.12ZM5.75258 53V45.468C5.75258 45.2767 5.75724 45.0597 5.76658 44.817C5.77591 44.5743 5.81324 44.3293 5.87858 44.082C5.94858 43.8347 6.07458 43.6107 6.25658 43.41C6.48991 43.1487 6.74191 42.9713 7.01258 42.878C7.28791 42.78 7.55391 42.7287 7.81058 42.724C8.06725 42.7147 8.28658 42.71 8.46858 42.71H9.40658V44.25H8.53858C8.23991 44.25 8.01824 44.327 7.87358 44.481C7.72891 44.6303 7.65658 44.81 7.65658 45.02V53H5.75258ZM4.56258 46.91V45.44H9.40658V46.91H4.56258ZM16.8397 55.716C16.2984 55.0813 15.834 54.3603 15.4467 53.553C15.064 52.7457 14.7724 51.901 14.5717 51.019C14.3757 50.1323 14.287 49.2527 14.3057 48.38C14.287 47.5073 14.3757 46.6277 14.5717 45.741C14.7724 44.8543 15.064 44.0097 15.4467 43.207C15.834 42.3997 16.2984 41.6787 16.8397 41.044L18.2537 42.08C17.6844 42.766 17.2387 43.452 16.9167 44.138C16.5947 44.8193 16.366 45.5123 16.2307 46.217C16.1 46.917 16.0324 47.638 16.0277 48.38C16.0324 49.122 16.1 49.8453 16.2307 50.55C16.366 51.25 16.5947 51.943 16.9167 52.629C17.2387 53.3103 17.6844 53.994 18.2537 54.68L16.8397 55.716ZM50.4398 51.978L49.2638 50.802L51.5598 48.59L49.2638 46.378L50.4398 45.202L53.8278 48.59L50.4398 51.978ZM57.4613 47.33V45.86H64.6013V47.33H57.4613ZM57.4613 50.06V48.59H64.6013V50.06H57.4613ZM86.1381 55.296L84.7241 54.26C85.2934 53.574 85.7391 52.8903 86.0611 52.209C86.3831 51.523 86.6094 50.83 86.7401 50.13C86.8754 49.4253 86.9454 48.702 86.9501 47.96C86.9454 47.218 86.8754 46.497 86.7401 45.797C86.6094 45.0923 86.3831 44.3993 86.0611 43.718C85.7391 43.032 85.2934 42.346 84.7241 41.66L86.1381 40.624C86.6794 41.2587 87.1414 41.9797 87.5241 42.787C87.9114 43.5897 88.2031 44.4343 88.3991 45.321C88.5997 46.2077 88.6907 47.0873 88.6721 47.96C88.6907 48.8327 88.5997 49.7123 88.3991 50.599C88.2031 51.481 87.9114 52.3257 87.5241 53.133C87.1414 53.9403 86.6794 54.6613 86.1381 55.296ZM98.3056 55.94C97.6616 55.94 97.1576 55.758 96.7936 55.394C96.4296 55.03 96.2476 54.526 96.2476 53.882V49.794C96.2476 49.7053 96.2243 49.6307 96.1776 49.57L95.5476 48.674C95.4449 48.52 95.3936 48.352 95.3936 48.17C95.3936 47.988 95.4449 47.82 95.5476 47.666L96.1776 46.77C96.2243 46.6907 96.2476 46.616 96.2476 46.546V42.458C96.2476 41.8187 96.4296 41.317 96.7936 40.953C97.1576 40.5843 97.6616 40.4 98.3056 40.4H99.2996V42.192H98.4456C98.3336 42.192 98.2379 42.2317 98.1586 42.311C98.0793 42.3903 98.0396 42.486 98.0396 42.598V46.546C98.0396 47.0033 97.9043 47.4233 97.6336 47.806L97.3676 48.17L97.6336 48.534C97.9043 48.9167 98.0396 49.3367 98.0396 49.794V53.742C98.0396 53.8587 98.0793 53.9567 98.1586 54.036C98.2379 54.12 98.3336 54.162 98.4456 54.162H99.2996V55.94H98.3056ZM9.91747 72.21C9.13347 72.21 8.46147 72.035 7.90147 71.685C7.34147 71.335 6.91214 70.859 6.61347 70.257C6.3148 69.655 6.16547 68.976 6.16547 68.22C6.16547 67.4547 6.31947 66.771 6.62747 66.169C6.94014 65.567 7.3788 65.0933 7.94347 64.748C8.50814 64.4027 9.17547 64.23 9.94547 64.23C10.8368 64.23 11.5835 64.4563 12.1855 64.909C12.7921 65.357 13.1795 65.9707 13.3475 66.75L11.4435 67.254C11.3315 66.862 11.1355 66.5563 10.8555 66.337C10.5801 66.1177 10.2675 66.008 9.91747 66.008C9.51614 66.008 9.18714 66.106 8.93047 66.302C8.6738 66.4933 8.4848 66.757 8.36347 67.093C8.24214 67.4243 8.18147 67.8 8.18147 68.22C8.18147 68.878 8.32614 69.4123 8.61547 69.823C8.90947 70.229 9.34347 70.432 9.91747 70.432C10.3468 70.432 10.6735 70.334 10.8975 70.138C11.1215 69.942 11.2895 69.662 11.4015 69.298L13.3475 69.704C13.1328 70.5067 12.7268 71.125 12.1295 71.559C11.5321 71.993 10.7948 72.21 9.91747 72.21ZM17.9445 72.21C17.1838 72.21 16.5165 72.0397 15.9425 71.699C15.3685 71.3583 14.9205 70.8893 14.5985 70.292C14.2812 69.69 14.1225 68.9993 14.1225 68.22C14.1225 67.4313 14.2858 66.7383 14.6125 66.141C14.9392 65.539 15.3895 65.07 15.9635 64.734C16.5375 64.398 17.1978 64.23 17.9445 64.23C18.7052 64.23 19.3725 64.4003 19.9465 64.741C20.5252 65.0817 20.9755 65.553 21.2975 66.155C21.6195 66.7523 21.7805 67.4407 21.7805 68.22C21.7805 69.004 21.6172 69.697 21.2905 70.299C20.9685 70.8963 20.5182 71.3653 19.9395 71.706C19.3655 72.042 18.7005 72.21 17.9445 72.21ZM17.9445 70.432C18.5558 70.432 19.0108 70.2267 19.3095 69.816C19.6128 69.4007 19.7645 68.8687 19.7645 68.22C19.7645 67.548 19.6105 67.0113 19.3025 66.61C18.9992 66.2087 18.5465 66.008 17.9445 66.008C17.5292 66.008 17.1885 66.1013 16.9225 66.288C16.6565 66.4747 16.4582 66.7337 16.3275 67.065C16.2015 67.3963 16.1385 67.7813 16.1385 68.22C16.1385 68.8967 16.2902 69.4357 16.5935 69.837C16.9015 70.2337 17.3518 70.432 17.9445 70.432ZM28.4718 72V68.43C28.4718 68.2573 28.4625 68.038 28.4438 67.772C28.4252 67.5013 28.3668 67.2307 28.2688 66.96C28.1708 66.6893 28.0098 66.463 27.7858 66.281C27.5665 66.099 27.2538 66.008 26.8478 66.008C26.6845 66.008 26.5095 66.0337 26.3228 66.085C26.1362 66.1363 25.9612 66.2367 25.7978 66.386C25.6345 66.5307 25.4992 66.7453 25.3918 67.03C25.2892 67.3147 25.2378 67.6927 25.2378 68.164L24.1458 67.646C24.1458 67.0487 24.2672 66.4887 24.5098 65.966C24.7525 65.4433 25.1165 65.021 25.6018 64.699C26.0918 64.377 26.7078 64.216 27.4498 64.216C28.0425 64.216 28.5255 64.3163 28.8988 64.517C29.2722 64.7177 29.5615 64.972 29.7668 65.28C29.9768 65.588 30.1262 65.91 30.2148 66.246C30.3035 66.5773 30.3572 66.8807 30.3758 67.156C30.3945 67.4313 30.4038 67.632 30.4038 67.758V72H28.4718ZM23.3058 72V64.44H24.9998V66.946H25.2378V72H23.3058ZM35.1742 72.21C34.2222 72.21 33.4522 71.9953 32.8642 71.566C32.2809 71.132 31.9262 70.5207 31.8002 69.732L33.7462 69.438C33.8256 69.7927 34.0006 70.0703 34.2712 70.271C34.5466 70.4717 34.8942 70.572 35.3142 70.572C35.6596 70.572 35.9256 70.5067 36.1122 70.376C36.2989 70.2407 36.3922 70.054 36.3922 69.816C36.3922 69.6667 36.3549 69.5477 36.2802 69.459C36.2056 69.3657 36.0376 69.2747 35.7762 69.186C35.5196 69.0973 35.1182 68.9807 34.5722 68.836C33.9562 68.6773 33.4639 68.5 33.0952 68.304C32.7266 68.108 32.4606 67.8747 32.2972 67.604C32.1339 67.3287 32.0522 66.9973 32.0522 66.61C32.0522 66.1247 32.1759 65.7047 32.4232 65.35C32.6706 64.9907 33.0182 64.7153 33.4662 64.524C33.9189 64.328 34.4509 64.23 35.0622 64.23C35.6549 64.23 36.1799 64.321 36.6372 64.503C37.0946 64.685 37.4632 64.944 37.7432 65.28C38.0279 65.616 38.2029 66.0127 38.2682 66.47L36.3222 66.82C36.2896 66.54 36.1682 66.3183 35.9582 66.155C35.7482 65.9917 35.4636 65.896 35.1042 65.868C34.7542 65.8447 34.4719 65.8913 34.2572 66.008C34.0472 66.1247 33.9422 66.2927 33.9422 66.512C33.9422 66.6427 33.9866 66.7523 34.0752 66.841C34.1686 66.9297 34.3576 67.0207 34.6422 67.114C34.9316 67.2073 35.3702 67.3287 35.9582 67.478C36.5322 67.6273 36.9919 67.8023 37.3372 68.003C37.6872 68.199 37.9416 68.437 38.1002 68.717C38.2589 68.9923 38.3382 69.326 38.3382 69.718C38.3382 70.4927 38.0582 71.1017 37.4982 71.545C36.9382 71.9883 36.1636 72.21 35.1742 72.21ZM43.2785 72.21C42.5178 72.21 41.8505 72.0397 41.2765 71.699C40.7025 71.3583 40.2545 70.8893 39.9325 70.292C39.6152 69.69 39.4565 68.9993 39.4565 68.22C39.4565 67.4313 39.6198 66.7383 39.9465 66.141C40.2732 65.539 40.7235 65.07 41.2975 64.734C41.8715 64.398 42.5318 64.23 43.2785 64.23C44.0392 64.23 44.7065 64.4003 45.2805 64.741C45.8592 65.0817 46.3095 65.553 46.6315 66.155C46.9535 66.7523 47.1145 67.4407 47.1145 68.22C47.1145 69.004 46.9512 69.697 46.6245 70.299C46.3025 70.8963 45.8522 71.3653 45.2735 71.706C44.6995 72.042 44.0345 72.21 43.2785 72.21ZM43.2785 70.432C43.8898 70.432 44.3448 70.2267 44.6435 69.816C44.9468 69.4007 45.0985 68.8687 45.0985 68.22C45.0985 67.548 44.9445 67.0113 44.6365 66.61C44.3332 66.2087 43.8805 66.008 43.2785 66.008C42.8632 66.008 42.5225 66.1013 42.2565 66.288C41.9905 66.4747 41.7922 66.7337 41.6615 67.065C41.5355 67.3963 41.4725 67.7813 41.4725 68.22C41.4725 68.8967 41.6242 69.4357 41.9275 69.837C42.2355 70.2337 42.6858 70.432 43.2785 70.432ZM48.7938 72V61.71H50.6978V72H48.7938ZM56.3104 72.21C55.5357 72.21 54.8521 72.0443 54.2594 71.713C53.6714 71.377 53.2094 70.9173 52.8734 70.334C52.5421 69.746 52.3764 69.074 52.3764 68.318C52.3764 67.492 52.5397 66.7733 52.8664 66.162C53.1931 65.5507 53.6434 65.077 54.2174 64.741C54.7914 64.4003 55.4517 64.23 56.1984 64.23C56.9917 64.23 57.6661 64.4167 58.2214 64.79C58.7767 65.1633 59.1874 65.6883 59.4534 66.365C59.7194 67.0417 59.8127 67.8373 59.7334 68.752H57.8504V68.052C57.8504 67.282 57.7267 66.729 57.4794 66.393C57.2367 66.0523 56.8377 65.882 56.2824 65.882C55.6337 65.882 55.1554 66.0803 54.8474 66.477C54.5441 66.869 54.3924 67.45 54.3924 68.22C54.3924 68.9247 54.5441 69.4707 54.8474 69.858C55.1554 70.2407 55.6057 70.432 56.1984 70.432C56.5717 70.432 56.8914 70.3503 57.1574 70.187C57.4234 70.0237 57.6264 69.788 57.7664 69.48L59.6704 70.026C59.3857 70.7167 58.9354 71.2533 58.3194 71.636C57.7081 72.0187 57.0384 72.21 56.3104 72.21ZM53.8044 68.752V67.338H58.8164V68.752H53.8044ZM61.3485 72V70.096H63.2525V72H61.3485ZM65.6649 72V61.71H67.5689V72H65.6649ZM73.0695 72.21C72.3088 72.21 71.6415 72.0397 71.0675 71.699C70.4935 71.3583 70.0455 70.8893 69.7235 70.292C69.4062 69.69 69.2475 68.9993 69.2475 68.22C69.2475 67.4313 69.4108 66.7383 69.7375 66.141C70.0642 65.539 70.5145 65.07 71.0885 64.734C71.6625 64.398 72.3228 64.23 73.0695 64.23C73.8302 64.23 74.4975 64.4003 75.0715 64.741C75.6502 65.0817 76.1005 65.553 76.4225 66.155C76.7445 66.7523 76.9055 67.4407 76.9055 68.22C76.9055 69.004 76.7422 69.697 76.4155 70.299C76.0935 70.8963 75.6432 71.3653 75.0645 71.706C74.4905 72.042 73.8255 72.21 73.0695 72.21ZM73.0695 70.432C73.6808 70.432 74.1358 70.2267 74.4345 69.816C74.7378 69.4007 74.8895 68.8687 74.8895 68.22C74.8895 67.548 74.7355 67.0113 74.4275 66.61C74.1242 66.2087 73.6715 66.008 73.0695 66.008C72.6542 66.008 72.3135 66.1013 72.0475 66.288C71.7815 66.4747 71.5832 66.7337 71.4525 67.065C71.3265 67.3963 71.2635 67.7813 71.2635 68.22C71.2635 68.8967 71.4152 69.4357 71.7185 69.837C72.0265 70.2337 72.4768 70.432 73.0695 70.432ZM81.6788 75.57C81.2495 75.57 80.8412 75.5 80.4538 75.36C80.0665 75.2247 79.7188 75.0333 79.4108 74.786C79.1075 74.5433 78.8602 74.2587 78.6688 73.932L80.4328 73.078C80.5542 73.302 80.7268 73.4723 80.9508 73.589C81.1795 73.7057 81.4268 73.764 81.6928 73.764C81.9775 73.764 82.2458 73.715 82.4978 73.617C82.7498 73.5237 82.9505 73.3813 83.0998 73.19C83.2538 73.0033 83.3262 72.77 83.3168 72.49V70.292H83.5548V64.44H85.2208V72.518C85.2208 72.7047 85.2115 72.8797 85.1928 73.043C85.1788 73.211 85.1508 73.3767 85.1088 73.54C84.9875 74.002 84.7612 74.3823 84.4298 74.681C84.1032 74.9797 83.7018 75.2013 83.2258 75.346C82.7498 75.4953 82.2342 75.57 81.6788 75.57ZM81.5108 72.21C80.8155 72.21 80.2065 72.035 79.6838 71.685C79.1612 71.335 78.7528 70.859 78.4588 70.257C78.1695 69.655 78.0248 68.976 78.0248 68.22C78.0248 67.45 78.1718 66.7663 78.4658 66.169C78.7645 65.567 79.1822 65.0933 79.7188 64.748C80.2555 64.4027 80.8855 64.23 81.6088 64.23C82.3275 64.23 82.9318 64.405 83.4218 64.755C83.9118 65.105 84.2828 65.581 84.5348 66.183C84.7868 66.785 84.9128 67.464 84.9128 68.22C84.9128 68.976 84.7845 69.655 84.5278 70.257C84.2758 70.859 83.8978 71.335 83.3938 71.685C82.8898 72.035 82.2622 72.21 81.5108 72.21ZM81.8188 70.516C82.2435 70.516 82.5818 70.4203 82.8338 70.229C83.0905 70.0377 83.2748 69.7693 83.3868 69.424C83.4988 69.0787 83.5548 68.6773 83.5548 68.22C83.5548 67.7627 83.4988 67.3613 83.3868 67.016C83.2748 66.6707 83.0952 66.4023 82.8478 66.211C82.6052 66.0197 82.2855 65.924 81.8888 65.924C81.4642 65.924 81.1142 66.029 80.8388 66.239C80.5682 66.4443 80.3675 66.722 80.2368 67.072C80.1062 67.4173 80.0408 67.8 80.0408 68.22C80.0408 68.6447 80.1038 69.032 80.2298 69.382C80.3558 69.7273 80.5495 70.0027 80.8108 70.208C81.0722 70.4133 81.4082 70.516 81.8188 70.516ZM90.6952 74.716C90.1538 74.0813 89.6895 73.3603 89.3022 72.553C88.9195 71.7457 88.6278 70.901 88.4272 70.019C88.2312 69.1323 88.1425 68.2527 88.1612 67.38C88.1425 66.5073 88.2312 65.6277 88.4272 64.741C88.6278 63.8543 88.9195 63.0097 89.3022 62.207C89.6895 61.3997 90.1538 60.6787 90.6952 60.044L92.1092 61.08C91.5398 61.766 91.0942 62.452 90.7722 63.138C90.4502 63.8193 90.2215 64.5123 90.0862 65.217C89.9555 65.917 89.8878 66.638 89.8832 67.38C89.8878 68.122 89.9555 68.8453 90.0862 69.55C90.2215 70.25 90.4502 70.943 90.7722 71.629C91.0942 72.3103 91.5398 72.994 92.1092 73.68L90.6952 74.716ZM93.508 64.44V61.92H95.412V64.44H93.508ZM96.252 64.44V61.92H98.156V64.44H96.252ZM214.217 64.44V61.92H216.121V64.44H214.217ZM216.961 64.44V61.92H218.865V64.44H216.961ZM222.242 74.716L220.828 73.68C221.397 72.994 221.843 72.3103 222.165 71.629C222.487 70.943 222.713 70.25 222.844 69.55C222.979 68.8453 223.049 68.122 223.054 67.38C223.049 66.638 222.979 65.917 222.844 65.217C222.713 64.5123 222.487 63.8193 222.165 63.138C221.843 62.452 221.397 61.766 220.828 61.08L222.242 60.044C222.783 60.6787 223.245 61.3997 223.628 62.207C224.015 63.0097 224.307 63.8543 224.503 64.741C224.703 65.6277 224.794 66.5073 224.776 67.38C224.794 68.2527 224.703 69.1323 224.503 70.019C224.307 70.901 224.015 71.7457 223.628 72.553C223.245 73.3603 222.783 74.0813 222.242 74.716ZM228.274 73.89L228.386 73.092C228.61 73.1107 228.792 73.0733 228.932 72.98C229.072 72.8913 229.168 72.7607 229.219 72.588C229.275 72.42 229.287 72.224 229.254 72H228.274V70.096H230.178V72C230.178 72.672 230.022 73.1807 229.709 73.526C229.397 73.8713 228.918 73.9927 228.274 73.89ZM228.274 66.344V64.44H230.178V66.344H228.274ZM1.554 93.94H0.56V92.162H1.414C1.526 92.162 1.62167 92.12 1.701 92.036C1.78033 91.9567 1.82 91.8587 1.82 91.742V87.794C1.82 87.3367 1.95533 86.9167 2.226 86.534L2.492 86.17L2.226 85.806C1.95533 85.4233 1.82 85.0033 1.82 84.546V80.598C1.82 80.486 1.78033 80.3903 1.701 80.311C1.62167 80.2317 1.526 80.192 1.414 80.192H0.56V78.4H1.554C2.198 78.4 2.702 78.5843 3.066 78.953C3.43 79.317 3.612 79.8187 3.612 80.458V84.546C3.612 84.616 3.63533 84.6907 3.682 84.77L4.312 85.666C4.41933 85.82 4.473 85.988 4.473 86.17C4.473 86.352 4.41933 86.52 4.312 86.674L3.682 87.57C3.63533 87.6307 3.612 87.7053 3.612 87.794V91.882C3.612 92.526 3.43 93.03 3.066 93.394C2.702 93.758 2.198 93.94 1.554 93.94Z" fill="white"/>
<path d="M24.7636 15.21C24.2223 15.21 23.7626 15.1073 23.3846 14.902C23.0113 14.692 22.7266 14.4143 22.5306 14.069C22.3393 13.719 22.2436 13.334 22.2436 12.914C22.2436 12.564 22.2973 12.2443 22.4046 11.955C22.5119 11.6657 22.6846 11.4113 22.9226 11.192C23.1653 10.968 23.4896 10.7813 23.8956 10.632C24.1756 10.5293 24.5093 10.4383 24.8966 10.359C25.2839 10.2797 25.7226 10.205 26.2126 10.135C26.7026 10.0603 27.2416 9.97867 27.8296 9.89L27.1436 10.268C27.1436 9.82 27.0363 9.491 26.8216 9.281C26.6069 9.071 26.2476 8.966 25.7436 8.966C25.4636 8.966 25.1719 9.03367 24.8686 9.169C24.5653 9.30433 24.3529 9.54467 24.2316 9.89L22.5096 9.344C22.7009 8.71867 23.0603 8.21 23.5876 7.818C24.1149 7.426 24.8336 7.23 25.7436 7.23C26.4109 7.23 27.0036 7.33267 27.5216 7.538C28.0396 7.74333 28.4316 8.098 28.6976 8.602C28.8469 8.882 28.9356 9.162 28.9636 9.442C28.9916 9.722 29.0056 10.0347 29.0056 10.38V15H27.3396V13.446L27.5776 13.768C27.2089 14.2767 26.8099 14.6453 26.3806 14.874C25.9559 15.098 25.4169 15.21 24.7636 15.21ZM25.1696 13.712C25.5196 13.712 25.8136 13.6513 26.0516 13.53C26.2943 13.404 26.4856 13.2617 26.6256 13.103C26.7703 12.9443 26.8683 12.8113 26.9196 12.704C27.0176 12.4987 27.0736 12.2607 27.0876 11.99C27.1063 11.7147 27.1156 11.486 27.1156 11.304L27.6756 11.444C27.1109 11.5373 26.6536 11.6167 26.3036 11.682C25.9536 11.7427 25.6713 11.7987 25.4566 11.85C25.2419 11.9013 25.0529 11.9573 24.8896 12.018C24.7029 12.0927 24.5513 12.1743 24.4346 12.263C24.3226 12.347 24.2386 12.4403 24.1826 12.543C24.1313 12.6457 24.1056 12.76 24.1056 12.886C24.1056 13.0587 24.1476 13.208 24.2316 13.334C24.3203 13.4553 24.4439 13.5487 24.6026 13.614C24.7613 13.6793 24.9503 13.712 25.1696 13.712ZM34.0597 18.57C33.6304 18.57 33.222 18.5 32.8347 18.36C32.4474 18.2247 32.0997 18.0333 31.7917 17.786C31.4884 17.5433 31.241 17.2587 31.0497 16.932L32.8137 16.078C32.935 16.302 33.1077 16.4723 33.3317 16.589C33.5604 16.7057 33.8077 16.764 34.0737 16.764C34.3584 16.764 34.6267 16.715 34.8787 16.617C35.1307 16.5237 35.3314 16.3813 35.4807 16.19C35.6347 16.0033 35.707 15.77 35.6977 15.49V13.292H35.9357V7.44H37.6017V15.518C37.6017 15.7047 37.5924 15.8797 37.5737 16.043C37.5597 16.211 37.5317 16.3767 37.4897 16.54C37.3684 17.002 37.142 17.3823 36.8107 17.681C36.484 17.9797 36.0827 18.2013 35.6067 18.346C35.1307 18.4953 34.615 18.57 34.0597 18.57ZM33.8917 15.21C33.1964 15.21 32.5874 15.035 32.0647 14.685C31.542 14.335 31.1337 13.859 30.8397 13.257C30.5504 12.655 30.4057 11.976 30.4057 11.22C30.4057 10.45 30.5527 9.76633 30.8467 9.169C31.1454 8.567 31.563 8.09333 32.0997 7.748C32.6364 7.40267 33.2664 7.23 33.9897 7.23C34.7084 7.23 35.3127 7.405 35.8027 7.755C36.2927 8.105 36.6637 8.581 36.9157 9.183C37.1677 9.785 37.2937 10.464 37.2937 11.22C37.2937 11.976 37.1654 12.655 36.9087 13.257C36.6567 13.859 36.2787 14.335 35.7747 14.685C35.2707 15.035 34.643 15.21 33.8917 15.21ZM34.1997 13.516C34.6244 13.516 34.9627 13.4203 35.2147 13.229C35.4714 13.0377 35.6557 12.7693 35.7677 12.424C35.8797 12.0787 35.9357 11.6773 35.9357 11.22C35.9357 10.7627 35.8797 10.3613 35.7677 10.016C35.6557 9.67067 35.476 9.40233 35.2287 9.211C34.986 9.01967 34.6664 8.924 34.2697 8.924C33.845 8.924 33.495 9.029 33.2197 9.239C32.949 9.44433 32.7484 9.722 32.6177 10.072C32.487 10.4173 32.4217 10.8 32.4217 11.22C32.4217 11.6447 32.4847 12.032 32.6107 12.382C32.7367 12.7273 32.9304 13.0027 33.1917 13.208C33.453 13.4133 33.789 13.516 34.1997 13.516ZM43.076 15.21C42.3014 15.21 41.6177 15.0443 41.025 14.713C40.437 14.377 39.975 13.9173 39.639 13.334C39.3077 12.746 39.142 12.074 39.142 11.318C39.142 10.492 39.3054 9.77333 39.632 9.162C39.9587 8.55067 40.409 8.077 40.983 7.741C41.557 7.40033 42.2174 7.23 42.964 7.23C43.7574 7.23 44.4317 7.41667 44.987 7.79C45.5424 8.16333 45.953 8.68833 46.219 9.365C46.485 10.0417 46.5784 10.8373 46.499 11.752H44.616V11.052C44.616 10.282 44.4924 9.729 44.245 9.393C44.0024 9.05233 43.6034 8.882 43.048 8.882C42.3994 8.882 41.921 9.08033 41.613 9.477C41.3097 9.869 41.158 10.45 41.158 11.22C41.158 11.9247 41.3097 12.4707 41.613 12.858C41.921 13.2407 42.3714 13.432 42.964 13.432C43.3374 13.432 43.657 13.3503 43.923 13.187C44.189 13.0237 44.392 12.788 44.532 12.48L46.436 13.026C46.1514 13.7167 45.701 14.2533 45.085 14.636C44.4737 15.0187 43.804 15.21 43.076 15.21ZM40.57 11.752V10.338H45.582V11.752H40.57ZM21.6191 53.21C21.0777 53.21 20.6181 53.1073 20.2401 52.902C19.8667 52.692 19.5821 52.4143 19.3861 52.069C19.1947 51.719 19.0991 51.334 19.0991 50.914C19.0991 50.564 19.1527 50.2443 19.2601 49.955C19.3674 49.6657 19.5401 49.4113 19.7781 49.192C20.0207 48.968 20.3451 48.7813 20.7511 48.632C21.0311 48.5293 21.3647 48.4383 21.7521 48.359C22.1394 48.2797 22.5781 48.205 23.0681 48.135C23.5581 48.0603 24.0971 47.9787 24.6851 47.89L23.9991 48.268C23.9991 47.82 23.8917 47.491 23.6771 47.281C23.4624 47.071 23.1031 46.966 22.5991 46.966C22.3191 46.966 22.0274 47.0337 21.7241 47.169C21.4207 47.3043 21.2084 47.5447 21.0871 47.89L19.3651 47.344C19.5564 46.7187 19.9157 46.21 20.4431 45.818C20.9704 45.426 21.6891 45.23 22.5991 45.23C23.2664 45.23 23.8591 45.3327 24.3771 45.538C24.8951 45.7433 25.2871 46.098 25.5531 46.602C25.7024 46.882 25.7911 47.162 25.8191 47.442C25.8471 47.722 25.8611 48.0347 25.8611 48.38V53H24.1951V51.446L24.4331 51.768C24.0644 52.2767 23.6654 52.6453 23.2361 52.874C22.8114 53.098 22.2724 53.21 21.6191 53.21ZM22.0251 51.712C22.3751 51.712 22.6691 51.6513 22.9071 51.53C23.1497 51.404 23.3411 51.2617 23.4811 51.103C23.6257 50.9443 23.7237 50.8113 23.7751 50.704C23.8731 50.4987 23.9291 50.2607 23.9431 49.99C23.9617 49.7147 23.9711 49.486 23.9711 49.304L24.5311 49.444C23.9664 49.5373 23.5091 49.6167 23.1591 49.682C22.8091 49.7427 22.5267 49.7987 22.3121 49.85C22.0974 49.9013 21.9084 49.9573 21.7451 50.018C21.5584 50.0927 21.4067 50.1743 21.2901 50.263C21.1781 50.347 21.0941 50.4403 21.0381 50.543C20.9867 50.6457 20.9611 50.76 20.9611 50.886C20.9611 51.0587 21.0031 51.208 21.0871 51.334C21.1757 51.4553 21.2994 51.5487 21.4581 51.614C21.6167 51.6793 21.8057 51.712 22.0251 51.712ZM30.9152 56.57C30.4858 56.57 30.0775 56.5 29.6902 56.36C29.3028 56.2247 28.9552 56.0333 28.6472 55.786C28.3438 55.5433 28.0965 55.2587 27.9052 54.932L29.6692 54.078C29.7905 54.302 29.9632 54.4723 30.1872 54.589C30.4158 54.7057 30.6632 54.764 30.9292 54.764C31.2138 54.764 31.4822 54.715 31.7342 54.617C31.9862 54.5237 32.1868 54.3813 32.3362 54.19C32.4902 54.0033 32.5625 53.77 32.5532 53.49V51.292H32.7912V45.44H34.4572V53.518C34.4572 53.7047 34.4478 53.8797 34.4292 54.043C34.4152 54.211 34.3872 54.3767 34.3452 54.54C34.2238 55.002 33.9975 55.3823 33.6662 55.681C33.3395 55.9797 32.9382 56.2013 32.4622 56.346C31.9862 56.4953 31.4705 56.57 30.9152 56.57ZM30.7472 53.21C30.0518 53.21 29.4428 53.035 28.9202 52.685C28.3975 52.335 27.9892 51.859 27.6952 51.257C27.4058 50.655 27.2612 49.976 27.2612 49.22C27.2612 48.45 27.4082 47.7663 27.7022 47.169C28.0008 46.567 28.4185 46.0933 28.9552 45.748C29.4918 45.4027 30.1218 45.23 30.8452 45.23C31.5638 45.23 32.1682 45.405 32.6582 45.755C33.1482 46.105 33.5192 46.581 33.7712 47.183C34.0232 47.785 34.1492 48.464 34.1492 49.22C34.1492 49.976 34.0208 50.655 33.7642 51.257C33.5122 51.859 33.1342 52.335 32.6302 52.685C32.1262 53.035 31.4985 53.21 30.7472 53.21ZM31.0552 51.516C31.4798 51.516 31.8182 51.4203 32.0702 51.229C32.3268 51.0377 32.5112 50.7693 32.6232 50.424C32.7352 50.0787 32.7912 49.6773 32.7912 49.22C32.7912 48.7627 32.7352 48.3613 32.6232 48.016C32.5112 47.6707 32.3315 47.4023 32.0842 47.211C31.8415 47.0197 31.5218 46.924 31.1252 46.924C30.7005 46.924 30.3505 47.029 30.0752 47.239C29.8045 47.4443 29.6038 47.722 29.4732 48.072C29.3425 48.4173 29.2772 48.8 29.2772 49.22C29.2772 49.6447 29.3402 50.032 29.4662 50.382C29.5922 50.7273 29.7858 51.0027 30.0472 51.208C30.3085 51.4133 30.6445 51.516 31.0552 51.516ZM39.9315 53.21C39.1568 53.21 38.4732 53.0443 37.8805 52.713C37.2925 52.377 36.8305 51.9173 36.4945 51.334C36.1632 50.746 35.9975 50.074 35.9975 49.318C35.9975 48.492 36.1608 47.7733 36.4875 47.162C36.8142 46.5507 37.2645 46.077 37.8385 45.741C38.4125 45.4003 39.0728 45.23 39.8195 45.23C40.6128 45.23 41.2872 45.4167 41.8425 45.79C42.3978 46.1633 42.8085 46.6883 43.0745 47.365C43.3405 48.0417 43.4338 48.8373 43.3545 49.752H41.4715V49.052C41.4715 48.282 41.3478 47.729 41.1005 47.393C40.8578 47.0523 40.4588 46.882 39.9035 46.882C39.2548 46.882 38.7765 47.0803 38.4685 47.477C38.1652 47.869 38.0135 48.45 38.0135 49.22C38.0135 49.9247 38.1652 50.4707 38.4685 50.858C38.7765 51.2407 39.2268 51.432 39.8195 51.432C40.1928 51.432 40.5125 51.3503 40.7785 51.187C41.0445 51.0237 41.2475 50.788 41.3875 50.48L43.2915 51.026C43.0068 51.7167 42.5565 52.2533 41.9405 52.636C41.3292 53.0187 40.6595 53.21 39.9315 53.21ZM37.4255 49.752V48.338H42.4375V49.752H37.4255ZM103.003 72V67.898L99.5586 61.92H101.785L103.969 65.714L106.153 61.92H108.379L104.935 67.898V72H103.003ZM111.638 72.21C110.877 72.21 110.21 72.0397 109.636 71.699C109.062 71.3583 108.614 70.8893 108.292 70.292C107.975 69.69 107.816 68.9993 107.816 68.22C107.816 67.4313 107.979 66.7383 108.306 66.141C108.633 65.539 109.083 65.07 109.657 64.734C110.231 64.398 110.891 64.23 111.638 64.23C112.399 64.23 113.066 64.4003 113.64 64.741C114.219 65.0817 114.669 65.553 114.991 66.155C115.313 66.7523 115.474 67.4407 115.474 68.22C115.474 69.004 115.311 69.697 114.984 70.299C114.662 70.8963 114.212 71.3653 113.633 71.706C113.059 72.042 112.394 72.21 111.638 72.21ZM111.638 70.432C112.249 70.432 112.704 70.2267 113.003 69.816C113.306 69.4007 113.458 68.8687 113.458 68.22C113.458 67.548 113.304 67.0113 112.996 66.61C112.693 66.2087 112.24 66.008 111.638 66.008C111.223 66.008 110.882 66.1013 110.616 66.288C110.35 66.4747 110.152 66.7337 110.021 67.065C109.895 67.3963 109.832 67.7813 109.832 68.22C109.832 68.8967 109.984 69.4357 110.287 69.837C110.595 70.2337 111.045 70.432 111.638 70.432ZM119.827 72.224C119.235 72.224 118.752 72.1237 118.378 71.923C118.005 71.7223 117.713 71.468 117.503 71.16C117.298 70.852 117.151 70.5323 117.062 70.201C116.974 69.865 116.92 69.5593 116.901 69.284C116.883 69.0087 116.873 68.808 116.873 68.682V64.44H118.805V68.01C118.805 68.1827 118.815 68.4043 118.833 68.675C118.852 68.941 118.91 69.2093 119.008 69.48C119.106 69.7507 119.265 69.977 119.484 70.159C119.708 70.341 120.023 70.432 120.429 70.432C120.593 70.432 120.768 70.4063 120.954 70.355C121.141 70.3037 121.316 70.2057 121.479 70.061C121.643 69.9117 121.776 69.6947 121.878 69.41C121.986 69.1207 122.039 68.7427 122.039 68.276L123.131 68.794C123.131 69.3913 123.01 69.9513 122.767 70.474C122.525 70.9967 122.158 71.419 121.668 71.741C121.183 72.063 120.569 72.224 119.827 72.224ZM122.277 72V69.494H122.039V64.44H123.957V72H122.277ZM130.816 72.21C130.275 72.21 129.815 72.1073 129.437 71.902C129.064 71.692 128.779 71.4143 128.583 71.069C128.392 70.719 128.296 70.334 128.296 69.914C128.296 69.564 128.35 69.2443 128.457 68.955C128.565 68.6657 128.737 68.4113 128.975 68.192C129.218 67.968 129.542 67.7813 129.948 67.632C130.228 67.5293 130.562 67.4383 130.949 67.359C131.337 67.2797 131.775 67.205 132.265 67.135C132.755 67.0603 133.294 66.9787 133.882 66.89L133.196 67.268C133.196 66.82 133.089 66.491 132.874 66.281C132.66 66.071 132.3 65.966 131.796 65.966C131.516 65.966 131.225 66.0337 130.921 66.169C130.618 66.3043 130.406 66.5447 130.284 66.89L128.562 66.344C128.754 65.7187 129.113 65.21 129.64 64.818C130.168 64.426 130.886 64.23 131.796 64.23C132.464 64.23 133.056 64.3327 133.574 64.538C134.092 64.7433 134.484 65.098 134.75 65.602C134.9 65.882 134.988 66.162 135.016 66.442C135.044 66.722 135.058 67.0347 135.058 67.38V72H133.392V70.446L133.63 70.768C133.262 71.2767 132.863 71.6453 132.433 71.874C132.009 72.098 131.47 72.21 130.816 72.21ZM131.222 70.712C131.572 70.712 131.866 70.6513 132.104 70.53C132.347 70.404 132.538 70.2617 132.678 70.103C132.823 69.9443 132.921 69.8113 132.972 69.704C133.07 69.4987 133.126 69.2607 133.14 68.99C133.159 68.7147 133.168 68.486 133.168 68.304L133.728 68.444C133.164 68.5373 132.706 68.6167 132.356 68.682C132.006 68.7427 131.724 68.7987 131.509 68.85C131.295 68.9013 131.106 68.9573 130.942 69.018C130.756 69.0927 130.604 69.1743 130.487 69.263C130.375 69.347 130.291 69.4403 130.235 69.543C130.184 69.6457 130.158 69.76 130.158 69.886C130.158 70.0587 130.2 70.208 130.284 70.334C130.373 70.4553 130.497 70.5487 130.655 70.614C130.814 70.6793 131.003 70.712 131.222 70.712ZM136.878 72V64.44H138.558V66.288L138.376 66.05C138.474 65.7887 138.605 65.5507 138.768 65.336C138.932 65.1213 139.132 64.944 139.37 64.804C139.552 64.692 139.751 64.6057 139.965 64.545C140.18 64.4797 140.402 64.44 140.63 64.426C140.859 64.4073 141.088 64.412 141.316 64.44V66.218C141.106 66.1527 140.861 66.1317 140.581 66.155C140.306 66.1737 140.056 66.2367 139.832 66.344C139.608 66.4467 139.419 66.5843 139.265 66.757C139.111 66.925 138.995 67.1257 138.915 67.359C138.836 67.5877 138.796 67.8467 138.796 68.136V72H136.878ZM146.025 72.21C145.251 72.21 144.567 72.0443 143.974 71.713C143.386 71.377 142.924 70.9173 142.588 70.334C142.257 69.746 142.091 69.074 142.091 68.318C142.091 67.492 142.255 66.7733 142.581 66.162C142.908 65.5507 143.358 65.077 143.932 64.741C144.506 64.4003 145.167 64.23 145.913 64.23C146.707 64.23 147.381 64.4167 147.936 64.79C148.492 65.1633 148.902 65.6883 149.168 66.365C149.434 67.0417 149.528 67.8373 149.448 68.752H147.565V68.052C147.565 67.282 147.442 66.729 147.194 66.393C146.952 66.0523 146.553 65.882 145.997 65.882C145.349 65.882 144.87 66.0803 144.562 66.477C144.259 66.869 144.107 67.45 144.107 68.22C144.107 68.9247 144.259 69.4707 144.562 69.858C144.87 70.2407 145.321 70.432 145.913 70.432C146.287 70.432 146.606 70.3503 146.872 70.187C147.138 70.0237 147.341 69.788 147.481 69.48L149.385 70.026C149.101 70.7167 148.65 71.2533 148.034 71.636C147.423 72.0187 146.753 72.21 146.025 72.21ZM143.519 68.752V67.338H148.531V68.752H143.519ZM155.932 72.21C155.39 72.21 154.931 72.1073 154.553 71.902C154.179 71.692 153.895 71.4143 153.699 71.069C153.507 70.719 153.412 70.334 153.412 69.914C153.412 69.564 153.465 69.2443 153.573 68.955C153.68 68.6657 153.853 68.4113 154.091 68.192C154.333 67.968 154.658 67.7813 155.064 67.632C155.344 67.5293 155.677 67.4383 156.065 67.359C156.452 67.2797 156.891 67.205 157.381 67.135C157.871 67.0603 158.41 66.9787 158.998 66.89L158.312 67.268C158.312 66.82 158.204 66.491 157.99 66.281C157.775 66.071 157.416 65.966 156.912 65.966C156.632 65.966 156.34 66.0337 156.037 66.169C155.733 66.3043 155.521 66.5447 155.4 66.89L153.678 66.344C153.869 65.7187 154.228 65.21 154.756 64.818C155.283 64.426 156.002 64.23 156.912 64.23C157.579 64.23 158.172 64.3327 158.69 64.538C159.208 64.7433 159.6 65.098 159.866 65.602C160.015 65.882 160.104 66.162 160.132 66.442C160.16 66.722 160.174 67.0347 160.174 67.38V72H158.508V70.446L158.746 70.768C158.377 71.2767 157.978 71.6453 157.549 71.874C157.124 72.098 156.585 72.21 155.932 72.21ZM156.338 70.712C156.688 70.712 156.982 70.6513 157.22 70.53C157.462 70.404 157.654 70.2617 157.794 70.103C157.938 69.9443 158.036 69.8113 158.088 69.704C158.186 69.4987 158.242 69.2607 158.256 68.99C158.274 68.7147 158.284 68.486 158.284 68.304L158.844 68.444C158.279 68.5373 157.822 68.6167 157.472 68.682C157.122 68.7427 156.839 68.7987 156.625 68.85C156.41 68.9013 156.221 68.9573 156.058 69.018C155.871 69.0927 155.719 69.1743 155.603 69.263C155.491 69.347 155.407 69.4403 155.351 69.543C155.299 69.6457 155.274 69.76 155.274 69.886C155.274 70.0587 155.316 70.208 155.4 70.334C155.488 70.4553 155.612 70.5487 155.771 70.614C155.929 70.6793 156.118 70.712 156.338 70.712ZM167.146 72V68.43C167.146 68.2573 167.136 68.038 167.118 67.772C167.099 67.5013 167.041 67.2307 166.943 66.96C166.845 66.6893 166.684 66.463 166.46 66.281C166.24 66.099 165.928 66.008 165.522 66.008C165.358 66.008 165.183 66.0337 164.997 66.085C164.81 66.1363 164.635 66.2367 164.472 66.386C164.308 66.5307 164.173 66.7453 164.066 67.03C163.963 67.3147 163.912 67.6927 163.912 68.164L162.82 67.646C162.82 67.0487 162.941 66.4887 163.184 65.966C163.426 65.4433 163.79 65.021 164.276 64.699C164.766 64.377 165.382 64.216 166.124 64.216C166.716 64.216 167.199 64.3163 167.573 64.517C167.946 64.7177 168.235 64.972 168.441 65.28C168.651 65.588 168.8 65.91 168.889 66.246C168.977 66.5773 169.031 66.8807 169.05 67.156C169.068 67.4313 169.078 67.632 169.078 67.758V72H167.146ZM161.98 72V64.44H163.674V66.946H163.912V72H161.98ZM175.797 72.21C175.255 72.21 174.796 72.1073 174.418 71.902C174.044 71.692 173.76 71.4143 173.564 71.069C173.372 70.719 173.277 70.334 173.277 69.914C173.277 69.564 173.33 69.2443 173.438 68.955C173.545 68.6657 173.718 68.4113 173.956 68.192C174.198 67.968 174.523 67.7813 174.929 67.632C175.209 67.5293 175.542 67.4383 175.93 67.359C176.317 67.2797 176.756 67.205 177.246 67.135C177.736 67.0603 178.275 66.9787 178.863 66.89L178.177 67.268C178.177 66.82 178.069 66.491 177.855 66.281C177.64 66.071 177.281 65.966 176.777 65.966C176.497 65.966 176.205 66.0337 175.902 66.169C175.598 66.3043 175.386 66.5447 175.265 66.89L173.543 66.344C173.734 65.7187 174.093 65.21 174.621 64.818C175.148 64.426 175.867 64.23 176.777 64.23C177.444 64.23 178.037 64.3327 178.555 64.538C179.073 64.7433 179.465 65.098 179.731 65.602C179.88 65.882 179.969 66.162 179.997 66.442C180.025 66.722 180.039 67.0347 180.039 67.38V72H178.373V70.446L178.611 70.768C178.242 71.2767 177.843 71.6453 177.414 71.874C176.989 72.098 176.45 72.21 175.797 72.21ZM176.203 70.712C176.553 70.712 176.847 70.6513 177.085 70.53C177.327 70.404 177.519 70.2617 177.659 70.103C177.803 69.9443 177.901 69.8113 177.953 69.704C178.051 69.4987 178.107 69.2607 178.121 68.99C178.139 68.7147 178.149 68.486 178.149 68.304L178.709 68.444C178.144 68.5373 177.687 68.6167 177.337 68.682C176.987 68.7427 176.704 68.7987 176.49 68.85C176.275 68.9013 176.086 68.9573 175.923 69.018C175.736 69.0927 175.584 69.1743 175.468 69.263C175.356 69.347 175.272 69.4403 175.216 69.543C175.164 69.6457 175.139 69.76 175.139 69.886C175.139 70.0587 175.181 70.208 175.265 70.334C175.353 70.4553 175.477 70.5487 175.636 70.614C175.794 70.6793 175.983 70.712 176.203 70.712ZM184.925 72.21C184.23 72.21 183.621 72.035 183.098 71.685C182.575 71.335 182.167 70.859 181.873 70.257C181.584 69.655 181.439 68.976 181.439 68.22C181.439 67.45 181.586 66.7663 181.88 66.169C182.179 65.567 182.596 65.0933 183.133 64.748C183.67 64.4027 184.3 64.23 185.023 64.23C185.742 64.23 186.346 64.405 186.836 64.755C187.326 65.105 187.697 65.581 187.949 66.183C188.201 66.785 188.327 67.464 188.327 68.22C188.327 68.976 188.199 69.655 187.942 70.257C187.69 70.859 187.312 71.335 186.808 71.685C186.304 72.035 185.676 72.21 184.925 72.21ZM185.233 70.516C185.658 70.516 185.996 70.4203 186.248 70.229C186.505 70.0377 186.689 69.7693 186.801 69.424C186.913 69.0787 186.969 68.6773 186.969 68.22C186.969 67.7627 186.913 67.3613 186.801 67.016C186.689 66.6707 186.509 66.4023 186.262 66.211C186.019 66.0197 185.7 65.924 185.303 65.924C184.878 65.924 184.528 66.029 184.253 66.239C183.982 66.4443 183.782 66.722 183.651 67.072C183.52 67.4173 183.455 67.8 183.455 68.22C183.455 68.6447 183.518 69.032 183.644 69.382C183.77 69.7273 183.964 70.0027 184.225 70.208C184.486 70.4133 184.822 70.516 185.233 70.516ZM186.969 72V66.82H186.731V61.92H188.649V72H186.969ZM193.423 72.224C192.83 72.224 192.347 72.1237 191.974 71.923C191.601 71.7223 191.309 71.468 191.099 71.16C190.894 70.852 190.747 70.5323 190.658 70.201C190.569 69.865 190.516 69.5593 190.497 69.284C190.478 69.0087 190.469 68.808 190.469 68.682V64.44H192.401V68.01C192.401 68.1827 192.41 68.4043 192.429 68.675C192.448 68.941 192.506 69.2093 192.604 69.48C192.702 69.7507 192.861 69.977 193.08 70.159C193.304 70.341 193.619 70.432 194.025 70.432C194.188 70.432 194.363 70.4063 194.55 70.355C194.737 70.3037 194.912 70.2057 195.075 70.061C195.238 69.9117 195.371 69.6947 195.474 69.41C195.581 69.1207 195.635 68.7427 195.635 68.276L196.727 68.794C196.727 69.3913 196.606 69.9513 196.363 70.474C196.12 70.9967 195.754 71.419 195.264 71.741C194.779 72.063 194.165 72.224 193.423 72.224ZM195.873 72V69.494H195.635V64.44H197.553V72H195.873ZM199.649 72V61.71H201.553V72H199.649ZM208.188 72C207.665 72.098 207.152 72.14 206.648 72.126C206.149 72.1167 205.701 72.0303 205.304 71.867C204.912 71.699 204.613 71.4307 204.408 71.062C204.221 70.7167 204.123 70.3667 204.114 70.012C204.105 69.6527 204.1 69.2467 204.1 68.794V62.34H206.004V68.682C206.004 68.976 206.006 69.242 206.011 69.48C206.02 69.7133 206.069 69.9 206.158 70.04C206.326 70.306 206.594 70.4507 206.963 70.474C207.332 70.4973 207.74 70.4787 208.188 70.418V72ZM202.812 65.91V64.44H208.188V65.91H202.812ZM210.181 72V70.096H212.085V72H210.181Z" fill="#FFD966"/>
<path d="M65.9351 15V6.992L64.0451 8.154V6.054L65.9351 4.92H67.8811V15H65.9351ZM73.9165 15.21C73.2352 15.21 72.6285 15.0723 72.0965 14.797C71.5692 14.517 71.1538 14.1343 70.8505 13.649C70.5518 13.159 70.4025 12.6013 70.4025 11.976C70.4025 11.444 70.5215 10.9423 70.7595 10.471C71.0022 9.99967 71.3498 9.61467 71.8025 9.316L71.7605 9.904C71.4198 9.57267 71.1515 9.22267 70.9555 8.854C70.7642 8.48533 70.6685 8.07 70.6685 7.608C70.6685 7.02467 70.8062 6.516 71.0815 6.082C71.3615 5.648 71.7442 5.312 72.2295 5.074C72.7195 4.83133 73.2818 4.71 73.9165 4.71C74.5512 4.71 75.1112 4.83133 75.5965 5.074C76.0865 5.312 76.4692 5.648 76.7445 6.082C77.0245 6.516 77.1645 7.02467 77.1645 7.608C77.1645 8.07 77.0735 8.48533 76.8915 8.854C76.7095 9.218 76.4318 9.57267 76.0585 9.918V9.33C76.5018 9.61 76.8425 9.988 77.0805 10.464C77.3232 10.94 77.4445 11.444 77.4445 11.976C77.4445 12.6013 77.2928 13.159 76.9895 13.649C76.6862 14.1343 76.2685 14.517 75.7365 14.797C75.2045 15.0723 74.5978 15.21 73.9165 15.21ZM73.9165 13.418C74.3645 13.418 74.7285 13.2967 75.0085 13.054C75.2885 12.8113 75.4285 12.452 75.4285 11.976C75.4285 11.5047 75.2885 11.1453 75.0085 10.898C74.7285 10.646 74.3645 10.52 73.9165 10.52C73.4685 10.52 73.1068 10.646 72.8315 10.898C72.5562 11.1453 72.4185 11.5047 72.4185 11.976C72.4185 12.452 72.5562 12.8113 72.8315 13.054C73.1068 13.2967 73.4685 13.418 73.9165 13.418ZM73.9165 8.714C74.2805 8.714 74.5768 8.62533 74.8055 8.448C75.0342 8.266 75.1485 7.986 75.1485 7.608C75.1485 7.23 75.0342 6.95 74.8055 6.768C74.5768 6.58133 74.2805 6.488 73.9165 6.488C73.5525 6.488 73.2562 6.58133 73.0275 6.768C72.7988 6.95 72.6845 7.23 72.6845 7.608C72.6845 7.986 72.7988 8.266 73.0275 8.448C73.2562 8.62533 73.5525 8.714 73.9165 8.714ZM71.814 53V44.992L69.924 46.154V44.054L71.814 42.92H73.76V53H71.814ZM79.7954 53.21C79.1141 53.21 78.5074 53.0723 77.9754 52.797C77.4481 52.517 77.0327 52.1343 76.7294 51.649C76.4307 51.159 76.2814 50.6013 76.2814 49.976C76.2814 49.444 76.4004 48.9423 76.6384 48.471C76.8811 47.9997 77.2287 47.6147 77.6814 47.316L77.6394 47.904C77.2987 47.5727 77.0304 47.2227 76.8344 46.854C76.6431 46.4853 76.5474 46.07 76.5474 45.608C76.5474 45.0247 76.6851 44.516 76.9604 44.082C77.2404 43.648 77.6231 43.312 78.1084 43.074C78.5984 42.8313 79.1607 42.71 79.7954 42.71C80.4301 42.71 80.9901 42.8313 81.4754 43.074C81.9654 43.312 82.3481 43.648 82.6234 44.082C82.9034 44.516 83.0434 45.0247 83.0434 45.608C83.0434 46.07 82.9524 46.4853 82.7704 46.854C82.5884 47.218 82.3107 47.5727 81.9374 47.918V47.33C82.3807 47.61 82.7214 47.988 82.9594 48.464C83.2021 48.94 83.3234 49.444 83.3234 49.976C83.3234 50.6013 83.1717 51.159 82.8684 51.649C82.5651 52.1343 82.1474 52.517 81.6154 52.797C81.0834 53.0723 80.4767 53.21 79.7954 53.21ZM79.7954 51.418C80.2434 51.418 80.6074 51.2967 80.8874 51.054C81.1674 50.8113 81.3074 50.452 81.3074 49.976C81.3074 49.5047 81.1674 49.1453 80.8874 48.898C80.6074 48.646 80.2434 48.52 79.7954 48.52C79.3474 48.52 78.9857 48.646 78.7104 48.898C78.4351 49.1453 78.2974 49.5047 78.2974 49.976C78.2974 50.452 78.4351 50.8113 78.7104 51.054C78.9857 51.2967 79.3474 51.418 79.7954 51.418ZM79.7954 46.714C80.1594 46.714 80.4557 46.6253 80.6844 46.448C80.9131 46.266 81.0274 45.986 81.0274 45.608C81.0274 45.23 80.9131 44.95 80.6844 44.768C80.4557 44.5813 80.1594 44.488 79.7954 44.488C79.4314 44.488 79.1351 44.5813 78.9064 44.768C78.6777 44.95 78.5634 45.23 78.5634 45.608C78.5634 45.986 78.6777 46.266 78.9064 46.448C79.1351 46.6253 79.4314 46.714 79.7954 46.714Z" fill="#FF378B"/>
<rect x="1" y="120" width="256" height="79" rx="7" fill="#282525" stroke="#777777" stroke-width="2"/>
<path d="M26.4535 151.21C25.4455 151.21 24.5752 150.991 23.8425 150.552C23.1145 150.113 22.5522 149.5 22.1555 148.711C21.7635 147.922 21.5675 147.005 21.5675 145.96C21.5675 144.915 21.7635 143.998 22.1555 143.209C22.5522 142.42 23.1145 141.807 23.8425 141.368C24.5752 140.929 25.4455 140.71 26.4535 140.71C27.6109 140.71 28.5815 140.997 29.3655 141.571C30.1542 142.145 30.7095 142.922 31.0315 143.902L29.1135 144.434C28.9269 143.823 28.6119 143.349 28.1685 143.013C27.7252 142.672 27.1535 142.502 26.4535 142.502C25.8142 142.502 25.2799 142.644 24.8505 142.929C24.4259 143.214 24.1062 143.615 23.8915 144.133C23.6769 144.651 23.5695 145.26 23.5695 145.96C23.5695 146.66 23.6769 147.269 23.8915 147.787C24.1062 148.305 24.4259 148.706 24.8505 148.991C25.2799 149.276 25.8142 149.418 26.4535 149.418C27.1535 149.418 27.7252 149.248 28.1685 148.907C28.6119 148.566 28.9269 148.093 29.1135 147.486L31.0315 148.018C30.7095 148.998 30.1542 149.775 29.3655 150.349C28.5815 150.923 27.6109 151.21 26.4535 151.21ZM35.9748 151.21C35.2142 151.21 34.5468 151.04 33.9728 150.699C33.3988 150.358 32.9508 149.889 32.6288 149.292C32.3115 148.69 32.1528 147.999 32.1528 147.22C32.1528 146.431 32.3162 145.738 32.6428 145.141C32.9695 144.539 33.4198 144.07 33.9938 143.734C34.5678 143.398 35.2282 143.23 35.9748 143.23C36.7355 143.23 37.4028 143.4 37.9768 143.741C38.5555 144.082 39.0058 144.553 39.3278 145.155C39.6498 145.752 39.8108 146.441 39.8108 147.22C39.8108 148.004 39.6475 148.697 39.3208 149.299C38.9988 149.896 38.5485 150.365 37.9698 150.706C37.3958 151.042 36.7308 151.21 35.9748 151.21ZM35.9748 149.432C36.5862 149.432 37.0412 149.227 37.3398 148.816C37.6432 148.401 37.7948 147.869 37.7948 147.22C37.7948 146.548 37.6408 146.011 37.3328 145.61C37.0295 145.209 36.5768 145.008 35.9748 145.008C35.5595 145.008 35.2188 145.101 34.9528 145.288C34.6868 145.475 34.4885 145.734 34.3578 146.065C34.2318 146.396 34.1688 146.781 34.1688 147.22C34.1688 147.897 34.3205 148.436 34.6238 148.837C34.9318 149.234 35.3822 149.432 35.9748 149.432ZM46.5022 151V147.43C46.5022 147.257 46.4928 147.038 46.4742 146.772C46.4555 146.501 46.3972 146.231 46.2992 145.96C46.2012 145.689 46.0402 145.463 45.8162 145.281C45.5968 145.099 45.2842 145.008 44.8782 145.008C44.7148 145.008 44.5398 145.034 44.3532 145.085C44.1665 145.136 43.9915 145.237 43.8282 145.386C43.6648 145.531 43.5295 145.745 43.4222 146.03C43.3195 146.315 43.2682 146.693 43.2682 147.164L42.1762 146.646C42.1762 146.049 42.2975 145.489 42.5402 144.966C42.7828 144.443 43.1468 144.021 43.6322 143.699C44.1222 143.377 44.7382 143.216 45.4802 143.216C46.0728 143.216 46.5558 143.316 46.9292 143.517C47.3025 143.718 47.5918 143.972 47.7972 144.28C48.0072 144.588 48.1565 144.91 48.2452 145.246C48.3338 145.577 48.3875 145.881 48.4062 146.156C48.4248 146.431 48.4342 146.632 48.4342 146.758V151H46.5022ZM41.3362 151V143.44H43.0302V145.946H43.2682V151H41.3362ZM53.2046 151.21C52.2526 151.21 51.4826 150.995 50.8946 150.566C50.3112 150.132 49.9566 149.521 49.8306 148.732L51.7766 148.438C51.8559 148.793 52.0309 149.07 52.3016 149.271C52.5769 149.472 52.9246 149.572 53.3446 149.572C53.6899 149.572 53.9559 149.507 54.1426 149.376C54.3292 149.241 54.4226 149.054 54.4226 148.816C54.4226 148.667 54.3852 148.548 54.3106 148.459C54.2359 148.366 54.0679 148.275 53.8066 148.186C53.5499 148.097 53.1486 147.981 52.6026 147.836C51.9866 147.677 51.4942 147.5 51.1256 147.304C50.7569 147.108 50.4909 146.875 50.3276 146.604C50.1642 146.329 50.0826 145.997 50.0826 145.61C50.0826 145.125 50.2062 144.705 50.4536 144.35C50.7009 143.991 51.0486 143.715 51.4966 143.524C51.9492 143.328 52.4812 143.23 53.0926 143.23C53.6852 143.23 54.2102 143.321 54.6676 143.503C55.1249 143.685 55.4936 143.944 55.7736 144.28C56.0582 144.616 56.2332 145.013 56.2986 145.47L54.3526 145.82C54.3199 145.54 54.1986 145.318 53.9886 145.155C53.7786 144.992 53.4939 144.896 53.1346 144.868C52.7846 144.845 52.5022 144.891 52.2876 145.008C52.0776 145.125 51.9726 145.293 51.9726 145.512C51.9726 145.643 52.0169 145.752 52.1056 145.841C52.1989 145.93 52.3879 146.021 52.6726 146.114C52.9619 146.207 53.4006 146.329 53.9886 146.478C54.5626 146.627 55.0222 146.802 55.3676 147.003C55.7176 147.199 55.9719 147.437 56.1306 147.717C56.2892 147.992 56.3686 148.326 56.3686 148.718C56.3686 149.493 56.0886 150.102 55.5286 150.545C54.9686 150.988 54.1939 151.21 53.2046 151.21ZM61.3088 151.21C60.5482 151.21 59.8808 151.04 59.3068 150.699C58.7328 150.358 58.2848 149.889 57.9628 149.292C57.6455 148.69 57.4868 147.999 57.4868 147.22C57.4868 146.431 57.6502 145.738 57.9768 145.141C58.3035 144.539 58.7538 144.07 59.3278 143.734C59.9018 143.398 60.5622 143.23 61.3088 143.23C62.0695 143.23 62.7368 143.4 63.3108 143.741C63.8895 144.082 64.3398 144.553 64.6618 145.155C64.9838 145.752 65.1448 146.441 65.1448 147.22C65.1448 148.004 64.9815 148.697 64.6548 149.299C64.3328 149.896 63.8825 150.365 63.3038 150.706C62.7298 151.042 62.0648 151.21 61.3088 151.21ZM61.3088 149.432C61.9202 149.432 62.3752 149.227 62.6738 148.816C62.9772 148.401 63.1288 147.869 63.1288 147.22C63.1288 146.548 62.9748 146.011 62.6668 145.61C62.3635 145.209 61.9108 145.008 61.3088 145.008C60.8935 145.008 60.5528 145.101 60.2868 145.288C60.0208 145.475 59.8225 145.734 59.6918 146.065C59.5658 146.396 59.5028 146.781 59.5028 147.22C59.5028 147.897 59.6545 148.436 59.9578 148.837C60.2658 149.234 60.7162 149.432 61.3088 149.432ZM66.8242 151V140.71H68.7282V151H66.8242ZM74.3407 151.21C73.5661 151.21 72.8824 151.044 72.2897 150.713C71.7017 150.377 71.2397 149.917 70.9037 149.334C70.5724 148.746 70.4067 148.074 70.4067 147.318C70.4067 146.492 70.5701 145.773 70.8967 145.162C71.2234 144.551 71.6737 144.077 72.2477 143.741C72.8217 143.4 73.4821 143.23 74.2287 143.23C75.0221 143.23 75.6964 143.417 76.2517 143.79C76.8071 144.163 77.2177 144.688 77.4837 145.365C77.7497 146.042 77.8431 146.837 77.7637 147.752H75.8807V147.052C75.8807 146.282 75.7571 145.729 75.5097 145.393C75.2671 145.052 74.8681 144.882 74.3127 144.882C73.6641 144.882 73.1857 145.08 72.8777 145.477C72.5744 145.869 72.4227 146.45 72.4227 147.22C72.4227 147.925 72.5744 148.471 72.8777 148.858C73.1857 149.241 73.6361 149.432 74.2287 149.432C74.6021 149.432 74.9217 149.35 75.1877 149.187C75.4537 149.024 75.6567 148.788 75.7967 148.48L77.7007 149.026C77.4161 149.717 76.9657 150.253 76.3497 150.636C75.7384 151.019 75.0687 151.21 74.3407 151.21ZM71.8347 147.752V146.338H76.8467V147.752H71.8347Z" fill="white"/>
<path d="M24.5425 178V173.807L21.1475 167.92H22.5965L25.1725 172.379L27.7415 167.92H29.1905L25.8025 173.807V178H24.5425ZM32.2655 178.21C31.5142 178.21 30.8655 178.04 30.3195 177.699C29.7782 177.358 29.3605 176.887 29.0665 176.285C28.7725 175.683 28.6255 174.992 28.6255 174.213C28.6255 173.42 28.7748 172.724 29.0735 172.127C29.3722 171.53 29.7945 171.065 30.3405 170.734C30.8865 170.398 31.5282 170.23 32.2655 170.23C33.0215 170.23 33.6725 170.4 34.2185 170.741C34.7645 171.077 35.1822 171.546 35.4715 172.148C35.7655 172.745 35.9125 173.434 35.9125 174.213C35.9125 175.002 35.7655 175.697 35.4715 176.299C35.1775 176.896 34.7575 177.365 34.2115 177.706C33.6655 178.042 33.0168 178.21 32.2655 178.21ZM32.2655 177.027C33.0495 177.027 33.6328 176.766 34.0155 176.243C34.3982 175.72 34.5895 175.044 34.5895 174.213C34.5895 173.359 34.3958 172.68 34.0085 172.176C33.6212 171.667 33.0402 171.413 32.2655 171.413C31.7382 171.413 31.3042 171.532 30.9635 171.77C30.6228 172.008 30.3685 172.337 30.2005 172.757C30.0325 173.177 29.9485 173.662 29.9485 174.213C29.9485 175.062 30.1445 175.744 30.5365 176.257C30.9285 176.77 31.5048 177.027 32.2655 177.027ZM40.3237 178.196C39.8384 178.196 39.4207 178.119 39.0707 177.965C38.7254 177.811 38.4384 177.606 38.2097 177.349C37.981 177.092 37.8014 176.808 37.6707 176.495C37.54 176.182 37.4467 175.863 37.3907 175.536C37.3394 175.209 37.3137 174.904 37.3137 174.619V170.44H38.5737V174.227C38.5737 174.582 38.6064 174.925 38.6717 175.256C38.737 175.587 38.8467 175.886 39.0007 176.152C39.1594 176.418 39.3694 176.628 39.6307 176.782C39.8967 176.936 40.228 177.013 40.6247 177.013C40.9374 177.013 41.222 176.959 41.4787 176.852C41.7354 176.745 41.9547 176.586 42.1367 176.376C42.3187 176.161 42.4587 175.891 42.5567 175.564C42.6547 175.237 42.7037 174.857 42.7037 174.423L43.5227 174.675C43.5227 175.403 43.3897 176.031 43.1237 176.558C42.8624 177.085 42.4914 177.491 42.0107 177.776C41.5347 178.056 40.9724 178.196 40.3237 178.196ZM42.8437 178V175.977H42.7037V170.44H43.9567V178H42.8437ZM50.8683 178.21C50.3037 178.21 49.83 178.107 49.4473 177.902C49.0693 177.692 48.7823 177.417 48.5863 177.076C48.395 176.735 48.2993 176.362 48.2993 175.956C48.2993 175.559 48.374 175.216 48.5233 174.927C48.6773 174.633 48.892 174.39 49.1673 174.199C49.4427 174.003 49.7717 173.849 50.1543 173.737C50.5137 173.639 50.915 173.555 51.3583 173.485C51.8063 173.41 52.259 173.343 52.7163 173.282C53.1737 173.221 53.6007 173.163 53.9973 173.107L53.5493 173.366C53.5633 172.694 53.428 172.197 53.1433 171.875C52.8633 171.553 52.378 171.392 51.6873 171.392C51.23 171.392 50.8287 171.497 50.4833 171.707C50.1427 171.912 49.9023 172.248 49.7623 172.715L48.5793 172.358C48.7613 171.695 49.1137 171.175 49.6363 170.797C50.159 170.419 50.8473 170.23 51.7013 170.23C52.3873 170.23 52.9753 170.354 53.4653 170.601C53.96 170.844 54.3147 171.212 54.5293 171.707C54.6367 171.94 54.7043 172.195 54.7323 172.47C54.7603 172.741 54.7743 173.025 54.7743 173.324V178H53.6683V176.187L53.9273 176.355C53.6427 176.966 53.2437 177.428 52.7303 177.741C52.2217 178.054 51.601 178.21 50.8683 178.21ZM51.0573 177.167C51.5053 177.167 51.8927 177.088 52.2193 176.929C52.5507 176.766 52.8167 176.553 53.0173 176.292C53.218 176.026 53.3487 175.737 53.4093 175.424C53.4793 175.191 53.5167 174.932 53.5213 174.647C53.5307 174.358 53.5353 174.136 53.5353 173.982L53.9693 174.171C53.5633 174.227 53.1643 174.281 52.7723 174.332C52.3803 174.383 52.0093 174.439 51.6593 174.5C51.3093 174.556 50.9943 174.624 50.7143 174.703C50.509 174.768 50.3153 174.852 50.1333 174.955C49.956 175.058 49.8113 175.191 49.6993 175.354C49.592 175.513 49.5383 175.711 49.5383 175.949C49.5383 176.154 49.5897 176.35 49.6923 176.537C49.7997 176.724 49.963 176.875 50.1823 176.992C50.4063 177.109 50.698 177.167 51.0573 177.167ZM56.5943 178V170.44H57.7073V172.267L57.5253 172.029C57.614 171.796 57.7283 171.581 57.8683 171.385C58.013 171.189 58.174 171.028 58.3513 170.902C58.5473 170.743 58.769 170.622 59.0163 170.538C59.2637 170.454 59.5157 170.405 59.7723 170.391C60.029 170.372 60.2693 170.389 60.4933 170.44V171.609C60.232 171.539 59.945 171.52 59.6323 171.553C59.3197 171.586 59.0303 171.7 58.7643 171.896C58.5217 172.069 58.3327 172.279 58.1973 172.526C58.0667 172.773 57.9757 173.042 57.9243 173.331C57.873 173.616 57.8473 173.907 57.8473 174.206V178H56.5943ZM64.9563 178.21C64.2143 178.21 63.5656 178.047 63.0103 177.72C62.4596 177.389 62.0303 176.929 61.7223 176.341C61.4143 175.748 61.2603 175.058 61.2603 174.269C61.2603 173.443 61.4119 172.729 61.7153 172.127C62.0186 171.52 62.4409 171.054 62.9823 170.727C63.5283 170.396 64.1676 170.23 64.9003 170.23C65.6609 170.23 66.3073 170.405 66.8393 170.755C67.3759 171.105 67.7773 171.604 68.0433 172.253C68.3139 172.902 68.4306 173.674 68.3933 174.57H67.1333V174.122C67.1193 173.193 66.9303 172.5 66.5663 172.043C66.2023 171.581 65.6609 171.35 64.9423 171.35C64.1723 171.35 63.5866 171.597 63.1853 172.092C62.7839 172.587 62.5833 173.296 62.5833 174.22C62.5833 175.111 62.7839 175.802 63.1853 176.292C63.5866 176.782 64.1583 177.027 64.9003 177.027C65.3996 177.027 65.8336 176.913 66.2023 176.684C66.5709 176.455 66.8603 176.126 67.0703 175.697L68.2673 176.11C67.9733 176.777 67.5299 177.295 66.9373 177.664C66.3493 178.028 65.6889 178.21 64.9563 178.21ZM62.1633 174.57V173.569H67.7493V174.57H62.1633ZM74.9035 178.21C74.3388 178.21 73.8651 178.107 73.4825 177.902C73.1045 177.692 72.8175 177.417 72.6215 177.076C72.4301 176.735 72.3345 176.362 72.3345 175.956C72.3345 175.559 72.4091 175.216 72.5585 174.927C72.7125 174.633 72.9271 174.39 73.2025 174.199C73.4778 174.003 73.8068 173.849 74.1895 173.737C74.5488 173.639 74.9501 173.555 75.3935 173.485C75.8415 173.41 76.2941 173.343 76.7515 173.282C77.2088 173.221 77.6358 173.163 78.0325 173.107L77.5845 173.366C77.5985 172.694 77.4631 172.197 77.1785 171.875C76.8985 171.553 76.4131 171.392 75.7225 171.392C75.2651 171.392 74.8638 171.497 74.5185 171.707C74.1778 171.912 73.9375 172.248 73.7975 172.715L72.6145 172.358C72.7965 171.695 73.1488 171.175 73.6715 170.797C74.1941 170.419 74.8825 170.23 75.7365 170.23C76.4225 170.23 77.0105 170.354 77.5005 170.601C77.9951 170.844 78.3498 171.212 78.5645 171.707C78.6718 171.94 78.7395 172.195 78.7675 172.47C78.7955 172.741 78.8095 173.025 78.8095 173.324V178H77.7035V176.187L77.9625 176.355C77.6778 176.966 77.2788 177.428 76.7655 177.741C76.2568 178.054 75.6361 178.21 74.9035 178.21ZM75.0925 177.167C75.5405 177.167 75.9278 177.088 76.2545 176.929C76.5858 176.766 76.8518 176.553 77.0525 176.292C77.2531 176.026 77.3838 175.737 77.4445 175.424C77.5145 175.191 77.5518 174.932 77.5565 174.647C77.5658 174.358 77.5705 174.136 77.5705 173.982L78.0045 174.171C77.5985 174.227 77.1995 174.281 76.8075 174.332C76.4155 174.383 76.0445 174.439 75.6945 174.5C75.3445 174.556 75.0295 174.624 74.7495 174.703C74.5441 174.768 74.3505 174.852 74.1685 174.955C73.9911 175.058 73.8465 175.191 73.7345 175.354C73.6271 175.513 73.5735 175.711 73.5735 175.949C73.5735 176.154 73.6248 176.35 73.7275 176.537C73.8348 176.724 73.9981 176.875 74.2175 176.992C74.4415 177.109 74.7331 177.167 75.0925 177.167ZM86.0125 178V174.213C86.0125 173.854 85.9798 173.508 85.9145 173.177C85.8538 172.846 85.7441 172.549 85.5855 172.288C85.4315 172.022 85.2215 171.812 84.9555 171.658C84.6941 171.504 84.3628 171.427 83.9615 171.427C83.6488 171.427 83.3641 171.481 83.1075 171.588C82.8555 171.691 82.6385 171.849 82.4565 172.064C82.2745 172.279 82.1321 172.549 82.0295 172.876C81.9315 173.198 81.8825 173.578 81.8825 174.017L81.0635 173.765C81.0635 173.032 81.1941 172.405 81.4555 171.882C81.7215 171.355 82.0925 170.951 82.5685 170.671C83.0491 170.386 83.6138 170.244 84.2625 170.244C84.7525 170.244 85.1701 170.321 85.5155 170.475C85.8608 170.629 86.1478 170.834 86.3765 171.091C86.6051 171.343 86.7848 171.628 86.9155 171.945C87.0461 172.258 87.1371 172.577 87.1885 172.904C87.2445 173.226 87.2725 173.532 87.2725 173.821V178H86.0125ZM80.6225 178V170.44H81.7425V172.463H81.8825V178H80.6225ZM94.0441 178.21C93.4794 178.21 93.0058 178.107 92.6231 177.902C92.2451 177.692 91.9581 177.417 91.7621 177.076C91.5708 176.735 91.4751 176.362 91.4751 175.956C91.4751 175.559 91.5498 175.216 91.6991 174.927C91.8531 174.633 92.0678 174.39 92.3431 174.199C92.6184 174.003 92.9474 173.849 93.3301 173.737C93.6894 173.639 94.0908 173.555 94.5341 173.485C94.9821 173.41 95.4348 173.343 95.8921 173.282C96.3494 173.221 96.7764 173.163 97.1731 173.107L96.7251 173.366C96.7391 172.694 96.6038 172.197 96.3191 171.875C96.0391 171.553 95.5538 171.392 94.8631 171.392C94.4058 171.392 94.0044 171.497 93.6591 171.707C93.3184 171.912 93.0781 172.248 92.9381 172.715L91.7551 172.358C91.9371 171.695 92.2894 171.175 92.8121 170.797C93.3348 170.419 94.0231 170.23 94.8771 170.23C95.5631 170.23 96.1511 170.354 96.6411 170.601C97.1358 170.844 97.4904 171.212 97.7051 171.707C97.8124 171.94 97.8801 172.195 97.9081 172.47C97.9361 172.741 97.9501 173.025 97.9501 173.324V178H96.8441V176.187L97.1031 176.355C96.8184 176.966 96.4194 177.428 95.9061 177.741C95.3974 178.054 94.7768 178.21 94.0441 178.21ZM94.2331 177.167C94.6811 177.167 95.0684 177.088 95.3951 176.929C95.7264 176.766 95.9924 176.553 96.1931 176.292C96.3938 176.026 96.5244 175.737 96.5851 175.424C96.6551 175.191 96.6924 174.932 96.6971 174.647C96.7064 174.358 96.7111 174.136 96.7111 173.982L97.1451 174.171C96.7391 174.227 96.3401 174.281 95.9481 174.332C95.5561 174.383 95.1851 174.439 94.8351 174.5C94.4851 174.556 94.1701 174.624 93.8901 174.703C93.6848 174.768 93.4911 174.852 93.3091 174.955C93.1318 175.058 92.9871 175.191 92.8751 175.354C92.7678 175.513 92.7141 175.711 92.7141 175.949C92.7141 176.154 92.7654 176.35 92.8681 176.537C92.9754 176.724 93.1388 176.875 93.3581 176.992C93.5821 177.109 93.8738 177.167 94.2331 177.167ZM102.738 178.21C102.033 178.21 101.429 178.035 100.925 177.685C100.421 177.33 100.031 176.852 99.7561 176.25C99.4854 175.648 99.3501 174.969 99.3501 174.213C99.3501 173.457 99.4854 172.778 99.7561 172.176C100.031 171.574 100.421 171.1 100.925 170.755C101.429 170.405 102.031 170.23 102.731 170.23C103.445 170.23 104.045 170.403 104.53 170.748C105.015 171.093 105.382 171.567 105.629 172.169C105.881 172.771 106.007 173.452 106.007 174.213C106.007 174.964 105.881 175.643 105.629 176.25C105.382 176.852 105.015 177.33 104.53 177.685C104.045 178.035 103.447 178.21 102.738 178.21ZM102.892 177.069C103.401 177.069 103.818 176.948 104.145 176.705C104.472 176.458 104.712 176.119 104.866 175.69C105.025 175.256 105.104 174.764 105.104 174.213C105.104 173.653 105.025 173.161 104.866 172.736C104.712 172.307 104.474 171.973 104.152 171.735C103.83 171.492 103.422 171.371 102.927 171.371C102.414 171.371 101.989 171.497 101.653 171.749C101.322 172.001 101.074 172.342 100.911 172.771C100.752 173.2 100.673 173.681 100.673 174.213C100.673 174.75 100.755 175.235 100.918 175.669C101.081 176.098 101.326 176.439 101.653 176.691C101.984 176.943 102.397 177.069 102.892 177.069ZM105.104 178V172.435H104.964V167.92H106.217V178H105.104ZM111.048 178.196C110.563 178.196 110.145 178.119 109.795 177.965C109.45 177.811 109.163 177.606 108.934 177.349C108.706 177.092 108.526 176.808 108.395 176.495C108.265 176.182 108.171 175.863 108.115 175.536C108.064 175.209 108.038 174.904 108.038 174.619V170.44H109.298V174.227C109.298 174.582 109.331 174.925 109.396 175.256C109.462 175.587 109.571 175.886 109.725 176.152C109.884 176.418 110.094 176.628 110.355 176.782C110.621 176.936 110.953 177.013 111.349 177.013C111.662 177.013 111.947 176.959 112.203 176.852C112.46 176.745 112.679 176.586 112.861 176.376C113.043 176.161 113.183 175.891 113.281 175.564C113.379 175.237 113.428 174.857 113.428 174.423L114.247 174.675C114.247 175.403 114.114 176.031 113.848 176.558C113.587 177.085 113.216 177.491 112.735 177.776C112.259 178.056 111.697 178.196 111.048 178.196ZM113.568 178V175.977H113.428V170.44H114.681V178H113.568ZM116.781 178V167.71H118.027V178H116.781ZM124.349 178C123.901 178.089 123.457 178.124 123.019 178.105C122.585 178.091 122.197 178.005 121.857 177.846C121.516 177.683 121.257 177.431 121.08 177.09C120.93 176.791 120.849 176.49 120.835 176.187C120.825 175.879 120.821 175.531 120.821 175.144V168.34H122.067V175.088C122.067 175.396 122.069 175.66 122.074 175.879C122.083 176.098 122.132 176.287 122.221 176.446C122.389 176.745 122.655 176.92 123.019 176.971C123.387 177.022 123.831 177.008 124.349 176.929V178ZM119.288 171.469V170.44H124.349V171.469H119.288ZM126.107 178V176.628H127.479V178H126.107Z" fill="#FCFCFC"/>
<path d="M248.19 66.0261C247.8 66.4166 247.8 67.0498 248.19 67.4403L254.554 73.8042C254.945 74.1948 255.578 74.1948 255.968 73.8042C256.359 73.4137 256.359 72.7805 255.968 72.39L250.312 66.7332L255.968 61.0763C256.359 60.6858 256.359 60.0526 255.968 59.6621C255.578 59.2716 254.945 59.2716 254.554 59.6621L248.19 66.0261ZM261.5 158.5C260.948 158.5 260.5 158.948 260.5 159.5C260.5 160.052 260.948 160.5 261.5 160.5V158.5ZM273 66.7332L273 67.7332L273 66.7332ZM248.897 67.7332L273 67.7332L273 65.7332L248.897 65.7332L248.897 67.7332ZM296 90.7332V135.5H298V90.7332H296ZM273 158.5H261.5V160.5H273V158.5ZM296 135.5C296 148.203 285.703 158.5 273 158.5V160.5C286.807 160.5 298 149.307 298 135.5H296ZM273 67.7332C285.703 67.7332 296 78.0306 296 90.7332H298C298 76.926 286.807 65.7332 273 65.7332L273 67.7332Z" fill="#FFD966"/>
</svg>
