<svg width="634" height="265" viewBox="0 0 634 265" fill="none" xmlns="http://www.w3.org/2000/svg">
<path d="M3.094 73L0.14 62.92H2.142L4.032 69.85L5.922 62.934L7.924 62.92L9.814 69.85L11.704 62.92H13.706L10.752 73H8.876L6.923 66.196L4.97 73H3.094ZM17.5096 73.21C16.735 73.21 16.0513 73.0443 15.4586 72.713C14.8706 72.377 14.4086 71.9173 14.0726 71.334C13.7413 70.746 13.5756 70.074 13.5756 69.318C13.5756 68.492 13.739 67.7733 14.0656 67.162C14.3923 66.5507 14.8426 66.077 15.4166 65.741C15.9906 65.4003 16.651 65.23 17.3976 65.23C18.191 65.23 18.8653 65.4167 19.4206 65.79C19.976 66.1633 20.3866 66.6883 20.6526 67.365C20.9186 68.0417 21.012 68.8373 20.9326 69.752H19.0496V69.052C19.0496 68.282 18.926 67.729 18.6786 67.393C18.436 67.0523 18.037 66.882 17.4816 66.882C16.833 66.882 16.3546 67.0803 16.0466 67.477C15.7433 67.869 15.5916 68.45 15.5916 69.22C15.5916 69.9247 15.7433 70.4707 16.0466 70.858C16.3546 71.2407 16.805 71.432 17.3976 71.432C17.771 71.432 18.0906 71.3503 18.3566 71.187C18.6226 71.0237 18.8256 70.788 18.9656 70.48L20.8696 71.026C20.585 71.7167 20.1346 72.2533 19.5186 72.636C18.9073 73.0187 18.2376 73.21 17.5096 73.21ZM15.0036 69.752V68.338H20.0156V69.752H15.0036ZM30.4679 73V69.43C30.4679 69.2573 30.4586 69.038 30.4399 68.772C30.4213 68.5013 30.3629 68.2307 30.2649 67.96C30.1669 67.6893 30.0059 67.463 29.7819 67.281C29.5626 67.099 29.2499 67.008 28.8439 67.008C28.6806 67.008 28.5056 67.0337 28.3189 67.085C28.1323 67.1363 27.9573 67.2367 27.7939 67.386C27.6306 67.5307 27.4953 67.7453 27.3879 68.03C27.2853 68.3147 27.2339 68.6927 27.2339 69.164L26.1419 68.646C26.1419 68.0487 26.2633 67.4887 26.5059 66.966C26.7486 66.4433 27.1126 66.021 27.5979 65.699C28.0879 65.377 28.7039 65.216 29.4459 65.216C30.0386 65.216 30.5216 65.3163 30.8949 65.517C31.2683 65.7177 31.5576 65.972 31.7629 66.28C31.9729 66.588 32.1223 66.91 32.2109 67.246C32.2996 67.5773 32.3533 67.8807 32.3719 68.156C32.3906 68.4313 32.3999 68.632 32.3999 68.758V73H30.4679ZM25.3019 73V65.44H26.9959V67.946H27.2339V73H25.3019ZM37.5936 73.21C36.8189 73.21 36.1353 73.0443 35.5426 72.713C34.9546 72.377 34.4926 71.9173 34.1566 71.334C33.8253 70.746 33.6596 70.074 33.6596 69.318C33.6596 68.492 33.8229 67.7733 34.1496 67.162C34.4763 66.5507 34.9266 66.077 35.5006 65.741C36.0746 65.4003 36.7349 65.23 37.4816 65.23C38.2749 65.23 38.9493 65.4167 39.5046 65.79C40.0599 66.1633 40.4706 66.6883 40.7366 67.365C41.0026 68.0417 41.0959 68.8373 41.0166 69.752H39.1336V69.052C39.1336 68.282 39.0099 67.729 38.7626 67.393C38.5199 67.0523 38.1209 66.882 37.5656 66.882C36.9169 66.882 36.4386 67.0803 36.1306 67.477C35.8273 67.869 35.6756 68.45 35.6756 69.22C35.6756 69.9247 35.8273 70.4707 36.1306 70.858C36.4386 71.2407 36.8889 71.432 37.4816 71.432C37.8549 71.432 38.1746 71.3503 38.4406 71.187C38.7066 71.0237 38.9096 70.788 39.0496 70.48L40.9536 71.026C40.6689 71.7167 40.2186 72.2533 39.6026 72.636C38.9913 73.0187 38.3216 73.21 37.5936 73.21ZM35.0876 69.752V68.338H40.0996V69.752H35.0876ZM46.1112 73.21C45.3365 73.21 44.6529 73.0443 44.0602 72.713C43.4722 72.377 43.0102 71.9173 42.6742 71.334C42.3429 70.746 42.1772 70.074 42.1772 69.318C42.1772 68.492 42.3405 67.7733 42.6672 67.162C42.9939 66.5507 43.4442 66.077 44.0182 65.741C44.5922 65.4003 45.2525 65.23 45.9992 65.23C46.7925 65.23 47.4669 65.4167 48.0222 65.79C48.5775 66.1633 48.9882 66.6883 49.2542 67.365C49.5202 68.0417 49.6135 68.8373 49.5342 69.752H47.6512V69.052C47.6512 68.282 47.5275 67.729 47.2802 67.393C47.0375 67.0523 46.6385 66.882 46.0832 66.882C45.4345 66.882 44.9562 67.0803 44.6482 67.477C44.3449 67.869 44.1932 68.45 44.1932 69.22C44.1932 69.9247 44.3449 70.4707 44.6482 70.858C44.9562 71.2407 45.4065 71.432 45.9992 71.432C46.3725 71.432 46.6922 71.3503 46.9582 71.187C47.2242 71.0237 47.4272 70.788 47.5672 70.48L49.4712 71.026C49.1865 71.7167 48.7362 72.2533 48.1202 72.636C47.5089 73.0187 46.8392 73.21 46.1112 73.21ZM43.6052 69.752V68.338H48.6172V69.752H43.6052ZM54.1808 73.21C53.4854 73.21 52.8764 73.035 52.3538 72.685C51.8311 72.335 51.4228 71.859 51.1288 71.257C50.8394 70.655 50.6948 69.976 50.6948 69.22C50.6948 68.45 50.8418 67.7663 51.1358 67.169C51.4344 66.567 51.8521 66.0933 52.3888 65.748C52.9254 65.4027 53.5554 65.23 54.2788 65.23C54.9974 65.23 55.6018 65.405 56.0918 65.755C56.5818 66.105 56.9528 66.581 57.2048 67.183C57.4568 67.785 57.5828 68.464 57.5828 69.22C57.5828 69.976 57.4544 70.655 57.1978 71.257C56.9458 71.859 56.5678 72.335 56.0638 72.685C55.5598 73.035 54.9321 73.21 54.1808 73.21ZM54.4888 71.516C54.9134 71.516 55.2518 71.4203 55.5038 71.229C55.7604 71.0377 55.9448 70.7693 56.0568 70.424C56.1688 70.0787 56.2248 69.6773 56.2248 69.22C56.2248 68.7627 56.1688 68.3613 56.0568 68.016C55.9448 67.6707 55.7651 67.4023 55.5178 67.211C55.2751 67.0197 54.9554 66.924 54.5588 66.924C54.1341 66.924 53.7841 67.029 53.5088 67.239C53.2381 67.4443 53.0374 67.722 52.9068 68.072C52.7761 68.4173 52.7108 68.8 52.7108 69.22C52.7108 69.6447 52.7738 70.032 52.8998 70.382C53.0258 70.7273 53.2194 71.0027 53.4808 71.208C53.7421 71.4133 54.0781 71.516 54.4888 71.516ZM56.2248 73V67.82H55.9868V62.92H57.9048V73H56.2248ZM67.2035 73C66.6808 73.098 66.1675 73.14 65.6635 73.126C65.1642 73.1167 64.7162 73.0303 64.3195 72.867C63.9275 72.699 63.6288 72.4307 63.4235 72.062C63.2368 71.7167 63.1388 71.3667 63.1295 71.012C63.1202 70.6527 63.1155 70.2467 63.1155 69.794V63.34H65.0195V69.682C65.0195 69.976 65.0218 70.242 65.0265 70.48C65.0358 70.7133 65.0848 70.9 65.1735 71.04C65.3415 71.306 65.6098 71.4507 65.9785 71.474C66.3472 71.4973 66.7555 71.4787 67.2035 71.418V73ZM61.8275 66.91V65.44H67.2035V66.91H61.8275ZM71.88 73.21C71.1194 73.21 70.452 73.0397 69.878 72.699C69.304 72.3583 68.856 71.8893 68.534 71.292C68.2167 70.69 68.058 69.9993 68.058 69.22C68.058 68.4313 68.2214 67.7383 68.548 67.141C68.8747 66.539 69.325 66.07 69.899 65.734C70.473 65.398 71.1334 65.23 71.88 65.23C72.6407 65.23 73.308 65.4003 73.882 65.741C74.4607 66.0817 74.911 66.553 75.233 67.155C75.555 67.7523 75.716 68.4407 75.716 69.22C75.716 70.004 75.5527 70.697 75.226 71.299C74.904 71.8963 74.4537 72.3653 73.875 72.706C73.301 73.042 72.636 73.21 71.88 73.21ZM71.88 71.432C72.4914 71.432 72.9464 71.2267 73.245 70.816C73.5484 70.4007 73.7 69.8687 73.7 69.22C73.7 68.548 73.546 68.0113 73.238 67.61C72.9347 67.2087 72.482 67.008 71.88 67.008C71.4647 67.008 71.124 67.1013 70.858 67.288C70.592 67.4747 70.3937 67.7337 70.263 68.065C70.137 68.3963 70.074 68.7813 70.074 69.22C70.074 69.8967 70.2257 70.4357 70.529 70.837C70.837 71.2337 71.2874 71.432 71.88 71.432ZM208.721 73C208.198 73.098 207.685 73.14 207.181 73.126C206.682 73.1167 206.234 73.0303 205.837 72.867C205.445 72.699 205.146 72.4307 204.941 72.062C204.754 71.7167 204.656 71.3667 204.647 71.012C204.638 70.6527 204.633 70.2467 204.633 69.794V63.34H206.537V69.682C206.537 69.976 206.539 70.242 206.544 70.48C206.553 70.7133 206.602 70.9 206.691 71.04C206.859 71.306 207.127 71.4507 207.496 71.474C207.865 71.4973 208.273 71.4787 208.721 71.418V73ZM203.345 66.91V65.44H208.721V66.91H203.345ZM215.558 73V69.43C215.558 69.2573 215.548 69.038 215.53 68.772C215.511 68.5013 215.453 68.2307 215.355 67.96C215.257 67.6893 215.096 67.463 214.872 67.281C214.652 67.099 214.34 67.008 213.934 67.008C213.77 67.008 213.595 67.0337 213.409 67.085C213.222 67.1363 213.047 67.2367 212.884 67.386C212.72 67.5307 212.585 67.7453 212.478 68.03C212.375 68.3147 212.324 68.6927 212.324 69.164L211.232 68.646C211.232 68.0487 211.353 67.4887 211.596 66.966C211.838 66.4433 212.202 66.021 212.688 65.699C213.178 65.377 213.794 65.216 214.536 65.216C215.128 65.216 215.611 65.3163 215.985 65.517C216.358 65.7177 216.647 65.972 216.853 66.28C217.063 66.588 217.212 66.91 217.301 67.246C217.389 67.5773 217.443 67.8807 217.462 68.156C217.48 68.4313 217.49 68.632 217.49 68.758V73H215.558ZM210.392 73V62.92H212.086V68.1H212.324V73H210.392ZM222.82 73.21C222.046 73.21 221.362 73.0443 220.769 72.713C220.181 72.377 219.719 71.9173 219.383 71.334C219.052 70.746 218.886 70.074 218.886 69.318C218.886 68.492 219.05 67.7733 219.376 67.162C219.703 66.5507 220.153 66.077 220.727 65.741C221.301 65.4003 221.962 65.23 222.708 65.23C223.502 65.23 224.176 65.4167 224.731 65.79C225.287 66.1633 225.697 66.6883 225.963 67.365C226.229 68.0417 226.323 68.8373 226.243 69.752H224.36V69.052C224.36 68.282 224.237 67.729 223.989 67.393C223.747 67.0523 223.348 66.882 222.792 66.882C222.144 66.882 221.665 67.0803 221.357 67.477C221.054 67.869 220.902 68.45 220.902 69.22C220.902 69.9247 221.054 70.4707 221.357 70.858C221.665 71.2407 222.116 71.432 222.708 71.432C223.082 71.432 223.401 71.3503 223.667 71.187C223.933 71.0237 224.136 70.788 224.276 70.48L226.18 71.026C225.896 71.7167 225.445 72.2533 224.829 72.636C224.218 73.0187 223.548 73.21 222.82 73.21ZM220.314 69.752V68.338H225.326V69.752H220.314ZM230.778 73.21C229.826 73.21 229.056 72.9953 228.468 72.566C227.884 72.132 227.53 71.5207 227.404 70.732L229.35 70.438C229.429 70.7927 229.604 71.0703 229.875 71.271C230.15 71.4717 230.498 71.572 230.918 71.572C231.263 71.572 231.529 71.5067 231.716 71.376C231.902 71.2407 231.996 71.054 231.996 70.816C231.996 70.6667 231.958 70.5477 231.884 70.459C231.809 70.3657 231.641 70.2747 231.38 70.186C231.123 70.0973 230.722 69.9807 230.176 69.836C229.56 69.6773 229.067 69.5 228.699 69.304C228.33 69.108 228.064 68.8747 227.901 68.604C227.737 68.3287 227.656 67.9973 227.656 67.61C227.656 67.1247 227.779 66.7047 228.027 66.35C228.274 65.9907 228.622 65.7153 229.07 65.524C229.522 65.328 230.054 65.23 230.666 65.23C231.258 65.23 231.783 65.321 232.241 65.503C232.698 65.685 233.067 65.944 233.347 66.28C233.631 66.616 233.806 67.0127 233.872 67.47L231.926 67.82C231.893 67.54 231.772 67.3183 231.562 67.155C231.352 66.9917 231.067 66.896 230.708 66.868C230.358 66.8447 230.075 66.8913 229.861 67.008C229.651 67.1247 229.546 67.2927 229.546 67.512C229.546 67.6427 229.59 67.7523 229.679 67.841C229.772 67.9297 229.961 68.0207 230.246 68.114C230.535 68.2073 230.974 68.3287 231.562 68.478C232.136 68.6273 232.595 68.8023 232.941 69.003C233.291 69.199 233.545 69.437 233.704 69.717C233.862 69.9923 233.942 70.326 233.942 70.718C233.942 71.4927 233.662 72.1017 233.102 72.545C232.542 72.9883 231.767 73.21 230.778 73.21ZM238.994 73.21C238.219 73.21 237.536 73.0443 236.943 72.713C236.355 72.377 235.893 71.9173 235.557 71.334C235.226 70.746 235.06 70.074 235.06 69.318C235.06 68.492 235.223 67.7733 235.55 67.162C235.877 66.5507 236.327 66.077 236.901 65.741C237.475 65.4003 238.135 65.23 238.882 65.23C239.675 65.23 240.35 65.4167 240.905 65.79C241.46 66.1633 241.871 66.6883 242.137 67.365C242.403 68.0417 242.496 68.8373 242.417 69.752H240.534V69.052C240.534 68.282 240.41 67.729 240.163 67.393C239.92 67.0523 239.521 66.882 238.966 66.882C238.317 66.882 237.839 67.0803 237.531 67.477C237.228 67.869 237.076 68.45 237.076 69.22C237.076 69.9247 237.228 70.4707 237.531 70.858C237.839 71.2407 238.289 71.432 238.882 71.432C239.255 71.432 239.575 71.3503 239.841 71.187C240.107 71.0237 240.31 70.788 240.45 70.48L242.354 71.026C242.069 71.7167 241.619 72.2533 241.003 72.636C240.392 73.0187 239.722 73.21 238.994 73.21ZM236.488 69.752V68.338H241.5V69.752H236.488ZM316.356 73V71.096H318.26V73H316.356ZM0.28 142L3.36 131.92H6.202L9.282 142H7.322L4.578 133.11H4.942L2.24 142H0.28ZM2.128 139.9V138.122H7.448V139.9H2.128ZM13.4906 142.21C12.5386 142.21 11.7686 141.995 11.1806 141.566C10.5973 141.132 10.2426 140.521 10.1166 139.732L12.0626 139.438C12.142 139.793 12.317 140.07 12.5876 140.271C12.863 140.472 13.2106 140.572 13.6306 140.572C13.976 140.572 14.242 140.507 14.4286 140.376C14.6153 140.241 14.7086 140.054 14.7086 139.816C14.7086 139.667 14.6713 139.548 14.5966 139.459C14.522 139.366 14.354 139.275 14.0926 139.186C13.836 139.097 13.4346 138.981 12.8886 138.836C12.2726 138.677 11.7803 138.5 11.4116 138.304C11.043 138.108 10.777 137.875 10.6136 137.604C10.4503 137.329 10.3686 136.997 10.3686 136.61C10.3686 136.125 10.4923 135.705 10.7396 135.35C10.987 134.991 11.3346 134.715 11.7826 134.524C12.2353 134.328 12.7673 134.23 13.3786 134.23C13.9713 134.23 14.4963 134.321 14.9536 134.503C15.411 134.685 15.7796 134.944 16.0596 135.28C16.3443 135.616 16.5193 136.013 16.5846 136.47L14.6386 136.82C14.606 136.54 14.4846 136.318 14.2746 136.155C14.0646 135.992 13.78 135.896 13.4206 135.868C13.0706 135.845 12.7883 135.891 12.5736 136.008C12.3636 136.125 12.2586 136.293 12.2586 136.512C12.2586 136.643 12.303 136.752 12.3916 136.841C12.485 136.93 12.674 137.021 12.9586 137.114C13.248 137.207 13.6866 137.329 14.2746 137.478C14.8486 137.627 15.3083 137.802 15.6536 138.003C16.0036 138.199 16.258 138.437 16.4166 138.717C16.5753 138.992 16.6546 139.326 16.6546 139.718C16.6546 140.493 16.3746 141.102 15.8146 141.545C15.2546 141.988 14.48 142.21 13.4906 142.21ZM18.1789 142L18.1929 131.92H20.1249V138.08L22.6869 134.44H25.0389L22.3089 138.22L25.2209 142H22.7429L20.1249 138.36V142H18.1789ZM33.2562 142C32.7336 142.098 32.2202 142.14 31.7162 142.126C31.2169 142.117 30.7689 142.03 30.3722 141.867C29.9802 141.699 29.6816 141.431 29.4762 141.062C29.2896 140.717 29.1916 140.367 29.1822 140.012C29.1729 139.653 29.1682 139.247 29.1682 138.794V132.34H31.0722V138.682C31.0722 138.976 31.0746 139.242 31.0792 139.48C31.0886 139.713 31.1376 139.9 31.2262 140.04C31.3942 140.306 31.6626 140.451 32.0312 140.474C32.3999 140.497 32.8082 140.479 33.2562 140.418V142ZM27.8802 135.91V134.44H33.2562V135.91H27.8802ZM40.0929 142V138.43C40.0929 138.257 40.0836 138.038 40.0649 137.772C40.0463 137.501 39.9879 137.231 39.8899 136.96C39.7919 136.689 39.6309 136.463 39.4069 136.281C39.1876 136.099 38.8749 136.008 38.4689 136.008C38.3056 136.008 38.1306 136.034 37.9439 136.085C37.7573 136.136 37.5823 136.237 37.4189 136.386C37.2556 136.531 37.1203 136.745 37.0129 137.03C36.9103 137.315 36.8589 137.693 36.8589 138.164L35.7669 137.646C35.7669 137.049 35.8883 136.489 36.1309 135.966C36.3736 135.443 36.7376 135.021 37.2229 134.699C37.7129 134.377 38.3289 134.216 39.0709 134.216C39.6636 134.216 40.1466 134.316 40.5199 134.517C40.8933 134.718 41.1826 134.972 41.3879 135.28C41.5979 135.588 41.7473 135.91 41.8359 136.246C41.9246 136.577 41.9783 136.881 41.9969 137.156C42.0156 137.431 42.0249 137.632 42.0249 137.758V142H40.0929ZM34.9269 142V131.92H36.6209V137.1H36.8589V142H34.9269ZM47.3553 142.21C46.5807 142.21 45.897 142.044 45.3043 141.713C44.7163 141.377 44.2543 140.917 43.9183 140.334C43.587 139.746 43.4213 139.074 43.4213 138.318C43.4213 137.492 43.5847 136.773 43.9113 136.162C44.238 135.551 44.6883 135.077 45.2623 134.741C45.8363 134.4 46.4967 134.23 47.2433 134.23C48.0367 134.23 48.711 134.417 49.2663 134.79C49.8217 135.163 50.2323 135.688 50.4983 136.365C50.7643 137.042 50.8577 137.837 50.7783 138.752H48.8953V138.052C48.8953 137.282 48.7717 136.729 48.5243 136.393C48.2817 136.052 47.8827 135.882 47.3273 135.882C46.6787 135.882 46.2003 136.08 45.8923 136.477C45.589 136.869 45.4373 137.45 45.4373 138.22C45.4373 138.925 45.589 139.471 45.8923 139.858C46.2003 140.241 46.6507 140.432 47.2433 140.432C47.6167 140.432 47.9363 140.35 48.2023 140.187C48.4683 140.024 48.6713 139.788 48.8113 139.48L50.7153 140.026C50.4307 140.717 49.9803 141.253 49.3643 141.636C48.753 142.019 48.0833 142.21 47.3553 142.21ZM44.8493 138.752V137.338H49.8613V138.752H44.8493ZM58.4936 142.21C57.7096 142.21 57.0376 142.035 56.4776 141.685C55.9176 141.335 55.4883 140.859 55.1896 140.257C54.891 139.655 54.7416 138.976 54.7416 138.22C54.7416 137.455 54.8956 136.771 55.2036 136.169C55.5163 135.567 55.955 135.093 56.5196 134.748C57.0843 134.403 57.7516 134.23 58.5216 134.23C59.413 134.23 60.1596 134.456 60.7616 134.909C61.3683 135.357 61.7556 135.971 61.9236 136.75L60.0196 137.254C59.9076 136.862 59.7116 136.556 59.4316 136.337C59.1563 136.118 58.8436 136.008 58.4936 136.008C58.0923 136.008 57.7633 136.106 57.5066 136.302C57.25 136.493 57.061 136.757 56.9396 137.093C56.8183 137.424 56.7576 137.8 56.7576 138.22C56.7576 138.878 56.9023 139.412 57.1916 139.823C57.4856 140.229 57.9196 140.432 58.4936 140.432C58.923 140.432 59.2496 140.334 59.4736 140.138C59.6976 139.942 59.8656 139.662 59.9776 139.298L61.9236 139.704C61.709 140.507 61.303 141.125 60.7056 141.559C60.1083 141.993 59.371 142.21 58.4936 142.21ZM66.5207 142.21C65.76 142.21 65.0927 142.04 64.5187 141.699C63.9447 141.358 63.4967 140.889 63.1747 140.292C62.8573 139.69 62.6987 138.999 62.6987 138.22C62.6987 137.431 62.862 136.738 63.1887 136.141C63.5153 135.539 63.9657 135.07 64.5397 134.734C65.1137 134.398 65.774 134.23 66.5207 134.23C67.2813 134.23 67.9487 134.4 68.5227 134.741C69.1013 135.082 69.5517 135.553 69.8737 136.155C70.1957 136.752 70.3567 137.441 70.3567 138.22C70.3567 139.004 70.1933 139.697 69.8667 140.299C69.5447 140.896 69.0943 141.365 68.5157 141.706C67.9417 142.042 67.2767 142.21 66.5207 142.21ZM66.5207 140.432C67.132 140.432 67.587 140.227 67.8857 139.816C68.189 139.401 68.3407 138.869 68.3407 138.22C68.3407 137.548 68.1867 137.011 67.8787 136.61C67.5753 136.209 67.1227 136.008 66.5207 136.008C66.1053 136.008 65.7647 136.101 65.4987 136.288C65.2327 136.475 65.0343 136.734 64.9037 137.065C64.7777 137.396 64.7147 137.781 64.7147 138.22C64.7147 138.897 64.8663 139.436 65.1697 139.837C65.4777 140.234 65.928 140.432 66.5207 140.432ZM80.996 142V137.534C80.996 137.035 80.877 136.647 80.639 136.372C80.4057 136.092 80.0813 135.952 79.666 135.952C79.4 135.952 79.169 136.015 78.973 136.141C78.777 136.262 78.623 136.435 78.511 136.659C78.4037 136.878 78.35 137.133 78.35 137.422L77.552 136.89C77.552 136.372 77.6733 135.915 77.916 135.518C78.1633 135.121 78.4923 134.813 78.903 134.594C79.3183 134.37 79.778 134.258 80.282 134.258C81.1453 134.258 81.7963 134.515 82.235 135.028C82.6783 135.537 82.9 136.204 82.9 137.03V142H80.996ZM71.882 142V134.44H73.562V136.946H73.8V142H71.882ZM76.446 142V137.534C76.446 137.035 76.327 136.647 76.089 136.372C75.8557 136.092 75.5313 135.952 75.116 135.952C74.7193 135.952 74.3997 136.09 74.157 136.365C73.919 136.636 73.8 136.988 73.8 137.422L73.002 136.862C73.002 136.367 73.1257 135.924 73.373 135.532C73.6203 135.14 73.9517 134.83 74.367 134.601C74.787 134.372 75.256 134.258 75.774 134.258C76.3667 134.258 76.852 134.384 77.23 134.636C77.6127 134.888 77.895 135.224 78.077 135.644C78.259 136.064 78.35 136.526 78.35 137.03V142H76.446ZM88.4302 142.21C87.6789 142.21 87.0512 142.035 86.5472 141.685C86.0432 141.335 85.6629 140.859 85.4062 140.257C85.1542 139.655 85.0282 138.976 85.0282 138.22C85.0282 137.464 85.1542 136.785 85.4062 136.183C85.6582 135.581 86.0292 135.105 86.5192 134.755C87.0092 134.405 87.6136 134.23 88.3322 134.23C89.0556 134.23 89.6856 134.403 90.2222 134.748C90.7589 135.093 91.1742 135.567 91.4682 136.169C91.7669 136.766 91.9162 137.45 91.9162 138.22C91.9162 138.976 91.7692 139.655 91.4752 140.257C91.1859 140.859 90.7799 141.335 90.2572 141.685C89.7346 142.035 89.1256 142.21 88.4302 142.21ZM84.7062 145.36V134.44H86.3862V139.62H86.6242V145.36H84.7062ZM88.1222 140.516C88.5329 140.516 88.8689 140.413 89.1302 140.208C89.3916 140.003 89.5852 139.727 89.7112 139.382C89.8372 139.032 89.9002 138.645 89.9002 138.22C89.9002 137.8 89.8349 137.417 89.7042 137.072C89.5736 136.722 89.3706 136.444 89.0952 136.239C88.8246 136.029 88.4769 135.924 88.0522 135.924C87.6556 135.924 87.3336 136.02 87.0862 136.211C86.8436 136.402 86.6662 136.671 86.5542 137.016C86.4422 137.361 86.3862 137.763 86.3862 138.22C86.3862 138.677 86.4422 139.079 86.5542 139.424C86.6662 139.769 86.8482 140.038 87.1002 140.229C87.3569 140.42 87.6976 140.516 88.1222 140.516ZM96.2706 142.224C95.6779 142.224 95.1949 142.124 94.8216 141.923C94.4482 141.722 94.1566 141.468 93.9466 141.16C93.7412 140.852 93.5942 140.532 93.5056 140.201C93.4169 139.865 93.3632 139.559 93.3446 139.284C93.3259 139.009 93.3166 138.808 93.3166 138.682V134.44H95.2486V138.01C95.2486 138.183 95.2579 138.404 95.2766 138.675C95.2952 138.941 95.3536 139.209 95.4516 139.48C95.5496 139.751 95.7082 139.977 95.9276 140.159C96.1516 140.341 96.4666 140.432 96.8726 140.432C97.0359 140.432 97.2109 140.406 97.3976 140.355C97.5842 140.304 97.7592 140.206 97.9226 140.061C98.0859 139.912 98.2189 139.695 98.3216 139.41C98.4289 139.121 98.4826 138.743 98.4826 138.276L99.5746 138.794C99.5746 139.391 99.4532 139.951 99.2106 140.474C98.9679 140.997 98.6016 141.419 98.1116 141.741C97.6262 142.063 97.0126 142.224 96.2706 142.224ZM98.7206 142V139.494H98.4826V134.44H100.401V142H98.7206ZM106.893 142C106.37 142.098 105.857 142.14 105.353 142.126C104.854 142.117 104.406 142.03 104.009 141.867C103.617 141.699 103.318 141.431 103.113 141.062C102.926 140.717 102.828 140.367 102.819 140.012C102.81 139.653 102.805 139.247 102.805 138.794V132.34H104.709V138.682C104.709 138.976 104.711 139.242 104.716 139.48C104.725 139.713 104.774 139.9 104.863 140.04C105.031 140.306 105.299 140.451 105.668 140.474C106.037 140.497 106.445 140.479 106.893 140.418V142ZM101.517 135.91V134.44H106.893V135.91H101.517ZM111.682 142.21C110.907 142.21 110.223 142.044 109.631 141.713C109.043 141.377 108.581 140.917 108.245 140.334C107.913 139.746 107.748 139.074 107.748 138.318C107.748 137.492 107.911 136.773 108.238 136.162C108.564 135.551 109.015 135.077 109.589 134.741C110.163 134.4 110.823 134.23 111.57 134.23C112.363 134.23 113.037 134.417 113.593 134.79C114.148 135.163 114.559 135.688 114.825 136.365C115.091 137.042 115.184 137.837 115.105 138.752H113.222V138.052C113.222 137.282 113.098 136.729 112.851 136.393C112.608 136.052 112.209 135.882 111.654 135.882C111.005 135.882 110.527 136.08 110.219 136.477C109.915 136.869 109.764 137.45 109.764 138.22C109.764 138.925 109.915 139.471 110.219 139.858C110.527 140.241 110.977 140.432 111.57 140.432C111.943 140.432 112.263 140.35 112.529 140.187C112.795 140.024 112.998 139.788 113.138 139.48L115.042 140.026C114.757 140.717 114.307 141.253 113.691 141.636C113.079 142.019 112.41 142.21 111.682 142.21ZM109.176 138.752V137.338H114.188V138.752H109.176ZM116.685 142V134.44H118.365V136.288L118.183 136.05C118.281 135.789 118.412 135.551 118.575 135.336C118.738 135.121 118.939 134.944 119.177 134.804C119.359 134.692 119.557 134.606 119.772 134.545C119.987 134.48 120.208 134.44 120.437 134.426C120.666 134.407 120.894 134.412 121.123 134.44V136.218C120.913 136.153 120.668 136.132 120.388 136.155C120.113 136.174 119.863 136.237 119.639 136.344C119.415 136.447 119.226 136.584 119.072 136.757C118.918 136.925 118.801 137.126 118.722 137.359C118.643 137.588 118.603 137.847 118.603 138.136V142H116.685ZM125.887 142V134.468C125.887 134.277 125.892 134.06 125.901 133.817C125.911 133.574 125.948 133.329 126.013 133.082C126.083 132.835 126.209 132.611 126.391 132.41C126.625 132.149 126.877 131.971 127.147 131.878C127.423 131.78 127.689 131.729 127.945 131.724C128.202 131.715 128.421 131.71 128.603 131.71H129.541V133.25H128.673C128.375 133.25 128.153 133.327 128.008 133.481C127.864 133.63 127.791 133.81 127.791 134.02V142H125.887ZM124.697 135.91V134.44H129.541V135.91H124.697ZM133.786 142.21C133.026 142.21 132.358 142.04 131.784 141.699C131.21 141.358 130.762 140.889 130.44 140.292C130.123 139.69 129.964 138.999 129.964 138.22C129.964 137.431 130.128 136.738 130.454 136.141C130.781 135.539 131.231 135.07 131.805 134.734C132.379 134.398 133.04 134.23 133.786 134.23C134.547 134.23 135.214 134.4 135.788 134.741C136.367 135.082 136.817 135.553 137.139 136.155C137.461 136.752 137.622 137.441 137.622 138.22C137.622 139.004 137.459 139.697 137.132 140.299C136.81 140.896 136.36 141.365 135.781 141.706C135.207 142.042 134.542 142.21 133.786 142.21ZM133.786 140.432C134.398 140.432 134.853 140.227 135.151 139.816C135.455 139.401 135.606 138.869 135.606 138.22C135.606 137.548 135.452 137.011 135.144 136.61C134.841 136.209 134.388 136.008 133.786 136.008C133.371 136.008 133.03 136.101 132.764 136.288C132.498 136.475 132.3 136.734 132.169 137.065C132.043 137.396 131.98 137.781 131.98 138.22C131.98 138.897 132.132 139.436 132.435 139.837C132.743 140.234 133.194 140.432 133.786 140.432ZM139.162 142V134.44H140.842V136.288L140.66 136.05C140.758 135.789 140.888 135.551 141.052 135.336C141.215 135.121 141.416 134.944 141.654 134.804C141.836 134.692 142.034 134.606 142.249 134.545C142.463 134.48 142.685 134.44 142.914 134.426C143.142 134.407 143.371 134.412 143.6 134.44V136.218C143.39 136.153 143.145 136.132 142.865 136.155C142.589 136.174 142.34 136.237 142.116 136.344C141.892 136.447 141.703 136.584 141.549 136.757C141.395 136.925 141.278 137.126 141.199 137.359C141.119 137.588 141.08 137.847 141.08 138.136V142H139.162Z" fill="white"/>
<path d="M89.1581 73V68.534C89.1581 68.0347 89.0391 67.6473 88.8011 67.372C88.5678 67.092 88.2435 66.952 87.8281 66.952C87.5621 66.952 87.3311 67.015 87.1351 67.141C86.9391 67.2623 86.7851 67.435 86.6731 67.659C86.5658 67.8783 86.5121 68.1327 86.5121 68.422L85.7141 67.89C85.7141 67.372 85.8355 66.9147 86.0781 66.518C86.3255 66.1213 86.6545 65.8133 87.0651 65.594C87.4805 65.37 87.9401 65.258 88.4441 65.258C89.3075 65.258 89.9585 65.5147 90.3971 66.028C90.8405 66.5367 91.0621 67.204 91.0621 68.03V73H89.1581ZM80.0441 73V65.44H81.7241V67.946H81.9621V73H80.0441ZM84.6081 73V68.534C84.6081 68.0347 84.4891 67.6473 84.2511 67.372C84.0178 67.092 83.6935 66.952 83.2781 66.952C82.8815 66.952 82.5618 67.0897 82.3191 67.365C82.0811 67.6357 81.9621 67.988 81.9621 68.422L81.1641 67.862C81.1641 67.3673 81.2878 66.924 81.5351 66.532C81.7825 66.14 82.1138 65.8297 82.5291 65.601C82.9491 65.3723 83.4181 65.258 83.9361 65.258C84.5288 65.258 85.0141 65.384 85.3921 65.636C85.7748 65.888 86.0571 66.224 86.2391 66.644C86.4211 67.064 86.5121 67.526 86.5121 68.03V73H84.6081ZM94.9823 73.21C94.441 73.21 93.9813 73.1073 93.6033 72.902C93.23 72.692 92.9453 72.4143 92.7493 72.069C92.558 71.719 92.4623 71.334 92.4623 70.914C92.4623 70.564 92.516 70.2443 92.6233 69.955C92.7307 69.6657 92.9033 69.4113 93.1413 69.192C93.384 68.968 93.7083 68.7813 94.1143 68.632C94.3943 68.5293 94.728 68.4383 95.1153 68.359C95.5027 68.2797 95.9413 68.205 96.4313 68.135C96.9213 68.0603 97.4603 67.9787 98.0483 67.89L97.3623 68.268C97.3623 67.82 97.255 67.491 97.0403 67.281C96.8257 67.071 96.4663 66.966 95.9623 66.966C95.6823 66.966 95.3907 67.0337 95.0873 67.169C94.784 67.3043 94.5717 67.5447 94.4503 67.89L92.7283 67.344C92.9197 66.7187 93.279 66.21 93.8063 65.818C94.3337 65.426 95.0523 65.23 95.9623 65.23C96.6297 65.23 97.2223 65.3327 97.7403 65.538C98.2583 65.7433 98.6503 66.098 98.9163 66.602C99.0657 66.882 99.1543 67.162 99.1823 67.442C99.2103 67.722 99.2243 68.0347 99.2243 68.38V73H97.5583V71.446L97.7963 71.768C97.4277 72.2767 97.0287 72.6453 96.5993 72.874C96.1747 73.098 95.6357 73.21 94.9823 73.21ZM95.3883 71.712C95.7383 71.712 96.0323 71.6513 96.2703 71.53C96.513 71.404 96.7043 71.2617 96.8443 71.103C96.989 70.9443 97.087 70.8113 97.1383 70.704C97.2363 70.4987 97.2923 70.2607 97.3063 69.99C97.325 69.7147 97.3343 69.486 97.3343 69.304L97.8943 69.444C97.3297 69.5373 96.8723 69.6167 96.5223 69.682C96.1723 69.7427 95.89 69.7987 95.6753 69.85C95.4607 69.9013 95.2717 69.9573 95.1083 70.018C94.9217 70.0927 94.77 70.1743 94.6533 70.263C94.5413 70.347 94.4573 70.4403 94.4013 70.543C94.35 70.6457 94.3243 70.76 94.3243 70.886C94.3243 71.0587 94.3663 71.208 94.4503 71.334C94.539 71.4553 94.6627 71.5487 94.8213 71.614C94.98 71.6793 95.169 71.712 95.3883 71.712ZM106.196 73V69.43C106.196 69.2573 106.187 69.038 106.168 68.772C106.15 68.5013 106.091 68.2307 105.993 67.96C105.895 67.6893 105.734 67.463 105.51 67.281C105.291 67.099 104.978 67.008 104.572 67.008C104.409 67.008 104.234 67.0337 104.047 67.085C103.861 67.1363 103.686 67.2367 103.522 67.386C103.359 67.5307 103.224 67.7453 103.116 68.03C103.014 68.3147 102.962 68.6927 102.962 69.164L101.87 68.646C101.87 68.0487 101.992 67.4887 102.234 66.966C102.477 66.4433 102.841 66.021 103.326 65.699C103.816 65.377 104.432 65.216 105.174 65.216C105.767 65.216 106.25 65.3163 106.623 65.517C106.997 65.7177 107.286 65.972 107.491 66.28C107.701 66.588 107.851 66.91 107.939 67.246C108.028 67.5773 108.082 67.8807 108.1 68.156C108.119 68.4313 108.128 68.632 108.128 68.758V73H106.196ZM101.03 73V65.44H102.724V67.946H102.962V73H101.03ZM112.759 73.224C112.166 73.224 111.683 73.1237 111.31 72.923C110.937 72.7223 110.645 72.468 110.435 72.16C110.23 71.852 110.083 71.5323 109.994 71.201C109.905 70.865 109.852 70.5593 109.833 70.284C109.814 70.0087 109.805 69.808 109.805 69.682V65.44H111.737V69.01C111.737 69.1827 111.746 69.4043 111.765 69.675C111.784 69.941 111.842 70.2093 111.94 70.48C112.038 70.7507 112.197 70.977 112.416 71.159C112.64 71.341 112.955 71.432 113.361 71.432C113.524 71.432 113.699 71.4063 113.886 71.355C114.073 71.3037 114.248 71.2057 114.411 71.061C114.574 70.9117 114.707 70.6947 114.81 70.41C114.917 70.1207 114.971 69.7427 114.971 69.276L116.063 69.794C116.063 70.3913 115.942 70.9513 115.699 71.474C115.456 71.9967 115.09 72.419 114.6 72.741C114.115 73.063 113.501 73.224 112.759 73.224ZM115.209 73V70.494H114.971V65.44H116.889V73H115.209ZM120.945 73.21C120.404 73.21 119.944 73.1073 119.566 72.902C119.193 72.692 118.908 72.4143 118.712 72.069C118.521 71.719 118.425 71.334 118.425 70.914C118.425 70.564 118.479 70.2443 118.586 69.955C118.694 69.6657 118.866 69.4113 119.104 69.192C119.347 68.968 119.671 68.7813 120.077 68.632C120.357 68.5293 120.691 68.4383 121.078 68.359C121.466 68.2797 121.904 68.205 122.394 68.135C122.884 68.0603 123.423 67.9787 124.011 67.89L123.325 68.268C123.325 67.82 123.218 67.491 123.003 67.281C122.789 67.071 122.429 66.966 121.925 66.966C121.645 66.966 121.354 67.0337 121.05 67.169C120.747 67.3043 120.535 67.5447 120.413 67.89L118.691 67.344C118.883 66.7187 119.242 66.21 119.769 65.818C120.297 65.426 121.015 65.23 121.925 65.23C122.593 65.23 123.185 65.3327 123.703 65.538C124.221 65.7433 124.613 66.098 124.879 66.602C125.029 66.882 125.117 67.162 125.145 67.442C125.173 67.722 125.187 68.0347 125.187 68.38V73H123.521V71.446L123.759 71.768C123.391 72.2767 122.992 72.6453 122.562 72.874C122.138 73.098 121.599 73.21 120.945 73.21ZM121.351 71.712C121.701 71.712 121.995 71.6513 122.233 71.53C122.476 71.404 122.667 71.2617 122.807 71.103C122.952 70.9443 123.05 70.8113 123.101 70.704C123.199 70.4987 123.255 70.2607 123.269 69.99C123.288 69.7147 123.297 69.486 123.297 69.304L123.857 69.444C123.293 69.5373 122.835 69.6167 122.485 69.682C122.135 69.7427 121.853 69.7987 121.638 69.85C121.424 69.9013 121.235 69.9573 121.071 70.018C120.885 70.0927 120.733 70.1743 120.616 70.263C120.504 70.347 120.42 70.4403 120.364 70.543C120.313 70.6457 120.287 70.76 120.287 70.886C120.287 71.0587 120.329 71.208 120.413 71.334C120.502 71.4553 120.626 71.5487 120.784 71.614C120.943 71.6793 121.132 71.712 121.351 71.712ZM127.147 73V62.71H129.051V73H127.147ZM131.29 73V62.71H133.194V73H131.29ZM136.259 76.36L137.715 72.356L137.743 73.532L134.453 65.44H136.427L138.639 71.166H138.191L140.389 65.44H142.293L138.023 76.36H136.259ZM155.18 73V68.534C155.18 68.0347 155.061 67.6473 154.823 67.372C154.589 67.092 154.265 66.952 153.85 66.952C153.584 66.952 153.353 67.015 153.157 67.141C152.961 67.2623 152.807 67.435 152.695 67.659C152.587 67.8783 152.534 68.1327 152.534 68.422L151.736 67.89C151.736 67.372 151.857 66.9147 152.1 66.518C152.347 66.1213 152.676 65.8133 153.087 65.594C153.502 65.37 153.962 65.258 154.466 65.258C155.329 65.258 155.98 65.5147 156.419 66.028C156.862 66.5367 157.084 67.204 157.084 68.03V73H155.18ZM146.066 73V65.44H147.746V67.946H147.984V73H146.066ZM150.63 73V68.534C150.63 68.0347 150.511 67.6473 150.273 67.372C150.039 67.092 149.715 66.952 149.3 66.952C148.903 66.952 148.583 67.0897 148.341 67.365C148.103 67.6357 147.984 67.988 147.984 68.422L147.186 67.862C147.186 67.3673 147.309 66.924 147.557 66.532C147.804 66.14 148.135 65.8297 148.551 65.601C148.971 65.3723 149.44 65.258 149.958 65.258C150.55 65.258 151.036 65.384 151.414 65.636C151.796 65.888 152.079 66.224 152.261 66.644C152.443 67.064 152.534 67.526 152.534 68.03V73H150.63ZM161.004 73.21C160.462 73.21 160.003 73.1073 159.625 72.902C159.251 72.692 158.967 72.4143 158.771 72.069C158.579 71.719 158.484 71.334 158.484 70.914C158.484 70.564 158.537 70.2443 158.645 69.955C158.752 69.6657 158.925 69.4113 159.163 69.192C159.405 68.968 159.73 68.7813 160.136 68.632C160.416 68.5293 160.749 68.4383 161.137 68.359C161.524 68.2797 161.963 68.205 162.453 68.135C162.943 68.0603 163.482 67.9787 164.07 67.89L163.384 68.268C163.384 67.82 163.276 67.491 163.062 67.281C162.847 67.071 162.488 66.966 161.984 66.966C161.704 66.966 161.412 67.0337 161.109 67.169C160.805 67.3043 160.593 67.5447 160.472 67.89L158.75 67.344C158.941 66.7187 159.3 66.21 159.828 65.818C160.355 65.426 161.074 65.23 161.984 65.23C162.651 65.23 163.244 65.3327 163.762 65.538C164.28 65.7433 164.672 66.098 164.938 66.602C165.087 66.882 165.176 67.162 165.204 67.442C165.232 67.722 165.246 68.0347 165.246 68.38V73H163.58V71.446L163.818 71.768C163.449 72.2767 163.05 72.6453 162.621 72.874C162.196 73.098 161.657 73.21 161.004 73.21ZM161.41 71.712C161.76 71.712 162.054 71.6513 162.292 71.53C162.534 71.404 162.726 71.2617 162.866 71.103C163.01 70.9443 163.108 70.8113 163.16 70.704C163.258 70.4987 163.314 70.2607 163.328 69.99C163.346 69.7147 163.356 69.486 163.356 69.304L163.916 69.444C163.351 69.5373 162.894 69.6167 162.544 69.682C162.194 69.7427 161.911 69.7987 161.697 69.85C161.482 69.9013 161.293 69.9573 161.13 70.018C160.943 70.0927 160.791 70.1743 160.675 70.263C160.563 70.347 160.479 70.4403 160.423 70.543C160.371 70.6457 160.346 70.76 160.346 70.886C160.346 71.0587 160.388 71.208 160.472 71.334C160.56 71.4553 160.684 71.5487 160.843 71.614C161.001 71.6793 161.19 71.712 161.41 71.712ZM172.218 73V69.43C172.218 69.2573 172.209 69.038 172.19 68.772C172.171 68.5013 172.113 68.2307 172.015 67.96C171.917 67.6893 171.756 67.463 171.532 67.281C171.313 67.099 171 67.008 170.594 67.008C170.431 67.008 170.256 67.0337 170.069 67.085C169.882 67.1363 169.707 67.2367 169.544 67.386C169.381 67.5307 169.245 67.7453 169.138 68.03C169.035 68.3147 168.984 68.6927 168.984 69.164L167.892 68.646C167.892 68.0487 168.013 67.4887 168.256 66.966C168.499 66.4433 168.863 66.021 169.348 65.699C169.838 65.377 170.454 65.216 171.196 65.216C171.789 65.216 172.272 65.3163 172.645 65.517C173.018 65.7177 173.308 65.972 173.513 66.28C173.723 66.588 173.872 66.91 173.961 67.246C174.05 67.5773 174.103 67.8807 174.122 68.156C174.141 68.4313 174.15 68.632 174.15 68.758V73H172.218ZM167.052 73V65.44H168.746V67.946H168.984V73H167.052ZM178.066 73.21C177.525 73.21 177.065 73.1073 176.687 72.902C176.314 72.692 176.029 72.4143 175.833 72.069C175.642 71.719 175.546 71.334 175.546 70.914C175.546 70.564 175.6 70.2443 175.707 69.955C175.815 69.6657 175.987 69.4113 176.225 69.192C176.468 68.968 176.792 68.7813 177.198 68.632C177.478 68.5293 177.812 68.4383 178.199 68.359C178.587 68.2797 179.025 68.205 179.515 68.135C180.005 68.0603 180.544 67.9787 181.132 67.89L180.446 68.268C180.446 67.82 180.339 67.491 180.124 67.281C179.91 67.071 179.55 66.966 179.046 66.966C178.766 66.966 178.475 67.0337 178.171 67.169C177.868 67.3043 177.656 67.5447 177.534 67.89L175.812 67.344C176.004 66.7187 176.363 66.21 176.89 65.818C177.418 65.426 178.136 65.23 179.046 65.23C179.714 65.23 180.306 65.3327 180.824 65.538C181.342 65.7433 181.734 66.098 182 66.602C182.15 66.882 182.238 67.162 182.266 67.442C182.294 67.722 182.308 68.0347 182.308 68.38V73H180.642V71.446L180.88 71.768C180.512 72.2767 180.113 72.6453 179.683 72.874C179.259 73.098 178.72 73.21 178.066 73.21ZM178.472 71.712C178.822 71.712 179.116 71.6513 179.354 71.53C179.597 71.404 179.788 71.2617 179.928 71.103C180.073 70.9443 180.171 70.8113 180.222 70.704C180.32 70.4987 180.376 70.2607 180.39 69.99C180.409 69.7147 180.418 69.486 180.418 69.304L180.978 69.444C180.414 69.5373 179.956 69.6167 179.606 69.682C179.256 69.7427 178.974 69.7987 178.759 69.85C178.545 69.9013 178.356 69.9573 178.192 70.018C178.006 70.0927 177.854 70.1743 177.737 70.263C177.625 70.347 177.541 70.4403 177.485 70.543C177.434 70.6457 177.408 70.76 177.408 70.886C177.408 71.0587 177.45 71.208 177.534 71.334C177.623 71.4553 177.747 71.5487 177.905 71.614C178.064 71.6793 178.253 71.712 178.472 71.712ZM187.362 76.57C186.933 76.57 186.525 76.5 186.137 76.36C185.75 76.2247 185.402 76.0333 185.094 75.786C184.791 75.5433 184.544 75.2587 184.352 74.932L186.116 74.078C186.238 74.302 186.41 74.4723 186.634 74.589C186.863 74.7057 187.11 74.764 187.376 74.764C187.661 74.764 187.929 74.715 188.181 74.617C188.433 74.5237 188.634 74.3813 188.783 74.19C188.937 74.0033 189.01 73.77 189 73.49V71.292H189.238V65.44H190.904V73.518C190.904 73.7047 190.895 73.8797 190.876 74.043C190.862 74.211 190.834 74.3767 190.792 74.54C190.671 75.002 190.445 75.3823 190.113 75.681C189.787 75.9797 189.385 76.2013 188.909 76.346C188.433 76.4953 187.918 76.57 187.362 76.57ZM187.194 73.21C186.499 73.21 185.89 73.035 185.367 72.685C184.845 72.335 184.436 71.859 184.142 71.257C183.853 70.655 183.708 69.976 183.708 69.22C183.708 68.45 183.855 67.7663 184.149 67.169C184.448 66.567 184.866 66.0933 185.402 65.748C185.939 65.4027 186.569 65.23 187.292 65.23C188.011 65.23 188.615 65.405 189.105 65.755C189.595 66.105 189.966 66.581 190.218 67.183C190.47 67.785 190.596 68.464 190.596 69.22C190.596 69.976 190.468 70.655 190.211 71.257C189.959 71.859 189.581 72.335 189.077 72.685C188.573 73.035 187.946 73.21 187.194 73.21ZM187.502 71.516C187.927 71.516 188.265 71.4203 188.517 71.229C188.774 71.0377 188.958 70.7693 189.07 70.424C189.182 70.0787 189.238 69.6773 189.238 69.22C189.238 68.7627 189.182 68.3613 189.07 68.016C188.958 67.6707 188.779 67.4023 188.531 67.211C188.289 67.0197 187.969 66.924 187.572 66.924C187.148 66.924 186.798 67.029 186.522 67.239C186.252 67.4443 186.051 67.722 185.92 68.072C185.79 68.4173 185.724 68.8 185.724 69.22C185.724 69.6447 185.787 70.032 185.913 70.382C186.039 70.7273 186.233 71.0027 186.494 71.208C186.756 71.4133 187.092 71.516 187.502 71.516ZM196.379 73.21C195.604 73.21 194.92 73.0443 194.328 72.713C193.74 72.377 193.278 71.9173 192.942 71.334C192.61 70.746 192.445 70.074 192.445 69.318C192.445 68.492 192.608 67.7733 192.935 67.162C193.261 66.5507 193.712 66.077 194.286 65.741C194.86 65.4003 195.52 65.23 196.267 65.23C197.06 65.23 197.734 65.4167 198.29 65.79C198.845 66.1633 199.256 66.6883 199.522 67.365C199.788 68.0417 199.881 68.8373 199.802 69.752H197.919V69.052C197.919 68.282 197.795 67.729 197.548 67.393C197.305 67.0523 196.906 66.882 196.351 66.882C195.702 66.882 195.224 67.0803 194.916 67.477C194.612 67.869 194.461 68.45 194.461 69.22C194.461 69.9247 194.612 70.4707 194.916 70.858C195.224 71.2407 195.674 71.432 196.267 71.432C196.64 71.432 196.96 71.3503 197.226 71.187C197.492 71.0237 197.695 70.788 197.835 70.48L199.739 71.026C199.454 71.7167 199.004 72.2533 198.388 72.636C197.776 73.0187 197.107 73.21 196.379 73.21ZM193.873 69.752V68.338H198.885V69.752H193.873ZM246.8 73V65.44H248.48V67.288L248.298 67.05C248.396 66.7887 248.527 66.5507 248.69 66.336C248.854 66.1213 249.054 65.944 249.292 65.804C249.474 65.692 249.673 65.6057 249.887 65.545C250.102 65.4797 250.324 65.44 250.552 65.426C250.781 65.4073 251.01 65.412 251.238 65.44V67.218C251.028 67.1527 250.783 67.1317 250.503 67.155C250.228 67.1737 249.978 67.2367 249.754 67.344C249.53 67.4467 249.341 67.5843 249.187 67.757C249.033 67.925 248.917 68.1257 248.837 68.359C248.758 68.5877 248.718 68.8467 248.718 69.136V73H246.8ZM255.947 73.21C255.172 73.21 254.489 73.0443 253.896 72.713C253.308 72.377 252.846 71.9173 252.51 71.334C252.179 70.746 252.013 70.074 252.013 69.318C252.013 68.492 252.176 67.7733 252.503 67.162C252.83 66.5507 253.28 66.077 253.854 65.741C254.428 65.4003 255.088 65.23 255.835 65.23C256.628 65.23 257.303 65.4167 257.858 65.79C258.413 66.1633 258.824 66.6883 259.09 67.365C259.356 68.0417 259.449 68.8373 259.37 69.752H257.487V69.052C257.487 68.282 257.363 67.729 257.116 67.393C256.873 67.0523 256.474 66.882 255.919 66.882C255.27 66.882 254.792 67.0803 254.484 67.477C254.181 67.869 254.029 68.45 254.029 69.22C254.029 69.9247 254.181 70.4707 254.484 70.858C254.792 71.2407 255.242 71.432 255.835 71.432C256.208 71.432 256.528 71.3503 256.794 71.187C257.06 71.0237 257.263 70.788 257.403 70.48L259.307 71.026C259.022 71.7167 258.572 72.2533 257.956 72.636C257.345 73.0187 256.675 73.21 255.947 73.21ZM253.441 69.752V68.338H258.453V69.752H253.441ZM263.905 73.21C262.953 73.21 262.183 72.9953 261.595 72.566C261.011 72.132 260.657 71.5207 260.531 70.732L262.477 70.438C262.556 70.7927 262.731 71.0703 263.002 71.271C263.277 71.4717 263.625 71.572 264.045 71.572C264.39 71.572 264.656 71.5067 264.843 71.376C265.029 71.2407 265.123 71.054 265.123 70.816C265.123 70.6667 265.085 70.5477 265.011 70.459C264.936 70.3657 264.768 70.2747 264.507 70.186C264.25 70.0973 263.849 69.9807 263.303 69.836C262.687 69.6773 262.194 69.5 261.826 69.304C261.457 69.108 261.191 68.8747 261.028 68.604C260.864 68.3287 260.783 67.9973 260.783 67.61C260.783 67.1247 260.906 66.7047 261.154 66.35C261.401 65.9907 261.749 65.7153 262.197 65.524C262.649 65.328 263.181 65.23 263.793 65.23C264.385 65.23 264.91 65.321 265.368 65.503C265.825 65.685 266.194 65.944 266.474 66.28C266.758 66.616 266.933 67.0127 266.999 67.47L265.053 67.82C265.02 67.54 264.899 67.3183 264.689 67.155C264.479 66.9917 264.194 66.896 263.835 66.868C263.485 66.8447 263.202 66.8913 262.988 67.008C262.778 67.1247 262.673 67.2927 262.673 67.512C262.673 67.6427 262.717 67.7523 262.806 67.841C262.899 67.9297 263.088 68.0207 263.373 68.114C263.662 68.2073 264.101 68.3287 264.689 68.478C265.263 68.6273 265.722 68.8023 266.068 69.003C266.418 69.199 266.672 69.437 266.831 69.717C266.989 69.9923 267.069 70.326 267.069 70.718C267.069 71.4927 266.789 72.1017 266.229 72.545C265.669 72.9883 264.894 73.21 263.905 73.21ZM272.009 73.21C271.248 73.21 270.581 73.0397 270.007 72.699C269.433 72.3583 268.985 71.8893 268.663 71.292C268.346 70.69 268.187 69.9993 268.187 69.22C268.187 68.4313 268.35 67.7383 268.677 67.141C269.004 66.539 269.454 66.07 270.028 65.734C270.602 65.398 271.262 65.23 272.009 65.23C272.77 65.23 273.437 65.4003 274.011 65.741C274.59 66.0817 275.04 66.553 275.362 67.155C275.684 67.7523 275.845 68.4407 275.845 69.22C275.845 70.004 275.682 70.697 275.355 71.299C275.033 71.8963 274.583 72.3653 274.004 72.706C273.43 73.042 272.765 73.21 272.009 73.21ZM272.009 71.432C272.62 71.432 273.075 71.2267 273.374 70.816C273.677 70.4007 273.829 69.8687 273.829 69.22C273.829 68.548 273.675 68.0113 273.367 67.61C273.064 67.2087 272.611 67.008 272.009 67.008C271.594 67.008 271.253 67.1013 270.987 67.288C270.721 67.4747 270.523 67.7337 270.392 68.065C270.266 68.3963 270.203 68.7813 270.203 69.22C270.203 69.8967 270.355 70.4357 270.658 70.837C270.966 71.2337 271.416 71.432 272.009 71.432ZM280.198 73.224C279.606 73.224 279.123 73.1237 278.749 72.923C278.376 72.7223 278.084 72.468 277.874 72.16C277.669 71.852 277.522 71.5323 277.433 71.201C277.345 70.865 277.291 70.5593 277.272 70.284C277.254 70.0087 277.244 69.808 277.244 69.682V65.44H279.176V69.01C279.176 69.1827 279.186 69.4043 279.204 69.675C279.223 69.941 279.281 70.2093 279.379 70.48C279.477 70.7507 279.636 70.977 279.855 71.159C280.079 71.341 280.394 71.432 280.8 71.432C280.964 71.432 281.139 71.4063 281.325 71.355C281.512 71.3037 281.687 71.2057 281.85 71.061C282.014 70.9117 282.147 70.6947 282.249 70.41C282.357 70.1207 282.41 69.7427 282.41 69.276L283.502 69.794C283.502 70.3913 283.381 70.9513 283.138 71.474C282.896 71.9967 282.529 72.419 282.039 72.741C281.554 73.063 280.94 73.224 280.198 73.224ZM282.648 73V70.494H282.41V65.44H284.328V73H282.648ZM286.285 73V65.44H287.965V67.288L287.783 67.05C287.881 66.7887 288.011 66.5507 288.175 66.336C288.338 66.1213 288.539 65.944 288.777 65.804C288.959 65.692 289.157 65.6057 289.372 65.545C289.586 65.4797 289.808 65.44 290.037 65.426C290.265 65.4073 290.494 65.412 290.723 65.44V67.218C290.513 67.1527 290.268 67.1317 289.988 67.155C289.712 67.1737 289.463 67.2367 289.239 67.344C289.015 67.4467 288.826 67.5843 288.672 67.757C288.518 67.925 288.401 68.1257 288.322 68.359C288.242 68.5877 288.203 68.8467 288.203 69.136V73H286.285ZM295.25 73.21C294.466 73.21 293.794 73.035 293.234 72.685C292.674 72.335 292.244 71.859 291.946 71.257C291.647 70.655 291.498 69.976 291.498 69.22C291.498 68.4547 291.652 67.771 291.96 67.169C292.272 66.567 292.711 66.0933 293.276 65.748C293.84 65.4027 294.508 65.23 295.278 65.23C296.169 65.23 296.916 65.4563 297.518 65.909C298.124 66.357 298.512 66.9707 298.68 67.75L296.776 68.254C296.664 67.862 296.468 67.5563 296.188 67.337C295.912 67.1177 295.6 67.008 295.25 67.008C294.848 67.008 294.519 67.106 294.263 67.302C294.006 67.4933 293.817 67.757 293.696 68.093C293.574 68.4243 293.514 68.8 293.514 69.22C293.514 69.878 293.658 70.4123 293.948 70.823C294.242 71.229 294.676 71.432 295.25 71.432C295.679 71.432 296.006 71.334 296.23 71.138C296.454 70.942 296.622 70.662 296.734 70.298L298.68 70.704C298.465 71.5067 298.059 72.125 297.462 72.559C296.864 72.993 296.127 73.21 295.25 73.21ZM303.389 73.21C302.614 73.21 301.93 73.0443 301.338 72.713C300.75 72.377 300.288 71.9173 299.952 71.334C299.62 70.746 299.455 70.074 299.455 69.318C299.455 68.492 299.618 67.7733 299.945 67.162C300.271 66.5507 300.722 66.077 301.296 65.741C301.87 65.4003 302.53 65.23 303.277 65.23C304.07 65.23 304.744 65.4167 305.3 65.79C305.855 66.1633 306.266 66.6883 306.532 67.365C306.798 68.0417 306.891 68.8373 306.812 69.752H304.929V69.052C304.929 68.282 304.805 67.729 304.558 67.393C304.315 67.0523 303.916 66.882 303.361 66.882C302.712 66.882 302.234 67.0803 301.926 67.477C301.622 67.869 301.471 68.45 301.471 69.22C301.471 69.9247 301.622 70.4707 301.926 70.858C302.234 71.2407 302.684 71.432 303.277 71.432C303.65 71.432 303.97 71.3503 304.236 71.187C304.502 71.0237 304.705 70.788 304.845 70.48L306.749 71.026C306.464 71.7167 306.014 72.2533 305.398 72.636C304.786 73.0187 304.117 73.21 303.389 73.21ZM300.883 69.752V68.338H305.895V69.752H300.883ZM311.346 73.21C310.394 73.21 309.624 72.9953 309.036 72.566C308.453 72.132 308.098 71.5207 307.972 70.732L309.918 70.438C309.997 70.7927 310.172 71.0703 310.443 71.271C310.718 71.4717 311.066 71.572 311.486 71.572C311.831 71.572 312.097 71.5067 312.284 71.376C312.471 71.2407 312.564 71.054 312.564 70.816C312.564 70.6667 312.527 70.5477 312.452 70.459C312.377 70.3657 312.209 70.2747 311.948 70.186C311.691 70.0973 311.29 69.9807 310.744 69.836C310.128 69.6773 309.636 69.5 309.267 69.304C308.898 69.108 308.632 68.8747 308.469 68.604C308.306 68.3287 308.224 67.9973 308.224 67.61C308.224 67.1247 308.348 66.7047 308.595 66.35C308.842 65.9907 309.19 65.7153 309.638 65.524C310.091 65.328 310.623 65.23 311.234 65.23C311.827 65.23 312.352 65.321 312.809 65.503C313.266 65.685 313.635 65.944 313.915 66.28C314.2 66.616 314.375 67.0127 314.44 67.47L312.494 67.82C312.461 67.54 312.34 67.3183 312.13 67.155C311.92 66.9917 311.635 66.896 311.276 66.868C310.926 66.8447 310.644 66.8913 310.429 67.008C310.219 67.1247 310.114 67.2927 310.114 67.512C310.114 67.6427 310.158 67.7523 310.247 67.841C310.34 67.9297 310.529 68.0207 310.814 68.114C311.103 68.2073 311.542 68.3287 312.13 68.478C312.704 68.6273 313.164 68.8023 313.509 69.003C313.859 69.199 314.113 69.437 314.272 69.717C314.431 69.9923 314.51 70.326 314.51 70.718C314.51 71.4927 314.23 72.1017 313.67 72.545C313.11 72.9883 312.335 73.21 311.346 73.21ZM0.98 119V108.92H7.56V110.698H2.884V112.854H6.72V114.632H2.884V117.222H7.56V119H0.98ZM8.39781 119L11.0998 115.178L8.45381 111.44H10.6938L12.2058 113.68L13.6898 111.44H15.9298L13.2838 115.178L15.9998 119H13.7598L12.2058 116.676L10.6378 119H8.39781ZM18.953 119.21C18.4117 119.21 17.952 119.107 17.574 118.902C17.2007 118.692 16.916 118.414 16.72 118.069C16.5287 117.719 16.433 117.334 16.433 116.914C16.433 116.564 16.4867 116.244 16.594 115.955C16.7014 115.666 16.874 115.411 17.112 115.192C17.3547 114.968 17.679 114.781 18.085 114.632C18.365 114.529 18.6987 114.438 19.086 114.359C19.4734 114.28 19.912 114.205 20.402 114.135C20.892 114.06 21.431 113.979 22.019 113.89L21.333 114.268C21.333 113.82 21.2257 113.491 21.011 113.281C20.7964 113.071 20.437 112.966 19.933 112.966C19.653 112.966 19.3614 113.034 19.058 113.169C18.7547 113.304 18.5424 113.545 18.421 113.89L16.699 113.344C16.8904 112.719 17.2497 112.21 17.777 111.818C18.3044 111.426 19.023 111.23 19.933 111.23C20.6004 111.23 21.193 111.333 21.711 111.538C22.229 111.743 22.621 112.098 22.887 112.602C23.0364 112.882 23.125 113.162 23.153 113.442C23.181 113.722 23.195 114.035 23.195 114.38V119H21.529V117.446L21.767 117.768C21.3984 118.277 20.9994 118.645 20.57 118.874C20.1454 119.098 19.6064 119.21 18.953 119.21ZM19.359 117.712C19.709 117.712 20.003 117.651 20.241 117.53C20.4837 117.404 20.675 117.262 20.815 117.103C20.9597 116.944 21.0577 116.811 21.109 116.704C21.207 116.499 21.263 116.261 21.277 115.99C21.2957 115.715 21.305 115.486 21.305 115.304L21.865 115.444C21.3004 115.537 20.843 115.617 20.493 115.682C20.143 115.743 19.8607 115.799 19.646 115.85C19.4314 115.901 19.2424 115.957 19.079 116.018C18.8924 116.093 18.7407 116.174 18.624 116.263C18.512 116.347 18.428 116.44 18.372 116.543C18.3207 116.646 18.295 116.76 18.295 116.886C18.295 117.059 18.337 117.208 18.421 117.334C18.5097 117.455 18.6334 117.549 18.792 117.614C18.9507 117.679 19.1397 117.712 19.359 117.712ZM34.1152 119V114.534C34.1152 114.035 33.9962 113.647 33.7582 113.372C33.5248 113.092 33.2005 112.952 32.7852 112.952C32.5192 112.952 32.2882 113.015 32.0922 113.141C31.8962 113.262 31.7422 113.435 31.6302 113.659C31.5228 113.878 31.4692 114.133 31.4692 114.422L30.6712 113.89C30.6712 113.372 30.7925 112.915 31.0352 112.518C31.2825 112.121 31.6115 111.813 32.0222 111.594C32.4375 111.37 32.8972 111.258 33.4012 111.258C34.2645 111.258 34.9155 111.515 35.3542 112.028C35.7975 112.537 36.0192 113.204 36.0192 114.03V119H34.1152ZM25.0012 119V111.44H26.6812V113.946H26.9192V119H25.0012ZM29.5652 119V114.534C29.5652 114.035 29.4462 113.647 29.2082 113.372C28.9748 113.092 28.6505 112.952 28.2352 112.952C27.8385 112.952 27.5188 113.09 27.2762 113.365C27.0382 113.636 26.9192 113.988 26.9192 114.422L26.1212 113.862C26.1212 113.367 26.2448 112.924 26.4922 112.532C26.7395 112.14 27.0708 111.83 27.4862 111.601C27.9062 111.372 28.3752 111.258 28.8932 111.258C29.4858 111.258 29.9712 111.384 30.3492 111.636C30.7318 111.888 31.0142 112.224 31.1962 112.644C31.3782 113.064 31.4692 113.526 31.4692 114.03V119H29.5652ZM41.5494 119.21C40.798 119.21 40.1704 119.035 39.6664 118.685C39.1624 118.335 38.782 117.859 38.5254 117.257C38.2734 116.655 38.1474 115.976 38.1474 115.22C38.1474 114.464 38.2734 113.785 38.5254 113.183C38.7774 112.581 39.1484 112.105 39.6384 111.755C40.1284 111.405 40.7327 111.23 41.4514 111.23C42.1747 111.23 42.8047 111.403 43.3414 111.748C43.878 112.093 44.2934 112.567 44.5874 113.169C44.886 113.766 45.0354 114.45 45.0354 115.22C45.0354 115.976 44.8884 116.655 44.5944 117.257C44.305 117.859 43.899 118.335 43.3764 118.685C42.8537 119.035 42.2447 119.21 41.5494 119.21ZM37.8254 122.36V111.44H39.5054V116.62H39.7434V122.36H37.8254ZM41.2414 117.516C41.652 117.516 41.988 117.413 42.2494 117.208C42.5107 117.003 42.7044 116.727 42.8304 116.382C42.9564 116.032 43.0194 115.645 43.0194 115.22C43.0194 114.8 42.954 114.417 42.8234 114.072C42.6927 113.722 42.4897 113.444 42.2144 113.239C41.9437 113.029 41.596 112.924 41.1714 112.924C40.7747 112.924 40.4527 113.02 40.2054 113.211C39.9627 113.402 39.7854 113.671 39.6734 114.016C39.5614 114.361 39.5054 114.763 39.5054 115.22C39.5054 115.677 39.5614 116.079 39.6734 116.424C39.7854 116.769 39.9674 117.038 40.2194 117.229C40.476 117.42 40.8167 117.516 41.2414 117.516ZM46.7157 119V108.71H48.6197V119H46.7157ZM54.2323 119.21C53.4576 119.21 52.7739 119.044 52.1813 118.713C51.5933 118.377 51.1313 117.917 50.7953 117.334C50.4639 116.746 50.2983 116.074 50.2983 115.318C50.2983 114.492 50.4616 113.773 50.7883 113.162C51.1149 112.551 51.5653 112.077 52.1393 111.741C52.7133 111.4 53.3736 111.23 54.1203 111.23C54.9136 111.23 55.5879 111.417 56.1433 111.79C56.6986 112.163 57.1093 112.688 57.3753 113.365C57.6413 114.042 57.7346 114.837 57.6553 115.752H55.7723V115.052C55.7723 114.282 55.6486 113.729 55.4013 113.393C55.1586 113.052 54.7596 112.882 54.2043 112.882C53.5556 112.882 53.0773 113.08 52.7693 113.477C52.4659 113.869 52.3143 114.45 52.3143 115.22C52.3143 115.925 52.4659 116.471 52.7693 116.858C53.0773 117.241 53.5276 117.432 54.1203 117.432C54.4936 117.432 54.8133 117.35 55.0793 117.187C55.3453 117.024 55.5483 116.788 55.6883 116.48L57.5923 117.026C57.3076 117.717 56.8573 118.253 56.2413 118.636C55.6299 119.019 54.9603 119.21 54.2323 119.21ZM51.7263 115.752V114.338H56.7383V115.752H51.7263ZM156.834 142V137.534C156.834 137.035 156.715 136.647 156.477 136.372C156.244 136.092 155.919 135.952 155.504 135.952C155.238 135.952 155.007 136.015 154.811 136.141C154.615 136.262 154.461 136.435 154.349 136.659C154.242 136.878 154.188 137.133 154.188 137.422L153.39 136.89C153.39 136.372 153.511 135.915 153.754 135.518C154.001 135.121 154.33 134.813 154.741 134.594C155.156 134.37 155.616 134.258 156.12 134.258C156.983 134.258 157.634 134.515 158.073 135.028C158.516 135.537 158.738 136.204 158.738 137.03V142H156.834ZM147.72 142V134.44H149.4V136.946H149.638V142H147.72ZM152.284 142V137.534C152.284 137.035 152.165 136.647 151.927 136.372C151.694 136.092 151.369 135.952 150.954 135.952C150.557 135.952 150.238 136.09 149.995 136.365C149.757 136.636 149.638 136.988 149.638 137.422L148.84 136.862C148.84 136.367 148.964 135.924 149.211 135.532C149.458 135.14 149.79 134.83 150.205 134.601C150.625 134.372 151.094 134.258 151.612 134.258C152.205 134.258 152.69 134.384 153.068 134.636C153.451 134.888 153.733 135.224 153.915 135.644C154.097 136.064 154.188 136.526 154.188 137.03V142H152.284ZM163.935 142.21C163.161 142.21 162.477 142.044 161.884 141.713C161.296 141.377 160.834 140.917 160.498 140.334C160.167 139.746 160.001 139.074 160.001 138.318C160.001 137.492 160.165 136.773 160.491 136.162C160.818 135.551 161.268 135.077 161.842 134.741C162.416 134.4 163.077 134.23 163.823 134.23C164.617 134.23 165.291 134.417 165.846 134.79C166.402 135.163 166.812 135.688 167.078 136.365C167.344 137.042 167.438 137.837 167.358 138.752H165.475V138.052C165.475 137.282 165.352 136.729 165.104 136.393C164.862 136.052 164.463 135.882 163.907 135.882C163.259 135.882 162.78 136.08 162.472 136.477C162.169 136.869 162.017 137.45 162.017 138.22C162.017 138.925 162.169 139.471 162.472 139.858C162.78 140.241 163.231 140.432 163.823 140.432C164.197 140.432 164.516 140.35 164.782 140.187C165.048 140.024 165.251 139.788 165.391 139.48L167.295 140.026C167.011 140.717 166.56 141.253 165.944 141.636C165.333 142.019 164.663 142.21 163.935 142.21ZM161.429 138.752V137.338H166.441V138.752H161.429ZM177.834 142V137.534C177.834 137.035 177.715 136.647 177.477 136.372C177.244 136.092 176.919 135.952 176.504 135.952C176.238 135.952 176.007 136.015 175.811 136.141C175.615 136.262 175.461 136.435 175.349 136.659C175.242 136.878 175.188 137.133 175.188 137.422L174.39 136.89C174.39 136.372 174.511 135.915 174.754 135.518C175.001 135.121 175.33 134.813 175.741 134.594C176.156 134.37 176.616 134.258 177.12 134.258C177.983 134.258 178.634 134.515 179.073 135.028C179.516 135.537 179.738 136.204 179.738 137.03V142H177.834ZM168.72 142V134.44H170.4V136.946H170.638V142H168.72ZM173.284 142V137.534C173.284 137.035 173.165 136.647 172.927 136.372C172.694 136.092 172.369 135.952 171.954 135.952C171.557 135.952 171.238 136.09 170.995 136.365C170.757 136.636 170.638 136.988 170.638 137.422L169.84 136.862C169.84 136.367 169.964 135.924 170.211 135.532C170.458 135.14 170.79 134.83 171.205 134.601C171.625 134.372 172.094 134.258 172.612 134.258C173.205 134.258 173.69 134.384 174.068 134.636C174.451 134.888 174.733 135.224 174.915 135.644C175.097 136.064 175.188 136.526 175.188 137.03V142H173.284ZM184.823 142.21C184.063 142.21 183.395 142.04 182.821 141.699C182.247 141.358 181.799 140.889 181.477 140.292C181.16 139.69 181.001 138.999 181.001 138.22C181.001 137.431 181.165 136.738 181.491 136.141C181.818 135.539 182.268 135.07 182.842 134.734C183.416 134.398 184.077 134.23 184.823 134.23C185.584 134.23 186.251 134.4 186.825 134.741C187.404 135.082 187.854 135.553 188.176 136.155C188.498 136.752 188.659 137.441 188.659 138.22C188.659 139.004 188.496 139.697 188.169 140.299C187.847 140.896 187.397 141.365 186.818 141.706C186.244 142.042 185.579 142.21 184.823 142.21ZM184.823 140.432C185.435 140.432 185.89 140.227 186.188 139.816C186.492 139.401 186.643 138.869 186.643 138.22C186.643 137.548 186.489 137.011 186.181 136.61C185.878 136.209 185.425 136.008 184.823 136.008C184.408 136.008 184.067 136.101 183.801 136.288C183.535 136.475 183.337 136.734 183.206 137.065C183.08 137.396 183.017 137.781 183.017 138.22C183.017 138.897 183.169 139.436 183.472 139.837C183.78 140.234 184.231 140.432 184.823 140.432ZM190.199 142V134.44H191.879V136.288L191.697 136.05C191.795 135.789 191.925 135.551 192.089 135.336C192.252 135.121 192.453 134.944 192.691 134.804C192.873 134.692 193.071 134.606 193.286 134.545C193.5 134.48 193.722 134.44 193.951 134.426C194.179 134.407 194.408 134.412 194.637 134.44V136.218C194.427 136.153 194.182 136.132 193.902 136.155C193.626 136.174 193.377 136.237 193.153 136.344C192.929 136.447 192.74 136.584 192.586 136.757C192.432 136.925 192.315 137.126 192.236 137.359C192.156 137.588 192.117 137.847 192.117 138.136V142H190.199ZM196.661 145.36L198.117 141.356L198.145 142.532L194.855 134.44H196.829L199.041 140.166H198.593L200.791 134.44H202.695L198.425 145.36H196.661ZM211.018 142C210.495 142.098 209.982 142.14 209.478 142.126C208.979 142.117 208.531 142.03 208.134 141.867C207.742 141.699 207.443 141.431 207.238 141.062C207.051 140.717 206.953 140.367 206.944 140.012C206.935 139.653 206.93 139.247 206.93 138.794V132.34H208.834V138.682C208.834 138.976 208.836 139.242 208.841 139.48C208.85 139.713 208.899 139.9 208.988 140.04C209.156 140.306 209.424 140.451 209.793 140.474C210.162 140.497 210.57 140.479 211.018 140.418V142ZM205.642 135.91V134.44H211.018V135.91H205.642ZM215.695 142.21C214.934 142.21 214.267 142.04 213.693 141.699C213.119 141.358 212.671 140.889 212.349 140.292C212.031 139.69 211.873 138.999 211.873 138.22C211.873 137.431 212.036 136.738 212.363 136.141C212.689 135.539 213.14 135.07 213.714 134.734C214.288 134.398 214.948 134.23 215.695 134.23C216.455 134.23 217.123 134.4 217.697 134.741C218.275 135.082 218.726 135.553 219.048 136.155C219.37 136.752 219.531 137.441 219.531 138.22C219.531 139.004 219.367 139.697 219.041 140.299C218.719 140.896 218.268 141.365 217.69 141.706C217.116 142.042 216.451 142.21 215.695 142.21ZM215.695 140.432C216.306 140.432 216.761 140.227 217.06 139.816C217.363 139.401 217.515 138.869 217.515 138.22C217.515 137.548 217.361 137.011 217.053 136.61C216.749 136.209 216.297 136.008 215.695 136.008C215.279 136.008 214.939 136.101 214.673 136.288C214.407 136.475 214.208 136.734 214.078 137.065C213.952 137.396 213.889 137.781 213.889 138.22C213.889 138.897 214.04 139.436 214.344 139.837C214.652 140.234 215.102 140.432 215.695 140.432ZM227.205 142.21C226.421 142.21 225.749 142.035 225.189 141.685C224.629 141.335 224.199 140.859 223.901 140.257C223.602 139.655 223.453 138.976 223.453 138.22C223.453 137.455 223.607 136.771 223.915 136.169C224.227 135.567 224.666 135.093 225.231 134.748C225.795 134.403 226.463 134.23 227.233 134.23C228.124 134.23 228.871 134.456 229.473 134.909C230.079 135.357 230.467 135.971 230.635 136.75L228.731 137.254C228.619 136.862 228.423 136.556 228.143 136.337C227.867 136.118 227.555 136.008 227.205 136.008C226.803 136.008 226.474 136.106 226.218 136.302C225.961 136.493 225.772 136.757 225.651 137.093C225.529 137.424 225.469 137.8 225.469 138.22C225.469 138.878 225.613 139.412 225.903 139.823C226.197 140.229 226.631 140.432 227.205 140.432C227.634 140.432 227.961 140.334 228.185 140.138C228.409 139.942 228.577 139.662 228.689 139.298L230.635 139.704C230.42 140.507 230.014 141.125 229.417 141.559C228.819 141.993 228.082 142.21 227.205 142.21ZM232.035 142V134.44H233.715V136.288L233.533 136.05C233.631 135.789 233.761 135.551 233.925 135.336C234.088 135.121 234.289 134.944 234.527 134.804C234.709 134.692 234.907 134.606 235.122 134.545C235.336 134.48 235.558 134.44 235.787 134.426C236.015 134.407 236.244 134.412 236.473 134.44V136.218C236.263 136.153 236.018 136.132 235.738 136.155C235.462 136.174 235.213 136.237 234.989 136.344C234.765 136.447 234.576 136.584 234.422 136.757C234.268 136.925 234.151 137.126 234.072 137.359C233.992 137.588 233.953 137.847 233.953 138.136V142H232.035ZM241.182 142.21C240.407 142.21 239.723 142.044 239.131 141.713C238.543 141.377 238.081 140.917 237.745 140.334C237.413 139.746 237.248 139.074 237.248 138.318C237.248 137.492 237.411 136.773 237.738 136.162C238.064 135.551 238.515 135.077 239.089 134.741C239.663 134.4 240.323 134.23 241.07 134.23C241.863 134.23 242.537 134.417 243.093 134.79C243.648 135.163 244.059 135.688 244.325 136.365C244.591 137.042 244.684 137.837 244.605 138.752H242.722V138.052C242.722 137.282 242.598 136.729 242.351 136.393C242.108 136.052 241.709 135.882 241.154 135.882C240.505 135.882 240.027 136.08 239.719 136.477C239.415 136.869 239.264 137.45 239.264 138.22C239.264 138.925 239.415 139.471 239.719 139.858C240.027 140.241 240.477 140.432 241.07 140.432C241.443 140.432 241.763 140.35 242.029 140.187C242.295 140.024 242.498 139.788 242.638 139.48L244.542 140.026C244.257 140.717 243.807 141.253 243.191 141.636C242.579 142.019 241.91 142.21 241.182 142.21ZM238.676 138.752V137.338H243.688V138.752H238.676ZM248.148 142.21C247.607 142.21 247.147 142.107 246.769 141.902C246.396 141.692 246.111 141.414 245.915 141.069C245.724 140.719 245.628 140.334 245.628 139.914C245.628 139.564 245.682 139.244 245.789 138.955C245.897 138.666 246.069 138.411 246.307 138.192C246.55 137.968 246.874 137.781 247.28 137.632C247.56 137.529 247.894 137.438 248.281 137.359C248.669 137.28 249.107 137.205 249.597 137.135C250.087 137.06 250.626 136.979 251.214 136.89L250.528 137.268C250.528 136.82 250.421 136.491 250.206 136.281C249.992 136.071 249.632 135.966 249.128 135.966C248.848 135.966 248.557 136.034 248.253 136.169C247.95 136.304 247.738 136.545 247.616 136.89L245.894 136.344C246.086 135.719 246.445 135.21 246.972 134.818C247.5 134.426 248.218 134.23 249.128 134.23C249.796 134.23 250.388 134.333 250.906 134.538C251.424 134.743 251.816 135.098 252.082 135.602C252.232 135.882 252.32 136.162 252.348 136.442C252.376 136.722 252.39 137.035 252.39 137.38V142H250.724V140.446L250.962 140.768C250.594 141.277 250.195 141.645 249.765 141.874C249.341 142.098 248.802 142.21 248.148 142.21ZM248.554 140.712C248.904 140.712 249.198 140.651 249.436 140.53C249.679 140.404 249.87 140.262 250.01 140.103C250.155 139.944 250.253 139.811 250.304 139.704C250.402 139.499 250.458 139.261 250.472 138.99C250.491 138.715 250.5 138.486 250.5 138.304L251.06 138.444C250.496 138.537 250.038 138.617 249.688 138.682C249.338 138.743 249.056 138.799 248.841 138.85C248.627 138.901 248.438 138.957 248.274 139.018C248.088 139.093 247.936 139.174 247.819 139.263C247.707 139.347 247.623 139.44 247.567 139.543C247.516 139.646 247.49 139.76 247.49 139.886C247.49 140.059 247.532 140.208 247.616 140.334C247.705 140.455 247.829 140.549 247.987 140.614C248.146 140.679 248.335 140.712 248.554 140.712ZM258.746 142C258.224 142.098 257.71 142.14 257.206 142.126C256.707 142.117 256.259 142.03 255.862 141.867C255.47 141.699 255.172 141.431 254.966 141.062C254.78 140.717 254.682 140.367 254.672 140.012C254.663 139.653 254.658 139.247 254.658 138.794V132.34H256.562V138.682C256.562 138.976 256.565 139.242 256.569 139.48C256.579 139.713 256.628 139.9 256.716 140.04C256.884 140.306 257.153 140.451 257.521 140.474C257.89 140.497 258.298 140.479 258.746 140.418V142ZM253.37 135.91V134.44H258.746V135.91H253.37ZM263.535 142.21C262.76 142.21 262.077 142.044 261.484 141.713C260.896 141.377 260.434 140.917 260.098 140.334C259.767 139.746 259.601 139.074 259.601 138.318C259.601 137.492 259.764 136.773 260.091 136.162C260.418 135.551 260.868 135.077 261.442 134.741C262.016 134.4 262.676 134.23 263.423 134.23C264.216 134.23 264.891 134.417 265.446 134.79C266.001 135.163 266.412 135.688 266.678 136.365C266.944 137.042 267.037 137.837 266.958 138.752H265.075V138.052C265.075 137.282 264.951 136.729 264.704 136.393C264.461 136.052 264.062 135.882 263.507 135.882C262.858 135.882 262.38 136.08 262.072 136.477C261.769 136.869 261.617 137.45 261.617 138.22C261.617 138.925 261.769 139.471 262.072 139.858C262.38 140.241 262.83 140.432 263.423 140.432C263.796 140.432 264.116 140.35 264.382 140.187C264.648 140.024 264.851 139.788 264.991 139.48L266.895 140.026C266.61 140.717 266.16 141.253 265.544 141.636C264.933 142.019 264.263 142.21 263.535 142.21ZM261.029 138.752V137.338H266.041V138.752H261.029ZM273.441 142.21C272.9 142.21 272.44 142.107 272.062 141.902C271.689 141.692 271.404 141.414 271.208 141.069C271.017 140.719 270.921 140.334 270.921 139.914C270.921 139.564 270.975 139.244 271.082 138.955C271.19 138.666 271.362 138.411 271.6 138.192C271.843 137.968 272.167 137.781 272.573 137.632C272.853 137.529 273.187 137.438 273.574 137.359C273.962 137.28 274.4 137.205 274.89 137.135C275.38 137.06 275.919 136.979 276.507 136.89L275.821 137.268C275.821 136.82 275.714 136.491 275.499 136.281C275.285 136.071 274.925 135.966 274.421 135.966C274.141 135.966 273.85 136.034 273.546 136.169C273.243 136.304 273.031 136.545 272.909 136.89L271.187 136.344C271.379 135.719 271.738 135.21 272.265 134.818C272.793 134.426 273.511 134.23 274.421 134.23C275.089 134.23 275.681 134.333 276.199 134.538C276.717 134.743 277.109 135.098 277.375 135.602C277.525 135.882 277.613 136.162 277.641 136.442C277.669 136.722 277.683 137.035 277.683 137.38V142H276.017V140.446L276.255 140.768C275.887 141.277 275.488 141.645 275.058 141.874C274.634 142.098 274.095 142.21 273.441 142.21ZM273.847 140.712C274.197 140.712 274.491 140.651 274.729 140.53C274.972 140.404 275.163 140.262 275.303 140.103C275.448 139.944 275.546 139.811 275.597 139.704C275.695 139.499 275.751 139.261 275.765 138.99C275.784 138.715 275.793 138.486 275.793 138.304L276.353 138.444C275.789 138.537 275.331 138.617 274.981 138.682C274.631 138.743 274.349 138.799 274.134 138.85C273.92 138.901 273.731 138.957 273.567 139.018C273.381 139.093 273.229 139.174 273.112 139.263C273 139.347 272.916 139.44 272.86 139.543C272.809 139.646 272.783 139.76 272.783 139.886C272.783 140.059 272.825 140.208 272.909 140.334C272.998 140.455 273.122 140.549 273.28 140.614C273.439 140.679 273.628 140.712 273.847 140.712ZM287.458 142V138.43C287.458 138.257 287.449 138.038 287.43 137.772C287.412 137.501 287.353 137.231 287.255 136.96C287.157 136.689 286.996 136.463 286.772 136.281C286.553 136.099 286.24 136.008 285.834 136.008C285.671 136.008 285.496 136.034 285.309 136.085C285.123 136.136 284.948 136.237 284.784 136.386C284.621 136.531 284.486 136.745 284.378 137.03C284.276 137.315 284.224 137.693 284.224 138.164L283.132 137.646C283.132 137.049 283.254 136.489 283.496 135.966C283.739 135.443 284.103 135.021 284.588 134.699C285.078 134.377 285.694 134.216 286.436 134.216C287.029 134.216 287.512 134.316 287.885 134.517C288.259 134.718 288.548 134.972 288.753 135.28C288.963 135.588 289.113 135.91 289.201 136.246C289.29 136.577 289.344 136.881 289.362 137.156C289.381 137.431 289.39 137.632 289.39 137.758V142H287.458ZM282.292 142V134.44H283.986V136.946H284.224V142H282.292ZM294.584 142.21C293.809 142.21 293.126 142.044 292.533 141.713C291.945 141.377 291.483 140.917 291.147 140.334C290.816 139.746 290.65 139.074 290.65 138.318C290.65 137.492 290.813 136.773 291.14 136.162C291.467 135.551 291.917 135.077 292.491 134.741C293.065 134.4 293.725 134.23 294.472 134.23C295.265 134.23 295.94 134.417 296.495 134.79C297.05 135.163 297.461 135.688 297.727 136.365C297.993 137.042 298.086 137.837 298.007 138.752H296.124V138.052C296.124 137.282 296 136.729 295.753 136.393C295.51 136.052 295.111 135.882 294.556 135.882C293.907 135.882 293.429 136.08 293.121 136.477C292.818 136.869 292.666 137.45 292.666 138.22C292.666 138.925 292.818 139.471 293.121 139.858C293.429 140.241 293.879 140.432 294.472 140.432C294.845 140.432 295.165 140.35 295.431 140.187C295.697 140.024 295.9 139.788 296.04 139.48L297.944 140.026C297.659 140.717 297.209 141.253 296.593 141.636C295.982 142.019 295.312 142.21 294.584 142.21ZM292.078 138.752V137.338H297.09V138.752H292.078ZM300.924 142L298.614 134.426L300.476 134.44L301.848 138.948L303.241 134.44H304.823L306.216 138.948L307.588 134.44H309.45L307.14 142H305.684L304.032 137.072L302.38 142H300.924ZM3.024 165L0.28 157.44H2.184L3.976 162.676L5.768 157.44H7.672L4.928 165H3.024ZM10.6132 165.21C10.0719 165.21 9.6122 165.107 9.2342 164.902C8.86087 164.692 8.5762 164.414 8.3802 164.069C8.18887 163.719 8.0932 163.334 8.0932 162.914C8.0932 162.564 8.14687 162.244 8.2542 161.955C8.36154 161.666 8.5342 161.411 8.7722 161.192C9.01487 160.968 9.3392 160.781 9.7452 160.632C10.0252 160.529 10.3589 160.438 10.7462 160.359C11.1335 160.28 11.5722 160.205 12.0622 160.135C12.5522 160.06 13.0912 159.979 13.6792 159.89L12.9932 160.268C12.9932 159.82 12.8859 159.491 12.6712 159.281C12.4565 159.071 12.0972 158.966 11.5932 158.966C11.3132 158.966 11.0215 159.034 10.7182 159.169C10.4149 159.304 10.2025 159.545 10.0812 159.89L8.3592 159.344C8.55054 158.719 8.90987 158.21 9.4372 157.818C9.96454 157.426 10.6832 157.23 11.5932 157.23C12.2605 157.23 12.8532 157.333 13.3712 157.538C13.8892 157.743 14.2812 158.098 14.5472 158.602C14.6965 158.882 14.7852 159.162 14.8132 159.442C14.8412 159.722 14.8552 160.035 14.8552 160.38V165H13.1892V163.446L13.4272 163.768C13.0585 164.277 12.6595 164.645 12.2302 164.874C11.8055 165.098 11.2665 165.21 10.6132 165.21ZM11.0192 163.712C11.3692 163.712 11.6632 163.651 11.9012 163.53C12.1439 163.404 12.3352 163.262 12.4752 163.103C12.6199 162.944 12.7179 162.811 12.7692 162.704C12.8672 162.499 12.9232 162.261 12.9372 161.99C12.9559 161.715 12.9652 161.486 12.9652 161.304L13.5252 161.444C12.9605 161.537 12.5032 161.617 12.1532 161.682C11.8032 161.743 11.5209 161.799 11.3062 161.85C11.0915 161.901 10.9025 161.957 10.7392 162.018C10.5525 162.093 10.4009 162.174 10.2842 162.263C10.1722 162.347 10.0882 162.44 10.0322 162.543C9.98087 162.646 9.9552 162.76 9.9552 162.886C9.9552 163.059 9.9972 163.208 10.0812 163.334C10.1699 163.455 10.2935 163.549 10.4522 163.614C10.6109 163.679 10.7999 163.712 11.0192 163.712ZM16.6753 165V157.44H18.3553V159.288L18.1733 159.05C18.2713 158.789 18.402 158.551 18.5653 158.336C18.7286 158.121 18.9293 157.944 19.1673 157.804C19.3493 157.692 19.5476 157.606 19.7623 157.545C19.977 157.48 20.1986 157.44 20.4273 157.426C20.656 157.407 20.8846 157.412 21.1133 157.44V159.218C20.9033 159.153 20.6583 159.132 20.3783 159.155C20.103 159.174 19.8533 159.237 19.6293 159.344C19.4053 159.447 19.2163 159.584 19.0623 159.757C18.9083 159.925 18.7916 160.126 18.7123 160.359C18.633 160.588 18.5933 160.847 18.5933 161.136V165H16.6753ZM22.5848 156.39V154.71H24.4888V156.39H22.5848ZM22.5848 165V157.44H24.4888V165H22.5848ZM28.6874 165.21C28.1461 165.21 27.6864 165.107 27.3084 164.902C26.9351 164.692 26.6504 164.414 26.4544 164.069C26.2631 163.719 26.1674 163.334 26.1674 162.914C26.1674 162.564 26.2211 162.244 26.3284 161.955C26.4358 161.666 26.6084 161.411 26.8464 161.192C27.0891 160.968 27.4134 160.781 27.8194 160.632C28.0994 160.529 28.4331 160.438 28.8204 160.359C29.2078 160.28 29.6464 160.205 30.1364 160.135C30.6264 160.06 31.1654 159.979 31.7534 159.89L31.0674 160.268C31.0674 159.82 30.9601 159.491 30.7454 159.281C30.5308 159.071 30.1714 158.966 29.6674 158.966C29.3874 158.966 29.0958 159.034 28.7924 159.169C28.4891 159.304 28.2768 159.545 28.1554 159.89L26.4334 159.344C26.6248 158.719 26.9841 158.21 27.5114 157.818C28.0388 157.426 28.7574 157.23 29.6674 157.23C30.3348 157.23 30.9274 157.333 31.4454 157.538C31.9634 157.743 32.3554 158.098 32.6214 158.602C32.7708 158.882 32.8594 159.162 32.8874 159.442C32.9154 159.722 32.9294 160.035 32.9294 160.38V165H31.2634V163.446L31.5014 163.768C31.1328 164.277 30.7338 164.645 30.3044 164.874C29.8798 165.098 29.3408 165.21 28.6874 165.21ZM29.0934 163.712C29.4434 163.712 29.7374 163.651 29.9754 163.53C30.2181 163.404 30.4094 163.262 30.5494 163.103C30.6941 162.944 30.7921 162.811 30.8434 162.704C30.9414 162.499 30.9974 162.261 31.0114 161.99C31.0301 161.715 31.0394 161.486 31.0394 161.304L31.5994 161.444C31.0348 161.537 30.5774 161.617 30.2274 161.682C29.8774 161.743 29.5951 161.799 29.3804 161.85C29.1658 161.901 28.9768 161.957 28.8134 162.018C28.6268 162.093 28.4751 162.174 28.3584 162.263C28.2464 162.347 28.1624 162.44 28.1064 162.543C28.0551 162.646 28.0294 162.76 28.0294 162.886C28.0294 163.059 28.0714 163.208 28.1554 163.334C28.2441 163.455 28.3678 163.549 28.5264 163.614C28.6851 163.679 28.8741 163.712 29.0934 163.712ZM38.4595 165.21C37.7082 165.21 37.0805 165.035 36.5765 164.685C36.0725 164.335 35.6922 163.859 35.4355 163.257C35.1835 162.655 35.0575 161.976 35.0575 161.22C35.0575 160.464 35.1835 159.785 35.4355 159.183C35.6875 158.581 36.0585 158.105 36.5485 157.755C37.0385 157.405 37.6429 157.23 38.3615 157.23C39.0849 157.23 39.7149 157.403 40.2515 157.748C40.7882 158.093 41.2035 158.567 41.4975 159.169C41.7962 159.766 41.9455 160.45 41.9455 161.22C41.9455 161.976 41.7985 162.655 41.5045 163.257C41.2152 163.859 40.8092 164.335 40.2865 164.685C39.7639 165.035 39.1549 165.21 38.4595 165.21ZM34.7355 165V154.92H36.6535V159.82H36.4155V165H34.7355ZM38.1515 163.516C38.5622 163.516 38.8982 163.413 39.1595 163.208C39.4209 163.003 39.6145 162.727 39.7405 162.382C39.8665 162.032 39.9295 161.645 39.9295 161.22C39.9295 160.8 39.8642 160.417 39.7335 160.072C39.6029 159.722 39.3999 159.444 39.1245 159.239C38.8539 159.029 38.5062 158.924 38.0815 158.924C37.6849 158.924 37.3629 159.02 37.1155 159.211C36.8729 159.402 36.6955 159.671 36.5835 160.016C36.4715 160.361 36.4155 160.763 36.4155 161.22C36.4155 161.677 36.4715 162.079 36.5835 162.424C36.6955 162.769 36.8775 163.038 37.1295 163.229C37.3862 163.42 37.7269 163.516 38.1515 163.516ZM43.6259 165V154.71H45.5299V165H43.6259ZM51.1424 165.21C50.3678 165.21 49.6841 165.044 49.0914 164.713C48.5034 164.377 48.0414 163.917 47.7054 163.334C47.3741 162.746 47.2084 162.074 47.2084 161.318C47.2084 160.492 47.3718 159.773 47.6984 159.162C48.0251 158.551 48.4754 158.077 49.0494 157.741C49.6234 157.4 50.2838 157.23 51.0304 157.23C51.8238 157.23 52.4981 157.417 53.0534 157.79C53.6088 158.163 54.0194 158.688 54.2854 159.365C54.5514 160.042 54.6448 160.837 54.5654 161.752H52.6824V161.052C52.6824 160.282 52.5588 159.729 52.3114 159.393C52.0688 159.052 51.6698 158.882 51.1144 158.882C50.4658 158.882 49.9874 159.08 49.6794 159.477C49.3761 159.869 49.2244 160.45 49.2244 161.22C49.2244 161.925 49.3761 162.471 49.6794 162.858C49.9874 163.241 50.4378 163.432 51.0304 163.432C51.4038 163.432 51.7234 163.35 51.9894 163.187C52.2554 163.024 52.4584 162.788 52.5984 162.48L54.5024 163.026C54.2178 163.717 53.7674 164.253 53.1514 164.636C52.5401 165.019 51.8704 165.21 51.1424 165.21ZM48.6364 161.752V160.338H53.6484V161.752H48.6364ZM56.1806 165V163.096H58.0846V165H56.1806Z" fill="#FFD966"/>
<path d="M240.024 259L237.28 251.44H239.184L240.976 256.676L242.768 251.44H244.672L241.928 259H240.024ZM247.613 259.21C247.072 259.21 246.612 259.107 246.234 258.902C245.861 258.692 245.576 258.414 245.38 258.069C245.189 257.719 245.093 257.334 245.093 256.914C245.093 256.564 245.147 256.244 245.254 255.955C245.362 255.666 245.534 255.411 245.772 255.192C246.015 254.968 246.339 254.781 246.745 254.632C247.025 254.529 247.359 254.438 247.746 254.359C248.134 254.28 248.572 254.205 249.062 254.135C249.552 254.06 250.091 253.979 250.679 253.89L249.993 254.268C249.993 253.82 249.886 253.491 249.671 253.281C249.457 253.071 249.097 252.966 248.593 252.966C248.313 252.966 248.022 253.034 247.718 253.169C247.415 253.304 247.203 253.545 247.081 253.89L245.359 253.344C245.551 252.719 245.91 252.21 246.437 251.818C246.965 251.426 247.683 251.23 248.593 251.23C249.261 251.23 249.853 251.333 250.371 251.538C250.889 251.743 251.281 252.098 251.547 252.602C251.697 252.882 251.785 253.162 251.813 253.442C251.841 253.722 251.855 254.035 251.855 254.38V259H250.189V257.446L250.427 257.768C250.059 258.277 249.66 258.645 249.23 258.874C248.806 259.098 248.267 259.21 247.613 259.21ZM248.019 257.712C248.369 257.712 248.663 257.651 248.901 257.53C249.144 257.404 249.335 257.262 249.475 257.103C249.62 256.944 249.718 256.811 249.769 256.704C249.867 256.499 249.923 256.261 249.937 255.99C249.956 255.715 249.965 255.486 249.965 255.304L250.525 255.444C249.961 255.537 249.503 255.617 249.153 255.682C248.803 255.743 248.521 255.799 248.306 255.85C248.092 255.901 247.903 255.957 247.739 256.018C247.553 256.093 247.401 256.174 247.284 256.263C247.172 256.347 247.088 256.44 247.032 256.543C246.981 256.646 246.955 256.76 246.955 256.886C246.955 257.059 246.997 257.208 247.081 257.334C247.17 257.455 247.294 257.549 247.452 257.614C247.611 257.679 247.8 257.712 248.019 257.712ZM253.675 259V251.44H255.355V253.288L255.173 253.05C255.271 252.789 255.402 252.551 255.565 252.336C255.729 252.121 255.929 251.944 256.167 251.804C256.349 251.692 256.548 251.606 256.762 251.545C256.977 251.48 257.199 251.44 257.427 251.426C257.656 251.407 257.885 251.412 258.113 251.44V253.218C257.903 253.153 257.658 253.132 257.378 253.155C257.103 253.174 256.853 253.237 256.629 253.344C256.405 253.447 256.216 253.584 256.062 253.757C255.908 253.925 255.792 254.126 255.712 254.359C255.633 254.588 255.593 254.847 255.593 255.136V259H253.675ZM327.11 253.33V251.86H334.25V253.33H327.11ZM327.11 256.06V254.59H334.25V256.06H327.11ZM344.29 248.92L344.178 249.718C343.954 249.699 343.772 249.737 343.632 249.83C343.492 249.919 343.394 250.049 343.338 250.222C343.287 250.39 343.278 250.586 343.31 250.81H344.29V252.714H342.386V250.81C342.386 250.138 342.543 249.629 342.855 249.284C343.168 248.934 343.646 248.813 344.29 248.92ZM341.756 248.92L341.644 249.718C341.42 249.699 341.238 249.737 341.098 249.83C340.958 249.919 340.86 250.049 340.804 250.222C340.753 250.39 340.744 250.586 340.776 250.81H341.756V252.714H339.852V250.81C339.852 250.138 340.009 249.629 340.321 249.284C340.634 248.934 341.112 248.813 341.756 248.92ZM344.003 259L347.083 248.92H349.925L353.005 259H351.045L348.301 250.11H348.665L345.963 259H344.003ZM345.851 256.9V255.122H351.171V256.9H345.851ZM354.399 259V248.71H356.303V259H354.399ZM361.916 259.21C361.141 259.21 360.458 259.044 359.865 258.713C359.277 258.377 358.815 257.917 358.479 257.334C358.148 256.746 357.982 256.074 357.982 255.318C357.982 254.492 358.145 253.773 358.472 253.162C358.799 252.551 359.249 252.077 359.823 251.741C360.397 251.4 361.057 251.23 361.804 251.23C362.597 251.23 363.272 251.417 363.827 251.79C364.382 252.163 364.793 252.688 365.059 253.365C365.325 254.042 365.418 254.837 365.339 255.752H363.456V255.052C363.456 254.282 363.332 253.729 363.085 253.393C362.842 253.052 362.443 252.882 361.888 252.882C361.239 252.882 360.761 253.08 360.453 253.477C360.15 253.869 359.998 254.45 359.998 255.22C359.998 255.925 360.15 256.471 360.453 256.858C360.761 257.241 361.211 257.432 361.804 257.432C362.177 257.432 362.497 257.35 362.763 257.187C363.029 257.024 363.232 256.788 363.372 256.48L365.276 257.026C364.991 257.717 364.541 258.253 363.925 258.636C363.314 259.019 362.644 259.21 361.916 259.21ZM359.41 255.752V254.338H364.422V255.752H359.41ZM365.806 259L368.508 255.178L365.862 251.44H368.102L369.614 253.68L371.098 251.44H373.338L370.692 255.178L373.408 259H371.168L369.614 256.676L368.046 259H365.806ZM374.675 252.714L374.787 251.916C375.011 251.935 375.193 251.9 375.333 251.811C375.473 251.718 375.568 251.587 375.62 251.419C375.676 251.246 375.687 251.048 375.655 250.824H374.675V248.92H376.579V250.824C376.579 251.496 376.422 252.005 376.11 252.35C375.797 252.695 375.319 252.817 374.675 252.714ZM377.209 252.714L377.321 251.916C377.545 251.935 377.727 251.9 377.867 251.811C378.007 251.718 378.102 251.587 378.154 251.419C378.21 251.246 378.221 251.048 378.189 250.824H377.209V248.92H379.113V250.824C379.113 251.496 378.956 252.005 378.644 252.35C378.331 252.695 377.853 252.817 377.209 252.714ZM379.811 260.89L379.923 260.092C380.147 260.111 380.329 260.073 380.469 259.98C380.609 259.891 380.705 259.761 380.756 259.588C380.812 259.42 380.824 259.224 380.791 259H379.811V257.096H381.715V259C381.715 259.672 381.559 260.181 381.246 260.526C380.934 260.871 380.455 260.993 379.811 260.89ZM379.811 253.344V251.44H381.715V253.344H379.811Z" fill="white"/>
<path d="M264.348 259.21C263.806 259.21 263.347 259.107 262.969 258.902C262.595 258.692 262.311 258.414 262.115 258.069C261.923 257.719 261.828 257.334 261.828 256.914C261.828 256.564 261.881 256.244 261.989 255.955C262.096 255.666 262.269 255.411 262.507 255.192C262.749 254.968 263.074 254.781 263.48 254.632C263.76 254.529 264.093 254.438 264.481 254.359C264.868 254.28 265.307 254.205 265.797 254.135C266.287 254.06 266.826 253.979 267.414 253.89L266.728 254.268C266.728 253.82 266.62 253.491 266.406 253.281C266.191 253.071 265.832 252.966 265.328 252.966C265.048 252.966 264.756 253.034 264.453 253.169C264.149 253.304 263.937 253.545 263.816 253.89L262.094 253.344C262.285 252.719 262.644 252.21 263.172 251.818C263.699 251.426 264.418 251.23 265.328 251.23C265.995 251.23 266.588 251.333 267.106 251.538C267.624 251.743 268.016 252.098 268.282 252.602C268.431 252.882 268.52 253.162 268.548 253.442C268.576 253.722 268.59 254.035 268.59 254.38V259H266.924V257.446L267.162 257.768C266.793 258.277 266.394 258.645 265.965 258.874C265.54 259.098 265.001 259.21 264.348 259.21ZM264.754 257.712C265.104 257.712 265.398 257.651 265.636 257.53C265.878 257.404 266.07 257.262 266.21 257.103C266.354 256.944 266.452 256.811 266.504 256.704C266.602 256.499 266.658 256.261 266.672 255.99C266.69 255.715 266.7 255.486 266.7 255.304L267.26 255.444C266.695 255.537 266.238 255.617 265.888 255.682C265.538 255.743 265.255 255.799 265.041 255.85C264.826 255.901 264.637 255.957 264.474 256.018C264.287 256.093 264.135 256.174 264.019 256.263C263.907 256.347 263.823 256.44 263.767 256.543C263.715 256.646 263.69 256.76 263.69 256.886C263.69 257.059 263.732 257.208 263.816 257.334C263.904 257.455 264.028 257.549 264.187 257.614C264.345 257.679 264.534 257.712 264.754 257.712ZM274.12 259.21C273.368 259.21 272.741 259.035 272.237 258.685C271.733 258.335 271.352 257.859 271.096 257.257C270.844 256.655 270.718 255.976 270.718 255.22C270.718 254.464 270.844 253.785 271.096 253.183C271.348 252.581 271.719 252.105 272.209 251.755C272.699 251.405 273.303 251.23 274.022 251.23C274.745 251.23 275.375 251.403 275.912 251.748C276.448 252.093 276.864 252.567 277.158 253.169C277.456 253.766 277.606 254.45 277.606 255.22C277.606 255.976 277.459 256.655 277.165 257.257C276.875 257.859 276.469 258.335 275.947 258.685C275.424 259.035 274.815 259.21 274.12 259.21ZM270.396 259V248.92H272.314V253.82H272.076V259H270.396ZM273.812 257.516C274.222 257.516 274.558 257.413 274.82 257.208C275.081 257.003 275.275 256.727 275.401 256.382C275.527 256.032 275.59 255.645 275.59 255.22C275.59 254.8 275.524 254.417 275.394 254.072C275.263 253.722 275.06 253.444 274.785 253.239C274.514 253.029 274.166 252.924 273.742 252.924C273.345 252.924 273.023 253.02 272.776 253.211C272.533 253.402 272.356 253.671 272.244 254.016C272.132 254.361 272.076 254.763 272.076 255.22C272.076 255.677 272.132 256.079 272.244 256.424C272.356 256.769 272.538 257.038 272.79 257.229C273.046 257.42 273.387 257.516 273.812 257.516ZM282.548 259.21C281.787 259.21 281.12 259.04 280.546 258.699C279.972 258.358 279.524 257.889 279.202 257.292C278.885 256.69 278.726 255.999 278.726 255.22C278.726 254.431 278.889 253.738 279.216 253.141C279.543 252.539 279.993 252.07 280.567 251.734C281.141 251.398 281.801 251.23 282.548 251.23C283.309 251.23 283.976 251.4 284.55 251.741C285.129 252.082 285.579 252.553 285.901 253.155C286.223 253.752 286.384 254.441 286.384 255.22C286.384 256.004 286.221 256.697 285.894 257.299C285.572 257.896 285.122 258.365 284.543 258.706C283.969 259.042 283.304 259.21 282.548 259.21ZM282.548 257.432C283.159 257.432 283.614 257.227 283.913 256.816C284.216 256.401 284.368 255.869 284.368 255.22C284.368 254.548 284.214 254.011 283.906 253.61C283.603 253.209 283.15 253.008 282.548 253.008C282.133 253.008 281.792 253.101 281.526 253.288C281.26 253.475 281.062 253.734 280.931 254.065C280.805 254.396 280.742 254.781 280.742 255.22C280.742 255.897 280.894 256.436 281.197 256.837C281.505 257.234 281.955 257.432 282.548 257.432ZM290.737 259.224C290.145 259.224 289.662 259.124 289.288 258.923C288.915 258.722 288.623 258.468 288.413 258.16C288.208 257.852 288.061 257.532 287.972 257.201C287.884 256.865 287.83 256.559 287.811 256.284C287.793 256.009 287.783 255.808 287.783 255.682V251.44H289.715V255.01C289.715 255.183 289.725 255.404 289.743 255.675C289.762 255.941 289.82 256.209 289.918 256.48C290.016 256.751 290.175 256.977 290.394 257.159C290.618 257.341 290.933 257.432 291.339 257.432C291.503 257.432 291.678 257.406 291.864 257.355C292.051 257.304 292.226 257.206 292.389 257.061C292.553 256.912 292.686 256.695 292.788 256.41C292.896 256.121 292.949 255.743 292.949 255.276L294.041 255.794C294.041 256.391 293.92 256.951 293.677 257.474C293.435 257.997 293.068 258.419 292.578 258.741C292.093 259.063 291.479 259.224 290.737 259.224ZM293.187 259V256.494H292.949V251.44H294.867V259H293.187ZM301.36 259C300.837 259.098 300.324 259.14 299.82 259.126C299.32 259.117 298.872 259.03 298.476 258.867C298.084 258.699 297.785 258.431 297.58 258.062C297.393 257.717 297.295 257.367 297.286 257.012C297.276 256.653 297.272 256.247 297.272 255.794V249.34H299.176V255.682C299.176 255.976 299.178 256.242 299.183 256.48C299.192 256.713 299.241 256.9 299.33 257.04C299.498 257.306 299.766 257.451 300.135 257.474C300.503 257.497 300.912 257.479 301.36 257.418V259ZM295.984 252.91V251.44H301.36V252.91H295.984ZM303.044 259V248.92H304.752L308.084 255.612L311.416 248.92H313.124V259H311.346V252.98L308.42 259H307.748L304.822 252.98V259H303.044ZM318.603 259.21C317.829 259.21 317.145 259.044 316.552 258.713C315.964 258.377 315.502 257.917 315.166 257.334C314.835 256.746 314.669 256.074 314.669 255.318C314.669 254.492 314.833 253.773 315.159 253.162C315.486 252.551 315.936 252.077 316.51 251.741C317.084 251.4 317.745 251.23 318.491 251.23C319.285 251.23 319.959 251.417 320.514 251.79C321.07 252.163 321.48 252.688 321.746 253.365C322.012 254.042 322.106 254.837 322.026 255.752H320.143V255.052C320.143 254.282 320.02 253.729 319.772 253.393C319.53 253.052 319.131 252.882 318.575 252.882C317.927 252.882 317.448 253.08 317.14 253.477C316.837 253.869 316.685 254.45 316.685 255.22C316.685 255.925 316.837 256.471 317.14 256.858C317.448 257.241 317.899 257.432 318.491 257.432C318.865 257.432 319.184 257.35 319.45 257.187C319.716 257.024 319.919 256.788 320.059 256.48L321.963 257.026C321.679 257.717 321.228 258.253 320.612 258.636C320.001 259.019 319.331 259.21 318.603 259.21ZM316.097 255.752V254.338H321.109V255.752H316.097Z" fill="#FFD966"/>
<path d="M505.92 197.495L451.165 179.384L472.93 162.235L524.256 176.389L505.92 197.495Z" fill="#A1BBC6"/>
<path d="M524.255 176.389V178.091L505.92 199.368V197.495L524.255 176.389Z" fill="#678289"/>
<path d="M505.92 199.368V197.495L451.165 179.384V181.217L505.92 199.368Z" fill="#BACCD3"/>
<path d="M502.121 170.308L522.857 176.02L507.424 177.787L502.213 180.307L502.121 170.308Z" fill="#8EA8AF"/>
<path d="M476.373 151.076L480.515 173.975L502.214 180.307L498.401 157.803L476.373 151.076Z" fill="#7C99A3"/>
<path d="M501.923 166.483L504.1 178.487L502.213 180.307L499.615 166.879L501.923 166.483Z" fill="#678289"/>
<path d="M539.57 178.671L438 151.3V86.5325L539.57 107.968V178.671Z" fill="#37BBEF"/>
<path d="M542.868 173.329L539.57 178.671V107.968L543 104.34L542.868 173.329Z" fill="#678289"/>
<path d="M543 104.34L442.933 84L438 86.5327L539.57 107.968L543 104.34Z" fill="#A1BBC6"/>
<path d="M438 86.5325V151.3L539.57 178.671V107.968L438 86.5325ZM537.671 167.855L439.266 142.462V88.1286L537.671 109.366V167.855Z" fill="#BACCD3"/>
<path d="M535.191 169.715V171.957L529.98 170.506V168.33L535.191 169.715Z" fill="white"/>
<path d="M534.557 170.084V171.258L530.613 170.15V169.029L534.557 170.084Z" fill="#113B42"/>
<path d="M526.854 167.538V169.78L521.644 168.329V166.153L526.854 167.538Z" fill="white"/>
<path d="M526.393 167.947V169.2L522.105 168V166.813L526.393 167.947Z" fill="#113B42"/>
<path d="M535.521 166.958L507.424 102.876L537.644 109.379L537.631 167.551L535.521 166.958Z" fill="#3ED6FF"/>
<path d="M388.5 59C388.5 58.4477 388.052 58 387.5 58C386.948 58 386.5 58.4477 386.5 59H388.5ZM437.207 113.207C437.598 112.817 437.598 112.183 437.207 111.793L430.843 105.429C430.453 105.038 429.819 105.038 429.429 105.429C429.038 105.819 429.038 106.453 429.429 106.843L435.086 112.5L429.429 118.157C429.038 118.547 429.038 119.181 429.429 119.571C429.819 119.962 430.453 119.962 430.843 119.571L437.207 113.207ZM386.5 59V102.5H388.5V59H386.5ZM397.5 113.5H436.5V111.5H397.5V113.5ZM386.5 102.5C386.5 108.575 391.425 113.5 397.5 113.5V111.5C392.529 111.5 388.5 107.471 388.5 102.5H386.5Z" fill="white"/>
<path d="M183 148C183 147.448 182.552 147 182 147C181.448 147 181 147.448 181 148H183ZM210.707 193.207C211.098 192.817 211.098 192.183 210.707 191.793L204.343 185.429C203.953 185.038 203.319 185.038 202.929 185.429C202.538 185.819 202.538 186.453 202.929 186.843L208.586 192.5L202.929 198.157C202.538 198.547 202.538 199.181 202.929 199.571C203.319 199.962 203.953 199.962 204.343 199.571L210.707 193.207ZM181 148V182.5H183V148H181ZM192 193.5H210V191.5H192V193.5ZM181 182.5C181 188.575 185.925 193.5 192 193.5V191.5C187.029 191.5 183 187.471 183 182.5H181Z" fill="#FFD966"/>
<path d="M614 126C614 125.448 613.552 125 613 125C612.448 125 612 125.448 612 126H614ZM544.293 158.293C543.902 158.683 543.902 159.317 544.293 159.707L550.657 166.071C551.047 166.462 551.681 166.462 552.071 166.071C552.462 165.681 552.462 165.047 552.071 164.657L546.414 159L552.071 153.343C552.462 152.953 552.462 152.319 552.071 151.929C551.681 151.538 551.047 151.538 550.657 151.929L544.293 158.293ZM612 126V149H614V126H612ZM603 158H545V160H603V158ZM612 149C612 153.971 607.971 158 603 158V160C609.075 160 614 155.075 614 149H612Z" fill="white"/>
<path d="M609.018 128L582 114.778V102.592L609.018 114.778V128Z" fill="#37BBEF"/>
<path d="M609.019 128L633.162 114.778V102.706L609.019 114.778V128Z" fill="#2481BA"/>
<path d="M582 102.591L609.018 114.778L633.162 102.706L604.741 93.1294L582 102.591Z" fill="#3ED6FF"/>
<path d="M609.018 113.686L582 101.442V89.7147L609.018 100.464V113.686Z" fill="#37BBEF"/>
<path d="M609.019 113.686L633.162 101.614V89.7147L609.019 100.464V113.686Z" fill="#2481BA"/>
<path d="M582 89.7148L609.018 100.465L633.162 89.7148L604.741 81L582 89.7148Z" fill="#3ED6FF"/>
<path d="M606.086 122.119L584.069 111.657V107.231L606.086 117.406V122.119ZM606.086 108.495L584.069 99.0102V94.5839L606.086 103.782V108.495Z" fill="#113B42"/>
<path d="M585.306 96.5728L588.973 98.1191V99.7287L585.306 98.1823V96.5728ZM590.272 100.269L593.94 101.815V100.217L590.272 98.671V100.269ZM595.233 102.362L598.901 103.908V102.31L595.233 100.763V102.362ZM600.194 102.856V104.448L603.862 105.995V104.402L600.194 102.856ZM585.306 109.162L588.973 110.869V112.525L585.306 110.772V109.162ZM590.272 113.146L593.94 114.899V113.175L590.272 111.467V113.146ZM595.233 115.52L598.901 117.273V115.48L595.233 113.772V115.52ZM600.194 116.083V117.888L603.862 119.642V117.785L600.194 116.083Z" fill="white"/>
<path d="M397.018 63.0001L370 49.7784V37.5916L397.018 49.7784V63.0001Z" fill="#37BBEF"/>
<path d="M397.019 63L421.162 49.7783V37.7064L397.019 49.7783V63Z" fill="#2481BA"/>
<path d="M370 37.5915L397.018 49.7784L421.162 37.7064L392.741 28.1294L370 37.5915Z" fill="#3ED6FF"/>
<path d="M397.018 48.6861L370 36.4417V24.7147L397.018 35.4645V48.6861Z" fill="#37BBEF"/>
<path d="M397.019 48.6861L421.162 36.6142V24.7147L397.019 35.4645V48.6861Z" fill="#2481BA"/>
<path d="M370 24.7148L397.018 35.4645L421.162 24.7148L392.741 16L370 24.7148Z" fill="#3ED6FF"/>
<path d="M394.086 57.1193L372.069 46.657V42.2306L394.086 52.4055V57.1193ZM394.086 43.4953L372.069 34.0102V29.5839L394.086 38.7815V43.4953Z" fill="#113B42"/>
<path d="M373.306 31.5728L376.973 33.1191V34.7287L373.306 33.1823V31.5728ZM378.272 35.2691L381.94 36.8154V35.2173L378.272 33.671V35.2691ZM383.233 37.3615L386.901 38.9079V37.3098L383.233 35.7634V37.3615ZM388.194 37.8559V39.4482L391.862 40.9946V39.4023L388.194 37.8559ZM373.306 44.162L376.973 45.8694V47.5249L373.306 45.7716V44.162ZM378.272 48.1458L381.94 49.8991V48.1745L378.272 46.4672V48.1458ZM383.233 50.5199L386.901 52.2732V50.4797L383.233 48.7724V50.5199ZM388.194 51.0833V52.8883L391.862 54.6416V52.7848L388.194 51.0833Z" fill="white"/>
<path d="M242.018 217L215 203.778V191.592L242.018 203.778V217Z" fill="#37BBEF"/>
<path d="M242.019 217L266.162 203.778V191.706L242.019 203.778V217Z" fill="#2481BA"/>
<path d="M215 191.591L242.018 203.778L266.162 191.706L237.741 182.129L215 191.591Z" fill="#3ED6FF"/>
<path d="M242.018 202.686L215 190.442V178.715L242.018 189.464V202.686Z" fill="#37BBEF"/>
<path d="M242.019 202.686L266.162 190.614V178.715L242.019 189.464V202.686Z" fill="#2481BA"/>
<path d="M215 178.715L242.018 189.465L266.162 178.715L237.741 170L215 178.715Z" fill="#3ED6FF"/>
<path d="M239.086 211.119L217.069 200.657V196.231L239.086 206.406V211.119ZM239.086 197.495L217.069 188.01V183.584L239.086 192.782V197.495Z" fill="#113B42"/>
<path d="M218.306 185.573L221.973 187.119V188.729L218.306 187.182V185.573ZM223.272 189.269L226.94 190.815V189.217L223.272 187.671V189.269ZM228.233 191.362L231.901 192.908V191.31L228.233 189.763V191.362ZM233.194 191.856V193.448L236.862 194.995V193.402L233.194 191.856ZM218.306 198.162L221.973 199.869V201.525L218.306 199.772V198.162ZM223.272 202.146L226.94 203.899V202.175L223.272 200.467V202.146ZM228.233 204.52L231.901 206.273V204.48L228.233 202.772V204.52ZM233.194 205.083V206.888L236.862 208.642V206.785L233.194 205.083Z" fill="white"/>
<path d="M480 233.5C479.448 233.5 479 233.948 479 234.5C479 235.052 479.448 235.5 480 235.5V233.5ZM516.707 189.793C516.317 189.402 515.683 189.402 515.293 189.793L508.929 196.157C508.538 196.547 508.538 197.181 508.929 197.571C509.319 197.962 509.953 197.962 510.343 197.571L516 191.914L521.657 197.571C522.047 197.962 522.681 197.962 523.071 197.571C523.462 197.181 523.462 196.547 523.071 196.157L516.707 189.793ZM480 235.5H506V233.5H480V235.5ZM517 224.5V190.5H515V224.5H517ZM506 235.5C512.075 235.5 517 230.575 517 224.5H515C515 229.471 510.971 233.5 506 233.5V235.5Z" fill="white"/>
<path d="M455.018 262L428 248.778V236.592L455.018 248.778V262Z" fill="#37BBEF"/>
<path d="M455.019 262L479.162 248.778V236.706L455.019 248.778V262Z" fill="#2481BA"/>
<path d="M428 236.591L455.018 248.778L479.162 236.706L450.741 227.129L428 236.591Z" fill="#3ED6FF"/>
<path d="M455.018 247.686L428 235.442V223.715L455.018 234.464V247.686Z" fill="#37BBEF"/>
<path d="M455.019 247.686L479.162 235.614V223.715L455.019 234.464V247.686Z" fill="#2481BA"/>
<path d="M428 223.715L455.018 234.465L479.162 223.715L450.741 215L428 223.715Z" fill="#3ED6FF"/>
<path d="M452.086 256.119L430.069 245.657V241.231L452.086 251.406V256.119ZM452.086 242.495L430.069 233.01V228.584L452.086 237.782V242.495Z" fill="#113B42"/>
<path d="M431.306 230.573L434.973 232.119V233.729L431.306 232.182V230.573ZM436.272 234.269L439.94 235.815V234.217L436.272 232.671V234.269ZM441.233 236.362L444.901 237.908V236.31L441.233 234.763V236.362ZM446.194 236.856V238.448L449.862 239.995V238.402L446.194 236.856ZM431.306 243.162L434.973 244.869V246.525L431.306 244.772V243.162ZM436.272 247.146L439.94 248.899V247.175L436.272 245.467V247.146ZM441.233 249.52L444.901 251.273V249.48L441.233 247.772V249.52ZM446.194 250.083V251.888L449.862 253.642V251.785L446.194 250.083Z" fill="white"/>
<path d="M276.5 58C276.5 58.5523 276.948 59 277.5 59C278.052 59 278.5 58.5523 278.5 58H276.5ZM364.207 33.7071C364.598 33.3166 364.598 32.6834 364.207 32.2929L357.843 25.9289C357.453 25.5384 356.819 25.5384 356.429 25.9289C356.038 26.3195 356.038 26.9526 356.429 27.3431L362.086 33L356.429 38.6569C356.038 39.0474 356.038 39.6805 356.429 40.0711C356.819 40.4616 357.453 40.4616 357.843 40.0711L364.207 33.7071ZM278.5 58V43H276.5V58H278.5ZM287.5 34H363.5V32H287.5V34ZM278.5 43C278.5 38.0294 282.529 34 287.5 34V32C281.425 32 276.5 36.9249 276.5 43H278.5Z" fill="#FFD966"/>
<path d="M266.5 81.5C266.5 80.9477 266.052 80.5 265.5 80.5C264.948 80.5 264.5 80.9477 264.5 81.5H266.5ZM427.707 232.707C428.098 232.317 428.098 231.683 427.707 231.293L421.343 224.929C420.953 224.538 420.319 224.538 419.929 224.929C419.538 225.319 419.538 225.953 419.929 226.343L425.586 232L419.929 237.657C419.538 238.047 419.538 238.681 419.929 239.071C420.319 239.462 420.953 239.462 421.343 239.071L427.707 232.707ZM264.5 81.5V97H266.5V81.5H264.5ZM275.5 108H350.5V106H275.5V108ZM359.5 117V222H361.5V117H359.5ZM370.5 233H427V231H370.5V233ZM359.5 222C359.5 228.075 364.425 233 370.5 233V231C365.529 231 361.5 226.971 361.5 222H359.5ZM350.5 108C355.471 108 359.5 112.029 359.5 117H361.5C361.5 110.925 356.575 106 350.5 106V108ZM264.5 97C264.5 103.075 269.425 108 275.5 108V106C270.529 106 266.5 101.971 266.5 97H264.5Z" fill="#FFD966"/>
<path d="M320 31.5C320 32.0523 320.448 32.5 321 32.5C321.552 32.5 322 32.0523 322 31.5H320ZM587.293 84.2071C587.683 84.5976 588.317 84.5976 588.707 84.2071L595.071 77.8431C595.462 77.4526 595.462 76.8195 595.071 76.4289C594.681 76.0384 594.047 76.0384 593.657 76.4289L588 82.0858L582.343 76.4289C581.953 76.0384 581.319 76.0384 580.929 76.4289C580.538 76.8195 580.538 77.4526 580.929 77.8431L587.293 84.2071ZM322 31.5V11H320V31.5H322ZM331 2H578V0H331V2ZM587 11V83.5H589V11H587ZM578 2C582.971 2 587 6.02944 587 11H589C589 4.92487 584.075 0 578 0V2ZM322 11C322 6.02944 326.029 2 331 2V0C324.925 0 320 4.92487 320 11H322Z" fill="#FFD966"/>
<path d="M271.5 193C270.948 193 270.5 193.448 270.5 194C270.5 194.552 270.948 195 271.5 195V193ZM288.793 236.207C289.183 236.598 289.817 236.598 290.207 236.207L296.571 229.843C296.962 229.453 296.962 228.819 296.571 228.429C296.181 228.038 295.547 228.038 295.157 228.429L289.5 234.086L283.843 228.429C283.453 228.038 282.819 228.038 282.429 228.429C282.038 228.819 282.038 229.453 282.429 229.843L288.793 236.207ZM271.5 195H279.5V193H271.5V195ZM288.5 204V235.5H290.5V204H288.5ZM279.5 195C284.471 195 288.5 199.029 288.5 204H290.5C290.5 197.925 285.575 193 279.5 193V195Z" fill="white"/>
</svg>
