<svg width="756" height="285" viewBox="0 0 756 285" fill="none" xmlns="http://www.w3.org/2000/svg">
<path fill-rule="evenodd" clip-rule="evenodd" d="M85.6 0H0V107H107V21.4L85.6 0Z" fill="#F9D363"/>
<path d="M85.6 -7.59289e-06L107 21.4L85.6 21.4L85.6 -7.59289e-06Z" fill="#D7B755"/>
<path d="M39.3231 51V39.48H46.8431V41.512H41.4991V43.976H45.8831V46.008H41.4991V48.968H46.8431V51H39.3231ZM53.1126 51.24C52.2593 51.24 51.4886 51.0907 50.8006 50.792C50.118 50.488 49.5553 50.056 49.1126 49.496C48.6753 48.9307 48.398 48.2587 48.2806 47.48L50.5526 47.144C50.7126 47.8053 51.0433 48.3147 51.5446 48.672C52.046 49.0293 52.6166 49.208 53.2566 49.208C53.614 49.208 53.9606 49.152 54.2966 49.04C54.6326 48.928 54.9073 48.7627 55.1206 48.544C55.3393 48.3253 55.4486 48.056 55.4486 47.736C55.4486 47.6187 55.43 47.5067 55.3926 47.4C55.3606 47.288 55.3046 47.184 55.2246 47.088C55.1446 46.992 55.03 46.9013 54.8806 46.816C54.7366 46.7307 54.5526 46.6533 54.3286 46.584L51.3366 45.704C51.1126 45.64 50.8513 45.5493 50.5526 45.432C50.2593 45.3147 49.974 45.1467 49.6966 44.928C49.4193 44.7093 49.1873 44.4213 49.0006 44.064C48.8193 43.7013 48.7286 43.2453 48.7286 42.696C48.7286 41.9227 48.9233 41.28 49.3126 40.768C49.702 40.256 50.222 39.8747 50.8726 39.624C51.5233 39.3733 52.2433 39.2507 53.0326 39.256C53.8273 39.2667 54.5366 39.4027 55.1606 39.664C55.7846 39.9253 56.3073 40.3067 56.7286 40.808C57.15 41.304 57.454 41.912 57.6406 42.632L55.2886 43.032C55.2033 42.6587 55.046 42.344 54.8166 42.088C54.5873 41.832 54.3126 41.6373 53.9926 41.504C53.678 41.3707 53.3473 41.2987 53.0006 41.288C52.6593 41.2773 52.3366 41.3253 52.0326 41.432C51.734 41.5333 51.4886 41.6827 51.2966 41.88C51.11 42.0773 51.0166 42.312 51.0166 42.584C51.0166 42.8347 51.094 43.04 51.2486 43.2C51.4033 43.3547 51.598 43.48 51.8326 43.576C52.0673 43.672 52.3073 43.752 52.5526 43.816L54.5526 44.36C54.8513 44.44 55.182 44.5467 55.5446 44.68C55.9073 44.808 56.254 44.9893 56.5846 45.224C56.9206 45.4533 57.1953 45.7573 57.4086 46.136C57.6273 46.5147 57.7366 46.9947 57.7366 47.576C57.7366 48.1947 57.606 48.736 57.3446 49.2C57.0886 49.6587 56.742 50.04 56.3046 50.344C55.8673 50.6427 55.3713 50.8667 54.8166 51.016C54.2673 51.1653 53.6993 51.24 53.1126 51.24ZM62.919 51.24C62.3377 51.24 61.791 51.12 61.279 50.88C60.7723 50.64 60.335 50.3067 59.967 49.88C59.599 49.4533 59.335 48.9573 59.175 48.392L61.271 47.832C61.3403 48.104 61.463 48.3387 61.639 48.536C61.8203 48.7333 62.0283 48.888 62.263 49C62.503 49.1067 62.7483 49.16 62.999 49.16C63.3297 49.16 63.631 49.08 63.903 48.92C64.1803 48.76 64.399 48.544 64.559 48.272C64.7243 48 64.807 47.6987 64.807 47.368C64.807 47.0373 64.7243 46.736 64.559 46.464C64.399 46.192 64.1803 45.976 63.903 45.816C63.631 45.656 63.3297 45.576 62.999 45.576C62.5937 45.576 62.263 45.6453 62.007 45.784C61.751 45.9173 61.559 46.0453 61.431 46.168L59.591 45.608L59.943 39.48H66.231V41.512H61.143L61.911 40.792L61.671 44.744L61.303 44.296C61.591 44.0613 61.919 43.8907 62.287 43.784C62.655 43.6773 62.999 43.624 63.319 43.624C64.0443 43.624 64.6817 43.7867 65.231 44.112C65.7857 44.432 66.2177 44.8747 66.527 45.44C66.8417 46 66.999 46.6427 66.999 47.368C66.999 48.0933 66.8097 48.7493 66.431 49.336C66.0523 49.9173 65.5537 50.3813 64.935 50.728C64.3163 51.0693 63.6443 51.24 62.919 51.24ZM7.20594 73V61.48H14.7259V63.512H9.38194V65.976H13.7659V68.008H9.38194V70.968H14.7259V73H7.20594ZM21.1812 73.24C20.0292 73.24 19.0345 72.9893 18.1972 72.488C17.3652 71.9867 16.7225 71.2853 16.2692 70.384C15.8212 69.4827 15.5972 68.4347 15.5972 67.24C15.5972 66.0453 15.8212 64.9973 16.2692 64.096C16.7225 63.1947 17.3652 62.4933 18.1972 61.992C19.0345 61.4907 20.0292 61.24 21.1812 61.24C22.5039 61.24 23.6132 61.568 24.5092 62.224C25.4105 62.88 26.0452 63.768 26.4132 64.888L24.2212 65.496C24.0079 64.7973 23.6479 64.256 23.1412 63.872C22.6345 63.4827 21.9812 63.288 21.1812 63.288C20.4505 63.288 19.8399 63.4507 19.3492 63.776C18.8639 64.1013 18.4985 64.56 18.2532 65.152C18.0079 65.744 17.8852 66.44 17.8852 67.24C17.8852 68.04 18.0079 68.736 18.2532 69.328C18.4985 69.92 18.8639 70.3787 19.3492 70.704C19.8399 71.0293 20.4505 71.192 21.1812 71.192C21.9812 71.192 22.6345 70.9973 23.1412 70.608C23.6479 70.2187 24.0079 69.6773 24.2212 68.984L26.4132 69.592C26.0452 70.712 25.4105 71.6 24.5092 72.256C23.6132 72.912 22.5039 73.24 21.1812 73.24ZM28.1747 73V61.48H30.1267L33.9347 69.128L37.7427 61.48H39.6947V73H37.6627V66.12L34.3187 73H33.5507L30.2067 66.12V73H28.1747ZM41.1403 73L44.6603 61.48H47.9083L51.4283 73H49.1883L46.0523 62.84H46.4683L43.3803 73H41.1403ZM43.2523 70.6V68.568H49.3323V70.6H43.2523ZM56.9017 73.24C56.0484 73.24 55.2777 73.0907 54.5897 72.792C53.907 72.488 53.3444 72.056 52.9017 71.496C52.4644 70.9307 52.187 70.2587 52.0697 69.48L54.3417 69.144C54.5017 69.8053 54.8324 70.3147 55.3337 70.672C55.835 71.0293 56.4057 71.208 57.0457 71.208C57.403 71.208 57.7497 71.152 58.0857 71.04C58.4217 70.928 58.6964 70.7627 58.9097 70.544C59.1284 70.3253 59.2377 70.056 59.2377 69.736C59.2377 69.6187 59.219 69.5067 59.1817 69.4C59.1497 69.288 59.0937 69.184 59.0137 69.088C58.9337 68.992 58.819 68.9013 58.6697 68.816C58.5257 68.7307 58.3417 68.6533 58.1177 68.584L55.1257 67.704C54.9017 67.64 54.6404 67.5493 54.3417 67.432C54.0484 67.3147 53.763 67.1467 53.4857 66.928C53.2084 66.7093 52.9764 66.4213 52.7897 66.064C52.6084 65.7013 52.5177 65.2453 52.5177 64.696C52.5177 63.9227 52.7124 63.28 53.1017 62.768C53.491 62.256 54.011 61.8747 54.6617 61.624C55.3124 61.3733 56.0324 61.2507 56.8217 61.256C57.6164 61.2667 58.3257 61.4027 58.9497 61.664C59.5737 61.9253 60.0964 62.3067 60.5177 62.808C60.939 63.304 61.243 63.912 61.4297 64.632L59.0777 65.032C58.9924 64.6587 58.835 64.344 58.6057 64.088C58.3764 63.832 58.1017 63.6373 57.7817 63.504C57.467 63.3707 57.1364 63.2987 56.7897 63.288C56.4484 63.2773 56.1257 63.3253 55.8217 63.432C55.523 63.5333 55.2777 63.6827 55.0857 63.88C54.899 64.0773 54.8057 64.312 54.8057 64.584C54.8057 64.8347 54.883 65.04 55.0377 65.2C55.1924 65.3547 55.387 65.48 55.6217 65.576C55.8564 65.672 56.0964 65.752 56.3417 65.816L58.3417 66.36C58.6404 66.44 58.971 66.5467 59.3337 66.68C59.6964 66.808 60.043 66.9893 60.3737 67.224C60.7097 67.4533 60.9844 67.7573 61.1977 68.136C61.4164 68.5147 61.5257 68.9947 61.5257 69.576C61.5257 70.1947 61.395 70.736 61.1337 71.2C60.8777 71.6587 60.531 72.04 60.0937 72.344C59.6564 72.6427 59.1604 72.8667 58.6057 73.016C58.0564 73.1653 57.4884 73.24 56.9017 73.24ZM67.0921 73.24C66.1961 73.24 65.4281 73.04 64.7881 72.64C64.1481 72.24 63.6574 71.696 63.3161 71.008C62.9747 70.32 62.8041 69.544 62.8041 68.68C62.8041 67.8053 62.9801 67.024 63.3321 66.336C63.6894 65.648 64.1907 65.1067 64.8361 64.712C65.4814 64.3173 66.2441 64.12 67.1241 64.12C68.1427 64.12 68.9961 64.3787 69.6841 64.896C70.3774 65.408 70.8201 66.1093 71.0121 67L68.8361 67.576C68.7081 67.128 68.4841 66.7787 68.1641 66.528C67.8494 66.2773 67.4921 66.152 67.0921 66.152C66.6334 66.152 66.2574 66.264 65.9641 66.488C65.6707 66.7067 65.4547 67.008 65.3161 67.392C65.1774 67.7707 65.1081 68.2 65.1081 68.68C65.1081 69.432 65.2734 70.0427 65.6041 70.512C65.9401 70.976 66.4361 71.208 67.0921 71.208C67.5827 71.208 67.9561 71.096 68.2121 70.872C68.4681 70.648 68.6601 70.328 68.7881 69.912L71.0121 70.376C70.7667 71.2933 70.3027 72 69.6201 72.496C68.9374 72.992 68.0947 73.24 67.0921 73.24ZM72.6122 73V64.36H74.5322V66.472L74.3242 66.2C74.4362 65.9013 74.5855 65.6293 74.7722 65.384C74.9589 65.1387 75.1882 64.936 75.4602 64.776C75.6682 64.648 75.8949 64.5493 76.1402 64.48C76.3855 64.4053 76.6389 64.36 76.9002 64.344C77.1615 64.3227 77.4229 64.328 77.6842 64.36V66.392C77.4442 66.3173 77.1642 66.2933 76.8442 66.32C76.5295 66.3413 76.2442 66.4133 75.9882 66.536C75.7322 66.6533 75.5162 66.8107 75.3402 67.008C75.1642 67.2 75.0309 67.4293 74.9402 67.696C74.8495 67.9573 74.8042 68.2533 74.8042 68.584V73H72.6122ZM79.3659 63.16V61.24H81.5419V63.16H79.3659ZM79.3659 73V64.36H81.5419V73H79.3659ZM88.1803 73.24C87.3216 73.24 86.6043 73.04 86.0283 72.64C85.4523 72.24 85.0176 71.696 84.7243 71.008C84.4363 70.32 84.2923 69.544 84.2923 68.68C84.2923 67.816 84.4363 67.04 84.7243 66.352C85.0123 65.664 85.4363 65.12 85.9963 64.72C86.5563 64.32 87.247 64.12 88.0683 64.12C88.895 64.12 89.615 64.3173 90.2283 64.712C90.8416 65.1067 91.3163 65.648 91.6523 66.336C91.9936 67.0187 92.1643 67.8 92.1643 68.68C92.1643 69.544 91.9963 70.32 91.6603 71.008C91.3296 71.696 90.8656 72.24 90.2683 72.64C89.671 73.04 88.975 73.24 88.1803 73.24ZM83.9243 76.84V64.36H85.8443V70.28H86.1163V76.84H83.9243ZM87.8283 71.304C88.2976 71.304 88.6816 71.1867 88.9803 70.952C89.279 70.7173 89.5003 70.4027 89.6443 70.008C89.7883 69.608 89.8603 69.1653 89.8603 68.68C89.8603 68.2 89.7856 67.7627 89.6363 67.368C89.487 66.968 89.255 66.6507 88.9403 66.416C88.631 66.176 88.2336 66.056 87.7483 66.056C87.295 66.056 86.927 66.1653 86.6443 66.384C86.367 66.6027 86.1643 66.9093 86.0363 67.304C85.9083 67.6987 85.8443 68.1573 85.8443 68.68C85.8443 69.2027 85.9083 69.6613 86.0363 70.056C86.1643 70.4507 86.3723 70.7573 86.6603 70.976C86.9536 71.1947 87.343 71.304 87.8283 71.304ZM99.1087 73C98.5114 73.112 97.9247 73.16 97.3487 73.144C96.778 73.1333 96.266 73.0347 95.8127 72.848C95.3647 72.656 95.0234 72.3493 94.7887 71.928C94.5754 71.5333 94.4634 71.1333 94.4527 70.728C94.442 70.3173 94.4367 69.8533 94.4367 69.336V61.96H96.6127V69.208C96.6127 69.544 96.6154 69.848 96.6207 70.12C96.6314 70.3867 96.6874 70.6 96.7887 70.76C96.9807 71.064 97.2874 71.2293 97.7087 71.256C98.13 71.2827 98.5967 71.2613 99.1087 71.192V73ZM92.9647 66.04V64.36H99.1087V66.04H92.9647Z" fill="#2E2E2E"/>
<path fill-rule="evenodd" clip-rule="evenodd" d="M393.6 0H308V107H415V21.4L393.6 0Z" fill="#F9D363"/>
<path d="M393.6 -7.59289e-06L415 21.4L393.6 21.4L393.6 -7.59289e-06Z" fill="#D7B755"/>
<path d="M347.683 51V39.48H355.203V41.512H349.859V43.976H354.243V46.008H349.859V48.968H355.203V51H347.683ZM361.472 51.24C360.619 51.24 359.848 51.0907 359.16 50.792C358.477 50.488 357.915 50.056 357.472 49.496C357.035 48.9307 356.757 48.2587 356.64 47.48L358.912 47.144C359.072 47.8053 359.403 48.3147 359.904 48.672C360.405 49.0293 360.976 49.208 361.616 49.208C361.973 49.208 362.32 49.152 362.656 49.04C362.992 48.928 363.267 48.7627 363.48 48.544C363.699 48.3253 363.808 48.056 363.808 47.736C363.808 47.6187 363.789 47.5067 363.752 47.4C363.72 47.288 363.664 47.184 363.584 47.088C363.504 46.992 363.389 46.9013 363.24 46.816C363.096 46.7307 362.912 46.6533 362.688 46.584L359.696 45.704C359.472 45.64 359.211 45.5493 358.912 45.432C358.619 45.3147 358.333 45.1467 358.056 44.928C357.779 44.7093 357.547 44.4213 357.36 44.064C357.179 43.7013 357.088 43.2453 357.088 42.696C357.088 41.9227 357.283 41.28 357.672 40.768C358.061 40.256 358.581 39.8747 359.232 39.624C359.883 39.3733 360.603 39.2507 361.392 39.256C362.187 39.2667 362.896 39.4027 363.52 39.664C364.144 39.9253 364.667 40.3067 365.088 40.808C365.509 41.304 365.813 41.912 366 42.632L363.648 43.032C363.563 42.6587 363.405 42.344 363.176 42.088C362.947 41.832 362.672 41.6373 362.352 41.504C362.037 41.3707 361.707 41.2987 361.36 41.288C361.019 41.2773 360.696 41.3253 360.392 41.432C360.093 41.5333 359.848 41.6827 359.656 41.88C359.469 42.0773 359.376 42.312 359.376 42.584C359.376 42.8347 359.453 43.04 359.608 43.2C359.763 43.3547 359.957 43.48 360.192 43.576C360.427 43.672 360.667 43.752 360.912 43.816L362.912 44.36C363.211 44.44 363.541 44.5467 363.904 44.68C364.267 44.808 364.613 44.9893 364.944 45.224C365.28 45.4533 365.555 45.7573 365.768 46.136C365.987 46.5147 366.096 46.9947 366.096 47.576C366.096 48.1947 365.965 48.736 365.704 49.2C365.448 49.6587 365.101 50.04 364.664 50.344C364.227 50.6427 363.731 50.8667 363.176 51.016C362.627 51.1653 362.059 51.24 361.472 51.24ZM368.43 51L372.302 41.528H367.374V39.48H374.638V41.528L370.782 51H368.43ZM333.206 73V61.48H340.726V63.512H335.382V65.976H339.766V68.008H335.382V70.968H340.726V73H333.206ZM346.995 73.24C346.142 73.24 345.371 73.0907 344.683 72.792C344.001 72.488 343.438 72.056 342.995 71.496C342.558 70.9307 342.281 70.2587 342.163 69.48L344.435 69.144C344.595 69.8053 344.926 70.3147 345.427 70.672C345.929 71.0293 346.499 71.208 347.139 71.208C347.497 71.208 347.843 71.152 348.179 71.04C348.515 70.928 348.79 70.7627 349.003 70.544C349.222 70.3253 349.331 70.056 349.331 69.736C349.331 69.6187 349.313 69.5067 349.275 69.4C349.243 69.288 349.187 69.184 349.107 69.088C349.027 68.992 348.913 68.9013 348.763 68.816C348.619 68.7307 348.435 68.6533 348.211 68.584L345.219 67.704C344.995 67.64 344.734 67.5493 344.435 67.432C344.142 67.3147 343.857 67.1467 343.579 66.928C343.302 66.7093 343.07 66.4213 342.883 66.064C342.702 65.7013 342.611 65.2453 342.611 64.696C342.611 63.9227 342.806 63.28 343.195 62.768C343.585 62.256 344.105 61.8747 344.755 61.624C345.406 61.3733 346.126 61.2507 346.915 61.256C347.71 61.2667 348.419 61.4027 349.043 61.664C349.667 61.9253 350.19 62.3067 350.611 62.808C351.033 63.304 351.337 63.912 351.523 64.632L349.171 65.032C349.086 64.6587 348.929 64.344 348.699 64.088C348.47 63.832 348.195 63.6373 347.875 63.504C347.561 63.3707 347.23 63.2987 346.883 63.288C346.542 63.2773 346.219 63.3253 345.915 63.432C345.617 63.5333 345.371 63.6827 345.179 63.88C344.993 64.0773 344.899 64.312 344.899 64.584C344.899 64.8347 344.977 65.04 345.131 65.2C345.286 65.3547 345.481 65.48 345.715 65.576C345.95 65.672 346.19 65.752 346.435 65.816L348.435 66.36C348.734 66.44 349.065 66.5467 349.427 66.68C349.79 66.808 350.137 66.9893 350.467 67.224C350.803 67.4533 351.078 67.7573 351.291 68.136C351.51 68.5147 351.619 68.9947 351.619 69.576C351.619 70.1947 351.489 70.736 351.227 71.2C350.971 71.6587 350.625 72.04 350.187 72.344C349.75 72.6427 349.254 72.8667 348.699 73.016C348.15 73.1653 347.582 73.24 346.995 73.24ZM353.058 72.984V71.096L357.89 66.808C358.252 66.488 358.508 66.1867 358.658 65.904C358.807 65.6213 358.882 65.3573 358.882 65.112C358.882 64.76 358.81 64.448 358.666 64.176C358.522 63.8987 358.319 63.6827 358.058 63.528C357.796 63.368 357.49 63.288 357.138 63.288C356.77 63.288 356.444 63.3733 356.162 63.544C355.884 63.7093 355.668 63.9307 355.514 64.208C355.359 64.48 355.287 64.776 355.298 65.096H353.058C353.058 64.3067 353.231 63.624 353.578 63.048C353.924 62.472 354.407 62.0267 355.026 61.712C355.644 61.3973 356.364 61.24 357.186 61.24C357.938 61.24 358.61 61.4053 359.202 61.736C359.799 62.0613 360.268 62.5173 360.61 63.104C360.951 63.6907 361.122 64.3707 361.122 65.144C361.122 65.7147 361.042 66.1893 360.882 66.568C360.722 66.9413 360.484 67.288 360.17 67.608C359.855 67.9227 359.468 68.28 359.01 68.68L355.89 71.416L355.714 70.936H361.122V72.984H353.058ZM367.306 73.24C366.453 73.24 365.706 73.0613 365.066 72.704C364.426 72.3467 363.927 71.848 363.57 71.208C363.213 70.568 363.034 69.8213 363.034 68.968V65.512C363.034 64.6587 363.213 63.912 363.57 63.272C363.927 62.632 364.426 62.1333 365.066 61.776C365.706 61.4187 366.453 61.24 367.306 61.24C368.159 61.24 368.906 61.4187 369.546 61.776C370.186 62.1333 370.685 62.632 371.042 63.272C371.399 63.912 371.578 64.6587 371.578 65.512V68.968C371.578 69.8213 371.399 70.568 371.042 71.208C370.685 71.848 370.186 72.3467 369.546 72.704C368.906 73.0613 368.159 73.24 367.306 73.24ZM367.306 71.176C367.69 71.176 368.037 71.0853 368.346 70.904C368.655 70.7227 368.901 70.4773 369.082 70.168C369.263 69.8587 369.354 69.512 369.354 69.128V65.336C369.354 64.952 369.263 64.6053 369.082 64.296C368.901 63.9867 368.655 63.7413 368.346 63.56C368.037 63.3787 367.69 63.288 367.306 63.288C366.922 63.288 366.575 63.3787 366.266 63.56C365.957 63.7413 365.711 63.9867 365.53 64.296C365.349 64.6053 365.258 64.952 365.258 65.336V69.128C365.258 69.512 365.349 69.8587 365.53 70.168C365.711 70.4773 365.957 70.7227 366.266 70.904C366.575 71.0853 366.922 71.176 367.306 71.176ZM375.815 73V63.848L373.655 65.176V62.776L375.815 61.48H378.039V73H375.815ZM385.097 73.24C384.334 73.24 383.649 73.0613 383.041 72.704C382.438 72.3467 381.961 71.8507 381.609 71.216C381.257 70.576 381.081 69.8373 381.081 69V65.656C381.081 64.7493 381.257 63.968 381.609 63.312C381.961 62.6507 382.457 62.144 383.097 61.792C383.737 61.4347 384.489 61.256 385.353 61.256C385.913 61.256 386.446 61.3387 386.953 61.504C387.46 61.6693 387.924 61.9493 388.345 62.344L386.793 63.896C386.601 63.704 386.38 63.5547 386.129 63.448C385.878 63.3413 385.62 63.288 385.353 63.288C384.937 63.288 384.574 63.3867 384.265 63.584C383.961 63.776 383.724 64.0293 383.553 64.344C383.388 64.6533 383.305 64.984 383.305 65.336V67.048L382.937 66.648C383.268 66.312 383.649 66.056 384.081 65.88C384.518 65.6987 384.969 65.608 385.433 65.608C386.158 65.608 386.796 65.7707 387.345 66.096C387.9 66.4213 388.332 66.8667 388.641 67.432C388.956 67.9973 389.113 68.6427 389.113 69.368C389.113 70.0933 388.929 70.7493 388.561 71.336C388.193 71.9173 387.705 72.3813 387.097 72.728C386.489 73.0693 385.822 73.24 385.097 73.24ZM385.097 71.16C385.428 71.16 385.729 71.08 386.001 70.92C386.278 70.76 386.497 70.544 386.657 70.272C386.822 70 386.905 69.6987 386.905 69.368C386.905 69.0373 386.825 68.736 386.665 68.464C386.505 68.1867 386.289 67.968 386.017 67.808C385.745 67.6427 385.444 67.56 385.113 67.56C384.782 67.56 384.478 67.6427 384.201 67.808C383.929 67.968 383.71 68.1867 383.545 68.464C383.385 68.736 383.305 69.0373 383.305 69.368C383.305 69.688 383.385 69.984 383.545 70.256C383.705 70.528 383.921 70.7467 384.193 70.912C384.465 71.0773 384.766 71.16 385.097 71.16Z" fill="#2E2E2E"/>
<path fill-rule="evenodd" clip-rule="evenodd" d="M701.6 0H616V107H723V21.4L701.6 0Z" fill="#F9D363"/>
<path d="M701.6 -7.59289e-06L723 21.4L701.6 21.4L701.6 -7.59289e-06Z" fill="#D7B755"/>
<path d="M655.058 51V39.48H662.578V41.512H657.234V43.976H661.618V46.008H657.234V48.968H662.578V51H655.058ZM668.847 51.24C667.994 51.24 667.223 51.0907 666.535 50.792C665.852 50.488 665.29 50.056 664.847 49.496C664.41 48.9307 664.132 48.2587 664.015 47.48L666.287 47.144C666.447 47.8053 666.778 48.3147 667.279 48.672C667.78 49.0293 668.351 49.208 668.991 49.208C669.348 49.208 669.695 49.152 670.031 49.04C670.367 48.928 670.642 48.7627 670.855 48.544C671.074 48.3253 671.183 48.056 671.183 47.736C671.183 47.6187 671.164 47.5067 671.127 47.4C671.095 47.288 671.039 47.184 670.959 47.088C670.879 46.992 670.764 46.9013 670.615 46.816C670.471 46.7307 670.287 46.6533 670.063 46.584L667.071 45.704C666.847 45.64 666.586 45.5493 666.287 45.432C665.994 45.3147 665.708 45.1467 665.431 44.928C665.154 44.7093 664.922 44.4213 664.735 44.064C664.554 43.7013 664.463 43.2453 664.463 42.696C664.463 41.9227 664.658 41.28 665.047 40.768C665.436 40.256 665.956 39.8747 666.607 39.624C667.258 39.3733 667.978 39.2507 668.767 39.256C669.562 39.2667 670.271 39.4027 670.895 39.664C671.519 39.9253 672.042 40.3067 672.463 40.808C672.884 41.304 673.188 41.912 673.375 42.632L671.023 43.032C670.938 42.6587 670.78 42.344 670.551 42.088C670.322 41.832 670.047 41.6373 669.727 41.504C669.412 41.3707 669.082 41.2987 668.735 41.288C668.394 41.2773 668.071 41.3253 667.767 41.432C667.468 41.5333 667.223 41.6827 667.031 41.88C666.844 42.0773 666.751 42.312 666.751 42.584C666.751 42.8347 666.828 43.04 666.983 43.2C667.138 43.3547 667.332 43.48 667.567 43.576C667.802 43.672 668.042 43.752 668.287 43.816L670.287 44.36C670.586 44.44 670.916 44.5467 671.279 44.68C671.642 44.808 671.988 44.9893 672.319 45.224C672.655 45.4533 672.93 45.7573 673.143 46.136C673.362 46.5147 673.471 46.9947 673.471 47.576C673.471 48.1947 673.34 48.736 673.079 49.2C672.823 49.6587 672.476 50.04 672.039 50.344C671.602 50.6427 671.106 50.8667 670.551 51.016C670.002 51.1653 669.434 51.24 668.847 51.24ZM678.925 39.256C679.688 39.256 680.371 39.4347 680.973 39.792C681.581 40.1493 682.061 40.648 682.413 41.288C682.765 41.9227 682.941 42.6587 682.941 43.496V46.84C682.941 47.7467 682.765 48.5307 682.413 49.192C682.061 49.848 681.565 50.3547 680.925 50.712C680.285 51.064 679.533 51.24 678.669 51.24C678.109 51.24 677.576 51.1573 677.069 50.992C676.568 50.8213 676.104 50.5413 675.677 50.152L677.229 48.6C677.421 48.792 677.643 48.9413 677.893 49.048C678.149 49.1547 678.408 49.208 678.669 49.208C679.085 49.208 679.445 49.112 679.749 48.92C680.059 48.7227 680.296 48.4693 680.461 48.16C680.632 47.8453 680.717 47.512 680.717 47.16V45.448L681.085 45.848C680.76 46.184 680.379 46.4427 679.941 46.624C679.504 46.8 679.053 46.888 678.589 46.888C677.864 46.888 677.224 46.7253 676.669 46.4C676.12 46.0747 675.688 45.6293 675.373 45.064C675.064 44.4987 674.909 43.8533 674.909 43.128C674.909 42.4027 675.093 41.7493 675.461 41.168C675.829 40.5813 676.317 40.1173 676.925 39.776C677.533 39.4293 678.2 39.256 678.925 39.256ZM678.925 41.336C678.595 41.336 678.291 41.416 678.013 41.576C677.741 41.736 677.523 41.952 677.357 42.224C677.197 42.496 677.117 42.7973 677.117 43.128C677.117 43.4587 677.197 43.7627 677.357 44.04C677.517 44.312 677.733 44.5307 678.005 44.696C678.277 44.856 678.579 44.936 678.909 44.936C679.24 44.936 679.541 44.856 679.813 44.696C680.091 44.5307 680.309 44.312 680.469 44.04C680.635 43.7627 680.717 43.4587 680.717 43.128C680.717 42.808 680.637 42.512 680.477 42.24C680.317 41.968 680.101 41.7493 679.829 41.584C679.557 41.4187 679.256 41.336 678.925 41.336ZM641.198 73V61.48H648.718V63.512H643.374V65.976H647.758V68.008H643.374V70.968H648.718V73H641.198ZM654.988 73.24C654.134 73.24 653.364 73.0907 652.676 72.792C651.993 72.488 651.43 72.056 650.988 71.496C650.55 70.9307 650.273 70.2587 650.156 69.48L652.428 69.144C652.588 69.8053 652.918 70.3147 653.42 70.672C653.921 71.0293 654.492 71.208 655.132 71.208C655.489 71.208 655.836 71.152 656.172 71.04C656.508 70.928 656.782 70.7627 656.996 70.544C657.214 70.3253 657.324 70.056 657.324 69.736C657.324 69.6187 657.305 69.5067 657.268 69.4C657.236 69.288 657.18 69.184 657.1 69.088C657.02 68.992 656.905 68.9013 656.756 68.816C656.612 68.7307 656.428 68.6533 656.204 68.584L653.212 67.704C652.988 67.64 652.726 67.5493 652.428 67.432C652.134 67.3147 651.849 67.1467 651.572 66.928C651.294 66.7093 651.062 66.4213 650.876 66.064C650.694 65.7013 650.604 65.2453 650.604 64.696C650.604 63.9227 650.798 63.28 651.188 62.768C651.577 62.256 652.097 61.8747 652.748 61.624C653.398 61.3733 654.118 61.2507 654.908 61.256C655.702 61.2667 656.412 61.4027 657.036 61.664C657.66 61.9253 658.182 62.3067 658.604 62.808C659.025 63.304 659.329 63.912 659.516 64.632L657.164 65.032C657.078 64.6587 656.921 64.344 656.692 64.088C656.462 63.832 656.188 63.6373 655.868 63.504C655.553 63.3707 655.222 63.2987 654.876 63.288C654.534 63.2773 654.212 63.3253 653.908 63.432C653.609 63.5333 653.364 63.6827 653.172 63.88C652.985 64.0773 652.892 64.312 652.892 64.584C652.892 64.8347 652.969 65.04 653.124 65.2C653.278 65.3547 653.473 65.48 653.708 65.576C653.942 65.672 654.182 65.752 654.428 65.816L656.428 66.36C656.726 66.44 657.057 66.5467 657.42 66.68C657.782 66.808 658.129 66.9893 658.46 67.224C658.796 67.4533 659.07 67.7573 659.284 68.136C659.502 68.5147 659.612 68.9947 659.612 69.576C659.612 70.1947 659.481 70.736 659.22 71.2C658.964 71.6587 658.617 72.04 658.18 72.344C657.742 72.6427 657.246 72.8667 656.692 73.016C656.142 73.1653 655.574 73.24 654.988 73.24ZM661.05 72.984V71.096L665.882 66.808C666.245 66.488 666.501 66.1867 666.65 65.904C666.799 65.6213 666.874 65.3573 666.874 65.112C666.874 64.76 666.802 64.448 666.658 64.176C666.514 63.8987 666.311 63.6827 666.05 63.528C665.789 63.368 665.482 63.288 665.13 63.288C664.762 63.288 664.437 63.3733 664.154 63.544C663.877 63.7093 663.661 63.9307 663.506 64.208C663.351 64.48 663.279 64.776 663.29 65.096H661.05C661.05 64.3067 661.223 63.624 661.57 63.048C661.917 62.472 662.399 62.0267 663.018 61.712C663.637 61.3973 664.357 61.24 665.178 61.24C665.93 61.24 666.602 61.4053 667.194 61.736C667.791 62.0613 668.261 62.5173 668.602 63.104C668.943 63.6907 669.114 64.3707 669.114 65.144C669.114 65.7147 669.034 66.1893 668.874 66.568C668.714 66.9413 668.477 67.288 668.162 67.608C667.847 67.9227 667.461 68.28 667.002 68.68L663.882 71.416L663.706 70.936H669.114V72.984H661.05ZM675.298 73.24C674.445 73.24 673.698 73.0613 673.058 72.704C672.418 72.3467 671.92 71.848 671.562 71.208C671.205 70.568 671.026 69.8213 671.026 68.968V65.512C671.026 64.6587 671.205 63.912 671.562 63.272C671.92 62.632 672.418 62.1333 673.058 61.776C673.698 61.4187 674.445 61.24 675.298 61.24C676.152 61.24 676.898 61.4187 677.538 61.776C678.178 62.1333 678.677 62.632 679.034 63.272C679.392 63.912 679.57 64.6587 679.57 65.512V68.968C679.57 69.8213 679.392 70.568 679.034 71.208C678.677 71.848 678.178 72.3467 677.538 72.704C676.898 73.0613 676.152 73.24 675.298 73.24ZM675.298 71.176C675.682 71.176 676.029 71.0853 676.338 70.904C676.648 70.7227 676.893 70.4773 677.074 70.168C677.256 69.8587 677.346 69.512 677.346 69.128V65.336C677.346 64.952 677.256 64.6053 677.074 64.296C676.893 63.9867 676.648 63.7413 676.338 63.56C676.029 63.3787 675.682 63.288 675.298 63.288C674.914 63.288 674.568 63.3787 674.258 63.56C673.949 63.7413 673.704 63.9867 673.522 64.296C673.341 64.6053 673.25 64.952 673.25 65.336V69.128C673.25 69.512 673.341 69.8587 673.522 70.168C673.704 70.4773 673.949 70.7227 674.258 70.904C674.568 71.0853 674.914 71.176 675.298 71.176ZM683.808 73V63.848L681.648 65.176V62.776L683.808 61.48H686.032V73H683.808ZM692.929 73.24C692.15 73.24 691.457 73.0827 690.849 72.768C690.246 72.448 689.772 72.0107 689.425 71.456C689.084 70.896 688.913 70.2587 688.913 69.544C688.913 68.936 689.049 68.3627 689.321 67.824C689.598 67.2853 689.996 66.8453 690.513 66.504L690.465 67.176C690.076 66.7973 689.769 66.3973 689.545 65.976C689.326 65.5547 689.217 65.08 689.217 64.552C689.217 63.8853 689.374 63.304 689.689 62.808C690.009 62.312 690.446 61.928 691.001 61.656C691.561 61.3787 692.204 61.24 692.929 61.24C693.654 61.24 694.294 61.3787 694.849 61.656C695.409 61.928 695.846 62.312 696.161 62.808C696.481 63.304 696.641 63.8853 696.641 64.552C696.641 65.08 696.537 65.5547 696.329 65.976C696.121 66.392 695.804 66.7973 695.377 67.192V66.52C695.884 66.84 696.273 67.272 696.545 67.816C696.822 68.36 696.961 68.936 696.961 69.544C696.961 70.2587 696.788 70.896 696.441 71.456C696.094 72.0107 695.617 72.448 695.009 72.768C694.401 73.0827 693.708 73.24 692.929 73.24ZM692.929 71.192C693.441 71.192 693.857 71.0533 694.177 70.776C694.497 70.4987 694.657 70.088 694.657 69.544C694.657 69.0053 694.497 68.5947 694.177 68.312C693.857 68.024 693.441 67.88 692.929 67.88C692.417 67.88 692.004 68.024 691.689 68.312C691.374 68.5947 691.217 69.0053 691.217 69.544C691.217 70.088 691.374 70.4987 691.689 70.776C692.004 71.0533 692.417 71.192 692.929 71.192ZM692.929 65.816C693.345 65.816 693.684 65.7147 693.945 65.512C694.206 65.304 694.337 64.984 694.337 64.552C694.337 64.12 694.206 63.8 693.945 63.592C693.684 63.3787 693.345 63.272 692.929 63.272C692.513 63.272 692.174 63.3787 691.913 63.592C691.652 63.8 691.521 64.12 691.521 64.552C691.521 64.984 691.652 65.304 691.913 65.512C692.174 65.7147 692.513 65.816 692.929 65.816Z" fill="#2E2E2E"/>
<path fill-rule="evenodd" clip-rule="evenodd" d="M239.6 0H154V107H261V21.4L239.6 0Z" fill="#F9D363"/>
<path d="M239.6 -7.59289e-06L261 21.4L239.6 21.4L239.6 -7.59289e-06Z" fill="#D7B755"/>
<path d="M193.058 51V39.48H200.578V41.512H195.234V43.976H199.618V46.008H195.234V48.968H200.578V51H193.058ZM206.847 51.24C205.994 51.24 205.223 51.0907 204.535 50.792C203.852 50.488 203.29 50.056 202.847 49.496C202.41 48.9307 202.132 48.2587 202.015 47.48L204.287 47.144C204.447 47.8053 204.778 48.3147 205.279 48.672C205.78 49.0293 206.351 49.208 206.991 49.208C207.348 49.208 207.695 49.152 208.031 49.04C208.367 48.928 208.642 48.7627 208.855 48.544C209.074 48.3253 209.183 48.056 209.183 47.736C209.183 47.6187 209.164 47.5067 209.127 47.4C209.095 47.288 209.039 47.184 208.959 47.088C208.879 46.992 208.764 46.9013 208.615 46.816C208.471 46.7307 208.287 46.6533 208.063 46.584L205.071 45.704C204.847 45.64 204.586 45.5493 204.287 45.432C203.994 45.3147 203.708 45.1467 203.431 44.928C203.154 44.7093 202.922 44.4213 202.735 44.064C202.554 43.7013 202.463 43.2453 202.463 42.696C202.463 41.9227 202.658 41.28 203.047 40.768C203.436 40.256 203.956 39.8747 204.607 39.624C205.258 39.3733 205.978 39.2507 206.767 39.256C207.562 39.2667 208.271 39.4027 208.895 39.664C209.519 39.9253 210.042 40.3067 210.463 40.808C210.884 41.304 211.188 41.912 211.375 42.632L209.023 43.032C208.938 42.6587 208.78 42.344 208.551 42.088C208.322 41.832 208.047 41.6373 207.727 41.504C207.412 41.3707 207.082 41.2987 206.735 41.288C206.394 41.2773 206.071 41.3253 205.767 41.432C205.468 41.5333 205.223 41.6827 205.031 41.88C204.844 42.0773 204.751 42.312 204.751 42.584C204.751 42.8347 204.828 43.04 204.983 43.2C205.138 43.3547 205.332 43.48 205.567 43.576C205.802 43.672 206.042 43.752 206.287 43.816L208.287 44.36C208.586 44.44 208.916 44.5467 209.279 44.68C209.642 44.808 209.988 44.9893 210.319 45.224C210.655 45.4533 210.93 45.7573 211.143 46.136C211.362 46.5147 211.471 46.9947 211.471 47.576C211.471 48.1947 211.34 48.736 211.079 49.2C210.823 49.6587 210.476 50.04 210.039 50.344C209.602 50.6427 209.106 50.8667 208.551 51.016C208.002 51.1653 207.434 51.24 206.847 51.24ZM217.245 51.24C216.483 51.24 215.797 51.0613 215.189 50.704C214.587 50.3467 214.109 49.8507 213.757 49.216C213.405 48.576 213.229 47.8373 213.229 47V43.656C213.229 42.7493 213.405 41.968 213.757 41.312C214.109 40.6507 214.605 40.144 215.245 39.792C215.885 39.4347 216.637 39.256 217.501 39.256C218.061 39.256 218.595 39.3387 219.101 39.504C219.608 39.6693 220.072 39.9493 220.493 40.344L218.941 41.896C218.749 41.704 218.528 41.5547 218.277 41.448C218.027 41.3413 217.768 41.288 217.501 41.288C217.085 41.288 216.723 41.3867 216.413 41.584C216.109 41.776 215.872 42.0293 215.701 42.344C215.536 42.6533 215.453 42.984 215.453 43.336V45.048L215.085 44.648C215.416 44.312 215.797 44.056 216.229 43.88C216.667 43.6987 217.117 43.608 217.581 43.608C218.307 43.608 218.944 43.7707 219.493 44.096C220.048 44.4213 220.48 44.8667 220.789 45.432C221.104 45.9973 221.261 46.6427 221.261 47.368C221.261 48.0933 221.077 48.7493 220.709 49.336C220.341 49.9173 219.853 50.3813 219.245 50.728C218.637 51.0693 217.971 51.24 217.245 51.24ZM217.245 49.16C217.576 49.16 217.877 49.08 218.149 48.92C218.427 48.76 218.645 48.544 218.805 48.272C218.971 48 219.053 47.6987 219.053 47.368C219.053 47.0373 218.973 46.736 218.813 46.464C218.653 46.1867 218.437 45.968 218.165 45.808C217.893 45.6427 217.592 45.56 217.261 45.56C216.931 45.56 216.627 45.6427 216.349 45.808C216.077 45.968 215.859 46.1867 215.693 46.464C215.533 46.736 215.453 47.0373 215.453 47.368C215.453 47.688 215.533 47.984 215.693 48.256C215.853 48.528 216.069 48.7467 216.341 48.912C216.613 49.0773 216.915 49.16 217.245 49.16ZM179.472 73V61.48H186.992V63.512H181.648V65.976H186.032V68.008H181.648V70.968H186.992V73H179.472ZM193.261 73.24C192.408 73.24 191.637 73.0907 190.949 72.792C190.266 72.488 189.704 72.056 189.261 71.496C188.824 70.9307 188.546 70.2587 188.429 69.48L190.701 69.144C190.861 69.8053 191.192 70.3147 191.693 70.672C192.194 71.0293 192.765 71.208 193.405 71.208C193.762 71.208 194.109 71.152 194.445 71.04C194.781 70.928 195.056 70.7627 195.269 70.544C195.488 70.3253 195.597 70.056 195.597 69.736C195.597 69.6187 195.578 69.5067 195.541 69.4C195.509 69.288 195.453 69.184 195.373 69.088C195.293 68.992 195.178 68.9013 195.029 68.816C194.885 68.7307 194.701 68.6533 194.477 68.584L191.485 67.704C191.261 67.64 191 67.5493 190.701 67.432C190.408 67.3147 190.122 67.1467 189.845 66.928C189.568 66.7093 189.336 66.4213 189.149 66.064C188.968 65.7013 188.877 65.2453 188.877 64.696C188.877 63.9227 189.072 63.28 189.461 62.768C189.85 62.256 190.37 61.8747 191.021 61.624C191.672 61.3733 192.392 61.2507 193.181 61.256C193.976 61.2667 194.685 61.4027 195.309 61.664C195.933 61.9253 196.456 62.3067 196.877 62.808C197.298 63.304 197.602 63.912 197.789 64.632L195.437 65.032C195.352 64.6587 195.194 64.344 194.965 64.088C194.736 63.832 194.461 63.6373 194.141 63.504C193.826 63.3707 193.496 63.2987 193.149 63.288C192.808 63.2773 192.485 63.3253 192.181 63.432C191.882 63.5333 191.637 63.6827 191.445 63.88C191.258 64.0773 191.165 64.312 191.165 64.584C191.165 64.8347 191.242 65.04 191.397 65.2C191.552 65.3547 191.746 65.48 191.981 65.576C192.216 65.672 192.456 65.752 192.701 65.816L194.701 66.36C195 66.44 195.33 66.5467 195.693 66.68C196.056 66.808 196.402 66.9893 196.733 67.224C197.069 67.4533 197.344 67.7573 197.557 68.136C197.776 68.5147 197.885 68.9947 197.885 69.576C197.885 70.1947 197.754 70.736 197.493 71.2C197.237 71.6587 196.89 72.04 196.453 72.344C196.016 72.6427 195.52 72.8667 194.965 73.016C194.416 73.1653 193.848 73.24 193.261 73.24ZM199.323 72.984V71.096L204.155 66.808C204.518 66.488 204.774 66.1867 204.923 65.904C205.073 65.6213 205.147 65.3573 205.147 65.112C205.147 64.76 205.075 64.448 204.931 64.176C204.787 63.8987 204.585 63.6827 204.323 63.528C204.062 63.368 203.755 63.288 203.403 63.288C203.035 63.288 202.71 63.3733 202.427 63.544C202.15 63.7093 201.934 63.9307 201.779 64.208C201.625 64.48 201.553 64.776 201.563 65.096H199.323C199.323 64.3067 199.497 63.624 199.843 63.048C200.19 62.472 200.673 62.0267 201.291 61.712C201.91 61.3973 202.63 61.24 203.451 61.24C204.203 61.24 204.875 61.4053 205.467 61.736C206.065 62.0613 206.534 62.5173 206.875 63.104C207.217 63.6907 207.387 64.3707 207.387 65.144C207.387 65.7147 207.307 66.1893 207.147 66.568C206.987 66.9413 206.75 67.288 206.435 67.608C206.121 67.9227 205.734 68.28 205.275 68.68L202.155 71.416L201.979 70.936H207.387V72.984H199.323ZM213.572 73.24C212.718 73.24 211.972 73.0613 211.332 72.704C210.692 72.3467 210.193 71.848 209.836 71.208C209.478 70.568 209.3 69.8213 209.3 68.968V65.512C209.3 64.6587 209.478 63.912 209.836 63.272C210.193 62.632 210.692 62.1333 211.332 61.776C211.972 61.4187 212.718 61.24 213.572 61.24C214.425 61.24 215.172 61.4187 215.812 61.776C216.452 62.1333 216.95 62.632 217.308 63.272C217.665 63.912 217.844 64.6587 217.844 65.512V68.968C217.844 69.8213 217.665 70.568 217.308 71.208C216.95 71.848 216.452 72.3467 215.812 72.704C215.172 73.0613 214.425 73.24 213.572 73.24ZM213.572 71.176C213.956 71.176 214.302 71.0853 214.612 70.904C214.921 70.7227 215.166 70.4773 215.348 70.168C215.529 69.8587 215.62 69.512 215.62 69.128V65.336C215.62 64.952 215.529 64.6053 215.348 64.296C215.166 63.9867 214.921 63.7413 214.612 63.56C214.302 63.3787 213.956 63.288 213.572 63.288C213.188 63.288 212.841 63.3787 212.532 63.56C212.222 63.7413 211.977 63.9867 211.796 64.296C211.614 64.6053 211.524 64.952 211.524 65.336V69.128C211.524 69.512 211.614 69.8587 211.796 70.168C211.977 70.4773 212.222 70.7227 212.532 70.904C212.841 71.0853 213.188 71.176 213.572 71.176ZM222.081 73V63.848L219.921 65.176V62.776L222.081 61.48H224.305V73H222.081ZM230.771 73.24C230.189 73.24 229.643 73.12 229.131 72.88C228.624 72.64 228.187 72.3067 227.819 71.88C227.451 71.4533 227.187 70.9573 227.027 70.392L229.123 69.832C229.192 70.104 229.315 70.3387 229.491 70.536C229.672 70.7333 229.88 70.888 230.115 71C230.355 71.1067 230.6 71.16 230.851 71.16C231.181 71.16 231.483 71.08 231.755 70.92C232.032 70.76 232.251 70.544 232.411 70.272C232.576 70 232.659 69.6987 232.659 69.368C232.659 69.0373 232.576 68.736 232.411 68.464C232.251 68.192 232.032 67.976 231.755 67.816C231.483 67.656 231.181 67.576 230.851 67.576C230.445 67.576 230.115 67.6453 229.859 67.784C229.603 67.9173 229.411 68.0453 229.283 68.168L227.443 67.608L227.795 61.48H234.083V63.512H228.995L229.763 62.792L229.523 66.744L229.155 66.296C229.443 66.0613 229.771 65.8907 230.139 65.784C230.507 65.6773 230.851 65.624 231.171 65.624C231.896 65.624 232.533 65.7867 233.083 66.112C233.637 66.432 234.069 66.8747 234.379 67.44C234.693 68 234.851 68.6427 234.851 69.368C234.851 70.0933 234.661 70.7493 234.283 71.336C233.904 71.9173 233.405 72.3813 232.787 72.728C232.168 73.0693 231.496 73.24 230.771 73.24Z" fill="#2E2E2E"/>
<path d="M305.207 54.2071C305.598 53.8166 305.598 53.1834 305.207 52.7929L298.843 46.4289C298.453 46.0384 297.819 46.0384 297.429 46.4289C297.038 46.8195 297.038 47.4526 297.429 47.8431L303.086 53.5L297.429 59.1569C297.038 59.5474 297.038 60.1805 297.429 60.5711C297.819 60.9616 298.453 60.9616 298.843 60.5711L305.207 54.2071ZM264.5 52.5C263.948 52.5 263.5 52.9477 263.5 53.5C263.5 54.0523 263.948 54.5 264.5 54.5V52.5ZM304.5 52.5H264.5V54.5H304.5V52.5Z" fill="#F2F2F2"/>
<path d="M151.207 54.2071C151.598 53.8166 151.598 53.1834 151.207 52.7929L144.843 46.4289C144.453 46.0384 143.819 46.0384 143.429 46.4289C143.038 46.8195 143.038 47.4526 143.429 47.8431L149.086 53.5L143.429 59.1569C143.038 59.5474 143.038 60.1805 143.429 60.5711C143.819 60.9616 144.453 60.9616 144.843 60.5711L151.207 54.2071ZM110.5 52.5C109.948 52.5 109.5 52.9477 109.5 53.5C109.5 54.0523 109.948 54.5 110.5 54.5V52.5ZM150.5 52.5H110.5V54.5H150.5V52.5Z" fill="#F2F2F2"/>
<path d="M151.207 54.2071C151.598 53.8166 151.598 53.1834 151.207 52.7929L144.843 46.4289C144.453 46.0384 143.819 46.0384 143.429 46.4289C143.038 46.8195 143.038 47.4526 143.429 47.8431L149.086 53.5L143.429 59.1569C143.038 59.5474 143.038 60.1805 143.429 60.5711C143.819 60.9616 144.453 60.9616 144.843 60.5711L151.207 54.2071ZM110.5 52.5C109.948 52.5 109.5 52.9477 109.5 53.5C109.5 54.0523 109.948 54.5 110.5 54.5V52.5ZM150.5 52.5H110.5V54.5H150.5V52.5Z" fill="#F2F2F2"/>
<path d="M151.207 54.2071C151.598 53.8166 151.598 53.1834 151.207 52.7929L144.843 46.4289C144.453 46.0384 143.819 46.0384 143.429 46.4289C143.038 46.8195 143.038 47.4526 143.429 47.8431L149.086 53.5L143.429 59.1569C143.038 59.5474 143.038 60.1805 143.429 60.5711C143.819 60.9616 144.453 60.9616 144.843 60.5711L151.207 54.2071ZM110.5 52.5C109.948 52.5 109.5 52.9477 109.5 53.5C109.5 54.0523 109.948 54.5 110.5 54.5V52.5ZM150.5 52.5H110.5V54.5H150.5V52.5Z" fill="#F2F2F2"/>
<path fill-rule="evenodd" clip-rule="evenodd" d="M547.6 0H462V107H569V21.4L547.6 0Z" fill="#F9D363"/>
<path d="M547.6 -7.59289e-06L569 21.4L547.6 21.4L547.6 -7.59289e-06Z" fill="#D7B755"/>
<path d="M501.55 51V39.48H509.07V41.512H503.726V43.976H508.11V46.008H503.726V48.968H509.07V51H501.55ZM515.339 51.24C514.486 51.24 513.715 51.0907 513.027 50.792C512.345 50.488 511.782 50.056 511.339 49.496C510.902 48.9307 510.625 48.2587 510.507 47.48L512.779 47.144C512.939 47.8053 513.27 48.3147 513.771 48.672C514.273 49.0293 514.843 49.208 515.483 49.208C515.841 49.208 516.187 49.152 516.523 49.04C516.859 48.928 517.134 48.7627 517.347 48.544C517.566 48.3253 517.675 48.056 517.675 47.736C517.675 47.6187 517.657 47.5067 517.619 47.4C517.587 47.288 517.531 47.184 517.451 47.088C517.371 46.992 517.257 46.9013 517.107 46.816C516.963 46.7307 516.779 46.6533 516.555 46.584L513.563 45.704C513.339 45.64 513.078 45.5493 512.779 45.432C512.486 45.3147 512.201 45.1467 511.923 44.928C511.646 44.7093 511.414 44.4213 511.227 44.064C511.046 43.7013 510.955 43.2453 510.955 42.696C510.955 41.9227 511.15 41.28 511.539 40.768C511.929 40.256 512.449 39.8747 513.099 39.624C513.75 39.3733 514.47 39.2507 515.259 39.256C516.054 39.2667 516.763 39.4027 517.387 39.664C518.011 39.9253 518.534 40.3067 518.955 40.808C519.377 41.304 519.681 41.912 519.867 42.632L517.515 43.032C517.43 42.6587 517.273 42.344 517.043 42.088C516.814 41.832 516.539 41.6373 516.219 41.504C515.905 41.3707 515.574 41.2987 515.227 41.288C514.886 41.2773 514.563 41.3253 514.259 41.432C513.961 41.5333 513.715 41.6827 513.523 41.88C513.337 42.0773 513.243 42.312 513.243 42.584C513.243 42.8347 513.321 43.04 513.475 43.2C513.63 43.3547 513.825 43.48 514.059 43.576C514.294 43.672 514.534 43.752 514.779 43.816L516.779 44.36C517.078 44.44 517.409 44.5467 517.771 44.68C518.134 44.808 518.481 44.9893 518.811 45.224C519.147 45.4533 519.422 45.7573 519.635 46.136C519.854 46.5147 519.963 46.9947 519.963 47.576C519.963 48.1947 519.833 48.736 519.571 49.2C519.315 49.6587 518.969 50.04 518.531 50.344C518.094 50.6427 517.598 50.8667 517.043 51.016C516.494 51.1653 515.926 51.24 515.339 51.24ZM525.578 51.24C524.799 51.24 524.106 51.0827 523.498 50.768C522.895 50.448 522.42 50.0107 522.074 49.456C521.732 48.896 521.562 48.2587 521.562 47.544C521.562 46.936 521.698 46.3627 521.97 45.824C522.247 45.2853 522.644 44.8453 523.162 44.504L523.114 45.176C522.724 44.7973 522.418 44.3973 522.194 43.976C521.975 43.5547 521.866 43.08 521.866 42.552C521.866 41.8853 522.023 41.304 522.338 40.808C522.658 40.312 523.095 39.928 523.65 39.656C524.21 39.3787 524.852 39.24 525.578 39.24C526.303 39.24 526.943 39.3787 527.498 39.656C528.058 39.928 528.495 40.312 528.81 40.808C529.13 41.304 529.29 41.8853 529.29 42.552C529.29 43.08 529.186 43.5547 528.978 43.976C528.77 44.392 528.452 44.7973 528.026 45.192V44.52C528.532 44.84 528.922 45.272 529.194 45.816C529.471 46.36 529.61 46.936 529.61 47.544C529.61 48.2587 529.436 48.896 529.09 49.456C528.743 50.0107 528.266 50.448 527.658 50.768C527.05 51.0827 526.356 51.24 525.578 51.24ZM525.578 49.192C526.09 49.192 526.506 49.0533 526.826 48.776C527.146 48.4987 527.306 48.088 527.306 47.544C527.306 47.0053 527.146 46.5947 526.826 46.312C526.506 46.024 526.09 45.88 525.578 45.88C525.066 45.88 524.652 46.024 524.338 46.312C524.023 46.5947 523.866 47.0053 523.866 47.544C523.866 48.088 524.023 48.4987 524.338 48.776C524.652 49.0533 525.066 49.192 525.578 49.192ZM525.578 43.816C525.994 43.816 526.332 43.7147 526.594 43.512C526.855 43.304 526.986 42.984 526.986 42.552C526.986 42.12 526.855 41.8 526.594 41.592C526.332 41.3787 525.994 41.272 525.578 41.272C525.162 41.272 524.823 41.3787 524.562 41.592C524.3 41.8 524.17 42.12 524.17 42.552C524.17 42.984 524.3 43.304 524.562 43.512C524.823 43.7147 525.162 43.816 525.578 43.816ZM488.331 73V61.48H495.851V63.512H490.507V65.976H494.891V68.008H490.507V70.968H495.851V73H488.331ZM502.12 73.24C501.267 73.24 500.496 73.0907 499.808 72.792C499.126 72.488 498.563 72.056 498.12 71.496C497.683 70.9307 497.406 70.2587 497.288 69.48L499.56 69.144C499.72 69.8053 500.051 70.3147 500.552 70.672C501.054 71.0293 501.624 71.208 502.264 71.208C502.622 71.208 502.968 71.152 503.304 71.04C503.64 70.928 503.915 70.7627 504.128 70.544C504.347 70.3253 504.456 70.056 504.456 69.736C504.456 69.6187 504.438 69.5067 504.4 69.4C504.368 69.288 504.312 69.184 504.232 69.088C504.152 68.992 504.038 68.9013 503.888 68.816C503.744 68.7307 503.56 68.6533 503.336 68.584L500.344 67.704C500.12 67.64 499.859 67.5493 499.56 67.432C499.267 67.3147 498.982 67.1467 498.704 66.928C498.427 66.7093 498.195 66.4213 498.008 66.064C497.827 65.7013 497.736 65.2453 497.736 64.696C497.736 63.9227 497.931 63.28 498.32 62.768C498.71 62.256 499.23 61.8747 499.88 61.624C500.531 61.3733 501.251 61.2507 502.04 61.256C502.835 61.2667 503.544 61.4027 504.168 61.664C504.792 61.9253 505.315 62.3067 505.736 62.808C506.158 63.304 506.462 63.912 506.648 64.632L504.296 65.032C504.211 64.6587 504.054 64.344 503.824 64.088C503.595 63.832 503.32 63.6373 503 63.504C502.686 63.3707 502.355 63.2987 502.008 63.288C501.667 63.2773 501.344 63.3253 501.04 63.432C500.742 63.5333 500.496 63.6827 500.304 63.88C500.118 64.0773 500.024 64.312 500.024 64.584C500.024 64.8347 500.102 65.04 500.256 65.2C500.411 65.3547 500.606 65.48 500.84 65.576C501.075 65.672 501.315 65.752 501.56 65.816L503.56 66.36C503.859 66.44 504.19 66.5467 504.552 66.68C504.915 66.808 505.262 66.9893 505.592 67.224C505.928 67.4533 506.203 67.7573 506.416 68.136C506.635 68.5147 506.744 68.9947 506.744 69.576C506.744 70.1947 506.614 70.736 506.352 71.2C506.096 71.6587 505.75 72.04 505.312 72.344C504.875 72.6427 504.379 72.8667 503.824 73.016C503.275 73.1653 502.707 73.24 502.12 73.24ZM508.183 72.984V71.096L513.015 66.808C513.377 66.488 513.633 66.1867 513.783 65.904C513.932 65.6213 514.007 65.3573 514.007 65.112C514.007 64.76 513.935 64.448 513.791 64.176C513.647 63.8987 513.444 63.6827 513.183 63.528C512.921 63.368 512.615 63.288 512.263 63.288C511.895 63.288 511.569 63.3733 511.287 63.544C511.009 63.7093 510.793 63.9307 510.639 64.208C510.484 64.48 510.412 64.776 510.423 65.096H508.183C508.183 64.3067 508.356 63.624 508.703 63.048C509.049 62.472 509.532 62.0267 510.151 61.712C510.769 61.3973 511.489 61.24 512.311 61.24C513.063 61.24 513.735 61.4053 514.327 61.736C514.924 62.0613 515.393 62.5173 515.735 63.104C516.076 63.6907 516.247 64.3707 516.247 65.144C516.247 65.7147 516.167 66.1893 516.007 66.568C515.847 66.9413 515.609 67.288 515.295 67.608C514.98 67.9227 514.593 68.28 514.135 68.68L511.015 71.416L510.839 70.936H516.247V72.984H508.183ZM522.431 73.24C521.578 73.24 520.831 73.0613 520.191 72.704C519.551 72.3467 519.052 71.848 518.695 71.208C518.338 70.568 518.159 69.8213 518.159 68.968V65.512C518.159 64.6587 518.338 63.912 518.695 63.272C519.052 62.632 519.551 62.1333 520.191 61.776C520.831 61.4187 521.578 61.24 522.431 61.24C523.284 61.24 524.031 61.4187 524.671 61.776C525.311 62.1333 525.81 62.632 526.167 63.272C526.524 63.912 526.703 64.6587 526.703 65.512V68.968C526.703 69.8213 526.524 70.568 526.167 71.208C525.81 71.848 525.311 72.3467 524.671 72.704C524.031 73.0613 523.284 73.24 522.431 73.24ZM522.431 71.176C522.815 71.176 523.162 71.0853 523.471 70.904C523.78 70.7227 524.026 70.4773 524.207 70.168C524.388 69.8587 524.479 69.512 524.479 69.128V65.336C524.479 64.952 524.388 64.6053 524.207 64.296C524.026 63.9867 523.78 63.7413 523.471 63.56C523.162 63.3787 522.815 63.288 522.431 63.288C522.047 63.288 521.7 63.3787 521.391 63.56C521.082 63.7413 520.836 63.9867 520.655 64.296C520.474 64.6053 520.383 64.952 520.383 65.336V69.128C520.383 69.512 520.474 69.8587 520.655 70.168C520.836 70.4773 521.082 70.7227 521.391 70.904C521.7 71.0853 522.047 71.176 522.431 71.176ZM530.94 73V63.848L528.78 65.176V62.776L530.94 61.48H533.164V73H530.94ZM536.782 73L540.654 63.528H535.726V61.48H542.99V63.528L539.134 73H536.782Z" fill="#2E2E2E"/>
<path d="M613.207 54.2071C613.598 53.8166 613.598 53.1834 613.207 52.7929L606.843 46.4289C606.453 46.0384 605.819 46.0384 605.429 46.4289C605.038 46.8195 605.038 47.4526 605.429 47.8431L611.086 53.5L605.429 59.1569C605.038 59.5474 605.038 60.1805 605.429 60.5711C605.819 60.9616 606.453 60.9616 606.843 60.5711L613.207 54.2071ZM572.5 52.5C571.948 52.5 571.5 52.9477 571.5 53.5C571.5 54.0523 571.948 54.5 572.5 54.5V52.5ZM612.5 52.5H572.5V54.5H612.5V52.5Z" fill="#F2F2F2"/>
<path d="M459.207 54.2071C459.598 53.8166 459.598 53.1834 459.207 52.7929L452.843 46.4289C452.453 46.0384 451.819 46.0384 451.429 46.4289C451.038 46.8195 451.038 47.4526 451.429 47.8431L457.086 53.5L451.429 59.1569C451.038 59.5474 451.038 60.1805 451.429 60.5711C451.819 60.9616 452.453 60.9616 452.843 60.5711L459.207 54.2071ZM418.5 52.5C417.948 52.5 417.5 52.9477 417.5 53.5C417.5 54.0523 417.948 54.5 418.5 54.5V52.5ZM458.5 52.5H418.5V54.5H458.5V52.5Z" fill="#F2F2F2"/>
<path fill-rule="evenodd" clip-rule="evenodd" d="M372.6 178H287V285H394V199.4L372.6 178Z" fill="#F9D363"/>
<path d="M372.6 178L394 199.4L372.6 199.4L372.6 178Z" fill="#D7B755"/>
<path d="M322.011 229V217.48H329.531V219.512H324.187V221.976H328.571V224.008H324.187V226.968H329.531V229H322.011ZM335.8 229.24C334.947 229.24 334.176 229.091 333.488 228.792C332.805 228.488 332.243 228.056 331.8 227.496C331.363 226.931 331.085 226.259 330.968 225.48L333.24 225.144C333.4 225.805 333.731 226.315 334.232 226.672C334.733 227.029 335.304 227.208 335.944 227.208C336.301 227.208 336.648 227.152 336.984 227.04C337.32 226.928 337.595 226.763 337.808 226.544C338.027 226.325 338.136 226.056 338.136 225.736C338.136 225.619 338.117 225.507 338.08 225.4C338.048 225.288 337.992 225.184 337.912 225.088C337.832 224.992 337.717 224.901 337.568 224.816C337.424 224.731 337.24 224.653 337.016 224.584L334.024 223.704C333.8 223.64 333.539 223.549 333.24 223.432C332.947 223.315 332.661 223.147 332.384 222.928C332.107 222.709 331.875 222.421 331.688 222.064C331.507 221.701 331.416 221.245 331.416 220.696C331.416 219.923 331.611 219.28 332 218.768C332.389 218.256 332.909 217.875 333.56 217.624C334.211 217.373 334.931 217.251 335.72 217.256C336.515 217.267 337.224 217.403 337.848 217.664C338.472 217.925 338.995 218.307 339.416 218.808C339.837 219.304 340.141 219.912 340.328 220.632L337.976 221.032C337.891 220.659 337.733 220.344 337.504 220.088C337.275 219.832 337 219.637 336.68 219.504C336.365 219.371 336.035 219.299 335.688 219.288C335.347 219.277 335.024 219.325 334.72 219.432C334.421 219.533 334.176 219.683 333.984 219.88C333.797 220.077 333.704 220.312 333.704 220.584C333.704 220.835 333.781 221.04 333.936 221.2C334.091 221.355 334.285 221.48 334.52 221.576C334.755 221.672 334.995 221.752 335.24 221.816L337.24 222.36C337.539 222.44 337.869 222.547 338.232 222.68C338.595 222.808 338.941 222.989 339.272 223.224C339.608 223.453 339.883 223.757 340.096 224.136C340.315 224.515 340.424 224.995 340.424 225.576C340.424 226.195 340.293 226.736 340.032 227.2C339.776 227.659 339.429 228.04 338.992 228.344C338.555 228.643 338.059 228.867 337.504 229.016C336.955 229.165 336.387 229.24 335.8 229.24ZM344.183 229V219.848L342.023 221.176V218.776L344.183 217.48H346.407V229H344.183ZM353.72 229.24C352.867 229.24 352.12 229.061 351.48 228.704C350.84 228.347 350.341 227.848 349.984 227.208C349.627 226.568 349.448 225.821 349.448 224.968V221.512C349.448 220.659 349.627 219.912 349.984 219.272C350.341 218.632 350.84 218.133 351.48 217.776C352.12 217.419 352.867 217.24 353.72 217.24C354.573 217.24 355.32 217.419 355.96 217.776C356.6 218.133 357.099 218.632 357.456 219.272C357.813 219.912 357.992 220.659 357.992 221.512V224.968C357.992 225.821 357.813 226.568 357.456 227.208C357.099 227.848 356.6 228.347 355.96 228.704C355.32 229.061 354.573 229.24 353.72 229.24ZM353.72 227.176C354.104 227.176 354.451 227.085 354.76 226.904C355.069 226.723 355.315 226.477 355.496 226.168C355.677 225.859 355.768 225.512 355.768 225.128V221.336C355.768 220.952 355.677 220.605 355.496 220.296C355.315 219.987 355.069 219.741 354.76 219.56C354.451 219.379 354.104 219.288 353.72 219.288C353.336 219.288 352.989 219.379 352.68 219.56C352.371 219.741 352.125 219.987 351.944 220.296C351.763 220.605 351.672 220.952 351.672 221.336V225.128C351.672 225.512 351.763 225.859 351.944 226.168C352.125 226.477 352.371 226.723 352.68 226.904C352.989 227.085 353.336 227.176 353.72 227.176ZM312.206 251V239.48H319.726V241.512H314.382V243.976H318.766V246.008H314.382V248.968H319.726V251H312.206ZM325.995 251.24C325.142 251.24 324.371 251.091 323.683 250.792C323.001 250.488 322.438 250.056 321.995 249.496C321.558 248.931 321.281 248.259 321.163 247.48L323.435 247.144C323.595 247.805 323.926 248.315 324.427 248.672C324.929 249.029 325.499 249.208 326.139 249.208C326.497 249.208 326.843 249.152 327.179 249.04C327.515 248.928 327.79 248.763 328.003 248.544C328.222 248.325 328.331 248.056 328.331 247.736C328.331 247.619 328.313 247.507 328.275 247.4C328.243 247.288 328.187 247.184 328.107 247.088C328.027 246.992 327.913 246.901 327.763 246.816C327.619 246.731 327.435 246.653 327.211 246.584L324.219 245.704C323.995 245.64 323.734 245.549 323.435 245.432C323.142 245.315 322.857 245.147 322.579 244.928C322.302 244.709 322.07 244.421 321.883 244.064C321.702 243.701 321.611 243.245 321.611 242.696C321.611 241.923 321.806 241.28 322.195 240.768C322.585 240.256 323.105 239.875 323.755 239.624C324.406 239.373 325.126 239.251 325.915 239.256C326.71 239.267 327.419 239.403 328.043 239.664C328.667 239.925 329.19 240.307 329.611 240.808C330.033 241.304 330.337 241.912 330.523 242.632L328.171 243.032C328.086 242.659 327.929 242.344 327.699 242.088C327.47 241.832 327.195 241.637 326.875 241.504C326.561 241.371 326.23 241.299 325.883 241.288C325.542 241.277 325.219 241.325 324.915 241.432C324.617 241.533 324.371 241.683 324.179 241.88C323.993 242.077 323.899 242.312 323.899 242.584C323.899 242.835 323.977 243.04 324.131 243.2C324.286 243.355 324.481 243.48 324.715 243.576C324.95 243.672 325.19 243.752 325.435 243.816L327.435 244.36C327.734 244.44 328.065 244.547 328.427 244.68C328.79 244.808 329.137 244.989 329.467 245.224C329.803 245.453 330.078 245.757 330.291 246.136C330.51 246.515 330.619 246.995 330.619 247.576C330.619 248.195 330.489 248.736 330.227 249.2C329.971 249.659 329.625 250.04 329.187 250.344C328.75 250.643 328.254 250.867 327.699 251.016C327.15 251.165 326.582 251.24 325.995 251.24ZM332.058 250.984V249.096L336.89 244.808C337.252 244.488 337.508 244.187 337.658 243.904C337.807 243.621 337.882 243.357 337.882 243.112C337.882 242.76 337.81 242.448 337.666 242.176C337.522 241.899 337.319 241.683 337.058 241.528C336.796 241.368 336.49 241.288 336.138 241.288C335.77 241.288 335.444 241.373 335.162 241.544C334.884 241.709 334.668 241.931 334.514 242.208C334.359 242.48 334.287 242.776 334.298 243.096H332.058C332.058 242.307 332.231 241.624 332.578 241.048C332.924 240.472 333.407 240.027 334.026 239.712C334.644 239.397 335.364 239.24 336.186 239.24C336.938 239.24 337.61 239.405 338.202 239.736C338.799 240.061 339.268 240.517 339.61 241.104C339.951 241.691 340.122 242.371 340.122 243.144C340.122 243.715 340.042 244.189 339.882 244.568C339.722 244.941 339.484 245.288 339.17 245.608C338.855 245.923 338.468 246.28 338.01 246.68L334.89 249.416L334.714 248.936H340.122V250.984H332.058ZM346.306 251.24C345.453 251.24 344.706 251.061 344.066 250.704C343.426 250.347 342.927 249.848 342.57 249.208C342.213 248.568 342.034 247.821 342.034 246.968V243.512C342.034 242.659 342.213 241.912 342.57 241.272C342.927 240.632 343.426 240.133 344.066 239.776C344.706 239.419 345.453 239.24 346.306 239.24C347.159 239.24 347.906 239.419 348.546 239.776C349.186 240.133 349.685 240.632 350.042 241.272C350.399 241.912 350.578 242.659 350.578 243.512V246.968C350.578 247.821 350.399 248.568 350.042 249.208C349.685 249.848 349.186 250.347 348.546 250.704C347.906 251.061 347.159 251.24 346.306 251.24ZM346.306 249.176C346.69 249.176 347.037 249.085 347.346 248.904C347.655 248.723 347.901 248.477 348.082 248.168C348.263 247.859 348.354 247.512 348.354 247.128V243.336C348.354 242.952 348.263 242.605 348.082 242.296C347.901 241.987 347.655 241.741 347.346 241.56C347.037 241.379 346.69 241.288 346.306 241.288C345.922 241.288 345.575 241.379 345.266 241.56C344.957 241.741 344.711 241.987 344.53 242.296C344.349 242.605 344.258 242.952 344.258 243.336V247.128C344.258 247.512 344.349 247.859 344.53 248.168C344.711 248.477 344.957 248.723 345.266 248.904C345.575 249.085 345.922 249.176 346.306 249.176ZM354.815 251V241.848L352.655 243.176V240.776L354.815 239.48H357.039V251H354.815ZM363.777 239.256C364.54 239.256 365.222 239.435 365.825 239.792C366.433 240.149 366.913 240.648 367.265 241.288C367.617 241.923 367.793 242.659 367.793 243.496V246.84C367.793 247.747 367.617 248.531 367.265 249.192C366.913 249.848 366.417 250.355 365.777 250.712C365.137 251.064 364.385 251.24 363.521 251.24C362.961 251.24 362.428 251.157 361.921 250.992C361.42 250.821 360.956 250.541 360.529 250.152L362.081 248.6C362.273 248.792 362.494 248.941 362.745 249.048C363.001 249.155 363.26 249.208 363.521 249.208C363.937 249.208 364.297 249.112 364.601 248.92C364.91 248.723 365.148 248.469 365.313 248.16C365.484 247.845 365.569 247.512 365.569 247.16V245.448L365.937 245.848C365.612 246.184 365.23 246.443 364.793 246.624C364.356 246.8 363.905 246.888 363.441 246.888C362.716 246.888 362.076 246.725 361.521 246.4C360.972 246.075 360.54 245.629 360.225 245.064C359.916 244.499 359.761 243.853 359.761 243.128C359.761 242.403 359.945 241.749 360.313 241.168C360.681 240.581 361.169 240.117 361.777 239.776C362.385 239.429 363.052 239.256 363.777 239.256ZM363.777 241.336C363.446 241.336 363.142 241.416 362.865 241.576C362.593 241.736 362.374 241.952 362.209 242.224C362.049 242.496 361.969 242.797 361.969 243.128C361.969 243.459 362.049 243.763 362.209 244.04C362.369 244.312 362.585 244.531 362.857 244.696C363.129 244.856 363.43 244.936 363.761 244.936C364.092 244.936 364.393 244.856 364.665 244.696C364.942 244.531 365.161 244.312 365.321 244.04C365.486 243.763 365.569 243.459 365.569 243.128C365.569 242.808 365.489 242.512 365.329 242.24C365.169 241.968 364.953 241.749 364.681 241.584C364.409 241.419 364.108 241.336 363.777 241.336Z" fill="#2E2E2E"/>
<path fill-rule="evenodd" clip-rule="evenodd" d="M518.6 178H433V285H540V199.4L518.6 178Z" fill="#F9D363"/>
<path d="M518.6 178L540 199.4L518.6 199.4L518.6 178Z" fill="#D7B755"/>
<path d="M469.768 229V217.48H477.288V219.512H471.944V221.976H476.328V224.008H471.944V226.968H477.288V229H469.768ZM483.558 229.24C482.705 229.24 481.934 229.091 481.246 228.792C480.563 228.488 480.001 228.056 479.558 227.496C479.121 226.931 478.843 226.259 478.726 225.48L480.998 225.144C481.158 225.805 481.489 226.315 481.99 226.672C482.491 227.029 483.062 227.208 483.702 227.208C484.059 227.208 484.406 227.152 484.742 227.04C485.078 226.928 485.353 226.763 485.566 226.544C485.785 226.325 485.894 226.056 485.894 225.736C485.894 225.619 485.875 225.507 485.838 225.4C485.806 225.288 485.75 225.184 485.67 225.088C485.59 224.992 485.475 224.901 485.326 224.816C485.182 224.731 484.998 224.653 484.774 224.584L481.782 223.704C481.558 223.64 481.297 223.549 480.998 223.432C480.705 223.315 480.419 223.147 480.142 222.928C479.865 222.709 479.633 222.421 479.446 222.064C479.265 221.701 479.174 221.245 479.174 220.696C479.174 219.923 479.369 219.28 479.758 218.768C480.147 218.256 480.667 217.875 481.318 217.624C481.969 217.373 482.689 217.251 483.478 217.256C484.273 217.267 484.982 217.403 485.606 217.664C486.23 217.925 486.753 218.307 487.174 218.808C487.595 219.304 487.899 219.912 488.086 220.632L485.734 221.032C485.649 220.659 485.491 220.344 485.262 220.088C485.033 219.832 484.758 219.637 484.438 219.504C484.123 219.371 483.793 219.299 483.446 219.288C483.105 219.277 482.782 219.325 482.478 219.432C482.179 219.533 481.934 219.683 481.742 219.88C481.555 220.077 481.462 220.312 481.462 220.584C481.462 220.835 481.539 221.04 481.694 221.2C481.849 221.355 482.043 221.48 482.278 221.576C482.513 221.672 482.753 221.752 482.998 221.816L484.998 222.36C485.297 222.44 485.627 222.547 485.99 222.68C486.353 222.808 486.699 222.989 487.03 223.224C487.366 223.453 487.641 223.757 487.854 224.136C488.073 224.515 488.182 224.995 488.182 225.576C488.182 226.195 488.051 226.736 487.79 227.2C487.534 227.659 487.187 228.04 486.75 228.344C486.313 228.643 485.817 228.867 485.262 229.016C484.713 229.165 484.145 229.24 483.558 229.24ZM491.94 229V219.848L489.78 221.176V218.776L491.94 217.48H494.164V229H491.94ZM499.206 229V219.848L497.046 221.176V218.776L499.206 217.48H501.43V229H499.206ZM456.597 251V239.48H464.117V241.512H458.773V243.976H463.157V246.008H458.773V248.968H464.117V251H456.597ZM470.386 251.24C469.533 251.24 468.762 251.091 468.074 250.792C467.391 250.488 466.829 250.056 466.386 249.496C465.949 248.931 465.671 248.259 465.554 247.48L467.826 247.144C467.986 247.805 468.317 248.315 468.818 248.672C469.319 249.029 469.89 249.208 470.53 249.208C470.887 249.208 471.234 249.152 471.57 249.04C471.906 248.928 472.181 248.763 472.394 248.544C472.613 248.325 472.722 248.056 472.722 247.736C472.722 247.619 472.703 247.507 472.666 247.4C472.634 247.288 472.578 247.184 472.498 247.088C472.418 246.992 472.303 246.901 472.154 246.816C472.01 246.731 471.826 246.653 471.602 246.584L468.61 245.704C468.386 245.64 468.125 245.549 467.826 245.432C467.533 245.315 467.247 245.147 466.97 244.928C466.693 244.709 466.461 244.421 466.274 244.064C466.093 243.701 466.002 243.245 466.002 242.696C466.002 241.923 466.197 241.28 466.586 240.768C466.975 240.256 467.495 239.875 468.146 239.624C468.797 239.373 469.517 239.251 470.306 239.256C471.101 239.267 471.81 239.403 472.434 239.664C473.058 239.925 473.581 240.307 474.002 240.808C474.423 241.304 474.727 241.912 474.914 242.632L472.562 243.032C472.477 242.659 472.319 242.344 472.09 242.088C471.861 241.832 471.586 241.637 471.266 241.504C470.951 241.371 470.621 241.299 470.274 241.288C469.933 241.277 469.61 241.325 469.306 241.432C469.007 241.533 468.762 241.683 468.57 241.88C468.383 242.077 468.29 242.312 468.29 242.584C468.29 242.835 468.367 243.04 468.522 243.2C468.677 243.355 468.871 243.48 469.106 243.576C469.341 243.672 469.581 243.752 469.826 243.816L471.826 244.36C472.125 244.44 472.455 244.547 472.818 244.68C473.181 244.808 473.527 244.989 473.858 245.224C474.194 245.453 474.469 245.757 474.682 246.136C474.901 246.515 475.01 246.995 475.01 247.576C475.01 248.195 474.879 248.736 474.618 249.2C474.362 249.659 474.015 250.04 473.578 250.344C473.141 250.643 472.645 250.867 472.09 251.016C471.541 251.165 470.973 251.24 470.386 251.24ZM476.448 250.984V249.096L481.28 244.808C481.643 244.488 481.899 244.187 482.048 243.904C482.198 243.621 482.272 243.357 482.272 243.112C482.272 242.76 482.2 242.448 482.056 242.176C481.912 241.899 481.71 241.683 481.448 241.528C481.187 241.368 480.88 241.288 480.528 241.288C480.16 241.288 479.835 241.373 479.552 241.544C479.275 241.709 479.059 241.931 478.904 242.208C478.75 242.48 478.678 242.776 478.688 243.096H476.448C476.448 242.307 476.622 241.624 476.968 241.048C477.315 240.472 477.798 240.027 478.416 239.712C479.035 239.397 479.755 239.24 480.576 239.24C481.328 239.24 482 239.405 482.592 239.736C483.19 240.061 483.659 240.517 484 241.104C484.342 241.691 484.512 242.371 484.512 243.144C484.512 243.715 484.432 244.189 484.272 244.568C484.112 244.941 483.875 245.288 483.56 245.608C483.246 245.923 482.859 246.28 482.4 246.68L479.28 249.416L479.104 248.936H484.512V250.984H476.448ZM490.697 251.24C489.843 251.24 489.097 251.061 488.457 250.704C487.817 250.347 487.318 249.848 486.961 249.208C486.603 248.568 486.425 247.821 486.425 246.968V243.512C486.425 242.659 486.603 241.912 486.961 241.272C487.318 240.632 487.817 240.133 488.457 239.776C489.097 239.419 489.843 239.24 490.697 239.24C491.55 239.24 492.297 239.419 492.937 239.776C493.577 240.133 494.075 240.632 494.433 241.272C494.79 241.912 494.969 242.659 494.969 243.512V246.968C494.969 247.821 494.79 248.568 494.433 249.208C494.075 249.848 493.577 250.347 492.937 250.704C492.297 251.061 491.55 251.24 490.697 251.24ZM490.697 249.176C491.081 249.176 491.427 249.085 491.737 248.904C492.046 248.723 492.291 248.477 492.473 248.168C492.654 247.859 492.745 247.512 492.745 247.128V243.336C492.745 242.952 492.654 242.605 492.473 242.296C492.291 241.987 492.046 241.741 491.737 241.56C491.427 241.379 491.081 241.288 490.697 241.288C490.313 241.288 489.966 241.379 489.657 241.56C489.347 241.741 489.102 241.987 488.921 242.296C488.739 242.605 488.649 242.952 488.649 243.336V247.128C488.649 247.512 488.739 247.859 488.921 248.168C489.102 248.477 489.347 248.723 489.657 248.904C489.966 249.085 490.313 249.176 490.697 249.176ZM496.886 250.984V249.096L501.718 244.808C502.081 244.488 502.337 244.187 502.486 243.904C502.635 243.621 502.71 243.357 502.71 243.112C502.71 242.76 502.638 242.448 502.494 242.176C502.35 241.899 502.147 241.683 501.886 241.528C501.625 241.368 501.318 241.288 500.966 241.288C500.598 241.288 500.273 241.373 499.99 241.544C499.713 241.709 499.497 241.931 499.342 242.208C499.187 242.48 499.115 242.776 499.126 243.096H496.886C496.886 242.307 497.059 241.624 497.406 241.048C497.753 240.472 498.235 240.027 498.854 239.712C499.473 239.397 500.193 239.24 501.014 239.24C501.766 239.24 502.438 239.405 503.03 239.736C503.627 240.061 504.097 240.517 504.438 241.104C504.779 241.691 504.95 242.371 504.95 243.144C504.95 243.715 504.87 244.189 504.71 244.568C504.55 244.941 504.313 245.288 503.998 245.608C503.683 245.923 503.297 246.28 502.838 246.68L499.718 249.416L499.542 248.936H504.95V250.984H496.886ZM511.134 251.24C510.281 251.24 509.534 251.061 508.894 250.704C508.254 250.347 507.756 249.848 507.398 249.208C507.041 248.568 506.862 247.821 506.862 246.968V243.512C506.862 242.659 507.041 241.912 507.398 241.272C507.756 240.632 508.254 240.133 508.894 239.776C509.534 239.419 510.281 239.24 511.134 239.24C511.988 239.24 512.734 239.419 513.374 239.776C514.014 240.133 514.513 240.632 514.87 241.272C515.228 241.912 515.406 242.659 515.406 243.512V246.968C515.406 247.821 515.228 248.568 514.87 249.208C514.513 249.848 514.014 250.347 513.374 250.704C512.734 251.061 511.988 251.24 511.134 251.24ZM511.134 249.176C511.518 249.176 511.865 249.085 512.174 248.904C512.484 248.723 512.729 248.477 512.91 248.168C513.092 247.859 513.182 247.512 513.182 247.128V243.336C513.182 242.952 513.092 242.605 512.91 242.296C512.729 241.987 512.484 241.741 512.174 241.56C511.865 241.379 511.518 241.288 511.134 241.288C510.75 241.288 510.404 241.379 510.094 241.56C509.785 241.741 509.54 241.987 509.358 242.296C509.177 242.605 509.086 242.952 509.086 243.336V247.128C509.086 247.512 509.177 247.859 509.358 248.168C509.54 248.477 509.785 248.723 510.094 248.904C510.404 249.085 510.75 249.176 511.134 249.176Z" fill="#2E2E2E"/>
<path d="M430.207 232.207C430.598 231.817 430.598 231.183 430.207 230.793L423.843 224.429C423.453 224.038 422.819 224.038 422.429 224.429C422.038 224.819 422.038 225.453 422.429 225.843L428.086 231.5L422.429 237.157C422.038 237.547 422.038 238.181 422.429 238.571C422.819 238.962 423.453 238.962 423.843 238.571L430.207 232.207ZM397.5 230.5C396.948 230.5 396.5 230.948 396.5 231.5C396.5 232.052 396.948 232.5 397.5 232.5V230.5ZM429.5 230.5H397.5V232.5H429.5V230.5Z" fill="#F2F2F2"/>
<path d="M284.207 232.207C284.598 231.817 284.598 231.183 284.207 230.793L277.843 224.429C277.453 224.038 276.819 224.038 276.429 224.429C276.038 224.819 276.038 225.453 276.429 225.843L282.086 231.5L276.429 237.157C276.038 237.547 276.038 238.181 276.429 238.571C276.819 238.962 277.453 238.962 277.843 238.571L284.207 232.207ZM726.5 52.5C725.948 52.5 725.5 52.9477 725.5 53.5C725.5 54.0523 725.948 54.5 726.5 54.5V52.5ZM283.5 230.5H279V232.5H283.5V230.5ZM256 207.5V166.5H254V207.5H256ZM279 143.5H731V141.5H279V143.5ZM756 118.5V77.5H754V118.5H756ZM731 52.5H726.5V54.5H731V52.5ZM756 77.5C756 63.6929 744.807 52.5 731 52.5V54.5C743.703 54.5 754 64.7975 754 77.5H756ZM731 143.5C744.807 143.5 756 132.307 756 118.5H754C754 131.203 743.703 141.5 731 141.5V143.5ZM256 166.5C256 153.797 266.297 143.5 279 143.5V141.5C265.193 141.5 254 152.693 254 166.5H256ZM279 230.5C266.297 230.5 256 220.203 256 207.5H254C254 221.307 265.193 232.5 279 232.5V230.5Z" fill="#F2F2F2"/>
</svg>
