<svg width="288" height="257" viewBox="0 0 288 257" fill="none" xmlns="http://www.w3.org/2000/svg">
<path d="M38.11 68V60.468C38.11 60.2767 38.1147 60.0597 38.124 59.817C38.1333 59.5743 38.1707 59.3293 38.236 59.082C38.306 58.8347 38.432 58.6107 38.614 58.41C38.8473 58.1487 39.0993 57.9713 39.37 57.878C39.6453 57.78 39.9113 57.7287 40.168 57.724C40.4247 57.7147 40.644 57.71 40.826 57.71H41.764V59.25H40.896C40.5973 59.25 40.3757 59.327 40.231 59.481C40.0863 59.6303 40.014 59.81 40.014 60.02V68H38.11ZM36.92 61.91V60.44H41.764V61.91H36.92ZM45.6944 68.224C45.1017 68.224 44.6187 68.1237 44.2454 67.923C43.8721 67.7223 43.5804 67.468 43.3704 67.16C43.1651 66.852 43.0181 66.5323 42.9294 66.201C42.8407 65.865 42.7871 65.5593 42.7684 65.284C42.7497 65.0087 42.7404 64.808 42.7404 64.682V60.44H44.6724V64.01C44.6724 64.1827 44.6817 64.4043 44.7004 64.675C44.7191 64.941 44.7774 65.2093 44.8754 65.48C44.9734 65.7507 45.1321 65.977 45.3514 66.159C45.5754 66.341 45.8904 66.432 46.2964 66.432C46.4597 66.432 46.6347 66.4063 46.8214 66.355C47.0081 66.3037 47.1831 66.2057 47.3464 66.061C47.5097 65.9117 47.6427 65.6947 47.7454 65.41C47.8527 65.1207 47.9064 64.7427 47.9064 64.276L48.9984 64.794C48.9984 65.3913 48.8771 65.9513 48.6344 66.474C48.3917 66.9967 48.0254 67.419 47.5354 67.741C47.0501 68.063 46.4364 68.224 45.6944 68.224ZM48.1444 68V65.494H47.9064V60.44H49.8244V68H48.1444ZM56.9328 68V64.43C56.9328 64.2573 56.9234 64.038 56.9048 63.772C56.8861 63.5013 56.8278 63.2307 56.7298 62.96C56.6318 62.6893 56.4708 62.463 56.2468 62.281C56.0274 62.099 55.7148 62.008 55.3088 62.008C55.1454 62.008 54.9704 62.0337 54.7838 62.085C54.5971 62.1363 54.4221 62.2367 54.2588 62.386C54.0954 62.5307 53.9601 62.7453 53.8528 63.03C53.7501 63.3147 53.6988 63.6927 53.6988 64.164L52.6068 63.646C52.6068 63.0487 52.7281 62.4887 52.9708 61.966C53.2134 61.4433 53.5774 61.021 54.0628 60.699C54.5528 60.377 55.1688 60.216 55.9108 60.216C56.5034 60.216 56.9864 60.3163 57.3598 60.517C57.7331 60.7177 58.0224 60.972 58.2278 61.28C58.4378 61.588 58.5871 61.91 58.6758 62.246C58.7644 62.5773 58.8181 62.8807 58.8368 63.156C58.8554 63.4313 58.8648 63.632 58.8648 63.758V68H56.9328ZM51.7668 68V60.44H53.4608V62.946H53.6988V68H51.7668ZM63.8765 68.21C63.0925 68.21 62.4205 68.035 61.8605 67.685C61.3005 67.335 60.8711 66.859 60.5725 66.257C60.2738 65.655 60.1245 64.976 60.1245 64.22C60.1245 63.4547 60.2785 62.771 60.5865 62.169C60.8991 61.567 61.3378 61.0933 61.9025 60.748C62.4671 60.4027 63.1345 60.23 63.9045 60.23C64.7958 60.23 65.5425 60.4563 66.1445 60.909C66.7511 61.357 67.1385 61.9707 67.3065 62.75L65.4025 63.254C65.2905 62.862 65.0945 62.5563 64.8145 62.337C64.5391 62.1177 64.2265 62.008 63.8765 62.008C63.4751 62.008 63.1461 62.106 62.8895 62.302C62.6328 62.4933 62.4438 62.757 62.3225 63.093C62.2011 63.4243 62.1405 63.8 62.1405 64.22C62.1405 64.878 62.2851 65.4123 62.5745 65.823C62.8685 66.229 63.3025 66.432 63.8765 66.432C64.3058 66.432 64.6325 66.334 64.8565 66.138C65.0805 65.942 65.2485 65.662 65.3605 65.298L67.3065 65.704C67.0918 66.5067 66.6858 67.125 66.0885 67.559C65.4911 67.993 64.7538 68.21 63.8765 68.21ZM73.2426 68C72.7199 68.098 72.2066 68.14 71.7026 68.126C71.2032 68.1167 70.7552 68.0303 70.3586 67.867C69.9666 67.699 69.6679 67.4307 69.4626 67.062C69.2759 66.7167 69.1779 66.3667 69.1686 66.012C69.1592 65.6527 69.1546 65.2467 69.1546 64.794V58.34H71.0586V64.682C71.0586 64.976 71.0609 65.242 71.0656 65.48C71.0749 65.7133 71.1239 65.9 71.2126 66.04C71.3806 66.306 71.6489 66.4507 72.0176 66.474C72.3862 66.4973 72.7946 66.4787 73.2426 66.418V68ZM67.8666 61.91V60.44H73.2426V61.91H67.8666ZM75.0673 59.39V57.71H76.9713V59.39H75.0673ZM75.0673 68V60.44H76.9713V68H75.0673ZM82.4718 68.21C81.7112 68.21 81.0438 68.0397 80.4698 67.699C79.8958 67.3583 79.4478 66.8893 79.1258 66.292C78.8085 65.69 78.6498 64.9993 78.6498 64.22C78.6498 63.4313 78.8132 62.7383 79.1398 62.141C79.4665 61.539 79.9168 61.07 80.4908 60.734C81.0648 60.398 81.7252 60.23 82.4718 60.23C83.2325 60.23 83.8998 60.4003 84.4738 60.741C85.0525 61.0817 85.5028 61.553 85.8248 62.155C86.1468 62.7523 86.3078 63.4407 86.3078 64.22C86.3078 65.004 86.1445 65.697 85.8178 66.299C85.4958 66.8963 85.0455 67.3653 84.4668 67.706C83.8928 68.042 83.2278 68.21 82.4718 68.21ZM82.4718 66.432C83.0832 66.432 83.5382 66.2267 83.8368 65.816C84.1402 65.4007 84.2918 64.8687 84.2918 64.22C84.2918 63.548 84.1378 63.0113 83.8298 62.61C83.5265 62.2087 83.0738 62.008 82.4718 62.008C82.0565 62.008 81.7158 62.1013 81.4498 62.288C81.1838 62.4747 80.9855 62.7337 80.8548 63.065C80.7288 63.3963 80.6658 63.7813 80.6658 64.22C80.6658 64.8967 80.8175 65.4357 81.1208 65.837C81.4288 66.2337 81.8792 66.432 82.4718 66.432ZM92.9992 68V64.43C92.9992 64.2573 92.9899 64.038 92.9712 63.772C92.9525 63.5013 92.8942 63.2307 92.7962 62.96C92.6982 62.6893 92.5372 62.463 92.3132 62.281C92.0939 62.099 91.7812 62.008 91.3752 62.008C91.2119 62.008 91.0369 62.0337 90.8502 62.085C90.6635 62.1363 90.4885 62.2367 90.3252 62.386C90.1619 62.5307 90.0265 62.7453 89.9192 63.03C89.8165 63.3147 89.7652 63.6927 89.7652 64.164L88.6732 63.646C88.6732 63.0487 88.7945 62.4887 89.0372 61.966C89.2799 61.4433 89.6439 61.021 90.1292 60.699C90.6192 60.377 91.2352 60.216 91.9772 60.216C92.5699 60.216 93.0529 60.3163 93.4262 60.517C93.7995 60.7177 94.0889 60.972 94.2942 61.28C94.5042 61.588 94.6535 61.91 94.7422 62.246C94.8309 62.5773 94.8845 62.8807 94.9032 63.156C94.9219 63.4313 94.9312 63.632 94.9312 63.758V68H92.9992ZM87.8332 68V60.44H89.5272V62.946H89.7652V68H87.8332ZM140.689 70.716C140.148 70.0813 139.684 69.3603 139.296 68.553C138.914 67.7457 138.622 66.901 138.421 66.019C138.225 65.1323 138.137 64.2527 138.155 63.38C138.137 62.5073 138.225 61.6277 138.421 60.741C138.622 59.8543 138.914 59.0097 139.296 58.207C139.684 57.3997 140.148 56.6787 140.689 56.044L142.103 57.08C141.534 57.766 141.088 58.452 140.766 59.138C140.444 59.8193 140.216 60.5123 140.08 61.217C139.95 61.917 139.882 62.638 139.877 63.38C139.882 64.122 139.95 64.8453 140.08 65.55C140.216 66.25 140.444 66.943 140.766 67.629C141.088 68.3103 141.534 68.994 142.103 69.68L140.689 70.716ZM182.343 70.716L180.929 69.68C181.498 68.994 181.944 68.3103 182.266 67.629C182.588 66.943 182.814 66.25 182.945 65.55C183.08 64.8453 183.15 64.122 183.155 63.38C183.15 62.638 183.08 61.917 182.945 61.217C182.814 60.5123 182.588 59.8193 182.266 59.138C181.944 58.452 181.498 57.766 180.929 57.08L182.343 56.044C182.884 56.6787 183.346 57.3997 183.729 58.207C184.116 59.0097 184.408 59.8543 184.604 60.741C184.805 61.6277 184.896 62.5073 184.877 63.38C184.896 64.2527 184.805 65.1323 184.604 66.019C184.408 66.901 184.116 67.7457 183.729 68.553C183.346 69.3603 182.884 70.0813 182.343 70.716ZM49.2202 91.21C48.4362 91.21 47.7642 91.035 47.2042 90.685C46.6442 90.335 46.2149 89.859 45.9162 89.257C45.6175 88.655 45.4682 87.976 45.4682 87.22C45.4682 86.4547 45.6222 85.771 45.9302 85.169C46.2429 84.567 46.6815 84.0933 47.2462 83.748C47.8109 83.4027 48.4782 83.23 49.2482 83.23C50.1395 83.23 50.8862 83.4563 51.4882 83.909C52.0949 84.357 52.4822 84.9707 52.6502 85.75L50.7462 86.254C50.6342 85.862 50.4382 85.5563 50.1582 85.337C49.8829 85.1177 49.5702 85.008 49.2202 85.008C48.8189 85.008 48.4899 85.106 48.2332 85.302C47.9765 85.4933 47.7875 85.757 47.6662 86.093C47.5449 86.4243 47.4842 86.8 47.4842 87.22C47.4842 87.878 47.6289 88.4123 47.9182 88.823C48.2122 89.229 48.6462 89.432 49.2202 89.432C49.6495 89.432 49.9762 89.334 50.2002 89.138C50.4242 88.942 50.5922 88.662 50.7042 88.298L52.6502 88.704C52.4355 89.5067 52.0295 90.125 51.4322 90.559C50.8349 90.993 50.0975 91.21 49.2202 91.21ZM57.2472 91.21C56.4866 91.21 55.8192 91.0397 55.2452 90.699C54.6712 90.3583 54.2232 89.8893 53.9012 89.292C53.5839 88.69 53.4252 87.9993 53.4252 87.22C53.4252 86.4313 53.5886 85.7383 53.9152 85.141C54.2419 84.539 54.6922 84.07 55.2662 83.734C55.8402 83.398 56.5006 83.23 57.2472 83.23C58.0079 83.23 58.6752 83.4003 59.2492 83.741C59.8279 84.0817 60.2782 84.553 60.6002 85.155C60.9222 85.7523 61.0832 86.4407 61.0832 87.22C61.0832 88.004 60.9199 88.697 60.5932 89.299C60.2712 89.8963 59.8209 90.3653 59.2422 90.706C58.6682 91.042 58.0032 91.21 57.2472 91.21ZM57.2472 89.432C57.8586 89.432 58.3136 89.2267 58.6122 88.816C58.9156 88.4007 59.0672 87.8687 59.0672 87.22C59.0672 86.548 58.9132 86.0113 58.6052 85.61C58.3019 85.2087 57.8492 85.008 57.2472 85.008C56.8319 85.008 56.4912 85.1013 56.2252 85.288C55.9592 85.4747 55.7609 85.7337 55.6302 86.065C55.5042 86.3963 55.4412 86.7813 55.4412 87.22C55.4412 87.8967 55.5929 88.4357 55.8962 88.837C56.2042 89.2337 56.6546 89.432 57.2472 89.432ZM67.7746 91V87.43C67.7746 87.2573 67.7652 87.038 67.7466 86.772C67.7279 86.5013 67.6696 86.2307 67.5716 85.96C67.4736 85.6893 67.3126 85.463 67.0886 85.281C66.8692 85.099 66.5566 85.008 66.1506 85.008C65.9872 85.008 65.8122 85.0337 65.6256 85.085C65.4389 85.1363 65.2639 85.2367 65.1006 85.386C64.9372 85.5307 64.8019 85.7453 64.6946 86.03C64.5919 86.3147 64.5406 86.6927 64.5406 87.164L63.4486 86.646C63.4486 86.0487 63.5699 85.4887 63.8126 84.966C64.0552 84.4433 64.4192 84.021 64.9046 83.699C65.3946 83.377 66.0106 83.216 66.7526 83.216C67.3452 83.216 67.8282 83.3163 68.2016 83.517C68.5749 83.7177 68.8642 83.972 69.0696 84.28C69.2796 84.588 69.4289 84.91 69.5176 85.246C69.6062 85.5773 69.6599 85.8807 69.6786 86.156C69.6972 86.4313 69.7066 86.632 69.7066 86.758V91H67.7746ZM62.6086 91V83.44H64.3026V85.946H64.5406V91H62.6086ZM74.477 91.21C73.525 91.21 72.755 90.9953 72.167 90.566C71.5836 90.132 71.229 89.5207 71.103 88.732L73.049 88.438C73.1283 88.7927 73.3033 89.0703 73.574 89.271C73.8493 89.4717 74.197 89.572 74.617 89.572C74.9623 89.572 75.2283 89.5067 75.415 89.376C75.6016 89.2407 75.695 89.054 75.695 88.816C75.695 88.6667 75.6576 88.5477 75.583 88.459C75.5083 88.3657 75.3403 88.2747 75.079 88.186C74.8223 88.0973 74.421 87.9807 73.875 87.836C73.259 87.6773 72.7666 87.5 72.398 87.304C72.0293 87.108 71.7633 86.8747 71.6 86.604C71.4366 86.3287 71.355 85.9973 71.355 85.61C71.355 85.1247 71.4786 84.7047 71.726 84.35C71.9733 83.9907 72.321 83.7153 72.769 83.524C73.2216 83.328 73.7536 83.23 74.365 83.23C74.9576 83.23 75.4826 83.321 75.94 83.503C76.3973 83.685 76.766 83.944 77.046 84.28C77.3306 84.616 77.5056 85.0127 77.571 85.47L75.625 85.82C75.5923 85.54 75.471 85.3183 75.261 85.155C75.051 84.9917 74.7663 84.896 74.407 84.868C74.057 84.8447 73.7746 84.8913 73.56 85.008C73.35 85.1247 73.245 85.2927 73.245 85.512C73.245 85.6427 73.2893 85.7523 73.378 85.841C73.4713 85.9297 73.6603 86.0207 73.945 86.114C74.2343 86.2073 74.673 86.3287 75.261 86.478C75.835 86.6273 76.2946 86.8023 76.64 87.003C76.99 87.199 77.2443 87.437 77.403 87.717C77.5616 87.9923 77.641 88.326 77.641 88.718C77.641 89.4927 77.361 90.1017 76.801 90.545C76.241 90.9883 75.4663 91.21 74.477 91.21ZM82.5812 91.21C81.8206 91.21 81.1532 91.0397 80.5792 90.699C80.0052 90.3583 79.5572 89.8893 79.2352 89.292C78.9179 88.69 78.7592 87.9993 78.7592 87.22C78.7592 86.4313 78.9226 85.7383 79.2492 85.141C79.5759 84.539 80.0262 84.07 80.6002 83.734C81.1742 83.398 81.8346 83.23 82.5812 83.23C83.3419 83.23 84.0092 83.4003 84.5832 83.741C85.1619 84.0817 85.6122 84.553 85.9342 85.155C86.2562 85.7523 86.4172 86.4407 86.4172 87.22C86.4172 88.004 86.2539 88.697 85.9272 89.299C85.6052 89.8963 85.1549 90.3653 84.5762 90.706C84.0022 91.042 83.3372 91.21 82.5812 91.21ZM82.5812 89.432C83.1926 89.432 83.6476 89.2267 83.9462 88.816C84.2496 88.4007 84.4012 87.8687 84.4012 87.22C84.4012 86.548 84.2472 86.0113 83.9392 85.61C83.6359 85.2087 83.1832 85.008 82.5812 85.008C82.1659 85.008 81.8252 85.1013 81.5592 85.288C81.2932 85.4747 81.0949 85.7337 80.9642 86.065C80.8382 86.3963 80.7752 86.7813 80.7752 87.22C80.7752 87.8967 80.9269 88.4357 81.2302 88.837C81.5382 89.2337 81.9886 89.432 82.5812 89.432ZM88.0966 91V80.71H90.0006V91H88.0966ZM95.6131 91.21C94.8385 91.21 94.1548 91.0443 93.5621 90.713C92.9741 90.377 92.5121 89.9173 92.1761 89.334C91.8448 88.746 91.6791 88.074 91.6791 87.318C91.6791 86.492 91.8425 85.7733 92.1691 85.162C92.4958 84.5507 92.9461 84.077 93.5201 83.741C94.0941 83.4003 94.7545 83.23 95.5011 83.23C96.2945 83.23 96.9688 83.4167 97.5241 83.79C98.0795 84.1633 98.4901 84.6883 98.7561 85.365C99.0221 86.0417 99.1155 86.8373 99.0361 87.752H97.1531V87.052C97.1531 86.282 97.0295 85.729 96.7821 85.393C96.5395 85.0523 96.1405 84.882 95.5851 84.882C94.9365 84.882 94.4581 85.0803 94.1501 85.477C93.8468 85.869 93.6951 86.45 93.6951 87.22C93.6951 87.9247 93.8468 88.4707 94.1501 88.858C94.4581 89.2407 94.9085 89.432 95.5011 89.432C95.8745 89.432 96.1941 89.3503 96.4601 89.187C96.7261 89.0237 96.9291 88.788 97.0691 88.48L98.9731 89.026C98.6885 89.7167 98.2381 90.2533 97.6221 90.636C97.0108 91.0187 96.3411 91.21 95.6131 91.21ZM93.1071 87.752V86.338H98.1191V87.752H93.1071ZM100.651 91V89.096H102.555V91H100.651ZM104.968 91V80.71H106.872V91H104.968ZM112.372 91.21C111.612 91.21 110.944 91.0397 110.37 90.699C109.796 90.3583 109.348 89.8893 109.026 89.292C108.709 88.69 108.55 87.9993 108.55 87.22C108.55 86.4313 108.714 85.7383 109.04 85.141C109.367 84.539 109.817 84.07 110.391 83.734C110.965 83.398 111.626 83.23 112.372 83.23C113.133 83.23 113.8 83.4003 114.374 83.741C114.953 84.0817 115.403 84.553 115.725 85.155C116.047 85.7523 116.208 86.4407 116.208 87.22C116.208 88.004 116.045 88.697 115.718 89.299C115.396 89.8963 114.946 90.3653 114.367 90.706C113.793 91.042 113.128 91.21 112.372 91.21ZM112.372 89.432C112.984 89.432 113.439 89.2267 113.737 88.816C114.041 88.4007 114.192 87.8687 114.192 87.22C114.192 86.548 114.038 86.0113 113.73 85.61C113.427 85.2087 112.974 85.008 112.372 85.008C111.957 85.008 111.616 85.1013 111.35 85.288C111.084 85.4747 110.886 85.7337 110.755 86.065C110.629 86.3963 110.566 86.7813 110.566 87.22C110.566 87.8967 110.718 88.4357 111.021 88.837C111.329 89.2337 111.78 89.432 112.372 89.432ZM120.982 94.57C120.552 94.57 120.144 94.5 119.757 94.36C119.369 94.2247 119.022 94.0333 118.714 93.786C118.41 93.5433 118.163 93.2587 117.972 92.932L119.736 92.078C119.857 92.302 120.03 92.4723 120.254 92.589C120.482 92.7057 120.73 92.764 120.996 92.764C121.28 92.764 121.549 92.715 121.801 92.617C122.053 92.5237 122.253 92.3813 122.403 92.19C122.557 92.0033 122.629 91.77 122.62 91.49V89.292H122.858V83.44H124.524V91.518C124.524 91.7047 124.514 91.8797 124.496 92.043C124.482 92.211 124.454 92.3767 124.412 92.54C124.29 93.002 124.064 93.3823 123.733 93.681C123.406 93.9797 123.005 94.2013 122.529 94.346C122.053 94.4953 121.537 94.57 120.982 94.57ZM120.814 91.21C120.118 91.21 119.509 91.035 118.987 90.685C118.464 90.335 118.056 89.859 117.762 89.257C117.472 88.655 117.328 87.976 117.328 87.22C117.328 86.45 117.475 85.7663 117.769 85.169C118.067 84.567 118.485 84.0933 119.022 83.748C119.558 83.4027 120.188 83.23 120.912 83.23C121.63 83.23 122.235 83.405 122.725 83.755C123.215 84.105 123.586 84.581 123.838 85.183C124.09 85.785 124.216 86.464 124.216 87.22C124.216 87.976 124.087 88.655 123.831 89.257C123.579 89.859 123.201 90.335 122.697 90.685C122.193 91.035 121.565 91.21 120.814 91.21ZM121.122 89.516C121.546 89.516 121.885 89.4203 122.137 89.229C122.393 89.0377 122.578 88.7693 122.69 88.424C122.802 88.0787 122.858 87.6773 122.858 87.22C122.858 86.7627 122.802 86.3613 122.69 86.016C122.578 85.6707 122.398 85.4023 122.151 85.211C121.908 85.0197 121.588 84.924 121.192 84.924C120.767 84.924 120.417 85.029 120.142 85.239C119.871 85.4443 119.67 85.722 119.54 86.072C119.409 86.4173 119.344 86.8 119.344 87.22C119.344 87.6447 119.407 88.032 119.533 88.382C119.659 88.7273 119.852 89.0027 120.114 89.208C120.375 89.4133 120.711 89.516 121.122 89.516ZM129.998 93.716C129.457 93.0813 128.992 92.3603 128.605 91.553C128.222 90.7457 127.931 89.901 127.73 89.019C127.534 88.1323 127.445 87.2527 127.464 86.38C127.445 85.5073 127.534 84.6277 127.73 83.741C127.931 82.8543 128.222 82.0097 128.605 81.207C128.992 80.3997 129.457 79.6787 129.998 79.044L131.412 80.08C130.843 80.766 130.397 81.452 130.075 82.138C129.753 82.8193 129.524 83.5123 129.389 84.217C129.258 84.917 129.191 85.638 129.186 86.38C129.191 87.122 129.258 87.8453 129.389 88.55C129.524 89.25 129.753 89.943 130.075 90.629C130.397 91.3103 130.843 91.994 131.412 92.68L129.998 93.716ZM132.811 83.44V80.92H134.715V83.44H132.811ZM135.555 83.44V80.92H137.459V83.44H135.555ZM139.841 91V80.92H141.745V85.064H146.253V80.92H148.157V91H146.253V86.842H141.745V91H139.841ZM153.637 91.21C152.862 91.21 152.178 91.0443 151.586 90.713C150.998 90.377 150.536 89.9173 150.2 89.334C149.868 88.746 149.703 88.074 149.703 87.318C149.703 86.492 149.866 85.7733 150.193 85.162C150.519 84.5507 150.97 84.077 151.544 83.741C152.118 83.4003 152.778 83.23 153.525 83.23C154.318 83.23 154.992 83.4167 155.548 83.79C156.103 84.1633 156.514 84.6883 156.78 85.365C157.046 86.0417 157.139 86.8373 157.06 87.752H155.177V87.052C155.177 86.282 155.053 85.729 154.806 85.393C154.563 85.0523 154.164 84.882 153.609 84.882C152.96 84.882 152.482 85.0803 152.174 85.477C151.87 85.869 151.719 86.45 151.719 87.22C151.719 87.9247 151.87 88.4707 152.174 88.858C152.482 89.2407 152.932 89.432 153.525 89.432C153.898 89.432 154.218 89.3503 154.484 89.187C154.75 89.0237 154.953 88.788 155.093 88.48L156.997 89.026C156.712 89.7167 156.262 90.2533 155.646 90.636C155.034 91.0187 154.365 91.21 153.637 91.21ZM151.131 87.752V86.338H156.143V87.752H151.131ZM158.78 91V80.71H160.684V91H158.78ZM162.923 91V80.71H164.827V91H162.923ZM170.327 91.21C169.567 91.21 168.899 91.0397 168.325 90.699C167.751 90.3583 167.303 89.8893 166.981 89.292C166.664 88.69 166.505 87.9993 166.505 87.22C166.505 86.4313 166.669 85.7383 166.995 85.141C167.322 84.539 167.772 84.07 168.346 83.734C168.92 83.398 169.581 83.23 170.327 83.23C171.088 83.23 171.755 83.4003 172.329 83.741C172.908 84.0817 173.358 84.553 173.68 85.155C174.002 85.7523 174.163 86.4407 174.163 87.22C174.163 88.004 174 88.697 173.673 89.299C173.351 89.8963 172.901 90.3653 172.322 90.706C171.748 91.042 171.083 91.21 170.327 91.21ZM170.327 89.432C170.939 89.432 171.394 89.2267 171.692 88.816C171.996 88.4007 172.147 87.8687 172.147 87.22C172.147 86.548 171.993 86.0113 171.685 85.61C171.382 85.2087 170.929 85.008 170.327 85.008C169.912 85.008 169.571 85.1013 169.305 85.288C169.039 85.4747 168.841 85.7337 168.71 86.065C168.584 86.3963 168.521 86.7813 168.521 87.22C168.521 87.8967 168.673 88.4357 168.976 88.837C169.284 89.2337 169.735 89.432 170.327 89.432ZM175.289 92.89L175.401 92.092C175.625 92.1107 175.807 92.0733 175.947 91.98C176.087 91.8913 176.183 91.7607 176.234 91.588C176.29 91.42 176.302 91.224 176.269 91H175.289V89.096H177.193V91C177.193 91.672 177.037 92.1807 176.724 92.526C176.412 92.8713 175.933 92.9927 175.289 92.89ZM182.522 83.44V80.92H184.426V83.44H182.522ZM185.266 83.44V80.92H187.17V83.44H185.266ZM194.637 89.11V86.688H192.215V85.218H194.637V82.81H196.107V85.218H198.515V86.688H196.107V89.11H194.637ZM246.494 89.11V86.688H244.072V85.218H246.494V82.81H247.964V85.218H250.372V86.688H247.964V89.11H246.494ZM254.86 83.44V80.92H256.764V83.44H254.86ZM257.604 83.44V80.92H259.508V83.44H257.604ZM262.59 91V89.32H264.494V91H262.59ZM262.59 88.48V80.92H264.494V88.48H262.59ZM267.014 83.44V80.92H268.918V83.44H267.014ZM269.758 83.44V80.92H271.662V83.44H269.758ZM275.038 93.716L273.624 92.68C274.194 91.994 274.639 91.3103 274.961 90.629C275.283 89.943 275.51 89.25 275.64 88.55C275.776 87.8453 275.846 87.122 275.85 86.38C275.846 85.638 275.776 84.917 275.64 84.217C275.51 83.5123 275.283 82.8193 274.961 82.138C274.639 81.452 274.194 80.766 273.624 80.08L275.038 79.044C275.58 79.6787 276.042 80.3997 276.424 81.207C276.812 82.0097 277.103 82.8543 277.299 83.741C277.5 84.6277 277.591 85.5073 277.572 86.38C277.591 87.2527 277.5 88.1323 277.299 89.019C277.103 89.901 276.812 90.7457 276.424 91.553C276.042 92.3603 275.58 93.0813 275.038 93.716ZM281.071 92.89L281.183 92.092C281.407 92.1107 281.589 92.0733 281.729 91.98C281.869 91.8913 281.965 91.7607 282.016 91.588C282.072 91.42 282.084 91.224 282.051 91H281.071V89.096H282.975V91C282.975 91.672 282.819 92.1807 282.506 92.526C282.194 92.8713 281.715 92.9927 281.071 92.89ZM281.071 85.344V83.44H282.975V85.344H281.071ZM78.619 162.716C78.0777 162.081 77.6133 161.36 77.226 160.553C76.8433 159.746 76.5517 158.901 76.351 158.019C76.155 157.132 76.0663 156.253 76.085 155.38C76.0663 154.507 76.155 153.628 76.351 152.741C76.5517 151.854 76.8433 151.01 77.226 150.207C77.6133 149.4 78.0777 148.679 78.619 148.044L80.033 149.08C79.4637 149.766 79.018 150.452 78.696 151.138C78.374 151.819 78.1453 152.512 78.01 153.217C77.8793 153.917 77.8117 154.638 77.807 155.38C77.8117 156.122 77.8793 156.845 78.01 157.55C78.1453 158.25 78.374 158.943 78.696 159.629C79.018 160.31 79.4637 160.994 80.033 161.68L78.619 162.716ZM86.1498 149.92L86.0378 150.718C85.8138 150.699 85.6318 150.737 85.4918 150.83C85.3518 150.919 85.2538 151.049 85.1978 151.222C85.1465 151.39 85.1371 151.586 85.1698 151.81H86.1498V153.714H84.2458V151.81C84.2458 151.138 84.4021 150.629 84.7148 150.284C85.0275 149.934 85.5058 149.813 86.1498 149.92ZM83.6158 149.92L83.5038 150.718C83.2798 150.699 83.0978 150.737 82.9578 150.83C82.8178 150.919 82.7198 151.049 82.6638 151.222C82.6125 151.39 82.6031 151.586 82.6358 151.81H83.6158V153.714H81.7118V151.81C81.7118 151.138 81.8681 150.629 82.1808 150.284C82.4935 149.934 82.9718 149.813 83.6158 149.92ZM85.862 160L88.942 149.92H91.784L94.864 160H92.904L90.16 151.11H90.524L87.822 160H85.862ZM87.71 157.9V156.122H93.03V157.9H87.71ZM96.2587 160V149.71H98.1627V160H96.2587ZM100.401 151.39V149.71H102.305V151.39H100.401ZM100.401 160V152.44H102.305V160H100.401ZM107.736 160.21C106.952 160.21 106.28 160.035 105.72 159.685C105.16 159.335 104.73 158.859 104.432 158.257C104.133 157.655 103.984 156.976 103.984 156.22C103.984 155.455 104.138 154.771 104.446 154.169C104.758 153.567 105.197 153.093 105.762 152.748C106.326 152.403 106.994 152.23 107.764 152.23C108.655 152.23 109.402 152.456 110.004 152.909C110.61 153.357 110.998 153.971 111.166 154.75L109.262 155.254C109.15 154.862 108.954 154.556 108.674 154.337C108.398 154.118 108.086 154.008 107.736 154.008C107.334 154.008 107.005 154.106 106.749 154.302C106.492 154.493 106.303 154.757 106.182 155.093C106.06 155.424 106 155.8 106 156.22C106 156.878 106.144 157.412 106.434 157.823C106.728 158.229 107.162 158.432 107.736 158.432C108.165 158.432 108.492 158.334 108.716 158.138C108.94 157.942 109.108 157.662 109.22 157.298L111.166 157.704C110.951 158.507 110.545 159.125 109.948 159.559C109.35 159.993 108.613 160.21 107.736 160.21ZM115.875 160.21C115.1 160.21 114.417 160.044 113.824 159.713C113.236 159.377 112.774 158.917 112.438 158.334C112.107 157.746 111.941 157.074 111.941 156.318C111.941 155.492 112.104 154.773 112.431 154.162C112.758 153.551 113.208 153.077 113.782 152.741C114.356 152.4 115.016 152.23 115.763 152.23C116.556 152.23 117.231 152.417 117.786 152.79C118.341 153.163 118.752 153.688 119.018 154.365C119.284 155.042 119.377 155.837 119.298 156.752H117.415V156.052C117.415 155.282 117.291 154.729 117.044 154.393C116.801 154.052 116.402 153.882 115.847 153.882C115.198 153.882 114.72 154.08 114.412 154.477C114.109 154.869 113.957 155.45 113.957 156.22C113.957 156.925 114.109 157.471 114.412 157.858C114.72 158.241 115.17 158.432 115.763 158.432C116.136 158.432 116.456 158.35 116.722 158.187C116.988 158.024 117.191 157.788 117.331 157.48L119.235 158.026C118.95 158.717 118.5 159.253 117.884 159.636C117.273 160.019 116.603 160.21 115.875 160.21ZM113.369 156.752V155.338H118.381V156.752H113.369ZM120.595 153.714L120.707 152.916C120.931 152.935 121.113 152.9 121.253 152.811C121.393 152.718 121.488 152.587 121.54 152.419C121.596 152.246 121.607 152.048 121.575 151.824H120.595V149.92H122.499V151.824C122.499 152.496 122.342 153.005 122.03 153.35C121.717 153.695 121.239 153.817 120.595 153.714ZM123.129 153.714L123.241 152.916C123.465 152.935 123.647 152.9 123.787 152.811C123.927 152.718 124.022 152.587 124.074 152.419C124.13 152.246 124.141 152.048 124.109 151.824H123.129V149.92H125.033V151.824C125.033 152.496 124.876 153.005 124.564 153.35C124.251 153.695 123.773 153.817 123.129 153.714ZM128.12 162.716L126.706 161.68C127.276 160.994 127.721 160.31 128.043 159.629C128.365 158.943 128.592 158.25 128.722 157.55C128.858 156.845 128.928 156.122 128.932 155.38C128.928 154.638 128.858 153.917 128.722 153.217C128.592 152.512 128.365 151.819 128.043 151.138C127.721 150.452 127.276 149.766 126.706 149.08L128.12 148.044C128.662 148.679 129.124 149.4 129.506 150.207C129.894 151.01 130.185 151.854 130.381 152.741C130.582 153.628 130.673 154.507 130.654 155.38C130.673 156.253 130.582 157.132 130.381 158.019C130.185 158.901 129.894 159.746 129.506 160.553C129.124 161.36 128.662 162.081 128.12 162.716ZM134.153 161.89L134.265 161.092C134.489 161.111 134.671 161.073 134.811 160.98C134.951 160.891 135.047 160.761 135.098 160.588C135.154 160.42 135.166 160.224 135.133 160H134.153V158.096H136.057V160C136.057 160.672 135.901 161.181 135.588 161.526C135.276 161.871 134.797 161.993 134.153 161.89ZM134.153 154.344V152.44H136.057V154.344H134.153Z" fill="white"/>
<path d="M102.784 71.57C102.355 71.57 101.947 71.5 101.559 71.36C101.172 71.2247 100.824 71.0333 100.516 70.786C100.213 70.5433 99.9656 70.2587 99.7743 69.932L101.538 69.078C101.66 69.302 101.832 69.4723 102.056 69.589C102.285 69.7057 102.532 69.764 102.798 69.764C103.083 69.764 103.351 69.715 103.603 69.617C103.855 69.5237 104.056 69.3813 104.205 69.19C104.359 69.0033 104.432 68.77 104.422 68.49V66.292H104.66V60.44H106.326V68.518C106.326 68.7047 106.317 68.8797 106.298 69.043C106.284 69.211 106.256 69.3767 106.214 69.54C106.093 70.002 105.867 70.3823 105.535 70.681C105.209 70.9797 104.807 71.2013 104.331 71.346C103.855 71.4953 103.34 71.57 102.784 71.57ZM102.616 68.21C101.921 68.21 101.312 68.035 100.789 67.685C100.267 67.335 99.8583 66.859 99.5643 66.257C99.275 65.655 99.1303 64.976 99.1303 64.22C99.1303 63.45 99.2773 62.7663 99.5713 62.169C99.87 61.567 100.288 61.0933 100.824 60.748C101.361 60.4027 101.991 60.23 102.714 60.23C103.433 60.23 104.037 60.405 104.527 60.755C105.017 61.105 105.388 61.581 105.64 62.183C105.892 62.785 106.018 63.464 106.018 64.22C106.018 64.976 105.89 65.655 105.633 66.257C105.381 66.859 105.003 67.335 104.499 67.685C103.995 68.035 103.368 68.21 102.616 68.21ZM102.924 66.516C103.349 66.516 103.687 66.4203 103.939 66.229C104.196 66.0377 104.38 65.7693 104.492 65.424C104.604 65.0787 104.66 64.6773 104.66 64.22C104.66 63.7627 104.604 63.3613 104.492 63.016C104.38 62.6707 104.201 62.4023 103.953 62.211C103.711 62.0197 103.391 61.924 102.994 61.924C102.57 61.924 102.22 62.029 101.944 62.239C101.674 62.4443 101.473 62.722 101.342 63.072C101.212 63.4173 101.146 63.8 101.146 64.22C101.146 64.6447 101.209 65.032 101.335 65.382C101.461 65.7273 101.655 66.0027 101.916 66.208C102.178 66.4133 102.514 66.516 102.924 66.516ZM108.287 68V60.44H109.967V62.288L109.785 62.05C109.883 61.7887 110.013 61.5507 110.177 61.336C110.34 61.1213 110.541 60.944 110.779 60.804C110.961 60.692 111.159 60.6057 111.374 60.545C111.588 60.4797 111.81 60.44 112.039 60.426C112.267 60.4073 112.496 60.412 112.725 60.44V62.218C112.515 62.1527 112.27 62.1317 111.99 62.155C111.714 62.1737 111.465 62.2367 111.241 62.344C111.017 62.4467 110.828 62.5843 110.674 62.757C110.52 62.925 110.403 63.1257 110.324 63.359C110.244 63.5877 110.205 63.8467 110.205 64.136V68H108.287ZM117.433 68.21C116.659 68.21 115.975 68.0443 115.382 67.713C114.794 67.377 114.332 66.9173 113.996 66.334C113.665 65.746 113.499 65.074 113.499 64.318C113.499 63.492 113.663 62.7733 113.989 62.162C114.316 61.5507 114.766 61.077 115.34 60.741C115.914 60.4003 116.575 60.23 117.321 60.23C118.115 60.23 118.789 60.4167 119.344 60.79C119.9 61.1633 120.31 61.6883 120.576 62.365C120.842 63.0417 120.936 63.8373 120.856 64.752H118.973V64.052C118.973 63.282 118.85 62.729 118.602 62.393C118.36 62.0523 117.961 61.882 117.405 61.882C116.757 61.882 116.278 62.0803 115.97 62.477C115.667 62.869 115.515 63.45 115.515 64.22C115.515 64.9247 115.667 65.4707 115.97 65.858C116.278 66.2407 116.729 66.432 117.321 66.432C117.695 66.432 118.014 66.3503 118.28 66.187C118.546 66.0237 118.749 65.788 118.889 65.48L120.793 66.026C120.509 66.7167 120.058 67.2533 119.442 67.636C118.831 68.0187 118.161 68.21 117.433 68.21ZM114.927 64.752V63.338H119.939V64.752H114.927ZM125.951 68.21C125.176 68.21 124.493 68.0443 123.9 67.713C123.312 67.377 122.85 66.9173 122.514 66.334C122.183 65.746 122.017 65.074 122.017 64.318C122.017 63.492 122.18 62.7733 122.507 62.162C122.834 61.5507 123.284 61.077 123.858 60.741C124.432 60.4003 125.092 60.23 125.839 60.23C126.632 60.23 127.307 60.4167 127.862 60.79C128.417 61.1633 128.828 61.6883 129.094 62.365C129.36 63.0417 129.453 63.8373 129.374 64.752H127.491V64.052C127.491 63.282 127.367 62.729 127.12 62.393C126.877 62.0523 126.478 61.882 125.923 61.882C125.274 61.882 124.796 62.0803 124.488 62.477C124.185 62.869 124.033 63.45 124.033 64.22C124.033 64.9247 124.185 65.4707 124.488 65.858C124.796 66.2407 125.246 66.432 125.839 66.432C126.212 66.432 126.532 66.3503 126.798 66.187C127.064 66.0237 127.267 65.788 127.407 65.48L129.311 66.026C129.026 66.7167 128.576 67.2533 127.96 67.636C127.349 68.0187 126.679 68.21 125.951 68.21ZM123.445 64.752V63.338H128.457V64.752H123.445ZM135.491 68C134.968 68.098 134.455 68.14 133.951 68.126C133.451 68.1167 133.003 68.0303 132.607 67.867C132.215 67.699 131.916 67.4307 131.711 67.062C131.524 66.7167 131.426 66.3667 131.417 66.012C131.407 65.6527 131.403 65.2467 131.403 64.794V58.34H133.307V64.682C133.307 64.976 133.309 65.242 133.314 65.48C133.323 65.7133 133.372 65.9 133.461 66.04C133.629 66.306 133.897 66.4507 134.266 66.474C134.634 66.4973 135.043 66.4787 135.491 66.418V68ZM130.115 61.91V60.44H135.491V61.91H130.115ZM40.714 163.57C40.2847 163.57 39.8763 163.5 39.489 163.36C39.1017 163.225 38.754 163.033 38.446 162.786C38.1427 162.543 37.8953 162.259 37.704 161.932L39.468 161.078C39.5893 161.302 39.762 161.472 39.986 161.589C40.2147 161.706 40.462 161.764 40.728 161.764C41.0127 161.764 41.281 161.715 41.533 161.617C41.785 161.524 41.9857 161.381 42.135 161.19C42.289 161.003 42.3613 160.77 42.352 160.49V158.292H42.59V152.44H44.256V160.518C44.256 160.705 44.2467 160.88 44.228 161.043C44.214 161.211 44.186 161.377 44.144 161.54C44.0227 162.002 43.7963 162.382 43.465 162.681C43.1383 162.98 42.737 163.201 42.261 163.346C41.785 163.495 41.2693 163.57 40.714 163.57ZM40.546 160.21C39.8507 160.21 39.2417 160.035 38.719 159.685C38.1963 159.335 37.788 158.859 37.494 158.257C37.2047 157.655 37.06 156.976 37.06 156.22C37.06 155.45 37.207 154.766 37.501 154.169C37.7997 153.567 38.2173 153.093 38.754 152.748C39.2907 152.403 39.9207 152.23 40.644 152.23C41.3627 152.23 41.967 152.405 42.457 152.755C42.947 153.105 43.318 153.581 43.57 154.183C43.822 154.785 43.948 155.464 43.948 156.22C43.948 156.976 43.8197 157.655 43.563 158.257C43.311 158.859 42.933 159.335 42.429 159.685C41.925 160.035 41.2973 160.21 40.546 160.21ZM40.854 158.516C41.2787 158.516 41.617 158.42 41.869 158.229C42.1257 158.038 42.31 157.769 42.422 157.424C42.534 157.079 42.59 156.677 42.59 156.22C42.59 155.763 42.534 155.361 42.422 155.016C42.31 154.671 42.1303 154.402 41.883 154.211C41.6403 154.02 41.3207 153.924 40.924 153.924C40.4993 153.924 40.1493 154.029 39.874 154.239C39.6033 154.444 39.4027 154.722 39.272 155.072C39.1413 155.417 39.076 155.8 39.076 156.22C39.076 156.645 39.139 157.032 39.265 157.382C39.391 157.727 39.5847 158.003 39.846 158.208C40.1073 158.413 40.4433 158.516 40.854 158.516ZM46.2163 160V152.44H47.8963V154.288L47.7143 154.05C47.8123 153.789 47.943 153.551 48.1063 153.336C48.2697 153.121 48.4703 152.944 48.7083 152.804C48.8903 152.692 49.0887 152.606 49.3033 152.545C49.518 152.48 49.7397 152.44 49.9683 152.426C50.197 152.407 50.4257 152.412 50.6543 152.44V154.218C50.4443 154.153 50.1993 154.132 49.9193 154.155C49.644 154.174 49.3943 154.237 49.1703 154.344C48.9463 154.447 48.7573 154.584 48.6033 154.757C48.4493 154.925 48.3327 155.126 48.2533 155.359C48.174 155.588 48.1343 155.847 48.1343 156.136V160H46.2163ZM55.3631 160.21C54.5885 160.21 53.9048 160.044 53.3121 159.713C52.7241 159.377 52.2621 158.917 51.9261 158.334C51.5948 157.746 51.4291 157.074 51.4291 156.318C51.4291 155.492 51.5925 154.773 51.9191 154.162C52.2458 153.551 52.6961 153.077 53.2701 152.741C53.8441 152.4 54.5045 152.23 55.2511 152.23C56.0445 152.23 56.7188 152.417 57.2741 152.79C57.8295 153.163 58.2401 153.688 58.5061 154.365C58.7721 155.042 58.8655 155.837 58.7861 156.752H56.9031V156.052C56.9031 155.282 56.7795 154.729 56.5321 154.393C56.2895 154.052 55.8905 153.882 55.3351 153.882C54.6865 153.882 54.2081 154.08 53.9001 154.477C53.5968 154.869 53.4451 155.45 53.4451 156.22C53.4451 156.925 53.5968 157.471 53.9001 157.858C54.2081 158.241 54.6585 158.432 55.2511 158.432C55.6245 158.432 55.9441 158.35 56.2101 158.187C56.4761 158.024 56.6791 157.788 56.8191 157.48L58.7231 158.026C58.4385 158.717 57.9881 159.253 57.3721 159.636C56.7608 160.019 56.0911 160.21 55.3631 160.21ZM52.8571 156.752V155.338H57.8691V156.752H52.8571ZM63.8807 160.21C63.1061 160.21 62.4224 160.044 61.8297 159.713C61.2417 159.377 60.7797 158.917 60.4437 158.334C60.1124 157.746 59.9467 157.074 59.9467 156.318C59.9467 155.492 60.1101 154.773 60.4367 154.162C60.7634 153.551 61.2137 153.077 61.7877 152.741C62.3617 152.4 63.0221 152.23 63.7687 152.23C64.5621 152.23 65.2364 152.417 65.7917 152.79C66.3471 153.163 66.7577 153.688 67.0237 154.365C67.2897 155.042 67.3831 155.837 67.3037 156.752H65.4207V156.052C65.4207 155.282 65.2971 154.729 65.0497 154.393C64.8071 154.052 64.4081 153.882 63.8527 153.882C63.2041 153.882 62.7257 154.08 62.4177 154.477C62.1144 154.869 61.9627 155.45 61.9627 156.22C61.9627 156.925 62.1144 157.471 62.4177 157.858C62.7257 158.241 63.1761 158.432 63.7687 158.432C64.1421 158.432 64.4617 158.35 64.7277 158.187C64.9937 158.024 65.1967 157.788 65.3367 157.48L67.2407 158.026C66.9561 158.717 66.5057 159.253 65.8897 159.636C65.2784 160.019 64.6087 160.21 63.8807 160.21ZM61.3747 156.752V155.338H66.3867V156.752H61.3747ZM73.4203 160C72.8976 160.098 72.3843 160.14 71.8803 160.126C71.381 160.117 70.933 160.03 70.5363 159.867C70.1443 159.699 69.8456 159.431 69.6403 159.062C69.4536 158.717 69.3556 158.367 69.3463 158.012C69.337 157.653 69.3323 157.247 69.3323 156.794V150.34H71.2363V156.682C71.2363 156.976 71.2386 157.242 71.2433 157.48C71.2526 157.713 71.3016 157.9 71.3903 158.04C71.5583 158.306 71.8266 158.451 72.1953 158.474C72.564 158.497 72.9723 158.479 73.4203 158.418V160ZM68.0443 153.91V152.44H73.4203V153.91H68.0443Z" fill="#FFD966"/>
<path d="M148.794 68V64.43C148.794 64.2573 148.785 64.038 148.766 63.772C148.747 63.5013 148.689 63.2307 148.591 62.96C148.493 62.6893 148.332 62.463 148.108 62.281C147.889 62.099 147.576 62.008 147.17 62.008C147.007 62.008 146.832 62.0337 146.645 62.085C146.458 62.1363 146.283 62.2367 146.12 62.386C145.957 62.5307 145.821 62.7453 145.714 63.03C145.611 63.3147 145.56 63.6927 145.56 64.164L144.468 63.646C144.468 63.0487 144.589 62.4887 144.832 61.966C145.075 61.4433 145.439 61.021 145.924 60.699C146.414 60.377 147.03 60.216 147.772 60.216C148.365 60.216 148.848 60.3163 149.221 60.517C149.594 60.7177 149.884 60.972 150.089 61.28C150.299 61.588 150.448 61.91 150.537 62.246C150.626 62.5773 150.679 62.8807 150.698 63.156C150.717 63.4313 150.726 63.632 150.726 63.758V68H148.794ZM143.628 68V60.44H145.322V62.946H145.56V68H143.628ZM154.643 68.21C154.101 68.21 153.642 68.1073 153.264 67.902C152.89 67.692 152.606 67.4143 152.41 67.069C152.218 66.719 152.123 66.334 152.123 65.914C152.123 65.564 152.176 65.2443 152.284 64.955C152.391 64.6657 152.564 64.4113 152.802 64.192C153.044 63.968 153.369 63.7813 153.775 63.632C154.055 63.5293 154.388 63.4383 154.776 63.359C155.163 63.2797 155.602 63.205 156.092 63.135C156.582 63.0603 157.121 62.9787 157.709 62.89L157.023 63.268C157.023 62.82 156.915 62.491 156.701 62.281C156.486 62.071 156.127 61.966 155.623 61.966C155.343 61.966 155.051 62.0337 154.748 62.169C154.444 62.3043 154.232 62.5447 154.111 62.89L152.389 62.344C152.58 61.7187 152.939 61.21 153.467 60.818C153.994 60.426 154.713 60.23 155.623 60.23C156.29 60.23 156.883 60.3327 157.401 60.538C157.919 60.7433 158.311 61.098 158.577 61.602C158.726 61.882 158.815 62.162 158.843 62.442C158.871 62.722 158.885 63.0347 158.885 63.38V68H157.219V66.446L157.457 66.768C157.088 67.2767 156.689 67.6453 156.26 67.874C155.835 68.098 155.296 68.21 154.643 68.21ZM155.049 66.712C155.399 66.712 155.693 66.6513 155.931 66.53C156.173 66.404 156.365 66.2617 156.505 66.103C156.649 65.9443 156.747 65.8113 156.799 65.704C156.897 65.4987 156.953 65.2607 156.967 64.99C156.985 64.7147 156.995 64.486 156.995 64.304L157.555 64.444C156.99 64.5373 156.533 64.6167 156.183 64.682C155.833 64.7427 155.55 64.7987 155.336 64.85C155.121 64.9013 154.932 64.9573 154.769 65.018C154.582 65.0927 154.43 65.1743 154.314 65.263C154.202 65.347 154.118 65.4403 154.062 65.543C154.01 65.6457 153.985 65.76 153.985 65.886C153.985 66.0587 154.027 66.208 154.111 66.334C154.199 66.4553 154.323 66.5487 154.482 66.614C154.64 66.6793 154.829 66.712 155.049 66.712ZM169.805 68V63.534C169.805 63.0347 169.686 62.6473 169.448 62.372C169.214 62.092 168.89 61.952 168.475 61.952C168.209 61.952 167.978 62.015 167.782 62.141C167.586 62.2623 167.432 62.435 167.32 62.659C167.212 62.8783 167.159 63.1327 167.159 63.422L166.361 62.89C166.361 62.372 166.482 61.9147 166.725 61.518C166.972 61.1213 167.301 60.8133 167.712 60.594C168.127 60.37 168.587 60.258 169.091 60.258C169.954 60.258 170.605 60.5147 171.044 61.028C171.487 61.5367 171.709 62.204 171.709 63.03V68H169.805ZM160.691 68V60.44H162.371V62.946H162.609V68H160.691ZM165.255 68V63.534C165.255 63.0347 165.136 62.6473 164.898 62.372C164.664 62.092 164.34 61.952 163.925 61.952C163.528 61.952 163.208 62.0897 162.966 62.365C162.728 62.6357 162.609 62.988 162.609 63.422L161.811 62.862C161.811 62.3673 161.934 61.924 162.182 61.532C162.429 61.14 162.76 60.8297 163.176 60.601C163.596 60.3723 164.065 60.258 164.583 60.258C165.175 60.258 165.661 60.384 166.039 60.636C166.421 60.888 166.704 61.224 166.886 61.644C167.068 62.064 167.159 62.526 167.159 63.03V68H165.255ZM176.906 68.21C176.131 68.21 175.448 68.0443 174.855 67.713C174.267 67.377 173.805 66.9173 173.469 66.334C173.138 65.746 172.972 65.074 172.972 64.318C172.972 63.492 173.135 62.7733 173.462 62.162C173.789 61.5507 174.239 61.077 174.813 60.741C175.387 60.4003 176.047 60.23 176.794 60.23C177.587 60.23 178.262 60.4167 178.817 60.79C179.372 61.1633 179.783 61.6883 180.049 62.365C180.315 63.0417 180.408 63.8373 180.329 64.752H178.446V64.052C178.446 63.282 178.322 62.729 178.075 62.393C177.832 62.0523 177.433 61.882 176.878 61.882C176.229 61.882 175.751 62.0803 175.443 62.477C175.14 62.869 174.988 63.45 174.988 64.22C174.988 64.9247 175.14 65.4707 175.443 65.858C175.751 66.2407 176.201 66.432 176.794 66.432C177.167 66.432 177.487 66.3503 177.753 66.187C178.019 66.0237 178.222 65.788 178.362 65.48L180.266 66.026C179.981 66.7167 179.531 67.2533 178.915 67.636C178.304 68.0187 177.634 68.21 176.906 68.21ZM174.4 64.752V63.338H179.412V64.752H174.4ZM194.511 70.94C193.867 70.94 193.363 70.758 192.999 70.394C192.635 70.03 192.453 69.526 192.453 68.882V64.794C192.453 64.7053 192.429 64.6307 192.383 64.57L191.753 63.674C191.65 63.52 191.599 63.352 191.599 63.17C191.599 62.988 191.65 62.82 191.753 62.666L192.383 61.77C192.429 61.6907 192.453 61.616 192.453 61.546V57.458C192.453 56.8187 192.635 56.317 192.999 55.953C193.363 55.5843 193.867 55.4 194.511 55.4H195.505V57.192H194.651C194.539 57.192 194.443 57.2317 194.364 57.311C194.284 57.3903 194.245 57.486 194.245 57.598V61.546C194.245 62.0033 194.109 62.4233 193.839 62.806L193.573 63.17L193.839 63.534C194.109 63.9167 194.245 64.3367 194.245 64.794V68.742C194.245 68.8587 194.284 68.9567 194.364 69.036C194.443 69.12 194.539 69.162 194.651 69.162H195.505V70.94H194.511ZM208.294 91V87.43C208.294 87.2573 208.285 87.038 208.266 86.772C208.247 86.5013 208.189 86.2307 208.091 85.96C207.993 85.6893 207.832 85.463 207.608 85.281C207.389 85.099 207.076 85.008 206.67 85.008C206.507 85.008 206.332 85.0337 206.145 85.085C205.958 85.1363 205.783 85.2367 205.62 85.386C205.457 85.5307 205.321 85.7453 205.214 86.03C205.111 86.3147 205.06 86.6927 205.06 87.164L203.968 86.646C203.968 86.0487 204.089 85.4887 204.332 84.966C204.575 84.4433 204.939 84.021 205.424 83.699C205.914 83.377 206.53 83.216 207.272 83.216C207.865 83.216 208.348 83.3163 208.721 83.517C209.094 83.7177 209.384 83.972 209.589 84.28C209.799 84.588 209.948 84.91 210.037 85.246C210.126 85.5773 210.179 85.8807 210.198 86.156C210.217 86.4313 210.226 86.632 210.226 86.758V91H208.294ZM203.128 91V83.44H204.822V85.946H205.06V91H203.128ZM214.143 91.21C213.601 91.21 213.142 91.1073 212.764 90.902C212.39 90.692 212.106 90.4143 211.91 90.069C211.718 89.719 211.623 89.334 211.623 88.914C211.623 88.564 211.676 88.2443 211.784 87.955C211.891 87.6657 212.064 87.4113 212.302 87.192C212.544 86.968 212.869 86.7813 213.275 86.632C213.555 86.5293 213.888 86.4383 214.276 86.359C214.663 86.2797 215.102 86.205 215.592 86.135C216.082 86.0603 216.621 85.9787 217.209 85.89L216.523 86.268C216.523 85.82 216.415 85.491 216.201 85.281C215.986 85.071 215.627 84.966 215.123 84.966C214.843 84.966 214.551 85.0337 214.248 85.169C213.944 85.3043 213.732 85.5447 213.611 85.89L211.889 85.344C212.08 84.7187 212.439 84.21 212.967 83.818C213.494 83.426 214.213 83.23 215.123 83.23C215.79 83.23 216.383 83.3327 216.901 83.538C217.419 83.7433 217.811 84.098 218.077 84.602C218.226 84.882 218.315 85.162 218.343 85.442C218.371 85.722 218.385 86.0347 218.385 86.38V91H216.719V89.446L216.957 89.768C216.588 90.2767 216.189 90.6453 215.76 90.874C215.335 91.098 214.796 91.21 214.143 91.21ZM214.549 89.712C214.899 89.712 215.193 89.6513 215.431 89.53C215.673 89.404 215.865 89.2617 216.005 89.103C216.149 88.9443 216.247 88.8113 216.299 88.704C216.397 88.4987 216.453 88.2607 216.467 87.99C216.485 87.7147 216.495 87.486 216.495 87.304L217.055 87.444C216.49 87.5373 216.033 87.6167 215.683 87.682C215.333 87.7427 215.05 87.7987 214.836 87.85C214.621 87.9013 214.432 87.9573 214.269 88.018C214.082 88.0927 213.93 88.1743 213.814 88.263C213.702 88.347 213.618 88.4403 213.562 88.543C213.51 88.6457 213.485 88.76 213.485 88.886C213.485 89.0587 213.527 89.208 213.611 89.334C213.699 89.4553 213.823 89.5487 213.982 89.614C214.14 89.6793 214.329 89.712 214.549 89.712ZM229.305 91V86.534C229.305 86.0347 229.186 85.6473 228.948 85.372C228.714 85.092 228.39 84.952 227.975 84.952C227.709 84.952 227.478 85.015 227.282 85.141C227.086 85.2623 226.932 85.435 226.82 85.659C226.712 85.8783 226.659 86.1327 226.659 86.422L225.861 85.89C225.861 85.372 225.982 84.9147 226.225 84.518C226.472 84.1213 226.801 83.8133 227.212 83.594C227.627 83.37 228.087 83.258 228.591 83.258C229.454 83.258 230.105 83.5147 230.544 84.028C230.987 84.5367 231.209 85.204 231.209 86.03V91H229.305ZM220.191 91V83.44H221.871V85.946H222.109V91H220.191ZM224.755 91V86.534C224.755 86.0347 224.636 85.6473 224.398 85.372C224.164 85.092 223.84 84.952 223.425 84.952C223.028 84.952 222.708 85.0897 222.466 85.365C222.228 85.6357 222.109 85.988 222.109 86.422L221.311 85.862C221.311 85.3673 221.434 84.924 221.682 84.532C221.929 84.14 222.26 83.8297 222.676 83.601C223.096 83.3723 223.565 83.258 224.083 83.258C224.675 83.258 225.161 83.384 225.539 83.636C225.921 83.888 226.204 84.224 226.386 84.644C226.568 85.064 226.659 85.526 226.659 86.03V91H224.755ZM236.406 91.21C235.631 91.21 234.948 91.0443 234.355 90.713C233.767 90.377 233.305 89.9173 232.969 89.334C232.638 88.746 232.472 88.074 232.472 87.318C232.472 86.492 232.635 85.7733 232.962 85.162C233.289 84.5507 233.739 84.077 234.313 83.741C234.887 83.4003 235.547 83.23 236.294 83.23C237.087 83.23 237.762 83.4167 238.317 83.79C238.872 84.1633 239.283 84.6883 239.549 85.365C239.815 86.0417 239.908 86.8373 239.829 87.752H237.946V87.052C237.946 86.282 237.822 85.729 237.575 85.393C237.332 85.0523 236.933 84.882 236.378 84.882C235.729 84.882 235.251 85.0803 234.943 85.477C234.64 85.869 234.488 86.45 234.488 87.22C234.488 87.9247 234.64 88.4707 234.943 88.858C235.251 89.2407 235.701 89.432 236.294 89.432C236.667 89.432 236.987 89.3503 237.253 89.187C237.519 89.0237 237.722 88.788 237.862 88.48L239.766 89.026C239.481 89.7167 239.031 90.2533 238.415 90.636C237.804 91.0187 237.134 91.21 236.406 91.21ZM233.9 87.752V86.338H238.912V87.752H233.9ZM38.054 116.94H37.06V115.162H37.914C38.026 115.162 38.1217 115.12 38.201 115.036C38.2803 114.957 38.32 114.859 38.32 114.742V110.794C38.32 110.337 38.4553 109.917 38.726 109.534L38.992 109.17L38.726 108.806C38.4553 108.423 38.32 108.003 38.32 107.546V103.598C38.32 103.486 38.2803 103.39 38.201 103.311C38.1217 103.232 38.026 103.192 37.914 103.192H37.06V101.4H38.054C38.698 101.4 39.202 101.584 39.566 101.953C39.93 102.317 40.112 102.819 40.112 103.458V107.546C40.112 107.616 40.1353 107.691 40.182 107.77L40.812 108.666C40.9193 108.82 40.973 108.988 40.973 109.17C40.973 109.352 40.9193 109.52 40.812 109.674L40.182 110.57C40.1353 110.631 40.112 110.705 40.112 110.794V114.882C40.112 115.526 39.93 116.03 39.566 116.394C39.202 116.758 38.698 116.94 38.054 116.94Z" fill="#787DF7"/>
<path d="M117.793 52.7071C118.183 53.0976 118.817 53.0976 119.207 52.7071L125.571 46.3431C125.962 45.9526 125.962 45.3195 125.571 44.9289C125.181 44.5384 124.547 44.5384 124.157 44.9289L118.5 50.5858L112.843 44.9289C112.453 44.5384 111.819 44.5384 111.429 44.9289C111.038 45.3195 111.038 45.9526 111.429 46.3431L117.793 52.7071ZM119.5 52V39.5H117.5V52H119.5ZM108.5 28.5H21V30.5H108.5V28.5ZM10 39.5V145.5H12V39.5H10ZM21 156.5H29V154.5H21V156.5ZM10 145.5C10 151.575 14.9249 156.5 21 156.5V154.5C16.0294 154.5 12 150.471 12 145.5H10ZM21 28.5C14.9249 28.5 10 33.4249 10 39.5H12C12 34.5294 16.0294 30.5 21 30.5V28.5ZM119.5 39.5C119.5 33.4249 114.575 28.5 108.5 28.5V30.5C113.471 30.5 117.5 34.5294 117.5 39.5H119.5Z" fill="white"/>
<path d="M5.306 17.21C4.298 17.21 3.42767 16.9907 2.695 16.552C1.967 16.1133 1.40467 15.4997 1.008 14.711C0.616 13.9223 0.42 13.0053 0.42 11.96C0.42 10.9147 0.616 9.99767 1.008 9.209C1.40467 8.42033 1.967 7.80667 2.695 7.368C3.42767 6.92933 4.298 6.71 5.306 6.71C6.46333 6.71 7.434 6.997 8.218 7.571C9.00667 8.145 9.562 8.922 9.884 9.902L7.966 10.434C7.77933 9.82267 7.46433 9.349 7.021 9.013C6.57767 8.67233 6.006 8.502 5.306 8.502C4.66667 8.502 4.13233 8.64433 3.703 8.929C3.27833 9.21367 2.95867 9.615 2.744 10.133C2.52933 10.651 2.422 11.26 2.422 11.96C2.422 12.66 2.52933 13.269 2.744 13.787C2.95867 14.305 3.27833 14.7063 3.703 14.991C4.13233 15.2757 4.66667 15.418 5.306 15.418C6.006 15.418 6.57767 15.2477 7.021 14.907C7.46433 14.5663 7.77933 14.0927 7.966 13.486L9.884 14.018C9.562 14.998 9.00667 15.775 8.218 16.349C7.434 16.923 6.46333 17.21 5.306 17.21ZM13.5253 17.21C12.984 17.21 12.5243 17.1073 12.1463 16.902C11.773 16.692 11.4883 16.4143 11.2923 16.069C11.101 15.719 11.0053 15.334 11.0053 14.914C11.0053 14.564 11.059 14.2443 11.1663 13.955C11.2736 13.6657 11.4463 13.4113 11.6843 13.192C11.927 12.968 12.2513 12.7813 12.6573 12.632C12.9373 12.5293 13.271 12.4383 13.6583 12.359C14.0456 12.2797 14.4843 12.205 14.9743 12.135C15.4643 12.0603 16.0033 11.9787 16.5913 11.89L15.9053 12.268C15.9053 11.82 15.798 11.491 15.5833 11.281C15.3686 11.071 15.0093 10.966 14.5053 10.966C14.2253 10.966 13.9336 11.0337 13.6303 11.169C13.327 11.3043 13.1146 11.5447 12.9933 11.89L11.2713 11.344C11.4626 10.7187 11.822 10.21 12.3493 9.818C12.8766 9.426 13.5953 9.23 14.5053 9.23C15.1726 9.23 15.7653 9.33267 16.2833 9.538C16.8013 9.74333 17.1933 10.098 17.4593 10.602C17.6086 10.882 17.6973 11.162 17.7253 11.442C17.7533 11.722 17.7673 12.0347 17.7673 12.38V17H16.1013V15.446L16.3393 15.768C15.9706 16.2767 15.5716 16.6453 15.1423 16.874C14.7176 17.098 14.1786 17.21 13.5253 17.21ZM13.9313 15.712C14.2813 15.712 14.5753 15.6513 14.8133 15.53C15.056 15.404 15.2473 15.2617 15.3873 15.103C15.532 14.9443 15.63 14.8113 15.6813 14.704C15.7793 14.4987 15.8353 14.2607 15.8493 13.99C15.868 13.7147 15.8773 13.486 15.8773 13.304L16.4373 13.444C15.8726 13.5373 15.4153 13.6167 15.0653 13.682C14.7153 13.7427 14.433 13.7987 14.2183 13.85C14.0036 13.9013 13.8146 13.9573 13.6513 14.018C13.4646 14.0927 13.313 14.1743 13.1963 14.263C13.0843 14.347 13.0003 14.4403 12.9443 14.543C12.893 14.6457 12.8673 14.76 12.8673 14.886C12.8673 15.0587 12.9093 15.208 12.9933 15.334C13.082 15.4553 13.2056 15.5487 13.3643 15.614C13.523 15.6793 13.712 15.712 13.9313 15.712ZM19.7274 17V6.71H21.6314V17H19.7274ZM23.87 17V6.71H25.774V17H23.87ZM28.0126 8.39V6.71H29.9166V8.39H28.0126ZM28.0126 17V9.44H29.9166V17H28.0126ZM37.1672 17V13.43C37.1672 13.2573 37.1578 13.038 37.1392 12.772C37.1205 12.5013 37.0622 12.2307 36.9642 11.96C36.8662 11.6893 36.7052 11.463 36.4812 11.281C36.2618 11.099 35.9492 11.008 35.5432 11.008C35.3798 11.008 35.2048 11.0337 35.0182 11.085C34.8315 11.1363 34.6565 11.2367 34.4932 11.386C34.3298 11.5307 34.1945 11.7453 34.0872 12.03C33.9845 12.3147 33.9332 12.6927 33.9332 13.164L32.8412 12.646C32.8412 12.0487 32.9625 11.4887 33.2052 10.966C33.4478 10.4433 33.8118 10.021 34.2972 9.699C34.7872 9.377 35.4032 9.216 36.1452 9.216C36.7378 9.216 37.2208 9.31633 37.5942 9.517C37.9675 9.71767 38.2568 9.972 38.4622 10.28C38.6722 10.588 38.8215 10.91 38.9102 11.246C38.9988 11.5773 39.0525 11.8807 39.0712 12.156C39.0898 12.4313 39.0992 12.632 39.0992 12.758V17H37.1672ZM32.0012 17V9.44H33.6952V11.946H33.9332V17H32.0012ZM44.1495 20.57C43.7202 20.57 43.3119 20.5 42.9245 20.36C42.5372 20.2247 42.1895 20.0333 41.8815 19.786C41.5782 19.5433 41.3309 19.2587 41.1395 18.932L42.9035 18.078C43.0249 18.302 43.1975 18.4723 43.4215 18.589C43.6502 18.7057 43.8975 18.764 44.1635 18.764C44.4482 18.764 44.7165 18.715 44.9685 18.617C45.2205 18.5237 45.4212 18.3813 45.5705 18.19C45.7245 18.0033 45.7969 17.77 45.7875 17.49V15.292H46.0255V9.44H47.6915V17.518C47.6915 17.7047 47.6822 17.8797 47.6635 18.043C47.6495 18.211 47.6215 18.3767 47.5795 18.54C47.4582 19.002 47.2319 19.3823 46.9005 19.681C46.5739 19.9797 46.1725 20.2013 45.6965 20.346C45.2205 20.4953 44.7049 20.57 44.1495 20.57ZM43.9815 17.21C43.2862 17.21 42.6772 17.035 42.1545 16.685C41.6319 16.335 41.2235 15.859 40.9295 15.257C40.6402 14.655 40.4955 13.976 40.4955 13.22C40.4955 12.45 40.6425 11.7663 40.9365 11.169C41.2352 10.567 41.6529 10.0933 42.1895 9.748C42.7262 9.40267 43.3562 9.23 44.0795 9.23C44.7982 9.23 45.4025 9.405 45.8925 9.755C46.3825 10.105 46.7535 10.581 47.0055 11.183C47.2575 11.785 47.3835 12.464 47.3835 13.22C47.3835 13.976 47.2552 14.655 46.9985 15.257C46.7465 15.859 46.3685 16.335 45.8645 16.685C45.3605 17.035 44.7329 17.21 43.9815 17.21ZM44.2895 15.516C44.7142 15.516 45.0525 15.4203 45.3045 15.229C45.5612 15.0377 45.7455 14.7693 45.8575 14.424C45.9695 14.0787 46.0255 13.6773 46.0255 13.22C46.0255 12.7627 45.9695 12.3613 45.8575 12.016C45.7455 11.6707 45.5659 11.4023 45.3185 11.211C45.0759 11.0197 44.7562 10.924 44.3595 10.924C43.9349 10.924 43.5849 11.029 43.3095 11.239C43.0389 11.4443 42.8382 11.722 42.7075 12.072C42.5769 12.4173 42.5115 12.8 42.5115 13.22C42.5115 13.6447 42.5745 14.032 42.7005 14.382C42.8265 14.7273 43.0202 15.0027 43.2815 15.208C43.5429 15.4133 43.8789 15.516 44.2895 15.516ZM54.5546 17.21C54.0133 17.21 53.5536 17.1073 53.1756 16.902C52.8023 16.692 52.5176 16.4143 52.3216 16.069C52.1303 15.719 52.0346 15.334 52.0346 14.914C52.0346 14.564 52.0883 14.2443 52.1956 13.955C52.3029 13.6657 52.4756 13.4113 52.7136 13.192C52.9563 12.968 53.2806 12.7813 53.6866 12.632C53.9666 12.5293 54.3003 12.4383 54.6876 12.359C55.0749 12.2797 55.5136 12.205 56.0036 12.135C56.4936 12.0603 57.0326 11.9787 57.6206 11.89L56.9346 12.268C56.9346 11.82 56.8273 11.491 56.6126 11.281C56.3979 11.071 56.0386 10.966 55.5346 10.966C55.2546 10.966 54.9629 11.0337 54.6596 11.169C54.3563 11.3043 54.1439 11.5447 54.0226 11.89L52.3006 11.344C52.4919 10.7187 52.8513 10.21 53.3786 9.818C53.9059 9.426 54.6246 9.23 55.5346 9.23C56.2019 9.23 56.7946 9.33267 57.3126 9.538C57.8306 9.74333 58.2226 10.098 58.4886 10.602C58.6379 10.882 58.7266 11.162 58.7546 11.442C58.7826 11.722 58.7966 12.0347 58.7966 12.38V17H57.1306V15.446L57.3686 15.768C56.9999 16.2767 56.6009 16.6453 56.1716 16.874C55.7469 17.098 55.2079 17.21 54.5546 17.21ZM54.9606 15.712C55.3106 15.712 55.6046 15.6513 55.8426 15.53C56.0853 15.404 56.2766 15.2617 56.4166 15.103C56.5613 14.9443 56.6593 14.8113 56.7106 14.704C56.8086 14.4987 56.8646 14.2607 56.8786 13.99C56.8973 13.7147 56.9066 13.486 56.9066 13.304L57.4666 13.444C56.9019 13.5373 56.4446 13.6167 56.0946 13.682C55.7446 13.7427 55.4623 13.7987 55.2476 13.85C55.0329 13.9013 54.8439 13.9573 54.6806 14.018C54.4939 14.0927 54.3423 14.1743 54.2256 14.263C54.1136 14.347 54.0296 14.4403 53.9736 14.543C53.9223 14.6457 53.8966 14.76 53.8966 14.886C53.8966 15.0587 53.9386 15.208 54.0226 15.334C54.1113 15.4553 54.2349 15.5487 54.3936 15.614C54.5523 15.6793 54.7413 15.712 54.9606 15.712ZM64.0495 17V9.468C64.0495 9.27667 64.0541 9.05967 64.0635 8.817C64.0728 8.57433 64.1101 8.32933 64.1755 8.082C64.2455 7.83467 64.3715 7.61067 64.5535 7.41C64.7868 7.14867 65.0388 6.97133 65.3095 6.878C65.5848 6.78 65.8508 6.72867 66.1075 6.724C66.3641 6.71467 66.5835 6.71 66.7655 6.71H67.7035V8.25H66.8355C66.5368 8.25 66.3151 8.327 66.1705 8.481C66.0258 8.63033 65.9535 8.81 65.9535 9.02V17H64.0495ZM62.8595 10.91V9.44H67.7035V10.91H62.8595ZM71.6338 17.224C71.0412 17.224 70.5582 17.1237 70.1848 16.923C69.8115 16.7223 69.5198 16.468 69.3098 16.16C69.1045 15.852 68.9575 15.5323 68.8688 15.201C68.7802 14.865 68.7265 14.5593 68.7078 14.284C68.6892 14.0087 68.6798 13.808 68.6798 13.682V9.44H70.6118V13.01C70.6118 13.1827 70.6212 13.4043 70.6398 13.675C70.6585 13.941 70.7168 14.2093 70.8148 14.48C70.9128 14.7507 71.0715 14.977 71.2908 15.159C71.5148 15.341 71.8298 15.432 72.2358 15.432C72.3992 15.432 72.5742 15.4063 72.7608 15.355C72.9475 15.3037 73.1225 15.2057 73.2858 15.061C73.4492 14.9117 73.5822 14.6947 73.6848 14.41C73.7922 14.1207 73.8458 13.7427 73.8458 13.276L74.9378 13.794C74.9378 14.3913 74.8165 14.9513 74.5738 15.474C74.3312 15.9967 73.9648 16.419 73.4748 16.741C72.9895 17.063 72.3758 17.224 71.6338 17.224ZM74.0838 17V14.494H73.8458V9.44H75.7638V17H74.0838ZM82.8722 17V13.43C82.8722 13.2573 82.8629 13.038 82.8442 12.772C82.8256 12.5013 82.7672 12.2307 82.6692 11.96C82.5712 11.6893 82.4102 11.463 82.1862 11.281C81.9669 11.099 81.6542 11.008 81.2482 11.008C81.0849 11.008 80.9099 11.0337 80.7232 11.085C80.5366 11.1363 80.3616 11.2367 80.1982 11.386C80.0349 11.5307 79.8996 11.7453 79.7922 12.03C79.6896 12.3147 79.6382 12.6927 79.6382 13.164L78.5462 12.646C78.5462 12.0487 78.6676 11.4887 78.9102 10.966C79.1529 10.4433 79.5169 10.021 80.0022 9.699C80.4922 9.377 81.1082 9.216 81.8502 9.216C82.4429 9.216 82.9259 9.31633 83.2992 9.517C83.6726 9.71767 83.9619 9.972 84.1672 10.28C84.3772 10.588 84.5266 10.91 84.6152 11.246C84.7039 11.5773 84.7576 11.8807 84.7762 12.156C84.7949 12.4313 84.8042 12.632 84.8042 12.758V17H82.8722ZM77.7062 17V9.44H79.4002V11.946H79.6382V17H77.7062ZM89.8159 17.21C89.0319 17.21 88.3599 17.035 87.7999 16.685C87.2399 16.335 86.8106 15.859 86.5119 15.257C86.2132 14.655 86.0639 13.976 86.0639 13.22C86.0639 12.4547 86.2179 11.771 86.5259 11.169C86.8386 10.567 87.2772 10.0933 87.8419 9.748C88.4066 9.40267 89.0739 9.23 89.8439 9.23C90.7352 9.23 91.4819 9.45633 92.0839 9.909C92.6906 10.357 93.0779 10.9707 93.2459 11.75L91.3419 12.254C91.2299 11.862 91.0339 11.5563 90.7539 11.337C90.4786 11.1177 90.1659 11.008 89.8159 11.008C89.4146 11.008 89.0856 11.106 88.8289 11.302C88.5722 11.4933 88.3832 11.757 88.2619 12.093C88.1406 12.4243 88.0799 12.8 88.0799 13.22C88.0799 13.878 88.2246 14.4123 88.5139 14.823C88.8079 15.229 89.2419 15.432 89.8159 15.432C90.2452 15.432 90.5719 15.334 90.7959 15.138C91.0199 14.942 91.1879 14.662 91.2999 14.298L93.2459 14.704C93.0312 15.5067 92.6252 16.125 92.0279 16.559C91.4306 16.993 90.6932 17.21 89.8159 17.21ZM99.182 17C98.6593 17.098 98.146 17.14 97.642 17.126C97.1427 17.1167 96.6947 17.0303 96.298 16.867C95.906 16.699 95.6073 16.4307 95.402 16.062C95.2153 15.7167 95.1173 15.3667 95.108 15.012C95.0987 14.6527 95.094 14.2467 95.094 13.794V7.34H96.998V13.682C96.998 13.976 97.0003 14.242 97.005 14.48C97.0143 14.7133 97.0633 14.9 97.152 15.04C97.32 15.306 97.5883 15.4507 97.957 15.474C98.3257 15.4973 98.734 15.4787 99.182 15.418V17ZM93.806 10.91V9.44H99.182V10.91H93.806ZM101.007 8.39V6.71H102.911V8.39H101.007ZM101.007 17V9.44H102.911V17H101.007ZM108.411 17.21C107.651 17.21 106.983 17.0397 106.409 16.699C105.835 16.3583 105.387 15.8893 105.065 15.292C104.748 14.69 104.589 13.9993 104.589 13.22C104.589 12.4313 104.753 11.7383 105.079 11.141C105.406 10.539 105.856 10.07 106.43 9.734C107.004 9.398 107.665 9.23 108.411 9.23C109.172 9.23 109.839 9.40033 110.413 9.741C110.992 10.0817 111.442 10.553 111.764 11.155C112.086 11.7523 112.247 12.4407 112.247 13.22C112.247 14.004 112.084 14.697 111.757 15.299C111.435 15.8963 110.985 16.3653 110.406 16.706C109.832 17.042 109.167 17.21 108.411 17.21ZM108.411 15.432C109.023 15.432 109.478 15.2267 109.776 14.816C110.08 14.4007 110.231 13.8687 110.231 13.22C110.231 12.548 110.077 12.0113 109.769 11.61C109.466 11.2087 109.013 11.008 108.411 11.008C107.996 11.008 107.655 11.1013 107.389 11.288C107.123 11.4747 106.925 11.7337 106.794 12.065C106.668 12.3963 106.605 12.7813 106.605 13.22C106.605 13.8967 106.757 14.4357 107.06 14.837C107.368 15.2337 107.819 15.432 108.411 15.432ZM118.939 17V13.43C118.939 13.2573 118.929 13.038 118.911 12.772C118.892 12.5013 118.834 12.2307 118.736 11.96C118.638 11.6893 118.477 11.463 118.253 11.281C118.033 11.099 117.721 11.008 117.315 11.008C117.151 11.008 116.976 11.0337 116.79 11.085C116.603 11.1363 116.428 11.2367 116.265 11.386C116.101 11.5307 115.966 11.7453 115.859 12.03C115.756 12.3147 115.705 12.6927 115.705 13.164L114.613 12.646C114.613 12.0487 114.734 11.4887 114.977 10.966C115.219 10.4433 115.583 10.021 116.069 9.699C116.559 9.377 117.175 9.216 117.917 9.216C118.509 9.216 118.992 9.31633 119.366 9.517C119.739 9.71767 120.028 9.972 120.234 10.28C120.444 10.588 120.593 10.91 120.682 11.246C120.77 11.5773 120.824 11.8807 120.843 12.156C120.861 12.4313 120.871 12.632 120.871 12.758V17H118.939ZM113.773 17V9.44H115.467V11.946H115.705V17H113.773Z" fill="white"/>
<rect x="12" y="187" width="217" height="69" rx="7" fill="#282525" stroke="#777777" stroke-width="2"/>
<path d="M37.4535 212.21C36.4455 212.21 35.5751 211.991 34.8425 211.552C34.1145 211.113 33.5521 210.5 33.1555 209.711C32.7635 208.922 32.5675 208.005 32.5675 206.96C32.5675 205.915 32.7635 204.998 33.1555 204.209C33.5521 203.42 34.1145 202.807 34.8425 202.368C35.5751 201.929 36.4455 201.71 37.4535 201.71C38.6108 201.71 39.5815 201.997 40.3655 202.571C41.1541 203.145 41.7095 203.922 42.0315 204.902L40.1135 205.434C39.9268 204.823 39.6118 204.349 39.1685 204.013C38.7251 203.672 38.1535 203.502 37.4535 203.502C36.8141 203.502 36.2798 203.644 35.8505 203.929C35.4258 204.214 35.1061 204.615 34.8915 205.133C34.6768 205.651 34.5695 206.26 34.5695 206.96C34.5695 207.66 34.6768 208.269 34.8915 208.787C35.1061 209.305 35.4258 209.706 35.8505 209.991C36.2798 210.276 36.8141 210.418 37.4535 210.418C38.1535 210.418 38.7251 210.248 39.1685 209.907C39.6118 209.566 39.9268 209.093 40.1135 208.486L42.0315 209.018C41.7095 209.998 41.1541 210.775 40.3655 211.349C39.5815 211.923 38.6108 212.21 37.4535 212.21ZM46.9748 212.21C46.2141 212.21 45.5468 212.04 44.9728 211.699C44.3988 211.358 43.9508 210.889 43.6288 210.292C43.3114 209.69 43.1528 208.999 43.1528 208.22C43.1528 207.431 43.3161 206.738 43.6428 206.141C43.9694 205.539 44.4198 205.07 44.9938 204.734C45.5678 204.398 46.2281 204.23 46.9748 204.23C47.7354 204.23 48.4028 204.4 48.9768 204.741C49.5554 205.082 50.0058 205.553 50.3278 206.155C50.6498 206.752 50.8108 207.441 50.8108 208.22C50.8108 209.004 50.6474 209.697 50.3208 210.299C49.9988 210.896 49.5484 211.365 48.9698 211.706C48.3958 212.042 47.7308 212.21 46.9748 212.21ZM46.9748 210.432C47.5861 210.432 48.0411 210.227 48.3398 209.816C48.6431 209.401 48.7948 208.869 48.7948 208.22C48.7948 207.548 48.6408 207.011 48.3328 206.61C48.0294 206.209 47.5768 206.008 46.9748 206.008C46.5594 206.008 46.2188 206.101 45.9528 206.288C45.6868 206.475 45.4884 206.734 45.3578 207.065C45.2318 207.396 45.1688 207.781 45.1688 208.22C45.1688 208.897 45.3204 209.436 45.6238 209.837C45.9318 210.234 46.3821 210.432 46.9748 210.432ZM57.5021 212V208.43C57.5021 208.257 57.4928 208.038 57.4741 207.772C57.4555 207.501 57.3971 207.231 57.2991 206.96C57.2011 206.689 57.0401 206.463 56.8161 206.281C56.5968 206.099 56.2841 206.008 55.8781 206.008C55.7148 206.008 55.5398 206.034 55.3531 206.085C55.1665 206.136 54.9915 206.237 54.8281 206.386C54.6648 206.531 54.5295 206.745 54.4221 207.03C54.3195 207.315 54.2681 207.693 54.2681 208.164L53.1761 207.646C53.1761 207.049 53.2975 206.489 53.5401 205.966C53.7828 205.443 54.1468 205.021 54.6321 204.699C55.1221 204.377 55.7381 204.216 56.4801 204.216C57.0728 204.216 57.5558 204.316 57.9291 204.517C58.3025 204.718 58.5918 204.972 58.7971 205.28C59.0071 205.588 59.1565 205.91 59.2451 206.246C59.3338 206.577 59.3875 206.881 59.4061 207.156C59.4248 207.431 59.4341 207.632 59.4341 207.758V212H57.5021ZM52.3361 212V204.44H54.0301V206.946H54.2681V212H52.3361ZM64.2045 212.21C63.2525 212.21 62.4825 211.995 61.8945 211.566C61.3112 211.132 60.9565 210.521 60.8305 209.732L62.7765 209.438C62.8558 209.793 63.0308 210.07 63.3015 210.271C63.5768 210.472 63.9245 210.572 64.3445 210.572C64.6898 210.572 64.9558 210.507 65.1425 210.376C65.3292 210.241 65.4225 210.054 65.4225 209.816C65.4225 209.667 65.3852 209.548 65.3105 209.459C65.2358 209.366 65.0678 209.275 64.8065 209.186C64.5498 209.097 64.1485 208.981 63.6025 208.836C62.9865 208.677 62.4942 208.5 62.1255 208.304C61.7568 208.108 61.4908 207.875 61.3275 207.604C61.1642 207.329 61.0825 206.997 61.0825 206.61C61.0825 206.125 61.2062 205.705 61.4535 205.35C61.7008 204.991 62.0485 204.715 62.4965 204.524C62.9492 204.328 63.4812 204.23 64.0925 204.23C64.6852 204.23 65.2102 204.321 65.6675 204.503C66.1248 204.685 66.4935 204.944 66.7735 205.28C67.0582 205.616 67.2332 206.013 67.2985 206.47L65.3525 206.82C65.3198 206.54 65.1985 206.318 64.9885 206.155C64.7785 205.992 64.4938 205.896 64.1345 205.868C63.7845 205.845 63.5022 205.891 63.2875 206.008C63.0775 206.125 62.9725 206.293 62.9725 206.512C62.9725 206.643 63.0168 206.752 63.1055 206.841C63.1988 206.93 63.3878 207.021 63.6725 207.114C63.9618 207.207 64.4005 207.329 64.9885 207.478C65.5625 207.627 66.0222 207.802 66.3675 208.003C66.7175 208.199 66.9718 208.437 67.1305 208.717C67.2892 208.992 67.3685 209.326 67.3685 209.718C67.3685 210.493 67.0885 211.102 66.5285 211.545C65.9685 211.988 65.1938 212.21 64.2045 212.21ZM72.3088 212.21C71.5481 212.21 70.8808 212.04 70.3068 211.699C69.7328 211.358 69.2848 210.889 68.9628 210.292C68.6454 209.69 68.4868 208.999 68.4868 208.22C68.4868 207.431 68.6501 206.738 68.9768 206.141C69.3034 205.539 69.7538 205.07 70.3278 204.734C70.9018 204.398 71.5621 204.23 72.3088 204.23C73.0694 204.23 73.7368 204.4 74.3108 204.741C74.8894 205.082 75.3398 205.553 75.6618 206.155C75.9838 206.752 76.1448 207.441 76.1448 208.22C76.1448 209.004 75.9814 209.697 75.6548 210.299C75.3328 210.896 74.8824 211.365 74.3038 211.706C73.7298 212.042 73.0648 212.21 72.3088 212.21ZM72.3088 210.432C72.9201 210.432 73.3751 210.227 73.6738 209.816C73.9771 209.401 74.1288 208.869 74.1288 208.22C74.1288 207.548 73.9748 207.011 73.6668 206.61C73.3634 206.209 72.9108 206.008 72.3088 206.008C71.8934 206.008 71.5528 206.101 71.2868 206.288C71.0208 206.475 70.8224 206.734 70.6918 207.065C70.5658 207.396 70.5028 207.781 70.5028 208.22C70.5028 208.897 70.6544 209.436 70.9578 209.837C71.2658 210.234 71.7161 210.432 72.3088 210.432ZM77.8241 212V201.71H79.7281V212H77.8241ZM85.3407 212.21C84.566 212.21 83.8823 212.044 83.2897 211.713C82.7017 211.377 82.2397 210.917 81.9037 210.334C81.5723 209.746 81.4067 209.074 81.4067 208.318C81.4067 207.492 81.57 206.773 81.8967 206.162C82.2233 205.551 82.6737 205.077 83.2477 204.741C83.8217 204.4 84.482 204.23 85.2287 204.23C86.022 204.23 86.6963 204.417 87.2517 204.79C87.807 205.163 88.2177 205.688 88.4837 206.365C88.7497 207.042 88.843 207.837 88.7637 208.752H86.8807V208.052C86.8807 207.282 86.757 206.729 86.5097 206.393C86.267 206.052 85.868 205.882 85.3127 205.882C84.664 205.882 84.1857 206.08 83.8777 206.477C83.5743 206.869 83.4227 207.45 83.4227 208.22C83.4227 208.925 83.5743 209.471 83.8777 209.858C84.1857 210.241 84.636 210.432 85.2287 210.432C85.602 210.432 85.9217 210.35 86.1877 210.187C86.4537 210.024 86.6567 209.788 86.7967 209.48L88.7007 210.026C88.416 210.717 87.9657 211.253 87.3497 211.636C86.7383 212.019 86.0687 212.21 85.3407 212.21ZM82.8347 208.752V207.338H87.8467V208.752H82.8347Z" fill="white"/>
<path d="M32.98 239V228.92H34.226V233.365H39.532V228.92H40.778V239H39.532V234.548H34.226V239H32.98ZM46.0177 239.21C45.2757 239.21 44.6271 239.047 44.0717 238.72C43.5211 238.389 43.0917 237.929 42.7837 237.341C42.4757 236.748 42.3217 236.058 42.3217 235.269C42.3217 234.443 42.4734 233.729 42.7767 233.127C43.0801 232.52 43.5024 232.054 44.0437 231.727C44.5897 231.396 45.2291 231.23 45.9617 231.23C46.7224 231.23 47.3687 231.405 47.9007 231.755C48.4374 232.105 48.8387 232.604 49.1047 233.253C49.3754 233.902 49.4921 234.674 49.4547 235.57H48.1947V235.122C48.1807 234.193 47.9917 233.5 47.6277 233.043C47.2637 232.581 46.7224 232.35 46.0037 232.35C45.2337 232.35 44.6481 232.597 44.2467 233.092C43.8454 233.587 43.6447 234.296 43.6447 235.22C43.6447 236.111 43.8454 236.802 44.2467 237.292C44.6481 237.782 45.2197 238.027 45.9617 238.027C46.4611 238.027 46.8951 237.913 47.2637 237.684C47.6324 237.455 47.9217 237.126 48.1317 236.697L49.3287 237.11C49.0347 237.777 48.5914 238.295 47.9987 238.664C47.4107 239.028 46.7504 239.21 46.0177 239.21ZM43.2247 235.57V234.569H48.8107V235.57H43.2247ZM51.1532 239V228.71H52.3992V239H51.1532ZM54.6395 239V228.71H55.8855V239H54.6395ZM61.2059 239.21C60.4545 239.21 59.8059 239.04 59.2599 238.699C58.7185 238.358 58.3009 237.887 58.0069 237.285C57.7129 236.683 57.5659 235.992 57.5659 235.213C57.5659 234.42 57.7152 233.724 58.0139 233.127C58.3125 232.53 58.7349 232.065 59.2809 231.734C59.8269 231.398 60.4685 231.23 61.2059 231.23C61.9619 231.23 62.6129 231.4 63.1589 231.741C63.7049 232.077 64.1225 232.546 64.4119 233.148C64.7059 233.745 64.8529 234.434 64.8529 235.213C64.8529 236.002 64.7059 236.697 64.4119 237.299C64.1179 237.896 63.6979 238.365 63.1519 238.706C62.6059 239.042 61.9572 239.21 61.2059 239.21ZM61.2059 238.027C61.9899 238.027 62.5732 237.766 62.9559 237.243C63.3385 236.72 63.5299 236.044 63.5299 235.213C63.5299 234.359 63.3362 233.68 62.9489 233.176C62.5615 232.667 61.9805 232.413 61.2059 232.413C60.6785 232.413 60.2445 232.532 59.9039 232.77C59.5632 233.008 59.3089 233.337 59.1409 233.757C58.9729 234.177 58.8889 234.662 58.8889 235.213C58.8889 236.062 59.0849 236.744 59.4769 237.257C59.8689 237.77 60.4452 238.027 61.2059 238.027ZM65.9806 240.568L66.0576 239.987C66.2536 240.001 66.4006 239.964 66.4986 239.875C66.5966 239.786 66.6596 239.665 66.6876 239.511C66.7156 239.357 66.7203 239.187 66.7016 239H65.9806V237.418H67.3526V239.21C67.3526 239.7 67.2313 240.069 66.9886 240.316C66.7506 240.563 66.4146 240.647 65.9806 240.568ZM72.1198 239L75.4938 228.92H77.2298L80.6038 239H79.3088L76.1518 229.648H76.5438L73.4148 239H72.1198ZM73.7438 236.641V235.472H78.9798V236.641H73.7438ZM81.997 239V228.71H83.243V239H81.997ZM85.4833 230.103V228.815H86.7293V230.103H85.4833ZM85.4833 239V231.44H86.7293V239H85.4833ZM92.0146 239.21C91.2493 239.21 90.5983 239.04 90.0616 238.699C89.5296 238.354 89.1236 237.88 88.8436 237.278C88.5636 236.676 88.4189 235.99 88.4096 235.22C88.4189 234.431 88.5659 233.738 88.8506 233.141C89.1399 232.539 89.5529 232.07 90.0896 231.734C90.6263 231.398 91.2726 231.23 92.0286 231.23C92.8266 231.23 93.5126 231.426 94.0866 231.818C94.6653 232.21 95.0526 232.747 95.2486 233.428L94.0166 233.799C93.8579 233.36 93.5989 233.02 93.2396 232.777C92.8849 232.534 92.4766 232.413 92.0146 232.413C91.4966 232.413 91.0696 232.534 90.7336 232.777C90.3976 233.015 90.1479 233.346 89.9846 233.771C89.8213 234.191 89.7373 234.674 89.7326 235.22C89.7419 236.06 89.9356 236.739 90.3136 237.257C90.6963 237.77 91.2633 238.027 92.0146 238.027C92.5093 238.027 92.9199 237.915 93.2466 237.691C93.5733 237.462 93.8206 237.133 93.9886 236.704L95.2486 237.033C94.9873 237.738 94.5789 238.277 94.0236 238.65C93.4683 239.023 92.7986 239.21 92.0146 239.21ZM99.7482 239.21C99.0062 239.21 98.3575 239.047 97.8022 238.72C97.2515 238.389 96.8222 237.929 96.5142 237.341C96.2062 236.748 96.0522 236.058 96.0522 235.269C96.0522 234.443 96.2039 233.729 96.5072 233.127C96.8105 232.52 97.2329 232.054 97.7742 231.727C98.3202 231.396 98.9595 231.23 99.6922 231.23C100.453 231.23 101.099 231.405 101.631 231.755C102.168 232.105 102.569 232.604 102.835 233.253C103.106 233.902 103.223 234.674 103.185 235.57H101.925V235.122C101.911 234.193 101.722 233.5 101.358 233.043C100.994 232.581 100.453 232.35 99.7342 232.35C98.9642 232.35 98.3785 232.597 97.9772 233.092C97.5759 233.587 97.3752 234.296 97.3752 235.22C97.3752 236.111 97.5759 236.802 97.9772 237.292C98.3785 237.782 98.9502 238.027 99.6922 238.027C100.192 238.027 100.626 237.913 100.994 237.684C101.363 237.455 101.652 237.126 101.862 236.697L103.059 237.11C102.765 237.777 102.322 238.295 101.729 238.664C101.141 239.028 100.481 239.21 99.7482 239.21ZM96.9552 235.57V234.569H102.541V235.57H96.9552ZM105.444 239V237.712H106.69V239H105.444ZM105.444 236.48V228.92H106.69V236.48H105.444Z" fill="#FCFCFC"/>
</svg>
