<svg width="356" height="134" viewBox="0 0 356 134" fill="none" xmlns="http://www.w3.org/2000/svg">
<path d="M50.812 56.21C50.028 56.21 49.356 56.035 48.796 55.685C48.236 55.335 47.8067 54.859 47.508 54.257C47.2093 53.655 47.06 52.976 47.06 52.22C47.06 51.4547 47.214 50.771 47.522 50.169C47.8347 49.567 48.2733 49.0933 48.838 48.748C49.4027 48.4027 50.07 48.23 50.84 48.23C51.7313 48.23 52.478 48.4563 53.08 48.909C53.6867 49.357 54.074 49.9707 54.242 50.75L52.338 51.254C52.226 50.862 52.03 50.5563 51.75 50.337C51.4747 50.1177 51.162 50.008 50.812 50.008C50.4107 50.008 50.0817 50.106 49.825 50.302C49.5683 50.4933 49.3793 50.757 49.258 51.093C49.1367 51.4243 49.076 51.8 49.076 52.22C49.076 52.878 49.2207 53.4123 49.51 53.823C49.804 54.229 50.238 54.432 50.812 54.432C51.2413 54.432 51.568 54.334 51.792 54.138C52.016 53.942 52.184 53.662 52.296 53.298L54.242 53.704C54.0273 54.5067 53.6213 55.125 53.024 55.559C52.4267 55.993 51.6893 56.21 50.812 56.21ZM58.839 56.21C58.0784 56.21 57.411 56.0397 56.837 55.699C56.263 55.3583 55.815 54.8893 55.493 54.292C55.1757 53.69 55.017 52.9993 55.017 52.22C55.017 51.4313 55.1804 50.7383 55.507 50.141C55.8337 49.539 56.284 49.07 56.858 48.734C57.432 48.398 58.0924 48.23 58.839 48.23C59.5997 48.23 60.267 48.4003 60.841 48.741C61.4197 49.0817 61.87 49.553 62.192 50.155C62.514 50.7523 62.675 51.4407 62.675 52.22C62.675 53.004 62.5117 53.697 62.185 54.299C61.863 54.8963 61.4127 55.3653 60.834 55.706C60.26 56.042 59.595 56.21 58.839 56.21ZM58.839 54.432C59.4504 54.432 59.9054 54.2267 60.204 53.816C60.5074 53.4007 60.659 52.8687 60.659 52.22C60.659 51.548 60.505 51.0113 60.197 50.61C59.8937 50.2087 59.441 50.008 58.839 50.008C58.4237 50.008 58.083 50.1013 57.817 50.288C57.551 50.4747 57.3527 50.7337 57.222 51.065C57.096 51.3963 57.033 51.7813 57.033 52.22C57.033 52.8967 57.1847 53.4357 57.488 53.837C57.796 54.2337 58.2464 54.432 58.839 54.432ZM69.3664 56V52.43C69.3664 52.2573 69.357 52.038 69.3384 51.772C69.3197 51.5013 69.2614 51.2307 69.1634 50.96C69.0654 50.6893 68.9044 50.463 68.6804 50.281C68.461 50.099 68.1484 50.008 67.7424 50.008C67.579 50.008 67.404 50.0337 67.2174 50.085C67.0307 50.1363 66.8557 50.2367 66.6924 50.386C66.529 50.5307 66.3937 50.7453 66.2864 51.03C66.1837 51.3147 66.1324 51.6927 66.1324 52.164L65.0404 51.646C65.0404 51.0487 65.1617 50.4887 65.4044 49.966C65.647 49.4433 66.011 49.021 66.4964 48.699C66.9864 48.377 67.6024 48.216 68.3444 48.216C68.937 48.216 69.42 48.3163 69.7934 48.517C70.1667 48.7177 70.456 48.972 70.6614 49.28C70.8714 49.588 71.0207 49.91 71.1094 50.246C71.198 50.5773 71.2517 50.8807 71.2704 51.156C71.289 51.4313 71.2984 51.632 71.2984 51.758V56H69.3664ZM64.2004 56V48.44H65.8944V50.946H66.1324V56H64.2004ZM76.0688 56.21C75.1168 56.21 74.3468 55.9953 73.7588 55.566C73.1754 55.132 72.8208 54.5207 72.6948 53.732L74.6408 53.438C74.7201 53.7927 74.8951 54.0703 75.1658 54.271C75.4411 54.4717 75.7888 54.572 76.2088 54.572C76.5541 54.572 76.8201 54.5067 77.0068 54.376C77.1934 54.2407 77.2868 54.054 77.2868 53.816C77.2868 53.6667 77.2494 53.5477 77.1748 53.459C77.1001 53.3657 76.9321 53.2747 76.6708 53.186C76.4141 53.0973 76.0128 52.9807 75.4668 52.836C74.8508 52.6773 74.3584 52.5 73.9898 52.304C73.6211 52.108 73.3551 51.8747 73.1918 51.604C73.0284 51.3287 72.9468 50.9973 72.9468 50.61C72.9468 50.1247 73.0704 49.7047 73.3178 49.35C73.5651 48.9907 73.9128 48.7153 74.3608 48.524C74.8134 48.328 75.3454 48.23 75.9568 48.23C76.5494 48.23 77.0744 48.321 77.5318 48.503C77.9891 48.685 78.3578 48.944 78.6378 49.28C78.9224 49.616 79.0974 50.0127 79.1628 50.47L77.2168 50.82C77.1841 50.54 77.0628 50.3183 76.8528 50.155C76.6428 49.9917 76.3581 49.896 75.9988 49.868C75.6488 49.8447 75.3664 49.8913 75.1518 50.008C74.9418 50.1247 74.8368 50.2927 74.8368 50.512C74.8368 50.6427 74.8811 50.7523 74.9698 50.841C75.0631 50.9297 75.2521 51.0207 75.5368 51.114C75.8261 51.2073 76.2648 51.3287 76.8528 51.478C77.4268 51.6273 77.8864 51.8023 78.2318 52.003C78.5818 52.199 78.8361 52.437 78.9948 52.717C79.1534 52.9923 79.2328 53.326 79.2328 53.718C79.2328 54.4927 78.9528 55.1017 78.3928 55.545C77.8328 55.9883 77.0581 56.21 76.0688 56.21ZM85.307 56C84.7843 56.098 84.271 56.14 83.767 56.126C83.2677 56.1167 82.8197 56.0303 82.423 55.867C82.031 55.699 81.7323 55.4307 81.527 55.062C81.3403 54.7167 81.2423 54.3667 81.233 54.012C81.2237 53.6527 81.219 53.2467 81.219 52.794V46.34H83.123V52.682C83.123 52.976 83.1253 53.242 83.13 53.48C83.1393 53.7133 83.1883 53.9 83.277 54.04C83.445 54.306 83.7133 54.4507 84.082 54.474C84.4507 54.4973 84.859 54.4787 85.307 54.418V56ZM79.931 49.91V48.44H85.307V49.91H79.931ZM130.922 50.33V48.86H138.062V50.33H130.922ZM130.922 53.06V51.59H138.062V53.06H130.922ZM144.155 56V48.468C144.155 48.2767 144.16 48.0597 144.169 47.817C144.178 47.5743 144.216 47.3293 144.281 47.082C144.351 46.8347 144.477 46.6107 144.659 46.41C144.892 46.1487 145.144 45.9713 145.415 45.878C145.69 45.78 145.956 45.7287 146.213 45.724C146.47 45.7147 146.689 45.71 146.871 45.71H147.809V47.25H146.941C146.642 47.25 146.421 47.327 146.276 47.481C146.131 47.6303 146.059 47.81 146.059 48.02V56H144.155ZM142.965 49.91V48.44H147.809V49.91H142.965ZM151.739 56.224C151.147 56.224 150.664 56.1237 150.29 55.923C149.917 55.7223 149.625 55.468 149.415 55.16C149.21 54.852 149.063 54.5323 148.974 54.201C148.886 53.865 148.832 53.5593 148.813 53.284C148.795 53.0087 148.785 52.808 148.785 52.682V48.44H150.717V52.01C150.717 52.1827 150.727 52.4043 150.745 52.675C150.764 52.941 150.822 53.2093 150.92 53.48C151.018 53.7507 151.177 53.977 151.396 54.159C151.62 54.341 151.935 54.432 152.341 54.432C152.505 54.432 152.68 54.4063 152.866 54.355C153.053 54.3037 153.228 54.2057 153.391 54.061C153.555 53.9117 153.688 53.6947 153.79 53.41C153.898 53.1207 153.951 52.7427 153.951 52.276L155.043 52.794C155.043 53.3913 154.922 53.9513 154.679 54.474C154.437 54.9967 154.07 55.419 153.58 55.741C153.095 56.063 152.481 56.224 151.739 56.224ZM154.189 56V53.494H153.951V48.44H155.869V56H154.189ZM162.978 56V52.43C162.978 52.2573 162.968 52.038 162.95 51.772C162.931 51.5013 162.873 51.2307 162.775 50.96C162.677 50.6893 162.516 50.463 162.292 50.281C162.072 50.099 161.76 50.008 161.354 50.008C161.19 50.008 161.015 50.0337 160.829 50.085C160.642 50.1363 160.467 50.2367 160.304 50.386C160.14 50.5307 160.005 50.7453 159.898 51.03C159.795 51.3147 159.744 51.6927 159.744 52.164L158.652 51.646C158.652 51.0487 158.773 50.4887 159.016 49.966C159.258 49.4433 159.622 49.021 160.108 48.699C160.598 48.377 161.214 48.216 161.956 48.216C162.548 48.216 163.031 48.3163 163.405 48.517C163.778 48.7177 164.067 48.972 164.273 49.28C164.483 49.588 164.632 49.91 164.721 50.246C164.809 50.5773 164.863 50.8807 164.882 51.156C164.9 51.4313 164.91 51.632 164.91 51.758V56H162.978ZM157.812 56V48.44H159.506V50.946H159.744V56H157.812ZM169.921 56.21C169.137 56.21 168.465 56.035 167.905 55.685C167.345 55.335 166.916 54.859 166.617 54.257C166.319 53.655 166.169 52.976 166.169 52.22C166.169 51.4547 166.323 50.771 166.631 50.169C166.944 49.567 167.383 49.0933 167.947 48.748C168.512 48.4027 169.179 48.23 169.949 48.23C170.841 48.23 171.587 48.4563 172.189 48.909C172.796 49.357 173.183 49.9707 173.351 50.75L171.447 51.254C171.335 50.862 171.139 50.5563 170.859 50.337C170.584 50.1177 170.271 50.008 169.921 50.008C169.52 50.008 169.191 50.106 168.934 50.302C168.678 50.4933 168.489 50.757 168.367 51.093C168.246 51.4243 168.185 51.8 168.185 52.22C168.185 52.878 168.33 53.4123 168.619 53.823C168.913 54.229 169.347 54.432 169.921 54.432C170.351 54.432 170.677 54.334 170.901 54.138C171.125 53.942 171.293 53.662 171.405 53.298L173.351 53.704C173.137 54.5067 172.731 55.125 172.133 55.559C171.536 55.993 170.799 56.21 169.921 56.21ZM179.287 56C178.765 56.098 178.251 56.14 177.747 56.126C177.248 56.1167 176.8 56.0303 176.403 55.867C176.011 55.699 175.713 55.4307 175.507 55.062C175.321 54.7167 175.223 54.3667 175.213 54.012C175.204 53.6527 175.199 53.2467 175.199 52.794V46.34H177.103V52.682C177.103 52.976 177.106 53.242 177.11 53.48C177.12 53.7133 177.169 53.9 177.257 54.04C177.425 54.306 177.694 54.4507 178.062 54.474C178.431 54.4973 178.839 54.4787 179.287 54.418V56ZM173.911 49.91V48.44H179.287V49.91H173.911ZM181.112 47.39V45.71H183.016V47.39H181.112ZM181.112 56V48.44H183.016V56H181.112ZM188.517 56.21C187.756 56.21 187.089 56.0397 186.515 55.699C185.941 55.3583 185.493 54.8893 185.171 54.292C184.853 53.69 184.695 52.9993 184.695 52.22C184.695 51.4313 184.858 50.7383 185.185 50.141C185.511 49.539 185.962 49.07 186.536 48.734C187.11 48.398 187.77 48.23 188.517 48.23C189.277 48.23 189.945 48.4003 190.519 48.741C191.097 49.0817 191.548 49.553 191.87 50.155C192.192 50.7523 192.353 51.4407 192.353 52.22C192.353 53.004 192.189 53.697 191.863 54.299C191.541 54.8963 191.09 55.3653 190.512 55.706C189.938 56.042 189.273 56.21 188.517 56.21ZM188.517 54.432C189.128 54.432 189.583 54.2267 189.882 53.816C190.185 53.4007 190.337 52.8687 190.337 52.22C190.337 51.548 190.183 51.0113 189.875 50.61C189.571 50.2087 189.119 50.008 188.517 50.008C188.101 50.008 187.761 50.1013 187.495 50.288C187.229 50.4747 187.03 50.7337 186.9 51.065C186.774 51.3963 186.711 51.7813 186.711 52.22C186.711 52.8967 186.862 53.4357 187.166 53.837C187.474 54.2337 187.924 54.432 188.517 54.432ZM199.044 56V52.43C199.044 52.2573 199.035 52.038 199.016 51.772C198.997 51.5013 198.939 51.2307 198.841 50.96C198.743 50.6893 198.582 50.463 198.358 50.281C198.139 50.099 197.826 50.008 197.42 50.008C197.257 50.008 197.082 50.0337 196.895 50.085C196.708 50.1363 196.533 50.2367 196.37 50.386C196.207 50.5307 196.071 50.7453 195.964 51.03C195.861 51.3147 195.81 51.6927 195.81 52.164L194.718 51.646C194.718 51.0487 194.839 50.4887 195.082 49.966C195.325 49.4433 195.689 49.021 196.174 48.699C196.664 48.377 197.28 48.216 198.022 48.216C198.615 48.216 199.098 48.3163 199.471 48.517C199.844 48.7177 200.134 48.972 200.339 49.28C200.549 49.588 200.698 49.91 200.787 50.246C200.876 50.5773 200.929 50.8807 200.948 51.156C200.967 51.4313 200.976 51.632 200.976 51.758V56H199.044ZM193.878 56V48.44H195.572V50.946H195.81V56H193.878ZM206.307 58.716C205.765 58.0813 205.301 57.3603 204.914 56.553C204.531 55.7457 204.239 54.901 204.039 54.019C203.843 53.1323 203.754 52.2527 203.773 51.38C203.754 50.5073 203.843 49.6277 204.039 48.741C204.239 47.8543 204.531 47.0097 204.914 46.207C205.301 45.3997 205.765 44.6787 206.307 44.044L207.721 45.08C207.151 45.766 206.706 46.452 206.384 47.138C206.062 47.8193 205.833 48.5123 205.698 49.217C205.567 49.917 205.499 50.638 205.495 51.38C205.499 52.122 205.567 52.8453 205.698 53.55C205.833 54.25 206.062 54.943 206.384 55.629C206.706 56.3103 207.151 56.994 207.721 57.68L206.307 58.716ZM247.96 58.716L246.546 57.68C247.116 56.994 247.561 56.3103 247.883 55.629C248.205 54.943 248.432 54.25 248.562 53.55C248.698 52.8453 248.768 52.122 248.772 51.38C248.768 50.638 248.698 49.917 248.562 49.217C248.432 48.5123 248.205 47.8193 247.883 47.138C247.561 46.452 247.116 45.766 246.546 45.08L247.96 44.044C248.502 44.6787 248.964 45.3997 249.346 46.207C249.734 47.0097 250.025 47.8543 250.221 48.741C250.422 49.6277 250.513 50.5073 250.494 51.38C250.513 52.2527 250.422 53.1323 250.221 54.019C250.025 54.901 249.734 55.7457 249.346 56.553C248.964 57.3603 248.502 58.0813 247.96 58.716ZM260.128 58.94C259.484 58.94 258.98 58.758 258.616 58.394C258.252 58.03 258.07 57.526 258.07 56.882V52.794C258.07 52.7053 258.047 52.6307 258 52.57L257.37 51.674C257.267 51.52 257.216 51.352 257.216 51.17C257.216 50.988 257.267 50.82 257.37 50.666L258 49.77C258.047 49.6907 258.07 49.616 258.07 49.546V45.458C258.07 44.8187 258.252 44.317 258.616 43.953C258.98 43.5843 259.484 43.4 260.128 43.4H261.122V45.192H260.268C260.156 45.192 260.06 45.2317 259.981 45.311C259.902 45.3903 259.862 45.486 259.862 45.598V49.546C259.862 50.0033 259.727 50.4233 259.456 50.806L259.19 51.17L259.456 51.534C259.727 51.9167 259.862 52.3367 259.862 52.794V56.742C259.862 56.8587 259.902 56.9567 259.981 57.036C260.06 57.12 260.156 57.162 260.268 57.162H261.122V58.94H260.128ZM62.0229 79.21C61.2389 79.21 60.5669 79.035 60.0069 78.685C59.4469 78.335 59.0176 77.859 58.7189 77.257C58.4203 76.655 58.2709 75.976 58.2709 75.22C58.2709 74.4547 58.4249 73.771 58.7329 73.169C59.0456 72.567 59.4843 72.0933 60.0489 71.748C60.6136 71.4027 61.2809 71.23 62.0509 71.23C62.9423 71.23 63.6889 71.4563 64.2909 71.909C64.8976 72.357 65.2849 72.9707 65.4529 73.75L63.5489 74.254C63.4369 73.862 63.2409 73.5563 62.9609 73.337C62.6856 73.1177 62.3729 73.008 62.0229 73.008C61.6216 73.008 61.2926 73.106 61.0359 73.302C60.7793 73.4933 60.5903 73.757 60.4689 74.093C60.3476 74.4243 60.2869 74.8 60.2869 75.22C60.2869 75.878 60.4316 76.4123 60.7209 76.823C61.0149 77.229 61.4489 77.432 62.0229 77.432C62.4523 77.432 62.7789 77.334 63.0029 77.138C63.2269 76.942 63.3949 76.662 63.5069 76.298L65.4529 76.704C65.2383 77.5067 64.8323 78.125 64.2349 78.559C63.6376 78.993 62.9003 79.21 62.0229 79.21ZM70.05 79.21C69.2893 79.21 68.622 79.0397 68.048 78.699C67.474 78.3583 67.026 77.8893 66.704 77.292C66.3866 76.69 66.228 75.9993 66.228 75.22C66.228 74.4313 66.3913 73.7383 66.718 73.141C67.0446 72.539 67.495 72.07 68.069 71.734C68.643 71.398 69.3033 71.23 70.05 71.23C70.8106 71.23 71.478 71.4003 72.052 71.741C72.6306 72.0817 73.081 72.553 73.403 73.155C73.725 73.7523 73.886 74.4407 73.886 75.22C73.886 76.004 73.7226 76.697 73.396 77.299C73.074 77.8963 72.6236 78.3653 72.045 78.706C71.471 79.042 70.806 79.21 70.05 79.21ZM70.05 77.432C70.6613 77.432 71.1163 77.2267 71.415 76.816C71.7183 76.4007 71.87 75.8687 71.87 75.22C71.87 74.548 71.716 74.0113 71.408 73.61C71.1046 73.2087 70.652 73.008 70.05 73.008C69.6346 73.008 69.294 73.1013 69.028 73.288C68.762 73.4747 68.5636 73.7337 68.433 74.065C68.307 74.3963 68.244 74.7813 68.244 75.22C68.244 75.8967 68.3956 76.4357 68.699 76.837C69.007 77.2337 69.4573 77.432 70.05 77.432ZM80.5773 79V75.43C80.5773 75.2573 80.568 75.038 80.5493 74.772C80.5306 74.5013 80.4723 74.2307 80.3743 73.96C80.2763 73.6893 80.1153 73.463 79.8913 73.281C79.672 73.099 79.3593 73.008 78.9533 73.008C78.79 73.008 78.615 73.0337 78.4283 73.085C78.2416 73.1363 78.0666 73.2367 77.9033 73.386C77.74 73.5307 77.6046 73.7453 77.4973 74.03C77.3946 74.3147 77.3433 74.6927 77.3433 75.164L76.2513 74.646C76.2513 74.0487 76.3726 73.4887 76.6153 72.966C76.858 72.4433 77.222 72.021 77.7073 71.699C78.1973 71.377 78.8133 71.216 79.5553 71.216C80.148 71.216 80.631 71.3163 81.0043 71.517C81.3776 71.7177 81.667 71.972 81.8723 72.28C82.0823 72.588 82.2316 72.91 82.3203 73.246C82.409 73.5773 82.4626 73.8807 82.4813 74.156C82.5 74.4313 82.5093 74.632 82.5093 74.758V79H80.5773ZM75.4113 79V71.44H77.1053V73.946H77.3433V79H75.4113ZM87.2797 79.21C86.3277 79.21 85.5577 78.9953 84.9697 78.566C84.3864 78.132 84.0317 77.5207 83.9057 76.732L85.8517 76.438C85.931 76.7927 86.106 77.0703 86.3767 77.271C86.652 77.4717 86.9997 77.572 87.4197 77.572C87.765 77.572 88.031 77.5067 88.2177 77.376C88.4044 77.2407 88.4977 77.054 88.4977 76.816C88.4977 76.6667 88.4604 76.5477 88.3857 76.459C88.311 76.3657 88.143 76.2747 87.8817 76.186C87.625 76.0973 87.2237 75.9807 86.6777 75.836C86.0617 75.6773 85.5694 75.5 85.2007 75.304C84.832 75.108 84.566 74.8747 84.4027 74.604C84.2394 74.3287 84.1577 73.9973 84.1577 73.61C84.1577 73.1247 84.2814 72.7047 84.5287 72.35C84.776 71.9907 85.1237 71.7153 85.5717 71.524C86.0244 71.328 86.5564 71.23 87.1677 71.23C87.7604 71.23 88.2854 71.321 88.7427 71.503C89.2 71.685 89.5687 71.944 89.8487 72.28C90.1334 72.616 90.3084 73.0127 90.3737 73.47L88.4277 73.82C88.395 73.54 88.2737 73.3183 88.0637 73.155C87.8537 72.9917 87.569 72.896 87.2097 72.868C86.8597 72.8447 86.5774 72.8913 86.3627 73.008C86.1527 73.1247 86.0477 73.2927 86.0477 73.512C86.0477 73.6427 86.092 73.7523 86.1807 73.841C86.274 73.9297 86.463 74.0207 86.7477 74.114C87.037 74.2073 87.4757 74.3287 88.0637 74.478C88.6377 74.6273 89.0974 74.8023 89.4427 75.003C89.7927 75.199 90.047 75.437 90.2057 75.717C90.3644 75.9923 90.4437 76.326 90.4437 76.718C90.4437 77.4927 90.1637 78.1017 89.6037 78.545C89.0437 78.9883 88.269 79.21 87.2797 79.21ZM95.384 79.21C94.6233 79.21 93.956 79.0397 93.382 78.699C92.808 78.3583 92.36 77.8893 92.038 77.292C91.7206 76.69 91.562 75.9993 91.562 75.22C91.562 74.4313 91.7253 73.7383 92.052 73.141C92.3786 72.539 92.829 72.07 93.403 71.734C93.977 71.398 94.6373 71.23 95.384 71.23C96.1446 71.23 96.812 71.4003 97.386 71.741C97.9646 72.0817 98.415 72.553 98.737 73.155C99.059 73.7523 99.22 74.4407 99.22 75.22C99.22 76.004 99.0566 76.697 98.73 77.299C98.408 77.8963 97.9576 78.3653 97.379 78.706C96.805 79.042 96.14 79.21 95.384 79.21ZM95.384 77.432C95.9953 77.432 96.4503 77.2267 96.749 76.816C97.0523 76.4007 97.204 75.8687 97.204 75.22C97.204 74.548 97.05 74.0113 96.742 73.61C96.4386 73.2087 95.986 73.008 95.384 73.008C94.9686 73.008 94.628 73.1013 94.362 73.288C94.096 73.4747 93.8976 73.7337 93.767 74.065C93.641 74.3963 93.578 74.7813 93.578 75.22C93.578 75.8967 93.7296 76.4357 94.033 76.837C94.341 77.2337 94.7913 77.432 95.384 77.432ZM100.899 79V68.71H102.803V79H100.899ZM108.416 79.21C107.641 79.21 106.958 79.0443 106.365 78.713C105.777 78.377 105.315 77.9173 104.979 77.334C104.648 76.746 104.482 76.074 104.482 75.318C104.482 74.492 104.645 73.7733 104.972 73.162C105.299 72.5507 105.749 72.077 106.323 71.741C106.897 71.4003 107.557 71.23 108.304 71.23C109.097 71.23 109.772 71.4167 110.327 71.79C110.882 72.1633 111.293 72.6883 111.559 73.365C111.825 74.0417 111.918 74.8373 111.839 75.752H109.956V75.052C109.956 74.282 109.832 73.729 109.585 73.393C109.342 73.0523 108.943 72.882 108.388 72.882C107.739 72.882 107.261 73.0803 106.953 73.477C106.65 73.869 106.498 74.45 106.498 75.22C106.498 75.9247 106.65 76.4707 106.953 76.858C107.261 77.2407 107.711 77.432 108.304 77.432C108.677 77.432 108.997 77.3503 109.263 77.187C109.529 77.0237 109.732 76.788 109.872 76.48L111.776 77.026C111.491 77.7167 111.041 78.2533 110.425 78.636C109.814 79.0187 109.144 79.21 108.416 79.21ZM105.91 75.752V74.338H110.922V75.752H105.91ZM113.454 79V77.096H115.358V79H113.454ZM117.77 79V68.71H119.674V79H117.77ZM125.175 79.21C124.414 79.21 123.747 79.0397 123.173 78.699C122.599 78.3583 122.151 77.8893 121.829 77.292C121.512 76.69 121.353 75.9993 121.353 75.22C121.353 74.4313 121.516 73.7383 121.843 73.141C122.17 72.539 122.62 72.07 123.194 71.734C123.768 71.398 124.428 71.23 125.175 71.23C125.936 71.23 126.603 71.4003 127.177 71.741C127.756 72.0817 128.206 72.553 128.528 73.155C128.85 73.7523 129.011 74.4407 129.011 75.22C129.011 76.004 128.848 76.697 128.521 77.299C128.199 77.8963 127.749 78.3653 127.17 78.706C126.596 79.042 125.931 79.21 125.175 79.21ZM125.175 77.432C125.786 77.432 126.241 77.2267 126.54 76.816C126.843 76.4007 126.995 75.8687 126.995 75.22C126.995 74.548 126.841 74.0113 126.533 73.61C126.23 73.2087 125.777 73.008 125.175 73.008C124.76 73.008 124.419 73.1013 124.153 73.288C123.887 73.4747 123.689 73.7337 123.558 74.065C123.432 74.3963 123.369 74.7813 123.369 75.22C123.369 75.8967 123.521 76.4357 123.824 76.837C124.132 77.2337 124.582 77.432 125.175 77.432ZM133.784 82.57C133.355 82.57 132.947 82.5 132.559 82.36C132.172 82.2247 131.824 82.0333 131.516 81.786C131.213 81.5433 130.966 81.2587 130.774 80.932L132.538 80.078C132.66 80.302 132.832 80.4723 133.056 80.589C133.285 80.7057 133.532 80.764 133.798 80.764C134.083 80.764 134.351 80.715 134.603 80.617C134.855 80.5237 135.056 80.3813 135.205 80.19C135.359 80.0033 135.432 79.77 135.422 79.49V77.292H135.66V71.44H137.326V79.518C137.326 79.7047 137.317 79.8797 137.298 80.043C137.284 80.211 137.256 80.3767 137.214 80.54C137.093 81.002 136.867 81.3823 136.535 81.681C136.209 81.9797 135.807 82.2013 135.331 82.346C134.855 82.4953 134.34 82.57 133.784 82.57ZM133.616 79.21C132.921 79.21 132.312 79.035 131.789 78.685C131.267 78.335 130.858 77.859 130.564 77.257C130.275 76.655 130.13 75.976 130.13 75.22C130.13 74.45 130.277 73.7663 130.571 73.169C130.87 72.567 131.288 72.0933 131.824 71.748C132.361 71.4027 132.991 71.23 133.714 71.23C134.433 71.23 135.037 71.405 135.527 71.755C136.017 72.105 136.388 72.581 136.64 73.183C136.892 73.785 137.018 74.464 137.018 75.22C137.018 75.976 136.89 76.655 136.633 77.257C136.381 77.859 136.003 78.335 135.499 78.685C134.995 79.035 134.368 79.21 133.616 79.21ZM133.924 77.516C134.349 77.516 134.687 77.4203 134.939 77.229C135.196 77.0377 135.38 76.7693 135.492 76.424C135.604 76.0787 135.66 75.6773 135.66 75.22C135.66 74.7627 135.604 74.3613 135.492 74.016C135.38 73.6707 135.201 73.4023 134.953 73.211C134.711 73.0197 134.391 72.924 133.994 72.924C133.57 72.924 133.22 73.029 132.944 73.239C132.674 73.4443 132.473 73.722 132.342 74.072C132.212 74.4173 132.146 74.8 132.146 75.22C132.146 75.6447 132.209 76.032 132.335 76.382C132.461 76.7273 132.655 77.0027 132.916 77.208C133.178 77.4133 133.514 77.516 133.924 77.516ZM142.801 81.716C142.259 81.0813 141.795 80.3603 141.408 79.553C141.025 78.7457 140.733 77.901 140.533 77.019C140.337 76.1323 140.248 75.2527 140.267 74.38C140.248 73.5073 140.337 72.6277 140.533 71.741C140.733 70.8543 141.025 70.0097 141.408 69.207C141.795 68.3997 142.259 67.6787 142.801 67.044L144.215 68.08C143.645 68.766 143.2 69.452 142.878 70.138C142.556 70.8193 142.327 71.5123 142.192 72.217C142.061 72.917 141.993 73.638 141.989 74.38C141.993 75.122 142.061 75.8453 142.192 76.55C142.327 77.25 142.556 77.943 142.878 78.629C143.2 79.3103 143.645 79.994 144.215 80.68L142.801 81.716ZM145.613 71.44V68.92H147.517V71.44H145.613ZM148.357 71.44V68.92H150.261V71.44H148.357ZM152.644 79V68.92H154.548V73.064H159.056V68.92H160.96V79H159.056V74.842H154.548V79H152.644ZM166.439 79.21C165.665 79.21 164.981 79.0443 164.388 78.713C163.8 78.377 163.338 77.9173 163.002 77.334C162.671 76.746 162.505 76.074 162.505 75.318C162.505 74.492 162.669 73.7733 162.995 73.162C163.322 72.5507 163.772 72.077 164.346 71.741C164.92 71.4003 165.581 71.23 166.327 71.23C167.121 71.23 167.795 71.4167 168.35 71.79C168.906 72.1633 169.316 72.6883 169.582 73.365C169.848 74.0417 169.942 74.8373 169.862 75.752H167.979V75.052C167.979 74.282 167.856 73.729 167.608 73.393C167.366 73.0523 166.967 72.882 166.411 72.882C165.763 72.882 165.284 73.0803 164.976 73.477C164.673 73.869 164.521 74.45 164.521 75.22C164.521 75.9247 164.673 76.4707 164.976 76.858C165.284 77.2407 165.735 77.432 166.327 77.432C166.701 77.432 167.02 77.3503 167.286 77.187C167.552 77.0237 167.755 76.788 167.895 76.48L169.799 77.026C169.515 77.7167 169.064 78.2533 168.448 78.636C167.837 79.0187 167.167 79.21 166.439 79.21ZM163.933 75.752V74.338H168.945V75.752H163.933ZM171.583 79V68.71H173.487V79H171.583ZM175.725 79V68.71H177.629V79H175.725ZM183.13 79.21C182.369 79.21 181.702 79.0397 181.128 78.699C180.554 78.3583 180.106 77.8893 179.784 77.292C179.467 76.69 179.308 75.9993 179.308 75.22C179.308 74.4313 179.471 73.7383 179.798 73.141C180.125 72.539 180.575 72.07 181.149 71.734C181.723 71.398 182.383 71.23 183.13 71.23C183.891 71.23 184.558 71.4003 185.132 71.741C185.711 72.0817 186.161 72.553 186.483 73.155C186.805 73.7523 186.966 74.4407 186.966 75.22C186.966 76.004 186.803 76.697 186.476 77.299C186.154 77.8963 185.704 78.3653 185.125 78.706C184.551 79.042 183.886 79.21 183.13 79.21ZM183.13 77.432C183.741 77.432 184.196 77.2267 184.495 76.816C184.798 76.4007 184.95 75.8687 184.95 75.22C184.95 74.548 184.796 74.0113 184.488 73.61C184.185 73.2087 183.732 73.008 183.13 73.008C182.715 73.008 182.374 73.1013 182.108 73.288C181.842 73.4747 181.644 73.7337 181.513 74.065C181.387 74.3963 181.324 74.7813 181.324 75.22C181.324 75.8967 181.476 76.4357 181.779 76.837C182.087 77.2337 182.537 77.432 183.13 77.432ZM188.092 80.89L188.204 80.092C188.428 80.1107 188.61 80.0733 188.75 79.98C188.89 79.8913 188.986 79.7607 189.037 79.588C189.093 79.42 189.105 79.224 189.072 79H188.092V77.096H189.996V79C189.996 79.672 189.84 80.1807 189.527 80.526C189.214 80.8713 188.736 80.9927 188.092 80.89ZM195.324 71.44V68.92H197.228V71.44H195.324ZM198.068 71.44V68.92H199.972V71.44H198.068ZM207.44 77.11V74.688H205.018V73.218H207.44V70.81H208.91V73.218H211.318V74.688H208.91V77.11H207.44ZM259.297 77.11V74.688H256.875V73.218H259.297V70.81H260.767V73.218H263.175V74.688H260.767V77.11H259.297ZM267.662 71.44V68.92H269.566V71.44H267.662ZM270.406 71.44V68.92H272.31V71.44H270.406ZM275.393 79V77.32H277.297V79H275.393ZM275.393 76.48V68.92H277.297V76.48H275.393ZM279.817 71.44V68.92H281.721V71.44H279.817ZM282.561 71.44V68.92H284.465V71.44H282.561ZM287.841 81.716L286.427 80.68C286.997 79.994 287.442 79.3103 287.764 78.629C288.086 77.943 288.313 77.25 288.443 76.55C288.579 75.8453 288.649 75.122 288.653 74.38C288.649 73.638 288.579 72.917 288.443 72.217C288.313 71.5123 288.086 70.8193 287.764 70.138C287.442 69.452 286.997 68.766 286.427 68.08L287.841 67.044C288.383 67.6787 288.845 68.3997 289.227 69.207C289.615 70.0097 289.906 70.8543 290.102 71.741C290.303 72.6277 290.394 73.5073 290.375 74.38C290.394 75.2527 290.303 76.1323 290.102 77.019C289.906 77.901 289.615 78.7457 289.227 79.553C288.845 80.3603 288.383 81.0813 287.841 81.716ZM293.874 80.89L293.986 80.092C294.21 80.1107 294.392 80.0733 294.532 79.98C294.672 79.8913 294.768 79.7607 294.819 79.588C294.875 79.42 294.887 79.224 294.854 79H293.874V77.096H295.778V79C295.778 79.672 295.622 80.1807 295.309 80.526C294.996 80.8713 294.518 80.9927 293.874 80.89ZM293.874 73.344V71.44H295.778V73.344H293.874ZM48.054 104.94H47.06V103.162H47.914C48.026 103.162 48.1217 103.12 48.201 103.036C48.2803 102.957 48.32 102.859 48.32 102.742V98.794C48.32 98.3367 48.4553 97.9167 48.726 97.534L48.992 97.17L48.726 96.806C48.4553 96.4233 48.32 96.0033 48.32 95.546V91.598C48.32 91.486 48.2803 91.3903 48.201 91.311C48.1217 91.2317 48.026 91.192 47.914 91.192H47.06V89.4H48.054C48.698 89.4 49.202 89.5843 49.566 89.953C49.93 90.317 50.112 90.8187 50.112 91.458V95.546C50.112 95.616 50.1353 95.6907 50.182 95.77L50.812 96.666C50.9193 96.82 50.973 96.988 50.973 97.17C50.973 97.352 50.9193 97.52 50.812 97.674L50.182 98.57C50.1353 98.6307 50.112 98.7053 50.112 98.794V102.882C50.112 103.526 49.93 104.03 49.566 104.394C49.202 104.758 48.698 104.94 48.054 104.94ZM54.4658 103.89L54.5778 103.092C54.8018 103.111 54.9838 103.073 55.1238 102.98C55.2638 102.891 55.3594 102.761 55.4108 102.588C55.4668 102.42 55.4784 102.224 55.4458 102H54.4658V100.096H56.3698V102C56.3698 102.672 56.2134 103.181 55.9008 103.526C55.5881 103.871 55.1098 103.993 54.4658 103.89ZM54.4658 96.344V94.44H56.3698V96.344H54.4658Z" fill="white"/>
<path d="M93.0285 59.57C92.5991 59.57 92.1908 59.5 91.8035 59.36C91.4161 59.2247 91.0685 59.0333 90.7605 58.786C90.4571 58.5433 90.2098 58.2587 90.0185 57.932L91.7825 57.078C91.9038 57.302 92.0765 57.4723 92.3005 57.589C92.5291 57.7057 92.7765 57.764 93.0425 57.764C93.3271 57.764 93.5955 57.715 93.8475 57.617C94.0995 57.5237 94.3001 57.3813 94.4495 57.19C94.6035 57.0033 94.6758 56.77 94.6665 56.49V54.292H94.9045V48.44H96.5705V56.518C96.5705 56.7047 96.5611 56.8797 96.5425 57.043C96.5285 57.211 96.5005 57.3767 96.4585 57.54C96.3371 58.002 96.1108 58.3823 95.7795 58.681C95.4528 58.9797 95.0515 59.2013 94.5755 59.346C94.0995 59.4953 93.5838 59.57 93.0285 59.57ZM92.8605 56.21C92.1651 56.21 91.5561 56.035 91.0335 55.685C90.5108 55.335 90.1025 54.859 89.8085 54.257C89.5191 53.655 89.3745 52.976 89.3745 52.22C89.3745 51.45 89.5215 50.7663 89.8155 50.169C90.1141 49.567 90.5318 49.0933 91.0685 48.748C91.6051 48.4027 92.2351 48.23 92.9585 48.23C93.6771 48.23 94.2815 48.405 94.7715 48.755C95.2615 49.105 95.6325 49.581 95.8845 50.183C96.1365 50.785 96.2625 51.464 96.2625 52.22C96.2625 52.976 96.1341 53.655 95.8775 54.257C95.6255 54.859 95.2475 55.335 94.7435 55.685C94.2395 56.035 93.6118 56.21 92.8605 56.21ZM93.1685 54.516C93.5931 54.516 93.9315 54.4203 94.1835 54.229C94.4401 54.0377 94.6245 53.7693 94.7365 53.424C94.8485 53.0787 94.9045 52.6773 94.9045 52.22C94.9045 51.7627 94.8485 51.3613 94.7365 51.016C94.6245 50.6707 94.4448 50.4023 94.1975 50.211C93.9548 50.0197 93.6351 49.924 93.2385 49.924C92.8138 49.924 92.4638 50.029 92.1885 50.239C91.9178 50.4443 91.7171 50.722 91.5865 51.072C91.4558 51.4173 91.3905 51.8 91.3905 52.22C91.3905 52.6447 91.4535 53.032 91.5795 53.382C91.7055 53.7273 91.8991 54.0027 92.1605 54.208C92.4218 54.4133 92.7578 54.516 93.1685 54.516ZM98.5308 56V48.44H100.211V50.288L100.029 50.05C100.127 49.7887 100.257 49.5507 100.421 49.336C100.584 49.1213 100.785 48.944 101.023 48.804C101.205 48.692 101.403 48.6057 101.618 48.545C101.832 48.4797 102.054 48.44 102.283 48.426C102.511 48.4073 102.74 48.412 102.969 48.44V50.218C102.759 50.1527 102.514 50.1317 102.234 50.155C101.958 50.1737 101.709 50.2367 101.485 50.344C101.261 50.4467 101.072 50.5843 100.918 50.757C100.764 50.925 100.647 51.1257 100.568 51.359C100.488 51.5877 100.449 51.8467 100.449 52.136V56H98.5308ZM107.678 56.21C106.903 56.21 106.219 56.0443 105.627 55.713C105.039 55.377 104.577 54.9173 104.241 54.334C103.909 53.746 103.744 53.074 103.744 52.318C103.744 51.492 103.907 50.7733 104.234 50.162C104.56 49.5507 105.011 49.077 105.585 48.741C106.159 48.4003 106.819 48.23 107.566 48.23C108.359 48.23 109.033 48.4167 109.589 48.79C110.144 49.1633 110.555 49.6883 110.821 50.365C111.087 51.0417 111.18 51.8373 111.101 52.752H109.218V52.052C109.218 51.282 109.094 50.729 108.847 50.393C108.604 50.0523 108.205 49.882 107.65 49.882C107.001 49.882 106.523 50.0803 106.215 50.477C105.911 50.869 105.76 51.45 105.76 52.22C105.76 52.9247 105.911 53.4707 106.215 53.858C106.523 54.2407 106.973 54.432 107.566 54.432C107.939 54.432 108.259 54.3503 108.525 54.187C108.791 54.0237 108.994 53.788 109.134 53.48L111.038 54.026C110.753 54.7167 110.303 55.2533 109.687 55.636C109.075 56.0187 108.406 56.21 107.678 56.21ZM105.172 52.752V51.338H110.184V52.752H105.172ZM116.195 56.21C115.421 56.21 114.737 56.0443 114.144 55.713C113.556 55.377 113.094 54.9173 112.758 54.334C112.427 53.746 112.261 53.074 112.261 52.318C112.261 51.492 112.425 50.7733 112.751 50.162C113.078 49.5507 113.528 49.077 114.102 48.741C114.676 48.4003 115.337 48.23 116.083 48.23C116.877 48.23 117.551 48.4167 118.106 48.79C118.662 49.1633 119.072 49.6883 119.338 50.365C119.604 51.0417 119.698 51.8373 119.618 52.752H117.735V52.052C117.735 51.282 117.612 50.729 117.364 50.393C117.122 50.0523 116.723 49.882 116.167 49.882C115.519 49.882 115.04 50.0803 114.732 50.477C114.429 50.869 114.277 51.45 114.277 52.22C114.277 52.9247 114.429 53.4707 114.732 53.858C115.04 54.2407 115.491 54.432 116.083 54.432C116.457 54.432 116.776 54.3503 117.042 54.187C117.308 54.0237 117.511 53.788 117.651 53.48L119.555 54.026C119.271 54.7167 118.82 55.2533 118.204 55.636C117.593 56.0187 116.923 56.21 116.195 56.21ZM113.689 52.752V51.338H118.701V52.752H113.689ZM125.735 56C125.212 56.098 124.699 56.14 124.195 56.126C123.695 56.1167 123.247 56.0303 122.851 55.867C122.459 55.699 122.16 55.4307 121.955 55.062C121.768 54.7167 121.67 54.3667 121.661 54.012C121.651 53.6527 121.647 53.2467 121.647 52.794V46.34H123.551V52.682C123.551 52.976 123.553 53.242 123.558 53.48C123.567 53.7133 123.616 53.9 123.705 54.04C123.873 54.306 124.141 54.4507 124.51 54.474C124.878 54.4973 125.287 54.4787 125.735 54.418V56ZM120.359 49.91V48.44H125.735V49.91H120.359Z" fill="#FFD966"/>
<path d="M214.411 56V52.43C214.411 52.2573 214.402 52.038 214.383 51.772C214.365 51.5013 214.306 51.2307 214.208 50.96C214.11 50.6893 213.949 50.463 213.725 50.281C213.506 50.099 213.193 50.008 212.787 50.008C212.624 50.008 212.449 50.0337 212.262 50.085C212.076 50.1363 211.901 50.2367 211.737 50.386C211.574 50.5307 211.439 50.7453 211.331 51.03C211.229 51.3147 211.177 51.6927 211.177 52.164L210.085 51.646C210.085 51.0487 210.207 50.4887 210.449 49.966C210.692 49.4433 211.056 49.021 211.541 48.699C212.031 48.377 212.647 48.216 213.389 48.216C213.982 48.216 214.465 48.3163 214.838 48.517C215.212 48.7177 215.501 48.972 215.706 49.28C215.916 49.588 216.066 49.91 216.154 50.246C216.243 50.5773 216.297 50.8807 216.315 51.156C216.334 51.4313 216.343 51.632 216.343 51.758V56H214.411ZM209.245 56V48.44H210.939V50.946H211.177V56H209.245ZM220.26 56.21C219.718 56.21 219.259 56.1073 218.881 55.902C218.507 55.692 218.223 55.4143 218.027 55.069C217.835 54.719 217.74 54.334 217.74 53.914C217.74 53.564 217.793 53.2443 217.901 52.955C218.008 52.6657 218.181 52.4113 218.419 52.192C218.661 51.968 218.986 51.7813 219.392 51.632C219.672 51.5293 220.005 51.4383 220.393 51.359C220.78 51.2797 221.219 51.205 221.709 51.135C222.199 51.0603 222.738 50.9787 223.326 50.89L222.64 51.268C222.64 50.82 222.532 50.491 222.318 50.281C222.103 50.071 221.744 49.966 221.24 49.966C220.96 49.966 220.668 50.0337 220.365 50.169C220.061 50.3043 219.849 50.5447 219.728 50.89L218.006 50.344C218.197 49.7187 218.556 49.21 219.084 48.818C219.611 48.426 220.33 48.23 221.24 48.23C221.907 48.23 222.5 48.3327 223.018 48.538C223.536 48.7433 223.928 49.098 224.194 49.602C224.343 49.882 224.432 50.162 224.46 50.442C224.488 50.722 224.502 51.0347 224.502 51.38V56H222.836V54.446L223.074 54.768C222.705 55.2767 222.306 55.6453 221.877 55.874C221.452 56.098 220.913 56.21 220.26 56.21ZM220.666 54.712C221.016 54.712 221.31 54.6513 221.548 54.53C221.79 54.404 221.982 54.2617 222.122 54.103C222.266 53.9443 222.364 53.8113 222.416 53.704C222.514 53.4987 222.57 53.2607 222.584 52.99C222.602 52.7147 222.612 52.486 222.612 52.304L223.172 52.444C222.607 52.5373 222.15 52.6167 221.8 52.682C221.45 52.7427 221.167 52.7987 220.953 52.85C220.738 52.9013 220.549 52.9573 220.386 53.018C220.199 53.0927 220.047 53.1743 219.931 53.263C219.819 53.347 219.735 53.4403 219.679 53.543C219.627 53.6457 219.602 53.76 219.602 53.886C219.602 54.0587 219.644 54.208 219.728 54.334C219.816 54.4553 219.94 54.5487 220.099 54.614C220.257 54.6793 220.446 54.712 220.666 54.712ZM235.422 56V51.534C235.422 51.0347 235.303 50.6473 235.065 50.372C234.831 50.092 234.507 49.952 234.092 49.952C233.826 49.952 233.595 50.015 233.399 50.141C233.203 50.2623 233.049 50.435 232.937 50.659C232.829 50.8783 232.776 51.1327 232.776 51.422L231.978 50.89C231.978 50.372 232.099 49.9147 232.342 49.518C232.589 49.1213 232.918 48.8133 233.329 48.594C233.744 48.37 234.204 48.258 234.708 48.258C235.571 48.258 236.222 48.5147 236.661 49.028C237.104 49.5367 237.326 50.204 237.326 51.03V56H235.422ZM226.308 56V48.44H227.988V50.946H228.226V56H226.308ZM230.872 56V51.534C230.872 51.0347 230.753 50.6473 230.515 50.372C230.281 50.092 229.957 49.952 229.542 49.952C229.145 49.952 228.825 50.0897 228.583 50.365C228.345 50.6357 228.226 50.988 228.226 51.422L227.428 50.862C227.428 50.3673 227.551 49.924 227.799 49.532C228.046 49.14 228.377 48.8297 228.793 48.601C229.213 48.3723 229.682 48.258 230.2 48.258C230.792 48.258 231.278 48.384 231.656 48.636C232.038 48.888 232.321 49.224 232.503 49.644C232.685 50.064 232.776 50.526 232.776 51.03V56H230.872ZM242.523 56.21C241.749 56.21 241.065 56.0443 240.472 55.713C239.884 55.377 239.422 54.9173 239.086 54.334C238.755 53.746 238.589 53.074 238.589 52.318C238.589 51.492 238.753 50.7733 239.079 50.162C239.406 49.5507 239.856 49.077 240.43 48.741C241.004 48.4003 241.665 48.23 242.411 48.23C243.205 48.23 243.879 48.4167 244.434 48.79C244.99 49.1633 245.4 49.6883 245.666 50.365C245.932 51.0417 246.026 51.8373 245.946 52.752H244.063V52.052C244.063 51.282 243.94 50.729 243.692 50.393C243.45 50.0523 243.051 49.882 242.495 49.882C241.847 49.882 241.368 50.0803 241.06 50.477C240.757 50.869 240.605 51.45 240.605 52.22C240.605 52.9247 240.757 53.4707 241.06 53.858C241.368 54.2407 241.819 54.432 242.411 54.432C242.785 54.432 243.104 54.3503 243.37 54.187C243.636 54.0237 243.839 53.788 243.979 53.48L245.883 54.026C245.599 54.7167 245.148 55.2533 244.532 55.636C243.921 56.0187 243.251 56.21 242.523 56.21ZM240.017 52.752V51.338H245.029V52.752H240.017ZM221.097 79V75.43C221.097 75.2573 221.088 75.038 221.069 74.772C221.05 74.5013 220.992 74.2307 220.894 73.96C220.796 73.6893 220.635 73.463 220.411 73.281C220.192 73.099 219.879 73.008 219.473 73.008C219.31 73.008 219.135 73.0337 218.948 73.085C218.761 73.1363 218.586 73.2367 218.423 73.386C218.26 73.5307 218.124 73.7453 218.017 74.03C217.914 74.3147 217.863 74.6927 217.863 75.164L216.771 74.646C216.771 74.0487 216.892 73.4887 217.135 72.966C217.378 72.4433 217.742 72.021 218.227 71.699C218.717 71.377 219.333 71.216 220.075 71.216C220.668 71.216 221.151 71.3163 221.524 71.517C221.897 71.7177 222.187 71.972 222.392 72.28C222.602 72.588 222.751 72.91 222.84 73.246C222.929 73.5773 222.982 73.8807 223.001 74.156C223.02 74.4313 223.029 74.632 223.029 74.758V79H221.097ZM215.931 79V71.44H217.625V73.946H217.863V79H215.931ZM226.945 79.21C226.404 79.21 225.944 79.1073 225.566 78.902C225.193 78.692 224.908 78.4143 224.712 78.069C224.521 77.719 224.425 77.334 224.425 76.914C224.425 76.564 224.479 76.2443 224.586 75.955C224.694 75.6657 224.866 75.4113 225.104 75.192C225.347 74.968 225.671 74.7813 226.077 74.632C226.357 74.5293 226.691 74.4383 227.078 74.359C227.466 74.2797 227.904 74.205 228.394 74.135C228.884 74.0603 229.423 73.9787 230.011 73.89L229.325 74.268C229.325 73.82 229.218 73.491 229.003 73.281C228.789 73.071 228.429 72.966 227.925 72.966C227.645 72.966 227.354 73.0337 227.05 73.169C226.747 73.3043 226.535 73.5447 226.413 73.89L224.691 73.344C224.883 72.7187 225.242 72.21 225.769 71.818C226.297 71.426 227.015 71.23 227.925 71.23C228.593 71.23 229.185 71.3327 229.703 71.538C230.221 71.7433 230.613 72.098 230.879 72.602C231.029 72.882 231.117 73.162 231.145 73.442C231.173 73.722 231.187 74.0347 231.187 74.38V79H229.521V77.446L229.759 77.768C229.391 78.2767 228.992 78.6453 228.562 78.874C228.138 79.098 227.599 79.21 226.945 79.21ZM227.351 77.712C227.701 77.712 227.995 77.6513 228.233 77.53C228.476 77.404 228.667 77.2617 228.807 77.103C228.952 76.9443 229.05 76.8113 229.101 76.704C229.199 76.4987 229.255 76.2607 229.269 75.99C229.288 75.7147 229.297 75.486 229.297 75.304L229.857 75.444C229.293 75.5373 228.835 75.6167 228.485 75.682C228.135 75.7427 227.853 75.7987 227.638 75.85C227.424 75.9013 227.235 75.9573 227.071 76.018C226.885 76.0927 226.733 76.1743 226.616 76.263C226.504 76.347 226.42 76.4403 226.364 76.543C226.313 76.6457 226.287 76.76 226.287 76.886C226.287 77.0587 226.329 77.208 226.413 77.334C226.502 77.4553 226.626 77.5487 226.784 77.614C226.943 77.6793 227.132 77.712 227.351 77.712ZM242.107 79V74.534C242.107 74.0347 241.988 73.6473 241.75 73.372C241.517 73.092 241.193 72.952 240.777 72.952C240.511 72.952 240.28 73.015 240.084 73.141C239.888 73.2623 239.734 73.435 239.622 73.659C239.515 73.8783 239.461 74.1327 239.461 74.422L238.663 73.89C238.663 73.372 238.785 72.9147 239.027 72.518C239.275 72.1213 239.604 71.8133 240.014 71.594C240.43 71.37 240.889 71.258 241.393 71.258C242.257 71.258 242.908 71.5147 243.346 72.028C243.79 72.5367 244.011 73.204 244.011 74.03V79H242.107ZM232.993 79V71.44H234.673V73.946H234.911V79H232.993ZM237.557 79V74.534C237.557 74.0347 237.438 73.6473 237.2 73.372C236.967 73.092 236.643 72.952 236.227 72.952C235.831 72.952 235.511 73.0897 235.268 73.365C235.03 73.6357 234.911 73.988 234.911 74.422L234.113 73.862C234.113 73.3673 234.237 72.924 234.484 72.532C234.732 72.14 235.063 71.8297 235.478 71.601C235.898 71.3723 236.367 71.258 236.885 71.258C237.478 71.258 237.963 71.384 238.341 71.636C238.724 71.888 239.006 72.224 239.188 72.644C239.37 73.064 239.461 73.526 239.461 74.03V79H237.557ZM249.209 79.21C248.434 79.21 247.751 79.0443 247.158 78.713C246.57 78.377 246.108 77.9173 245.772 77.334C245.441 76.746 245.275 76.074 245.275 75.318C245.275 74.492 245.438 73.7733 245.765 73.162C246.092 72.5507 246.542 72.077 247.116 71.741C247.69 71.4003 248.35 71.23 249.097 71.23C249.89 71.23 250.565 71.4167 251.12 71.79C251.675 72.1633 252.086 72.6883 252.352 73.365C252.618 74.0417 252.711 74.8373 252.632 75.752H250.749V75.052C250.749 74.282 250.625 73.729 250.378 73.393C250.135 73.0523 249.736 72.882 249.181 72.882C248.532 72.882 248.054 73.0803 247.746 73.477C247.443 73.869 247.291 74.45 247.291 75.22C247.291 75.9247 247.443 76.4707 247.746 76.858C248.054 77.2407 248.504 77.432 249.097 77.432C249.47 77.432 249.79 77.3503 250.056 77.187C250.322 77.0237 250.525 76.788 250.665 76.48L252.569 77.026C252.284 77.7167 251.834 78.2533 251.218 78.636C250.607 79.0187 249.937 79.21 249.209 79.21ZM246.703 75.752V74.338H251.715V75.752H246.703Z" fill="#787DF7"/>
<path d="M3.15 17L0.07 6.92H2.03L4.55 15.208L7.112 6.92H9.072L5.992 17H3.15ZM11.5976 17.21C11.0562 17.21 10.5966 17.1073 10.2186 16.902C9.84524 16.692 9.56058 16.4143 9.36458 16.069C9.17324 15.719 9.07758 15.334 9.07758 14.914C9.07758 14.564 9.13124 14.2443 9.23858 13.955C9.34591 13.6657 9.51858 13.4113 9.75658 13.192C9.99924 12.968 10.3236 12.7813 10.7296 12.632C11.0096 12.5293 11.3432 12.4383 11.7306 12.359C12.1179 12.2797 12.5566 12.205 13.0466 12.135C13.5366 12.0603 14.0756 11.9787 14.6636 11.89L13.9776 12.268C13.9776 11.82 13.8702 11.491 13.6556 11.281C13.4409 11.071 13.0816 10.966 12.5776 10.966C12.2976 10.966 12.0059 11.0337 11.7026 11.169C11.3992 11.3043 11.1869 11.5447 11.0656 11.89L9.34358 11.344C9.53491 10.7187 9.89424 10.21 10.4216 9.818C10.9489 9.426 11.6676 9.23 12.5776 9.23C13.2449 9.23 13.8376 9.33267 14.3556 9.538C14.8736 9.74333 15.2656 10.098 15.5316 10.602C15.6809 10.882 15.7696 11.162 15.7976 11.442C15.8256 11.722 15.8396 12.0347 15.8396 12.38V17H14.1736V15.446L14.4116 15.768C14.0429 16.2767 13.6439 16.6453 13.2146 16.874C12.7899 17.098 12.2509 17.21 11.5976 17.21ZM12.0036 15.712C12.3536 15.712 12.6476 15.6513 12.8856 15.53C13.1282 15.404 13.3196 15.2617 13.4596 15.103C13.6042 14.9443 13.7022 14.8113 13.7536 14.704C13.8516 14.4987 13.9076 14.2607 13.9216 13.99C13.9402 13.7147 13.9496 13.486 13.9496 13.304L14.5096 13.444C13.9449 13.5373 13.4876 13.6167 13.1376 13.682C12.7876 13.7427 12.5052 13.7987 12.2906 13.85C12.0759 13.9013 11.8869 13.9573 11.7236 14.018C11.5369 14.0927 11.3852 14.1743 11.2686 14.263C11.1566 14.347 11.0726 14.4403 11.0166 14.543C10.9652 14.6457 10.9396 14.76 10.9396 14.886C10.9396 15.0587 10.9816 15.208 11.0656 15.334C11.1542 15.4553 11.2779 15.5487 11.4366 15.614C11.5952 15.6793 11.7842 15.712 12.0036 15.712ZM17.6597 17V9.44H19.3397V11.288L19.1577 11.05C19.2557 10.7887 19.3864 10.5507 19.5497 10.336C19.713 10.1213 19.9137 9.944 20.1517 9.804C20.3337 9.692 20.532 9.60567 20.7467 9.545C20.9614 9.47967 21.183 9.44 21.4117 9.426C21.6404 9.40733 21.869 9.412 22.0977 9.44V11.218C21.8877 11.1527 21.6427 11.1317 21.3627 11.155C21.0874 11.1737 20.8377 11.2367 20.6137 11.344C20.3897 11.4467 20.2007 11.5843 20.0467 11.757C19.8927 11.925 19.776 12.1257 19.6967 12.359C19.6174 12.5877 19.5777 12.8467 19.5777 13.136V17H17.6597ZM23.5692 8.39V6.71H25.4732V8.39H23.5692ZM23.5692 17V9.44H25.4732V17H23.5692ZM29.6718 17.21C29.1305 17.21 28.6708 17.1073 28.2928 16.902C27.9195 16.692 27.6348 16.4143 27.4388 16.069C27.2475 15.719 27.1518 15.334 27.1518 14.914C27.1518 14.564 27.2055 14.2443 27.3128 13.955C27.4201 13.6657 27.5928 13.4113 27.8308 13.192C28.0735 12.968 28.3978 12.7813 28.8038 12.632C29.0838 12.5293 29.4175 12.4383 29.8048 12.359C30.1921 12.2797 30.6308 12.205 31.1208 12.135C31.6108 12.0603 32.1498 11.9787 32.7378 11.89L32.0518 12.268C32.0518 11.82 31.9445 11.491 31.7298 11.281C31.5151 11.071 31.1558 10.966 30.6518 10.966C30.3718 10.966 30.0801 11.0337 29.7768 11.169C29.4735 11.3043 29.2611 11.5447 29.1398 11.89L27.4178 11.344C27.6091 10.7187 27.9685 10.21 28.4958 9.818C29.0231 9.426 29.7418 9.23 30.6518 9.23C31.3191 9.23 31.9118 9.33267 32.4298 9.538C32.9478 9.74333 33.3398 10.098 33.6058 10.602C33.7551 10.882 33.8438 11.162 33.8718 11.442C33.8998 11.722 33.9138 12.0347 33.9138 12.38V17H32.2478V15.446L32.4858 15.768C32.1171 16.2767 31.7181 16.6453 31.2888 16.874C30.8641 17.098 30.3251 17.21 29.6718 17.21ZM30.0778 15.712C30.4278 15.712 30.7218 15.6513 30.9598 15.53C31.2025 15.404 31.3938 15.2617 31.5338 15.103C31.6785 14.9443 31.7765 14.8113 31.8278 14.704C31.9258 14.4987 31.9818 14.2607 31.9958 13.99C32.0145 13.7147 32.0238 13.486 32.0238 13.304L32.5838 13.444C32.0191 13.5373 31.5618 13.6167 31.2118 13.682C30.8618 13.7427 30.5795 13.7987 30.3648 13.85C30.1501 13.9013 29.9611 13.9573 29.7978 14.018C29.6111 14.0927 29.4595 14.1743 29.3428 14.263C29.2308 14.347 29.1468 14.4403 29.0908 14.543C29.0395 14.6457 29.0138 14.76 29.0138 14.886C29.0138 15.0587 29.0558 15.208 29.1398 15.334C29.2285 15.4553 29.3521 15.5487 29.5108 15.614C29.6695 15.6793 29.8585 15.712 30.0778 15.712ZM39.4439 17.21C38.6926 17.21 38.0649 17.035 37.5609 16.685C37.0569 16.335 36.6766 15.859 36.4199 15.257C36.1679 14.655 36.0419 13.976 36.0419 13.22C36.0419 12.464 36.1679 11.785 36.4199 11.183C36.6719 10.581 37.0429 10.105 37.5329 9.755C38.0229 9.405 38.6272 9.23 39.3459 9.23C40.0692 9.23 40.6992 9.40267 41.2359 9.748C41.7726 10.0933 42.1879 10.567 42.4819 11.169C42.7806 11.7663 42.9299 12.45 42.9299 13.22C42.9299 13.976 42.7829 14.655 42.4889 15.257C42.1996 15.859 41.7936 16.335 41.2709 16.685C40.7482 17.035 40.1392 17.21 39.4439 17.21ZM35.7199 17V6.92H37.6379V11.82H37.3999V17H35.7199ZM39.1359 15.516C39.5466 15.516 39.8826 15.4133 40.1439 15.208C40.4052 15.0027 40.5989 14.7273 40.7249 14.382C40.8509 14.032 40.9139 13.6447 40.9139 13.22C40.9139 12.8 40.8486 12.4173 40.7179 12.072C40.5872 11.722 40.3842 11.4443 40.1089 11.239C39.8382 11.029 39.4906 10.924 39.0659 10.924C38.6692 10.924 38.3472 11.0197 38.0999 11.211C37.8572 11.4023 37.6799 11.6707 37.5679 12.016C37.4559 12.3613 37.3999 12.7627 37.3999 13.22C37.3999 13.6773 37.4559 14.0787 37.5679 14.424C37.6799 14.7693 37.8619 15.0377 38.1139 15.229C38.3706 15.4203 38.7112 15.516 39.1359 15.516ZM44.6102 17V6.71H46.5142V17H44.6102ZM52.1268 17.21C51.3521 17.21 50.6685 17.0443 50.0758 16.713C49.4878 16.377 49.0258 15.9173 48.6898 15.334C48.3585 14.746 48.1928 14.074 48.1928 13.318C48.1928 12.492 48.3561 11.7733 48.6828 11.162C49.0095 10.5507 49.4598 10.077 50.0338 9.741C50.6078 9.40033 51.2681 9.23 52.0148 9.23C52.8081 9.23 53.4825 9.41667 54.0378 9.79C54.5931 10.1633 55.0038 10.6883 55.2698 11.365C55.5358 12.0417 55.6291 12.8373 55.5498 13.752H53.6668V13.052C53.6668 12.282 53.5431 11.729 53.2958 11.393C53.0531 11.0523 52.6541 10.882 52.0988 10.882C51.4501 10.882 50.9718 11.0803 50.6638 11.477C50.3605 11.869 50.2088 12.45 50.2088 13.22C50.2088 13.9247 50.3605 14.4707 50.6638 14.858C50.9718 15.2407 51.4221 15.432 52.0148 15.432C52.3881 15.432 52.7078 15.3503 52.9738 15.187C53.2398 15.0237 53.4428 14.788 53.5828 14.48L55.4868 15.026C55.2021 15.7167 54.7518 16.2533 54.1358 16.636C53.5245 17.0187 52.8548 17.21 52.1268 17.21ZM49.6208 13.752V12.338H54.6328V13.752H49.6208Z" fill="#FFD966"/>
<path d="M105 39C105 39.5523 105.448 40 106 40C106.552 40 107 39.5523 107 39H105ZM64.2929 11.2929C63.9024 11.6834 63.9024 12.3166 64.2929 12.7071L70.6569 19.0711C71.0474 19.4616 71.6805 19.4616 72.0711 19.0711C72.4616 18.6805 72.4616 18.0474 72.0711 17.6569L66.4142 12L72.0711 6.34315C72.4616 5.95262 72.4616 5.31946 72.0711 4.92893C71.6805 4.53841 71.0474 4.53841 70.6569 4.92893L64.2929 11.2929ZM107 39V22H105V39H107ZM96 11H65V13H96V11ZM107 22C107 15.9249 102.075 11 96 11V13C100.971 13 105 17.0294 105 22H107Z" fill="#FFD966"/>
<path d="M269.793 51.2929C269.402 51.6834 269.402 52.3166 269.793 52.7071L276.157 59.0711C276.547 59.4616 277.181 59.4616 277.571 59.0711C277.962 58.6805 277.962 58.0474 277.571 57.6569L271.914 52L277.571 46.3431C277.962 45.9526 277.962 45.3195 277.571 44.9289C277.181 44.5384 276.547 44.5384 276.157 44.9289L269.793 51.2929ZM72.2929 97.7929C71.9024 98.1834 71.9024 98.8166 72.2929 99.2071L78.6569 105.571C79.0474 105.962 79.6805 105.962 80.0711 105.571C80.4616 105.181 80.4616 104.547 80.0711 104.157L74.4142 98.5L80.0711 92.8431C80.4616 92.4526 80.4616 91.8195 80.0711 91.4289C79.6805 91.0384 79.0474 91.0384 78.6569 91.4289L72.2929 97.7929ZM270.5 53H313V51H270.5V53ZM322 62V88.5H324V62H322ZM313 97.5H73V99.5H313V97.5ZM322 88.5C322 93.4706 317.971 97.5 313 97.5V99.5C319.075 99.5 324 94.5751 324 88.5H322ZM313 53C317.971 53 322 57.0294 322 62H324C324 55.9249 319.075 51 313 51V53Z" fill="#787DF7"/>
<path d="M268.293 123.293C267.902 123.683 267.902 124.317 268.293 124.707L274.657 131.071C275.047 131.462 275.681 131.462 276.071 131.071C276.462 130.681 276.462 130.047 276.071 129.657L270.414 124L276.071 118.343C276.462 117.953 276.462 117.319 276.071 116.929C275.681 116.538 275.047 116.538 274.657 116.929L268.293 123.293ZM323 86H344.5V84H323V86ZM353.5 95V114H355.5V95H353.5ZM344.5 123H269V125H344.5V123ZM353.5 114C353.5 118.971 349.471 123 344.5 123V125C350.575 125 355.5 120.075 355.5 114H353.5ZM344.5 86C349.471 86 353.5 90.0294 353.5 95H355.5C355.5 88.9249 350.575 84 344.5 84V86Z" fill="white"/>
<path d="M119.98 128V117.92H126.14V119.824H121.884V122.008H125.3V123.912H121.884V128H119.98ZM130.218 128.224C129.625 128.224 129.142 128.124 128.769 127.923C128.395 127.722 128.104 127.468 127.894 127.16C127.688 126.852 127.541 126.532 127.453 126.201C127.364 125.865 127.31 125.559 127.292 125.284C127.273 125.009 127.264 124.808 127.264 124.682V120.44H129.196V124.01C129.196 124.183 129.205 124.404 129.224 124.675C129.242 124.941 129.301 125.209 129.399 125.48C129.497 125.751 129.655 125.977 129.875 126.159C130.099 126.341 130.414 126.432 130.82 126.432C130.983 126.432 131.158 126.406 131.345 126.355C131.531 126.304 131.706 126.206 131.87 126.061C132.033 125.912 132.166 125.695 132.269 125.41C132.376 125.121 132.43 124.743 132.43 124.276L133.522 124.794C133.522 125.391 133.4 125.951 133.158 126.474C132.915 126.997 132.549 127.419 132.059 127.741C131.573 128.063 130.96 128.224 130.218 128.224ZM132.668 128V125.494H132.43V120.44H134.348V128H132.668ZM141.456 128V124.43C141.456 124.257 141.447 124.038 141.428 123.772C141.41 123.501 141.351 123.231 141.253 122.96C141.155 122.689 140.994 122.463 140.77 122.281C140.551 122.099 140.238 122.008 139.832 122.008C139.669 122.008 139.494 122.034 139.307 122.085C139.121 122.136 138.946 122.237 138.782 122.386C138.619 122.531 138.484 122.745 138.376 123.03C138.274 123.315 138.222 123.693 138.222 124.164L137.13 123.646C137.13 123.049 137.252 122.489 137.494 121.966C137.737 121.443 138.101 121.021 138.586 120.699C139.076 120.377 139.692 120.216 140.434 120.216C141.027 120.216 141.51 120.316 141.883 120.517C142.257 120.718 142.546 120.972 142.751 121.28C142.961 121.588 143.111 121.91 143.199 122.246C143.288 122.577 143.342 122.881 143.36 123.156C143.379 123.431 143.388 123.632 143.388 123.758V128H141.456ZM136.29 128V120.44H137.984V122.946H138.222V128H136.29ZM148.4 128.21C147.616 128.21 146.944 128.035 146.384 127.685C145.824 127.335 145.395 126.859 145.096 126.257C144.797 125.655 144.648 124.976 144.648 124.22C144.648 123.455 144.802 122.771 145.11 122.169C145.423 121.567 145.861 121.093 146.426 120.748C146.991 120.403 147.658 120.23 148.428 120.23C149.319 120.23 150.066 120.456 150.668 120.909C151.275 121.357 151.662 121.971 151.83 122.75L149.926 123.254C149.814 122.862 149.618 122.556 149.338 122.337C149.063 122.118 148.75 122.008 148.4 122.008C147.999 122.008 147.67 122.106 147.413 122.302C147.156 122.493 146.967 122.757 146.846 123.093C146.725 123.424 146.664 123.8 146.664 124.22C146.664 124.878 146.809 125.412 147.098 125.823C147.392 126.229 147.826 126.432 148.4 126.432C148.829 126.432 149.156 126.334 149.38 126.138C149.604 125.942 149.772 125.662 149.884 125.298L151.83 125.704C151.615 126.507 151.209 127.125 150.612 127.559C150.015 127.993 149.277 128.21 148.4 128.21ZM157.766 128C157.243 128.098 156.73 128.14 156.226 128.126C155.727 128.117 155.279 128.03 154.882 127.867C154.49 127.699 154.191 127.431 153.986 127.062C153.799 126.717 153.701 126.367 153.692 126.012C153.683 125.653 153.678 125.247 153.678 124.794V118.34H155.582V124.682C155.582 124.976 155.584 125.242 155.589 125.48C155.598 125.713 155.647 125.9 155.736 126.04C155.904 126.306 156.172 126.451 156.541 126.474C156.91 126.497 157.318 126.479 157.766 126.418V128ZM152.39 121.91V120.44H157.766V121.91H152.39ZM159.591 119.39V117.71H161.495V119.39H159.591ZM159.591 128V120.44H161.495V128H159.591ZM166.995 128.21C166.235 128.21 165.567 128.04 164.993 127.699C164.419 127.358 163.971 126.889 163.649 126.292C163.332 125.69 163.173 124.999 163.173 124.22C163.173 123.431 163.337 122.738 163.663 122.141C163.99 121.539 164.44 121.07 165.014 120.734C165.588 120.398 166.249 120.23 166.995 120.23C167.756 120.23 168.423 120.4 168.997 120.741C169.576 121.082 170.026 121.553 170.348 122.155C170.67 122.752 170.831 123.441 170.831 124.22C170.831 125.004 170.668 125.697 170.341 126.299C170.019 126.896 169.569 127.365 168.99 127.706C168.416 128.042 167.751 128.21 166.995 128.21ZM166.995 126.432C167.607 126.432 168.062 126.227 168.36 125.816C168.664 125.401 168.815 124.869 168.815 124.22C168.815 123.548 168.661 123.011 168.353 122.61C168.05 122.209 167.597 122.008 166.995 122.008C166.58 122.008 166.239 122.101 165.973 122.288C165.707 122.475 165.509 122.734 165.378 123.065C165.252 123.396 165.189 123.781 165.189 124.22C165.189 124.897 165.341 125.436 165.644 125.837C165.952 126.234 166.403 126.432 166.995 126.432ZM177.523 128V124.43C177.523 124.257 177.513 124.038 177.495 123.772C177.476 123.501 177.418 123.231 177.32 122.96C177.222 122.689 177.061 122.463 176.837 122.281C176.617 122.099 176.305 122.008 175.899 122.008C175.735 122.008 175.56 122.034 175.374 122.085C175.187 122.136 175.012 122.237 174.849 122.386C174.685 122.531 174.55 122.745 174.443 123.03C174.34 123.315 174.289 123.693 174.289 124.164L173.197 123.646C173.197 123.049 173.318 122.489 173.561 121.966C173.803 121.443 174.167 121.021 174.653 120.699C175.143 120.377 175.759 120.216 176.501 120.216C177.093 120.216 177.576 120.316 177.95 120.517C178.323 120.718 178.612 120.972 178.818 121.28C179.028 121.588 179.177 121.91 179.266 122.246C179.354 122.577 179.408 122.881 179.427 123.156C179.445 123.431 179.455 123.632 179.455 123.758V128H177.523ZM172.357 128V120.44H174.051V122.946H174.289V128H172.357ZM184.074 128V117.92H190.654V119.698H185.978V121.854H189.814V123.632H185.978V126.222H190.654V128H184.074ZM191.492 128L194.194 124.178L191.548 120.44H193.788L195.3 122.68L196.784 120.44H199.024L196.378 124.178L199.094 128H196.854L195.3 125.676L193.732 128H191.492ZM203.93 128.21C203.179 128.21 202.551 128.035 202.047 127.685C201.543 127.335 201.163 126.859 200.906 126.257C200.654 125.655 200.528 124.976 200.528 124.22C200.528 123.464 200.654 122.785 200.906 122.183C201.158 121.581 201.529 121.105 202.019 120.755C202.509 120.405 203.114 120.23 203.832 120.23C204.556 120.23 205.186 120.403 205.722 120.748C206.259 121.093 206.674 121.567 206.968 122.169C207.267 122.766 207.416 123.45 207.416 124.22C207.416 124.976 207.269 125.655 206.975 126.257C206.686 126.859 206.28 127.335 205.757 127.685C205.235 128.035 204.626 128.21 203.93 128.21ZM200.206 131.36V120.44H201.886V125.62H202.124V131.36H200.206ZM203.622 126.516C204.033 126.516 204.369 126.413 204.63 126.208C204.892 126.003 205.085 125.727 205.211 125.382C205.337 125.032 205.4 124.645 205.4 124.22C205.4 123.8 205.335 123.417 205.204 123.072C205.074 122.722 204.871 122.444 204.595 122.239C204.325 122.029 203.977 121.924 203.552 121.924C203.156 121.924 202.834 122.02 202.586 122.211C202.344 122.402 202.166 122.671 202.054 123.016C201.942 123.361 201.886 123.763 201.886 124.22C201.886 124.677 201.942 125.079 202.054 125.424C202.166 125.769 202.348 126.038 202.6 126.229C202.857 126.42 203.198 126.516 203.622 126.516ZM208.957 128V120.44H210.637V122.288L210.455 122.05C210.553 121.789 210.683 121.551 210.847 121.336C211.01 121.121 211.211 120.944 211.449 120.804C211.631 120.692 211.829 120.606 212.044 120.545C212.258 120.48 212.48 120.44 212.709 120.426C212.937 120.407 213.166 120.412 213.395 120.44V122.218C213.185 122.153 212.94 122.132 212.66 122.155C212.384 122.174 212.135 122.237 211.911 122.344C211.687 122.447 211.498 122.584 211.344 122.757C211.19 122.925 211.073 123.126 210.994 123.359C210.914 123.588 210.875 123.847 210.875 124.136V128H208.957ZM218.103 128.21C217.329 128.21 216.645 128.044 216.052 127.713C215.464 127.377 215.002 126.917 214.666 126.334C214.335 125.746 214.169 125.074 214.169 124.318C214.169 123.492 214.333 122.773 214.659 122.162C214.986 121.551 215.436 121.077 216.01 120.741C216.584 120.4 217.245 120.23 217.991 120.23C218.785 120.23 219.459 120.417 220.014 120.79C220.57 121.163 220.98 121.688 221.246 122.365C221.512 123.042 221.606 123.837 221.526 124.752H219.643V124.052C219.643 123.282 219.52 122.729 219.272 122.393C219.03 122.052 218.631 121.882 218.075 121.882C217.427 121.882 216.948 122.08 216.64 122.477C216.337 122.869 216.185 123.45 216.185 124.22C216.185 124.925 216.337 125.471 216.64 125.858C216.948 126.241 217.399 126.432 217.991 126.432C218.365 126.432 218.684 126.35 218.95 126.187C219.216 126.024 219.419 125.788 219.559 125.48L221.463 126.026C221.179 126.717 220.728 127.253 220.112 127.636C219.501 128.019 218.831 128.21 218.103 128.21ZM215.597 124.752V123.338H220.609V124.752H215.597ZM226.061 128.21C225.109 128.21 224.339 127.995 223.751 127.566C223.168 127.132 222.813 126.521 222.687 125.732L224.633 125.438C224.712 125.793 224.887 126.07 225.158 126.271C225.433 126.472 225.781 126.572 226.201 126.572C226.546 126.572 226.812 126.507 226.999 126.376C227.186 126.241 227.279 126.054 227.279 125.816C227.279 125.667 227.242 125.548 227.167 125.459C227.092 125.366 226.924 125.275 226.663 125.186C226.406 125.097 226.005 124.981 225.459 124.836C224.843 124.677 224.351 124.5 223.982 124.304C223.613 124.108 223.347 123.875 223.184 123.604C223.021 123.329 222.939 122.997 222.939 122.61C222.939 122.125 223.063 121.705 223.31 121.35C223.557 120.991 223.905 120.715 224.353 120.524C224.806 120.328 225.338 120.23 225.949 120.23C226.542 120.23 227.067 120.321 227.524 120.503C227.981 120.685 228.35 120.944 228.63 121.28C228.915 121.616 229.09 122.013 229.155 122.47L227.209 122.82C227.176 122.54 227.055 122.318 226.845 122.155C226.635 121.992 226.35 121.896 225.991 121.868C225.641 121.845 225.359 121.891 225.144 122.008C224.934 122.125 224.829 122.293 224.829 122.512C224.829 122.643 224.873 122.752 224.962 122.841C225.055 122.93 225.244 123.021 225.529 123.114C225.818 123.207 226.257 123.329 226.845 123.478C227.419 123.627 227.879 123.802 228.224 124.003C228.574 124.199 228.828 124.437 228.987 124.717C229.146 124.992 229.225 125.326 229.225 125.718C229.225 126.493 228.945 127.102 228.385 127.545C227.825 127.988 227.05 128.21 226.061 128.21ZM233.717 128.21C232.765 128.21 231.995 127.995 231.407 127.566C230.824 127.132 230.469 126.521 230.343 125.732L232.289 125.438C232.369 125.793 232.544 126.07 232.814 126.271C233.09 126.472 233.437 126.572 233.857 126.572C234.203 126.572 234.469 126.507 234.655 126.376C234.842 126.241 234.935 126.054 234.935 125.816C234.935 125.667 234.898 125.548 234.823 125.459C234.749 125.366 234.581 125.275 234.319 125.186C234.063 125.097 233.661 124.981 233.115 124.836C232.499 124.677 232.007 124.5 231.638 124.304C231.27 124.108 231.004 123.875 230.84 123.604C230.677 123.329 230.595 122.997 230.595 122.61C230.595 122.125 230.719 121.705 230.966 121.35C231.214 120.991 231.561 120.715 232.009 120.524C232.462 120.328 232.994 120.23 233.605 120.23C234.198 120.23 234.723 120.321 235.18 120.503C235.638 120.685 236.006 120.944 236.286 121.28C236.571 121.616 236.746 122.013 236.811 122.47L234.865 122.82C234.833 122.54 234.711 122.318 234.501 122.155C234.291 121.992 234.007 121.896 233.647 121.868C233.297 121.845 233.015 121.891 232.8 122.008C232.59 122.125 232.485 122.293 232.485 122.512C232.485 122.643 232.53 122.752 232.618 122.841C232.712 122.93 232.901 123.021 233.185 123.114C233.475 123.207 233.913 123.329 234.501 123.478C235.075 123.627 235.535 123.802 235.88 124.003C236.23 124.199 236.485 124.437 236.643 124.717C236.802 124.992 236.881 125.326 236.881 125.718C236.881 126.493 236.601 127.102 236.041 127.545C235.481 127.988 234.707 128.21 233.717 128.21ZM238.559 119.39V117.71H240.463V119.39H238.559ZM238.559 128V120.44H240.463V128H238.559ZM245.964 128.21C245.203 128.21 244.536 128.04 243.962 127.699C243.388 127.358 242.94 126.889 242.618 126.292C242.301 125.69 242.142 124.999 242.142 124.22C242.142 123.431 242.305 122.738 242.632 122.141C242.959 121.539 243.409 121.07 243.983 120.734C244.557 120.398 245.217 120.23 245.964 120.23C246.725 120.23 247.392 120.4 247.966 120.741C248.545 121.082 248.995 121.553 249.317 122.155C249.639 122.752 249.8 123.441 249.8 124.22C249.8 125.004 249.637 125.697 249.31 126.299C248.988 126.896 248.538 127.365 247.959 127.706C247.385 128.042 246.72 128.21 245.964 128.21ZM245.964 126.432C246.575 126.432 247.03 126.227 247.329 125.816C247.632 125.401 247.784 124.869 247.784 124.22C247.784 123.548 247.63 123.011 247.322 122.61C247.019 122.209 246.566 122.008 245.964 122.008C245.549 122.008 245.208 122.101 244.942 122.288C244.676 122.475 244.478 122.734 244.347 123.065C244.221 123.396 244.158 123.781 244.158 124.22C244.158 124.897 244.31 125.436 244.613 125.837C244.921 126.234 245.371 126.432 245.964 126.432ZM256.491 128V124.43C256.491 124.257 256.482 124.038 256.463 123.772C256.445 123.501 256.386 123.231 256.288 122.96C256.19 122.689 256.029 122.463 255.805 122.281C255.586 122.099 255.273 122.008 254.867 122.008C254.704 122.008 254.529 122.034 254.342 122.085C254.156 122.136 253.981 122.237 253.817 122.386C253.654 122.531 253.519 122.745 253.411 123.03C253.309 123.315 253.257 123.693 253.257 124.164L252.165 123.646C252.165 123.049 252.287 122.489 252.529 121.966C252.772 121.443 253.136 121.021 253.621 120.699C254.111 120.377 254.727 120.216 255.469 120.216C256.062 120.216 256.545 120.316 256.918 120.517C257.292 120.718 257.581 120.972 257.786 121.28C257.996 121.588 258.146 121.91 258.234 122.246C258.323 122.577 258.377 122.881 258.395 123.156C258.414 123.431 258.423 123.632 258.423 123.758V128H256.491ZM251.325 128V120.44H253.019V122.946H253.257V128H251.325Z" fill="white"/>
</svg>
