<svg width="510" height="277" viewBox="0 0 510 277" fill="none" xmlns="http://www.w3.org/2000/svg">
<rect x="29" y="38" width="452" height="197" rx="7" fill="#282525" stroke="#777777" stroke-width="2"/>
<path d="M50.73 69V60.992L48.84 62.154V60.054L50.73 58.92H52.676V69H50.73ZM55.0574 68.986V67.334L59.2854 63.582C59.6028 63.302 59.8268 63.0383 59.9574 62.791C60.0881 62.5437 60.1534 62.3127 60.1534 62.098C60.1534 61.79 60.0904 61.517 59.9644 61.279C59.8384 61.0363 59.6611 60.8473 59.4324 60.712C59.2038 60.572 58.9354 60.502 58.6274 60.502C58.3054 60.502 58.0208 60.5767 57.7734 60.726C57.5308 60.8707 57.3418 61.0643 57.2064 61.307C57.0711 61.545 57.0081 61.804 57.0174 62.084H55.0574C55.0574 61.3933 55.2091 60.796 55.5124 60.292C55.8158 59.788 56.2381 59.3983 56.7794 59.123C57.3208 58.8477 57.9508 58.71 58.6694 58.71C59.3274 58.71 59.9154 58.8547 60.4334 59.144C60.9561 59.4287 61.3668 59.8277 61.6654 60.341C61.9641 60.8543 62.1134 61.4493 62.1134 62.126C62.1134 62.6253 62.0434 63.0407 61.9034 63.372C61.7634 63.6987 61.5558 64.002 61.2804 64.282C61.0051 64.5573 60.6668 64.87 60.2654 65.22L57.5354 67.614L57.3814 67.194H62.1134V68.986H55.0574ZM64.2906 69L67.6786 60.712H63.3666V58.92H69.7226V60.712L66.3486 69H64.2906ZM71.7099 69V67.096H73.6139V69H71.7099ZM79.6243 69.21C78.8776 69.21 78.2243 69.0537 77.6643 68.741C77.1043 68.4283 76.6679 67.992 76.3553 67.432C76.0426 66.872 75.8863 66.2187 75.8863 65.472V62.448C75.8863 61.7013 76.0426 61.048 76.3553 60.488C76.6679 59.928 77.1043 59.4917 77.6643 59.179C78.2243 58.8663 78.8776 58.71 79.6243 58.71C80.3709 58.71 81.0243 58.8663 81.5843 59.179C82.1443 59.4917 82.5806 59.928 82.8933 60.488C83.2059 61.048 83.3623 61.7013 83.3623 62.448V65.472C83.3623 66.2187 83.2059 66.872 82.8933 67.432C82.5806 67.992 82.1443 68.4283 81.5843 68.741C81.0243 69.0537 80.3709 69.21 79.6243 69.21ZM79.6243 67.404C79.9603 67.404 80.2636 67.3247 80.5343 67.166C80.8049 67.0073 81.0196 66.7927 81.1783 66.522C81.3369 66.2513 81.4163 65.948 81.4163 65.612V62.294C81.4163 61.958 81.3369 61.6547 81.1783 61.384C81.0196 61.1133 80.8049 60.8987 80.5343 60.74C80.2636 60.5813 79.9603 60.502 79.6243 60.502C79.2883 60.502 78.9849 60.5813 78.7143 60.74C78.4436 60.8987 78.2289 61.1133 78.0703 61.384C77.9116 61.6547 77.8323 61.958 77.8323 62.294V65.612C77.8323 65.948 77.9116 66.2513 78.0703 66.522C78.2289 66.7927 78.4436 67.0073 78.7143 67.166C78.9849 67.3247 79.2883 67.404 79.6243 67.404ZM85.6278 69V67.096H87.5318V69H85.6278ZM93.5422 69.21C92.7956 69.21 92.1422 69.0537 91.5822 68.741C91.0222 68.4283 90.5859 67.992 90.2732 67.432C89.9606 66.872 89.8042 66.2187 89.8042 65.472V62.448C89.8042 61.7013 89.9606 61.048 90.2732 60.488C90.5859 59.928 91.0222 59.4917 91.5822 59.179C92.1422 58.8663 92.7956 58.71 93.5422 58.71C94.2889 58.71 94.9422 58.8663 95.5022 59.179C96.0622 59.4917 96.4986 59.928 96.8112 60.488C97.1239 61.048 97.2802 61.7013 97.2802 62.448V65.472C97.2802 66.2187 97.1239 66.872 96.8112 67.432C96.4986 67.992 96.0622 68.4283 95.5022 68.741C94.9422 69.0537 94.2889 69.21 93.5422 69.21ZM93.5422 67.404C93.8782 67.404 94.1816 67.3247 94.4522 67.166C94.7229 67.0073 94.9376 66.7927 95.0962 66.522C95.2549 66.2513 95.3342 65.948 95.3342 65.612V62.294C95.3342 61.958 95.2549 61.6547 95.0962 61.384C94.9376 61.1133 94.7229 60.8987 94.4522 60.74C94.1816 60.5813 93.8782 60.502 93.5422 60.502C93.2062 60.502 92.9029 60.5813 92.6322 60.74C92.3616 60.8987 92.1469 61.1133 91.9882 61.384C91.8296 61.6547 91.7502 61.958 91.7502 62.294V65.612C91.7502 65.948 91.8296 66.2513 91.9882 66.522C92.1469 66.7927 92.3616 67.0073 92.6322 67.166C92.9029 67.3247 93.2062 67.404 93.5422 67.404ZM99.5458 69V67.096H101.45V69H99.5458ZM103.791 69V60.992L101.901 62.154V60.054L103.791 58.92H105.737V69H103.791ZM108.958 68.16V66.256H110.862V68.16H108.958ZM108.972 64.184V62.28H110.876V64.184H108.972ZM116.398 69.21C115.889 69.21 115.411 69.105 114.963 68.895C114.52 68.685 114.137 68.3933 113.815 68.02C113.493 67.6467 113.262 67.2127 113.122 66.718L114.956 66.228C115.017 66.466 115.124 66.6713 115.278 66.844C115.437 67.0167 115.619 67.152 115.824 67.25C116.034 67.3433 116.249 67.39 116.468 67.39C116.757 67.39 117.021 67.32 117.259 67.18C117.502 67.04 117.693 66.851 117.833 66.613C117.978 66.375 118.05 66.1113 118.05 65.822C118.05 65.5327 117.978 65.269 117.833 65.031C117.693 64.793 117.502 64.604 117.259 64.464C117.021 64.324 116.757 64.254 116.468 64.254C116.113 64.254 115.824 64.3147 115.6 64.436C115.376 64.5527 115.208 64.6647 115.096 64.772L113.486 64.282L113.794 58.92H119.296V60.698H114.844L115.516 60.068L115.306 63.526L114.984 63.134C115.236 62.9287 115.523 62.7793 115.845 62.686C116.167 62.5927 116.468 62.546 116.748 62.546C117.383 62.546 117.94 62.6883 118.421 62.973C118.906 63.253 119.284 63.6403 119.555 64.135C119.83 64.625 119.968 65.1873 119.968 65.822C119.968 66.4567 119.802 67.0307 119.471 67.544C119.14 68.0527 118.703 68.4587 118.162 68.762C117.621 69.0607 117.033 69.21 116.398 69.21ZM124.642 69.21C124.133 69.21 123.655 69.105 123.207 68.895C122.764 68.685 122.381 68.3933 122.059 68.02C121.737 67.6467 121.506 67.2127 121.366 66.718L123.2 66.228C123.261 66.466 123.368 66.6713 123.522 66.844C123.681 67.0167 123.863 67.152 124.068 67.25C124.278 67.3433 124.493 67.39 124.712 67.39C125.001 67.39 125.265 67.32 125.503 67.18C125.746 67.04 125.937 66.851 126.077 66.613C126.222 66.375 126.294 66.1113 126.294 65.822C126.294 65.5327 126.222 65.269 126.077 65.031C125.937 64.793 125.746 64.604 125.503 64.464C125.265 64.324 125.001 64.254 124.712 64.254C124.357 64.254 124.068 64.3147 123.844 64.436C123.62 64.5527 123.452 64.6647 123.34 64.772L121.73 64.282L122.038 58.92H127.54V60.698H123.088L123.76 60.068L123.55 63.526L123.228 63.134C123.48 62.9287 123.767 62.7793 124.089 62.686C124.411 62.5927 124.712 62.546 124.992 62.546C125.627 62.546 126.184 62.6883 126.665 62.973C127.15 63.253 127.528 63.6403 127.799 64.135C128.074 64.625 128.212 65.1873 128.212 65.822C128.212 66.4567 128.046 67.0307 127.715 67.544C127.384 68.0527 126.947 68.4587 126.406 68.762C125.865 69.0607 125.277 69.21 124.642 69.21ZM133.628 69.21C132.881 69.21 132.228 69.0537 131.668 68.741C131.108 68.4283 130.672 67.992 130.359 67.432C130.046 66.872 129.89 66.2187 129.89 65.472V62.448C129.89 61.7013 130.046 61.048 130.359 60.488C130.672 59.928 131.108 59.4917 131.668 59.179C132.228 58.8663 132.881 58.71 133.628 58.71C134.375 58.71 135.028 58.8663 135.588 59.179C136.148 59.4917 136.584 59.928 136.897 60.488C137.21 61.048 137.366 61.7013 137.366 62.448V65.472C137.366 66.2187 137.21 66.872 136.897 67.432C136.584 67.992 136.148 68.4283 135.588 68.741C135.028 69.0537 134.375 69.21 133.628 69.21ZM133.628 67.404C133.964 67.404 134.267 67.3247 134.538 67.166C134.809 67.0073 135.023 66.7927 135.182 66.522C135.341 66.2513 135.42 65.948 135.42 65.612V62.294C135.42 61.958 135.341 61.6547 135.182 61.384C135.023 61.1133 134.809 60.8987 134.538 60.74C134.267 60.5813 133.964 60.502 133.628 60.502C133.292 60.502 132.989 60.5813 132.718 60.74C132.447 60.8987 132.233 61.1133 132.074 61.384C131.915 61.6547 131.836 61.958 131.836 62.294V65.612C131.836 65.948 131.915 66.2513 132.074 66.522C132.233 66.7927 132.447 67.0073 132.718 67.166C132.989 67.3247 133.292 67.404 133.628 67.404ZM143.062 69.21C142.315 69.21 141.662 69.0537 141.102 68.741C140.542 68.4283 140.105 67.992 139.793 67.432C139.48 66.872 139.324 66.2187 139.324 65.472V62.448C139.324 61.7013 139.48 61.048 139.793 60.488C140.105 59.928 140.542 59.4917 141.102 59.179C141.662 58.8663 142.315 58.71 143.062 58.71C143.808 58.71 144.462 58.8663 145.022 59.179C145.582 59.4917 146.018 59.928 146.331 60.488C146.643 61.048 146.8 61.7013 146.8 62.448V65.472C146.8 66.2187 146.643 66.872 146.331 67.432C146.018 67.992 145.582 68.4283 145.022 68.741C144.462 69.0537 143.808 69.21 143.062 69.21ZM143.062 67.404C143.398 67.404 143.701 67.3247 143.972 67.166C144.242 67.0073 144.457 66.7927 144.616 66.522C144.774 66.2513 144.854 65.948 144.854 65.612V62.294C144.854 61.958 144.774 61.6547 144.616 61.384C144.457 61.1133 144.242 60.8987 143.972 60.74C143.701 60.5813 143.398 60.502 143.062 60.502C142.726 60.502 142.422 60.5813 142.152 60.74C141.881 60.8987 141.666 61.1133 141.508 61.384C141.349 61.6547 141.27 61.958 141.27 62.294V65.612C141.27 65.948 141.349 66.2513 141.508 66.522C141.666 66.7927 141.881 67.0073 142.152 67.166C142.422 67.3247 142.726 67.404 143.062 67.404ZM154.514 69.21C153.562 69.21 152.792 68.9953 152.204 68.566C151.621 68.132 151.266 67.5207 151.14 66.732L153.086 66.438C153.165 66.7927 153.34 67.0703 153.611 67.271C153.886 67.4717 154.234 67.572 154.654 67.572C154.999 67.572 155.265 67.5067 155.452 67.376C155.639 67.2407 155.732 67.054 155.732 66.816C155.732 66.6667 155.695 66.5477 155.62 66.459C155.545 66.3657 155.377 66.2747 155.116 66.186C154.859 66.0973 154.458 65.9807 153.912 65.836C153.296 65.6773 152.804 65.5 152.435 65.304C152.066 65.108 151.8 64.8747 151.637 64.604C151.474 64.3287 151.392 63.9973 151.392 63.61C151.392 63.1247 151.516 62.7047 151.763 62.35C152.01 61.9907 152.358 61.7153 152.806 61.524C153.259 61.328 153.791 61.23 154.402 61.23C154.995 61.23 155.52 61.321 155.977 61.503C156.434 61.685 156.803 61.944 157.083 62.28C157.368 62.616 157.543 63.0127 157.608 63.47L155.662 63.82C155.629 63.54 155.508 63.3183 155.298 63.155C155.088 62.9917 154.803 62.896 154.444 62.868C154.094 62.8447 153.812 62.8913 153.597 63.008C153.387 63.1247 153.282 63.2927 153.282 63.512C153.282 63.6427 153.326 63.7523 153.415 63.841C153.508 63.9297 153.697 64.0207 153.982 64.114C154.271 64.2073 154.71 64.3287 155.298 64.478C155.872 64.6273 156.332 64.8023 156.677 65.003C157.027 65.199 157.281 65.437 157.44 65.717C157.599 65.9923 157.678 66.326 157.678 66.718C157.678 67.4927 157.398 68.1017 156.838 68.545C156.278 68.9883 155.503 69.21 154.514 69.21ZM161.316 69.21C160.775 69.21 160.315 69.1073 159.937 68.902C159.564 68.692 159.279 68.4143 159.083 68.069C158.892 67.719 158.796 67.334 158.796 66.914C158.796 66.564 158.85 66.2443 158.957 65.955C159.065 65.6657 159.237 65.4113 159.475 65.192C159.718 64.968 160.042 64.7813 160.448 64.632C160.728 64.5293 161.062 64.4383 161.449 64.359C161.837 64.2797 162.275 64.205 162.765 64.135C163.255 64.0603 163.794 63.9787 164.382 63.89L163.696 64.268C163.696 63.82 163.589 63.491 163.374 63.281C163.16 63.071 162.8 62.966 162.296 62.966C162.016 62.966 161.725 63.0337 161.421 63.169C161.118 63.3043 160.906 63.5447 160.784 63.89L159.062 63.344C159.254 62.7187 159.613 62.21 160.14 61.818C160.668 61.426 161.386 61.23 162.296 61.23C162.964 61.23 163.556 61.3327 164.074 61.538C164.592 61.7433 164.984 62.098 165.25 62.602C165.4 62.882 165.488 63.162 165.516 63.442C165.544 63.722 165.558 64.0347 165.558 64.38V69H163.892V67.446L164.13 67.768C163.762 68.2767 163.363 68.6453 162.933 68.874C162.509 69.098 161.97 69.21 161.316 69.21ZM161.722 67.712C162.072 67.712 162.366 67.6513 162.604 67.53C162.847 67.404 163.038 67.2617 163.178 67.103C163.323 66.9443 163.421 66.8113 163.472 66.704C163.57 66.4987 163.626 66.2607 163.64 65.99C163.659 65.7147 163.668 65.486 163.668 65.304L164.228 65.444C163.664 65.5373 163.206 65.6167 162.856 65.682C162.506 65.7427 162.224 65.7987 162.009 65.85C161.795 65.9013 161.606 65.9573 161.442 66.018C161.256 66.0927 161.104 66.1743 160.987 66.263C160.875 66.347 160.791 66.4403 160.735 66.543C160.684 66.6457 160.658 66.76 160.658 66.886C160.658 67.0587 160.7 67.208 160.784 67.334C160.873 67.4553 160.997 67.5487 161.155 67.614C161.314 67.6793 161.503 67.712 161.722 67.712ZM167.921 72.36L169.377 68.356L169.405 69.532L166.115 61.44H168.089L170.301 67.166H169.853L172.051 61.44H173.955L169.685 72.36H167.921ZM177.893 69.21C176.941 69.21 176.171 68.9953 175.583 68.566C175 68.132 174.645 67.5207 174.519 66.732L176.465 66.438C176.544 66.7927 176.719 67.0703 176.99 67.271C177.265 67.4717 177.613 67.572 178.033 67.572C178.378 67.572 178.644 67.5067 178.831 67.376C179.018 67.2407 179.111 67.054 179.111 66.816C179.111 66.6667 179.074 66.5477 178.999 66.459C178.924 66.3657 178.756 66.2747 178.495 66.186C178.238 66.0973 177.837 65.9807 177.291 65.836C176.675 65.6773 176.183 65.5 175.814 65.304C175.445 65.108 175.179 64.8747 175.016 64.604C174.853 64.3287 174.771 63.9973 174.771 63.61C174.771 63.1247 174.895 62.7047 175.142 62.35C175.389 61.9907 175.737 61.7153 176.185 61.524C176.638 61.328 177.17 61.23 177.781 61.23C178.374 61.23 178.899 61.321 179.356 61.503C179.813 61.685 180.182 61.944 180.462 62.28C180.747 62.616 180.922 63.0127 180.987 63.47L179.041 63.82C179.008 63.54 178.887 63.3183 178.677 63.155C178.467 62.9917 178.182 62.896 177.823 62.868C177.473 62.8447 177.191 62.8913 176.976 63.008C176.766 63.1247 176.661 63.2927 176.661 63.512C176.661 63.6427 176.705 63.7523 176.794 63.841C176.887 63.9297 177.076 64.0207 177.361 64.114C177.65 64.2073 178.089 64.3287 178.677 64.478C179.251 64.6273 179.711 64.8023 180.056 65.003C180.406 65.199 180.66 65.437 180.819 65.717C180.978 65.9923 181.057 66.326 181.057 66.718C181.057 67.4927 180.777 68.1017 180.217 68.545C179.657 68.9883 178.882 69.21 177.893 69.21Z" fill="white"/>
<rect x="49" y="126" width="405" height="37" rx="7" fill="#282525" stroke="#787DF7" stroke-width="2"/>
<rect x="384" y="183" width="70" height="26" rx="13" fill="#787DF7" stroke="#787DF7" stroke-width="2"/>
<path d="M415.306 201.21C414.298 201.21 413.428 200.991 412.695 200.552C411.967 200.113 411.405 199.5 411.008 198.711C410.616 197.922 410.42 197.005 410.42 195.96C410.42 194.915 410.616 193.998 411.008 193.209C411.405 192.42 411.967 191.807 412.695 191.368C413.428 190.929 414.298 190.71 415.306 190.71C416.314 190.71 417.182 190.929 417.91 191.368C418.643 191.807 419.205 192.42 419.597 193.209C419.994 193.998 420.192 194.915 420.192 195.96C420.192 197.005 419.994 197.922 419.597 198.711C419.205 199.5 418.643 200.113 417.91 200.552C417.182 200.991 416.314 201.21 415.306 201.21ZM415.306 199.418C415.945 199.427 416.477 199.29 416.902 199.005C417.327 198.72 417.644 198.317 417.854 197.794C418.069 197.271 418.176 196.66 418.176 195.96C418.176 195.26 418.069 194.653 417.854 194.14C417.644 193.627 417.327 193.228 416.902 192.943C416.477 192.658 415.945 192.511 415.306 192.502C414.667 192.493 414.135 192.63 413.71 192.915C413.285 193.2 412.966 193.603 412.751 194.126C412.541 194.649 412.436 195.26 412.436 195.96C412.436 196.66 412.541 197.267 412.751 197.78C412.966 198.293 413.285 198.692 413.71 198.977C414.135 199.262 414.667 199.409 415.306 199.418ZM421.575 201L421.589 190.92H423.521V197.08L426.083 193.44H428.435L425.705 197.22L428.617 201H426.139L423.521 197.36V201H421.575Z" fill="white"/>
<rect x="305" y="183" width="70" height="26" rx="13" fill="#282525" stroke="#787DF7" stroke-width="2"/>
<path d="M321.306 201.21C320.298 201.21 319.428 200.991 318.695 200.552C317.967 200.113 317.405 199.5 317.008 198.711C316.616 197.922 316.42 197.005 316.42 195.96C316.42 194.915 316.616 193.998 317.008 193.209C317.405 192.42 317.967 191.807 318.695 191.368C319.428 190.929 320.298 190.71 321.306 190.71C322.463 190.71 323.434 190.997 324.218 191.571C325.007 192.145 325.562 192.922 325.884 193.902L323.966 194.434C323.779 193.823 323.464 193.349 323.021 193.013C322.578 192.672 322.006 192.502 321.306 192.502C320.667 192.502 320.132 192.644 319.703 192.929C319.278 193.214 318.959 193.615 318.744 194.133C318.529 194.651 318.422 195.26 318.422 195.96C318.422 196.66 318.529 197.269 318.744 197.787C318.959 198.305 319.278 198.706 319.703 198.991C320.132 199.276 320.667 199.418 321.306 199.418C322.006 199.418 322.578 199.248 323.021 198.907C323.464 198.566 323.779 198.093 323.966 197.486L325.884 198.018C325.562 198.998 325.007 199.775 324.218 200.349C323.434 200.923 322.463 201.21 321.306 201.21ZM329.525 201.21C328.984 201.21 328.524 201.107 328.146 200.902C327.773 200.692 327.488 200.414 327.292 200.069C327.101 199.719 327.005 199.334 327.005 198.914C327.005 198.564 327.059 198.244 327.166 197.955C327.274 197.666 327.446 197.411 327.684 197.192C327.927 196.968 328.251 196.781 328.657 196.632C328.937 196.529 329.271 196.438 329.658 196.359C330.046 196.28 330.484 196.205 330.974 196.135C331.464 196.06 332.003 195.979 332.591 195.89L331.905 196.268C331.905 195.82 331.798 195.491 331.583 195.281C331.369 195.071 331.009 194.966 330.505 194.966C330.225 194.966 329.934 195.034 329.63 195.169C329.327 195.304 329.115 195.545 328.993 195.89L327.271 195.344C327.463 194.719 327.822 194.21 328.349 193.818C328.877 193.426 329.595 193.23 330.505 193.23C331.173 193.23 331.765 193.333 332.283 193.538C332.801 193.743 333.193 194.098 333.459 194.602C333.609 194.882 333.697 195.162 333.725 195.442C333.753 195.722 333.767 196.035 333.767 196.38V201H332.101V199.446L332.339 199.768C331.971 200.277 331.572 200.645 331.142 200.874C330.718 201.098 330.179 201.21 329.525 201.21ZM329.931 199.712C330.281 199.712 330.575 199.651 330.813 199.53C331.056 199.404 331.247 199.262 331.387 199.103C331.532 198.944 331.63 198.811 331.681 198.704C331.779 198.499 331.835 198.261 331.849 197.99C331.868 197.715 331.877 197.486 331.877 197.304L332.437 197.444C331.873 197.537 331.415 197.617 331.065 197.682C330.715 197.743 330.433 197.799 330.218 197.85C330.004 197.901 329.815 197.957 329.651 198.018C329.465 198.093 329.313 198.174 329.196 198.263C329.084 198.347 329 198.44 328.944 198.543C328.893 198.646 328.867 198.76 328.867 198.886C328.867 199.059 328.909 199.208 328.993 199.334C329.082 199.455 329.206 199.549 329.364 199.614C329.523 199.679 329.712 199.712 329.931 199.712ZM340.739 201V197.43C340.739 197.257 340.73 197.038 340.711 196.772C340.693 196.501 340.634 196.231 340.536 195.96C340.438 195.689 340.277 195.463 340.053 195.281C339.834 195.099 339.521 195.008 339.115 195.008C338.952 195.008 338.777 195.034 338.59 195.085C338.404 195.136 338.229 195.237 338.065 195.386C337.902 195.531 337.767 195.745 337.659 196.03C337.557 196.315 337.505 196.693 337.505 197.164L336.413 196.646C336.413 196.049 336.535 195.489 336.777 194.966C337.02 194.443 337.384 194.021 337.869 193.699C338.359 193.377 338.975 193.216 339.717 193.216C340.31 193.216 340.793 193.316 341.166 193.517C341.54 193.718 341.829 193.972 342.034 194.28C342.244 194.588 342.394 194.91 342.482 195.246C342.571 195.577 342.625 195.881 342.643 196.156C342.662 196.431 342.671 196.632 342.671 196.758V201H340.739ZM335.573 201V193.44H337.267V195.946H337.505V201H335.573ZM347.683 201.21C346.899 201.21 346.227 201.035 345.667 200.685C345.107 200.335 344.678 199.859 344.379 199.257C344.08 198.655 343.931 197.976 343.931 197.22C343.931 196.455 344.085 195.771 344.393 195.169C344.706 194.567 345.144 194.093 345.709 193.748C346.274 193.403 346.941 193.23 347.711 193.23C348.602 193.23 349.349 193.456 349.951 193.909C350.558 194.357 350.945 194.971 351.113 195.75L349.209 196.254C349.097 195.862 348.901 195.556 348.621 195.337C348.346 195.118 348.033 195.008 347.683 195.008C347.282 195.008 346.953 195.106 346.696 195.302C346.439 195.493 346.25 195.757 346.129 196.093C346.008 196.424 345.947 196.8 345.947 197.22C345.947 197.878 346.092 198.412 346.381 198.823C346.675 199.229 347.109 199.432 347.683 199.432C348.112 199.432 348.439 199.334 348.663 199.138C348.887 198.942 349.055 198.662 349.167 198.298L351.113 198.704C350.898 199.507 350.492 200.125 349.895 200.559C349.298 200.993 348.56 201.21 347.683 201.21ZM355.822 201.21C355.047 201.21 354.364 201.044 353.771 200.713C353.183 200.377 352.721 199.917 352.385 199.334C352.054 198.746 351.888 198.074 351.888 197.318C351.888 196.492 352.051 195.773 352.378 195.162C352.705 194.551 353.155 194.077 353.729 193.741C354.303 193.4 354.963 193.23 355.71 193.23C356.503 193.23 357.178 193.417 357.733 193.79C358.288 194.163 358.699 194.688 358.965 195.365C359.231 196.042 359.324 196.837 359.245 197.752H357.362V197.052C357.362 196.282 357.238 195.729 356.991 195.393C356.748 195.052 356.349 194.882 355.794 194.882C355.145 194.882 354.667 195.08 354.359 195.477C354.056 195.869 353.904 196.45 353.904 197.22C353.904 197.925 354.056 198.471 354.359 198.858C354.667 199.241 355.117 199.432 355.71 199.432C356.083 199.432 356.403 199.35 356.669 199.187C356.935 199.024 357.138 198.788 357.278 198.48L359.182 199.026C358.897 199.717 358.447 200.253 357.831 200.636C357.22 201.019 356.55 201.21 355.822 201.21ZM353.316 197.752V196.338H358.328V197.752H353.316ZM360.966 201V190.71H362.87V201H360.966Z" fill="white"/>
<path d="M49.12 110V99.92H50.366V110H49.12ZM57.4181 110.21C56.8534 110.21 56.3797 110.107 55.9971 109.902C55.6191 109.692 55.3321 109.417 55.1361 109.076C54.9447 108.735 54.8491 108.362 54.8491 107.956C54.8491 107.559 54.9237 107.216 55.0731 106.927C55.2271 106.633 55.4417 106.39 55.7171 106.199C55.9924 106.003 56.3214 105.849 56.7041 105.737C57.0634 105.639 57.4647 105.555 57.9081 105.485C58.3561 105.41 58.8087 105.343 59.2661 105.282C59.7234 105.221 60.1504 105.163 60.5471 105.107L60.0991 105.366C60.1131 104.694 59.9777 104.197 59.6931 103.875C59.4131 103.553 58.9277 103.392 58.2371 103.392C57.7797 103.392 57.3784 103.497 57.0331 103.707C56.6924 103.912 56.4521 104.248 56.3121 104.715L55.1291 104.358C55.3111 103.695 55.6634 103.175 56.1861 102.797C56.7087 102.419 57.3971 102.23 58.2511 102.23C58.9371 102.23 59.5251 102.354 60.0151 102.601C60.5097 102.844 60.8644 103.212 61.0791 103.707C61.1864 103.94 61.2541 104.195 61.2821 104.47C61.3101 104.741 61.3241 105.025 61.3241 105.324V110H60.2181V108.187L60.4771 108.355C60.1924 108.966 59.7934 109.428 59.2801 109.741C58.7714 110.054 58.1507 110.21 57.4181 110.21ZM57.6071 109.167C58.0551 109.167 58.4424 109.088 58.7691 108.929C59.1004 108.766 59.3664 108.553 59.5671 108.292C59.7677 108.026 59.8984 107.737 59.9591 107.424C60.0291 107.191 60.0664 106.932 60.0711 106.647C60.0804 106.358 60.0851 106.136 60.0851 105.982L60.5191 106.171C60.1131 106.227 59.7141 106.281 59.3221 106.332C58.9301 106.383 58.5591 106.439 58.2091 106.5C57.8591 106.556 57.5441 106.624 57.2641 106.703C57.0587 106.768 56.8651 106.852 56.6831 106.955C56.5057 107.058 56.3611 107.191 56.2491 107.354C56.1417 107.513 56.0881 107.711 56.0881 107.949C56.0881 108.154 56.1394 108.35 56.2421 108.537C56.3494 108.724 56.5127 108.875 56.7321 108.992C56.9561 109.109 57.2477 109.167 57.6071 109.167ZM72.1811 110L72.1881 105.163C72.1881 104.598 72.0364 104.157 71.7331 103.84C71.4344 103.518 71.0447 103.357 70.5641 103.357C70.2841 103.357 70.0181 103.422 69.7661 103.553C69.5141 103.679 69.3087 103.88 69.1501 104.155C68.9914 104.426 68.9121 104.773 68.9121 105.198L68.2541 104.932C68.2447 104.395 68.3544 103.926 68.5831 103.525C68.8164 103.119 69.1337 102.804 69.5351 102.58C69.9364 102.356 70.3891 102.244 70.8931 102.244C71.6817 102.244 72.3024 102.484 72.7551 102.965C73.2077 103.441 73.4341 104.083 73.4341 104.89L73.4271 110H72.1811ZM63.1371 110V102.44H64.2501V104.463H64.3901V110H63.1371ZM67.6661 110L67.6731 105.212C67.6731 104.633 67.5237 104.181 67.2251 103.854C66.9264 103.523 66.5297 103.357 66.0351 103.357C65.5451 103.357 65.1484 103.525 64.8451 103.861C64.5417 104.197 64.3901 104.643 64.3901 105.198L63.7321 104.806C63.7321 104.316 63.8487 103.877 64.0821 103.49C64.3154 103.103 64.6327 102.799 65.0341 102.58C65.4354 102.356 65.8904 102.244 66.3991 102.244C66.9077 102.244 67.3511 102.351 67.7291 102.566C68.1071 102.781 68.3987 103.089 68.6041 103.49C68.8094 103.887 68.9121 104.36 68.9121 104.911L68.9051 110H67.6661ZM80.2091 110.21C79.6444 110.21 79.1707 110.107 78.7881 109.902C78.4101 109.692 78.1231 109.417 77.9271 109.076C77.7357 108.735 77.6401 108.362 77.6401 107.956C77.6401 107.559 77.7147 107.216 77.8641 106.927C78.0181 106.633 78.2327 106.39 78.5081 106.199C78.7834 106.003 79.1124 105.849 79.4951 105.737C79.8544 105.639 80.2557 105.555 80.6991 105.485C81.1471 105.41 81.5997 105.343 82.0571 105.282C82.5144 105.221 82.9414 105.163 83.3381 105.107L82.8901 105.366C82.9041 104.694 82.7687 104.197 82.4841 103.875C82.2041 103.553 81.7187 103.392 81.0281 103.392C80.5707 103.392 80.1694 103.497 79.8241 103.707C79.4834 103.912 79.2431 104.248 79.1031 104.715L77.9201 104.358C78.1021 103.695 78.4544 103.175 78.9771 102.797C79.4997 102.419 80.1881 102.23 81.0421 102.23C81.7281 102.23 82.3161 102.354 82.8061 102.601C83.3007 102.844 83.6554 103.212 83.8701 103.707C83.9774 103.94 84.0451 104.195 84.0731 104.47C84.1011 104.741 84.1151 105.025 84.1151 105.324V110H83.0091V108.187L83.2681 108.355C82.9834 108.966 82.5844 109.428 82.0711 109.741C81.5624 110.054 80.9417 110.21 80.2091 110.21ZM80.3981 109.167C80.8461 109.167 81.2334 109.088 81.5601 108.929C81.8914 108.766 82.1574 108.553 82.3581 108.292C82.5587 108.026 82.6894 107.737 82.7501 107.424C82.8201 107.191 82.8574 106.932 82.8621 106.647C82.8714 106.358 82.8761 106.136 82.8761 105.982L83.3101 106.171C82.9041 106.227 82.5051 106.281 82.1131 106.332C81.7211 106.383 81.3501 106.439 81.0001 106.5C80.6501 106.556 80.3351 106.624 80.0551 106.703C79.8497 106.768 79.6561 106.852 79.4741 106.955C79.2967 107.058 79.1521 107.191 79.0401 107.354C78.9327 107.513 78.8791 107.711 78.8791 107.949C78.8791 108.154 78.9304 108.35 79.0331 108.537C79.1404 108.724 79.3037 108.875 79.5231 108.992C79.7471 109.109 80.0387 109.167 80.3981 109.167ZM92.2098 110.21C91.5005 110.21 90.9031 110.035 90.4178 109.685C89.9325 109.33 89.5638 108.852 89.3118 108.25C89.0645 107.643 88.9408 106.964 88.9408 106.213C88.9408 105.452 89.0645 104.771 89.3118 104.169C89.5638 103.567 89.9325 103.093 90.4178 102.748C90.9078 102.403 91.5075 102.23 92.2168 102.23C92.9168 102.23 93.5188 102.405 94.0228 102.755C94.5315 103.1 94.9211 103.574 95.1918 104.176C95.4625 104.778 95.5978 105.457 95.5978 106.213C95.5978 106.969 95.4625 107.648 95.1918 108.25C94.9211 108.852 94.5315 109.33 94.0228 109.685C93.5188 110.035 92.9145 110.21 92.2098 110.21ZM88.7308 113.36V102.44H89.8438V108.005H89.9838V113.36H88.7308ZM92.0558 109.069C92.5551 109.069 92.9681 108.943 93.2948 108.691C93.6215 108.439 93.8665 108.098 94.0298 107.669C94.1931 107.235 94.2748 106.75 94.2748 106.213C94.2748 105.681 94.1931 105.2 94.0298 104.771C93.8711 104.342 93.6238 104.001 93.2878 103.749C92.9565 103.497 92.5341 103.371 92.0208 103.371C91.5308 103.371 91.1248 103.492 90.8028 103.735C90.4808 103.973 90.2405 104.307 90.0818 104.736C89.9231 105.161 89.8438 105.653 89.8438 106.213C89.8438 106.764 89.9208 107.256 90.0748 107.69C90.2335 108.119 90.4761 108.458 90.8028 108.705C91.1295 108.948 91.5471 109.069 92.0558 109.069ZM97.1323 110V102.44H98.2453V104.267L98.0633 104.029C98.152 103.796 98.2663 103.581 98.4063 103.385C98.551 103.189 98.712 103.028 98.8893 102.902C99.0853 102.743 99.307 102.622 99.5543 102.538C99.8017 102.454 100.054 102.405 100.31 102.391C100.567 102.372 100.807 102.389 101.031 102.44V103.609C100.77 103.539 100.483 103.52 100.17 103.553C99.8577 103.586 99.5683 103.7 99.3023 103.896C99.0597 104.069 98.8707 104.279 98.7353 104.526C98.6047 104.773 98.5137 105.042 98.4623 105.331C98.411 105.616 98.3853 105.907 98.3853 106.206V110H97.1323ZM105.438 110.21C104.687 110.21 104.038 110.04 103.492 109.699C102.951 109.358 102.533 108.887 102.239 108.285C101.945 107.683 101.798 106.992 101.798 106.213C101.798 105.42 101.948 104.724 102.246 104.127C102.545 103.53 102.967 103.065 103.513 102.734C104.059 102.398 104.701 102.23 105.438 102.23C106.194 102.23 106.845 102.4 107.391 102.741C107.937 103.077 108.355 103.546 108.644 104.148C108.938 104.745 109.085 105.434 109.085 106.213C109.085 107.002 108.938 107.697 108.644 108.299C108.35 108.896 107.93 109.365 107.384 109.706C106.838 110.042 106.19 110.21 105.438 110.21ZM105.438 109.027C106.222 109.027 106.806 108.766 107.188 108.243C107.571 107.72 107.762 107.044 107.762 106.213C107.762 105.359 107.569 104.68 107.181 104.176C106.794 103.667 106.213 103.413 105.438 103.413C104.911 103.413 104.477 103.532 104.136 103.77C103.796 104.008 103.541 104.337 103.373 104.757C103.205 105.177 103.121 105.662 103.121 106.213C103.121 107.062 103.317 107.744 103.709 108.257C104.101 108.77 104.678 109.027 105.438 109.027ZM119.663 110L119.67 105.163C119.67 104.598 119.519 104.157 119.215 103.84C118.917 103.518 118.527 103.357 118.046 103.357C117.766 103.357 117.5 103.422 117.248 103.553C116.996 103.679 116.791 103.88 116.632 104.155C116.474 104.426 116.394 104.773 116.394 105.198L115.736 104.932C115.727 104.395 115.837 103.926 116.065 103.525C116.299 103.119 116.616 102.804 117.017 102.58C117.419 102.356 117.871 102.244 118.375 102.244C119.164 102.244 119.785 102.484 120.237 102.965C120.69 103.441 120.916 104.083 120.916 104.89L120.909 110H119.663ZM110.619 110V102.44H111.732V104.463H111.872V110H110.619ZM115.148 110L115.155 105.212C115.155 104.633 115.006 104.181 114.707 103.854C114.409 103.523 114.012 103.357 113.517 103.357C113.027 103.357 112.631 103.525 112.327 103.861C112.024 104.197 111.872 104.643 111.872 105.198L111.214 104.806C111.214 104.316 111.331 103.877 111.564 103.49C111.798 103.103 112.115 102.799 112.516 102.58C112.918 102.356 113.373 102.244 113.881 102.244C114.39 102.244 114.833 102.351 115.211 102.566C115.589 102.781 115.881 103.089 116.086 103.49C116.292 103.887 116.394 104.36 116.394 104.911L116.387 110H115.148ZM126.212 110.21C125.502 110.21 124.905 110.035 124.42 109.685C123.934 109.33 123.566 108.852 123.314 108.25C123.066 107.643 122.943 106.964 122.943 106.213C122.943 105.452 123.066 104.771 123.314 104.169C123.566 103.567 123.934 103.093 124.42 102.748C124.91 102.403 125.509 102.23 126.219 102.23C126.919 102.23 127.521 102.405 128.025 102.755C128.533 103.1 128.923 103.574 129.194 104.176C129.464 104.778 129.6 105.457 129.6 106.213C129.6 106.969 129.464 107.648 129.194 108.25C128.923 108.852 128.533 109.33 128.025 109.685C127.521 110.035 126.916 110.21 126.212 110.21ZM122.733 113.36V102.44H123.846V108.005H123.986V113.36H122.733ZM126.058 109.069C126.557 109.069 126.97 108.943 127.297 108.691C127.623 108.439 127.868 108.098 128.032 107.669C128.195 107.235 128.277 106.75 128.277 106.213C128.277 105.681 128.195 105.2 128.032 104.771C127.873 104.342 127.626 104.001 127.29 103.749C126.958 103.497 126.536 103.371 126.023 103.371C125.533 103.371 125.127 103.492 124.805 103.735C124.483 103.973 124.242 104.307 124.084 104.736C123.925 105.161 123.846 105.653 123.846 106.213C123.846 106.764 123.923 107.256 124.077 107.69C124.235 108.119 124.478 108.458 124.805 108.705C125.131 108.948 125.549 109.069 126.058 109.069ZM135.355 110C134.907 110.089 134.464 110.124 134.025 110.105C133.591 110.091 133.204 110.005 132.863 109.846C132.523 109.683 132.264 109.431 132.086 109.09C131.937 108.791 131.855 108.49 131.841 108.187C131.832 107.879 131.827 107.531 131.827 107.144V100.34H133.073V107.088C133.073 107.396 133.076 107.66 133.08 107.879C133.09 108.098 133.139 108.287 133.227 108.446C133.395 108.745 133.661 108.92 134.025 108.971C134.394 109.022 134.837 109.008 135.355 108.929V110ZM130.294 103.469V102.44H135.355V103.469H130.294ZM140.414 110V102.027C140.414 101.831 140.423 101.633 140.442 101.432C140.461 101.227 140.503 101.028 140.568 100.837C140.633 100.641 140.741 100.461 140.89 100.298C141.063 100.107 141.252 99.9713 141.457 99.892C141.662 99.808 141.87 99.7567 142.08 99.738C142.295 99.7193 142.498 99.71 142.689 99.71H143.648V100.746H142.759C142.39 100.746 142.115 100.837 141.933 101.019C141.751 101.196 141.66 101.467 141.66 101.831V110H140.414ZM139.133 103.469V102.44H143.648V103.469H139.133ZM147.635 110.196C147.15 110.196 146.732 110.119 146.382 109.965C146.037 109.811 145.75 109.606 145.521 109.349C145.292 109.092 145.113 108.808 144.982 108.495C144.851 108.182 144.758 107.863 144.702 107.536C144.651 107.209 144.625 106.904 144.625 106.619V102.44H145.885V106.227C145.885 106.582 145.918 106.925 145.983 107.256C146.048 107.587 146.158 107.886 146.312 108.152C146.471 108.418 146.681 108.628 146.942 108.782C147.208 108.936 147.539 109.013 147.936 109.013C148.249 109.013 148.533 108.959 148.79 108.852C149.047 108.745 149.266 108.586 149.448 108.376C149.63 108.161 149.77 107.891 149.868 107.564C149.966 107.237 150.015 106.857 150.015 106.423L150.834 106.675C150.834 107.403 150.701 108.031 150.435 108.558C150.174 109.085 149.803 109.491 149.322 109.776C148.846 110.056 148.284 110.196 147.635 110.196ZM150.155 110V107.977H150.015V102.44H151.268V110H150.155ZM158.611 110V106.213C158.611 105.854 158.578 105.508 158.513 105.177C158.452 104.846 158.343 104.549 158.184 104.288C158.03 104.022 157.82 103.812 157.554 103.658C157.293 103.504 156.961 103.427 156.56 103.427C156.247 103.427 155.963 103.481 155.706 103.588C155.454 103.691 155.237 103.849 155.055 104.064C154.873 104.279 154.731 104.549 154.628 104.876C154.53 105.198 154.481 105.578 154.481 106.017L153.662 105.765C153.662 105.032 153.793 104.405 154.054 103.882C154.32 103.355 154.691 102.951 155.167 102.671C155.648 102.386 156.212 102.244 156.861 102.244C157.351 102.244 157.769 102.321 158.114 102.475C158.459 102.629 158.746 102.834 158.975 103.091C159.204 103.343 159.383 103.628 159.514 103.945C159.645 104.258 159.736 104.577 159.787 104.904C159.843 105.226 159.871 105.532 159.871 105.821V110H158.611ZM153.221 110V102.44H154.341V104.463H154.481V110H153.221ZM164.808 110.21C164.042 110.21 163.391 110.04 162.855 109.699C162.323 109.354 161.917 108.88 161.637 108.278C161.357 107.676 161.212 106.99 161.203 106.22C161.212 105.431 161.359 104.738 161.644 104.141C161.933 103.539 162.346 103.07 162.883 102.734C163.419 102.398 164.066 102.23 164.822 102.23C165.62 102.23 166.306 102.426 166.88 102.818C167.458 103.21 167.846 103.747 168.042 104.428L166.81 104.799C166.651 104.36 166.392 104.02 166.033 103.777C165.678 103.534 165.27 103.413 164.808 103.413C164.29 103.413 163.863 103.534 163.527 103.777C163.191 104.015 162.941 104.346 162.778 104.771C162.614 105.191 162.53 105.674 162.526 106.22C162.535 107.06 162.729 107.739 163.107 108.257C163.489 108.77 164.056 109.027 164.808 109.027C165.302 109.027 165.713 108.915 166.04 108.691C166.366 108.462 166.614 108.133 166.782 107.704L168.042 108.033C167.78 108.738 167.372 109.277 166.817 109.65C166.261 110.023 165.592 110.21 164.808 110.21ZM173.691 110C173.243 110.089 172.8 110.124 172.361 110.105C171.927 110.091 171.54 110.005 171.199 109.846C170.859 109.683 170.6 109.431 170.422 109.09C170.273 108.791 170.191 108.49 170.177 108.187C170.168 107.879 170.163 107.531 170.163 107.144V100.34H171.409V107.088C171.409 107.396 171.412 107.66 171.416 107.879C171.426 108.098 171.475 108.287 171.563 108.446C171.731 108.745 171.997 108.92 172.361 108.971C172.73 109.022 173.173 109.008 173.691 108.929V110ZM168.63 103.469V102.44H173.691V103.469H168.63ZM175.366 101.103V99.815H176.612V101.103H175.366ZM175.366 110V102.44H176.612V110H175.366ZM181.932 110.21C181.181 110.21 180.532 110.04 179.986 109.699C179.445 109.358 179.027 108.887 178.733 108.285C178.439 107.683 178.292 106.992 178.292 106.213C178.292 105.42 178.442 104.724 178.74 104.127C179.039 103.53 179.461 103.065 180.007 102.734C180.553 102.398 181.195 102.23 181.932 102.23C182.688 102.23 183.339 102.4 183.885 102.741C184.431 103.077 184.849 103.546 185.138 104.148C185.432 104.745 185.579 105.434 185.579 106.213C185.579 107.002 185.432 107.697 185.138 108.299C184.844 108.896 184.424 109.365 183.878 109.706C183.332 110.042 182.684 110.21 181.932 110.21ZM181.932 109.027C182.716 109.027 183.3 108.766 183.682 108.243C184.065 107.72 184.256 107.044 184.256 106.213C184.256 105.359 184.063 104.68 183.675 104.176C183.288 103.667 182.707 103.413 181.932 103.413C181.405 103.413 180.971 103.532 180.63 103.77C180.29 104.008 180.035 104.337 179.867 104.757C179.699 105.177 179.615 105.662 179.615 106.213C179.615 107.062 179.811 107.744 180.203 108.257C180.595 108.77 181.172 109.027 181.932 109.027ZM192.504 110V106.213C192.504 105.854 192.471 105.508 192.406 105.177C192.345 104.846 192.235 104.549 192.077 104.288C191.923 104.022 191.713 103.812 191.447 103.658C191.185 103.504 190.854 103.427 190.453 103.427C190.14 103.427 189.855 103.481 189.599 103.588C189.347 103.691 189.13 103.849 188.948 104.064C188.766 104.279 188.623 104.549 188.521 104.876C188.423 105.198 188.374 105.578 188.374 106.017L187.555 105.765C187.555 105.032 187.685 104.405 187.947 103.882C188.213 103.355 188.584 102.951 189.06 102.671C189.54 102.386 190.105 102.244 190.754 102.244C191.244 102.244 191.661 102.321 192.007 102.475C192.352 102.629 192.639 102.834 192.868 103.091C193.096 103.343 193.276 103.628 193.407 103.945C193.537 104.258 193.628 104.577 193.68 104.904C193.736 105.226 193.764 105.532 193.764 105.821V110H192.504ZM187.114 110V102.44H188.234V104.463H188.374V110H187.114Z" fill="white"/>
<path d="M333.12 273V262.92H335.024V273H333.12ZM342.275 273V269.43C342.275 269.257 342.265 269.038 342.247 268.772C342.228 268.501 342.17 268.231 342.072 267.96C341.974 267.689 341.813 267.463 341.589 267.281C341.369 267.099 341.057 267.008 340.651 267.008C340.487 267.008 340.312 267.034 340.126 267.085C339.939 267.136 339.764 267.237 339.601 267.386C339.437 267.531 339.302 267.745 339.195 268.03C339.092 268.315 339.041 268.693 339.041 269.164L337.949 268.646C337.949 268.049 338.07 267.489 338.313 266.966C338.555 266.443 338.919 266.021 339.405 265.699C339.895 265.377 340.511 265.216 341.253 265.216C341.845 265.216 342.328 265.316 342.702 265.517C343.075 265.718 343.364 265.972 343.57 266.28C343.78 266.588 343.929 266.91 344.018 267.246C344.106 267.577 344.16 267.881 344.179 268.156C344.197 268.431 344.207 268.632 344.207 268.758V273H342.275ZM337.109 273V265.44H338.803V267.946H339.041V273H337.109ZM349.733 273.21C348.982 273.21 348.354 273.035 347.85 272.685C347.346 272.335 346.966 271.859 346.709 271.257C346.457 270.655 346.331 269.976 346.331 269.22C346.331 268.464 346.457 267.785 346.709 267.183C346.961 266.581 347.332 266.105 347.822 265.755C348.312 265.405 348.916 265.23 349.635 265.23C350.358 265.23 350.988 265.403 351.525 265.748C352.062 266.093 352.477 266.567 352.771 267.169C353.07 267.766 353.219 268.45 353.219 269.22C353.219 269.976 353.072 270.655 352.778 271.257C352.489 271.859 352.083 272.335 351.56 272.685C351.037 273.035 350.428 273.21 349.733 273.21ZM346.009 276.36V265.44H347.689V270.62H347.927V276.36H346.009ZM349.425 271.516C349.836 271.516 350.172 271.413 350.433 271.208C350.694 271.003 350.888 270.727 351.014 270.382C351.14 270.032 351.203 269.645 351.203 269.22C351.203 268.8 351.138 268.417 351.007 268.072C350.876 267.722 350.673 267.444 350.398 267.239C350.127 267.029 349.78 266.924 349.355 266.924C348.958 266.924 348.636 267.02 348.389 267.211C348.146 267.402 347.969 267.671 347.857 268.016C347.745 268.361 347.689 268.763 347.689 269.22C347.689 269.677 347.745 270.079 347.857 270.424C347.969 270.769 348.151 271.038 348.403 271.229C348.66 271.42 349 271.516 349.425 271.516ZM357.573 273.224C356.981 273.224 356.498 273.124 356.124 272.923C355.751 272.722 355.459 272.468 355.249 272.16C355.044 271.852 354.897 271.532 354.808 271.201C354.72 270.865 354.666 270.559 354.647 270.284C354.629 270.009 354.619 269.808 354.619 269.682V265.44H356.551V269.01C356.551 269.183 356.561 269.404 356.579 269.675C356.598 269.941 356.656 270.209 356.754 270.48C356.852 270.751 357.011 270.977 357.23 271.159C357.454 271.341 357.769 271.432 358.175 271.432C358.339 271.432 358.514 271.406 358.7 271.355C358.887 271.304 359.062 271.206 359.225 271.061C359.389 270.912 359.522 270.695 359.624 270.41C359.732 270.121 359.785 269.743 359.785 269.276L360.877 269.794C360.877 270.391 360.756 270.951 360.513 271.474C360.271 271.997 359.904 272.419 359.414 272.741C358.929 273.063 358.315 273.224 357.573 273.224ZM360.023 273V270.494H359.785V265.44H361.703V273H360.023ZM368.196 273C367.673 273.098 367.16 273.14 366.656 273.126C366.156 273.117 365.708 273.03 365.312 272.867C364.92 272.699 364.621 272.431 364.416 272.062C364.229 271.717 364.131 271.367 364.122 271.012C364.112 270.653 364.108 270.247 364.108 269.794V263.34H366.012V269.682C366.012 269.976 366.014 270.242 366.019 270.48C366.028 270.713 366.077 270.9 366.166 271.04C366.334 271.306 366.602 271.451 366.971 271.474C367.339 271.497 367.748 271.479 368.196 271.418V273ZM362.82 266.91V265.44H368.196V266.91H362.82ZM372.683 273V262.92H378.843V264.824H374.587V267.008H378.003V268.912H374.587V273H372.683ZM380.247 264.39V262.71H382.151V264.39H380.247ZM380.247 273V265.44H382.151V273H380.247ZM387.764 273.21C386.989 273.21 386.305 273.044 385.713 272.713C385.125 272.377 384.663 271.917 384.327 271.334C383.995 270.746 383.83 270.074 383.83 269.318C383.83 268.492 383.993 267.773 384.32 267.162C384.646 266.551 385.097 266.077 385.671 265.741C386.245 265.4 386.905 265.23 387.652 265.23C388.445 265.23 389.119 265.417 389.675 265.79C390.23 266.163 390.641 266.688 390.907 267.365C391.173 268.042 391.266 268.837 391.187 269.752H389.304V269.052C389.304 268.282 389.18 267.729 388.933 267.393C388.69 267.052 388.291 266.882 387.736 266.882C387.087 266.882 386.609 267.08 386.301 267.477C385.997 267.869 385.846 268.45 385.846 269.22C385.846 269.925 385.997 270.471 386.301 270.858C386.609 271.241 387.059 271.432 387.652 271.432C388.025 271.432 388.345 271.35 388.611 271.187C388.877 271.024 389.08 270.788 389.22 270.48L391.124 271.026C390.839 271.717 390.389 272.253 389.773 272.636C389.161 273.019 388.492 273.21 387.764 273.21ZM385.258 269.752V268.338H390.27V269.752H385.258ZM392.907 273V262.71H394.811V273H392.907ZM399.976 273.21C399.28 273.21 398.671 273.035 398.149 272.685C397.626 272.335 397.218 271.859 396.924 271.257C396.634 270.655 396.49 269.976 396.49 269.22C396.49 268.45 396.637 267.766 396.931 267.169C397.229 266.567 397.647 266.093 398.184 265.748C398.72 265.403 399.35 265.23 400.074 265.23C400.792 265.23 401.397 265.405 401.887 265.755C402.377 266.105 402.748 266.581 403 267.183C403.252 267.785 403.378 268.464 403.378 269.22C403.378 269.976 403.249 270.655 402.993 271.257C402.741 271.859 402.363 272.335 401.859 272.685C401.355 273.035 400.727 273.21 399.976 273.21ZM400.284 271.516C400.708 271.516 401.047 271.42 401.299 271.229C401.555 271.038 401.74 270.769 401.852 270.424C401.964 270.079 402.02 269.677 402.02 269.22C402.02 268.763 401.964 268.361 401.852 268.016C401.74 267.671 401.56 267.402 401.313 267.211C401.07 267.02 400.75 266.924 400.354 266.924C399.929 266.924 399.579 267.029 399.304 267.239C399.033 267.444 398.832 267.722 398.702 268.072C398.571 268.417 398.506 268.8 398.506 269.22C398.506 269.645 398.569 270.032 398.695 270.382C398.821 270.727 399.014 271.003 399.276 271.208C399.537 271.413 399.873 271.516 400.284 271.516ZM402.02 273V267.82H401.782V262.92H403.7V273H402.02Z" fill="white"/>
<path d="M407.793 266.793C407.402 267.183 407.402 267.817 407.793 268.207L414.157 274.571C414.547 274.962 415.181 274.962 415.571 274.571C415.962 274.181 415.962 273.547 415.571 273.157L409.914 267.5L415.571 261.843C415.962 261.453 415.962 260.819 415.571 260.429C415.181 260.038 414.547 260.038 414.157 260.429L407.793 266.793ZM458.5 143.5C457.948 143.5 457.5 143.948 457.5 144.5C457.5 145.052 457.948 145.5 458.5 145.5V143.5ZM408.5 268.5H485V266.5H408.5V268.5ZM510 243.5V168.5H508V243.5H510ZM485 143.5H458.5V145.5H485V143.5ZM510 168.5C510 154.693 498.807 143.5 485 143.5V145.5C497.703 145.5 508 155.797 508 168.5H510ZM485 268.5C498.807 268.5 510 257.307 510 243.5H508C508 256.203 497.703 266.5 485 266.5V268.5Z" fill="#F2F2F2"/>
<path d="M142.69 15.21C141.939 15.21 141.311 15.035 140.807 14.685C140.303 14.335 139.923 13.859 139.666 13.257C139.414 12.655 139.288 11.976 139.288 11.22C139.288 10.464 139.414 9.785 139.666 9.183C139.918 8.581 140.289 8.105 140.779 7.755C141.269 7.405 141.873 7.23 142.592 7.23C143.315 7.23 143.945 7.40267 144.482 7.748C145.019 8.09333 145.434 8.567 145.728 9.169C146.027 9.76633 146.176 10.45 146.176 11.22C146.176 11.976 146.029 12.655 145.735 13.257C145.446 13.859 145.04 14.335 144.517 14.685C143.994 15.035 143.385 15.21 142.69 15.21ZM138.966 18.36V7.44H140.646V12.62H140.884V18.36H138.966ZM142.382 13.516C142.793 13.516 143.129 13.4133 143.39 13.208C143.651 13.0027 143.845 12.7273 143.971 12.382C144.097 12.032 144.16 11.6447 144.16 11.22C144.16 10.8 144.095 10.4173 143.964 10.072C143.833 9.722 143.63 9.44433 143.355 9.239C143.084 9.029 142.737 8.924 142.312 8.924C141.915 8.924 141.593 9.01967 141.346 9.211C141.103 9.40233 140.926 9.67067 140.814 10.016C140.702 10.3613 140.646 10.7627 140.646 11.22C140.646 11.6773 140.702 12.0787 140.814 12.424C140.926 12.7693 141.108 13.0377 141.36 13.229C141.617 13.4203 141.957 13.516 142.382 13.516ZM147.716 15V7.44H149.396V9.288L149.214 9.05C149.312 8.78867 149.443 8.55067 149.606 8.336C149.77 8.12133 149.97 7.944 150.208 7.804C150.39 7.692 150.589 7.60567 150.803 7.545C151.018 7.47967 151.24 7.44 151.468 7.426C151.697 7.40733 151.926 7.412 152.154 7.44V9.218C151.944 9.15267 151.699 9.13167 151.419 9.155C151.144 9.17367 150.894 9.23667 150.67 9.344C150.446 9.44667 150.257 9.58433 150.103 9.757C149.949 9.925 149.833 10.1257 149.753 10.359C149.674 10.5877 149.634 10.8467 149.634 11.136V15H147.716ZM156.751 15.21C155.99 15.21 155.323 15.0397 154.749 14.699C154.175 14.3583 153.727 13.8893 153.405 13.292C153.088 12.69 152.929 11.9993 152.929 11.22C152.929 10.4313 153.092 9.73833 153.419 9.141C153.746 8.539 154.196 8.07 154.77 7.734C155.344 7.398 156.004 7.23 156.751 7.23C157.512 7.23 158.179 7.40033 158.753 7.741C159.332 8.08167 159.782 8.553 160.104 9.155C160.426 9.75233 160.587 10.4407 160.587 11.22C160.587 12.004 160.424 12.697 160.097 13.299C159.775 13.8963 159.325 14.3653 158.746 14.706C158.172 15.042 157.507 15.21 156.751 15.21ZM156.751 13.432C157.362 13.432 157.817 13.2267 158.116 12.816C158.419 12.4007 158.571 11.8687 158.571 11.22C158.571 10.548 158.417 10.0113 158.109 9.61C157.806 9.20867 157.353 9.008 156.751 9.008C156.336 9.008 155.995 9.10133 155.729 9.288C155.463 9.47467 155.265 9.73367 155.134 10.065C155.008 10.3963 154.945 10.7813 154.945 11.22C154.945 11.8967 155.097 12.4357 155.4 12.837C155.708 13.2337 156.158 13.432 156.751 13.432ZM171.226 15V10.534C171.226 10.0347 171.107 9.64733 170.869 9.372C170.636 9.092 170.312 8.952 169.896 8.952C169.63 8.952 169.399 9.015 169.203 9.141C169.007 9.26233 168.853 9.435 168.741 9.659C168.634 9.87833 168.58 10.1327 168.58 10.422L167.782 9.89C167.782 9.372 167.904 8.91467 168.146 8.518C168.394 8.12133 168.723 7.81333 169.133 7.594C169.549 7.37 170.008 7.258 170.512 7.258C171.376 7.258 172.027 7.51467 172.465 8.028C172.909 8.53667 173.13 9.204 173.13 10.03V15H171.226ZM162.112 15V7.44H163.792V9.946H164.03V15H162.112ZM166.676 15V10.534C166.676 10.0347 166.557 9.64733 166.319 9.372C166.086 9.092 165.762 8.952 165.346 8.952C164.95 8.952 164.63 9.08967 164.387 9.365C164.149 9.63567 164.03 9.988 164.03 10.422L163.232 9.862C163.232 9.36733 163.356 8.924 163.603 8.532C163.851 8.14 164.182 7.82967 164.597 7.601C165.017 7.37233 165.486 7.258 166.004 7.258C166.597 7.258 167.082 7.384 167.46 7.636C167.843 7.888 168.125 8.224 168.307 8.644C168.489 9.064 168.58 9.526 168.58 10.03V15H166.676ZM178.661 15.21C177.909 15.21 177.282 15.035 176.778 14.685C176.274 14.335 175.893 13.859 175.637 13.257C175.385 12.655 175.259 11.976 175.259 11.22C175.259 10.464 175.385 9.785 175.637 9.183C175.889 8.581 176.26 8.105 176.75 7.755C177.24 7.405 177.844 7.23 178.563 7.23C179.286 7.23 179.916 7.40267 180.453 7.748C180.989 8.09333 181.405 8.567 181.699 9.169C181.997 9.76633 182.147 10.45 182.147 11.22C182.147 11.976 182 12.655 181.706 13.257C181.416 13.859 181.01 14.335 180.488 14.685C179.965 15.035 179.356 15.21 178.661 15.21ZM174.937 18.36V7.44H176.617V12.62H176.855V18.36H174.937ZM178.353 13.516C178.763 13.516 179.099 13.4133 179.361 13.208C179.622 13.0027 179.816 12.7273 179.942 12.382C180.068 12.032 180.131 11.6447 180.131 11.22C180.131 10.8 180.065 10.4173 179.935 10.072C179.804 9.722 179.601 9.44433 179.326 9.239C179.055 9.029 178.707 8.924 178.283 8.924C177.886 8.924 177.564 9.01967 177.317 9.211C177.074 9.40233 176.897 9.67067 176.785 10.016C176.673 10.3613 176.617 10.7627 176.617 11.22C176.617 11.6773 176.673 12.0787 176.785 12.424C176.897 12.7693 177.079 13.0377 177.331 13.229C177.587 13.4203 177.928 13.516 178.353 13.516ZM188.223 15C187.7 15.098 187.187 15.14 186.683 15.126C186.184 15.1167 185.736 15.0303 185.339 14.867C184.947 14.699 184.648 14.4307 184.443 14.062C184.256 13.7167 184.158 13.3667 184.149 13.012C184.14 12.6527 184.135 12.2467 184.135 11.794V5.34H186.039V11.682C186.039 11.976 186.041 12.242 186.046 12.48C186.055 12.7133 186.104 12.9 186.193 13.04C186.361 13.306 186.629 13.4507 186.998 13.474C187.367 13.4973 187.775 13.4787 188.223 13.418V15ZM182.847 8.91V7.44H188.223V8.91H182.847ZM193.422 17.716C192.88 17.0813 192.416 16.3603 192.029 15.553C191.646 14.7457 191.354 13.901 191.154 13.019C190.958 12.1323 190.869 11.2527 190.888 10.38C190.869 9.50733 190.958 8.62767 191.154 7.741C191.354 6.85433 191.646 6.00967 192.029 5.207C192.416 4.39967 192.88 3.67867 193.422 3.044L194.836 4.08C194.266 4.766 193.821 5.452 193.499 6.138C193.177 6.81933 192.948 7.51233 192.813 8.217C192.682 8.917 192.614 9.638 192.61 10.38C192.614 11.122 192.682 11.8453 192.813 12.55C192.948 13.25 193.177 13.943 193.499 14.629C193.821 15.3103 194.266 15.994 194.836 16.68L193.422 17.716ZM196.235 7.44V4.92H198.139V7.44H196.235ZM198.979 7.44V4.92H200.883V7.44H198.979ZM355.143 7.44V4.92H357.047V7.44H355.143ZM357.887 7.44V4.92H359.791V7.44H357.887ZM363.167 17.716L361.753 16.68C362.323 15.994 362.768 15.3103 363.09 14.629C363.412 13.943 363.639 13.25 363.769 12.55C363.905 11.8453 363.975 11.122 363.979 10.38C363.975 9.638 363.905 8.917 363.769 8.217C363.639 7.51233 363.412 6.81933 363.09 6.138C362.768 5.452 362.323 4.766 361.753 4.08L363.167 3.044C363.709 3.67867 364.171 4.39967 364.553 5.207C364.941 6.00967 365.232 6.85433 365.428 7.741C365.629 8.62767 365.72 9.50733 365.701 10.38C365.72 11.2527 365.629 12.1323 365.428 13.019C365.232 13.901 364.941 14.7457 364.553 15.553C364.171 16.3603 363.709 17.0813 363.167 17.716ZM369.2 16.89L369.312 16.092C369.536 16.1107 369.718 16.0733 369.858 15.98C369.998 15.8913 370.094 15.7607 370.145 15.588C370.201 15.42 370.213 15.224 370.18 15H369.2V13.096H371.104V15C371.104 15.672 370.948 16.1807 370.635 16.526C370.322 16.8713 369.844 16.9927 369.2 16.89ZM369.2 9.344V7.44H371.104V9.344H369.2Z" fill="white"/>
<path d="M203.405 15V4.92H205.092V15H203.405ZM212.106 15.21C211.56 15.21 211.098 15.1073 210.72 14.902C210.342 14.692 210.055 14.4143 209.859 14.069C209.667 13.7237 209.572 13.3433 209.572 12.928C209.572 12.564 209.632 12.2373 209.754 11.948C209.875 11.654 210.062 11.402 210.314 11.192C210.566 10.9773 210.892 10.8023 211.294 10.667C211.597 10.569 211.952 10.4803 212.358 10.401C212.768 10.3217 213.212 10.2493 213.688 10.184C214.168 10.114 214.67 10.0393 215.193 9.96L214.591 10.303C214.595 9.78033 214.479 9.39533 214.241 9.148C214.003 8.90067 213.601 8.777 213.037 8.777C212.696 8.777 212.367 8.85633 212.05 9.015C211.732 9.17367 211.511 9.44667 211.385 9.834L209.845 9.351C210.031 8.71167 210.386 8.19833 210.909 7.811C211.436 7.42367 212.145 7.23 213.037 7.23C213.709 7.23 214.299 7.33967 214.808 7.559C215.321 7.77833 215.701 8.13767 215.949 8.637C216.084 8.903 216.166 9.176 216.194 9.456C216.222 9.73133 216.236 10.0323 216.236 10.359V15H214.759V13.362L215.004 13.628C214.663 14.174 214.264 14.5753 213.807 14.832C213.354 15.084 212.787 15.21 212.106 15.21ZM212.442 13.866C212.824 13.866 213.151 13.7983 213.422 13.663C213.692 13.5277 213.907 13.362 214.066 13.166C214.229 12.97 214.339 12.7857 214.395 12.613C214.483 12.3983 214.532 12.1533 214.542 11.878C214.556 11.598 214.563 11.3717 214.563 11.199L215.081 11.353C214.572 11.4323 214.136 11.5023 213.772 11.563C213.408 11.6237 213.095 11.682 212.834 11.738C212.572 11.7893 212.341 11.8477 212.141 11.913C211.945 11.983 211.779 12.0647 211.644 12.158C211.508 12.2513 211.403 12.3587 211.329 12.48C211.259 12.6013 211.224 12.7437 211.224 12.907C211.224 13.0937 211.27 13.2593 211.364 13.404C211.457 13.544 211.592 13.656 211.77 13.74C211.952 13.824 212.176 13.866 212.442 13.866ZM227.137 15V10.408C227.137 9.89 227.009 9.48633 226.752 9.197C226.495 8.903 226.148 8.756 225.709 8.756C225.438 8.756 225.196 8.819 224.981 8.945C224.766 9.06633 224.596 9.24833 224.47 9.491C224.344 9.729 224.281 10.0137 224.281 10.345L223.532 9.904C223.527 9.38133 223.644 8.92167 223.882 8.525C224.125 8.12367 224.451 7.811 224.862 7.587C225.273 7.363 225.73 7.251 226.234 7.251C227.069 7.251 227.709 7.503 228.152 8.007C228.6 8.50633 228.824 9.16433 228.824 9.981V15H227.137ZM218.044 15V7.44H219.535V9.785H219.745V15H218.044ZM222.601 15V10.429C222.601 9.90167 222.473 9.491 222.216 9.197C221.959 8.903 221.609 8.756 221.166 8.756C220.737 8.756 220.391 8.903 220.13 9.197C219.873 9.491 219.745 9.87367 219.745 10.345L218.989 9.841C218.989 9.351 219.11 8.91 219.353 8.518C219.596 8.126 219.922 7.818 220.333 7.594C220.748 7.36533 221.213 7.251 221.726 7.251C222.291 7.251 222.762 7.37233 223.14 7.615C223.523 7.853 223.807 8.17967 223.994 8.595C224.185 9.00567 224.281 9.47 224.281 9.988V15H222.601ZM235.567 15.21C235.021 15.21 234.559 15.1073 234.181 14.902C233.803 14.692 233.516 14.4143 233.32 14.069C233.128 13.7237 233.033 13.3433 233.033 12.928C233.033 12.564 233.093 12.2373 233.215 11.948C233.336 11.654 233.523 11.402 233.775 11.192C234.027 10.9773 234.353 10.8023 234.755 10.667C235.058 10.569 235.413 10.4803 235.819 10.401C236.229 10.3217 236.673 10.2493 237.149 10.184C237.629 10.114 238.131 10.0393 238.654 9.96L238.052 10.303C238.056 9.78033 237.94 9.39533 237.702 9.148C237.464 8.90067 237.062 8.777 236.498 8.777C236.157 8.777 235.828 8.85633 235.511 9.015C235.193 9.17367 234.972 9.44667 234.846 9.834L233.306 9.351C233.492 8.71167 233.847 8.19833 234.37 7.811C234.897 7.42367 235.606 7.23 236.498 7.23C237.17 7.23 237.76 7.33967 238.269 7.559C238.782 7.77833 239.162 8.13767 239.41 8.637C239.545 8.903 239.627 9.176 239.655 9.456C239.683 9.73133 239.697 10.0323 239.697 10.359V15H238.22V13.362L238.465 13.628C238.124 14.174 237.725 14.5753 237.268 14.832C236.815 15.084 236.248 15.21 235.567 15.21ZM235.903 13.866C236.285 13.866 236.612 13.7983 236.883 13.663C237.153 13.5277 237.368 13.362 237.527 13.166C237.69 12.97 237.8 12.7857 237.856 12.613C237.944 12.3983 237.993 12.1533 238.003 11.878C238.017 11.598 238.024 11.3717 238.024 11.199L238.542 11.353C238.033 11.4323 237.597 11.5023 237.233 11.563C236.869 11.6237 236.556 11.682 236.295 11.738C236.033 11.7893 235.802 11.8477 235.602 11.913C235.406 11.983 235.24 12.0647 235.105 12.158C234.969 12.2513 234.864 12.3587 234.79 12.48C234.72 12.6013 234.685 12.7437 234.685 12.907C234.685 13.0937 234.731 13.2593 234.825 13.404C234.918 13.544 235.053 13.656 235.231 13.74C235.413 13.824 235.637 13.866 235.903 13.866ZM247.955 15.21C247.217 15.21 246.599 15.035 246.1 14.685C245.6 14.335 245.225 13.859 244.973 13.257C244.721 12.6503 244.595 11.9713 244.595 11.22C244.595 10.4593 244.721 9.778 244.973 9.176C245.225 8.574 245.593 8.10033 246.079 7.755C246.569 7.405 247.173 7.23 247.892 7.23C248.606 7.23 249.224 7.405 249.747 7.755C250.274 8.10033 250.682 8.574 250.972 9.176C251.261 9.77333 251.406 10.4547 251.406 11.22C251.406 11.976 251.263 12.655 250.979 13.257C250.694 13.859 250.293 14.335 249.775 14.685C249.257 15.035 248.65 15.21 247.955 15.21ZM244.308 18.36V7.44H245.799V12.746H246.009V18.36H244.308ZM247.696 13.698C248.134 13.698 248.496 13.5883 248.781 13.369C249.065 13.1497 249.275 12.8533 249.411 12.48C249.551 12.102 249.621 11.682 249.621 11.22C249.621 10.7627 249.551 10.3473 249.411 9.974C249.271 9.596 249.054 9.29733 248.76 9.078C248.466 8.854 248.092 8.742 247.64 8.742C247.21 8.742 246.86 8.847 246.59 9.057C246.319 9.26233 246.118 9.55167 245.988 9.925C245.862 10.2937 245.799 10.7253 245.799 11.22C245.799 11.71 245.862 12.1417 245.988 12.515C246.118 12.8883 246.321 13.18 246.597 13.39C246.877 13.5953 247.243 13.698 247.696 13.698ZM252.949 15V7.44H254.44V9.281L254.258 9.043C254.351 8.791 254.475 8.56233 254.629 8.357C254.787 8.147 254.976 7.97433 255.196 7.839C255.382 7.713 255.588 7.615 255.812 7.545C256.04 7.47033 256.274 7.426 256.512 7.412C256.75 7.39333 256.981 7.40267 257.205 7.44V9.015C256.981 8.94967 256.722 8.92867 256.428 8.952C256.138 8.97533 255.877 9.057 255.644 9.197C255.41 9.323 255.219 9.484 255.07 9.68C254.925 9.876 254.818 10.1 254.748 10.352C254.678 10.5993 254.643 10.8677 254.643 11.157V15H252.949ZM261.743 15.21C260.987 15.21 260.326 15.0397 259.762 14.699C259.197 14.3583 258.758 13.8893 258.446 13.292C258.138 12.69 257.984 11.9993 257.984 11.22C257.984 10.4267 258.142 9.73133 258.46 9.134C258.777 8.53667 259.218 8.07 259.783 7.734C260.347 7.398 261.001 7.23 261.743 7.23C262.503 7.23 263.166 7.40033 263.731 7.741C264.295 8.08167 264.734 8.553 265.047 9.155C265.359 9.75233 265.516 10.4407 265.516 11.22C265.516 12.004 265.357 12.697 265.04 13.299C264.727 13.8963 264.288 14.3653 263.724 14.706C263.159 15.042 262.499 15.21 261.743 15.21ZM261.743 13.628C262.415 13.628 262.914 13.404 263.241 12.956C263.567 12.508 263.731 11.9293 263.731 11.22C263.731 10.4873 263.565 9.904 263.234 9.47C262.902 9.03133 262.405 8.812 261.743 8.812C261.29 8.812 260.917 8.91467 260.623 9.12C260.333 9.32067 260.119 9.603 259.979 9.967C259.839 10.3263 259.769 10.744 259.769 11.22C259.769 11.9527 259.934 12.5383 260.266 12.977C260.602 13.411 261.094 13.628 261.743 13.628ZM276.137 15V10.408C276.137 9.89 276.009 9.48633 275.752 9.197C275.495 8.903 275.148 8.756 274.709 8.756C274.438 8.756 274.196 8.819 273.981 8.945C273.766 9.06633 273.596 9.24833 273.47 9.491C273.344 9.729 273.281 10.0137 273.281 10.345L272.532 9.904C272.527 9.38133 272.644 8.92167 272.882 8.525C273.125 8.12367 273.451 7.811 273.862 7.587C274.273 7.363 274.73 7.251 275.234 7.251C276.069 7.251 276.709 7.503 277.152 8.007C277.6 8.50633 277.824 9.16433 277.824 9.981V15H276.137ZM267.044 15V7.44H268.535V9.785H268.745V15H267.044ZM271.601 15V10.429C271.601 9.90167 271.473 9.491 271.216 9.197C270.959 8.903 270.609 8.756 270.166 8.756C269.737 8.756 269.391 8.903 269.13 9.197C268.873 9.491 268.745 9.87367 268.745 10.345L267.989 9.841C267.989 9.351 268.11 8.91 268.353 8.518C268.596 8.126 268.922 7.818 269.333 7.594C269.748 7.36533 270.213 7.251 270.726 7.251C271.291 7.251 271.762 7.37233 272.14 7.615C272.523 7.853 272.807 8.17967 272.994 8.595C273.185 9.00567 273.281 9.47 273.281 9.988V15H271.601ZM283.283 15.21C282.546 15.21 281.927 15.035 281.428 14.685C280.929 14.335 280.553 13.859 280.301 13.257C280.049 12.6503 279.923 11.9713 279.923 11.22C279.923 10.4593 280.049 9.778 280.301 9.176C280.553 8.574 280.922 8.10033 281.407 7.755C281.897 7.405 282.501 7.23 283.22 7.23C283.934 7.23 284.552 7.405 285.075 7.755C285.602 8.10033 286.011 8.574 286.3 9.176C286.589 9.77333 286.734 10.4547 286.734 11.22C286.734 11.976 286.592 12.655 286.307 13.257C286.022 13.859 285.621 14.335 285.103 14.685C284.585 15.035 283.978 15.21 283.283 15.21ZM279.636 18.36V7.44H281.127V12.746H281.337V18.36H279.636ZM283.024 13.698C283.463 13.698 283.824 13.5883 284.109 13.369C284.394 13.1497 284.604 12.8533 284.739 12.48C284.879 12.102 284.949 11.682 284.949 11.22C284.949 10.7627 284.879 10.3473 284.739 9.974C284.599 9.596 284.382 9.29733 284.088 9.078C283.794 8.854 283.421 8.742 282.968 8.742C282.539 8.742 282.189 8.847 281.918 9.057C281.647 9.26233 281.447 9.55167 281.316 9.925C281.19 10.2937 281.127 10.7253 281.127 11.22C281.127 11.71 281.19 12.1417 281.316 12.515C281.447 12.8883 281.65 13.18 281.925 13.39C282.205 13.5953 282.571 13.698 283.024 13.698ZM292.708 15C292.209 15.0933 291.719 15.133 291.238 15.119C290.762 15.1097 290.335 15.0233 289.957 14.86C289.579 14.692 289.292 14.4283 289.096 14.069C288.923 13.7423 288.832 13.4087 288.823 13.068C288.814 12.7273 288.809 12.3423 288.809 11.913V5.34H290.489V11.815C290.489 12.1183 290.491 12.3843 290.496 12.613C290.505 12.8417 290.554 13.0283 290.643 13.173C290.811 13.453 291.079 13.6093 291.448 13.642C291.817 13.6747 292.237 13.656 292.708 13.586V15ZM287.437 8.763V7.44H292.708V8.763H287.437ZM297.794 15V7.321C297.794 7.12967 297.801 6.91967 297.815 6.691C297.829 6.45767 297.869 6.22667 297.934 5.998C298 5.76933 298.119 5.56167 298.291 5.375C298.506 5.137 298.737 4.97367 298.984 4.885C299.236 4.79167 299.484 4.74033 299.726 4.731C299.969 4.717 300.181 4.71 300.363 4.71H301.308V6.082H300.433C300.111 6.082 299.871 6.16367 299.712 6.327C299.558 6.48567 299.481 6.69567 299.481 6.957V15H297.794ZM296.576 8.763V7.44H301.308V8.763H296.576ZM305.262 15.217C304.702 15.217 304.24 15.1237 303.876 14.937C303.512 14.7503 303.223 14.5123 303.008 14.223C302.794 13.9337 302.635 13.6257 302.532 13.299C302.43 12.9723 302.362 12.6643 302.329 12.375C302.301 12.081 302.287 11.843 302.287 11.661V7.44H303.995V11.08C303.995 11.3133 304.012 11.577 304.044 11.871C304.077 12.1603 304.152 12.4403 304.268 12.711C304.39 12.977 304.567 13.1963 304.8 13.369C305.038 13.5417 305.358 13.628 305.759 13.628C305.974 13.628 306.186 13.593 306.396 13.523C306.606 13.453 306.795 13.334 306.963 13.166C307.136 12.9933 307.274 12.7577 307.376 12.459C307.479 12.1603 307.53 11.7823 307.53 11.325L308.531 11.752C308.531 12.396 308.405 12.9793 308.153 13.502C307.906 14.0247 307.54 14.4423 307.054 14.755C306.569 15.063 305.972 15.217 305.262 15.217ZM307.733 15V12.655H307.53V7.44H309.224V15H307.733ZM316.42 15V11.36C316.42 11.122 316.404 10.8583 316.371 10.569C316.338 10.2797 316.261 10.002 316.14 9.736C316.023 9.46533 315.846 9.24367 315.608 9.071C315.375 8.89833 315.057 8.812 314.656 8.812C314.441 8.812 314.229 8.847 314.019 8.917C313.809 8.987 313.618 9.10833 313.445 9.281C313.277 9.449 313.142 9.68233 313.039 9.981C312.936 10.275 312.885 10.653 312.885 11.115L311.884 10.688C311.884 10.044 312.008 9.46067 312.255 8.938C312.507 8.41533 312.876 8 313.361 7.692C313.846 7.37933 314.444 7.223 315.153 7.223C315.713 7.223 316.175 7.31633 316.539 7.503C316.903 7.68967 317.192 7.92767 317.407 8.217C317.622 8.50633 317.78 8.81433 317.883 9.141C317.986 9.46767 318.051 9.778 318.079 10.072C318.112 10.3613 318.128 10.597 318.128 10.779V15H316.42ZM311.177 15V7.44H312.682V9.785H312.885V15H311.177ZM323.115 15.21C322.335 15.21 321.67 15.0373 321.12 14.692C320.569 14.342 320.147 13.866 319.853 13.264C319.563 12.662 319.416 11.9807 319.412 11.22C319.416 10.4453 319.568 9.75933 319.867 9.162C320.17 8.56 320.599 8.08867 321.155 7.748C321.71 7.40267 322.37 7.23 323.136 7.23C323.994 7.23 324.72 7.447 325.313 7.881C325.91 8.31033 326.3 8.89833 326.482 9.645L324.802 10.1C324.671 9.694 324.454 9.379 324.151 9.155C323.847 8.92633 323.502 8.812 323.115 8.812C322.676 8.812 322.314 8.917 322.03 9.127C321.745 9.33233 321.535 9.617 321.4 9.981C321.264 10.345 321.197 10.758 321.197 11.22C321.197 11.9387 321.358 12.5197 321.68 12.963C322.002 13.4063 322.48 13.628 323.115 13.628C323.563 13.628 323.915 13.5253 324.172 13.32C324.433 13.1147 324.629 12.8183 324.76 12.431L326.482 12.816C326.248 13.586 325.84 14.1787 325.257 14.594C324.673 15.0047 323.959 15.21 323.115 15.21ZM332.315 15C331.816 15.0933 331.326 15.133 330.845 15.119C330.369 15.1097 329.942 15.0233 329.564 14.86C329.186 14.692 328.899 14.4283 328.703 14.069C328.531 13.7423 328.44 13.4087 328.43 13.068C328.421 12.7273 328.416 12.3423 328.416 11.913V5.34H330.096V11.815C330.096 12.1183 330.099 12.3843 330.103 12.613C330.113 12.8417 330.162 13.0283 330.25 13.173C330.418 13.453 330.687 13.6093 331.055 13.642C331.424 13.6747 331.844 13.656 332.315 13.586V15ZM327.044 8.763V7.44H332.315V8.763H327.044ZM334.081 6.292V4.745H335.768V6.292H334.081ZM334.081 15V7.44H335.768V15H334.081ZM341.204 15.21C340.448 15.21 339.787 15.0397 339.223 14.699C338.658 14.3583 338.219 13.8893 337.907 13.292C337.599 12.69 337.445 11.9993 337.445 11.22C337.445 10.4267 337.603 9.73133 337.921 9.134C338.238 8.53667 338.679 8.07 339.244 7.734C339.808 7.398 340.462 7.23 341.204 7.23C341.964 7.23 342.627 7.40033 343.192 7.741C343.756 8.08167 344.195 8.553 344.508 9.155C344.82 9.75233 344.977 10.4407 344.977 11.22C344.977 12.004 344.818 12.697 344.501 13.299C344.188 13.8963 343.749 14.3653 343.185 14.706C342.62 15.042 341.96 15.21 341.204 15.21ZM341.204 13.628C341.876 13.628 342.375 13.404 342.702 12.956C343.028 12.508 343.192 11.9293 343.192 11.22C343.192 10.4873 343.026 9.904 342.695 9.47C342.363 9.03133 341.866 8.812 341.204 8.812C340.751 8.812 340.378 8.91467 340.084 9.12C339.794 9.32067 339.58 9.603 339.44 9.967C339.3 10.3263 339.23 10.744 339.23 11.22C339.23 11.9527 339.395 12.5383 339.727 12.977C340.063 13.411 340.555 13.628 341.204 13.628ZM351.748 15V11.36C351.748 11.122 351.732 10.8583 351.699 10.569C351.666 10.2797 351.589 10.002 351.468 9.736C351.351 9.46533 351.174 9.24367 350.936 9.071C350.703 8.89833 350.385 8.812 349.984 8.812C349.769 8.812 349.557 8.847 349.347 8.917C349.137 8.987 348.946 9.10833 348.773 9.281C348.605 9.449 348.47 9.68233 348.367 9.981C348.264 10.275 348.213 10.653 348.213 11.115L347.212 10.688C347.212 10.044 347.336 9.46067 347.583 8.938C347.835 8.41533 348.204 8 348.689 7.692C349.174 7.37933 349.772 7.223 350.481 7.223C351.041 7.223 351.503 7.31633 351.867 7.503C352.231 7.68967 352.52 7.92767 352.735 8.217C352.95 8.50633 353.108 8.81433 353.211 9.141C353.314 9.46767 353.379 9.778 353.407 10.072C353.44 10.3613 353.456 10.597 353.456 10.779V15H351.748ZM346.505 15V7.44H348.01V9.785H348.213V15H346.505Z" fill="#FFD966"/>
<path d="M135.207 10.2071C135.598 9.81658 135.598 9.18342 135.207 8.79289L128.843 2.42893C128.453 2.03841 127.819 2.03841 127.429 2.42893C127.038 2.81946 127.038 3.45262 127.429 3.84315L133.086 9.5L127.429 15.1569C127.038 15.5474 127.038 16.1805 127.429 16.5711C127.819 16.9616 128.453 16.9616 128.843 16.5711L135.207 10.2071ZM44.5 105.5C45.0523 105.5 45.5 105.052 45.5 104.5C45.5 103.948 45.0523 103.5 44.5 103.5V105.5ZM134.5 8.5H25V10.5H134.5V8.5ZM0 33.5V80.5H2V33.5H0ZM25 105.5H44.5V103.5H25V105.5ZM0 80.5C0 94.3071 11.1929 105.5 25 105.5V103.5C12.2975 103.5 2 93.2025 2 80.5H0ZM25 8.5C11.1929 8.5 0 19.6929 0 33.5H2C2 20.7975 12.2975 10.5 25 10.5V8.5Z" fill="#FFD966"/>
</svg>
